<svg width="24" height="24" viewBox="0 0 24 24" fill="none" xmlns="http://www.w3.org/2000/svg">
<path opacity="0.4" d="M7.47701 3.44414C8.11306 3.57167 8.58144 3.77028 8.9356 4C10.4923 3.61483 12.296 3.45976 14 3.60882C12.2706 1.86729 9.86916 1.6556 7.40795 2.42103C6.81579 2.60519 6.89381 3.3393 7.47701 3.44414Z" fill="white"/>
<path d="M4.70101 14.2285C5.85541 13.2195 7.1709 12.9887 8.61099 13.5425C9.9486 14.0735 12.1361 14.7006 14.1309 15.0225C13.9871 14.7959 13.9858 14.7945 13.976 14.7775C13.438 13.8409 12.2579 11.4101 12.9191 9.07467C13.3088 7.69836 14.2607 6.59106 15.7486 5.78347C15.7607 5.77664 15.7585 5.77788 16 5.64557C14.1845 4.9576 12.1216 4.85807 10.2144 5.16537C8.48852 5.44187 7.58832 5.87792 6.74298 6.43745C2.63287 9.15465 1.45818 12.8393 2.21571 15.9321C2.21579 15.9324 2.21591 15.9326 2.21599 15.9329C3.10394 19.5546 6.81638 21.8222 6.97398 21.917C7.06249 21.9702 7.16408 22 7.27792 22C7.44071 22 8.46288 21.9655 9.17239 21.1286C9.79947 20.3888 9.97795 19.2877 9.70272 17.8557C9.633 17.4926 9.2416 17.2826 8.89769 17.4333C8.88809 17.4375 7.92398 17.8537 6.74828 17.8095C5.33581 17.7562 4.22534 17.0751 3.44347 15.7838C3.64512 15.4327 4.06792 14.7818 4.70101 14.2285Z" fill="#F7F8FA"/>
<path d="M21.9928 13.5566C21.4788 10.2309 20.0123 7.50365 17.4302 6C16.0684 6.73993 16.5382 6.48488 16.4365 6.53997C15.2254 7.19088 14.4577 8.05901 14.1546 9.12022C13.6134 11.0156 14.6299 13.0869 15.1001 13.9012L15.7559 14.9254C17.7098 15.1023 19.7372 14.9955 21.4498 14.2673C21.6536 14.1806 21.7985 14.1301 21.9082 13.9594C21.9851 13.8396 22.0151 13.6967 21.9928 13.5566ZM17.6414 10.5137C17.3042 10.5137 17.052 10.2463 17.052 9.93338C17.052 9.61991 17.3047 9.3531 17.6414 9.3531C17.9641 9.3531 18.2258 9.61291 18.2258 9.93338C18.2258 10.2538 17.9641 10.5137 17.6414 10.5137Z" fill="#F7F8FA"/>
</svg>
