<svg width="24" height="24" viewBox="0 0 24 24" fill="none" xmlns="http://www.w3.org/2000/svg">
<g clip-path="url(#clip0)">
<path d="M6.64862 14.6851L8.13236 16.0685L8.72561 14.1286L7.24187 12.7452L6.64862 14.6851Z" fill="#F7F8FA"/>
<path opacity="0.4" d="M22.4798 2.16282L14.6693 0.0699889C13.6735 -0.196589 12.6492 0.320676 12.2543 1.242H15.7616C17.6679 1.242 19.2187 2.79282 19.2187 4.69904V18.1756C19.2187 18.4967 19.1732 18.812 19.0875 19.1137C19.2247 19.0694 19.3585 19.0109 19.4863 18.9371C19.9607 18.6632 20.3 18.221 20.4418 17.6919L23.9299 4.67452C24.2225 3.58224 23.572 2.4555 22.4798 2.16282Z" fill="white"/>
<path opacity="0.4" d="M15.7617 2.64832H7.67578C6.64706 2.64832 5.79309 3.40975 5.64722 4.39858L8.89692 3.52783C9.19415 3.44819 9.50015 3.40778 9.80634 3.40778C11.3949 3.40778 12.7915 4.47935 13.2026 6.01371L16.6603 18.9179C16.7522 19.261 16.7912 19.6099 16.7789 19.9552C17.3958 19.6013 17.8125 18.9364 17.8125 18.1757V4.6991C17.8125 3.56828 16.8925 2.64832 15.7617 2.64832Z" fill="white"/>
<path d="M9.26093 4.88608L1.56368 6.94853C0.440177 7.24956 -0.228917 8.4085 0.072114 9.532L3.5298 22.4362C3.83083 23.5597 4.98977 24.2288 6.11327 23.9277L13.8105 21.8653C14.934 21.5642 15.6031 20.4053 15.302 19.2818L11.8444 6.37764C11.5433 5.25414 10.3844 4.58505 9.26093 4.88608ZM3.45607 11.2944C3.08097 11.3949 2.69543 11.1723 2.59493 10.7972L2.29165 9.66522C2.19115 9.29012 2.41375 8.90458 2.78885 8.80408C3.16394 8.70358 3.54949 8.92619 3.64999 9.30128L3.95327 10.4332C4.05377 10.8083 3.83116 11.1939 3.45607 11.2944ZM9.14805 17.5556C9.07713 17.7874 8.89179 17.9664 8.65765 18.0291C8.42346 18.0919 8.17352 18.0295 7.99619 17.8643L5.36819 15.4141C5.17155 15.2307 5.09669 14.9513 5.1753 14.6941L6.2261 11.2582C6.29702 11.0263 6.48236 10.8474 6.71651 10.7846C6.95069 10.7219 7.20063 10.7842 7.37796 10.9495L10.006 13.3997C10.2026 13.5831 10.2775 13.8625 10.1988 14.1197L9.14805 17.5556ZM13.0825 19.1486C13.183 19.5237 12.9604 19.9092 12.5853 20.0097C12.2102 20.1102 11.8247 19.8876 11.7242 19.5125L11.4209 18.3806C11.3204 18.0055 11.543 17.62 11.9181 17.5195C12.2932 17.419 12.6787 17.6416 12.7792 18.0167L13.0825 19.1486Z" fill="#F7F8FA"/>
</g>
<defs>
<clipPath id="clip0">
<rect width="24" height="24" fill="white"/>
</clipPath>
</defs>
</svg>
