<svg width="24" height="24" viewBox="0 0 24 24" fill="none" xmlns="http://www.w3.org/2000/svg">
<path d="M18.0249 5.92493H0.703125C0.314759 5.92493 0 6.23987 0 6.62805V15.8655C0 16.2539 0.314759 16.5687 0.703125 16.5687H18.0249C18.4133 16.5687 18.728 16.2539 18.728 15.8655V6.62805C18.728 6.23987 18.4133 5.92493 18.0249 5.92493ZM15.7156 14.2593C15.7156 14.6477 15.4008 14.9625 15.0125 14.9625H3.71558C3.32739 14.9625 3.01245 14.6477 3.01245 14.2593V8.23444C3.01245 7.84607 3.32739 7.53131 3.71558 7.53131H15.0125C15.4008 7.53131 15.7156 7.84607 15.7156 8.23444V14.2593Z" fill="#F7F8FA"/>
<path d="M11.95 8.93756H14.3093V13.5562H11.95V8.93756Z" fill="#F7F8FA"/>
<path d="M8.18445 8.93756H10.5438V13.5562H8.18445V8.93756Z" fill="#F7F8FA"/>
<path d="M4.4187 8.93756H6.7782V13.5562H4.4187V8.93756Z" fill="#F7F8FA"/>
<path d="M1.50623 23.2969C1.50623 23.6852 1.82117 24 2.20935 24H16.5187C16.9071 24 17.2218 23.6852 17.2218 23.2969V17.9751H1.50623V23.2969ZM12 19.5813H13.5062C13.8946 19.5813 14.2094 19.8961 14.2094 20.2844C14.2094 20.6726 13.8946 20.9876 13.5062 20.9876H12C11.6116 20.9876 11.2969 20.6726 11.2969 20.2844C11.2969 19.8961 11.6116 19.5813 12 19.5813Z" fill="#79797B"/>
<path d="M17.2218 3.71558C17.2218 1.66681 15.5552 0 13.5062 0H5.2218C3.17304 0 1.50623 1.66681 1.50623 3.71558V4.51868H17.2218V3.71558Z" fill="#79797B"/>
<path d="M21.0875 6.50885V10.5438H20.1343V11.95H21.7907C22.1788 11.95 22.4938 11.6353 22.4938 11.2469V6.50885C22.2662 6.55389 22.0311 6.57806 21.7907 6.57806C21.55 6.57806 21.3151 6.55389 21.0875 6.50885Z" fill="#F7F8FA"/>
<path d="M21.7907 0.753113C20.5724 0.753113 19.5813 1.74426 19.5813 2.96247C19.5813 4.18067 20.5724 5.17182 21.7907 5.17182C23.0089 5.17182 24 4.18067 24 2.96247C24 1.74426 23.0089 0.753113 21.7907 0.753113Z" fill="#F7F8FA"/>
</svg>
