<svg width="24" height="24" viewBox="0 0 24 24" fill="none" xmlns="http://www.w3.org/2000/svg">
<path d="M17.2411 9.75294L18.147 8.84711H17.2411V9.75294Z" fill="#F7F8FA"/>
<path d="M3.22986 8.84711H4.63098V10.2482H3.22986V8.84711Z" fill="#F7F8FA"/>
<path d="M3.22986 15.8531H4.63098V17.2543H3.22986V15.8531Z" fill="#F7F8FA"/>
<path d="M3.22986 12.3505H4.63098V13.7517H3.22986V12.3505Z" fill="#F7F8FA"/>
<path d="M6.73248 19.3558H8.13361V20.7569H6.73248V19.3558Z" fill="#F7F8FA"/>
<path d="M13.7386 13.2564L14.6444 12.3505H13.7386V13.2564Z" fill="#F7F8FA"/>
<path d="M13.7386 8.84711H15.1397V10.2482H13.7386V8.84711Z" fill="#F7F8FA"/>
<path d="M20.0433 1.84186H1.82867V6.7458H20.0433V1.84186ZM7.43318 3.24298C7.43318 3.66332 7.24333 4.03672 6.94909 4.29383C7.24333 4.55093 7.43318 4.92434 7.43318 5.34467V6.04524H6.73262V5.34467C6.73262 4.95831 6.41841 4.64411 6.03205 4.64411V6.04524H5.33149V2.54242H6.03205V3.94355C6.41841 3.94355 6.73262 3.62934 6.73262 3.24298V2.54242H7.43318V3.24298ZM9.88515 3.24298H8.8343V3.94355H9.88515V4.64411H8.8343V5.34467H9.88515V6.04524H8.48402C8.29067 6.04524 8.13374 5.88831 8.13374 5.69495V2.8927C8.13374 2.69935 8.29067 2.54242 8.48402 2.54242H9.88515V3.24298ZM13.0377 5.69495C13.0377 5.85118 12.9344 5.98849 12.7841 6.03157C12.7522 6.04068 12.7196 6.04524 12.6874 6.04524C12.569 6.04524 12.4555 5.98499 12.3904 5.8806L11.2863 4.11413V6.04524H10.5857V2.8927C10.5857 2.73648 10.689 2.59917 10.8393 2.55608C10.9892 2.5137 11.1504 2.57465 11.233 2.7074L12.3371 4.47352V2.54242H13.0377V5.69495ZM16.5405 4.64411C16.5405 5.41683 15.9121 6.04524 15.1394 6.04524C14.3667 6.04524 13.7382 5.41683 13.7382 4.64411V3.94355C13.7382 3.17083 14.3667 2.54242 15.1394 2.54242C15.9121 2.54242 16.5405 3.17083 16.5405 3.94355V4.64411Z" fill="#F7F8FA"/>
<path d="M3.22986 19.3558H4.63098V20.7569H3.22986V19.3558Z" fill="#F7F8FA"/>
<path d="M15.1393 3.24304C14.7529 3.24304 14.4387 3.55724 14.4387 3.9436V4.64417C14.4387 5.03053 14.7529 5.34473 15.1393 5.34473C15.5256 5.34473 15.8398 5.03053 15.8398 4.64417V3.9436C15.8398 3.55724 15.5256 3.24304 15.1393 3.24304Z" fill="#F7F8FA"/>
<path d="M6.73248 15.8531H8.13361V17.2543H6.73248V15.8531Z" fill="#F7F8FA"/>
<path d="M10.2351 8.84711H11.6362V10.2482H10.2351V8.84711Z" fill="#F7F8FA"/>
<path d="M10.2351 12.3505H11.6362V13.7517H10.2351V12.3505Z" fill="#F7F8FA"/>
<path d="M6.73248 12.3505H8.13361V13.7517H6.73248V12.3505Z" fill="#F7F8FA"/>
<path opacity="0.4" d="M10.6683 18.2228L12.4799 17.317L21.9999 7.797L21.0941 6.89117L11.5741 16.4115L10.6683 18.2228Z" fill="white"/>
<path d="M6.73248 8.84711H8.13361V10.2482H6.73248V8.84711Z" fill="#F7F8FA"/>
<path d="M19.3428 12.0004V14.1021C19.3428 14.2958 19.1858 14.4523 18.9925 14.4523H16.8908C16.7402 14.4523 16.6144 14.3564 16.565 14.2226L15.6105 15.1771C15.7436 15.2268 15.8399 15.3526 15.8399 15.5032V17.6049C15.8399 17.7986 15.683 17.9552 15.4897 17.9552H13.388C13.2373 17.9552 13.1116 17.8592 13.0622 17.7254L12.9351 17.8525C12.9084 17.8792 12.8776 17.9016 12.844 17.9184L10.0417 19.3195C9.99199 19.3444 9.93839 19.3563 9.88515 19.3563C9.79408 19.3563 9.7044 19.3209 9.63715 19.2537C9.53066 19.1468 9.50404 18.9839 9.5713 18.8494L10.019 17.9552H9.88515C9.69179 17.9552 9.53487 17.7986 9.53487 17.6049V15.5032C9.53487 15.3095 9.69179 15.1529 9.88515 15.1529H11.8418L13.0377 13.957V12.0004C13.0377 11.807 13.1946 11.6501 13.388 11.6501H15.3446L16.5405 10.4542V8.49756C16.5405 8.30421 16.6974 8.14728 16.8908 8.14728H18.8475L19.548 7.44672H1.82867V22.1585H20.0433V10.7443L19.113 11.6746C19.2464 11.724 19.3428 11.8498 19.3428 12.0004ZM13.0377 8.49756C13.0377 8.30421 13.1946 8.14728 13.388 8.14728H15.4897C15.683 8.14728 15.8399 8.30421 15.8399 8.49756V10.5992C15.8399 10.7926 15.683 10.9495 15.4897 10.9495H13.388C13.1946 10.9495 13.0377 10.7926 13.0377 10.5992V8.49756ZM9.53487 8.49756C9.53487 8.30421 9.69179 8.14728 9.88515 8.14728H11.9868C12.1802 8.14728 12.3371 8.30421 12.3371 8.49756V10.5992C12.3371 10.7926 12.1802 10.9495 11.9868 10.9495H9.88515C9.69179 10.9495 9.53487 10.7926 9.53487 10.5992V8.49756ZM9.53487 12.0004C9.53487 11.807 9.69179 11.6501 9.88515 11.6501H11.9868C12.1802 11.6501 12.3371 11.807 12.3371 12.0004V14.1021C12.3371 14.2958 12.1802 14.4523 11.9868 14.4523H9.88515C9.69179 14.4523 9.53487 14.2958 9.53487 14.1021V12.0004ZM5.33149 21.1077C5.33149 21.3014 5.17456 21.458 4.98121 21.458H2.87952C2.68616 21.458 2.52924 21.3014 2.52924 21.1077V19.006C2.52924 18.8123 2.68616 18.6557 2.87952 18.6557H4.98121C5.17456 18.6557 5.33149 18.8123 5.33149 19.006V21.1077ZM5.33149 17.6049C5.33149 17.7986 5.17456 17.9552 4.98121 17.9552H2.87952C2.68616 17.9552 2.52924 17.7986 2.52924 17.6049V15.5032C2.52924 15.3095 2.68616 15.1529 2.87952 15.1529H4.98121C5.17456 15.1529 5.33149 15.3095 5.33149 15.5032V17.6049ZM5.33149 14.1021C5.33149 14.2958 5.17456 14.4523 4.98121 14.4523H2.87952C2.68616 14.4523 2.52924 14.2958 2.52924 14.1021V12.0004C2.52924 11.807 2.68616 11.6501 2.87952 11.6501H4.98121C5.17456 11.6501 5.33149 11.807 5.33149 12.0004V14.1021ZM5.33149 10.5992C5.33149 10.7926 5.17456 10.9495 4.98121 10.9495H2.87952C2.68616 10.9495 2.52924 10.7926 2.52924 10.5992V8.49756C2.52924 8.30421 2.68616 8.14728 2.87952 8.14728H4.98121C5.17456 8.14728 5.33149 8.30421 5.33149 8.49756V10.5992ZM8.8343 21.1077C8.8343 21.3014 8.67738 21.458 8.48402 21.458H6.38233C6.18898 21.458 6.03205 21.3014 6.03205 21.1077V19.006C6.03205 18.8123 6.18898 18.6557 6.38233 18.6557H8.48402C8.67738 18.6557 8.8343 18.8123 8.8343 19.006V21.1077ZM8.8343 17.6049C8.8343 17.7986 8.67738 17.9552 8.48402 17.9552H6.38233C6.18898 17.9552 6.03205 17.7986 6.03205 17.6049V15.5032C6.03205 15.3095 6.18898 15.1529 6.38233 15.1529H8.48402C8.67738 15.1529 8.8343 15.3095 8.8343 15.5032V17.6049ZM8.8343 14.1021C8.8343 14.2958 8.67738 14.4523 8.48402 14.4523H6.38233C6.18898 14.4523 6.03205 14.2958 6.03205 14.1021V12.0004C6.03205 11.807 6.18898 11.6501 6.38233 11.6501H8.48402C8.67738 11.6501 8.8343 11.807 8.8343 12.0004V14.1021ZM8.8343 10.5992C8.8343 10.7926 8.67738 10.9495 8.48402 10.9495H6.38233C6.18898 10.9495 6.03205 10.7926 6.03205 10.5992V8.49756C6.03205 8.30421 6.18898 8.14728 6.38233 8.14728H8.48402C8.67738 8.14728 8.8343 8.30421 8.8343 8.49756V10.5992ZM12.3371 21.1077C12.3371 21.3014 12.1802 21.458 11.9868 21.458H9.88515C9.69179 21.458 9.53487 21.3014 9.53487 21.1077V19.7034H10.2354V20.7574H11.6366V19.006H12.3371V21.1077ZM15.8399 21.1077C15.8399 21.3014 15.683 21.458 15.4897 21.458H13.388C13.1946 21.458 13.0377 21.3014 13.0377 21.1077V19.006C13.0377 18.8123 13.1946 18.6557 13.388 18.6557H15.4897C15.683 18.6557 15.8399 18.8123 15.8399 19.006V21.1077ZM19.3428 21.1077C19.3428 21.3014 19.1858 21.458 18.9925 21.458H16.8908C16.6974 21.458 16.5405 21.3014 16.5405 21.1077V19.006C16.5405 18.8123 16.6974 18.6557 16.8908 18.6557H18.9925C19.1858 18.6557 19.3428 18.8123 19.3428 19.006V21.1077ZM19.3428 17.6049C19.3428 17.7986 19.1858 17.9552 18.9925 17.9552H16.8908C16.6974 17.9552 16.5405 17.7986 16.5405 17.6049V15.5032C16.5405 15.3095 16.6974 15.1529 16.8908 15.1529H18.9925C19.1858 15.1529 19.3428 15.3095 19.3428 15.5032V17.6049Z" fill="#F7F8FA"/>
<path d="M11.1409 15.8531H10.2351V17.2543H10.3689L10.9728 16.0469C10.9896 16.0132 11.0117 15.9824 11.0387 15.9558L11.1409 15.8531Z" fill="#F7F8FA"/>
<path d="M17.2411 19.3558H18.6423V20.7569H17.2411V19.3558Z" fill="#F7F8FA"/>
<path d="M13.7386 19.3558H15.1397V20.7569H13.7386V19.3558Z" fill="#F7F8FA"/>
<path d="M17.2411 13.7517H18.6423V12.3505H18.437L17.2411 13.5464V13.7517Z" fill="#F7F8FA"/>
<path d="M13.7386 17.2543H15.1397V15.8531H14.9344L13.7386 17.049V17.2543Z" fill="#F7F8FA"/>
<path d="M17.2411 15.8531H18.6423V17.2543H17.2411V15.8531Z" fill="#F7F8FA"/>
</svg>
