<svg width="24" height="24" viewBox="0 0 24 24" fill="none" xmlns="http://www.w3.org/2000/svg">
<path opacity="0.4" d="M12 1C5.9346 1 1 5.9346 1 12C1 18.0654 5.9346 23 12 23C18.0654 23 23 18.0654 23 12C23 5.9346 18.0654 1 12 1ZM12 20.7261C7.18841 20.7261 3.27387 16.8116 3.27387 12C3.27387 7.18841 7.18841 3.27387 12 3.27387C16.8116 3.27387 20.7261 7.18841 20.7261 12C20.7261 16.8116 16.8116 20.7261 12 20.7261Z" fill="white"/>
<path fill-rule="evenodd" clip-rule="evenodd" d="M12 19C15.866 19 19 15.866 19 12C19 8.13401 15.866 5 12 5C8.13401 5 5 8.13401 5 12C5 15.866 8.13401 19 12 19ZM13.8045 10.4491C13.8045 11.1249 13.4786 11.5319 12.998 11.6947C13.6009 11.8983 14 12.3867 14 13.2252V13.323C14 14.5359 13.1283 15 12.0041 15C10.8798 15 10 14.5359 10 13.323V13.2252C10 12.3867 10.4074 11.8983 11.0102 11.6947C10.5295 11.5319 10.2037 11.1249 10.2037 10.4491C10.2037 9.43151 10.9532 9 12.0041 9C13.055 9 13.8045 9.43157 13.8045 10.4491ZM12.5825 10.6119C12.5825 10.1968 12.3707 10.0177 12.0041 10.0177C11.6375 10.0177 11.4257 10.1968 11.4257 10.6119C11.4257 11.0353 11.6375 11.1981 12.0041 11.1981C12.3707 11.1981 12.5825 11.0353 12.5825 10.6119ZM12.0041 13.9823C12.4685 13.9823 12.7292 13.7137 12.7292 13.1682V12.9891C12.7292 12.4599 12.4603 12.2157 12.0041 12.2157C11.5479 12.2157 11.2709 12.4599 11.2709 12.9891V13.1682C11.2709 13.73 11.556 13.9823 12.0041 13.9823Z" fill="#F7F8FA"/>
</svg>
