<svg width="24" height="24" viewBox="0 0 24 24" fill="none" xmlns="http://www.w3.org/2000/svg">
<path opacity="0.4" d="M17 4.72727C17 3.22314 15.7769 2 14.2727 2H4.72727C3.22314 2 2 3.22315 2 4.72727V14.2727C2 15.7769 3.22315 17 4.72727 17V8.81818C4.72727 6.56232 6.56232 4.72727 8.81818 4.72727H17Z" fill="white"/>
<path d="M19.2727 7H9.72727C8.22314 7 7 8.22315 7 9.72727V19.2727C7 20.7769 8.22315 22 9.72727 22H19.2727C20.7769 22 22 20.7769 22 19.2727V9.72727C22 8.22314 20.7769 7 19.2727 7ZM11.7727 10.4091C12.5259 10.4091 13.1364 11.0196 13.1364 11.7727C13.1364 12.5258 12.5259 13.1364 11.7727 13.1364C11.0196 13.1364 10.4091 12.5258 10.4091 11.7727C10.4091 11.0196 11.0196 10.4091 11.7727 10.4091ZM11.7727 18.5909C11.0196 18.5909 10.4091 17.9803 10.4091 17.2273C10.4091 16.4741 11.0196 15.8636 11.7727 15.8636C12.5259 15.8636 13.1364 16.4741 13.1364 17.2273C13.1364 17.9803 12.5259 18.5909 11.7727 18.5909ZM14.5 15.8636C13.7469 15.8636 13.1364 15.2531 13.1364 14.5C13.1364 13.7469 13.7469 13.1364 14.5 13.1364C15.2531 13.1364 15.8636 13.7469 15.8636 14.5C15.8636 15.2531 15.2531 15.8636 14.5 15.8636ZM17.2273 18.5909C16.4741 18.5909 15.8636 17.9803 15.8636 17.2273C15.8636 16.4741 16.4741 15.8636 17.2273 15.8636C17.9804 15.8636 18.5909 16.4741 18.5909 17.2273C18.5909 17.9803 17.9804 18.5909 17.2273 18.5909ZM17.2273 13.1364C16.4741 13.1364 15.8636 12.5258 15.8636 11.7727C15.8636 11.0196 16.4741 10.4091 17.2273 10.4091C17.9804 10.4091 18.5909 11.0196 18.5909 11.7727C18.5909 12.5258 17.9804 13.1364 17.2273 13.1364Z" fill="#F7F8FA"/>
</svg>
