<svg width="24" height="15" viewBox="0 0 24 15" fill="none" xmlns="http://www.w3.org/2000/svg">
<g clip-path="url(#clip0)">
<path d="M23.9475 0.935411C23.8004 0.391667 23.3173 0.0152293 22.7396 -0.000455653C22.1777 -0.0161406 21.6788 0.323699 21.495 0.841301C21.3007 1.39027 21.474 1.9863 21.9676 2.31568C22.1462 2.43593 22.1829 2.56141 22.1829 2.75486C22.1777 4.00442 22.1777 5.24876 22.1777 6.49832C22.1777 7.43419 22.1777 8.37529 22.1777 9.31115C21.8206 9.18567 21.495 9.00791 21.1536 8.97654C20.8438 8.94517 20.7702 8.86152 20.7755 8.57396C20.7912 6.18463 20.7912 3.79529 20.7912 1.40596C20.7912 0.496233 20.3239 0.0309142 19.4153 0.0309142C13.4022 0.0309142 7.38906 0.0309142 1.37593 0.0309142C0.467396 0.0204576 0 0.485777 0 1.39027C0 5.45789 0 9.52551 0 13.5931C0 14.5447 0.456893 14.9943 1.41269 14.9943C7.39431 14.9943 13.3759 14.9943 19.3575 14.9943C20.3028 14.9943 20.723 14.6179 20.8175 13.6716C20.8543 13.6506 20.87 13.6402 20.891 13.635C22.4193 13.3788 23.1335 12.537 23.1335 10.9894C23.1335 8.26549 23.1335 5.53632 23.1282 2.81237C23.1282 2.60847 23.1545 2.47776 23.3646 2.36274C23.8845 2.08041 24.105 1.49484 23.9475 0.935411ZM1.01357 9.32161C1.01357 8.03022 1.01357 6.74405 1.01357 5.45266C1.01357 4.17173 1.01357 2.89602 1.01357 1.61509C1.01357 1.0818 1.19737 0.898812 1.73829 0.898812C3.28753 0.898812 4.83151 0.898812 6.38074 0.898812C6.87965 0.898812 7.07396 1.08703 7.07396 1.57849C7.07396 3.28815 7.07396 4.9978 7.07396 6.70223C7.07396 7.54921 7.07396 8.3962 7.07921 9.24318C7.08446 9.84444 6.92166 10.017 6.32298 10.017C4.78425 10.017 3.25077 10.017 1.71203 10.017C1.18687 10.0222 1.01357 9.84967 1.01357 9.32161ZM3.73392 13.018C3.73392 13.3108 3.59212 13.4363 3.30328 13.4258C3.24551 13.4258 3.18775 13.4258 3.12998 13.4206C2.95667 13.4206 2.78337 13.4206 2.61007 13.4206C2.37899 13.4206 2.14792 13.4206 1.91685 13.4206C1.65952 13.4206 1.52298 13.3003 1.52298 13.0389C1.52298 12.5788 1.52298 12.1187 1.52298 11.6587C1.52298 11.3972 1.66477 11.2822 1.9221 11.2822C2.39475 11.2822 2.8674 11.2822 3.34004 11.2822C3.61838 11.2822 3.73917 11.4234 3.73392 11.6953C3.72867 12.1397 3.72867 12.5788 3.73392 13.018ZM7.58337 13.0285C7.58337 13.3056 7.45208 13.4311 7.17899 13.4258C6.94792 13.4206 6.71685 13.4258 6.48578 13.4258C6.2442 13.4258 6.00263 13.4258 5.76105 13.4258C5.51947 13.4258 5.38293 13.3056 5.37768 13.0651C5.37243 12.5945 5.37243 12.124 5.37768 11.6534C5.37768 11.4129 5.50897 11.2874 5.75055 11.2874C6.2337 11.2874 6.71685 11.2874 7.2 11.2874C7.45733 11.2874 7.58337 11.4182 7.58337 11.6796C7.57812 12.1292 7.57812 12.5788 7.58337 13.0285ZM11.4381 13.0651C11.4381 13.3108 11.2963 13.4206 11.0547 13.4206C10.8131 13.4206 10.5716 13.4206 10.33 13.4206C10.0884 13.4206 9.84683 13.4206 9.60525 13.4206C9.36368 13.4206 9.23239 13.2951 9.23239 13.0546C9.23239 12.5841 9.23239 12.1135 9.23239 11.643C9.23239 11.4129 9.35842 11.2927 9.58424 11.2874C10.0884 11.2822 10.5926 11.2822 11.0967 11.2874C11.3068 11.2927 11.4328 11.4025 11.4328 11.6221C11.4381 12.1031 11.4381 12.5841 11.4381 13.0651ZM8.014 10.0222C7.57812 10.0222 7.39956 9.84444 7.39956 9.41049C7.39956 6.78065 7.39956 4.15082 7.39956 1.52621C7.39956 1.09749 7.59387 0.904041 8.014 0.904041C9.60525 0.898812 11.1912 0.898812 12.7825 0.904041C13.2341 0.904041 13.4022 1.08703 13.4022 1.54189C13.4022 2.85943 13.4022 4.18219 13.4022 5.49972C13.4022 6.79634 13.4022 8.09296 13.4022 9.3948C13.4022 9.85489 13.2394 10.0274 12.7825 10.0274C11.1912 10.0274 9.6 10.0274 8.014 10.0222ZM14.9567 13.4258C14.7151 13.4206 14.4735 13.4258 14.2319 13.4258C13.9904 13.4258 13.7488 13.4258 13.5072 13.4258C13.2761 13.4258 13.1554 13.3003 13.1501 13.0755C13.1449 12.5945 13.1449 12.1135 13.1501 11.6325C13.1554 11.4025 13.2919 11.2927 13.5177 11.2927C14.0114 11.2874 14.505 11.2874 14.9987 11.2927C15.2403 11.2979 15.3558 11.4338 15.3558 11.6743C15.3558 12.124 15.3505 12.5736 15.3558 13.0232C15.3611 13.2899 15.235 13.4258 14.9567 13.4258ZM19.2105 13.0128C19.2158 13.3108 19.0687 13.4311 18.7851 13.4206C18.554 13.4154 18.323 13.4206 18.0919 13.4206C17.8608 13.4206 17.6298 13.4206 17.3987 13.4206C17.1414 13.4206 17.0048 13.3003 17.0048 13.0389C17.0048 12.5788 17.0048 12.1187 17.0048 11.6587C17.0048 11.3972 17.1466 11.2822 17.3987 11.2822C17.8713 11.2822 18.344 11.2822 18.8166 11.2822C19.095 11.2822 19.2105 11.4234 19.2053 11.6953C19.2 12.1344 19.2 12.5788 19.2105 13.0128ZM19.7147 9.3948C19.7147 9.83921 19.5361 10.0222 19.0792 10.0222C17.4985 10.0222 15.923 10.0222 14.3422 10.0222C13.8958 10.0222 13.712 9.83921 13.712 9.38435C13.712 6.77542 13.712 4.17173 13.712 1.56281C13.712 1.07657 13.8906 0.904041 14.379 0.904041C15.9282 0.904041 17.4722 0.904041 19.0214 0.904041C19.5519 0.904041 19.7094 1.06612 19.7094 1.60463C19.7094 2.89602 19.7094 4.18219 19.7094 5.47358C19.7147 6.78065 19.7147 8.08773 19.7147 9.3948Z" fill="white"/>
<path opacity="0.4" d="M4.54793 7.99404C4.04902 7.99404 3.59738 8.00449 3.15624 7.98881C2.9987 7.98358 2.88316 7.91561 2.95143 7.69602C3.04071 7.40847 3.08797 7.10523 3.14049 6.81244C3.30854 5.83475 3.83371 5.07142 4.55318 4.42311C4.64771 4.33945 4.73699 4.2558 4.83152 4.14078C4.32211 4.27672 3.89147 4.06758 3.45559 3.87936C2.9987 3.68592 2.79388 3.7748 2.56281 4.20875C2.52605 4.28194 2.41051 4.36037 2.33699 4.35514C2.27397 4.34468 2.18469 4.22966 2.17419 4.15124C2.0534 3.28334 2.59957 2.80233 3.4871 3.01669C3.78119 3.08989 4.05428 3.23628 4.34312 3.33562C4.78425 3.49247 5.23064 3.63886 5.64027 3.23106C5.67178 3.19969 5.82408 3.2206 5.83983 3.25197C5.87659 3.33039 5.90285 3.4611 5.86609 3.52384C5.75581 3.69115 5.61401 3.83231 5.47747 3.9787C4.71073 4.80477 4.26959 5.76155 4.32211 6.90132C4.33261 7.24639 4.45865 7.57577 4.54793 7.99404Z" fill="white"/>
<path opacity="0.4" d="M11.186 4.10945C10.7133 4.26107 10.3089 4.10422 9.89931 3.92646C9.33738 3.68073 9.21659 3.73301 8.89099 4.25584C8.84373 4.33427 8.70193 4.35518 8.51813 4.44406C8.53388 4.09376 8.51288 3.82712 8.56539 3.58139C8.63892 3.22064 8.912 2.97491 9.28487 3.00105C9.65248 3.02196 10.0201 3.13176 10.3825 3.22064C10.6976 3.29906 10.9969 3.44545 11.3172 3.47682C11.5116 3.49774 11.7164 3.35657 11.9212 3.29383C12.0052 3.26769 12.0945 3.26246 12.1838 3.25201C12.1838 3.3618 12.231 3.50297 12.1785 3.57616C12.0367 3.78007 11.8582 3.96306 11.6901 4.15128C10.9654 4.95121 10.6135 5.8923 10.6765 6.96933C10.6871 7.19415 10.7711 7.41896 10.8183 7.64378C10.8393 7.73266 10.8499 7.82154 10.8866 7.99931C10.3877 7.99931 9.93082 8.00976 9.47392 7.98885C9.41616 7.98362 9.31638 7.81109 9.32163 7.72743C9.44767 6.31056 9.99384 5.10283 11.1492 4.21401C11.1649 4.18787 11.1702 4.16173 11.186 4.10945Z" fill="white"/>
<path opacity="0.4" d="M18.4123 3.16308C18.6328 3.29379 18.6801 3.41927 18.5015 3.61795C18.2495 3.89505 18.0026 4.1826 17.7716 4.48585C17.0363 5.46354 16.8263 6.54057 17.1991 7.71694C17.2149 7.76399 17.2254 7.81627 17.2359 7.86856C17.2411 7.88424 17.2254 7.90515 17.2096 7.96267C16.7632 7.96267 16.3064 7.96789 15.8495 7.95744C15.7812 7.95744 15.6446 7.83719 15.6551 7.79536C15.7917 7.17319 15.9072 6.54057 16.1173 5.94454C16.3431 5.30146 16.8158 4.80477 17.3252 4.35514C17.3934 4.2924 17.4617 4.22966 17.5247 4.13555C17.0468 4.27148 16.6372 4.08849 16.2276 3.91073C15.6814 3.67546 15.5606 3.72774 15.2455 4.24534C15.2088 4.30808 15.0932 4.36559 15.025 4.35514C14.9619 4.34468 14.8832 4.24011 14.8727 4.17215C14.7414 3.29902 15.277 2.81279 16.1698 3.01146C16.4429 3.0742 16.7002 3.20491 16.9681 3.30425C17.4722 3.50292 17.9711 3.65454 18.4123 3.16308Z" fill="white"/>
</g>
<defs>
<clipPath id="clip0">
<rect width="24" height="15" fill="white"/>
</clipPath>
</defs>
</svg>
