<svg width="24" height="24" viewBox="0 0 24 24" fill="none" xmlns="http://www.w3.org/2000/svg">
<g clip-path="url(#clip0)">
<path opacity="0.4" d="M3.23464 11.2668C3.4117 10.9212 3.27507 10.4975 2.92946 10.3205C2.58385 10.1434 2.16014 10.28 1.98308 10.6256L1.3205 11.9189C1.14344 12.2645 1.28007 12.6882 1.62568 12.8653C1.97129 13.0424 2.395 12.9057 2.57206 12.5601L3.23464 11.2668Z" fill="white"/>
<path opacity="0.4" d="M5.59214 12.9717C5.81076 12.6507 5.7278 12.2133 5.40686 11.9947C5.08591 11.7761 4.64852 11.8591 4.4299 12.18L2.82018 14.5432C2.60156 14.8642 2.68452 15.3016 3.00546 15.5202C3.32641 15.7388 3.7638 15.6558 3.98242 15.3349L5.59214 12.9717Z" fill="white"/>
<path opacity="0.4" d="M15.1677 19.3728C15.3863 19.0519 15.3034 18.6145 14.9824 18.3959C14.6615 18.1772 14.2241 18.2602 14.0055 18.5811L12.3957 20.9444C12.1771 21.2653 12.2601 21.7027 12.581 21.9213C12.902 22.1399 13.3394 22.057 13.558 21.736L15.1677 19.3728Z" fill="white"/>
<path opacity="0.4" d="M17.4922 20.9561C17.7108 20.6351 17.6278 20.1977 17.3069 19.9791C16.9859 19.7605 16.5485 19.8434 16.3299 20.1644L15.5119 21.3654C15.2933 21.6863 15.3762 22.1237 15.6972 22.3423C16.0181 22.5609 16.4555 22.478 16.6741 22.157L17.4922 20.9561Z" fill="white"/>
<path d="M14.8239 3.43689C15.5412 2.2383 17.0993 1.83578 18.3454 2.68454C19.5793 3.52507 19.7979 5.11647 18.9346 6.23695L15.8473 10.0579L21.3155 18.3453L19.8283 20.5286L12.7335 14.0978L9.27039 18.5312L10.4169 21.3629L8.92971 23.5463L6.39833 20.2238L2.37976 19.0847L3.86695 16.9014L6.9218 16.9315L9.77941 12.0856L1.19739 7.83801L2.68457 5.6547L12.3986 7.70879L14.8239 3.43689Z" fill="#F7F8FA"/>
</g>
<defs>
<clipPath id="clip0">
<rect width="24" height="24" fill="white" transform="matrix(-1 0 0 1 24 0)"/>
</clipPath>
</defs>
</svg>
