<svg width="22" height="22" viewBox="0 0 22 22" fill="none" xmlns="http://www.w3.org/2000/svg">
<path d="M8.71997 15.4394L6.02133 17.1412L4.93805 16.0579L5.09381 15.8932C6.05205 14.8803 6.76338 13.6882 7.19727 12.3973C7.21103 12.4218 7.22429 12.4467 7.23822 12.471C7.71709 13.2992 8.38394 14.0095 9.17752 14.5419C9.10484 14.1743 9.06641 13.7946 9.06641 13.4062C9.06641 12.49 9.27873 11.6225 9.65622 10.8499C9.26967 10.2042 9.06641 9.47243 9.06641 8.70956C9.06641 6.95288 9.78177 5.23598 11.029 3.99911C11.9529 3.08284 13.1783 2.57829 14.4793 2.57829C17.181 2.57829 19.3789 4.77625 19.3789 7.47791C19.3789 8.09055 19.2612 8.70251 19.0372 9.27303C19.7336 9.96825 20.2559 10.838 20.5323 11.81C21.481 10.5369 22.0008 8.9803 22 7.38828C21.998 3.31329 18.6815 0 14.607 0L14.6094 0.000167847C12.6464 0.00117493 10.7922 0.763031 9.39925 2.14592C8.44403 3.09425 7.69745 4.20506 7.18048 5.4478C6.66335 6.6907 6.4015 8.0031 6.40218 9.34906C6.40218 9.35527 6.40251 9.36131 6.40251 9.36736H6.40234C6.40234 11.474 5.60507 13.4771 4.15739 15.0075L3.57664 15.6213L0 19.207L2.79297 22L6.33453 18.4677L9.40747 16.5297C9.54393 16.4438 9.68442 16.3634 9.82809 16.2882C9.6161 15.9161 9.44406 15.5184 9.31734 15.1012C9.11273 15.2049 8.91299 15.3177 8.71997 15.4394Z" fill="#F7F8FA"/>
<path opacity="0.4" d="M16.9458 15.4976C17.6221 14.8213 18.4764 14.3834 19.4032 14.2277C19.2554 15.1382 18.8314 16.0122 18.1308 16.7128C17.4369 17.4069 16.5728 17.8295 15.6718 17.9812C15.8234 17.0443 16.2628 16.1806 16.9458 15.4976ZM11.6895 10.2717C12.402 9.55919 13.2936 9.13286 14.2208 8.99203C14.081 9.95648 13.6372 10.8459 12.9353 11.5477C12.2401 12.2429 11.3599 12.6855 10.4058 12.8298C10.5423 11.8929 10.9701 10.9909 11.6895 10.2717ZM10.4025 14.1307C11.7029 13.9793 12.9067 13.3992 13.8468 12.4592C14.7955 11.5104 15.3766 10.2947 15.5216 8.98096C16.4765 9.10919 17.3985 9.53921 18.1308 10.2717C18.8735 11.0144 19.3054 11.952 19.4269 12.9215C18.1457 13.0826 16.9601 13.6604 16.0344 14.586C15.0998 15.5204 14.5208 16.7182 14.3658 18.0123C13.3871 17.8955 12.4391 17.4624 11.6897 16.7128C10.9641 15.9874 10.5351 15.076 10.4025 14.1307Z" fill="white"/>
</svg>
