<svg width="20" height="22" viewBox="0 0 20 22" fill="none" xmlns="http://www.w3.org/2000/svg">
<path d="M4.66544 14.0078C5.12557 14.0078 5.49856 14.3926 5.49856 14.8672C5.49856 15.3418 5.12557 15.7266 4.66544 15.7266C4.20531 15.7266 3.83233 15.3418 3.83233 14.8672C3.83233 14.3926 4.20531 14.0078 4.66544 14.0078ZM6.95651 14.8672C6.95651 15.3418 7.32949 15.7266 7.78962 15.7266C8.24975 15.7266 8.62274 15.3418 8.62274 14.8672C8.62274 14.3926 8.24975 14.0078 7.78962 14.0078C7.32949 14.0078 6.95651 14.3926 6.95651 14.8672ZM10.0807 14.8672C10.0807 15.3418 10.4537 15.7266 10.9138 15.7266C11.3739 15.7266 11.7469 15.3418 11.7469 14.8672C11.7469 14.3926 11.3739 14.0078 10.9138 14.0078C10.4537 14.0078 10.0807 14.3926 10.0807 14.8672ZM14.5379 21.1406C14.5379 21.6153 14.1649 22 13.7047 22H3.33246C1.49494 22 0 20.4579 0 18.5625V11.5156C0 9.62019 1.49494 8.07812 3.33246 8.07812H4.33066V5.04737C4.33066 2.26424 6.57307 0 9.32934 0C12.0856 0 14.328 2.26424 14.328 5.04737V8.07812H15.3293C15.6765 8.07812 15.9771 8.1171 16.2484 8.19728C16.6907 8.32803 16.9466 8.80387 16.8198 9.26011C16.6931 9.71635 16.2318 9.98027 15.7895 9.84956C15.6695 9.81411 15.519 9.79683 15.3293 9.79683H3.33246C2.4137 9.79683 1.66623 10.5679 1.66623 11.5156V18.5625C1.66623 19.5102 2.4137 20.2812 3.33246 20.2812H13.7047C14.1649 20.2812 14.5379 20.666 14.5379 21.1406ZM5.99688 8.07812H12.6618V5.04737C12.6618 3.21196 11.1669 1.71875 9.32934 1.71875C7.49183 1.71875 5.99688 3.21196 5.99688 5.04737V8.07812ZM17.0372 20.2812C16.5771 20.2812 16.2041 20.666 16.2041 21.1406C16.2041 21.6153 16.5771 22 17.0372 22C17.4973 22 17.8703 21.6153 17.8703 21.1406C17.8703 20.666 17.4973 20.2812 17.0372 20.2812ZM19.9993 14.2317C19.981 12.565 18.6609 11.2148 17.0409 11.2148C15.4095 11.2148 14.0823 12.5839 14.0823 14.2667C14.0823 14.7413 14.4552 15.1261 14.9154 15.1261C15.3755 15.1261 15.7485 14.7413 15.7485 14.2667C15.7485 13.5316 16.3283 12.9336 17.0409 12.9336C17.7535 12.9336 18.3333 13.5316 18.3333 14.2667C18.3333 14.2745 18.3334 14.2823 18.3336 14.29C18.325 14.8163 18.0185 15.2874 17.5478 15.4947C16.7338 15.8532 16.2078 16.6814 16.2078 17.6045V18.3477C16.2078 18.8223 16.5808 19.207 17.0409 19.207C17.501 19.207 17.874 18.8223 17.874 18.3477V17.6045C17.874 17.3708 18.0028 17.1631 18.2021 17.0754C19.2946 16.5943 20.0003 15.4918 20 14.2665C20 14.2548 19.9998 14.2432 19.9993 14.2317Z" fill="#FEBC1F"/>
</svg>
