<svg width="60" height="60" viewBox="0 0 60 60" fill="none" xmlns="http://www.w3.org/2000/svg">
<path d="M30 29.0323C28.9325 29.0323 28.0645 28.1642 28.0645 27.0968H26.129C26.129 28.8957 27.3666 30.3979 29.0322 30.8302V32.9032H30.9677V30.9677H33.871V27.0968C33.871 24.9619 32.1349 23.2258 30 23.2258C28.9325 23.2258 28.0645 22.3578 28.0645 21.2903V19.3548H30C31.0674 19.3548 31.9355 20.2229 31.9355 21.2903H33.871C33.871 19.4914 32.6334 17.9892 30.9677 17.5569V15.4839H29.0322V17.4193H26.129V21.2903C26.129 23.4252 27.8651 25.1613 30 25.1613C31.0674 25.1613 31.9355 26.0293 31.9355 27.0968V29.0323H30Z" fill="#FEBC1F"/>
<path d="M21.2903 23.2258H23.2258V25.1613H21.2903V23.2258Z" fill="#FEBC1F"/>
<path d="M36.7742 23.2258H38.7097V25.1613H36.7742V23.2258Z" fill="#FEBC1F"/>
<path d="M34.1129 46.4516L30 40.9674L25.8871 46.4516L30 51.9358L34.1129 46.4516ZM30 44.1939L31.6935 46.4516L30 48.7094L28.3064 46.4516L30 44.1939Z" fill="#FEBC1F"/>
<path d="M45.7258 46.4516L41.6129 40.9674L37.5 46.4516L41.6129 51.9358L45.7258 46.4516ZM41.6129 44.1939L43.3065 46.4516L41.6129 48.7094L39.9194 46.4516L41.6129 44.1939Z" fill="#FEBC1F"/>
<path d="M22.5 46.4516L18.3871 40.9674L14.2742 46.4516L18.3871 51.9358L22.5 46.4516ZM18.3871 44.1939L20.0806 46.4516L18.3871 48.7094L16.6935 46.4516L18.3871 44.1939Z" fill="#FEBC1F"/>
<path d="M49.3548 48.3871V38.7097H37.7254C42.9114 35.9383 46.4516 30.473 46.4516 24.1935C46.4516 15.1219 39.0716 7.74193 30 7.74193C20.9284 7.74193 13.5484 15.1219 13.5484 24.1935C13.5484 30.473 17.0886 35.9383 22.2746 38.7097H10.6452V48.3871H0.506076L2.82762 54.1936L0.506076 60H20.3226V54.1936H39.6774V60H59.4939L57.1724 54.1936L59.4939 48.3871H49.3548ZM30.9677 38.6605V36.725C34.8666 36.4259 38.274 34.3511 40.3711 31.2985L42.0542 32.2705C39.6155 35.8986 35.582 38.3543 30.9677 38.6605ZM43.0121 30.5883L41.3332 29.6187C42.1237 27.9733 42.5806 26.1375 42.5806 24.1935C42.5806 22.2841 42.1483 20.435 41.3459 18.7609L43.0111 17.7988C43.9656 19.7314 44.5161 21.897 44.5161 24.1935C44.5161 26.49 43.9656 28.6556 43.0121 30.5883ZM29.0323 9.72656V11.662C25.1334 11.9612 21.726 14.036 19.6289 17.0886L17.9457 16.1166C20.3845 12.4885 24.418 10.0328 29.0323 9.72656ZM16.9879 17.7988L18.6668 18.7684C17.8763 20.4138 17.4194 22.2496 17.4194 24.1935C17.4194 26.103 17.8517 27.9521 18.6541 29.6262L16.9889 30.5883C16.0344 28.6556 15.4839 26.49 15.4839 24.1935C15.4839 21.897 16.0344 19.7314 16.9879 17.7988ZM17.9457 32.2705L19.6355 31.2947C20.2938 32.253 21.0725 33.1357 21.9911 33.8951L23.223 32.4038C20.7649 30.3714 19.3548 27.3784 19.3548 24.1935C19.3548 18.3242 24.1307 13.5484 30 13.5484C31.8854 13.5484 33.7491 14.0582 35.3883 15.0241L36.3716 13.3565C34.7149 12.3803 32.8635 11.8024 30.9677 11.6535V9.72561C35.582 10.0328 39.6155 12.4885 42.0542 16.1156L40.3645 17.0914C39.7062 16.1331 38.9275 15.2504 38.0089 14.4911L36.777 15.9824C39.2351 18.0157 40.6452 21.0087 40.6452 24.1935C40.6452 30.0628 35.8693 34.8387 30 34.8387C28.1137 34.8387 26.2509 34.3279 24.6117 33.3621L23.6284 35.0291C25.2851 36.0059 27.1355 36.5847 29.0323 36.7336V38.6615C24.418 38.3543 20.3845 35.8986 17.9457 32.2705ZM47.4193 40.6452V52.2581H12.5806V40.6452H47.4193ZM3.36488 50.3226H10.6452V53.7097L16.4516 58.0645H3.36488L4.91431 54.1936L3.36488 50.3226ZM18.3871 57.0968L14.5161 54.1936H18.3871V57.0968ZM45.4839 54.1936L41.6129 57.0968V54.1936H45.4839ZM56.6351 58.0645H43.5484L49.3548 53.7097V50.3226H56.6351L55.0857 54.1936L56.6351 58.0645Z" fill="#FEBC1F"/>
<path d="M59.0323 3.87097C57.4318 3.87097 56.129 2.5682 56.129 0.967742V0H54.1936V0.967742C54.1936 2.5682 52.8908 3.87097 51.2903 3.87097H50.3226V5.80645H51.2903C52.8908 5.80645 54.1936 7.10922 54.1936 8.70968V9.67742H56.129V8.70968C56.129 7.10922 57.4318 5.80645 59.0323 5.80645H60V3.87097H59.0323ZM55.1613 5.83622C54.8787 5.45631 54.5437 5.12128 54.1638 4.83871C54.5437 4.55614 54.8787 4.22111 55.1613 3.8412C55.4439 4.22111 55.7789 4.55614 56.1588 4.83871C55.7789 5.12128 55.4439 5.45631 55.1613 5.83622Z" fill="#FEBC1F"/>
<path d="M3.87097 20.3226V21.2903H5.80645V20.3226C5.80645 18.7221 7.10922 17.4194 8.70968 17.4194H9.67742V15.4839H8.70968C7.10922 15.4839 5.80645 14.1811 5.80645 12.5807V11.6129H3.87097V12.5807C3.87097 14.1811 2.5682 15.4839 0.967742 15.4839H0V17.4194H0.967742C2.5682 17.4194 3.87097 18.7221 3.87097 20.3226ZM4.83871 15.4541C5.12128 15.834 5.45631 16.169 5.83622 16.4516C5.45631 16.7342 5.12128 17.0692 4.83871 17.4491C4.55614 17.0692 4.22111 16.7342 3.8412 16.4516C4.22111 16.169 4.55614 15.834 4.83871 15.4541Z" fill="#FEBC1F"/>
<path d="M13.5484 8.70968V9.67742H15.4839V8.70968C15.4839 7.10922 16.7866 5.80645 18.3871 5.80645H19.3548V3.87097H18.3871C16.7866 3.87097 15.4839 2.5682 15.4839 0.967742V0H13.5484V0.967742C13.5484 2.5682 12.2456 3.87097 10.6452 3.87097H9.67741V5.80645H10.6452C12.2456 5.80645 13.5484 7.10922 13.5484 8.70968ZM14.5161 3.8412C14.7987 4.22111 15.1337 4.55614 15.5136 4.83871C15.1337 5.12128 14.7987 5.45631 14.5161 5.83622C14.2335 5.45631 13.8985 5.12128 13.5186 4.83871C13.8985 4.55614 14.2335 4.22111 14.5161 3.8412Z" fill="#FEBC1F"/>
<path d="M52.2581 18.3871V19.3548C52.2581 20.9553 50.9553 22.2581 49.3548 22.2581H48.3871V24.1935H49.3548C50.9553 24.1935 52.2581 25.4963 52.2581 27.0968V28.0645H54.1935V27.0968C54.1935 25.4963 55.4963 24.1935 57.0968 24.1935H58.0645V22.2581H57.0968C55.4963 22.2581 54.1935 20.9553 54.1935 19.3548V18.3871H52.2581ZM54.2233 23.2258C53.8434 23.5084 53.5084 23.8434 53.2258 24.2233C52.9432 23.8434 52.6082 23.5084 52.2283 23.2258C52.6082 22.9432 52.9432 22.6082 53.2258 22.2283C53.5084 22.6082 53.8434 22.9432 54.2233 23.2258Z" fill="#FEBC1F"/>
<path d="M39.6774 0H41.6129V1.93548H39.6774V0Z" fill="#FEBC1F"/>
<path d="M39.6774 3.87098H41.6129V5.80646H39.6774V3.87098Z" fill="#FEBC1F"/>
<path d="M41.6129 1.93548L43.5484 1.93548V3.87096L41.6129 3.87098V1.93548Z" fill="#FEBC1F"/>
<path d="M37.7419 1.93548L39.6774 1.93548V3.87098L37.7419 3.87096V1.93548Z" fill="#FEBC1F"/>
<path d="M6.7742 27.0968H8.70968V29.0323H6.7742V27.0968Z" fill="#FEBC1F"/>
<path d="M6.7742 30.9677H8.70968V32.9032H6.7742V30.9677Z" fill="#FEBC1F"/>
<path d="M8.70968 29.0323L10.6452 29.0323V30.9677L8.70968 30.9677V29.0323Z" fill="#FEBC1F"/>
<path d="M4.83871 29.0323L6.7742 29.0323V30.9677L4.83871 30.9677V29.0323Z" fill="#FEBC1F"/>
<path d="M1.93548 33.871H3.87096V35.8065H1.93548V33.871Z" fill="#FEBC1F"/>
<path d="M1.93548 37.7419H3.87096V39.6774H1.93548V37.7419Z" fill="#FEBC1F"/>
<path d="M3.87096 35.8065H5.80646V37.7419L3.87096 37.7419V35.8065Z" fill="#FEBC1F"/>
<path d="M0 35.8065H1.93548V37.7419L0 37.7419V35.8065Z" fill="#FEBC1F"/>
<path d="M46.4516 7.74193H48.3871V9.67742H46.4516V7.74193Z" fill="#FEBC1F"/>
<path d="M46.4516 11.6129H48.3871V13.5484H46.4516V11.6129Z" fill="#FEBC1F"/>
<path d="M48.3871 9.67742L50.3226 9.67741V11.6129L48.3871 11.6129V9.67742Z" fill="#FEBC1F"/>
<path d="M44.5161 9.67741L46.4516 9.67742V11.6129L44.5161 11.6129V9.67741Z" fill="#FEBC1F"/>
<path d="M56.129 33.871H58.0645V35.8065H56.129V33.871Z" fill="#FEBC1F"/>
<path d="M56.129 37.7419H58.0645V39.6774H56.129V37.7419Z" fill="#FEBC1F"/>
<path d="M58.0645 35.8065H60V37.7419L58.0645 37.7419V35.8065Z" fill="#FEBC1F"/>
<path d="M54.1935 35.8065H56.129V37.7419L54.1935 37.7419V35.8065Z" fill="#FEBC1F"/>
</svg>
