<svg width="61" height="28" viewBox="0 0 61 28" fill="none" xmlns="http://www.w3.org/2000/svg">
<path fill-rule="evenodd" clip-rule="evenodd" d="M47.7384 11.5814C49.1591 11.465 50.5798 11.465 51.8953 11.2322C53.1581 10.9994 53.5791 9.95169 53.6843 8.90402C53.7896 7.56533 53.2108 6.63406 52.1058 6.22663C50.6851 5.761 49.2117 6.11023 47.7384 5.99382C47.7384 7.85635 47.7384 9.60247 47.7384 11.5814ZM47.7384 22.1745C49.3696 22.0581 51.0008 22.0581 52.5793 21.8253C53.8422 21.6507 54.6315 20.5448 54.7367 19.3807C54.8946 17.2854 54.0527 16.4123 52.8424 16.0049C51.2112 15.4229 49.4748 15.7721 47.791 15.6557C47.7384 17.8092 47.7384 19.9046 47.7384 22.1745ZM55.8943 13.2693C56.2627 13.4439 56.7362 13.6767 57.1572 13.9096C58.6305 14.7826 59.5777 16.1213 59.946 17.9256C60.2091 19.3807 60.1038 20.8358 59.5777 22.2327C59.1567 23.455 58.42 24.3863 57.4203 25.0265C56.3153 25.725 55.105 26.1906 53.8422 26.2488C51.5796 26.3652 49.2643 26.4234 47.0017 26.4816C45.8441 26.4816 44.6865 26.4816 43.5815 26.4816C43.0027 26.4816 42.7922 26.2488 42.7922 25.6086C42.7922 17.8674 42.7922 10.1263 42.7922 2.44337C42.7922 1.68672 42.9501 1.57031 43.6341 1.57031C46.2651 1.57031 48.9486 1.57031 51.5796 1.57031C53.2108 1.57031 54.7367 1.86133 56.21 2.7926C57.6308 3.66566 58.4727 5.00435 58.7884 6.75047C59.1567 8.6712 58.7358 10.3591 57.6308 11.8142C57.1046 12.3381 56.4205 12.8037 55.8943 13.2693Z" fill="#1456A4"/>
<path fill-rule="evenodd" clip-rule="evenodd" d="M11.0096 7.21766C10.0624 10.3025 9.22052 13.3291 8.326 16.3557C10.115 16.3557 11.8515 16.3557 13.6931 16.3557C12.7986 13.3291 11.9041 10.3025 11.0096 7.21766ZM11.22 1.51367C11.9041 1.51367 12.6408 1.51367 13.3248 1.51367C13.7984 1.51367 14.1141 1.68828 14.3246 2.27032C15.6927 6.40281 17.0607 10.5353 18.4288 14.6678C19.6391 18.2764 20.8493 21.8851 22.0069 25.4937C22.27 26.3086 22.1648 26.4832 21.3755 26.4832C20.06 26.4832 18.7446 26.4832 17.4291 26.4832C16.9029 26.4832 16.5872 26.1922 16.4293 25.6683C15.9557 24.155 15.4822 22.6417 15.0612 21.1284C14.956 20.8374 14.8507 20.7792 14.6403 20.7792C12.2724 20.7792 9.90457 20.7792 7.4841 20.7792C7.221 20.7792 7.11577 20.8956 7.06315 21.1866C6.58958 22.6999 6.11601 24.2714 5.69506 25.7847C5.43196 26.2504 5.11625 26.4832 4.64268 26.4832C3.3272 26.4832 2.01173 26.4832 0.696257 26.4832C0.117449 26.4832 -0.0404083 26.2504 0.170067 25.6683C1.16983 22.7581 2.11697 19.9061 3.11673 16.9959C3.90601 14.6678 4.6953 12.3396 5.48458 10.0115C6.32648 7.50868 7.16839 4.94771 8.01029 2.44494C8.27338 1.74649 8.53648 1.51367 9.22052 1.51367C9.90457 1.51367 10.536 1.51367 11.22 1.51367Z" fill="#1456A4"/>
<path fill-rule="evenodd" clip-rule="evenodd" d="M26.4795 14.0268C26.5321 17.4609 28.3738 20.3711 31.2678 21.4188C33.6883 22.2918 35.8457 21.6516 37.74 19.789C38.1609 19.3816 38.3714 19.3816 38.7397 19.789C39.4764 20.6039 40.213 21.4188 40.9497 22.2336C41.318 22.6992 41.318 23.1067 40.9497 23.5141C39.2133 25.3766 37.1611 26.4825 34.7407 26.8899C32.9516 27.2391 31.1626 27.0645 29.4262 26.5407C27.795 26.0169 26.3743 25.0856 25.1114 23.8633C23.0067 21.8262 21.6912 19.2652 21.2702 16.2968C20.6914 12.3971 21.4281 8.78849 23.7433 5.70368C25.4797 3.31731 27.7424 1.7458 30.5312 1.16376C31.3204 0.989153 32.1097 0.814541 32.899 0.872745C35.6352 0.989153 38.1609 1.86221 40.3183 3.84115C40.4761 4.01576 40.634 4.13217 40.7919 4.30678C41.2654 4.71421 41.318 5.12164 40.8445 5.64547C40.1604 6.46033 39.4238 7.27518 38.6345 8.09004C38.3188 8.38106 37.9504 8.43926 37.5821 8.09004C36.5823 7.21698 35.4773 6.51853 34.2145 6.34392C32.5307 6.1111 30.8995 6.46033 29.4788 7.5662C27.5845 9.07951 26.5321 11.2913 26.4795 14.0268Z" fill="#1456A4"/>
<path fill-rule="evenodd" clip-rule="evenodd" d="M38 14.5007C38 17.0133 36.0132 19 33.5006 19C31.0464 19 28.9428 17.0717 29.0012 14.3838C29.0596 11.8128 30.9879 10.0014 33.5006 10.0014C35.9548 9.94294 38 11.7544 38 14.5007Z" fill="#00A9E8"/>
</svg>
