<svg width="93" height="35" viewBox="0 0 93 35" fill="none" xmlns="http://www.w3.org/2000/svg">
<path fill-rule="evenodd" clip-rule="evenodd" d="M64.7384 15.5814C66.1591 15.465 67.5798 15.465 68.8953 15.2322C70.1581 14.9994 70.5791 13.9517 70.6843 12.904C70.7896 11.5653 70.2108 10.6341 69.1058 10.2266C67.6851 9.761 66.2117 10.1102 64.7384 9.99382C64.7384 11.8563 64.7384 13.6025 64.7384 15.5814ZM64.7384 26.1745C66.3696 26.0581 68.0008 26.0581 69.5793 25.8253C70.8422 25.6507 71.6315 24.5448 71.7367 23.3807C71.8946 21.2854 71.0527 20.4123 69.8424 20.0049C68.2112 19.4229 66.4748 19.7721 64.791 19.6557C64.7384 21.8092 64.7384 23.9046 64.7384 26.1745ZM72.8943 17.2693C73.2627 17.4439 73.7362 17.6767 74.1572 17.9096C75.6305 18.7826 76.5777 20.1213 76.946 21.9256C77.2091 23.3807 77.1038 24.8358 76.5777 26.2327C76.1567 27.455 75.42 28.3863 74.4203 29.0265C73.3153 29.725 72.105 30.1906 70.8422 30.2488C68.5796 30.3652 66.2643 30.4234 64.0017 30.4816C62.8441 30.4816 61.6865 30.4816 60.5815 30.4816C60.0027 30.4816 59.7922 30.2488 59.7922 29.6086C59.7922 21.8674 59.7922 14.1263 59.7922 6.44337C59.7922 5.68672 59.9501 5.57031 60.6341 5.57031C63.2651 5.57031 65.9486 5.57031 68.5796 5.57031C70.2108 5.57031 71.7367 5.86133 73.21 6.7926C74.6308 7.66566 75.4727 9.00435 75.7884 10.7505C76.1567 12.6712 75.7358 14.3591 74.6308 15.8142C74.1046 16.3381 73.4205 16.8037 72.8943 17.2693Z" fill="#838A92"/>
<path fill-rule="evenodd" clip-rule="evenodd" d="M28.0096 11.2177C27.0624 14.3025 26.2205 17.3291 25.326 20.3557C27.115 20.3557 28.8515 20.3557 30.6931 20.3557C29.7986 17.3291 28.9041 14.3025 28.0096 11.2177ZM28.22 5.51367C28.9041 5.51367 29.6408 5.51367 30.3248 5.51367C30.7984 5.51367 31.1141 5.68828 31.3246 6.27032C32.6927 10.4028 34.0607 14.5353 35.4288 18.6678C36.6391 22.2764 37.8493 25.8851 39.0069 29.4937C39.27 30.3086 39.1648 30.4832 38.3755 30.4832C37.06 30.4832 35.7446 30.4832 34.4291 30.4832C33.9029 30.4832 33.5872 30.1922 33.4293 29.6683C32.9557 28.155 32.4822 26.6417 32.0612 25.1284C31.956 24.8374 31.8507 24.7792 31.6403 24.7792C29.2724 24.7792 26.9046 24.7792 24.4841 24.7792C24.221 24.7792 24.1158 24.8956 24.0631 25.1866C23.5896 26.6999 23.116 28.2714 22.6951 29.7847C22.432 30.2504 22.1162 30.4832 21.6427 30.4832C20.3272 30.4832 19.0117 30.4832 17.6963 30.4832C17.1174 30.4832 16.9596 30.2504 17.1701 29.6683C18.1698 26.7581 19.117 23.9061 20.1167 20.9959C20.906 18.6678 21.6953 16.3396 22.4846 14.0115C23.3265 11.5087 24.1684 8.94771 25.0103 6.44494C25.2734 5.74649 25.5365 5.51367 26.2205 5.51367C26.9046 5.51367 27.536 5.51367 28.22 5.51367Z" fill="#838A92"/>
<path fill-rule="evenodd" clip-rule="evenodd" d="M43.4795 18.0268C43.5321 21.4609 45.3738 24.3711 48.2678 25.4188C50.6883 26.2918 52.8457 25.6516 54.74 23.789C55.1609 23.3816 55.3714 23.3816 55.7397 23.789C56.4764 24.6039 57.213 25.4188 57.9497 26.2336C58.318 26.6992 58.318 27.1067 57.9497 27.5141C56.2133 29.3766 54.1611 30.4825 51.7407 30.8899C49.9516 31.2391 48.1626 31.0645 46.4262 30.5407C44.795 30.0169 43.3743 29.0856 42.1114 27.8633C40.0067 25.8262 38.6912 23.2652 38.2702 20.2968C37.6914 16.3971 38.4281 12.7885 40.7433 9.70368C42.4797 7.31731 44.7424 5.7458 47.5312 5.16376C48.3204 4.98915 49.1097 4.81454 49.899 4.87274C52.6352 4.98915 55.1609 5.86221 57.3183 7.84115C57.4761 8.01576 57.634 8.13217 57.7919 8.30678C58.2654 8.71421 58.318 9.12164 57.8445 9.64547C57.1604 10.4603 56.4238 11.2752 55.6345 12.09C55.3188 12.3811 54.9504 12.4393 54.5821 12.09C53.5823 11.217 52.4773 10.5185 51.2145 10.3439C49.5307 10.1111 47.8995 10.4603 46.4788 11.5662C44.5845 13.0795 43.5321 15.2913 43.4795 18.0268Z" fill="#838A92"/>
<path fill-rule="evenodd" clip-rule="evenodd" d="M55 18.5007C55 21.0133 53.0132 23 50.5006 23C48.0464 23 45.9428 21.0717 46.0012 18.3838C46.0596 15.8128 47.9879 14.0014 50.5006 14.0014C52.9548 13.9429 55 15.7544 55 18.5007Z" fill="#838A92"/>
</svg>
