<svg width="98" height="39" viewBox="0 0 98 39" fill="none" xmlns="http://www.w3.org/2000/svg">
<path d="M8.33785 32.9704H4.8939L6.61588 28.7733L8.33785 32.9704ZM8.18131 37.4401H12.982V36.895C12.8776 36.895 12.6689 36.895 12.4602 36.8405C12.2514 36.786 12.0949 36.7315 11.9905 36.6769C11.834 36.5679 11.6774 36.4589 11.5731 36.2954C11.4687 36.1864 11.3644 36.0229 11.3122 35.8048L7.45077 26.4295H6.77242C6.25061 27.7377 5.62444 29.2639 4.8939 30.9536C4.21555 32.6434 3.53719 34.1696 2.9632 35.5323C2.85884 35.8048 2.75448 36.0229 2.59793 36.1864C2.49357 36.3499 2.28485 36.4589 2.07612 36.6224C1.97176 36.6769 1.76304 36.786 1.55431 36.786C1.34559 36.8405 1.18904 36.8405 1.0325 36.895V37.4401H5.36353V36.895C4.94608 36.895 4.52863 36.8405 4.21555 36.6769C3.85028 36.5679 3.69374 36.4044 3.69374 36.1864C3.69374 36.0774 3.69373 35.9683 3.74592 35.8593C3.74592 35.7503 3.7981 35.5323 3.90246 35.3143C3.95464 35.0962 4.059 34.8237 4.16337 34.5512C4.26773 34.2786 4.37209 33.9516 4.52863 33.6245H8.65094L9.5902 36.0774C9.64238 36.1319 9.64238 36.1864 9.64238 36.2409C9.64238 36.2954 9.64238 36.3499 9.64238 36.4044C9.64238 36.5134 9.48584 36.6224 9.22493 36.6769C8.96402 36.7315 8.59876 36.786 8.18131 36.8405V37.4401ZM24.0965 33.0249C24.3053 32.9704 24.4618 32.9704 24.6183 32.9704V32.4254H19.609V32.9704C19.7655 32.9704 20.0264 33.0249 20.3395 33.0249C20.6526 33.0794 20.9135 33.134 21.07 33.1885C21.2788 33.243 21.3831 33.4065 21.4875 33.57C21.5397 33.7335 21.5918 33.8971 21.5918 34.1151V34.7147C21.5918 34.9327 21.5918 35.0962 21.5918 35.3688C21.5918 35.6413 21.5918 35.9138 21.5397 36.1319C21.3831 36.2954 21.1222 36.4044 20.7048 36.5679C20.3395 36.7315 19.8699 36.786 19.4002 36.786C18.7741 36.786 18.2001 36.6769 17.6783 36.4044C17.1565 36.1319 16.7912 35.8048 16.4259 35.3688C16.0607 34.9327 15.7997 34.4421 15.6432 33.8426C15.4867 33.243 15.3823 32.6434 15.3823 31.9348C15.3823 31.1717 15.4867 30.5176 15.6432 29.8635C15.7997 29.2639 16.0607 28.7188 16.4259 28.3373C16.739 27.9012 17.1565 27.5742 17.6261 27.3561C18.0957 27.1381 18.5653 27.0291 19.1915 27.0291C19.7133 27.0291 20.183 27.1381 20.5482 27.3016C20.9135 27.4652 21.2788 27.7377 21.5397 28.0647C21.8006 28.3918 22.0093 28.7188 22.1658 29.1004C22.3224 29.4819 22.4789 29.918 22.5833 30.2996H23.2616L23.0529 26.6475H22.4267L22.1137 27.1381C21.7484 26.9201 21.3309 26.7566 20.8091 26.593C20.3395 26.4295 19.7655 26.375 19.1393 26.375C18.3566 26.375 17.5739 26.5385 16.8434 26.8111C16.1128 27.0836 15.5388 27.4652 15.017 27.9557C14.4952 28.4463 14.0778 29.0459 13.7647 29.7545C13.5038 30.4631 13.3472 31.1717 13.3472 31.9893C13.3472 32.8069 13.5038 33.57 13.8169 34.2241C14.13 34.8782 14.5474 35.4778 15.017 35.9683C15.5388 36.4044 16.1128 36.786 16.7912 37.0585C17.4695 37.331 18.2001 37.4401 18.9306 37.4401C19.609 37.4401 20.3395 37.331 21.0179 37.222C21.7484 37.0585 22.4267 36.8405 23.1573 36.5679C23.1573 36.4044 23.1573 36.2409 23.1573 36.0229C23.1573 35.8048 23.1573 35.4233 23.1573 34.8237V34.0061C23.1573 33.8426 23.2095 33.679 23.2616 33.5155C23.3138 33.4065 23.4182 33.2975 23.6269 33.1885C23.7313 33.134 23.8878 33.0794 24.0965 33.0249ZM30.6714 31.7713H29.6277V27.0291H30.9844C31.715 27.0291 32.289 27.1926 32.6542 27.6287C33.0717 28.0102 33.2804 28.5553 33.2804 29.2094C33.2804 29.9725 33.0195 30.6266 32.5499 31.0627C32.0802 31.5532 31.4541 31.7713 30.6714 31.7713ZM34.4806 37.4401H37.5593V36.895C37.4027 36.895 37.2462 36.8405 37.0374 36.8405C36.8287 36.8405 36.6722 36.786 36.5156 36.6769C36.3591 36.5679 36.1504 36.4589 35.9416 36.2954C35.7329 36.1319 35.5242 35.9138 35.2633 35.5868C34.7415 34.8782 34.2719 34.2786 33.9066 33.788C33.5413 33.2975 33.0717 32.6979 32.4977 31.9893C32.9151 31.8803 33.2804 31.7168 33.6457 31.5532C34.0109 31.3897 34.2719 31.2262 34.5328 30.9536C34.7937 30.7356 35.0024 30.4086 35.1067 30.136C35.2633 29.809 35.3155 29.4274 35.3155 28.9914C35.3155 28.5008 35.2111 28.1192 35.0024 27.7922C34.7937 27.5197 34.5328 27.1926 34.2197 27.0291C33.8544 26.8111 33.4891 26.6475 33.0717 26.5385C32.6542 26.4295 32.1846 26.375 31.715 26.375H26.3925V26.9201C26.549 26.9201 26.7056 26.9201 26.9665 26.9746C27.1752 27.0291 27.3318 27.0291 27.4883 27.0836C27.697 27.1381 27.8014 27.2471 27.8536 27.4106C27.9058 27.5197 27.9058 27.6832 27.9058 27.9012V35.9138C27.9058 36.1319 27.8536 36.2954 27.8014 36.4044C27.7492 36.5134 27.6449 36.6224 27.4361 36.7315C27.3318 36.786 27.1752 36.786 26.9143 36.8405C26.6534 36.8405 26.4969 36.895 26.3403 36.895V37.4401H31.1932V36.895C31.0366 36.895 30.8279 36.8405 30.567 36.8405C30.3061 36.8405 30.1495 36.786 30.0452 36.7315C29.8365 36.6769 29.7321 36.5679 29.6799 36.4044C29.6277 36.2954 29.5756 36.1319 29.5756 35.9138V32.4254H30.7235C31.4019 33.243 31.9759 34.0061 32.5499 34.7692C33.176 35.4778 33.8022 36.4044 34.4806 37.4401ZM38.7072 37.4401H43.8732V36.9495C43.7166 36.9495 43.4557 36.9495 43.1948 36.895C42.9339 36.8405 42.7774 36.786 42.6208 36.786C42.4121 36.7315 42.3077 36.6224 42.2034 36.5134C42.1512 36.4044 42.099 36.2409 42.099 36.1319V27.7377C42.099 27.5742 42.1512 27.4652 42.2034 27.3016C42.2556 27.1926 42.4121 27.0836 42.6208 27.0291C42.7774 26.9746 42.9861 26.9201 43.247 26.9201C43.4557 26.9201 43.6644 26.8656 43.8732 26.8656V26.4295H38.7072V26.9201C38.8638 26.9201 39.0725 26.9746 39.3334 27.0291C39.5943 27.0836 39.803 27.1381 39.9596 27.1926C40.1683 27.2471 40.3249 27.3561 40.377 27.4652C40.4292 27.5742 40.4814 28.0647 40.4814 28.2283V36.2409C40.4814 36.4044 40.4292 36.5679 40.377 36.6769C40.3249 36.786 40.1683 36.8405 40.0118 36.9495C39.9074 37.004 39.6987 37.004 39.4378 37.004C39.1769 37.004 38.9682 37.0585 38.8116 37.0585V37.4401H38.7072ZM54.4137 34.5512C54.4137 35.2052 54.1528 35.7503 53.5789 36.1864C53.0049 36.6224 52.2221 36.8405 51.1785 36.8405C50.5002 36.8405 49.874 36.786 49.1956 36.6224V32.0983C49.3522 32.0983 49.5609 32.0438 49.8218 32.0438C50.0827 32.0438 50.3958 32.0438 50.7611 32.0438C51.596 32.0438 52.2743 32.1528 52.8483 32.3708C53.4223 32.5889 53.7876 32.9159 54.0485 33.2975C54.2572 33.7335 54.4137 34.1151 54.4137 34.5512ZM53.7354 30.4086C53.5267 30.7356 53.1614 31.0082 52.744 31.1717C52.3265 31.3352 51.7003 31.4442 50.8133 31.4442C50.5002 31.4442 50.1871 31.4442 49.9262 31.4442C49.6653 31.4442 49.4044 31.3897 49.1956 31.3352V27.1381C49.6653 27.0291 50.1871 26.9746 50.7611 26.9746C51.8569 26.9746 52.6396 27.1926 53.2136 27.6287C53.7876 28.0647 54.0485 28.6098 54.0485 29.2639C54.0485 29.7 53.9441 30.0815 53.7354 30.4086ZM55.5617 32.5889C55.1443 32.2073 54.5181 31.9893 53.7354 31.8258C54.4137 31.6077 54.9877 31.2807 55.353 30.8446C55.7183 30.4086 55.8748 29.918 55.8748 29.3729C55.8748 28.7188 55.6661 28.1738 55.1965 27.6832C54.7268 27.1926 54.0485 26.8656 53.2136 26.6475C52.6396 26.5385 51.8569 26.484 50.9176 26.484H45.8039V26.7566H46.2735C46.7431 26.7566 47.0562 26.8656 47.2649 27.1381C47.4215 27.3016 47.5258 27.7377 47.5258 28.4463V35.5868C47.5258 36.1864 47.4737 36.6224 47.3171 36.786C47.1084 37.0585 46.7431 37.222 46.2735 37.222H45.8039V37.4946H51.3872C52.6918 37.4946 53.6832 37.3855 54.3616 37.1675C54.9877 36.9495 55.5096 36.5679 55.8748 36.0774C56.2401 35.5868 56.4488 35.0417 56.4488 34.4966C56.3966 33.679 56.1357 33.0794 55.5617 32.5889ZM65.3196 33.243H61.2495L63.2845 28.8824L65.3196 33.243ZM70.0681 37.113C69.5984 37.113 69.2332 36.9495 68.9201 36.786C68.6592 36.5679 68.3461 36.0774 68.033 35.3688L63.9107 26.4295H63.5976L59.4753 35.3143C59.11 36.0774 58.797 36.6224 58.4839 36.8405C58.3273 36.9495 58.0142 37.0585 57.5446 37.113V37.3855H61.2495V37.113C60.6755 37.113 60.3102 37.004 60.1537 36.895C59.9971 36.786 59.8928 36.6224 59.8928 36.4589C59.8928 36.2409 59.9971 35.9138 60.2058 35.5323L60.9886 33.8426H65.5283L66.2589 35.3688C66.4676 35.8593 66.6241 36.2409 66.6241 36.4589C66.6241 36.6224 66.5719 36.786 66.3632 36.895C66.2067 37.004 65.8936 37.113 65.424 37.113V37.3855H70.0681V37.113ZM82.4872 26.702H82.9046V26.4295H78.7823V26.702H79.1998C79.6694 26.702 79.9825 26.8111 80.2434 27.0291C80.3999 27.1926 80.5043 27.6287 80.5043 28.2828V34.5512L73.2511 26.4295H70.0681V26.702C70.4333 26.702 70.6942 26.702 70.8508 26.7566C71.1639 26.8656 71.477 26.9746 71.6335 27.0836C71.79 27.1926 72.1031 27.4106 72.4162 27.7922V35.3688C72.4162 35.9683 72.364 36.5679 72.2075 36.7315C71.9988 37.004 71.6335 37.1675 71.1639 37.1675H70.7464V37.4401H74.8687V37.1675H74.3991C73.9295 37.1675 73.6164 37.0585 73.3555 36.8405C73.1989 36.6769 73.1468 36.0774 73.1468 35.4233V28.6643L80.9217 37.3855H81.2348V28.2828C81.2348 27.6832 81.287 27.3016 81.4436 27.1381C81.6001 26.8111 81.9654 26.702 82.4872 26.702ZM96.0543 37.4401V37.1675C95.5324 37.113 95.0628 37.004 94.541 36.7315C94.0192 36.5134 93.4452 36.0229 92.7147 35.3688L88.3836 31.3352L90.1578 29.6455C91.2014 28.6098 91.7754 28.0647 91.932 27.9557C92.3494 27.5742 92.7147 27.3016 93.0277 27.1381C93.3408 26.9746 93.6017 26.8656 93.8105 26.8111C94.0192 26.7566 94.2279 26.7566 94.4888 26.702V26.4295H90.1578V26.702H90.4187C90.7318 26.702 90.9405 26.7566 91.0449 26.8656C91.1492 26.9746 91.2014 27.0836 91.2014 27.1926C91.2014 27.3561 91.097 27.5197 90.9927 27.7377C90.6274 28.2283 89.5838 29.2094 87.8618 30.6811C87.1835 31.2807 86.766 31.6077 86.6617 31.7168V28.3373C86.6617 27.7922 86.7138 27.4652 86.766 27.2471C86.8182 27.0836 86.9747 26.9746 87.1313 26.8656C87.3922 26.7566 87.6531 26.702 87.914 26.702H88.3314V26.4295H83.2699V26.702H83.6873C83.9482 26.702 84.2613 26.7566 84.47 26.9201C84.6266 27.0291 84.7831 27.1381 84.8353 27.2471C84.8875 27.4106 84.9397 27.7922 84.9397 28.3918V35.5323C84.9397 36.1864 84.8875 36.6224 84.731 36.786C84.5222 37.0585 84.157 37.1675 83.6873 37.1675H83.2699V37.4401H88.3314V37.1675H87.9662C87.7053 37.1675 87.3922 37.113 87.1835 36.9495C86.9747 36.8405 86.8704 36.7315 86.8182 36.6224C86.766 36.4589 86.7138 36.0774 86.7138 35.5323V31.9893L90.784 35.7503C91.0971 36.0229 91.2536 36.2409 91.358 36.3499C91.4101 36.4589 91.4101 36.5679 91.4101 36.6769C91.4101 36.786 91.3579 36.9495 91.2014 37.0585C91.0449 37.1675 90.784 37.222 90.4709 37.222V37.4946H96.0543V37.4401Z" fill="#C73248"/>
<path d="M58.7024 2.20624C58.7024 1.40423 58.0462 0.748047 57.2442 0.748047H53.0154L39.0897 14.6008V18.8296C39.0897 19.6316 39.7459 20.2878 40.5479 20.2878H44.7767L58.7024 6.36207V2.20624Z" fill="#C73248"/>
<path d="M58.7024 7.23699L45.5787 20.2878H57.2442C58.0462 20.2878 58.7024 19.6316 58.7024 18.8296V7.23699ZM39.0897 13.7259L52.1405 0.748047H40.5479C39.7459 0.748047 39.0897 1.40423 39.0897 2.20624V13.7259Z" fill="#174737"/>
<path d="M46.0894 20.1429C46.0894 20.1429 46.8185 19.8513 47.5475 19.7055C47.8392 19.6326 49.2974 19.268 49.2245 17.7369C49.2245 17.2995 48.5683 17.8827 48.5683 17.8827C48.5683 17.8827 47.4017 18.0285 46.8914 18.3931C46.6726 18.466 46.0894 19.1222 46.0894 20.1429Z" fill="#F7D620"/>
<path d="M49.1519 17.6634C49.0061 17.6634 48.7873 17.8092 48.7144 17.8821C48.7144 17.8821 47.5479 18.0279 47.0375 18.3196C46.8188 18.4654 46.3084 18.9758 46.2355 19.9236C46.4542 19.8507 47.0375 19.632 47.6208 19.559C48.1312 19.4132 49.2977 19.0487 49.2248 17.6634C49.1519 17.6634 49.1519 17.6634 49.1519 17.6634ZM46.0168 20.2152V20.1423C46.0168 19.0487 46.673 18.3925 46.8917 18.3196C47.4021 18.0279 48.4228 17.8821 48.5686 17.8092C48.6415 17.7363 48.9332 17.5176 49.079 17.5176C49.1519 17.5176 49.2977 17.5176 49.2977 17.7363C49.3706 19.1945 48.1312 19.632 47.5479 19.7778C46.8917 19.9236 46.1626 20.2152 46.0897 20.2152H46.0168Z" fill="#838A92"/>
<path d="M51.2659 15.1855C51.2659 15.1855 51.5575 16.9354 50.1723 17.5186C49.589 17.7374 48.7141 18.029 48.5683 18.1748C48.5683 18.1748 48.2766 16.9354 49.2973 16.2063C49.6619 15.9876 50.3181 15.7688 50.7555 15.5501C51.1201 15.4043 51.2659 15.1855 51.2659 15.1855Z" fill="#F7D620"/>
<path d="M51.1933 15.3307C51.1204 15.4036 50.9017 15.5494 50.6829 15.6223L50.5371 15.6952C50.0997 15.8411 49.5164 16.0598 49.2248 16.2785C48.4227 16.8618 48.4957 17.7367 48.4957 18.0284C48.6415 17.9554 48.9331 17.8096 49.3706 17.6638C49.5893 17.5909 49.8809 17.518 50.0997 17.3722C51.1933 17.0076 51.1933 15.7682 51.1933 15.3307ZM48.4957 18.2471V18.1013C48.4957 18.1013 48.204 16.7889 49.2248 16.0598C49.5164 15.8411 50.0997 15.6223 50.5371 15.4765L50.6829 15.4036C51.0475 15.2578 51.1933 15.0391 51.1933 15.0391H51.3391C51.3391 15.0391 51.6308 16.8618 50.1726 17.4451C49.9538 17.518 49.7351 17.5909 49.4435 17.7367C49.0789 17.8825 48.6415 18.0284 48.5686 18.1013L48.4957 18.2471Z" fill="#838A92"/>
<path d="M51.9955 12.9961C51.9955 12.9961 52.8704 14.0897 51.9226 15.2563C51.7038 15.5479 50.6831 16.2041 50.3915 16.5687C50.3915 16.5687 49.8811 15.4021 50.4644 14.5272C50.6102 14.2356 51.2664 13.7981 51.4851 13.5794C51.7767 13.3606 51.9955 12.9961 51.9955 12.9961Z" fill="#F7D620"/>
<path d="M51.9952 13.0696C51.9223 13.2155 51.7036 13.4342 51.5577 13.58C51.339 13.7987 50.6828 14.2362 50.537 14.5278C50.0266 15.2569 50.3183 16.1318 50.3912 16.4235C50.537 16.2777 50.8286 16.0589 51.1203 15.8402C51.4119 15.6215 51.7765 15.3298 51.8494 15.184C52.5785 14.2362 52.141 13.3613 51.9952 13.0696ZM50.3183 16.6422L50.2454 16.5693C50.2454 16.4964 49.735 15.4027 50.3912 14.4549C50.537 14.1633 51.1932 13.6529 51.4119 13.5071C51.6307 13.2884 51.8494 12.9967 51.8494 12.9967L51.9223 12.9238L51.9952 12.9967C51.9952 12.9967 52.8701 14.0904 51.9223 15.4027C51.7765 15.5486 51.4848 15.7673 51.1203 16.0589C50.8286 16.2777 50.4641 16.5693 50.3912 16.7151L50.3183 16.6422Z" fill="#838A92"/>
<path d="M50.9016 10.6641C50.9016 10.6641 50.0996 11.1744 50.6099 12.4868C50.6828 12.6326 51.2661 13.7992 51.339 14.0908C51.339 14.0908 52.5056 13.3617 51.9952 11.9764C51.9223 11.6848 51.4119 10.8828 50.9016 10.6641Z" fill="#F7D620"/>
<path d="M50.9009 10.7376C50.755 10.8105 50.2447 11.3209 50.6821 12.4874C50.6821 12.5604 50.755 12.7062 50.828 12.852C51.0467 13.2894 51.2654 13.7269 51.3383 14.0185C51.557 13.7998 52.2861 13.1436 51.9216 12.05C51.9216 11.7583 51.4112 10.9563 50.9009 10.7376ZM51.2654 14.2373V14.0915C51.2654 13.8727 50.9009 13.2894 50.755 12.852C50.6821 12.6333 50.6092 12.4874 50.5363 12.4874C49.953 11.1022 50.828 10.5918 50.828 10.5918C51.3383 10.8105 51.9216 11.6854 51.9945 11.9771C52.432 13.4353 51.2654 14.1644 51.2654 14.1644V14.2373Z" fill="#838A92"/>
<path d="M48.86 8.76953C48.86 8.76953 48.5684 9.64445 49.2246 10.4464C49.5162 10.811 50.7557 11.1755 51.339 11.5401C51.2661 11.613 51.9952 9.42572 48.86 8.76953Z" fill="#F7D620"/>
<path d="M48.8608 8.91404C48.7879 9.13277 48.715 9.78895 49.2253 10.4451C49.3712 10.591 49.8086 10.8097 50.2461 11.0284C50.6106 11.1742 50.9752 11.3201 51.2668 11.5388C51.3397 11.3201 51.3397 10.7368 51.0481 10.2264C50.6835 9.49732 49.9544 9.13277 48.8608 8.91404ZM51.3397 11.6846L51.2668 11.6117C51.0481 11.4659 50.6106 11.2471 50.2461 11.1013C49.8086 10.8826 49.3712 10.7368 49.2253 10.518C48.5692 9.71604 48.7879 8.84113 48.8608 8.76822V8.69531H48.9337C50.1003 8.91404 50.8294 9.3515 51.2668 10.0077C51.7043 10.7368 51.4855 11.5388 51.4855 11.5388L51.3397 11.6846Z" fill="#838A92"/>
<path d="M47.1105 7.23828C47.1105 7.23828 49.8081 7.45701 49.4436 9.93593C49.4436 9.93593 48.8603 9.57138 48.3499 9.35265C48.1312 9.27974 47.0376 8.91519 47.1105 7.89446C47.1105 7.60283 47.1105 7.23828 47.1105 7.23828Z" fill="#F7D620"/>
<path d="M47.1831 7.30988C47.1831 7.4557 47.1831 7.67443 47.1831 7.89316C47.1102 8.76807 47.9122 9.13262 48.2767 9.27844C48.3496 9.27844 48.3496 9.27844 48.3496 9.35135C48.7142 9.49717 49.2245 9.7888 49.3703 9.86171C49.4433 9.20553 49.2974 8.69516 49.0058 8.2577C48.4225 7.52861 47.4018 7.38279 47.1831 7.30988ZM49.5162 10.0804L49.3703 10.0075C49.3703 10.0075 48.7871 9.64298 48.2767 9.42426C48.2767 9.42426 48.2038 9.42426 48.2038 9.35135C47.8393 9.20553 46.9643 8.84098 47.0373 7.82025C47.0373 7.52861 47.0373 7.23697 47.0373 7.23697V7.16406H47.1102C47.1831 7.16406 48.4225 7.23697 49.1516 8.11189C49.5162 8.54934 49.662 9.20553 49.5891 9.86171L49.5162 10.0804Z" fill="#838A92"/>
<path d="M47.1094 4.90425C47.1094 4.90425 46.0886 5.70626 46.599 6.94572C46.6719 7.16445 47.1823 7.89354 47.4739 8.03936C47.4739 8.03936 47.7655 7.16445 47.9843 6.50826C48.0572 6.21662 48.2759 5.19589 47.6197 4.83135C47.3281 4.61262 47.1094 4.90425 47.1094 4.90425Z" fill="#F7D620"/>
<path d="M47.4013 4.83201C47.2555 4.83201 47.1826 4.97783 47.1826 4.97783C47.1097 4.97783 46.2348 5.70692 46.6722 6.94638C46.7451 7.16511 47.1826 7.74838 47.4742 7.96711C47.5471 7.74838 47.7659 7.01929 47.9846 6.50892C47.9846 6.43602 48.2762 5.34237 47.62 4.90492C47.5471 4.83201 47.4742 4.83201 47.4013 4.83201ZM47.5471 8.11293C47.1826 7.96711 46.6722 7.23802 46.5264 6.94638C46.016 5.70692 46.9639 4.90492 47.0368 4.83201C47.0368 4.7591 47.1826 4.61328 47.4013 4.61328C47.4742 4.61328 47.5471 4.61328 47.62 4.68619C48.3491 5.12365 48.0575 6.43601 48.0575 6.43601C47.9117 7.16511 47.5471 8.04002 47.5471 8.11293Z" fill="#838A92"/>
<path d="M46.8911 5.63318C46.8911 5.63318 46.0891 3.30007 48.9326 2.7168C48.9326 2.7168 49.5888 3.59171 48.4951 4.53953C48.2764 4.83117 47.1099 5.41445 46.8911 5.63318Z" fill="#F7D620"/>
<path d="M48.9332 2.79035C48.0583 3.00908 47.475 3.37363 47.1834 3.9569C46.8188 4.61309 46.9647 5.26927 47.0376 5.488C47.1834 5.34218 47.5479 5.12345 47.8396 4.90472C48.1312 4.686 48.4228 4.54018 48.5687 4.46727C49.3707 3.73817 49.0061 3.00908 48.9332 2.79035ZM46.8917 5.85255L46.8188 5.70673C46.8188 5.63382 46.5272 4.7589 46.9647 3.88399C47.3292 3.30072 47.9854 2.86326 48.8603 2.64453H48.9332V2.71744C48.9332 2.71744 49.5894 3.66526 48.4958 4.61309C48.3499 4.7589 48.0583 4.90472 47.7667 5.12345C47.4021 5.34218 46.9647 5.63382 46.8917 5.70673V5.85255Z" fill="#838A92"/>
<path d="M50.9165 0.228718C50.9165 0.228718 48.0001 0.155808 48.1459 2.78055C48.1459 2.78055 49.9687 2.19727 50.479 1.68691C50.6248 1.39527 50.9165 0.884902 50.9165 0.228718Z" fill="#F7D620"/>
<path d="M50.8435 0.302069C50.5518 0.302069 49.3853 0.374978 48.7291 1.10407C48.3645 1.46862 48.1458 2.0519 48.2187 2.70808C48.5833 2.56226 50.0415 2.12481 50.406 1.68735C50.6247 1.39571 50.8435 0.885344 50.8435 0.302069ZM48 2.8539V2.78099C48 2.0519 48.1458 1.46862 48.5833 1.03116C49.3853 0.229159 50.6977 0.15625 50.8435 0.15625H50.9164V0.229159C50.9164 0.885345 50.6977 1.39571 50.406 1.68735C49.9686 2.27062 48.2187 2.8539 48.0729 2.8539H48Z" fill="#838A92"/>
</svg>
