<svg width="92" height="30" viewBox="0 0 92 30" fill="none" xmlns="http://www.w3.org/2000/svg">
<path d="M24.2966 4.49414H19.6505V25.2874H24.2966V4.49414Z" fill="#8A8B8D"/>
<path fill-rule="evenodd" clip-rule="evenodd" d="M52.0216 17.9755C51.4885 16.6045 46.8423 4.49414 46.8423 4.49414H41.8154L41.8916 4.72264L49.8128 25.2874H54.1543L62.1517 4.49414H57.1247C57.1247 4.49414 52.7833 15.6905 52.0216 17.9755Z" fill="#8A8B8D"/>
<path fill-rule="evenodd" clip-rule="evenodd" d="M40.5966 6.55062C38.6924 5.10347 36.3313 4.49414 32.1422 4.49414H26.582V25.2874H31.8375C35.9505 25.2874 38.0831 24.9066 39.9872 23.688C42.6531 22.0123 44.024 18.8895 44.024 14.8527C44.1002 11.1206 42.9577 8.30244 40.5966 6.55062ZM36.9406 20.946C35.8743 21.7076 34.1986 22.0885 31.9137 22.0885H31.152V7.69311H31.8375C34.8841 7.69311 35.8743 7.92161 37.0929 8.75943C38.6163 9.90192 39.5303 12.1107 39.5303 14.8527C39.5303 17.5947 38.5401 19.8035 36.9406 20.946Z" fill="#8A8B8D"/>
<path fill-rule="evenodd" clip-rule="evenodd" d="M12.9482 14.548C15.5378 13.8625 16.8327 12.2631 16.8327 9.97808C16.8327 7.9216 15.7663 6.16978 13.8622 5.40813C12.2627 4.64647 10.5871 4.41797 7.08343 4.41797H0V25.2113H7.84509C11.1964 25.2113 12.872 24.9066 14.3192 24.2211C16.2995 23.231 17.3658 21.4791 17.3658 19.4227C17.3658 16.833 15.8425 15.2335 12.9482 14.548ZM4.64612 7.6931H6.09327C8.45442 7.6931 10.0539 7.61694 10.8917 8.07393C11.7296 8.45476 12.1865 9.06409 12.1865 10.1304C12.1865 11.1206 11.7296 11.7299 10.8917 12.1869C10.2062 12.5677 8.37825 12.7201 6.24561 12.7201H4.64612V7.6931ZM11.1202 21.7076C10.2824 22.0885 8.91141 22.0123 6.4741 22.0123H4.64612V16.6807H6.55027C8.53058 16.6807 10.1301 16.7568 11.0441 17.0615C12.1865 17.4423 12.7959 18.1278 12.7959 19.3465C12.7959 20.7936 12.1104 21.2506 11.1202 21.7076Z" fill="#8A8B8D"/>
<path fill-rule="evenodd" clip-rule="evenodd" d="M76.8514 0.914062L63.0654 14.7001L76.8514 28.41L90.6375 14.7001L76.8514 0.914062Z" fill="#B8B8B8"/>
<path fill-rule="evenodd" clip-rule="evenodd" d="M74.5662 5.48438V16.9093H76.9274H79.1362V5.48438H76.9274H74.5662Z" fill="#6C6E74"/>
<path fill-rule="evenodd" clip-rule="evenodd" d="M80.6596 14.7006H79.441V7.76953H80.6596C81.9544 7.76953 82.8684 9.29285 82.8684 11.2732C82.8684 13.1011 81.8783 14.7006 80.6596 14.7006ZM72.0529 7.76953H74.3378V14.7006H72.0529V7.76953Z" fill="#6C6E74"/>
<path fill-rule="evenodd" clip-rule="evenodd" d="M62.1515 14.7L62.3039 14.8524L76.3184 28.8669L76.8516 29.4L77.3847 28.8669L91.5516 14.7762L76.8516 0L62.1515 14.7ZM76.8516 28.4099L63.0655 14.7L76.8516 0.990157L90.6376 14.7L76.8516 28.4099Z" fill="#8A8B8D"/>
<path fill-rule="evenodd" clip-rule="evenodd" d="M76.8506 21.2495L70.2242 14.6992H63.6739L75.175 26.1241L75.2512 26.2003L76.8506 27.7998L90.0274 14.6992H83.4771L76.8506 21.2495Z" fill="#6C6E74"/>
</svg>
