<svg width="92" height="30" viewBox="0 0 92 30" fill="none" xmlns="http://www.w3.org/2000/svg">
<path d="M24.2969 4.49414H19.6508V25.2874H24.2969V4.49414Z" fill="#1D4497"/>
<path fill-rule="evenodd" clip-rule="evenodd" d="M52.0219 17.9755C51.4887 16.6045 46.8426 4.49414 46.8426 4.49414H41.8157L41.8918 4.72264L49.8131 25.2874H54.1545L62.152 4.49414H57.125C57.125 4.49414 52.7836 15.6905 52.0219 17.9755Z" fill="#1D4497"/>
<path fill-rule="evenodd" clip-rule="evenodd" d="M40.5968 6.55062C38.6927 5.10347 36.3316 4.49414 32.1424 4.49414H26.5823V25.2874H31.8378C35.9507 25.2874 38.0834 24.9066 39.9875 23.688C42.6533 22.0123 44.0243 18.8895 44.0243 14.8527C44.1005 11.1206 42.958 8.30244 40.5968 6.55062ZM36.9409 20.946C35.8746 21.7076 34.1989 22.0885 31.9139 22.0885H31.1523V7.69311H31.8378C34.8844 7.69311 35.8746 7.92161 37.0932 8.75943C38.6165 9.90192 39.5305 12.1107 39.5305 14.8527C39.5305 17.5947 38.5404 19.8035 36.9409 20.946Z" fill="#1D4497"/>
<path fill-rule="evenodd" clip-rule="evenodd" d="M12.9485 14.548C15.5381 13.8625 16.8329 12.2631 16.8329 9.97808C16.8329 7.9216 15.7666 6.16978 13.8625 5.40813C12.263 4.64647 10.5873 4.41797 7.0837 4.41797H0.000267029V25.2113H7.84536C11.1967 25.2113 12.8723 24.9066 14.3195 24.2211C16.2998 23.231 17.3661 21.4791 17.3661 19.4227C17.3661 16.833 15.8428 15.2335 12.9485 14.548ZM4.64639 7.6931H6.09354C8.45468 7.6931 10.0542 7.61694 10.892 8.07393C11.7298 8.45476 12.1868 9.06409 12.1868 10.1304C12.1868 11.1206 11.7298 11.7299 10.892 12.1869C10.2065 12.5677 8.37852 12.7201 6.24587 12.7201H4.64639V7.6931ZM11.1205 21.7076C10.2827 22.0885 8.91168 22.0123 6.47437 22.0123H4.64639V16.6807H6.55054C8.53085 16.6807 10.1303 16.7568 11.0443 17.0615C12.1868 17.4423 12.7961 18.1278 12.7961 19.3465C12.7961 20.7936 12.1106 21.2506 11.1205 21.7076Z" fill="#1D4497"/>
<path fill-rule="evenodd" clip-rule="evenodd" d="M76.8517 0.914062L63.0657 14.7001L76.8517 28.41L90.6377 14.7001L76.8517 0.914062Z" fill="white"/>
<path fill-rule="evenodd" clip-rule="evenodd" d="M74.5665 5.48438V16.9093H76.9276H79.1365V5.48438H76.9276H74.5665Z" fill="#EC2027"/>
<path fill-rule="evenodd" clip-rule="evenodd" d="M80.6599 14.7006H79.4412V7.76953H80.6599C81.9547 7.76953 82.8687 9.29285 82.8687 11.2732C82.8687 13.1011 81.8785 14.7006 80.6599 14.7006ZM72.0531 7.76953H74.3381V14.7006H72.0531V7.76953Z" fill="#1D4497"/>
<path fill-rule="evenodd" clip-rule="evenodd" d="M62.1518 14.7L62.3041 14.8524L76.3187 28.8669L76.8518 29.4L77.385 28.8669L91.5519 14.7762L76.8518 0L62.1518 14.7ZM76.8518 28.4099L63.0658 14.7L76.8518 0.990157L90.6379 14.7L76.8518 28.4099Z" fill="#EC2027"/>
<path fill-rule="evenodd" clip-rule="evenodd" d="M76.8509 21.2495L70.2245 14.6992H63.6742L75.1753 26.1241L75.2514 26.2003L76.8509 27.7998L90.0276 14.6992H83.4774L76.8509 21.2495Z" fill="#EC2027"/>
</svg>
