<svg width="98" height="33" viewBox="0 0 98 33" fill="none" xmlns="http://www.w3.org/2000/svg">
<g clip-path="url(#clip0)">
<path d="M97.9482 16.637C95.8335 11.2243 93.7445 5.78662 91.6556 0.37392C91.5524 0.124487 91.4235 -0.0251726 91.114 -0.000229274C90.6498 0.024714 90.1856 -0.000229274 89.7214 -0.000229274C88.4061 -0.000229274 87.4777 0.573467 87.0393 1.77075C85.2082 6.75941 83.3772 11.7481 81.5461 16.7367C81.4172 17.1109 81.5461 17.1358 81.8556 17.1358C82.4745 17.1109 83.0677 17.1109 83.6866 17.1358C84.0219 17.1608 84.1766 17.0361 84.2798 16.7118C84.7956 15.1404 85.3372 13.5689 85.8787 11.9726C85.9561 11.7231 86.0593 11.5735 86.3945 11.5984C88.3803 11.6234 90.3403 11.6234 92.3261 11.5984C92.6614 11.5984 92.7903 11.7231 92.8935 11.9975C93.3061 13.1698 93.7187 14.3671 94.1314 15.5395C94.3119 16.0383 94.3635 16.6868 94.7503 16.9862C95.1372 17.2855 95.8077 17.0361 96.2719 17.0859C96.8135 17.0859 97.2261 17.061 97.6645 17.0859C97.974 17.0859 98.0772 17.0361 97.9482 16.637ZM91.5008 9.62789C90.0308 9.60294 88.5608 9.60294 87.0908 9.62789C86.704 9.62789 86.6782 9.52812 86.8072 9.20385C87.6066 7.1585 88.4061 5.08821 89.2056 3.04285C89.2314 2.96802 89.2314 2.91814 89.3861 2.89319C90.1856 4.98843 91.0108 7.10861 91.8361 9.20385C91.9651 9.55306 91.8619 9.62789 91.5008 9.62789Z" fill="#025798"/>
<path d="M66.8203 9.0039C66.8203 7.20799 66.8203 5.43701 66.8203 3.64109C66.8203 3.29189 66.7172 3.19211 66.3561 3.21706C65.8661 3.242 65.3761 3.26694 64.9119 3.21706C64.4219 3.16717 64.3188 3.36672 64.3188 3.79075C64.3446 6.65923 64.3188 9.50277 64.3188 12.3713C64.293 12.3962 64.2672 12.3962 64.2156 12.4211C64.1382 12.2964 64.0351 12.1717 63.9577 12.047C62.3072 9.5776 60.5793 7.13316 59.0319 4.61388C58.3614 3.51638 57.6393 3.0674 56.324 3.19211C54.983 3.31683 54.364 3.8157 54.364 5.13769C54.364 8.60481 54.364 12.0719 54.364 15.5391C54.364 16.0629 54.1835 16.7862 54.4414 17.1105C54.7509 17.4597 55.5246 17.1604 56.0919 17.2352C56.5304 17.2851 56.6593 17.1354 56.6593 16.7114C56.6335 13.6932 56.6593 10.6751 56.6593 7.65697C56.6593 7.48236 56.6593 7.3327 56.6593 7.00844C56.8656 7.28282 56.9688 7.43248 57.0719 7.60708C59.0835 10.6502 61.1209 13.6932 63.1325 16.7363C63.3388 17.0606 63.5451 17.2851 64.0093 17.2601C64.7314 17.2103 65.4535 17.2103 66.1498 17.2601C66.614 17.2851 66.7688 17.1853 66.743 16.7114C66.7946 14.1173 66.8203 11.5731 66.8203 9.0039Z" fill="#025798"/>
<path d="M26.1239 17.1604C28.6255 17.1355 31.1528 17.1604 33.6544 17.1355C34.5828 17.1355 35.4597 16.911 36.2849 16.4869C37.6002 15.8135 38.5544 14.8407 38.6318 13.3441C38.7349 11.5232 38.6318 9.70236 38.7092 7.8815C38.8123 5.26245 36.646 3.46653 34.5055 3.29193C32.1328 3.09238 29.7344 3.2171 27.3618 3.24204C26.3818 3.24204 25.7113 4.04023 25.7113 5.01302C25.7113 6.90871 25.7113 8.82934 25.7113 10.725C25.7113 12.7205 25.7113 14.716 25.7113 16.7114C25.6855 17.0357 25.7371 17.1604 26.1239 17.1604ZM29.3734 5.03796C30.4049 5.0629 31.4107 5.03796 32.4423 5.0629C34.2218 5.08785 35.537 6.23524 35.6144 7.95633C35.6918 9.50281 35.666 11.0493 35.6144 12.5708C35.537 14.1922 34.3765 15.2398 32.6744 15.2897C31.5655 15.3146 30.4565 15.2897 29.3476 15.3146C28.9865 15.3146 28.9349 15.1899 28.9349 14.8906C28.9349 13.3191 28.9349 11.7477 28.9349 10.1513C28.9349 8.60485 28.9349 7.05837 28.9349 5.53683C28.9092 5.18762 28.9865 5.03796 29.3734 5.03796Z" fill="#025798"/>
<path d="M48.4579 17.2107C51.1916 17.2855 52.7647 15.29 53.1258 13.4941C53.3579 12.3467 53.1773 11.1744 53.2289 10.2265C53.2289 9.2288 53.2289 8.43061 53.2289 7.63243C53.2289 5.36259 51.6042 3.46689 49.2831 3.11769C47.5294 2.86826 45.7242 2.8932 43.9705 3.0678C41.4173 3.34218 39.87 5.1381 39.87 7.60748C39.87 9.32857 39.8442 11.0497 39.8958 12.7458C39.9473 15.1903 41.6494 16.9612 44.151 17.1608C45.5694 17.2605 47.0137 17.1857 48.4579 17.2107ZM43.1194 12.8705C43.0937 11.0247 43.0937 9.15397 43.1194 7.30816C43.1452 5.98617 44.4089 4.66417 45.8531 4.78889C46.3173 4.83878 46.7816 4.78889 47.2458 4.78889C48.7416 4.78889 49.9794 5.93628 50.031 7.38299C50.0568 8.3059 50.031 9.2288 50.031 10.1517C50.031 10.9998 50.031 11.8478 50.031 12.6959C50.0052 14.3172 48.8189 15.4646 47.1426 15.4646C46.73 15.4646 46.3173 15.4397 45.9047 15.4646C44.4089 15.6392 43.1452 14.1676 43.1194 12.8705Z" fill="#025798"/>
<path d="M78.2705 8.08156C78.9411 8.05661 79.6374 8.08156 80.3079 8.08156C80.4884 8.08156 80.6689 8.1065 80.6689 7.83212C80.7979 5.56228 79.56 3.46705 77.11 3.11784C75.6142 2.89335 74.0926 3.04301 72.5968 3.04301C70.25 3.04301 68.1611 4.81398 67.9805 7.08383C67.8258 9.12918 67.8 11.1995 68.0063 13.2698C68.2126 15.5147 69.8889 17.0861 72.1842 17.2108C73.7832 17.3106 75.4079 17.2607 77.0326 17.2108C78.2189 17.1859 79.3279 16.8117 80.2821 16.1133C80.4884 15.9636 80.6947 15.814 80.6947 15.4897C80.6689 13.619 80.6947 11.7482 80.6947 9.87748C80.6947 9.65299 80.6432 9.52827 80.3853 9.52827C78.6574 9.52827 76.9037 9.52827 75.1758 9.52827C74.9437 9.52827 74.8663 9.6031 74.8663 9.82759C74.8921 10.3015 74.8921 10.8004 74.8663 11.2743C74.8405 11.6485 75.0211 11.6983 75.3305 11.6983C76.0011 11.6734 76.6974 11.7233 77.3679 11.6734C77.7547 11.6485 77.8579 11.7981 77.8321 12.1473C77.8063 12.7958 77.7805 13.4194 77.8321 14.068C77.8579 14.5169 77.6516 14.7913 77.2905 14.9659C77.0584 15.0906 76.8005 15.1904 76.5426 15.2652C75.6916 15.5646 74.8147 15.4648 73.9379 15.4648C72.3132 15.4648 71.1268 14.3673 71.1011 12.7709C71.0753 11.8979 71.1011 10.9999 71.1011 10.1269C71.1011 9.22895 71.1011 8.33099 71.1011 7.43303C71.1011 6.6099 71.4621 5.91149 72.0811 5.36274C72.9837 4.56455 75.64 4.51466 76.6458 5.26296C77.4453 5.8616 77.8579 6.6099 77.8063 7.58269C77.7805 7.9319 77.8837 8.08156 78.2705 8.08156Z" fill="#025798"/>
<path d="M31.1793 26.365C31.4887 26.2902 31.6435 26.2403 31.7724 26.1904C32.6751 25.8662 33.3456 25.3174 33.6551 24.3945C34.274 22.4739 32.933 20.653 30.7666 20.5782C28.6261 20.5034 26.5114 20.5533 24.3709 20.5283C24.0614 20.5283 23.984 20.6032 23.984 20.9025C23.984 21.2018 24.0872 21.3016 24.3966 21.2766C24.5772 21.2517 24.7577 21.2766 24.9382 21.3016C25.7377 21.3514 25.8409 21.4512 25.8409 22.1995C25.8409 24.9183 25.8409 27.6372 25.8409 30.356C25.8409 31.8276 25.8409 31.8276 24.3193 31.9523C23.984 31.9773 24.0098 32.1519 24.0098 32.3514C24.0098 32.5759 24.0614 32.7006 24.3193 32.7006C26.563 32.6508 28.8066 32.8004 31.0245 32.6009C32.3656 32.4761 33.5519 32.0272 34.1193 30.7052C35.0219 28.585 33.784 26.6893 31.1793 26.365ZM27.5687 23.9206H27.5945C27.5945 23.2721 27.5945 22.5986 27.5945 21.9501C27.5945 21.5759 27.8266 21.3514 28.1877 21.3265C28.9614 21.2766 29.7609 21.2517 30.5345 21.4263C31.1277 21.551 31.5145 21.9002 31.7209 22.449C32.0303 23.2222 32.0303 24.0204 31.7724 24.7936C31.5145 25.5419 30.8956 25.8911 30.0961 25.9909C29.374 26.0907 28.6261 26.0657 27.904 26.0657C27.6203 26.0657 27.543 25.941 27.543 25.6916C27.5687 25.0929 27.5687 24.5192 27.5687 23.9206ZM32.4172 29.8821C32.2109 31.2539 31.5919 31.8276 30.1735 31.9274C29.6319 31.9773 29.0903 31.9773 28.5745 31.9773C27.7751 31.9773 27.6203 31.8276 27.5945 31.0793C27.5687 30.4308 27.5945 29.7573 27.5945 29.1088C27.5945 28.4603 27.5945 27.8367 27.5945 27.1882C27.5945 26.9637 27.6461 26.839 27.904 26.839C28.6519 26.814 29.3998 26.7641 30.1477 26.8639C31.8756 27.0635 32.6751 28.161 32.4172 29.8821Z" fill="#838A92"/>
<path d="M63.5449 32.1015C62.8228 32.0517 62.3328 31.6276 61.9459 31.0789C61.3528 30.2557 60.7596 29.4326 60.1923 28.5845C59.5475 27.6616 59.5475 27.6367 60.3728 26.8385C61.0691 26.165 61.7396 25.4417 62.8486 25.4666C63.0807 25.4666 63.0291 25.317 63.0291 25.1922C63.0549 24.9927 62.9775 24.9179 62.7712 24.9179C61.5333 24.9179 60.2954 24.9179 59.0575 24.9179C58.8254 24.9179 58.7481 24.9927 58.7481 25.2172C58.7481 25.4417 58.8512 25.4916 59.0317 25.4916C59.238 25.4916 59.4702 25.4916 59.6765 25.5165C60.1149 25.5913 60.2438 25.8408 59.9344 26.1151C59.0833 26.9133 58.1807 27.6616 57.2781 28.4349C57.3038 28.4099 57.3554 28.2353 57.3554 28.0857C57.3554 25.6412 57.3554 23.1968 57.3554 20.7523C57.3554 20.5528 57.4586 20.2784 57.0459 20.3033C56.2723 20.3532 55.4986 20.4031 54.7507 20.453C54.6217 20.453 54.4412 20.453 54.4412 20.6526C54.4412 20.8272 54.338 21.0516 54.5186 21.1265C54.6991 21.2013 54.9312 21.2013 55.1375 21.2013C55.6533 21.2013 55.8596 21.4258 55.8596 21.9496C55.8596 25.1673 55.8596 28.36 55.8596 31.5777C55.8596 31.9519 55.7049 32.1265 55.3438 32.1265C55.1891 32.1265 55.0602 32.1514 54.9054 32.1514C54.6733 32.1514 54.5444 32.1764 54.5444 32.4507C54.5444 32.7251 54.6475 32.775 54.9054 32.775C55.9886 32.775 57.0975 32.775 58.1807 32.775C58.387 32.775 58.5417 32.775 58.5675 32.4757C58.5933 32.1764 58.4128 32.1514 58.1807 32.1514C57.9228 32.1514 57.6391 32.2263 57.4328 31.9768C57.2781 31.7773 57.2781 29.7818 57.4328 29.5823C57.4586 29.5324 57.5102 29.5074 57.5359 29.4825C57.8196 29.2331 58.0775 28.9836 58.387 28.7092C59.0833 29.707 59.7538 30.6798 60.3986 31.6775C60.5791 31.9519 60.5017 32.2013 60.0891 32.2013C59.9602 32.2013 59.8312 32.2263 59.7023 32.2013C59.4444 32.1764 59.367 32.3011 59.367 32.5256C59.367 32.8 59.5217 32.8 59.7023 32.8C60.9144 32.8 62.1523 32.8 63.3644 32.8C63.5707 32.8 63.6996 32.775 63.6996 32.5256C63.8028 32.2761 63.8286 32.1265 63.5449 32.1015Z" fill="#838A92"/>
<path d="M53.4612 32.1022C53.3323 32.1022 53.2034 32.1022 53.0744 32.1022C52.6102 32.1521 52.4039 31.9525 52.4555 31.5036C52.4812 31.0795 52.4812 30.6804 52.4555 30.2564C52.4297 29.1339 52.5328 28.0115 52.3781 26.889C52.1202 25.143 50.4181 24.1702 48.8707 24.8437C48.2518 25.1181 47.8391 25.6169 47.4007 26.2904C47.4007 25.9163 47.3749 25.6918 47.4007 25.4673C47.4523 25.0432 47.3233 24.8686 46.8591 24.9435C46.2402 25.0183 45.5955 25.0432 44.9765 25.0682C44.7186 25.0682 44.5639 25.0931 44.5381 25.4174C44.5381 25.7666 44.6928 25.7915 44.9765 25.8165C45.7502 25.8414 45.8791 25.9412 45.8791 26.7144C45.8791 28.1362 45.8791 29.558 45.8791 30.9797C45.8791 31.9775 45.8791 32.0024 44.8476 32.1271C44.5639 32.1521 44.5381 32.2768 44.5381 32.4763C44.5381 32.7008 44.6412 32.7757 44.8733 32.7757C46.0339 32.7757 47.1944 32.7757 48.3807 32.7757C48.6128 32.7757 48.6902 32.7008 48.6902 32.4763C48.7418 32.0773 48.4323 32.1521 48.2002 32.1271C47.8649 32.0773 47.3749 32.2269 47.3749 31.6283C47.3749 30.3312 47.3749 29.0342 47.4265 27.7371C47.4523 27.0636 47.7618 26.5149 48.3034 26.0659C48.7934 25.6668 49.3607 25.567 49.9797 25.7915C50.5728 25.9911 50.8307 26.4151 50.8823 27.0138C51.037 28.3856 50.9339 29.7575 50.9597 31.1045C50.9855 32.0773 50.9597 32.0773 49.9797 32.1521C49.7476 32.177 49.6186 32.177 49.6444 32.4514C49.6444 32.7258 49.7991 32.7507 50.0055 32.7507C51.1402 32.7507 52.3007 32.7507 53.4355 32.7507C53.7191 32.7507 53.7449 32.626 53.7449 32.4015C53.7707 32.177 53.6934 32.0773 53.4612 32.1022Z" fill="#838A92"/>
<path d="M43.4804 31.827C42.8099 32.0515 42.3972 31.7771 42.3972 31.0787C42.3972 30.3054 42.423 29.5322 42.423 28.734C42.423 27.9358 42.5004 27.1376 42.3715 26.3395C42.2941 25.8406 42.0362 25.4415 41.5978 25.1422C40.3341 24.2941 37.9099 24.4937 36.8267 25.5163C36.3625 25.9404 36.182 26.4642 36.3625 27.0878C36.4915 27.6116 36.9815 27.8859 37.523 27.7113C38.013 27.5617 38.2193 27.0878 38.013 26.5639C37.9614 26.4392 37.8841 26.3145 37.8325 26.1898C37.652 25.9154 37.7809 25.7159 38.0388 25.5912C38.8125 25.2669 39.612 25.2669 40.3857 25.5912C41.0562 25.8905 40.9788 26.539 41.0304 27.1127C41.082 27.6615 40.9272 27.9109 40.3083 27.9608C39.8441 27.9857 39.4057 28.1354 38.9415 28.2601C38.0388 28.5095 37.162 28.8338 36.4915 29.5073C35.8467 30.1558 35.692 30.929 36.0015 31.7522C36.3109 32.5503 36.9815 32.8746 37.8067 32.9494C39.122 33.0492 40.1793 32.6002 41.0562 31.6524C41.1336 31.827 41.1851 31.9766 41.2625 32.1014C41.4946 32.5503 41.8299 32.8497 42.3715 32.8497C42.9646 32.8746 43.4546 32.6501 43.7899 32.1762C43.8672 32.0515 43.9446 31.9268 43.8672 31.802C43.7383 31.6773 43.6094 31.7771 43.4804 31.827ZM40.953 29.5571C41.0046 30.6048 40.6693 31.5277 39.483 31.9766C38.7351 32.276 38.0388 32.1014 37.652 31.5776C37.2651 31.0537 37.3425 30.1807 37.8325 29.6569C38.142 29.3327 38.5288 29.1082 38.9672 29.0084C39.4572 28.8837 39.973 28.7839 40.4888 28.6342C40.8499 28.5345 41.0304 28.5844 40.9788 28.9834C40.953 29.1331 40.953 29.3077 40.953 29.5571Z" fill="#838A92"/>
<path d="M20.6318 13.1447C20.0386 10.8499 18.9813 8.75467 17.4081 6.93381C16.2218 5.53698 14.8807 4.31476 13.1786 3.56646C12.1213 3.09254 11.0123 3.06759 9.92916 3.44174C7.73706 4.23993 5.88021 5.51204 4.25548 7.13335C3.09495 8.33063 2.16653 9.67757 1.39285 11.1492C0.18074 13.469 -0.206102 15.9134 0.103372 18.4826C0.18074 19.1311 0.490214 19.6549 1.006 20.0789C2.29548 21.1016 3.68811 21.9746 5.23548 22.5733C6.31863 22.9973 7.40179 23.3465 8.56232 23.4712C9.00074 23.5211 9.46495 23.5211 9.90337 23.5959C10.9092 23.5959 11.9149 23.5959 12.9207 23.5959C12.9465 23.571 12.9981 23.571 13.0497 23.571C14.0297 23.5461 15.0097 23.4463 15.9381 23.1719C17.2018 22.7978 18.3881 22.3238 19.4455 21.5256C20.2707 20.9021 20.8381 20.1538 20.8897 19.0812C20.9155 18.6322 20.9413 18.1832 20.9671 17.7343C21.0444 16.1628 21.0444 14.6413 20.6318 13.1447ZM7.32442 7.68211C7.6339 7.08347 8.02074 6.50977 8.38179 5.93607C8.71706 5.41226 9.23284 5.46215 9.69705 5.48709C11.8376 5.61181 13.5397 6.55966 14.8292 8.18097C14.8292 8.20591 14.8292 8.23086 14.8549 8.28075C12.3792 6.88392 9.87758 6.73426 7.27285 7.88165C7.22127 7.83177 7.29863 7.75694 7.32442 7.68211ZM4.28127 20.4531C4.12653 20.4531 4.02337 20.3533 3.946 20.2535C3.32706 19.63 3.04337 18.8318 2.86285 18.0086C2.57916 16.7365 2.68232 15.4395 3.19811 14.2173C3.2239 14.1424 3.27548 14.0426 3.30127 13.9678C3.32706 13.9429 3.32706 13.9179 3.37863 13.8431C3.30127 16.6617 4.48758 18.8068 6.80863 20.4531C5.95758 20.5778 5.10653 20.478 4.28127 20.4531ZM10.1613 19.7297C9.95495 19.8046 9.80021 19.7547 9.64548 19.6549C8.20127 18.8068 7.27285 17.5846 6.70548 16.0631C6.11232 14.4916 5.95758 12.8953 6.18969 11.249C6.24127 10.8748 6.42179 10.7002 6.70548 10.5506C7.68548 10.0767 8.71706 9.85217 9.80021 9.85217C12.1471 9.87712 14.1586 10.7252 15.9897 12.122C16.1444 12.2467 16.1444 12.3964 16.1444 12.5461C16.1186 14.0925 15.5255 15.4145 14.5713 16.6118C13.4107 18.0585 11.8892 19.0563 10.1613 19.7297ZM19.4713 17.1855C19.136 18.0336 18.5428 18.6821 17.8207 19.2309C16.7376 20.054 15.5255 20.5778 14.0297 20.7275C16.5828 19.3306 18.0013 17.3102 18.2592 14.4916C18.8007 15.215 19.2134 15.9633 19.5744 16.7365C19.626 16.9111 19.5228 17.0608 19.4713 17.1855Z" fill="#F59222"/>
</g>
<defs>
<clipPath id="clip0">
<rect width="98" height="33" fill="white"/>
</clipPath>
</defs>
</svg>
