<svg width="98" height="33" viewBox="0 0 98 33" fill="none" xmlns="http://www.w3.org/2000/svg">
<g clip-path="url(#clip0)">
<path d="M97.9482 16.6379C95.8334 11.2252 93.7445 5.7876 91.6555 0.374897C91.5524 0.125464 91.4234 -0.024196 91.114 0.000747289C90.6498 0.0256906 90.1855 0.000747289 89.7213 0.000747289C88.4061 0.000747289 87.4777 0.574443 87.0392 1.77172C85.2082 6.76038 83.3771 11.749 81.5461 16.7377C81.4171 17.1119 81.5461 17.1368 81.8555 17.1368C82.4745 17.1119 83.0676 17.1119 83.6866 17.1368C84.0219 17.1617 84.1766 17.037 84.2797 16.7128C84.7955 15.1413 85.3371 13.5699 85.8787 11.9735C85.9561 11.7241 86.0592 11.5744 86.3945 11.5994C88.3803 11.6243 90.3403 11.6243 92.3261 11.5994C92.6613 11.5994 92.7903 11.7241 92.8934 11.9985C93.3061 13.1708 93.7187 14.3681 94.1313 15.5404C94.3119 16.0393 94.3634 16.6878 94.7503 16.9871C95.1371 17.2865 95.8077 17.037 96.2719 17.0869C96.8134 17.0869 97.2261 17.062 97.6645 17.0869C97.974 17.0869 98.0771 17.037 97.9482 16.6379ZM91.5008 9.62886C90.0308 9.60392 88.5608 9.60392 87.0908 9.62886C86.704 9.62886 86.6782 9.52909 86.8071 9.20483C87.6066 7.15948 88.4061 5.08918 89.2055 3.04383C89.2313 2.969 89.2313 2.91911 89.3861 2.89417C90.1855 4.98941 91.0108 7.10959 91.8361 9.20483C91.965 9.55404 91.8619 9.62886 91.5008 9.62886Z" fill="#838A92"/>
<path d="M66.8204 9.00586C66.8204 7.20994 66.8204 5.43897 66.8204 3.64305C66.8204 3.29384 66.7172 3.19407 66.3562 3.21901C65.8662 3.24395 65.3762 3.2689 64.912 3.21901C64.422 3.16912 64.3188 3.36867 64.3188 3.79271C64.3446 6.66119 64.3188 9.50472 64.3188 12.3732C64.293 12.3981 64.2672 12.3981 64.2156 12.4231C64.1383 12.2984 64.0351 12.1737 63.9577 12.0489C62.3072 9.57955 60.5793 7.13511 59.032 4.61584C58.3614 3.51833 57.6393 3.06935 56.3241 3.19407C54.983 3.31878 54.3641 3.81765 54.3641 5.13965C54.3641 8.60677 54.3641 12.0739 54.3641 15.541C54.3641 16.0648 54.1835 16.7882 54.4414 17.1124C54.7509 17.4616 55.5246 17.1623 56.092 17.2371C56.5304 17.287 56.6593 17.1374 56.6593 16.7133C56.6335 13.6952 56.6593 10.6771 56.6593 7.65892C56.6593 7.48432 56.6593 7.33466 56.6593 7.01039C56.8656 7.28477 56.9688 7.43443 57.072 7.60903C59.0835 10.6521 61.1209 13.6952 63.1325 16.7383C63.3388 17.0625 63.5451 17.287 64.0093 17.2621C64.7314 17.2122 65.4535 17.2122 66.1498 17.2621C66.6141 17.287 66.7688 17.1873 66.743 16.7133C66.7946 14.1192 66.8204 11.575 66.8204 9.00586Z" fill="#838A92"/>
<path d="M26.1239 17.1614C28.6255 17.1364 31.1529 17.1614 33.6545 17.1364C34.5829 17.1364 35.4597 16.912 36.285 16.4879C37.6002 15.8144 38.5545 14.8417 38.6318 13.3451C38.735 11.5242 38.6318 9.70334 38.7092 7.88247C38.8124 5.26343 36.646 3.46751 34.5055 3.29291C32.1329 3.09336 29.7345 3.21808 27.3618 3.24302C26.3818 3.24302 25.7113 4.0412 25.7113 5.01399C25.7113 6.90969 25.7113 8.83032 25.7113 10.726C25.7113 12.7215 25.7113 14.7169 25.7113 16.7124C25.6855 17.0367 25.7371 17.1614 26.1239 17.1614ZM29.3734 5.03894C30.405 5.06388 31.4108 5.03894 32.4424 5.06388C34.2218 5.08882 35.5371 6.23622 35.6145 7.9573C35.6918 9.50379 35.666 11.0503 35.6145 12.5718C35.5371 14.1931 34.3766 15.2408 32.6745 15.2906C31.5655 15.3156 30.4566 15.2906 29.3476 15.3156C28.9866 15.3156 28.935 15.1909 28.935 14.8915C28.935 13.3201 28.935 11.7487 28.935 10.1523C28.935 8.60583 28.935 7.05935 28.935 5.5378C28.9092 5.1886 28.9866 5.03894 29.3734 5.03894Z" fill="#838A92"/>
<path d="M48.4578 17.2107C51.1915 17.2855 52.7647 15.29 53.1257 13.4941C53.3578 12.3467 53.1773 11.1744 53.2289 10.2265C53.2289 9.2288 53.2289 8.43061 53.2289 7.63243C53.2289 5.36259 51.6041 3.46689 49.2831 3.11769C47.5294 2.86826 45.7241 2.8932 43.9705 3.0678C41.4173 3.34218 39.8699 5.1381 39.8699 7.60748C39.8699 9.32857 39.8441 11.0497 39.8957 12.7458C39.9473 15.1903 41.6494 16.9612 44.151 17.1608C45.5694 17.2605 47.0136 17.1857 48.4578 17.2107ZM43.1194 12.8705C43.0936 11.0247 43.0936 9.15397 43.1194 7.30816C43.1452 5.98617 44.4089 4.66417 45.8531 4.78889C46.3173 4.83878 46.7815 4.78889 47.2457 4.78889C48.7415 4.78889 49.9794 5.93628 50.031 7.38299C50.0568 8.3059 50.031 9.2288 50.031 10.1517C50.031 10.9998 50.031 11.8478 50.031 12.6959C50.0052 14.3172 48.8189 15.4646 47.1426 15.4646C46.7299 15.4646 46.3173 15.4397 45.9047 15.4646C44.4089 15.6392 43.1452 14.1676 43.1194 12.8705Z" fill="#838A92"/>
<path d="M78.2705 8.08156C78.941 8.05661 79.6373 8.08156 80.3079 8.08156C80.4884 8.08156 80.6689 8.1065 80.6689 7.83212C80.7979 5.56228 79.56 3.46705 77.11 3.11784C75.6142 2.89335 74.0926 3.04301 72.5968 3.04301C70.25 3.04301 68.161 4.81398 67.9805 7.08383C67.8258 9.12918 67.8 11.1995 68.0063 13.2698C68.2126 15.5147 69.8889 17.0861 72.1842 17.2108C73.7831 17.3106 75.4079 17.2607 77.0326 17.2108C78.2189 17.1859 79.3279 16.8117 80.2821 16.1133C80.4884 15.9636 80.6947 15.814 80.6947 15.4897C80.6689 13.619 80.6947 11.7482 80.6947 9.87748C80.6947 9.65299 80.6431 9.52827 80.3852 9.52827C78.6574 9.52827 76.9037 9.52827 75.1758 9.52827C74.9437 9.52827 74.8663 9.6031 74.8663 9.82759C74.8921 10.3015 74.8921 10.8004 74.8663 11.2743C74.8405 11.6485 75.021 11.6983 75.3305 11.6983C76.001 11.6734 76.6974 11.7233 77.3679 11.6734C77.7547 11.6485 77.8579 11.7981 77.8321 12.1473C77.8063 12.7958 77.7805 13.4194 77.8321 14.068C77.8579 14.5169 77.6516 14.7913 77.2905 14.9659C77.0584 15.0906 76.8005 15.1904 76.5426 15.2652C75.6916 15.5646 74.8147 15.4648 73.9379 15.4648C72.3131 15.4648 71.1268 14.3673 71.101 12.7709C71.0753 11.8979 71.101 10.9999 71.101 10.1269C71.101 9.22895 71.101 8.33099 71.101 7.43303C71.101 6.6099 71.4621 5.91149 72.081 5.36274C72.9837 4.56455 75.64 4.51466 76.6458 5.26296C77.4453 5.8616 77.8579 6.6099 77.8063 7.58269C77.7805 7.9319 77.8837 8.08156 78.2705 8.08156Z" fill="#838A92"/>
<path d="M31.1793 26.366C31.4887 26.2912 31.6435 26.2413 31.7724 26.1914C32.6751 25.8672 33.3456 25.3184 33.6551 24.3955C34.274 22.4749 32.933 20.654 30.7666 20.5792C28.6261 20.5044 26.5114 20.5542 24.3708 20.5293C24.0614 20.5293 23.984 20.6041 23.984 20.9034C23.984 21.2028 24.0872 21.3025 24.3966 21.2776C24.5772 21.2527 24.7577 21.2776 24.9382 21.3025C25.7377 21.3524 25.8408 21.4522 25.8408 22.2005C25.8408 24.9193 25.8408 27.6381 25.8408 30.3569C25.8408 31.8286 25.8408 31.8286 24.3193 31.9533C23.984 31.9783 24.0098 32.1529 24.0098 32.3524C24.0098 32.5769 24.0614 32.7016 24.3193 32.7016C26.563 32.6517 28.8066 32.8014 31.0245 32.6018C32.3656 32.4771 33.5519 32.0281 34.1193 30.7062C35.0219 28.586 33.784 26.6903 31.1793 26.366ZM27.5687 23.9216H27.5945C27.5945 23.2731 27.5945 22.5996 27.5945 21.9511C27.5945 21.5769 27.8266 21.3524 28.1877 21.3275C28.9614 21.2776 29.7608 21.2527 30.5345 21.4273C31.1277 21.552 31.5145 21.9012 31.7208 22.4499C32.0303 23.2232 32.0303 24.0214 31.7724 24.7946C31.5145 25.5429 30.8956 25.8921 30.0961 25.9919C29.374 26.0916 28.6261 26.0667 27.904 26.0667C27.6203 26.0667 27.543 25.942 27.543 25.6926C27.5687 25.0939 27.5687 24.5202 27.5687 23.9216ZM32.4172 29.883C32.2108 31.2549 31.5919 31.8286 30.1735 31.9284C29.6319 31.9783 29.0903 31.9783 28.5745 31.9783C27.7751 31.9783 27.6203 31.8286 27.5945 31.0803C27.5687 30.4318 27.5945 29.7583 27.5945 29.1098C27.5945 28.4613 27.5945 27.8377 27.5945 27.1892C27.5945 26.9647 27.6461 26.8399 27.904 26.8399C28.6519 26.815 29.3998 26.7651 30.1477 26.8649C31.8756 27.0644 32.6751 28.1619 32.4172 29.883Z" fill="#838A92"/>
<path d="M63.5449 32.1025C62.8228 32.0526 62.3328 31.6286 61.9459 31.0798C61.3528 30.2567 60.7596 29.4336 60.1922 28.5855C59.5475 27.6626 59.5475 27.6377 60.3728 26.8395C61.0691 26.166 61.7396 25.4426 62.8485 25.4676C63.0807 25.4676 63.0291 25.3179 63.0291 25.1932C63.0549 24.9937 62.9775 24.9188 62.7712 24.9188C61.5333 24.9188 60.2954 24.9188 59.0575 24.9188C58.8254 24.9188 58.748 24.9937 58.748 25.2182C58.748 25.4426 58.8512 25.4925 59.0317 25.4925C59.238 25.4925 59.4701 25.4925 59.6764 25.5175C60.1149 25.5923 60.2438 25.8417 59.9343 26.1161C59.0833 26.9143 58.1807 27.6626 57.278 28.4358C57.3038 28.4109 57.3554 28.2363 57.3554 28.0866C57.3554 25.6422 57.3554 23.1977 57.3554 20.7533C57.3554 20.5538 57.4585 20.2794 57.0459 20.3043C56.2722 20.3542 55.4985 20.4041 54.7507 20.454C54.6217 20.454 54.4412 20.454 54.4412 20.6535C54.4412 20.8281 54.338 21.0526 54.5185 21.1275C54.6991 21.2023 54.9312 21.2023 55.1375 21.2023C55.6533 21.2023 55.8596 21.4268 55.8596 21.9506C55.8596 25.1683 55.8596 28.361 55.8596 31.5787C55.8596 31.9529 55.7049 32.1275 55.3438 32.1275C55.1891 32.1275 55.0601 32.1524 54.9054 32.1524C54.6733 32.1524 54.5443 32.1773 54.5443 32.4517C54.5443 32.7261 54.6475 32.776 54.9054 32.776C55.9885 32.776 57.0975 32.776 58.1807 32.776C58.387 32.776 58.5417 32.776 58.5675 32.4767C58.5933 32.1773 58.4128 32.1524 58.1807 32.1524C57.9228 32.1524 57.6391 32.2272 57.4328 31.9778C57.278 31.7783 57.278 29.7828 57.4328 29.5832C57.4585 29.5334 57.5101 29.5084 57.5359 29.4835C57.8196 29.234 58.0775 28.9846 58.387 28.7102C59.0833 29.708 59.7538 30.6807 60.3985 31.6785C60.5791 31.9529 60.5017 32.2023 60.0891 32.2023C59.9601 32.2023 59.8312 32.2272 59.7022 32.2023C59.4443 32.1773 59.367 32.3021 59.367 32.5266C59.367 32.8009 59.5217 32.8009 59.7022 32.8009C60.9143 32.8009 62.1522 32.8009 63.3643 32.8009C63.5707 32.8009 63.6996 32.776 63.6996 32.5266C63.8028 32.2771 63.8285 32.1275 63.5449 32.1025Z" fill="#838A92"/>
<path d="M53.4613 32.1022C53.3323 32.1022 53.2034 32.1022 53.0744 32.1022C52.6102 32.1521 52.4039 31.9525 52.4555 31.5036C52.4813 31.0795 52.4813 30.6804 52.4555 30.2564C52.4297 29.1339 52.5328 28.0115 52.3781 26.889C52.1202 25.143 50.4181 24.1702 48.8707 24.8437C48.2518 25.1181 47.8392 25.6169 47.4007 26.2904C47.4007 25.9163 47.375 25.6918 47.4007 25.4673C47.4523 25.0432 47.3234 24.8686 46.8592 24.9435C46.2402 25.0183 45.5955 25.0432 44.9765 25.0682C44.7186 25.0682 44.5639 25.0931 44.5381 25.4174C44.5381 25.7666 44.6928 25.7915 44.9765 25.8165C45.7502 25.8414 45.8792 25.9412 45.8792 26.7144C45.8792 28.1362 45.8792 29.558 45.8792 30.9797C45.8792 31.9775 45.8792 32.0024 44.8476 32.1271C44.5639 32.1521 44.5381 32.2768 44.5381 32.4763C44.5381 32.7008 44.6413 32.7757 44.8734 32.7757C46.0339 32.7757 47.1944 32.7757 48.3807 32.7757C48.6128 32.7757 48.6902 32.7008 48.6902 32.4763C48.7418 32.0773 48.4323 32.1521 48.2002 32.1271C47.865 32.0773 47.375 32.2269 47.375 31.6283C47.375 30.3312 47.375 29.0342 47.4265 27.7371C47.4523 27.0636 47.7618 26.5149 48.3034 26.0659C48.7934 25.6668 49.3607 25.567 49.9797 25.7915C50.5728 25.9911 50.8307 26.4151 50.8823 27.0138C51.0371 28.3856 50.9339 29.7575 50.9597 31.1045C50.9855 32.0773 50.9597 32.0773 49.9797 32.1521C49.7476 32.177 49.6186 32.177 49.6444 32.4514C49.6444 32.7258 49.7992 32.7507 50.0055 32.7507C51.1402 32.7507 52.3007 32.7507 53.4355 32.7507C53.7192 32.7507 53.745 32.626 53.745 32.4015C53.7707 32.177 53.6934 32.0773 53.4613 32.1022Z" fill="#838A92"/>
<path d="M43.4804 31.8289C42.8098 32.0534 42.3972 31.7791 42.3972 31.0806C42.3972 30.3074 42.423 29.5342 42.423 28.736C42.423 27.9378 42.5004 27.1396 42.3714 26.3414C42.2941 25.8425 42.0362 25.4435 41.5977 25.1441C40.3341 24.2961 37.9098 24.4956 36.8267 25.5183C36.3625 25.9423 36.1819 26.4661 36.3625 27.0897C36.4914 27.6135 36.9814 27.8879 37.523 27.7133C38.013 27.5636 38.2193 27.0897 38.013 26.5659C37.9614 26.4412 37.8841 26.3165 37.8325 26.1917C37.6519 25.9174 37.7809 25.7178 38.0388 25.5931C38.8125 25.2688 39.6119 25.2688 40.3856 25.5931C41.0562 25.8924 40.9788 26.541 41.0304 27.1147C41.0819 27.6634 40.9272 27.9128 40.3083 27.9627C39.8441 27.9877 39.4056 28.1373 38.9414 28.262C38.0388 28.5115 37.1619 28.8357 36.4914 29.5092C35.8467 30.1577 35.6919 30.931 36.0014 31.7541C36.3109 32.5523 36.9814 32.8766 37.8067 32.9514C39.1219 33.0512 40.1793 32.6022 41.0562 31.6543C41.1335 31.8289 41.1851 31.9786 41.2625 32.1033C41.4946 32.5523 41.8298 32.8516 42.3714 32.8516C42.9646 32.8766 43.4546 32.6521 43.7898 32.1781C43.8672 32.0534 43.9446 31.9287 43.8672 31.804C43.7383 31.6793 43.6093 31.7791 43.4804 31.8289ZM40.953 29.5591C41.0046 30.6067 40.6693 31.5296 39.483 31.9786C38.7351 32.2779 38.0388 32.1033 37.6519 31.5795C37.2651 31.0557 37.3425 30.1827 37.8325 29.6589C38.1419 29.3346 38.5288 29.1101 38.9672 29.0103C39.4572 28.8856 39.973 28.7859 40.4888 28.6362C40.8498 28.5364 41.0304 28.5863 40.9788 28.9854C40.953 29.1351 40.953 29.3097 40.953 29.5591Z" fill="#838A92"/>
<path d="M20.6318 13.1466C20.0387 10.8519 18.9813 8.75662 17.4081 6.93576C16.2218 5.53893 14.8808 4.31671 13.1787 3.56841C12.1213 3.09449 11.0123 3.06955 9.92918 3.4437C7.73708 4.24188 5.88024 5.51399 4.2555 7.13531C3.09497 8.33258 2.16655 9.67952 1.39287 11.1512C0.180763 13.4709 -0.206079 15.9154 0.103395 18.4845C0.180763 19.133 0.490237 19.6568 1.00603 20.0809C2.2955 21.1036 3.68813 21.9766 5.2355 22.5752C6.31866 22.9993 7.40182 23.3485 8.56234 23.4732C9.00076 23.5231 9.46497 23.5231 9.90339 23.5979C10.9092 23.5979 11.915 23.5979 12.9208 23.5979C12.9466 23.5729 12.9981 23.5729 13.0497 23.5729C14.0297 23.548 15.0097 23.4482 15.9381 23.1739C17.2018 22.7997 18.3881 22.3258 19.4455 21.5276C20.2708 20.904 20.8381 20.1557 20.8897 19.0832C20.9155 18.6342 20.9413 18.1852 20.9671 17.7362C21.0444 16.1648 21.0444 14.6432 20.6318 13.1466ZM7.32445 7.68406C7.63392 7.08542 8.02076 6.51172 8.38181 5.93803C8.71708 5.41422 9.23287 5.4641 9.69708 5.48905C11.8376 5.61376 13.5397 6.56161 14.8292 8.18292C14.8292 8.20787 14.8292 8.23281 14.855 8.2827C12.3792 6.88587 9.87761 6.73621 7.27287 7.88361C7.22129 7.83372 7.29866 7.75889 7.32445 7.68406ZM4.28129 20.455C4.12655 20.455 4.02339 20.3553 3.94603 20.2555C3.32708 19.6319 3.04339 18.8337 2.86287 18.0106C2.57918 16.7385 2.68234 15.4414 3.19813 14.2192C3.22392 14.1444 3.2755 14.0446 3.30129 13.9698C3.32708 13.9448 3.32708 13.9199 3.37866 13.8451C3.30129 16.6637 4.48761 18.8088 6.80866 20.455C5.9576 20.5798 5.10655 20.48 4.28129 20.455ZM10.1613 19.7317C9.95497 19.8065 9.80024 19.7566 9.6455 19.6568C8.20129 18.8088 7.27287 17.5866 6.7055 16.065C6.11234 14.4936 5.9576 12.8972 6.18971 11.251C6.24129 10.8768 6.42182 10.7022 6.7055 10.5525C7.6855 10.0786 8.71708 9.85413 9.80024 9.85413C12.1471 9.87907 14.1587 10.7271 15.9897 12.124C16.1444 12.2487 16.1444 12.3983 16.1444 12.548C16.1187 14.0945 15.5255 15.4165 14.5713 16.6138C13.4108 18.0605 11.8892 19.0582 10.1613 19.7317ZM19.4713 17.1875C19.136 18.0355 18.5429 18.6841 17.8208 19.2328C16.7376 20.0559 15.5255 20.5798 14.0297 20.7294C16.5829 19.3326 18.0013 17.3122 18.2592 14.4936C18.8008 15.2169 19.2134 15.9652 19.5744 16.7385C19.626 16.9131 19.5229 17.0627 19.4713 17.1875Z" fill="#B8B8B8"/>
</g>
<defs>
<clipPath id="clip0">
<rect width="98" height="33" fill="white"/>
</clipPath>
</defs>
</svg>
