<svg width="110" height="16" viewBox="0 0 110 16" fill="none" xmlns="http://www.w3.org/2000/svg">
<path d="M12.8644 1.0486C11.8749 0.314579 10.5005 0 8.7962 0C8.41136 0 8.0815 0 7.80662 0.0524299C7.47677 0.10486 7.20188 0.10486 6.87203 0.15729C6.32227 0.262149 5.7725 0.419439 5.22274 0.629158C4.12322 0.996167 3.29857 1.5729 2.63886 2.20205C2.03412 2.88364 1.64929 3.67009 1.48436 4.5614L1.42938 5.03327L1.37441 5.66242C1.37441 6.81588 1.81422 7.65476 2.63886 8.23149C3.51848 8.80822 4.72795 9.28008 6.26729 9.64709C7.20188 9.90924 7.91658 10.1714 8.41136 10.3287C8.74122 10.5384 8.90615 10.8006 8.90615 11.0627V11.3248C8.74122 12.0064 8.02653 12.3734 6.81705 12.3734C6.26729 12.3734 5.82748 12.2162 5.44265 12.0064C5.00284 11.7443 4.78293 11.3248 4.78293 10.8006H0.0549762C0 10.853 0 11.0103 0 11.3248C0 12.5832 0.494786 13.5793 1.42938 14.3658C2.52891 15.3095 3.95829 15.7814 5.82748 15.7814C7.75165 15.7814 9.45591 15.3619 10.9403 14.5755C12.4246 13.7891 13.3592 12.4783 13.6891 10.6957L13.7441 9.80438C13.7441 8.86065 13.3592 8.0742 12.5896 7.44504C11.8199 6.86831 10.7753 6.39644 9.40093 6.08186L7.80662 5.66242C7.20188 5.50514 6.76207 5.29542 6.54217 5.13813C6.32227 4.92841 6.21231 4.71869 6.21231 4.45654V4.29925C6.32227 3.77495 6.87203 3.5128 7.80662 3.5128C9.0161 3.5128 9.62084 3.87981 9.62084 4.71869H14.2938V4.50897C14.3488 2.93607 13.854 1.78262 12.8644 1.0486Z" fill="#1456A4"/>
<path d="M45.7952 8.23145C44.9156 7.70715 43.9261 7.445 42.7716 7.445C42.4967 7.445 42.2218 7.445 42.0019 7.49743C40.9024 7.60229 39.9128 7.91687 39.0881 8.4936C37.9886 9.17518 37.3289 10.2762 37.054 11.6918L36.9991 12.0588L36.9441 12.5307C36.9441 13.5793 37.3839 14.4182 38.1536 14.9425C38.9782 15.4668 40.0227 15.7813 41.2322 15.7813C41.5071 15.7813 41.782 15.7813 42.0019 15.7289C42.1668 15.7289 42.2768 15.6765 42.3867 15.6765C42.7166 15.6241 42.9915 15.5716 43.2114 15.5192C43.4313 15.4668 43.5962 15.4143 43.8161 15.3095C44.2559 15.0998 44.6407 14.9425 44.9706 14.7327C45.3005 14.523 45.6303 14.2085 45.9052 13.8939C46.5099 13.2123 46.8948 12.4258 47.0597 11.4297L47.1147 10.6432C47.1147 9.54219 46.6749 8.70331 45.7952 8.23145ZM43.1014 12.7928C42.8265 13.2647 42.4967 13.5269 42.0019 13.5793C41.8919 13.6317 41.727 13.6317 41.6171 13.6317C40.8474 13.6317 40.4626 13.2123 40.4626 12.321C40.5725 11.5345 40.7924 10.8529 41.0123 10.3286C41.2322 9.9092 41.5621 9.69948 42.0019 9.54219C42.1668 9.48976 42.3317 9.48976 42.4967 9.48976C43.2114 9.48976 43.5962 9.96163 43.5962 10.9054C43.5962 11.6394 43.3763 12.2685 43.1014 12.7928Z" fill="#1456A4"/>
<path d="M23.8049 7.91687C23.2551 7.60229 22.3205 7.445 20.9461 7.445H20.6712C20.1764 7.445 19.7366 7.445 19.2968 7.49743C16.9878 7.70715 15.7233 8.59846 15.4485 10.0665H18.802C18.912 9.80434 19.0769 9.59462 19.2968 9.48976C19.5167 9.3849 19.7916 9.28004 20.1764 9.28004C20.8361 9.28004 21.166 9.48976 21.166 9.85677C21.166 10.1189 21.0011 10.2762 20.6162 10.4335C20.4513 10.4859 20.0115 10.5908 19.2968 10.6956C19.1868 10.6956 19.0769 10.7481 18.912 10.7481L17.5925 10.9054L16.7129 11.0627C16.1082 11.2199 15.6134 11.4297 15.1736 11.7442C14.6788 12.1113 14.3489 12.6356 14.184 13.3171C14.184 13.3696 14.184 13.422 14.129 13.5269V13.8414C14.129 14.4182 14.3489 14.8376 14.7887 15.0998C15.3935 15.4668 16.0532 15.6765 16.7679 15.6765H16.9328C17.7575 15.6765 18.5271 15.5192 19.2418 15.2046C19.6267 15.0473 20.0115 14.8376 20.3963 14.5755V15.4143H23.9698L24.0248 15.257C23.8049 15.0473 23.6949 14.89 23.6399 14.6803L23.7499 14.156L24.5195 10.3286C24.5745 9.96163 24.6295 9.64705 24.6295 9.33247C24.6295 8.75574 24.3546 8.28388 23.8049 7.91687ZM20.1214 13.422C19.9565 13.5793 19.7916 13.7366 19.5167 13.8414C19.4068 13.8939 19.3518 13.8939 19.2418 13.9463C19.0769 13.9987 18.912 13.9987 18.747 13.9987C18.1423 13.9987 17.8124 13.789 17.8124 13.422V13.3696C17.8674 13.055 18.0323 12.8453 18.2523 12.7404L18.802 12.5307C18.912 12.4783 19.0769 12.4258 19.2968 12.4258C19.3518 12.4258 19.4617 12.4258 19.5167 12.4258C20.0665 12.321 20.4513 12.2161 20.7262 12.1113C20.6162 12.6356 20.4513 13.055 20.1214 13.422Z" fill="#1456A4"/>
<path d="M34.8552 8.28388C34.0856 7.70715 33.041 7.445 31.6666 7.445C29.9623 7.445 28.6429 7.86444 27.5984 8.70332C26.6088 9.54219 26.0041 10.5384 25.7842 11.7442L25.7292 12.1113L25.6742 12.5307C25.6742 13.4744 26.059 14.2085 26.7737 14.8376C27.5434 15.4668 28.5879 15.7289 30.0173 15.7289C31.3917 15.7289 32.5462 15.4668 33.5358 14.89C34.5254 14.3657 35.1851 13.5269 35.5149 12.4783H32.0514C31.7216 13.2647 31.2268 13.6317 30.5121 13.6317C29.6875 13.6317 29.2477 13.2123 29.2477 12.321C29.3576 11.4821 29.5775 10.8005 29.7974 10.2762C30.0723 9.75191 30.6221 9.43733 31.2818 9.43733C31.6116 9.43733 31.8865 9.54219 32.0514 9.75191C32.2164 9.9092 32.3263 10.1714 32.3263 10.3811V10.5908H35.8448V10.1714C35.7898 9.43733 35.5149 8.75574 34.8552 8.28388Z" fill="#1456A4"/>
<path d="M96.4282 7.9693C95.9334 7.60229 95.2187 7.445 94.3391 7.445C93.1296 7.445 92.0301 7.91687 91.0955 8.91303L91.3704 7.65472H88.1818L86.6424 15.5716H90.1609L90.9306 11.5345C91.0955 10.9054 91.2604 10.4859 91.5353 10.2238C91.7552 10.0141 92.14 9.9092 92.5798 9.9092C93.2396 9.9092 93.5694 10.2238 93.5694 10.8529V11.1151V11.3772L92.7448 15.5716H96.2083L97.1429 10.8005C97.1979 10.4859 97.2528 10.1714 97.2528 9.85677C97.1429 8.96546 96.923 8.33631 96.4282 7.9693Z" fill="#1456A4"/>
<path d="M109.348 7.34016H105.28L102.586 9.75193L103.96 2.62147H100.497L97.9677 15.5192H101.431L101.981 13.055L102.696 12.4259L104.015 15.5192H108.193L105.499 10.3811L109.348 7.34016Z" fill="#1456A4"/>
<path d="M63.058 7.9693C62.6182 7.60229 61.9035 7.445 61.0239 7.445C59.7594 7.445 58.6599 7.91687 57.6703 8.91303C57.3405 7.9693 56.5158 7.445 55.1414 7.445H55.0864C54.5917 7.445 54.0419 7.54986 53.4921 7.86444C52.9424 8.12659 52.4476 8.44117 52.1177 8.8606L52.3376 7.65472H49.149L47.6097 15.5716H51.0732L51.8428 11.5345C52.0078 10.9578 52.1727 10.5384 52.4476 10.3286C52.7225 10.0665 53.0523 9.96163 53.4372 9.96163C54.0419 9.96163 54.3168 10.2238 54.3168 10.8005L54.2618 11.4821L53.4372 15.5716H56.9007L57.6703 11.5345C57.7803 10.8529 58.0002 10.3811 58.2751 10.1714C58.5499 10.0141 58.8248 9.9092 59.1547 9.9092C59.4845 9.9092 59.7594 9.96163 59.9244 10.1189C60.0343 10.2238 60.1443 10.4335 60.1443 10.7481C60.1443 10.9578 60.0893 11.2199 60.0343 11.5345L59.2646 15.5716H62.7281L63.6627 10.8529C63.7177 10.4335 63.7727 10.0665 63.7727 9.75191C63.7727 8.8606 63.5528 8.28388 63.058 7.9693Z" fill="#1456A4"/>
<path d="M85.0481 7.91687C84.4983 7.60229 83.5637 7.445 82.1893 7.445H81.9144C81.4196 7.445 80.9798 7.445 80.54 7.49743C78.231 7.70715 76.9666 8.59846 76.6917 10.0665H80.0452C80.1552 9.80434 80.3201 9.59462 80.54 9.48976C80.7599 9.3849 81.0348 9.28004 81.4196 9.28004C82.0794 9.28004 82.4092 9.48976 82.4092 9.85677C82.4092 10.1189 82.1893 10.2762 81.8595 10.4335C81.6945 10.4859 81.2547 10.5908 80.54 10.6956C80.4301 10.6956 80.2652 10.7481 80.1552 10.7481L78.8907 10.9054L78.0111 11.0627C77.4064 11.2199 76.9116 11.4297 76.5268 11.7442C76.032 12.1113 75.7021 12.6356 75.5372 13.3171C75.5372 13.3696 75.4822 13.422 75.4822 13.5269V13.8414C75.4822 14.4182 75.7021 14.8376 76.1419 15.0998C76.7467 15.4668 77.4064 15.6765 78.1211 15.6765H78.286C79.1106 15.6765 79.8803 15.5192 80.595 15.2046C80.9798 15.0473 81.3647 14.8376 81.6945 14.5755V15.4143H85.268L85.323 15.257C85.1031 15.0473 84.9931 14.89 84.9381 14.6803L85.0481 14.156L85.8177 10.3286C85.8727 9.96163 85.9277 9.64705 85.9277 9.33247C85.8727 8.75574 85.5978 8.28388 85.0481 7.91687ZM81.4196 13.422C81.2547 13.5793 81.0898 13.7366 80.8149 13.8414C80.7599 13.8939 80.65 13.8939 80.54 13.9463C80.3751 13.9987 80.2102 13.9987 80.0452 13.9987C79.4405 13.9987 79.1106 13.789 79.1106 13.422V13.3696C79.1656 13.055 79.3305 12.8453 79.5505 12.7404L80.0452 12.5307C80.1552 12.4783 80.3201 12.4258 80.54 12.4258C80.595 12.4258 80.7049 12.4258 80.7599 12.4258C81.3097 12.321 81.6945 12.2161 81.9694 12.1113C81.9144 12.6356 81.6945 13.055 81.4196 13.422Z" fill="#1456A4"/>
<path d="M71.9087 7.44502C71.359 7.44502 70.8642 7.49745 70.4244 7.65474C70.2594 7.7596 70.0945 7.81203 69.8746 7.91689C69.5997 8.07418 69.3248 8.23147 69.1049 8.44119L70.2045 2.56904H66.686L64.322 15.5192H67.4556L67.7305 14.4182C68.0604 15.2571 68.8301 15.7289 69.9846 15.7814H70.1495C71.5789 15.7814 72.7883 15.2571 73.668 14.2085C74.5476 13.1599 75.0424 11.954 75.0424 10.5908C75.0424 9.59465 74.7675 8.8082 74.1627 8.2839C73.503 7.70717 72.7883 7.44502 71.9087 7.44502ZM70.9191 12.7404C70.6443 13.1074 70.3144 13.3696 69.9296 13.4745C69.8196 13.4745 69.7097 13.5269 69.5997 13.5269C68.83 13.5269 68.4452 13.055 68.4452 12.1637C68.6101 11.4297 68.7751 10.9054 69.05 10.4335C69.2699 10.1189 69.5447 9.90922 69.9846 9.85679C70.0945 9.85679 70.2594 9.80436 70.3694 9.80436C71.1391 9.80436 71.5239 10.2238 71.5239 11.1151C71.4689 11.7443 71.304 12.2686 70.9191 12.7404Z" fill="#1456A4"/>
</svg>
