<svg width="102" height="38" viewBox="0 0 102 38" fill="none" xmlns="http://www.w3.org/2000/svg">
<path fill-rule="evenodd" clip-rule="evenodd" d="M51.0465 4.6832L46.2696 0L36.8096 9.46006L46.2696 19.0138L51.0465 14.2369L46.2696 9.46006L51.0465 4.6832Z" fill="#A8A9AB"/>
<path fill-rule="evenodd" clip-rule="evenodd" d="M55.73 0L51.0468 4.6832L55.8237 9.46006L51.0468 14.2369L55.73 19.0138L65.1901 9.46006L55.73 0Z" fill="#A8A9AB"/>
<path fill-rule="evenodd" clip-rule="evenodd" d="M0 30.4765H2.06061V37.5013H4.58953V30.4765H6.65014V28.3223H0V30.4765Z" fill="#A8A9AB"/>
<path fill-rule="evenodd" clip-rule="evenodd" d="M8.24279 28.3223H7.86813V37.5013H8.24279H10.3034H13.488V35.4407H10.3034V33.9421H13.3006V31.9752H10.3034V30.3829H13.488V28.3223H8.24279Z" fill="#A8A9AB"/>
<path fill-rule="evenodd" clip-rule="evenodd" d="M17.2343 32.9114C17.328 30.2889 20.2316 29.2586 21.8239 31.4128V28.6966C19.5759 27.6663 17.4217 27.9473 15.8294 29.8205C14.4244 31.8811 14.6118 34.1291 15.6421 35.815C17.328 37.8756 19.4823 38.2503 21.8239 37.22V34.5974C20.6062 36.096 17.4217 36.1897 17.2343 32.9114Z" fill="#A8A9AB"/>
<path fill-rule="evenodd" clip-rule="evenodd" d="M29.0356 31.8815H25.7574V28.3223H23.2285V37.5013H25.7574V33.7548H29.0356V37.5013H31.5646V28.3223H29.0356V31.8815Z" fill="#A8A9AB"/>
<path fill-rule="evenodd" clip-rule="evenodd" d="M35.5921 32.9114C35.6858 30.2889 38.5893 29.2586 40.1816 31.4128V28.6966C37.9337 27.6663 35.7794 27.9473 34.1871 29.8205C32.7822 31.8811 32.9695 34.1291 33.9998 35.815C35.6858 37.8756 37.84 38.2503 40.1816 37.22V34.5974C39.0577 36.096 35.7794 36.1897 35.5921 32.9114Z" fill="#A8A9AB"/>
<path fill-rule="evenodd" clip-rule="evenodd" d="M46.1759 28.1348C43.4597 28.1348 41.3054 30.289 41.3054 32.9116C41.3054 35.5342 43.4597 37.6885 46.1759 37.6885C48.8922 37.6885 51.0465 35.5342 51.0465 32.9116C51.0465 30.289 48.8922 28.1348 46.1759 28.1348ZM46.1759 35.7215C44.8646 35.7215 43.7407 34.5039 43.7407 33.0053C43.7407 31.5067 44.8646 30.289 46.1759 30.289C47.4872 30.289 48.6112 31.5067 48.6112 33.0053C48.6112 34.5039 47.4872 35.7215 46.1759 35.7215Z" fill="#A8A9AB"/>
<path fill-rule="evenodd" clip-rule="evenodd" d="M69.5921 32.6309C70.5287 32.4436 71.278 31.8816 71.278 30.6639C71.278 29.4463 70.3414 28.5097 68.3745 28.416C67.7188 28.416 67.1568 28.416 66.1265 28.416H64.4406V37.5951H66.0329H66.2202C67.1568 37.5951 67.9061 37.5951 68.8428 37.5951C70.5287 37.5951 71.7464 36.1901 71.559 34.9725C71.6527 33.2865 70.8097 32.7246 69.5921 32.6309ZM67.9061 30.1956C68.7491 30.1956 69.0301 30.5703 69.0301 31.1323C69.0301 31.7879 68.5618 31.9752 67.9998 31.9752C67.7188 31.9752 67.3442 31.9752 66.8758 31.9752C66.8758 31.4133 66.8758 30.7576 66.8758 30.102C67.2505 30.1956 67.6252 30.1956 67.9061 30.1956ZM67.9061 35.7218C67.6252 35.7218 67.2505 35.7218 66.7822 35.7218C66.7822 35.1598 66.7822 34.3168 66.7822 33.6612C67.1568 33.6612 67.5315 33.6612 67.8125 33.6612C68.6555 33.5675 69.3111 34.0359 69.3111 34.6915C69.4048 35.4408 68.5618 35.7218 67.9061 35.7218Z" fill="#737476"/>
<path fill-rule="evenodd" clip-rule="evenodd" d="M76.8981 28.3223H75.3058L72.1212 37.5013H74.6501L75.1185 35.8154H78.6777L79.146 37.5013H81.5813L78.3967 28.3223H76.8981ZM75.6804 34.1294L76.8981 29.8209L78.1157 34.1294H75.6804Z" fill="#737476"/>
<path fill-rule="evenodd" clip-rule="evenodd" d="M89.2614 34.5977C88.4184 32.7245 86.4514 30.3829 84.9528 28.3223C84.8591 28.3223 84.7655 28.3223 84.6718 28.3223H82.5175V37.5013H84.9528C84.9528 35.4407 85.0465 33.2865 84.8591 31.2258C85.7958 33.4738 87.6691 35.4407 89.1677 37.5013H89.2614H91.603V28.3223H89.1677C89.1677 30.3829 88.9804 32.5371 89.2614 34.5977Z" fill="#737476"/>
<path fill-rule="evenodd" clip-rule="evenodd" d="M101.812 28.3223H98.9089L96.0053 32.4435L95.9117 32.5371V28.3223H93.4764V37.5013H95.9117V33.3801C96.8483 34.7851 97.9723 36.0964 98.9089 37.5013C99.8456 37.5013 100.97 37.5013 102 37.5013C100.876 36.0027 99.4709 34.4104 98.3469 32.8181L101.812 28.3223Z" fill="#737476"/>
<path fill-rule="evenodd" clip-rule="evenodd" d="M59.3826 28.3223L57.603 34.4104L55.917 28.3223H53.4817L52.0768 37.5013H54.3247L55.1677 31.5068L56.76 37.5013H57.603H58.5396L60.1319 31.5068L60.8812 37.5013H63.2228L61.8178 28.3223H59.3826Z" fill="#A8A9AB"/>
</svg>
