<svg width="103" height="38" viewBox="0 0 103 38" fill="none" xmlns="http://www.w3.org/2000/svg">
<path fill-rule="evenodd" clip-rule="evenodd" d="M51.8369 4.6832L47.0467 0L37.5602 9.46005L47.0467 19.0138L51.8369 14.2369L47.0467 9.46005L51.8369 4.6832Z" fill="#EC1C24"/>
<path fill-rule="evenodd" clip-rule="evenodd" d="M56.5336 0L51.8373 4.6832L56.6275 9.46005L51.8373 14.2369L56.5336 19.0138L66.0202 9.46005L56.5336 0Z" fill="#EC1C24"/>
<path fill-rule="evenodd" clip-rule="evenodd" d="M0.647461 30.4765H2.71383V37.5013H5.24984V30.4765H7.31621V28.3223H0.647461V30.4765Z" fill="#EC1C24"/>
<path fill-rule="evenodd" clip-rule="evenodd" d="M8.9133 28.3223H8.5376V37.5013H8.9133H10.9797H14.1732V35.4407H10.9797V33.9421H13.9853V31.9752H10.9797V30.3829H14.1732V28.3223H8.9133Z" fill="#EC1C24"/>
<path fill-rule="evenodd" clip-rule="evenodd" d="M17.9301 32.9114C18.024 30.2889 20.9357 29.2586 22.5324 31.4128V28.6966C20.2782 27.6663 18.1179 27.9473 16.5212 29.8205C15.1123 31.8811 15.3001 34.1291 16.3333 35.815C18.024 37.8756 20.1843 38.2503 22.5324 37.22V34.5974C21.3114 36.096 18.1179 36.1897 17.9301 32.9114Z" fill="#EC1C24"/>
<path fill-rule="evenodd" clip-rule="evenodd" d="M29.7645 31.8815H26.477V28.3223H23.941V37.5013H26.477V33.7548H29.7645V37.5013H32.3005V28.3223H29.7645V31.8815Z" fill="#EC1C24"/>
<path fill-rule="evenodd" clip-rule="evenodd" d="M36.3393 32.9114C36.4332 30.2889 39.3449 29.2586 40.9417 31.4128V28.6966C38.6874 27.6663 36.5271 27.9473 34.9304 29.8205C33.5215 31.8811 33.7093 34.1291 34.7425 35.815C36.4332 37.8756 38.5935 38.2503 40.9417 37.22V34.5974C39.8145 36.096 36.5271 36.1897 36.3393 32.9114Z" fill="#EC1C24"/>
<path fill-rule="evenodd" clip-rule="evenodd" d="M46.9528 28.1348C44.2289 28.1348 42.0686 30.289 42.0686 32.9116C42.0686 35.5342 44.2289 37.6885 46.9528 37.6885C49.6766 37.6885 51.8369 35.5342 51.8369 32.9116C51.8369 30.289 49.6766 28.1348 46.9528 28.1348ZM46.9528 35.7215C45.6378 35.7215 44.5107 34.5039 44.5107 33.0053C44.5107 31.5067 45.6378 30.289 46.9528 30.289C48.2677 30.289 49.3949 31.5067 49.3949 33.0053C49.3949 34.5039 48.2677 35.7215 46.9528 35.7215Z" fill="#EC1C24"/>
<path fill-rule="evenodd" clip-rule="evenodd" d="M70.4345 32.6309C71.3738 32.4436 72.1252 31.8816 72.1252 30.6639C72.1252 29.4463 71.1859 28.5097 69.2135 28.416C68.556 28.416 67.9924 28.416 66.9592 28.416H65.2686V37.5951H66.8653H67.0531C67.9924 37.5951 68.7438 37.5951 69.6831 37.5951C71.3738 37.5951 72.5948 36.1901 72.407 34.9725C72.5009 33.2865 71.6555 32.7246 70.4345 32.6309ZM68.7438 30.1956C69.5892 30.1956 69.8709 30.5703 69.8709 31.1323C69.8709 31.7879 69.4013 31.9752 68.8377 31.9752C68.556 31.9752 68.1803 31.9752 67.7106 31.9752C67.7106 31.4133 67.7106 30.7576 67.7106 30.102C68.0863 30.1956 68.462 30.1956 68.7438 30.1956ZM68.7438 35.7218C68.462 35.7218 68.0863 35.7218 67.6167 35.7218C67.6167 35.1598 67.6167 34.3168 67.6167 33.6612C67.9924 33.6612 68.3681 33.6612 68.6499 33.6612C69.4952 33.5675 70.1527 34.0359 70.1527 34.6915C70.2466 35.4408 69.4013 35.7218 68.7438 35.7218Z" fill="#838A92"/>
<path fill-rule="evenodd" clip-rule="evenodd" d="M77.7609 28.3223H76.1642L72.9707 37.5013H75.5067L75.9763 35.8154H79.5455L80.0152 37.5013H82.4572L79.2638 28.3223H77.7609ZM76.5399 34.1294L77.7609 29.8209L78.982 34.1294H76.5399Z" fill="#838A92"/>
<path fill-rule="evenodd" clip-rule="evenodd" d="M90.1588 34.5977C89.3135 32.7245 87.341 30.3829 85.8382 28.3223C85.7443 28.3223 85.6503 28.3223 85.5564 28.3223H83.3961V37.5013H85.8382C85.8382 35.4407 85.9321 33.2865 85.7443 31.2258C86.6835 33.4738 88.5621 35.4407 90.0649 37.5013H90.1588H92.507V28.3223H90.0649C90.0649 30.3829 89.877 32.5371 90.1588 34.5977Z" fill="#838A92"/>
<path fill-rule="evenodd" clip-rule="evenodd" d="M102.745 28.3223H99.8335L96.9217 32.4435L96.8278 32.5371V28.3223H94.3857V37.5013H96.8278V33.3801C97.7671 34.7851 98.8942 36.0964 99.8335 37.5013C100.773 37.5013 101.9 37.5013 102.933 37.5013C101.806 36.0027 100.397 34.4104 99.2699 32.8181L102.745 28.3223Z" fill="#838A92"/>
<path fill-rule="evenodd" clip-rule="evenodd" d="M60.1964 28.3223L58.4118 34.4104L56.7211 28.3223H54.279L52.8701 37.5013H55.1244L55.9697 31.5068L57.5664 37.5013H58.4118H59.351L60.9478 31.5068L61.6992 37.5013H64.0474L62.6385 28.3223H60.1964Z" fill="#EC1C24"/>
</svg>
