<svg width="96" height="33" viewBox="0 0 96 33" fill="none" xmlns="http://www.w3.org/2000/svg">
<path fill-rule="evenodd" clip-rule="evenodd" d="M72.7246 0.300781C71.2262 0.600781 70.6269 1.30078 70.7267 2.30078C70.8266 3.70078 72.3251 6.30078 73.0243 7.50078C74.323 9.50078 75.8214 11.4008 77.5196 13.1008C78.9181 14.4008 79.7173 14.7008 81.2157 12.8008C82.4144 11.2008 83.6132 9.60078 84.6121 7.60078C85.0117 6.70078 85.4113 5.80078 85.8109 4.70078C86.2104 3.40078 86.0107 2.30078 84.8119 1.50078C86.0107 2.10078 86.5101 3.10078 86.61 4.30078C86.7099 5.40078 86.3103 6.70078 86.1105 7.60078C85.5112 9.90078 84.6121 12.2008 83.6132 14.2008C82.814 15.8008 81.8151 17.6008 80.8161 19.0008C78.5185 22.1008 76.4207 21.1008 73.9234 19.0008C72.3251 17.7008 70.8266 16.0008 69.4281 14.2008C68.1295 12.4008 66.6311 9.60078 65.732 7.60078C64.5333 4.70078 65.4323 3.30078 66.9307 2.30078C68.3293 1.10078 70.7267 0.500781 72.7246 0.300781Z" fill="#838A92"/>
<path fill-rule="evenodd" clip-rule="evenodd" d="M72.6246 6.8C74.9222 6.4 81.0158 6.1 83.2135 7.2C83.9127 7.5 84.2123 8 84.1124 8.6C84.3122 8.2 84.512 7.8 84.7118 7.4C85.1114 6.5 85.511 5.6 85.9105 4.5C86.3101 3.2 85.8107 2.1 84.612 1.3C84.1125 1.1 83.613 0.9 83.1136 0.7C81.715 0.3 80.1167 0.1 78.6183 0C78.0189 0 77.3197 0 76.6204 0C75.4217 0 74.0231 0.1 72.6246 0.3C71.1262 0.6 70.5268 1.3 70.6267 2.3C70.7266 3.4 71.8255 5.5 72.6246 6.8Z" fill="#838A92"/>
<path fill-rule="evenodd" clip-rule="evenodd" d="M66.5313 31.8996C67.73 31.7996 68.8289 31.0996 69.1286 29.2996C69.3284 28.0996 69.3284 26.1996 69.0287 25.0996C68.8289 24.5996 68.6291 24.1996 68.3294 23.8996C67.73 23.3996 67.1307 23.2996 66.5313 23.2996C65.6322 23.2996 65.0329 23.3996 64.4335 23.9996C64.3336 24.0996 64.2337 24.1996 64.2337 23.9996V20.0996H62.036V31.2996C62.8352 31.9996 65.4325 32.0996 66.5313 31.8996ZM7.99293 31.6996C8.4924 31.6996 8.3925 31.6996 8.59229 31.3996C10.4903 28.7996 12.2884 23.2996 12.2884 20.1996C11.3894 20.1996 10.4903 20.2996 9.59124 20.4996C8.69219 25.4996 7.99292 26.8996 6.5944 29.3996C5.19587 26.7996 4.49661 25.4996 3.59755 20.4996C2.6985 20.2996 1.79944 20.0996 0.900391 20.1996C0.900391 23.2996 2.6985 28.7996 4.5965 31.3996C4.89618 31.7996 4.79629 31.6996 5.19587 31.6996H7.99293ZM70.7269 23.7996L70.9267 25.7996C71.8257 25.6996 72.525 25.4996 73.424 25.3996C74.8226 25.3996 75.6217 25.2996 75.6217 26.2996C74.6228 26.2996 73.5239 26.2996 72.525 26.2996C71.2264 26.2996 70.1275 26.8996 70.3273 29.4996C70.5271 32.5996 74.2232 32.3996 75.9214 31.0996V31.7996H77.9193C77.9193 28.5996 78.1191 25.2996 77.5197 24.3996C76.4209 22.6996 72.7248 23.2996 70.7269 23.7996ZM24.076 31.4996C23.9761 30.8996 23.9761 30.1996 23.8762 29.5996C22.9772 29.7996 21.4787 29.9996 20.5797 29.9996C19.5807 29.9996 19.1812 29.4996 19.1812 27.9996C19.4808 28.3996 19.9803 28.5996 20.5797 28.5996C21.9782 28.5996 23.1769 28.5996 24.5755 28.5996C24.6754 26.0996 24.8752 23.9996 22.3778 23.4996C21.3788 23.2996 20.0802 23.2996 19.0813 23.5996C18.0823 23.8996 17.4829 24.3996 17.1833 25.3996C16.5839 27.2996 16.7837 30.1996 17.9824 31.2996C19.3809 32.3996 22.2779 31.9996 24.076 31.4996ZM20.1801 25.2996H21.2789C21.7784 25.2996 22.2779 25.6996 22.2779 26.2996V26.6996H19.1812V26.2996C19.1812 25.6996 19.5807 25.2996 20.1801 25.2996ZM89.9067 31.7996L90.0066 28.1996C90.0066 27.9996 90.2064 28.2996 90.3063 28.3996C91.0055 29.5996 91.7048 30.4996 92.8037 31.5996C93.1033 31.8996 93.2032 31.8996 93.7027 31.8996H95.9004C94.2022 30.4996 93.3031 29.3996 92.4041 27.7996C92.2043 27.3996 92.2043 27.4996 92.504 27.0996C92.8036 26.6996 93.2032 26.1996 93.7027 25.6996L95.7006 23.3996H93.6028C93.2032 23.3996 93.2032 23.2996 93.0034 23.5996C92.2043 24.3996 91.3052 25.3996 90.606 26.1996C90.5061 26.2996 90.4062 26.3996 90.3063 26.3996C90.0066 26.5996 90.1065 26.5996 90.1065 26.2996V20.1996H87.9088V31.8996L89.9067 31.7996ZM38.6606 31.4996L38.4609 29.5996C37.4619 29.6996 36.3631 29.9996 35.3641 29.7996C34.2653 29.6996 34.1654 29.0996 34.1654 28.2996C34.1654 27.7996 34.1654 27.1996 34.1654 26.6996C34.1654 25.9996 34.3652 25.5996 35.3641 25.3996C36.463 25.2996 37.4619 25.5996 38.4609 25.5996L38.6606 23.6996C34.8646 22.7996 32.4672 23.2996 31.9677 26.1996C31.8678 26.7996 31.8678 28.7996 32.0676 29.3996C32.667 31.9996 35.0644 32.3996 38.6606 31.4996ZM26.6733 23.3996C26.1738 23.3996 25.7742 23.3996 25.2747 23.3996C25.2747 24.0996 25.2747 24.7996 25.2747 25.3996C25.7742 25.3996 26.1738 25.3996 26.6733 25.3996C26.6733 26.0996 26.6733 26.7996 26.6733 27.4996C26.6733 28.1996 26.6733 28.8996 26.6733 29.4996C26.6733 30.3996 26.8731 31.0996 27.3725 31.4996C27.5723 31.6996 27.872 31.6996 28.2716 31.7996C29.1706 31.8996 30.1696 31.7996 30.9687 31.5996C30.9687 30.9996 30.9687 30.3996 30.8688 29.8996C29.9698 29.8996 28.9708 30.0996 28.9708 29.6996C28.9708 28.1996 28.9708 26.8996 28.9708 25.3996C29.6701 25.3996 30.2695 25.3996 30.9687 25.3996C30.9687 24.6996 30.9687 24.0996 30.9687 23.3996C30.2695 23.3996 29.6701 23.3996 28.9708 23.3996C28.9708 22.6996 28.9708 22.0996 28.9708 21.3996C28.2716 21.3996 27.4724 21.3996 26.7732 21.3996C26.6733 21.9996 26.6733 22.6996 26.6733 23.3996ZM13.1875 31.7996H15.3851L15.485 23.2996H13.1875V31.7996ZM42.5565 23.2996H44.4545C45.953 23.2996 47.2516 24.4996 47.2516 25.9996V29.1996C47.2516 30.6996 46.0529 31.8996 44.4545 31.8996H42.5565C41.0581 31.8996 39.7595 30.6996 39.7595 29.1996V25.9996C39.8594 24.4996 41.0581 23.2996 42.5565 23.2996ZM43.056 25.2996C42.5565 25.2996 42.0571 25.6996 42.0571 26.2996V28.8996C42.0571 29.3996 42.4566 29.8996 43.056 29.8996H44.1549C44.6543 29.8996 45.1538 29.4996 45.1538 28.8996V26.2996C45.1538 25.7996 44.7542 25.2996 44.1549 25.2996H43.056ZM50.8478 31.7996C50.8478 29.5996 50.8478 27.4996 50.9477 25.2996C51.4472 25.2996 52.0466 25.2996 52.546 25.2996C52.9456 25.2996 53.4451 25.5996 53.4451 25.9996V26.2996V31.6996H55.6428L55.7427 25.1996C56.342 25.1996 56.9414 25.1996 57.5408 25.1996C58.0402 25.1996 58.4398 25.4996 58.4398 25.9996V31.6996H60.6375L60.7374 25.5996C60.7374 24.2996 60.0381 23.1996 58.5397 23.1996C58.0402 23.1996 57.6407 23.1996 57.1412 23.1996C56.4419 23.1996 56.0423 23.2996 55.6428 23.7996C55.3431 24.0996 55.443 24.0996 55.1433 23.7996C54.7437 23.2996 54.1443 23.1996 53.545 23.1996C53.2453 23.1996 52.8457 23.1996 52.546 23.1996C51.9467 23.1996 51.5471 23.3996 51.1475 23.8996C50.7479 24.2996 50.8478 24.3996 50.8478 23.7996C50.8478 23.5996 50.8478 23.3996 50.8478 23.2996C50.2484 23.2996 49.6491 23.2996 48.9498 23.2996C48.9498 26.0996 48.9498 28.8996 48.9498 31.6996H50.8478V31.7996ZM81.5155 31.7996C81.5155 29.5996 81.5155 27.4996 81.6154 25.2996C82.2148 25.2996 82.7143 25.2996 83.2138 25.2996C83.7132 25.2996 84.1128 25.5996 84.1128 26.0996C84.1128 27.9996 84.1128 29.8996 84.1128 31.7996C84.8121 31.7996 85.6112 31.7996 86.3105 31.7996C86.3105 29.8996 86.3105 27.9996 86.4104 26.1996C86.4104 24.6996 85.811 23.3996 84.0129 23.3996C83.7132 23.3996 83.3136 23.3996 83.014 23.3996C82.4146 23.3996 82.015 23.5996 81.6154 23.9996C81.2158 24.3996 81.2159 24.5996 81.2159 23.9996V23.3996H79.3178C79.3178 26.1996 79.3178 28.9996 79.3178 31.7996C80.0171 31.7996 80.7164 31.7996 81.5155 31.7996ZM73.2243 28.1996C74.0234 28.1996 74.8226 28.1996 75.6217 28.1996C75.6217 28.5996 75.6217 28.9996 75.6217 29.3996C75.6217 29.8996 74.1233 29.8996 73.1244 29.8996C72.4251 29.8996 72.525 29.8996 72.4251 29.2996C72.4251 29.0996 72.4251 28.7996 72.4251 28.5996C72.525 28.0996 72.6249 28.1996 73.2243 28.1996ZM67.0308 28.9996C67.0308 29.4996 66.6312 29.9996 66.0318 29.9996C65.6322 29.9996 65.3326 29.9996 64.933 29.9996C64.1338 29.9996 64.1338 29.9996 64.1338 28.8996V26.3996C64.1338 25.2996 64.1338 25.2996 64.933 25.2996C65.3326 25.2996 65.6322 25.2996 66.0318 25.2996C66.5313 25.2996 67.0308 25.6996 67.0308 26.2996V28.9996Z" fill="#838A92"/>
</svg>
