<svg width="105" height="27" viewBox="0 0 105 27" fill="none" xmlns="http://www.w3.org/2000/svg">
<path d="M11.7255 19.6753V26.5202H14.281V17.5762C11.9993 17.6674 11.7255 19.6753 11.7255 19.6753Z" fill="#838A92"/>
<path d="M31.7136 19.6753V26.5202H34.2691V17.5762C31.8962 17.6674 31.7136 19.6753 31.7136 19.6753Z" fill="#838A92"/>
<path d="M40.6575 17.3027C39.3798 17.3027 38.5584 18.0329 38.1933 18.4892V17.5765H35.6379V26.5206H38.1933V20.6796C38.4671 20.2232 39.0147 19.6757 39.8361 19.6757C41.0226 19.6757 41.2051 21.0446 41.2051 21.0446V26.5206H43.8518C43.8518 26.5206 43.8518 22.0486 43.8518 20.4058C43.8518 18.763 42.3916 17.394 40.6575 17.3027Z" fill="#838A92"/>
<path d="M72.1446 21.0446V26.5206H74.7913C74.7913 26.5206 74.7913 22.0486 74.7913 20.4058C74.7913 18.763 73.4223 17.394 71.597 17.3027C70.3193 17.3027 69.4979 18.0329 69.1328 18.4892V17.5765H66.5774V26.5206H69.1328V20.6796C69.4066 20.2232 69.9542 19.6757 70.7756 19.6757C71.9621 19.6757 72.1446 21.0446 72.1446 21.0446Z" fill="#838A92"/>
<path d="M62.6525 26.5211H65.2992V17.5771H62.7437V18.6723C62.0136 17.8509 61.0097 17.3945 59.8232 17.3945C57.4503 17.3945 55.625 19.4936 55.625 22.1404C55.625 24.7871 57.5416 26.8862 59.8232 26.8862C60.9184 26.8862 61.9223 26.4299 62.7437 25.6085V26.5211H62.6525ZM60.5533 24.422C59.3669 24.422 58.363 23.4181 58.363 22.1404C58.363 20.8626 59.3669 19.8587 60.5533 19.8587C61.6485 19.8587 62.5612 20.6801 62.7437 21.684V22.5967C62.4699 23.6006 61.5573 24.422 60.5533 24.422Z" fill="#838A92"/>
<path d="M78.9895 22.5958L79.1721 22.6871L81.6362 26.5203H85.1956L81.4537 21.5919L85.2869 17.5762H81.91L78.9895 20.8618V15.7509C78.807 13.3779 76.2515 13.4692 76.2515 13.4692L76.1603 26.2465L76.2515 26.5203H78.9895V22.5958Z" fill="#838A92"/>
<path d="M20.0303 17.3945C17.4748 17.3945 15.3757 19.4936 15.3757 22.1404C15.3757 24.7871 17.4748 26.8862 20.0303 26.8862C22.0381 26.8862 23.6809 25.6085 24.411 23.7832H22.0381C21.5818 24.5133 20.9429 24.9696 20.1215 24.9696C19.0263 24.9696 18.1137 24.1482 17.8399 22.9618H24.3198H24.5936C24.5936 22.688 24.6848 22.4142 24.6848 22.1404C24.6848 19.4936 22.5857 17.3945 20.0303 17.3945ZM17.9312 21.0452C18.2962 20.0412 19.1176 19.3111 20.1215 19.3111C21.1255 19.3111 21.9469 20.0412 22.3119 21.0452H17.9312Z" fill="#838A92"/>
<path d="M10.2655 13.5605L7.16242 21.6832L3.78558 13.5605H0.5L5.6109 26.4291C5.6109 26.4291 7.52749 26.7941 8.07508 25.7902C8.62268 24.7863 13.0034 13.5605 13.0034 13.5605H10.2655Z" fill="#838A92"/>
<path d="M29.0664 15.3867H26.511V17.5771H25.142V19.6762H26.511V23.6007C26.511 23.6007 26.3284 25.8823 28.9751 26.5212H30.5267V24.3308C30.5267 24.3308 30.0703 24.3308 29.7965 24.1483C29.4315 23.9657 29.1577 23.5094 29.1577 22.8705C29.1577 22.5967 29.1577 21.2277 29.1577 19.6762H30.6179V17.5771H29.1577C29.0664 16.3906 29.0664 15.478 29.0664 15.3867Z" fill="#838A92"/>
<path d="M48.1404 26.6127H51.2435V26.5214C51.7911 26.4301 54.8941 25.9738 54.8941 22.7795C54.8941 20.0415 52.7037 19.6764 52.7037 19.6764H52.6125H52.7037C52.7037 19.6764 54.2552 19.1288 54.2552 17.0297C54.2552 14.4743 51.9736 13.9267 50.6959 13.7441H50.2395C49.9657 13.7441 49.7832 13.7441 49.7832 13.7441H47.7754H45.0374V26.6127H47.5928H48.1404ZM48.1404 16.0258H50.2395C50.5133 16.0258 51.6085 16.2996 51.6085 17.3035C51.6085 18.3074 50.4221 18.6725 50.4221 18.6725H48.0491V16.0258H48.1404ZM48.1404 21.0454H50.9697C50.9697 21.0454 52.2474 21.4105 52.2474 22.5057C52.2474 23.6009 51.6998 23.9659 51.0609 24.1485H48.1404V21.0454Z" fill="#838A92"/>
<path d="M94.5954 21.6837C98.2461 21.6837 101.532 19.7671 103.357 16.8466C100.71 15.4776 97.7897 14.6562 94.5954 14.6562C91.4011 14.6562 88.4806 15.4776 85.8339 16.8466C87.6592 19.6759 90.9448 21.6837 94.5954 21.6837Z" fill="#838A92"/>
<path d="M91.5838 13.4697V8.08502H97.6986V13.4697C99.9802 13.8348 102.171 14.5649 104.087 15.5688C104.726 14.2911 105 12.8309 105 11.2793C105 5.52957 100.345 0.875 94.5955 0.875C88.8458 0.875 84.1912 5.52957 84.1912 11.2793C84.1912 12.8309 84.5563 14.2911 85.1039 15.5688C87.1117 14.4736 89.3021 13.8348 91.5838 13.4697Z" fill="#838A92"/>
</svg>
