<svg width="105" height="27" viewBox="0 0 105 27" fill="none" xmlns="http://www.w3.org/2000/svg">
<path d="M11.7259 19.6753V26.5202H14.2814V17.5762C11.9997 17.6674 11.7259 19.6753 11.7259 19.6753Z" fill="#005992"/>
<path d="M31.714 19.6753V26.5202H34.2694V17.5762C31.8965 17.6674 31.714 19.6753 31.714 19.6753Z" fill="#005992"/>
<path d="M40.6579 17.3027C39.3802 17.3027 38.5588 18.0329 38.1937 18.4892V17.5765H35.6382V26.5206H38.1937V20.6796C38.4675 20.2232 39.0151 19.6757 39.8365 19.6757C41.0229 19.6757 41.2055 21.0446 41.2055 21.0446V26.5206H43.8522C43.8522 26.5206 43.8522 22.0486 43.8522 20.4058C43.8522 18.763 42.3919 17.394 40.6579 17.3027Z" fill="#005992"/>
<path d="M72.145 21.0446V26.5206H74.7917C74.7917 26.5206 74.7917 22.0486 74.7917 20.4058C74.7917 18.763 73.4227 17.394 71.5974 17.3027C70.3197 17.3027 69.4983 18.0329 69.1332 18.4892V17.5765H66.5778V26.5206H69.1332V20.6796C69.407 20.2232 69.9546 19.6757 70.776 19.6757C71.9625 19.6757 72.145 21.0446 72.145 21.0446Z" fill="#005992"/>
<path d="M62.6528 26.5211H65.2995V17.5771H62.7441V18.6723C62.014 17.8509 61.01 17.3945 59.8236 17.3945C57.4507 17.3945 55.6253 19.4936 55.6253 22.1404C55.6253 24.7871 57.5419 26.8862 59.8236 26.8862C60.9188 26.8862 61.9227 26.4299 62.7441 25.6085V26.5211H62.6528ZM60.5537 24.422C59.3672 24.422 58.3633 23.4181 58.3633 22.1404C58.3633 20.8626 59.3672 19.8587 60.5537 19.8587C61.6489 19.8587 62.5616 20.6801 62.7441 21.684V22.5967C62.4703 23.6006 61.5576 24.422 60.5537 24.422Z" fill="#005992"/>
<path d="M78.9899 22.5958L79.1724 22.6871L81.6366 26.5203H85.196L81.4541 21.5919L85.2872 17.5762H81.9104L78.9899 20.8618V15.7509C78.8074 13.3779 76.2519 13.4692 76.2519 13.4692L76.1606 26.2465L76.2519 26.5203H78.9899V22.5958Z" fill="#005992"/>
<path d="M20.0306 17.3945C17.4752 17.3945 15.3761 19.4936 15.3761 22.1404C15.3761 24.7871 17.4752 26.8862 20.0306 26.8862C22.0385 26.8862 23.6813 25.6085 24.4114 23.7832H22.0385C21.5822 24.5133 20.9433 24.9696 20.1219 24.9696C19.0267 24.9696 18.1141 24.1482 17.8403 22.9618H24.3201H24.5939C24.5939 22.688 24.6852 22.4142 24.6852 22.1404C24.6852 19.4936 22.5861 17.3945 20.0306 17.3945ZM17.9315 21.0452C18.2966 20.0412 19.118 19.3111 20.1219 19.3111C21.1258 19.3111 21.9472 20.0412 22.3123 21.0452H17.9315Z" fill="#005992"/>
<path d="M10.2658 13.5605L7.16279 21.6832L3.78594 13.5605H0.500366L5.61127 26.4291C5.61127 26.4291 7.52785 26.7941 8.07545 25.7902C8.62304 24.7863 13.0038 13.5605 13.0038 13.5605H10.2658Z" fill="#005992"/>
<path d="M29.0668 15.3867H26.5113V17.5771H25.1423V19.6762H26.5113V23.6007C26.5113 23.6007 26.3288 25.8823 28.9755 26.5212H30.527V24.3308C30.527 24.3308 30.0707 24.3308 29.7969 24.1483C29.4318 23.9657 29.158 23.5094 29.158 22.8705C29.158 22.5967 29.158 21.2277 29.158 19.6762H30.6183V17.5771H29.158C29.0668 16.3906 29.0668 15.478 29.0668 15.3867Z" fill="#005992"/>
<path d="M48.1408 26.6127H51.2438V26.5214C51.7914 26.4301 54.8945 25.9738 54.8945 22.7795C54.8945 20.0415 52.7041 19.6764 52.7041 19.6764H52.6128H52.7041C52.7041 19.6764 54.2556 19.1288 54.2556 17.0297C54.2556 14.4743 51.974 13.9267 50.6962 13.7441H50.2399C49.9661 13.7441 49.7836 13.7441 49.7836 13.7441H47.7757H45.0377V26.6127H47.5932H48.1408ZM48.1408 16.0258H50.2399C50.5137 16.0258 51.6089 16.2996 51.6089 17.3035C51.6089 18.3074 50.4224 18.6725 50.4224 18.6725H48.0495V16.0258H48.1408ZM48.1408 21.0454H50.97C50.97 21.0454 52.2478 21.4105 52.2478 22.5057C52.2478 23.6009 51.7002 23.9659 51.0613 24.1485H48.1408V21.0454Z" fill="#005992"/>
<path d="M94.5958 21.6837C98.2464 21.6837 101.532 19.7671 103.357 16.8466C100.711 15.4776 97.7901 14.6562 94.5958 14.6562C91.4015 14.6562 88.481 15.4776 85.8342 16.8466C87.6596 19.6759 90.9451 21.6837 94.5958 21.6837Z" fill="#D71149"/>
<path d="M91.5841 13.4697V8.08502H97.699V13.4697C99.9806 13.8348 102.171 14.5649 104.088 15.5688C104.726 14.2911 105 12.8309 105 11.2793C105 5.52957 100.346 0.875 94.5959 0.875C88.8461 0.875 84.1916 5.52957 84.1916 11.2793C84.1916 12.8309 84.5566 14.2911 85.1042 15.5688C87.1121 14.4736 89.3025 13.8348 91.5841 13.4697Z" fill="#005790"/>
</svg>
