<svg width="20" height="20" viewBox="0 0 20 20" fill="none" xmlns="http://www.w3.org/2000/svg">
<path d="M19.3519 15.6069L14.6476 12.6427C15.0936 11.8629 15.3488 10.9607 15.3488 9.99984C15.3488 9.16018 15.1538 8.36528 14.8071 7.65777V5.95465C14.8071 3.93006 13.1599 2.28295 11.1353 2.28295H6.58057V0.666504L0.666748 4.39279L5.37112 7.35698C4.92506 8.13676 4.66988 9.039 4.66988 9.99984C4.66988 10.8395 4.8649 11.6344 5.21174 12.3419V14.045C5.21174 16.0696 6.85884 17.7167 8.88343 17.7167H13.4383V19.3332L19.3519 15.6069ZM5.76572 9.99984C5.76572 7.65991 7.66942 5.75621 10.0093 5.75621C12.3493 5.75621 14.253 7.65991 14.253 9.99984C14.253 12.3398 12.3493 14.2435 10.0093 14.2435C7.66942 14.2435 5.76572 12.3398 5.76572 9.99984ZM5.4846 6.13313L2.72256 4.39279L5.4846 2.65232V3.37879H11.1353C12.5556 3.37879 13.7111 4.53435 13.7111 5.95465V6.15551C12.7506 5.23017 11.4453 4.66023 10.0093 4.66023C9.01672 4.66023 8.08668 4.93294 7.28951 5.40666H5.4846V6.13313ZM6.30758 13.8442C7.26827 14.7694 8.57337 15.3393 10.0093 15.3393C11.002 15.3393 11.9322 15.0667 12.7292 14.5929H14.5341V13.8665L17.2961 15.6069L14.5341 17.3474V16.6209H8.88343C7.46314 16.6209 6.30758 15.4653 6.30758 14.045V13.8442Z" fill="#F7F8FA"/>
<path d="M10.5033 12.8156V12.1506C11.4319 11.989 11.8992 11.4257 11.8992 10.7787C11.8992 9.23305 9.58067 9.65231 9.58067 9.14908C9.58067 9.00539 9.71254 8.8855 10.1258 8.8855C10.4913 8.8855 10.8808 8.98742 11.2941 9.19713L11.7195 8.17257C11.378 7.98083 10.9467 7.86707 10.5033 7.82516V7.18408H9.65865V7.83713C8.67601 7.97499 8.18476 8.54407 8.18476 9.22108C8.18476 10.7846 10.5033 10.3594 10.5033 10.8866C10.5033 11.0304 10.3595 11.1142 9.95816 11.1142C9.49685 11.1142 8.96968 10.9644 8.57422 10.7308L8.1189 11.7613C8.47842 11.983 9.05949 12.1446 9.65865 12.1806V12.8156H10.5033Z" fill="#F7F8FA"/>
</svg>
