<svg width="109" height="23" viewBox="0 0 109 23" fill="none" xmlns="http://www.w3.org/2000/svg">
<path d="M7.08533 20.9153L10.5915 11.034L0.636168 14.5204C-0.490165 14.912 0.236502 13.9797 0.236502 13.9797L1.78067 11.9848C2.50734 11.034 3.70633 11.034 3.70633 11.034C3.70633 11.034 2.50734 11.034 1.78067 10.0831L0.236502 8.08822C0.236502 8.08822 -0.490165 7.13737 0.636168 7.54754L10.5915 11.034V17.8764C10.5915 17.8764 10.5915 19.0696 9.64683 19.7967L7.6485 21.3255C7.6485 21.3069 6.68567 22.034 7.08533 20.9153ZM10.5915 4.19161V11.034L7.08533 1.15263C6.68567 0.0339835 7.63033 0.761101 7.63033 0.761101L9.62867 2.28992C10.5915 2.99839 10.5915 4.19161 10.5915 4.19161Z" fill="#F7F8FA"/>
<path d="M57.734 16.6831H58.6605L59.1147 15.4153H60.8587L61.331 16.6831H62.2938L60.3318 11.6306H59.6233L57.734 16.6831ZM59.369 14.6882L59.7323 13.7001C59.8595 13.3086 59.9322 13.0848 59.9867 12.917H60.0048C60.0412 13.0848 60.1138 13.3086 60.2592 13.7001L60.6043 14.7069H59.369V14.6882ZM64.7463 16.7764C65.6547 16.7764 66.2905 16.4594 66.5812 15.8069C66.7083 15.5459 66.7628 15.2103 66.7628 14.8187V11.6679H65.8727V14.7442C65.8727 15.0238 65.8363 15.2475 65.7455 15.434C65.582 15.7882 65.2368 15.9933 64.7463 15.9933C64.2558 15.9933 63.9107 15.7882 63.7472 15.434C63.6563 15.2475 63.62 15.0238 63.62 14.7628V11.6679H62.7298V14.8187C62.7298 15.1916 62.7843 15.5272 62.9115 15.7882C63.2022 16.4408 63.838 16.7764 64.7463 16.7764ZM68.8702 16.6831H69.7603V12.4323H71.0683L71.3045 11.6492H67.435V12.4323H68.8702V16.6831ZM71.9403 16.6831H72.8305V14.5018H75.174V16.6831H76.0823V11.6492H75.174V13.7374H72.8305V11.6679H71.9403V16.6831ZM79.5158 16.7764C80.951 16.7764 81.9865 15.7509 81.9865 14.2035C81.9865 12.6933 80.9692 11.6306 79.5158 11.6306C78.0625 11.6306 77.0452 12.6747 77.0452 14.2035C77.0452 15.7323 78.0625 16.7764 79.5158 16.7764ZM79.5158 15.9933C78.6075 15.9933 78.008 15.3221 78.008 14.1848C78.008 13.0475 78.6257 12.3764 79.5158 12.3764C80.4423 12.3764 81.0237 13.0662 81.0237 14.1848C81.0237 15.3408 80.406 15.9933 79.5158 15.9933ZM83.8213 16.6831V14.7255H84.2392C84.3663 14.7628 84.5298 14.9679 84.766 15.4153L85.4745 16.6831H86.4918L85.6743 15.2103C85.42 14.7442 85.2202 14.4831 85.0567 14.3899V14.3713C85.6198 14.1848 86.0195 13.7374 86.0195 13.0662C86.0195 12.5628 85.8197 12.0967 85.2928 11.8357C85.0385 11.7052 84.7115 11.6306 84.2392 11.6306H82.8948V16.6831H83.8213ZM83.8395 12.4136H84.2573C84.5298 12.4136 84.6933 12.4696 84.8023 12.5628C85.0203 12.6933 85.1293 12.9357 85.1293 13.1967C85.1293 13.5136 85.0022 13.7374 84.7842 13.8679C84.6388 13.9425 84.4753 13.9984 84.2392 13.9984H83.8395V12.4136ZM87.2367 16.6831H88.1268V11.6492H87.2367V16.6831ZM90.2342 16.6831H91.1243V12.4323H92.4323L92.6867 11.6492H88.8172V12.4323H90.2523V16.6831H90.2342ZM94.7032 16.6831H95.6115V14.7069L97.2828 11.6679H96.32L95.1755 13.8865H95.1573L94.0128 11.6679H93.0318L94.7032 14.7069V16.6831Z" fill="#F7F8FA"/>
<path d="M58.6242 10.1577V7.30517C58.6242 7.13738 58.6242 6.87636 58.6242 6.67128H58.6423C58.7332 6.85772 58.8785 7.04416 58.9693 7.19331L60.0412 8.77806H60.4408L61.4037 7.2306C61.4945 7.10009 61.6762 6.80179 61.7307 6.67128H61.7488C61.7307 6.87636 61.7307 7.13738 61.7307 7.34246V10.1764H62.639V5.14246H61.8215L60.6407 7.00687C60.4772 7.26789 60.35 7.49162 60.241 7.67806H60.2228C60.1138 7.47297 59.9867 7.28653 59.805 7.02551L58.5152 5.12382H57.6977V10.1577H58.6242ZM63.293 10.1577H64.2195L64.6737 8.88992H66.4177L66.89 10.1577H67.8528L65.8908 5.10517H65.1823L63.293 10.1577ZM64.9462 8.14416L65.3095 7.15602C65.4367 6.7645 65.5093 6.54077 65.5638 6.37297H65.582C65.6183 6.54077 65.691 6.7645 65.8182 7.15602L66.1633 8.1628H64.9462V8.14416ZM68.525 10.1577H71.1592V9.37467H69.4152V5.12382H68.525V10.1577ZM72.3037 10.1577H73.1938V5.90687H74.5018L74.7562 5.12382H70.8867V5.90687H72.3218V10.1577H72.3037ZM74.302 10.1577H75.2285L75.6827 8.88992H77.4267L77.899 10.1577H78.8618L76.8998 5.10517H76.1913L74.302 10.1577ZM75.9552 8.14416L76.3185 7.15602C76.4457 6.7645 76.5183 6.54077 76.5728 6.37297H76.591C76.6273 6.54077 76.7 6.7645 76.8453 7.15602L77.1905 8.1628H75.9552V8.14416ZM85.2747 7.71534H84.3663V9.31873C84.1665 9.41195 83.8758 9.46789 83.5488 9.46789C82.4952 9.46789 81.8775 8.75941 81.8775 7.67806C81.8775 6.61534 82.4952 5.86958 83.676 5.86958C84.2028 5.86958 84.6388 6.00009 85.0203 6.20518V5.34755C84.657 5.21704 84.1665 5.10517 83.6033 5.10517C81.9683 5.10517 80.9147 6.22382 80.9147 7.75263C80.9147 9.18822 81.8593 10.2509 83.4762 10.2509C84.1665 10.2509 84.8205 10.0831 85.2565 9.84077V7.71534H85.2747ZM85.856 10.1577H86.7825L87.2367 8.88992H88.9807L89.453 10.1577H90.4158L88.472 5.10517H87.7453L85.856 10.1577ZM87.5092 8.14416L87.8725 7.15602C87.9997 6.7645 88.0723 6.54077 88.1268 6.37297H88.145C88.1813 6.54077 88.254 6.7645 88.3993 7.15602L88.7445 8.1628H87.5092V8.14416ZM91.088 10.1577H91.9782V7.30517C91.9782 7.13738 91.9782 6.87636 91.9782 6.67128H91.9963C92.0872 6.85772 92.2325 7.04416 92.3233 7.19331L93.3952 8.77806H93.813L94.7758 7.2306C94.8667 7.10009 95.0483 6.80179 95.1028 6.67128H95.121C95.1028 6.87636 95.1028 7.13738 95.1028 7.34246V10.1764H96.0112V5.14246H95.1937L94.0128 7.00687C93.8493 7.26789 93.7222 7.49162 93.6132 7.67806H93.595C93.486 7.47297 93.3588 7.28653 93.1953 7.02551L91.9055 5.12382H91.088V10.1577ZM97.2283 10.1577H98.1185V5.12382H97.2283V10.1577ZM103.696 10.1577V5.12382H102.787V7.80857C102.787 8.08823 102.787 8.38653 102.806 8.64755H102.787C102.642 8.40518 102.46 8.1628 102.242 7.8645L100.19 5.10517H99.2993V10.1391H100.19V7.28653C100.19 6.98822 100.189 6.70856 100.171 6.50348H100.19C100.353 6.72721 100.517 6.98823 100.735 7.26789L102.86 10.1391H103.696V10.1577ZM109 7.71534H108.092V9.31873C107.892 9.41195 107.602 9.46789 107.275 9.46789C106.221 9.46789 105.603 8.75941 105.603 7.67806C105.603 6.61534 106.221 5.86958 107.402 5.86958C107.929 5.86958 108.365 6.00009 108.746 6.20518V5.34755C108.383 5.21704 107.892 5.10517 107.329 5.10517C105.694 5.10517 104.64 6.22382 104.64 7.75263C104.64 9.18822 105.585 10.2509 107.202 10.2509C107.892 10.2509 108.546 10.0831 108.982 9.84077V7.71534H109Z" fill="#F7F8FA"/>
<path d="M12.9532 16.7391H16.4775V8.9645C17.1133 8.47975 17.9308 8.21873 18.603 8.21873C19.911 8.21873 20.0563 9.16958 20.0563 10.2882V16.7391H23.5807V8.9645C24.2165 8.47975 25.0158 8.21873 25.688 8.21873C26.996 8.21873 27.1595 9.1323 27.1595 10.2323V16.7391H30.702V9.30009C30.702 6.1306 28.8127 5.10517 26.778 5.10517C25.6335 5.10517 24.2347 5.60857 22.8903 6.70857C22.309 5.70179 21.2735 5.10517 19.8747 5.10517C18.5485 5.10517 17.2768 5.75772 16.2595 6.54077L15.9325 5.38484H12.9713V16.7391H12.9532ZM37.0058 22.4255C41.2205 22.4255 43.2007 20.5798 43.2007 18.5475C43.2007 14.2967 35.934 16.1425 35.934 14.2221C35.934 14.1103 35.934 13.9798 36.0248 13.7187C36.3518 13.812 36.8242 13.8679 37.2783 13.8679C40.1123 13.8679 42.0925 12.2086 42.0925 9.59839C42.0925 8.66619 41.82 7.77128 41.2932 7.08145C41.4748 7.00687 41.8018 6.98823 41.9472 6.98823C42.2197 6.98823 42.583 7.04416 42.8737 7.10009L43.5277 4.60179C43.346 4.58314 42.9645 4.54585 42.7283 4.54585C41.1297 4.54585 40.4212 4.95602 39.7853 5.55263C39.6945 5.64585 39.6218 5.70179 39.5128 5.62721C39.0405 5.34755 38.223 5.10517 37.2057 5.10517C33.7903 5.10517 32.4097 7.37975 32.4097 9.37467C32.4097 10.8662 33.0637 12.2459 34.3535 12.9543C33.4633 13.4577 32.882 14.2408 32.882 15.0425C32.882 15.6204 33.1363 16.1611 33.6087 16.4408C32.6095 16.795 31.6467 17.7272 31.6467 19.0509C31.6467 20.934 33.5178 22.4255 37.0058 22.4255ZM37.5145 19.9831C35.7523 19.9831 34.7532 19.3306 34.7532 18.3984C34.7532 17.895 35.0075 17.5408 35.2255 17.3357C36.3518 17.9323 39.8762 17.5967 39.8762 18.9391C39.8762 19.6475 38.7498 19.9831 37.5145 19.9831ZM37.2602 11.2204C36.2065 11.2204 35.6978 10.3628 35.6978 9.48653C35.6978 8.29331 36.37 7.73399 37.2238 7.73399C38.2957 7.73399 38.8407 8.64755 38.8407 9.50517C38.8225 10.6425 38.1503 11.2204 37.2602 11.2204ZM51.1577 16.7391H54.0643C53.8827 16.1238 53.8827 15.2103 53.8827 14.5018V9.41195C53.8827 6.65263 52.4838 5.08653 49.0685 5.08653C47.3063 5.08653 45.8167 5.51534 44.5087 6.18653L45.5987 8.46111C46.398 8.0323 47.4698 7.77128 48.3963 7.77128C49.5953 7.77128 50.3402 8.20009 50.3402 9.2628V9.37467L48.578 9.44924C47.4517 9.50518 46.4525 9.71026 45.6532 10.1391C44.5087 10.7543 43.8002 11.7052 43.8002 13.234C43.8002 15.4153 45.3988 16.9442 47.5607 16.9442C48.9413 16.9442 49.9042 16.4221 50.649 15.7509L51.1577 16.7391ZM50.3402 11.6865V13.7933C50.0858 13.9611 49.5045 14.2035 48.7233 14.2035C47.8877 14.2035 47.3427 13.812 47.3427 13.0289C47.3427 12.5442 47.5062 12.2645 47.8332 12.0408C48.142 11.8543 48.578 11.7611 49.1412 11.7238L50.3402 11.6865Z" fill="#F7F8FA"/>
</svg>
