<svg width="33" height="33" viewBox="0 0 33 33" fill="none" xmlns="http://www.w3.org/2000/svg">
<path d="M19.145 16.2244L15.4391 14.4952C15.1157 14.345 14.85 14.5133 14.85 14.8714V18.1285C14.85 18.4865 15.1157 18.6548 15.4391 18.5047L19.1433 16.7755C19.4684 16.6237 19.4684 16.3762 19.145 16.2244ZM16.5 0.659912C7.75174 0.659912 0.660034 7.75161 0.660034 16.4999C0.660034 25.2482 7.75174 32.3399 16.5 32.3399C25.2483 32.3399 32.34 25.2482 32.34 16.4999C32.34 7.75161 25.2483 0.659912 16.5 0.659912ZM16.5 22.9349C8.39194 22.9349 8.25003 22.204 8.25003 16.4999C8.25003 10.7959 8.39194 10.0649 16.5 10.0649C24.6081 10.0649 24.75 10.7959 24.75 16.4999C24.75 22.204 24.6081 22.9349 16.5 22.9349Z" fill="#F7F8FA"/>
</svg>
