<svg width="24" height="24" viewBox="0 0 24 24" fill="none" xmlns="http://www.w3.org/2000/svg">
<g clip-path="url(#clip0)">
<path opacity="0.4" d="M0.0900199 5.177C-0.00227701 5.34144 -0.0246833 5.53601 0.0278167 5.71709L3.32815 17.0955V4.07947L0.518785 4.84269C0.336864 4.89214 0.182364 5.01261 0.0900199 5.177Z" fill="white"/>
<path opacity="0.4" d="M23.91 5.177C23.8177 5.01256 23.6632 4.89214 23.4812 4.84269L20.6719 4.07947V17.0955L23.9722 5.71714C24.0247 5.53606 24.0023 5.34144 23.91 5.177Z" fill="white"/>
<path opacity="0.4" d="M13.2578 10.0114C12.9738 10.0114 12.7124 10.1277 12.5215 10.3386C12.3882 10.4861 12.1988 10.5702 12 10.5702C11.8012 10.5702 11.6117 10.486 11.4784 10.3386C11.2877 10.1276 11.0262 10.0114 10.7422 10.0114C10.1951 10.0114 9.75 10.4565 9.75 11.0036C9.75 11.9947 11.1621 13.2287 12.0016 13.8402C12.9948 13.1237 14.25 11.916 14.25 11.0036C14.25 10.4565 13.8049 10.0114 13.2578 10.0114Z" fill="white"/>
<path d="M18.5625 1.45312H5.4375C5.04919 1.45312 4.73438 1.76794 4.73438 2.15625V21.8438C4.73438 22.2321 5.04919 22.5469 5.4375 22.5469H18.5625C18.9508 22.5469 19.2656 22.2321 19.2656 21.8438V2.15625C19.2656 1.76794 18.9508 1.45312 18.5625 1.45312ZM6.84375 4.26562C6.45544 4.26562 6.14062 3.95081 6.14062 3.5625C6.14062 3.17419 6.45544 2.85938 6.84375 2.85938C7.23206 2.85938 7.54688 3.17419 7.54688 3.5625C7.54688 3.95081 7.23206 4.26562 6.84375 4.26562ZM12.3771 15.2851C12.262 15.3582 12.131 15.3948 12 15.3948C11.869 15.3948 11.738 15.3582 11.6229 15.2851C11.2873 15.0718 8.34375 13.1398 8.34375 11.0037C8.34375 9.68119 9.41967 8.60527 10.7422 8.60527C11.1898 8.60527 11.6251 8.73131 12 8.96203C12.3749 8.73131 12.8102 8.60527 13.2578 8.60527C14.5803 8.60527 15.6562 9.68119 15.6562 11.0037C15.6562 13.1398 12.7127 15.0718 12.3771 15.2851ZM17.1562 21.1406C16.7679 21.1406 16.4531 20.8258 16.4531 20.4375C16.4531 20.0492 16.7679 19.7344 17.1562 19.7344C17.5446 19.7344 17.8594 20.0492 17.8594 20.4375C17.8594 20.8258 17.5446 21.1406 17.1562 21.1406Z" fill="#F7F8FA"/>
</g>
<defs>
<clipPath id="clip0">
<rect width="24" height="24" fill="white"/>
</clipPath>
</defs>
</svg>
