<svg width="24" height="24" viewBox="0 0 24 24" fill="none" xmlns="http://www.w3.org/2000/svg">
<path opacity="0.4" d="M15.3362 13.0365L12.7136 15.9868C12.5368 16.1856 12.4396 16.442 12.4396 16.7077C12.4396 17.3062 12.9266 17.7931 13.525 17.7931H13.6408C13.8556 17.7931 14.0637 17.7303 14.2433 17.6111L15.3362 16.8819L16.4295 17.6111C16.6087 17.7303 16.8172 17.7931 17.0316 17.7931H17.1473C17.7458 17.7931 18.2327 17.3062 18.2327 16.7077C18.2327 16.4416 18.1356 16.1856 17.9588 15.9874L15.3362 13.0365Z" fill="white"/>
<path d="M9.95689 1.65515H1.68103V14.0689H9.12931V8.68963C9.12931 8.15098 9.47642 7.69576 9.95689 7.52443V1.65515ZM7.06034 5.79308H6.23275V9.10343C6.23275 10.0163 5.49043 10.7586 4.57758 10.7586C3.66473 10.7586 2.92241 10.0163 2.92241 9.10343H3.75C3.75 9.55985 4.12116 9.93101 4.57758 9.93101C5.03401 9.93101 5.40517 9.55985 5.40517 9.10343V5.79308H4.57758V4.9655H7.06034V5.79308Z" fill="#F7F8FA"/>
<path opacity="0.4" d="M15.3362 17.8768L14.867 18.1895L14.5236 19.4483H16.1488L15.8053 18.1895L15.3362 17.8768Z" fill="white"/>
<path d="M20.3017 8.27588H10.3707C10.1424 8.27588 9.95691 8.46136 9.95691 8.68967V23.5862C9.95691 23.8145 10.1424 24 10.3707 24H20.3017C20.5301 24 20.7155 23.8145 20.7155 23.5862V8.68967C20.7155 8.46176 20.5301 8.27588 20.3017 8.27588ZM10.7845 9.10347H11.6121V9.93105H10.7845V9.10347ZM17.1474 18.6207H17.0316C16.9429 18.6207 16.8552 18.6132 16.7683 18.6013L16.9914 19.4483V20.2759H13.681L13.6956 19.3394L13.8966 18.6017C13.8122 18.6128 13.7269 18.6203 13.6408 18.6203H13.5251C12.4704 18.6203 11.6121 17.762 11.6121 16.7073C11.6121 16.2382 11.7838 15.7866 12.0954 15.4366L15.3362 11.7911L18.5771 15.4374C18.8886 15.7874 19.0604 16.2386 19.0604 16.7077C19.0604 17.7624 18.2021 18.6207 17.1474 18.6207ZM19.8879 23.1724H19.0604V22.3448H19.8879V23.1724Z" fill="#F7F8FA"/>
<path opacity="0.4" d="M0.853465 0.827586H10.7845V7.44828H11.6121V0.413793C11.6121 0.18548 11.4266 0 11.1983 0H0.439672C0.211358 0 0.0258789 0.18548 0.0258789 0.413793V15.3103C0.0258789 15.5387 0.211358 15.7241 0.439672 15.7241H9.12933V14.8966H0.853465V0.827586Z" fill="white"/>
</svg>
