<svg width="24" height="24" viewBox="0 0 24 24" fill="none" xmlns="http://www.w3.org/2000/svg">
<path d="M23.6324 6.64724L13.8033 1.01555C13.4686 0.824322 13.0479 0.939059 12.8567 1.27371L12.0965 2.59797L6.72301 1.70875C6.34533 1.64661 5.98678 1.89998 5.92463 2.27766L5.59954 4.22341L0.570225 5.16043C0.192549 5.23214 -0.0560485 5.59548 0.0108816 5.97316L3.09923 22.5144C3.17094 22.8921 3.53427 23.1407 3.90717 23.069L12.7658 21.4149L14.5777 22.4523C14.9124 22.6435 15.3331 22.5288 15.5243 22.1941L23.8858 7.59382C24.0818 7.25917 23.9671 6.83847 23.6324 6.64724ZM14.6399 14.5306L14.5443 14.5163L14.3387 13.4167L14.812 13.4932C15.1897 13.5554 15.5482 13.302 15.6104 12.9243L16.7291 6.18351C16.7912 5.80583 16.5378 5.44728 16.1601 5.38513L12.7324 4.81622L12.5125 3.64016C12.4981 3.56367 12.4742 3.49674 12.436 3.43459L17.0828 4.20429C17.4605 4.26644 17.7187 4.62499 17.6517 5.00267L15.3522 18.8715L14.965 16.7919L15.2088 15.329C15.2757 14.9513 15.0176 14.5928 14.6399 14.5306ZM13.0766 2.28244C13.2678 1.94779 13.6933 1.83305 14.0232 2.02428L16.2223 3.28161L12.828 2.71749L13.0766 2.28244ZM6.48397 3.14775C6.54612 2.77007 6.90468 2.51192 7.28235 2.57885L11.0639 3.20512L6.32621 4.08955L6.48397 3.14775ZM3.64423 21.6348L0.833165 6.59465C0.761454 6.21697 1.01005 5.85364 1.38773 5.78671L11.1595 3.96047C11.5372 3.88876 11.9005 4.13736 11.9675 4.51504L14.7737 19.5504C14.8454 19.9281 14.5969 20.2914 14.2192 20.3583L4.45217 22.1894C4.07449 22.2563 3.71116 22.0125 3.64423 21.6348ZM14.3578 21.4436L14.3435 21.434L14.8502 21.5201C14.6877 21.5535 14.5156 21.5344 14.3578 21.4436ZM22.9105 7.91413L15.8255 20.2771L16.1649 18.2309L17.0159 16.7441C17.2071 16.4095 17.0924 15.9888 16.7577 15.7975L16.5856 15.6971L16.7673 14.588L17.2788 14.8796C17.6135 15.0709 18.0342 14.9561 18.2254 14.6215L21.6197 8.6886C21.811 8.35395 21.6962 7.93325 21.3616 7.74202L18.2015 5.93013L18.431 4.5485L22.6428 6.96276C22.9822 7.15399 23.097 7.57948 22.9105 7.91413Z" fill="#F7F8FA"/>
<path d="M3.84979 15.0279L12.2017 13.4694C12.5794 13.3977 12.828 13.0344 12.7563 12.6615L11.5037 5.94457C11.432 5.5669 11.0687 5.3183 10.6958 5.39001L2.34386 6.94852C1.96619 7.02023 1.71759 7.38357 1.7893 7.75646L3.04185 14.4734C3.11356 14.851 3.47689 15.0996 3.84979 15.0279Z" fill="#F7F8FA"/>
<path opacity="0.4" d="M13.2057 15.0613C13.134 14.6837 12.7707 14.4351 12.3978 14.5068L4.04583 16.0653C3.66815 16.137 3.41956 16.5003 3.49127 16.8732L4.11276 20.2102C4.18447 20.5879 4.54781 20.8365 4.9207 20.7647L13.2726 19.2062C13.6503 19.1345 13.8989 18.7712 13.8272 18.3983L13.2057 15.0613Z" fill="white"/>
</svg>
