<svg width="24" height="24" viewBox="0 0 24 24" fill="none" xmlns="http://www.w3.org/2000/svg">
<g clip-path="url(#clip0)">
<path fill-rule="evenodd" clip-rule="evenodd" d="M21.1224 5.23972C21.0654 5.30368 20.9809 5.31967 20.9033 5.26941C20.8325 5.23743 20.7891 5.15748 20.7983 5.07981C20.9238 5.10266 21.0494 5.08438 21.159 5.02271C21.2046 5.09123 21.1772 5.18946 21.1224 5.23972Z" fill="black"/>
<path fill-rule="evenodd" clip-rule="evenodd" d="M21.5133 6.48392C21.3256 6.57548 21.0698 6.62925 20.8522 6.58856C20.5631 6.52897 20.3588 6.28338 20.093 6.1555C19.7757 6.00581 19.387 6.01744 19 6.0218C19.2774 6.09301 19.5548 6.16567 19.7807 6.30082C20.0681 6.45922 20.2807 6.71353 20.5897 6.85595C20.8987 7.00418 21.314 7.04051 21.6711 6.95331C21.897 6.90245 22.0997 6.79055 22.3289 6.77021C22.5415 6.7455 22.7658 6.79491 23 6.84578C22.7525 6.57838 22.3173 6.45341 21.9236 6.54205C22.0598 6.3851 22.0914 6.18165 22.0249 6C21.8854 6.17729 21.7442 6.36185 21.5133 6.48392Z" fill="#79797B"/>
<path fill-rule="evenodd" clip-rule="evenodd" d="M22.9205 4.25684C22.8374 4.02435 22.711 3.8333 22.5812 3.63711L22.5295 3.55882C22.4692 3.52742 22.3944 3.49361 22.334 3.50327C22.297 3.51098 22.2601 3.5354 22.2206 3.56148C22.1982 3.57628 22.175 3.5916 22.1506 3.60471C22.0709 3.63853 21.9864 3.64336 21.8875 3.64336C21.8391 3.62795 21.7907 3.61231 21.7424 3.59664L21.7421 3.59656C21.4188 3.49189 21.0933 3.3865 20.7385 3.34869C20.5889 3.3342 20.4272 3.31729 20.2823 3.27623C20.1381 3.22608 20.0167 3.13386 19.893 3.03987C19.8202 2.98449 19.7465 2.92849 19.6668 2.88013C19.2662 2.61445 18.7858 2.53474 18.3031 2.45504C17.8952 1.92126 17.6996 1.72079 16.9079 1.53723C15.9545 1.31261 14.8104 0.672559 14.3735 -0.206604C14.4363 0.315097 14.6801 0.788493 15.0518 1.16045C13.9704 1.1218 12.9687 0.655652 12.2229 -0.1269C12.8577 1.10006 14.1442 1.84156 15.5321 1.78359C13.6204 2.36326 11.5567 2.14588 9.79708 1.18943C10.654 2.07342 11.8077 2.59512 13.0291 2.67241C11.5784 3.10233 10.0119 2.955 8.66263 2.28114C9.81398 3.16513 11.9019 3.71582 13.4515 3.57815C10.2605 4.88964 8.47677 6.42818 7.24335 9.71779C8.17747 8.09956 9.3433 7.05374 10.8881 6.28568C9.18641 7.51264 8.11712 9.04393 8.05437 11.1525C8.28609 9.5608 10.3136 8.13578 11.267 7.87252C10.8012 8.5802 10.2388 9.54631 10.0529 10.3603C10.0609 10.3606 10.084 10.358 10.1191 10.3542L10.1191 10.3542C10.3298 10.3309 10.9708 10.2601 11.3226 10.4859C12.9518 11.5317 14.0018 13.4929 13.8449 15.4348C13.7387 16.7946 13.2173 17.9756 12.0032 18.4949C9.18641 19.7026 6.00752 18.0288 3.90999 15.7246C1.12213 12.2997 1.45281 7.29527 4.67756 4.26167C3.09898 5.97411 2.3121 8.26379 2.47141 10.5728C2.64278 12.8915 3.76758 14.7126 5.56581 16.1738C6.9706 17.0941 8.77607 17.3573 10.1133 16.3477C7.25784 16.1111 4.89479 14.0387 4.28653 11.2443C5.28582 12.5823 6.7944 13.447 8.45746 13.6064C10.1205 13.7634 11.4577 13.2803 12.6887 12.1596C9.8526 12.8383 7.22404 11.3288 6.04132 8.65507C4.84652 5.98135 5.7396 2.83182 8.16057 1.19185C5.23271 1.63143 2.6645 3.37768 1.18247 5.93305C-0.299559 8.486 -0.553 11.58 0.518697 14.3479C-0.0774951 11.6718 0.43663 8.8652 1.95487 6.58517C0.414906 9.44245 0.356977 12.8673 1.82211 15.7705C2.91553 17.9394 4.96962 19.4635 7.34956 19.8958C8.48401 20.0818 9.88639 20.2315 10.9798 19.9634C12.3218 19.7895 13.4153 18.9973 14.2432 17.9177C15.0807 16.826 15.3125 15.3333 15.1194 13.9784C15.7928 15.6087 15.6866 17.4805 14.8007 19.036C13.7894 20.7919 11.9236 21.9029 9.89122 21.9174C13.0991 22.5405 16.3142 20.8595 17.62 17.8573C17.2941 17.5699 16.9297 17.3259 16.541 17.1206C16.9586 17.2245 17.3496 17.3767 17.7262 17.5795C17.9024 17.152 18.0086 16.7221 18.0955 16.2705C17.6103 16.1062 17.1155 16.0217 16.6014 16.0169C17.0962 15.8478 17.6321 15.8333 18.1414 15.9613C18.2089 15.4758 18.2234 14.9783 18.1776 14.4904C17.6007 14.3551 16.9948 14.3672 16.4348 14.517C16.8886 14.0991 17.5452 13.9494 18.1389 14.1305C18.0665 13.5919 17.9362 13.0654 17.7407 12.563C17.0938 12.3263 16.3866 12.3505 15.7662 12.6234C16.22 12.1065 16.949 11.9495 17.591 12.2007C17.1831 11.3167 15.899 9.92309 15.1749 9.27097C14.709 8.53914 14.8852 7.83871 15.5756 7.32183C16.2659 6.80255 17.9555 7.22764 18.5275 7.87976C17.9941 8.03676 17.5452 8.38697 17.2579 8.8652C17.9024 8.51498 18.6675 8.47876 19.341 8.76617C18.9886 8.87728 18.7279 9.15262 18.6313 9.50283C18.8993 9.29754 19.2372 9.23957 19.5486 9.32652C19.831 9.42072 20.123 9.37724 20.3741 9.22266C20.613 9.06567 20.782 8.81931 20.8327 8.54155C21.1778 8.35799 21.4361 8.03917 21.5278 7.65997C21.4064 7.70047 21.2756 7.72592 21.1453 7.75126L21.0933 7.76142C20.8496 7.83146 20.5841 7.88218 20.3547 7.84837C20.0061 7.78141 19.7422 7.46893 19.4769 7.15475L19.4769 7.15474C19.3785 7.03827 19.28 6.92156 19.1768 6.81704C18.9545 6.59905 18.7056 6.43432 18.4659 6.27569L18.4045 6.23496C17.9965 6.24462 17.6007 6.1625 17.2338 6.01758C18.0134 6.02724 18.7931 5.94029 19.5437 5.75915C19.9082 5.35821 20.4296 5.14083 20.9702 5.21088C21.1875 5.2302 21.3927 5.30266 21.5761 5.39444C21.7209 5.47656 21.8585 5.58525 21.9647 5.70118C22.0757 5.80262 22.1554 5.92339 22.2278 6.05623C22.4547 5.89682 22.6695 5.73258 22.8143 5.50796C23.0316 5.15533 23.0461 4.65536 22.9205 4.25684ZM19.0948 3.51051C19.0393 3.52019 18.9854 3.5318 18.9324 3.54322C18.7342 3.58593 18.5488 3.62591 18.3393 3.55157C18.1172 3.47428 17.941 3.34869 17.7744 3.18687C18.0496 3.2714 18.2862 3.2714 18.5686 3.24242C18.8247 3.21725 19.0244 3.33946 19.2335 3.46739L19.2685 3.48878C19.2235 3.50193 19.1784 3.50485 19.1334 3.50777C19.1205 3.50861 19.1076 3.50944 19.0948 3.51051ZM22.5319 4.69881C22.4836 4.5877 22.3702 4.508 22.2398 4.508C22.136 4.508 22.0443 4.55872 21.984 4.63601C21.984 4.62964 21.9833 4.62393 21.9827 4.61855C21.9821 4.61373 21.9816 4.60917 21.9816 4.60461C21.9816 4.45003 22.1095 4.32202 22.2664 4.32202C22.4209 4.32202 22.5488 4.44762 22.5488 4.60461C22.5488 4.63843 22.5415 4.66982 22.5319 4.69881Z" fill="#F7F8FA"/>
</g>
<defs>
<clipPath id="clip0">
<rect width="24" height="24" fill="white"/>
</clipPath>
</defs>
</svg>
