<svg width="24" height="24" viewBox="0 0 24 24" fill="none" xmlns="http://www.w3.org/2000/svg">
<path d="M4.36819 11.2969L5.33292 8.40267C5.45573 8.03428 5.8538 7.8353 6.22233 7.95797C6.59072 8.08078 6.7898 8.47894 6.66703 8.84737L5.85056 11.2969H8.35444C9.94223 8.99447 10.3606 4.20525 10.4408 1.40625H13.5592C13.6392 4.19869 14.0565 8.99269 15.6456 11.2969H18.1494L17.3329 8.84733C17.2101 8.47894 17.4092 8.08073 17.7776 7.95792C18.1462 7.83525 18.5442 8.03423 18.667 8.40263L19.6318 11.2969H21.7031V0.703125C21.7031 0.314812 21.3883 0 21 0C20.4798 0 3.52017 0 3 0C2.61169 0 2.29688 0.314812 2.29688 0.703125V11.2969H4.36819Z" fill="#F7F8FA"/>
<path opacity="0.4" d="M21.7031 18.1406V12.7031C20.7658 12.7031 18.0917 12.7031 17.1575 12.7031L16.1688 18.1406H21.7031Z" fill="white"/>
<path d="M23.25 19.5469C20.8063 19.5469 3.33548 19.5469 0.75 19.5469C0.361687 19.5469 0.046875 19.8617 0.046875 20.25V23.2969C0.046875 23.6852 0.361687 24 0.75 24H23.25C23.6383 24 23.9531 23.6852 23.9531 23.2969V20.25C23.9531 19.8617 23.6383 19.5469 23.25 19.5469Z" fill="#F7F8FA"/>
<path opacity="0.4" d="M7.83112 18.1406L6.84248 12.7031C6.10013 12.7031 3.00103 12.7031 2.29688 12.7031V18.1406H7.83112Z" fill="white"/>
</svg>
