<svg width="24" height="24" viewBox="0 0 24 24" fill="none" xmlns="http://www.w3.org/2000/svg">
<g clip-path="url(#clip0)">
<path d="M3.50605 8.23514L1.34543 6.98737C0.542754 8.49387 0.0640996 10.1973 0.000427246 12.0051H2.49214C2.55258 10.685 2.90065 9.40004 3.50605 8.23514Z" fill="#F7F8FA"/>
<path d="M4.54619 6.65325C4.54619 6.64335 4.54336 6.63385 4.54336 6.62354C4.54336 5.49886 5.4461 4.58522 6.5643 4.55874L5.43336 2.59924C3.9505 3.53108 2.69283 4.78836 1.76099 6.27162L3.92079 7.51859C4.11241 7.21964 4.3194 6.92998 4.54619 6.65325Z" fill="#F7F8FA"/>
<path d="M2.48383 12.8331H0C0.0636724 14.641 0.542327 16.344 1.345 17.8509L3.49774 16.6078C2.90488 15.4686 2.54508 14.1893 2.48383 12.8331Z" fill="#F7F8FA"/>
<path d="M3.91332 17.3243L1.76099 18.5671C2.69283 20.0499 3.9501 21.3076 5.43337 22.2394L6.67609 20.0871C5.56839 19.3756 4.62442 18.432 3.91332 17.3243Z" fill="#F7F8FA"/>
<path opacity="0.4" d="M7.85517 6.62357C7.85517 7.30941 7.2991 7.86548 6.61325 7.86548C5.92741 7.86548 5.37134 7.30941 5.37134 6.62357C5.37134 5.93772 5.92741 5.38165 6.61325 5.38165C7.2991 5.38165 7.85517 5.93772 7.85517 6.62357Z" fill="white"/>
<path d="M20.3066 9.85991C20.5152 10.5658 20.6365 11.2835 20.6705 12.0051H23.1539C23.1161 10.9442 22.9352 9.90296 22.6132 8.89532C21.9433 9.38509 21.1588 9.72205 20.3066 9.85991Z" fill="#F7F8FA"/>
<path opacity="0.4" d="M19.4463 9.10737C21.9571 9.10737 24 7.0644 24 4.55369C24 2.04297 21.9571 0 19.4463 0C16.9356 0 14.8926 2.04297 14.8926 4.55369C14.8926 7.0644 16.9356 9.10737 19.4463 9.10737ZM19.4463 4.96766C18.5331 4.96766 17.7904 4.22502 17.7904 3.31177C17.7904 2.54225 18.3198 1.89966 19.0324 1.71471V0.827943H19.8603V1.71471C20.5726 1.89966 21.1022 2.54225 21.1022 3.31177H20.2743C20.2743 2.85515 19.903 2.48383 19.4463 2.48383C18.9897 2.48383 18.6184 2.85515 18.6184 3.31177C18.6184 3.76839 18.9897 4.13972 19.4463 4.13972C20.3596 4.13972 21.1022 4.88236 21.1022 5.7956C21.1022 6.56513 20.5726 7.20771 19.8603 7.39267V8.27943H19.0324V7.39267C18.3198 7.20771 17.7904 6.56513 17.7904 5.7956H18.6184C18.6184 6.25222 18.9897 6.62354 19.4463 6.62354C19.903 6.62354 20.2743 6.25222 20.2743 5.7956C20.2743 5.33898 19.903 4.96766 19.4463 4.96766Z" fill="white"/>
<path d="M11.1669 3.32959V0.838684C9.35901 0.902559 7.65602 1.38101 6.14911 2.18369L7.39608 4.34349C8.56927 3.73406 9.85626 3.38962 11.1669 3.32959Z" fill="#F7F8FA"/>
<path d="M15.1045 1.38727C14.0971 1.06527 13.0559 0.88375 11.9949 0.846558V3.33079C12.7147 3.36354 13.4351 3.47936 14.1413 3.68675C14.2796 2.83698 14.6166 2.05492 15.1045 1.38727Z" fill="#F7F8FA"/>
<path d="M6.14911 22.6551C7.65562 23.4578 9.35901 23.9362 11.1669 24.0001V21.5162C9.81078 21.4554 8.53187 21.0952 7.39224 20.5023L6.14911 22.6551Z" fill="#F7F8FA"/>
<path d="M16.4861 20.0867L17.7288 22.239C19.2117 21.3072 20.4691 20.0499 21.401 18.5666L19.2489 17.3239C18.5371 18.432 17.5934 19.3756 16.4861 20.0867Z" fill="#F7F8FA"/>
<path d="M11.9949 21.5162V24.0001C13.8026 23.9362 15.5057 23.4578 17.0127 22.6551L15.7693 20.5023C14.6297 21.0952 13.351 21.4554 11.9949 21.5162Z" fill="#F7F8FA"/>
<path d="M19.8603 12.4192C19.8603 11.5838 19.7221 10.7506 19.4633 9.93457C19.4575 9.93457 19.452 9.93538 19.4463 9.93538C16.479 9.93538 14.0647 7.52109 14.0647 4.55375C14.0647 4.54668 14.0659 4.5396 14.0659 4.53273C11.9997 3.88064 9.79422 4.07105 7.89981 5.01482C8.37341 5.39503 8.68308 5.97112 8.68308 6.62361C8.68308 7.76486 7.75448 8.69347 6.61322 8.69347C5.84532 8.69347 5.1813 8.26797 4.82393 7.6452C3.83792 9.03831 3.30145 10.7069 3.30145 12.4192C3.30145 16.9844 7.01547 20.6986 11.5809 20.6986C16.1461 20.6986 19.8603 16.9848 19.8603 12.4192ZM16.1346 13.6611C15.5955 13.6611 15.1403 13.3139 14.9689 12.8332H13.1779C13.0274 13.4123 12.574 13.8661 11.9949 14.0163V15.8072C12.4755 15.9786 12.8228 16.434 12.8228 16.9729C12.8228 17.6575 12.2655 18.2148 11.5809 18.2148C10.8961 18.2148 10.339 17.6575 10.339 16.9729C10.339 16.434 10.6862 15.9786 11.1669 15.8072V14.0163C10.5878 13.8657 10.134 13.4123 9.98382 12.8332H8.19291C8.0215 13.3139 7.56609 13.6611 7.0272 13.6611C6.34236 13.6611 5.78528 13.1038 5.78528 12.4192C5.78528 11.7346 6.34236 11.1773 7.0272 11.1773C7.56609 11.1773 8.0215 11.5246 8.19291 12.0052H9.98382C10.1344 11.4261 10.5878 10.9723 11.1669 10.8221V9.03123C10.6862 8.85982 10.339 8.40441 10.339 7.86552C10.339 7.18089 10.8961 6.62361 11.5809 6.62361C12.2655 6.62361 12.8228 7.18089 12.8228 7.86552C12.8228 8.40441 12.4755 8.85982 11.9949 9.03123V10.8221C12.574 10.9727 13.0278 11.4261 13.1779 12.0052H14.9689C15.1403 11.5246 15.5955 11.1773 16.1346 11.1773C16.8192 11.1773 17.3765 11.7346 17.3765 12.4192C17.3765 13.1042 16.8192 13.6611 16.1346 13.6611Z" fill="#F7F8FA"/>
<path d="M19.6636 16.6078L21.8164 17.8509C22.619 16.3444 23.0975 14.641 23.1614 12.8331H20.6775C20.6165 14.1893 20.2569 15.4686 19.6636 16.6078Z" fill="#F7F8FA"/>
<path d="M16.5485 12.4192C16.5485 12.6478 16.3632 12.8331 16.1346 12.8331C15.9059 12.8331 15.7206 12.6478 15.7206 12.4192C15.7206 12.1905 15.9059 12.0052 16.1346 12.0052C16.3632 12.0052 16.5485 12.1905 16.5485 12.4192Z" fill="#F7F8FA"/>
<path d="M12.4088 12.4191C12.4088 12.8764 12.0381 13.2471 11.5809 13.2471C11.1236 13.2471 10.7529 12.8764 10.7529 12.4191C10.7529 11.9619 11.1236 11.5912 11.5809 11.5912C12.0381 11.5912 12.4088 11.9619 12.4088 12.4191Z" fill="#F7F8FA"/>
<path d="M11.9949 7.86545C11.9949 8.09406 11.8095 8.27942 11.5809 8.27942C11.3523 8.27942 11.1669 8.09406 11.1669 7.86545C11.1669 7.63683 11.3523 7.45148 11.5809 7.45148C11.8095 7.45148 11.9949 7.63683 11.9949 7.86545Z" fill="#F7F8FA"/>
<path d="M11.9949 16.9728C11.9949 17.2014 11.8095 17.3868 11.5809 17.3868C11.3523 17.3868 11.1669 17.2014 11.1669 16.9728C11.1669 16.7442 11.3523 16.5588 11.5809 16.5588C11.8095 16.5588 11.9949 16.7442 11.9949 16.9728Z" fill="#F7F8FA"/>
<path d="M7.44116 12.4192C7.44116 12.6478 7.25581 12.8331 7.02719 12.8331C6.79858 12.8331 6.61322 12.6478 6.61322 12.4192C6.61322 12.1905 6.79858 12.0052 7.02719 12.0052C7.25581 12.0052 7.44116 12.1905 7.44116 12.4192Z" fill="#F7F8FA"/>
</g>
<defs>
<clipPath id="clip0">
<rect width="24" height="24" fill="white"/>
</clipPath>
</defs>
</svg>
