<svg width="24" height="24" viewBox="0 0 24 24" fill="none" xmlns="http://www.w3.org/2000/svg">
<path opacity="0.4" d="M13.7961 22.4169L12.0013 18.1851L10.2064 22.4169C11.3765 22.061 12.626 22.061 13.7961 22.4169Z" fill="white"/>
<path d="M4.08565 9.56402C3.57629 10.0733 3.17223 10.6779 2.89653 11.3433C2.62083 12.0087 2.47889 12.7219 2.47882 13.4421C2.47875 14.1624 2.62054 14.8756 2.89611 15.5411C3.17168 16.2066 3.57562 16.8112 4.08487 17.3206C4.59412 17.8299 5.19872 18.234 5.86413 18.5097C6.52954 18.7854 7.24273 18.9273 7.963 18.9274C8.68326 18.9275 9.39649 18.7857 10.062 18.5101C10.7274 18.2346 11.3321 17.8306 11.8414 17.3214C11.8643 17.2984 11.8916 17.2804 11.9218 17.2687C11.952 17.2569 11.9843 17.2515 12.0166 17.2529L12.0691 17.255C12.1267 17.2573 12.1815 17.2808 12.2229 17.321C13.2594 18.3415 14.6589 18.9084 16.1134 18.8971C17.5679 18.8857 18.9583 18.2971 19.9788 17.2605C20.9993 16.224 21.5662 14.8246 21.5548 13.3701C21.5435 11.9156 20.9548 10.5252 19.9183 9.50468L11.9959 1.58313L4.08565 9.56402Z" fill="#F7F8FA"/>
</svg>
