<svg width="24" height="24" viewBox="0 0 24 24" fill="none" xmlns="http://www.w3.org/2000/svg">
<g clip-path="url(#clip0)">
<path opacity="0.4" d="M5.46399 12.4852H2.74463C2.85203 14.6329 3.70414 16.6761 5.15462 18.2635L7.07629 16.342C6.13165 15.2672 5.56528 13.9125 5.46399 12.4852Z" fill="white"/>
<path opacity="0.4" d="M7.05182 7.71708L5.13015 5.79541C3.6705 7.40567 2.82451 9.47856 2.74054 11.6505H5.45725C5.53714 10.1986 6.09822 8.81477 7.05182 7.71708Z" fill="white"/>
<path opacity="0.4" d="M5.74402 18.8548C7.33492 20.3201 9.38906 21.1818 11.5494 21.29V18.5707C10.1095 18.4682 8.74381 17.8928 7.66487 16.9337L5.74402 18.8548Z" fill="white"/>
<path d="M12.0748 11.0619C12.0395 11.0715 12.0032 11.0764 11.9668 11.0766C11.9405 11.0766 11.9144 11.0739 11.8887 11.069C11.4369 11.1316 11.0922 11.5046 11.0651 11.9599C11.0747 11.9951 11.0796 12.0314 11.0798 12.0679C11.0796 12.094 11.0771 12.12 11.0723 12.1457C11.131 12.57 11.4646 12.9035 11.8887 12.9624C11.9144 12.9575 11.9405 12.9548 11.9668 12.9548C12.0032 12.955 12.0395 12.9599 12.0748 12.9695C12.5301 12.9424 12.9028 12.5976 12.9654 12.1457C12.9605 12.12 12.9581 12.094 12.9581 12.0679C12.9581 12.0314 12.963 11.9951 12.9725 11.9599C12.9438 11.4764 12.5582 11.0906 12.0748 11.0619Z" fill="#F7F8FA"/>
<path opacity="0.4" d="M18.2668 5.15157C16.6526 3.67705 14.5685 2.82168 12.3842 2.7373V5.45422C13.8485 5.53472 15.2435 6.10476 16.3451 7.07304L18.2668 5.15157Z" fill="white"/>
<path opacity="0.4" d="M16.937 7.66182C17.9199 8.76746 18.4991 10.1733 18.5804 11.6505H21.2971C21.2124 9.45326 20.3476 7.35815 18.858 5.74097L16.937 7.66182Z" fill="white"/>
<path opacity="0.4" d="M11.5494 5.46076V2.74139C9.37641 2.85023 7.31126 3.72149 5.7171 5.20172L7.63735 7.12217C8.72016 6.1486 10.0969 5.56408 11.5494 5.46076Z" fill="white"/>
<path d="M12.019 -7.89875e-05C7.15903 -7.89875e-05 2.77765 2.92757 0.917932 7.41739C-0.941783 11.9074 0.0862062 17.0755 3.52255 20.512C8.21902 25.181 15.8077 25.17 20.4905 20.4872C25.1731 15.8046 25.1843 8.21569 20.5151 3.51922C18.2668 1.25862 15.2073 -0.00863875 12.019 -7.89875e-05ZM12.019 22.1366C6.43818 22.1366 1.89782 17.5964 1.89782 12.0156C1.89782 6.43485 6.43818 1.89469 12.019 1.89469C17.5995 1.89469 22.1399 6.43485 22.1399 12.0156C22.1399 17.5964 17.5995 22.1366 12.019 22.1366Z" fill="#F7F8FA"/>
<path opacity="0.4" d="M12.3842 18.5772V21.2941C14.5559 21.2101 16.6288 20.3641 18.2393 18.9045L16.3174 16.9826C15.2199 17.9364 13.8359 18.4975 12.3842 18.5772Z" fill="white"/>
<path opacity="0.4" d="M16.9125 16.3973L18.8327 18.3175C20.3132 16.7231 21.1844 14.6582 21.2933 12.4852H18.5737C18.4706 13.9377 17.8858 15.3142 16.9125 16.3973Z" fill="white"/>
<path d="M17.7558 12.0157C17.7558 8.84717 15.1873 6.27863 12.019 6.27863C8.85041 6.27863 6.28186 8.84717 6.28186 12.0157C6.28186 15.1843 8.85041 17.7528 12.019 17.7528C15.1859 17.7491 17.7524 15.1826 17.7558 12.0157ZM14.6798 12.4853H13.7474C13.5695 13.135 13.0433 13.6309 12.3842 13.7695V14.6766C12.3842 14.9071 12.1973 15.094 11.9668 15.094C11.7363 15.094 11.5494 14.9071 11.5494 14.6766V13.7442C10.9368 13.5765 10.4582 13.0979 10.2905 12.4853H9.35808C9.12758 12.4853 8.94069 12.2984 8.94069 12.0679C8.94069 11.8374 9.12758 11.6505 9.35808 11.6505H10.265C10.4038 10.9914 10.8995 10.465 11.5494 10.2873V9.35485C11.5494 9.12435 11.7363 8.93746 11.9668 8.93746C12.1973 8.93746 12.3842 9.12435 12.3842 9.35485V10.262C13.0814 10.4085 13.6262 10.9533 13.7727 11.6505H14.6798C14.9103 11.6505 15.0972 11.8374 15.0972 12.0679C15.0972 12.2984 14.9103 12.4853 14.6798 12.4853Z" fill="#F7F8FA"/>
</g>
<defs>
<clipPath id="clip0">
<rect width="24" height="24" fill="white"/>
</clipPath>
</defs>
</svg>
