<svg width="24" height="24" viewBox="0 0 24 24" fill="none" xmlns="http://www.w3.org/2000/svg">
<path d="M3.26347 15.5555C3.67956 17.2475 5.0807 18.3259 6.86183 18.3259C9.95281 18.3259 13.0438 18.3281 16.1348 18.3238C16.64 18.3238 17.1453 18.3429 17.6505 18.2856C19.6907 18.05 21.1491 15.9546 20.646 13.9612C20.3467 12.7702 19.5527 11.8744 18.4933 11.4604C18.3108 11.7385 18.09 11.9996 17.8331 12.2353C16.1369 13.7977 13.496 13.6895 11.9314 11.9932C11.9271 11.989 11.925 11.9869 11.9208 11.9826C11.8486 11.9168 11.7361 11.9211 11.6681 11.9932C11.1289 12.5792 10.4326 12.9995 9.66197 13.2012C7.92329 13.6597 6.15065 12.9528 5.17623 11.5623C3.73901 12.2586 2.86436 13.9336 3.26347 15.5555ZM11.7998 11.9508L13.2136 14.6639C13.0459 14.6108 12.874 14.5684 12.702 14.5344L11.8019 12.8042L10.9018 14.5344C10.7298 14.5684 10.5578 14.6108 10.3901 14.6639L11.7998 11.9508Z" fill="#F7F8FA"/>
<path opacity="0.4" d="M14.36 19.1072C12.5704 19.1157 10.7808 19.1135 8.99117 19.105C8.79798 19.105 8.77039 19.1709 8.77251 19.3386C8.781 19.9882 8.78312 20.6378 8.77251 21.2874C8.77039 21.4615 8.80435 21.5167 8.99117 21.5146C9.8828 21.5039 10.7723 21.5103 11.6639 21.5103C11.6639 21.5103 11.6639 21.5103 11.6639 21.5082C12.5789 21.5082 13.4939 21.5039 14.4089 21.5124C14.5575 21.5146 14.5978 21.4721 14.5957 21.3235C14.5872 20.6654 14.5851 20.0073 14.5957 19.3513C14.5999 19.1666 14.5596 19.105 14.36 19.1072Z" fill="white"/>
<path opacity="0.4" d="M18.8627 18.7739C18.3787 18.9777 17.8777 19.1008 17.3512 19.1072C16.7568 19.1136 16.1645 19.1157 15.5701 19.1093C15.4257 19.1072 15.3748 19.1433 15.3769 19.2962C15.3854 19.9776 15.3833 20.6591 15.3769 21.3405C15.3748 21.4806 15.4215 21.5125 15.5531 21.5104C16.122 21.504 16.6931 21.5146 17.2621 21.5082C18.8585 21.4934 20.2596 20.9499 21.5228 19.9288C20.7033 19.5254 19.9136 19.1412 19.1302 18.7463C19.0198 18.6932 18.9455 18.7378 18.8627 18.7739Z" fill="white"/>
<path opacity="0.4" d="M18.8967 10.7725C19.0092 10.8214 19.092 10.8023 19.1875 10.7534C19.5165 10.59 19.8456 10.4265 20.1747 10.2652C20.6162 10.0465 21.0599 9.82571 21.5163 9.60068C20.7818 8.9914 19.9772 8.56044 19.0898 8.29083C19.2639 9.1124 19.1875 9.97643 18.8648 10.7577C18.8754 10.7619 18.886 10.7683 18.8967 10.7725Z" fill="white"/>
<path opacity="0.4" d="M7.99334 19.5253C7.99334 19.1114 7.99547 19.1071 7.57725 19.1114C6.68562 19.1241 5.79612 19.139 4.96394 18.7377C4.89813 18.7059 4.84718 18.7165 4.78561 18.7483C4.00013 19.139 3.21253 19.5253 2.3952 19.9266C3.15733 20.5613 3.99376 20.9944 4.91723 21.2683C5.88104 21.5549 6.8682 21.5039 7.85323 21.5103C8.00396 21.5124 7.99547 21.4296 7.99547 21.3277C7.99122 20.729 7.99122 20.1282 7.99334 19.5253Z" fill="white"/>
<path opacity="0.4" d="M4.55851 10.2291C4.39504 9.60916 4.38018 8.98715 4.49058 8.39697C3.7518 8.66022 3.05336 9.06145 2.39313 9.59642C3.1871 9.98916 3.96197 10.3692 4.73683 10.7555C4.66466 10.5878 4.60521 10.4116 4.55851 10.2291Z" fill="white"/>
<path opacity="0.4" d="M0.198012 14.3773C0.864609 14.3646 1.53121 14.3688 2.1978 14.3752C2.34853 14.3773 2.40585 14.3391 2.42071 14.1799C2.44831 13.87 2.52898 13.5685 2.63937 13.2755C2.93233 12.5007 3.40362 11.8574 4.08083 11.3182C3.32932 10.9467 2.6054 10.5943 1.88573 10.2313C1.78596 10.1803 1.74987 10.2207 1.69255 10.2865C1.2531 10.7811 0.89433 11.3267 0.611981 11.9232C0.27656 12.6323 0.0854969 13.3774 0.00482588 14.1544C-0.0100346 14.3073 0.00907174 14.3816 0.198012 14.3773Z" fill="white"/>
<path opacity="0.4" d="M4.02562 18.1687C4.00227 18.1454 3.97892 18.1241 3.95344 18.105C3.08304 17.3663 2.55443 16.4385 2.41432 15.3007C2.39946 15.186 2.35276 15.1563 2.24449 15.1563C1.54605 15.1605 0.849728 15.1627 0.151286 15.1542C0.0111735 15.152 -0.0121787 15.2094 0.0048047 15.324C0.0408944 15.5766 0.0578778 15.8335 0.108828 16.084C0.355087 17.2813 0.88794 18.3364 1.6989 19.2535C1.75197 19.313 1.78381 19.3469 1.8751 19.3002C2.60114 18.9351 3.3293 18.5806 4.05746 18.2197C4.0426 18.1942 4.03623 18.1793 4.02562 18.1687Z" fill="white"/>
<path opacity="0.4" d="M19.939 11.4115C20.8222 12.1524 21.355 13.0887 21.4973 14.2372C21.5121 14.3582 21.5716 14.3752 21.6735 14.373C22.3634 14.3709 23.0534 14.3667 23.7454 14.3752C23.8962 14.3773 23.9216 14.3178 23.9047 14.1926C23.8707 13.9463 23.8516 13.6979 23.8006 13.4559C23.5586 12.2543 23.0236 11.1971 22.2127 10.28C22.1617 10.2227 22.132 10.1802 22.0386 10.2269C21.3126 10.5921 20.5823 10.9466 19.8138 11.3266C19.8732 11.367 19.9093 11.3861 19.939 11.4115Z" fill="white"/>
<path opacity="0.4" d="M23.6329 15.1501C22.9918 15.1692 22.3486 15.1607 21.7053 15.1543C21.5694 15.1522 21.5058 15.1798 21.4909 15.3326C21.4527 15.7572 21.3253 16.1606 21.1491 16.5469C20.8519 17.2008 20.4146 17.7443 19.835 18.2092C20.5823 18.5807 21.2977 18.9331 22.011 19.2898C22.1065 19.3386 22.1554 19.3237 22.2276 19.2388C22.5587 18.8567 22.8474 18.4448 23.0958 18.0033C23.5438 17.2051 23.7921 16.3453 23.9047 15.4409C23.9323 15.2116 23.8749 15.1437 23.6329 15.1501Z" fill="white"/>
<path d="M6.11246 10.4583C6.2462 10.7364 6.41604 10.9912 6.61347 11.2183C7.43929 12.1652 8.75762 12.6174 10.0547 12.2756C10.6831 12.11 11.2521 11.7682 11.6915 11.2884C11.7467 11.229 11.838 11.2247 11.8974 11.2799C11.8995 11.282 11.9038 11.2863 11.9059 11.2884C13.1818 12.6725 15.3387 12.7617 16.7228 11.4858C16.8205 11.3967 16.9096 11.3033 16.9946 11.2056C17.2005 10.9657 17.3703 10.7046 17.4998 10.4286C17.8501 9.68135 17.9159 8.83006 17.6909 8.04033C17.5486 7.54357 17.2939 7.07228 16.9203 6.66892C16.4808 6.19127 15.9119 5.84948 15.2835 5.68389C15.2113 5.66478 15.1667 5.59685 15.1752 5.52254C15.4321 3.6565 14.1244 1.93905 12.2583 1.68642C10.3923 1.43379 8.67483 2.73939 8.4222 4.60544C8.38187 4.90902 8.38187 5.21684 8.4222 5.52042C8.43282 5.5926 8.38611 5.66266 8.31393 5.68176C7.09962 6.00233 6.21224 6.93853 5.89804 8.06581C5.74095 8.6305 5.72609 9.24191 5.88743 9.84906C5.94475 10.0635 6.02117 10.2673 6.11246 10.4583Z" fill="#F7F8FA"/>
</svg>
