<svg width="54" height="50" viewBox="0 0 54 50" fill="none" xmlns="http://www.w3.org/2000/svg">
<path fill-rule="evenodd" clip-rule="evenodd" d="M42.1363 26.254C43.3626 26.1536 44.5889 26.1536 45.7244 25.9526C46.8145 25.7516 47.1778 24.8473 47.2687 23.943C47.3595 22.7875 46.8599 21.9837 45.9061 21.632C44.6798 21.2301 43.4081 21.5315 42.1363 21.431C42.1363 23.0387 42.1363 24.5459 42.1363 26.254ZM42.1363 35.3977C43.5443 35.2972 44.9523 35.2972 46.3149 35.0962C47.4049 34.9455 48.0862 33.991 48.177 32.9862C48.3133 31.1775 47.5866 30.4239 46.542 30.0723C45.134 29.5699 43.6351 29.8713 42.1817 29.7708C42.1363 31.6297 42.1363 33.4383 42.1363 35.3977ZM49.1763 27.711C49.4942 27.8617 49.903 28.0627 50.2663 28.2636C51.538 29.0172 52.3556 30.1727 52.6735 31.7302C52.9006 32.9862 52.8098 34.2422 52.3556 35.4479C51.9922 36.5029 51.3564 37.3068 50.4934 37.8594C49.5396 38.4623 48.495 38.8642 47.4049 38.9145C45.4519 39.0149 43.4535 39.0652 41.5005 39.1154C40.5012 39.1154 39.502 39.1154 38.5482 39.1154C38.0486 39.1154 37.8669 38.9145 37.8669 38.3618C37.8669 31.6799 37.8669 24.998 37.8669 18.3664C37.8669 17.7133 38.0032 17.6128 38.5936 17.6128C40.8646 17.6128 43.181 17.6128 45.4519 17.6128C46.8599 17.6128 48.177 17.864 49.4488 18.6678C50.6751 19.4214 51.4018 20.5769 51.6743 22.0841C51.9922 23.742 51.6289 25.199 50.6751 26.455C50.2209 26.9072 49.6305 27.3091 49.1763 27.711Z" fill="#959596"/>
<path fill-rule="evenodd" clip-rule="evenodd" d="M10.4331 22.4862C9.61559 25.1489 8.88889 27.7614 8.11677 30.3739C9.66101 30.3739 11.1598 30.3739 12.7495 30.3739C11.9774 27.7614 11.2053 25.1489 10.4331 22.4862ZM10.6148 17.5627C11.2053 17.5627 11.8411 17.5627 12.4316 17.5627C12.8403 17.5627 13.1128 17.7135 13.2945 18.2159C14.4754 21.7829 15.6563 25.3499 16.8372 28.9169C17.8818 32.0318 18.9265 35.1467 19.9257 38.2615C20.1528 38.9649 20.0619 39.1156 19.3807 39.1156C18.2452 39.1156 17.1097 39.1156 15.9742 39.1156C15.52 39.1156 15.2475 38.8644 15.1113 38.4122C14.7025 37.106 14.2937 35.7998 13.9304 34.4935C13.8395 34.2423 13.7487 34.1921 13.567 34.1921C11.5232 34.1921 9.47933 34.1921 7.39006 34.1921C7.16297 34.1921 7.07213 34.2926 7.02671 34.5438C6.61794 35.85 6.20917 37.2065 5.84582 38.5127C5.61872 38.9146 5.34621 39.1156 4.93744 39.1156C3.80197 39.1156 2.66649 39.1156 1.53102 39.1156C1.03141 39.1156 0.895157 38.9146 1.07683 38.4122C1.93979 35.9003 2.75733 33.4385 3.62029 30.9265C4.30158 28.9169 4.98286 26.9073 5.66414 24.8977C6.39085 22.7374 7.11755 20.5269 7.84425 18.3666C8.07135 17.7637 8.29844 17.5627 8.88889 17.5627C9.47933 17.5627 10.0244 17.5627 10.6148 17.5627Z" fill="#959596"/>
<path fill-rule="evenodd" clip-rule="evenodd" d="M23.7863 28.364C23.8317 31.3282 25.4214 33.8402 27.9194 34.7445C30.0087 35.4981 31.8709 34.9454 33.506 33.3378C33.8693 32.9861 34.051 32.9861 34.3689 33.3378C35.0048 34.0411 35.6407 34.7445 36.2765 35.4478C36.5945 35.8498 36.5945 36.2014 36.2765 36.5531C34.7777 38.1608 33.0064 39.1153 30.9171 39.467C29.3728 39.7685 27.8286 39.6177 26.3298 39.1656C24.9218 38.7134 23.6955 37.9096 22.6054 36.8546C20.7887 35.0962 19.6532 32.8856 19.2898 30.3234C18.7902 26.9573 19.4261 23.8425 21.4245 21.1798C22.9234 19.1199 24.8764 17.7635 27.2836 17.2611C27.9649 17.1103 28.6461 16.9596 29.3274 17.0099C31.6892 17.1103 33.8693 17.8639 35.7315 19.5721C35.8678 19.7228 36.004 19.8233 36.1403 19.974C36.549 20.3257 36.5945 20.6774 36.1857 21.1295C35.5952 21.8329 34.9594 22.5362 34.2781 23.2396C34.0056 23.4908 33.6876 23.541 33.3697 23.2396C32.5068 22.486 31.553 21.8831 30.4629 21.7324C29.0095 21.5314 27.6015 21.8329 26.3752 22.7874C24.7401 24.0937 23.8317 26.0028 23.7863 28.364Z" fill="#959596"/>
<path fill-rule="evenodd" clip-rule="evenodd" d="M33.7304 28.7733C33.7304 30.9421 32.0155 32.6569 29.8467 32.6569C27.7283 32.6569 25.9125 30.9925 25.9629 28.6724C26.0134 26.4532 27.6778 24.8896 29.8467 24.8896C31.9651 24.8392 33.7304 26.4027 33.7304 28.7733Z" fill="#959596"/>
</svg>
