<svg width="76" height="50" viewBox="0 0 76 50" fill="none" xmlns="http://www.w3.org/2000/svg">
<g clip-path="url(#clip0)">
<path d="M19.9648 19.6813H16.1896V36.6883H19.9648V19.6813Z" fill="#959596"/>
<path d="M42.6953 30.7105C42.2755 29.6074 38.4431 19.6795 38.4431 19.6795L34.3438 19.6832L34.4138 19.8636L40.9109 36.6901H44.4651L51.0064 19.6832H46.896C46.896 19.6832 43.3638 28.88 42.6953 30.7105Z" fill="#959596"/>
<path d="M30.3899 33.1322C29.517 33.7381 28.169 34.053 26.2961 34.053H25.6442V22.3166H26.1764C28.6478 22.3203 29.5097 22.51 30.4636 23.1895C31.714 24.1214 32.4396 25.939 32.4396 28.1839C32.4378 30.4306 31.6864 32.2464 30.3899 33.1322ZM33.3806 21.3535C31.7914 20.1436 29.8596 19.6795 26.4508 19.6813H21.8726V36.6883H26.2077C29.5796 36.6883 31.3475 36.3476 32.8853 35.3863C35.0786 34.0014 36.2185 31.4785 36.2167 28.1618C36.2204 25.1121 35.2609 22.7862 33.3806 21.3535Z" fill="#959596"/>
<path d="M9.21003 33.7657C8.51943 34.064 7.37583 34.029 5.37773 34.029H3.87863V29.6369H5.40713C7.00933 29.6369 8.31503 29.6976 9.10133 29.9407C10.0589 30.2354 10.5525 30.8376 10.5525 31.8394C10.5525 33.0033 9.99633 33.4268 9.21003 33.7657ZM3.88233 22.2982H5.06273C7.00013 22.3 8.30023 22.2319 9.02213 22.6002C9.68883 22.9317 10.0976 23.3958 10.0976 24.3092C10.0958 25.149 9.72383 25.6167 9.05163 25.9777C8.46053 26.2944 6.96513 26.4436 5.21563 26.4417H3.88233V22.2982ZM10.6998 27.9426C12.8324 27.3552 13.8968 26.0882 13.8839 24.1803C13.8857 22.521 12.9815 21.0901 11.4383 20.4087C10.1363 19.8139 8.76803 19.6205 5.85653 19.6205H0.0997314V36.6275H6.53603C9.25793 36.6275 10.6261 36.4083 11.8692 35.7859C13.4622 34.9645 14.3406 33.5557 14.3388 31.8725C14.3517 29.8118 13.1049 28.4896 10.6998 27.9426Z" fill="#959596"/>
<path d="M61.1663 20.4658L61.1645 29.8615H63.1331L64.9379 29.8634L64.9397 20.4677L63.1331 20.4658" fill="#959596"/>
<path d="M59.0964 22.335H60.9822V28.0236H59.0964V22.335ZM66.1423 28.0236L65.1239 28.0255L65.1257 22.3369H66.146C67.1809 22.3369 67.9691 23.6131 67.9746 25.1784C67.9857 26.7106 67.1809 28.0236 66.1423 28.0236Z" fill="#959596"/>
<path d="M63.0484 39.2573L63.0429 39.2591L51.7669 28.0144L63.0484 16.7679L63.0503 16.7716L74.3318 28.02L63.0484 39.2573ZM51.0027 28.0144L51.1021 28.1157L62.5991 39.5795L63.0503 40.0307L63.5015 39.5795L75.0997 28.0181L63.054 16" fill="#959596"/>
<path d="M63.0484 33.4379L57.6121 28.0144H52.2752L61.6709 37.3862L61.7704 37.4875L63.0484 38.76L73.8272 28.0144H68.4884" fill="#959596"/>
</g>
<defs>
<clipPath id="clip0">
<rect width="75" height="50" fill="white" transform="translate(0.0997314)"/>
</clipPath>
</defs>
</svg>
