<svg width="123" height="50" viewBox="0 0 123 50" fill="none" xmlns="http://www.w3.org/2000/svg">
<path d="M111.944 25.3972C109.775 19.8439 107.631 14.2649 105.488 8.71159C105.382 8.45568 105.25 8.30213 104.933 8.32772C104.456 8.35331 103.98 8.32772 103.504 8.32772C102.154 8.32772 101.202 8.91633 100.752 10.1447C98.8733 15.263 96.9946 20.3813 95.116 25.4996C94.9837 25.8835 95.116 25.9091 95.4335 25.9091C96.0685 25.8835 96.6771 25.8835 97.3121 25.9091C97.6561 25.9347 97.8149 25.8067 97.9207 25.474C98.4499 23.8618 99.0056 22.2495 99.5612 20.6116C99.6406 20.3557 99.7464 20.2022 100.09 20.2278C102.128 20.2534 104.139 20.2534 106.176 20.2278C106.52 20.2278 106.652 20.3557 106.758 20.6372C107.182 21.84 107.605 23.0684 108.028 24.2712C108.214 24.783 108.266 25.4484 108.663 25.7555C109.06 26.0626 109.748 25.8067 110.224 25.8579C110.78 25.8579 111.203 25.8323 111.653 25.8579C111.971 25.8579 112.077 25.8067 111.944 25.3972ZM105.329 18.206C103.821 18.1804 102.313 18.1804 100.805 18.206C100.408 18.206 100.381 18.1037 100.514 17.771C101.334 15.6725 102.154 13.5484 102.975 11.4499C103.001 11.3731 103.001 11.3219 103.16 11.2963C103.98 13.446 104.827 15.6213 105.673 17.771C105.806 18.1293 105.7 18.206 105.329 18.206Z" fill="#858484"/>
<path d="M80.0076 17.5663C80.0076 15.7238 80.0076 13.9068 80.0076 12.0642C80.0076 11.7059 79.9017 11.6035 79.5313 11.6291C79.0286 11.6547 78.5258 11.6803 78.0496 11.6291C77.5468 11.5779 77.441 11.7827 77.441 12.2177C77.4674 15.1607 77.441 18.0782 77.441 21.0212C77.4145 21.0468 77.3881 21.0468 77.3351 21.0724C77.2558 20.9444 77.1499 20.8165 77.0706 20.6885C75.3771 18.1549 73.6043 15.647 72.0168 13.0622C71.3288 11.9362 70.5879 11.4756 69.2385 11.6035C67.8626 11.7315 67.2276 12.2433 67.2276 13.5997C67.2276 17.1569 67.2276 20.7141 67.2276 24.2713C67.2276 24.8087 67.0424 25.5509 67.307 25.8836C67.6245 26.2419 68.4183 25.9348 69.0004 26.0115C69.4502 26.0627 69.5825 25.9092 69.5825 25.4741C69.556 22.3775 69.5825 19.281 69.5825 16.1844C69.5825 16.0053 69.5825 15.8517 69.5825 15.519C69.7942 15.8005 69.9 15.9541 70.0058 16.1332C72.0697 19.2554 74.16 22.3775 76.2238 25.4997C76.4355 25.8324 76.6472 26.0627 77.1235 26.0371C77.8643 25.9859 78.6052 25.9859 79.3196 26.0371C79.7959 26.0627 79.9546 25.9604 79.9282 25.4741C79.9811 22.8126 80.0076 20.2023 80.0076 17.5663Z" fill="#858484"/>
<path d="M38.2535 25.9346C40.8201 25.909 43.4132 25.9346 45.9797 25.909C46.9323 25.909 47.8319 25.6787 48.6786 25.2436C50.0281 24.5526 51.0071 23.5546 51.0865 22.0191C51.1923 20.1509 51.0865 18.2827 51.1658 16.4145C51.2717 13.7274 49.0491 11.8848 46.8529 11.7057C44.4186 11.501 41.9579 11.6289 39.5236 11.6545C38.5181 11.6545 37.8302 12.4735 37.8302 13.4715C37.8302 15.4165 37.8302 17.387 37.8302 19.332C37.8302 21.3793 37.8302 23.4266 37.8302 25.4739C37.8037 25.8066 37.8566 25.9346 38.2535 25.9346ZM41.5875 13.4971C42.6458 13.5227 43.6778 13.4971 44.7361 13.5227C46.5619 13.5483 47.9113 14.7255 47.9907 16.4913C48.0701 18.078 48.0436 19.6647 47.9907 21.2257C47.9113 22.8892 46.7206 23.964 44.9743 24.0152C43.8365 24.0408 42.6988 24.0152 41.561 24.0408C41.1906 24.0408 41.1376 23.9128 41.1376 23.6058C41.1376 21.9935 41.1376 20.3812 41.1376 18.7434C41.1376 17.1567 41.1376 15.57 41.1376 14.0089C41.1112 13.6507 41.1906 13.4971 41.5875 13.4971Z" fill="#858484"/>
<path d="M61.1679 25.986C63.9726 26.0627 65.5867 24.0154 65.9571 22.1728C66.1952 20.9956 66.01 19.7928 66.0629 18.8203C66.0629 17.7967 66.0629 16.9778 66.0629 16.1588C66.0629 13.83 64.396 11.8851 62.0146 11.5268C60.2154 11.2709 58.3632 11.2964 56.5639 11.4756C53.9444 11.7571 52.3568 13.5997 52.3568 16.1332C52.3568 17.8991 52.3304 19.6649 52.3833 21.4051C52.4362 23.9131 54.1825 25.73 56.7491 25.9348C58.2044 26.0371 59.6862 25.9604 61.1679 25.986ZM55.6907 21.533C55.6643 19.6393 55.6643 17.7199 55.6907 15.8261C55.7172 14.4698 57.0137 13.1134 58.4955 13.2414C58.9717 13.2926 59.448 13.2414 59.9243 13.2414C61.459 13.2414 62.729 14.4186 62.7819 15.9029C62.8084 16.8498 62.7819 17.7967 62.7819 18.7436C62.7819 19.6137 62.7819 20.4838 62.7819 21.3539C62.7555 23.0174 61.5383 24.1946 59.8185 24.1946C59.3951 24.1946 58.9717 24.169 58.5484 24.1946C57.0137 24.3737 55.7172 22.8638 55.6907 21.533Z" fill="#858484"/>
<path d="M91.7553 16.6195C92.4433 16.5939 93.1577 16.6195 93.8456 16.6195C94.0309 16.6195 94.2161 16.6451 94.2161 16.3636C94.3484 14.0348 93.0783 11.8851 90.5647 11.5268C89.03 11.2965 87.4689 11.45 85.9342 11.45C83.5264 11.45 81.3832 13.267 81.1979 15.5959C81.0392 17.6944 81.0127 19.8185 81.2244 21.9426C81.4361 24.2458 83.156 25.8581 85.5109 25.986C87.1514 26.0884 88.8183 26.0372 90.4853 25.986C91.7024 25.9604 92.8402 25.5765 93.8192 24.86C94.0309 24.7064 94.2425 24.5529 94.2425 24.2202C94.2161 22.3008 94.2425 20.3815 94.2425 18.4621C94.2425 18.2318 94.1896 18.1038 93.925 18.1038C92.1522 18.1038 90.353 18.1038 88.5802 18.1038C88.342 18.1038 88.2627 18.1806 88.2627 18.4109C88.2891 18.8972 88.2891 19.409 88.2627 19.8952C88.2362 20.2791 88.4214 20.3303 88.7389 20.3303C89.4269 20.3047 90.1413 20.3559 90.8293 20.3047C91.2261 20.2791 91.332 20.4327 91.3055 20.7909C91.2791 21.4563 91.2526 22.0961 91.3055 22.7615C91.332 23.2221 91.1203 23.5036 90.7499 23.6828C90.5117 23.8107 90.2471 23.9131 89.9825 23.9899C89.1094 24.297 88.2098 24.1946 87.3101 24.1946C85.6432 24.1946 84.426 23.0686 84.3996 21.4307C84.3731 20.535 84.3996 19.6137 84.3996 18.718C84.3996 17.7967 84.3996 16.8754 84.3996 15.9541C84.3996 15.1096 84.77 14.3931 85.405 13.83C86.3311 13.0111 89.0565 12.9599 90.0884 13.7277C90.9086 14.3419 91.332 15.1096 91.2791 16.1077C91.2526 16.466 91.3584 16.6195 91.7553 16.6195Z" fill="#858484"/>
<path d="M43.4403 35.378C43.7579 35.3013 43.9166 35.2501 44.0489 35.1989C44.975 34.8662 45.663 34.3032 45.9805 33.3563C46.6155 31.3858 45.2396 29.5176 43.017 29.4408C40.8208 29.3641 38.6512 29.4152 36.455 29.3896C36.1375 29.3896 36.0581 29.4664 36.0581 29.7735C36.0581 30.0806 36.1639 30.183 36.4815 30.1574C36.6667 30.1318 36.8519 30.1574 37.0371 30.183C37.8574 30.2342 37.9632 30.3365 37.9632 31.1043C37.9632 33.8937 37.9632 36.6832 37.9632 39.4727C37.9632 40.9826 37.9632 40.9826 36.4021 41.1105C36.0581 41.1361 36.0846 41.3153 36.0846 41.52C36.0846 41.7503 36.1375 41.8783 36.4021 41.8783C38.7041 41.8271 41.0061 41.9806 43.2816 41.7759C44.6575 41.648 45.8746 41.1873 46.4568 39.831C47.3828 37.6557 46.1128 35.7107 43.4403 35.378ZM39.736 32.8701H39.7625C39.7625 32.2047 39.7625 31.5137 39.7625 30.8484C39.7625 30.4645 40.0006 30.2342 40.371 30.2086C41.1648 30.1574 41.9851 30.1318 42.7789 30.3109C43.3874 30.4389 43.7843 30.7972 43.996 31.3602C44.3135 32.1535 44.3135 32.9725 44.0489 33.7658C43.7843 34.5335 43.1493 34.8918 42.329 34.9942C41.5882 35.0965 40.8208 35.071 40.08 35.071C39.7889 35.071 39.7095 34.943 39.7095 34.6871C39.736 34.0729 39.736 33.4843 39.736 32.8701ZM44.7104 38.9864C44.4987 40.394 43.8637 40.9826 42.4084 41.0849C41.8528 41.1361 41.2971 41.1361 40.7679 41.1361C39.9477 41.1361 39.7889 40.9826 39.7625 40.2148C39.736 39.5495 39.7625 38.8585 39.7625 38.1931C39.7625 37.5277 39.7625 36.8879 39.7625 36.2226C39.7625 35.9922 39.8154 35.8643 40.08 35.8643C40.8473 35.8387 41.6146 35.7875 42.382 35.8899C44.1548 36.0946 44.975 37.2206 44.7104 38.9864Z" fill="#858484"/>
<path d="M76.647 41.2641C75.9061 41.2129 75.4034 40.7779 75.0065 40.2149C74.3979 39.3704 73.7893 38.5258 73.2072 37.6557C72.5457 36.7088 72.5457 36.6832 73.3924 35.8643C74.1068 35.1733 74.7948 34.4312 75.9326 34.4568C76.1707 34.4568 76.1178 34.3032 76.1178 34.1753C76.1442 33.9705 76.0649 33.8938 75.8532 33.8938C74.5831 33.8938 73.3131 33.8938 72.043 33.8938C71.8049 33.8938 71.7255 33.9705 71.7255 34.2009C71.7255 34.4312 71.8313 34.4824 72.0165 34.4824C72.2282 34.4824 72.4663 34.4824 72.678 34.508C73.1278 34.5847 73.2601 34.8407 72.9426 35.1222C72.0695 35.9411 71.1434 36.7088 70.2173 37.5022C70.2437 37.4766 70.2967 37.2974 70.2967 37.1439C70.2967 34.6359 70.2967 32.128 70.2967 29.62C70.2967 29.4153 70.4025 29.1338 69.9791 29.1593C69.1854 29.2105 68.3916 29.2617 67.6242 29.3129C67.4919 29.3129 67.3067 29.3129 67.3067 29.5176C67.3067 29.6968 67.2009 29.9271 67.3861 30.0039C67.5713 30.0806 67.8095 30.0806 68.0211 30.0806C68.5503 30.0806 68.762 30.311 68.762 30.8484C68.762 34.1497 68.762 37.4254 68.762 40.7267C68.762 41.1106 68.6032 41.2897 68.2328 41.2897C68.074 41.2897 67.9417 41.3153 67.783 41.3153C67.5449 41.3153 67.4126 41.3409 67.4126 41.6224C67.4126 41.9039 67.5184 41.9551 67.783 41.9551C68.8943 41.9551 70.0321 41.9551 71.1434 41.9551C71.355 41.9551 71.5138 41.9551 71.5403 41.648C71.5667 41.3409 71.3815 41.3153 71.1434 41.3153C70.8788 41.3153 70.5877 41.3921 70.376 41.1362C70.2173 40.9314 70.2173 38.8841 70.376 38.6794C70.4025 38.6282 70.4554 38.6026 70.4819 38.577C70.7729 38.3211 71.0375 38.0652 71.355 37.7837C72.0695 38.8073 72.7574 39.8054 73.4189 40.8291C73.6041 41.1106 73.5247 41.3665 73.1014 41.3665C72.9691 41.3665 72.8368 41.3921 72.7045 41.3665C72.4399 41.3409 72.3605 41.4689 72.3605 41.6992C72.3605 41.9807 72.5193 41.9807 72.7045 41.9807C73.9481 41.9807 75.2182 41.9807 76.4618 41.9807C76.6734 41.9807 76.8057 41.9551 76.8057 41.6992C76.9116 41.4433 76.938 41.2897 76.647 41.2641Z" fill="#858484"/>
<path d="M66.3013 41.2642C66.169 41.2642 66.0367 41.2642 65.9044 41.2642C65.4281 41.3154 65.2164 41.1106 65.2694 40.65C65.2958 40.2149 65.2958 39.8055 65.2694 39.3704C65.2429 38.2188 65.3487 37.0672 65.19 35.9156C64.9254 34.1241 63.179 33.1261 61.5915 33.817C60.9564 34.0986 60.5331 34.6104 60.0833 35.3014C60.0833 34.9175 60.0568 34.6872 60.0833 34.4568C60.1362 34.0218 60.0039 33.8426 59.5276 33.9194C58.8926 33.9962 58.2311 34.0218 57.5961 34.0474C57.3315 34.0474 57.1727 34.073 57.1462 34.4057C57.1462 34.7639 57.305 34.7895 57.5961 34.8151C58.3898 34.8407 58.5221 34.9431 58.5221 35.7364C58.5221 37.1951 58.5221 38.6538 58.5221 40.1126C58.5221 41.1362 58.5221 41.1618 57.4638 41.2898C57.1727 41.3154 57.1462 41.4433 57.1462 41.648C57.1462 41.8784 57.2521 41.9551 57.4902 41.9551C58.6809 41.9551 59.8716 41.9551 61.0887 41.9551C61.3269 41.9551 61.4062 41.8784 61.4062 41.648C61.4592 41.2386 61.1416 41.3154 60.9035 41.2898C60.5595 41.2386 60.0568 41.3921 60.0568 40.7779C60.0568 39.4472 60.0568 38.1164 60.1097 36.7857C60.1362 36.0947 60.4537 35.5317 61.0094 35.071C61.5121 34.6616 62.0942 34.5592 62.7292 34.7895C63.3378 34.9943 63.6024 35.4293 63.6553 36.0435C63.8141 37.451 63.7082 38.8586 63.7347 40.2405C63.7612 41.2386 63.7347 41.2386 62.7292 41.3154C62.4911 41.3409 62.3588 41.3409 62.3853 41.6225C62.3853 41.904 62.544 41.9296 62.7557 41.9296C63.9199 41.9296 65.1106 41.9296 66.2748 41.9296C66.5659 41.9296 66.5923 41.8016 66.5923 41.5713C66.6188 41.3409 66.5394 41.2386 66.3013 41.2642Z" fill="#858484"/>
<path d="M56.0611 40.9825C55.3731 41.2128 54.9498 40.9313 54.9498 40.2148C54.9498 39.4214 54.9762 38.6281 54.9762 37.8092C54.9762 36.9902 55.0556 36.1713 54.9233 35.3524C54.8439 34.8406 54.5793 34.4311 54.1295 34.124C52.833 33.2539 50.3458 33.4586 49.2345 34.5079C48.7582 34.9429 48.573 35.4803 48.7582 36.1201C48.8905 36.6575 49.3932 36.9391 49.9489 36.7599C50.4516 36.6064 50.6633 36.1201 50.4516 35.5827C50.3987 35.4547 50.3193 35.3268 50.2664 35.1988C50.0812 34.9173 50.2135 34.7126 50.4781 34.5846C51.2719 34.2519 52.0921 34.2519 52.8859 34.5846C53.5739 34.8917 53.4945 35.5571 53.5474 36.1457C53.6003 36.7087 53.4416 36.9646 52.8065 37.0158C52.3303 37.0414 51.8804 37.195 51.4042 37.3229C50.4781 37.5788 49.5785 37.9115 48.8905 38.6025C48.229 39.2679 48.0703 40.0612 48.3878 40.9057C48.7053 41.7247 49.3932 42.0574 50.2399 42.1341C51.5894 42.2365 52.6742 41.7758 53.5739 40.8034C53.6532 40.9825 53.7062 41.1361 53.7855 41.264C54.0237 41.7247 54.3677 42.0318 54.9233 42.0318C55.5319 42.0574 56.0346 41.827 56.3786 41.3408C56.458 41.2128 56.5373 41.0849 56.458 40.9569C56.3257 40.829 56.1934 40.9313 56.0611 40.9825ZM53.468 38.6537C53.5209 39.7285 53.177 40.6754 51.9598 41.1361C51.1925 41.4432 50.4781 41.264 50.0812 40.7266C49.6843 40.1892 49.7637 39.2935 50.2664 38.7561C50.5839 38.4234 50.9808 38.193 51.4306 38.0907C51.9334 37.9627 52.4626 37.8603 52.9918 37.7068C53.3622 37.6044 53.5474 37.6556 53.4945 38.0651C53.468 38.2186 53.468 38.3978 53.468 38.6537Z" fill="#858484"/>
<path d="M32.2911 21.8144C31.6825 19.46 30.5976 17.3103 28.9836 15.4421C27.7665 14.009 26.3906 12.755 24.6442 11.9873C23.5594 11.5011 22.4216 11.4755 21.3103 11.8593C19.0612 12.6783 17.1561 13.9834 15.4892 15.6469C14.2985 16.8753 13.346 18.2572 12.5522 19.7671C11.3086 22.1471 10.9117 24.6551 11.2292 27.291C11.3086 27.9564 11.6261 28.4938 12.1553 28.9289C13.4783 29.9781 14.9071 30.8738 16.4947 31.488C17.606 31.9231 18.7173 32.2813 19.9079 32.4093C20.3578 32.4605 20.834 32.4605 21.2839 32.5373C22.3158 32.5373 23.3477 32.5373 24.3796 32.5373C24.4061 32.5117 24.459 32.5117 24.5119 32.5117C25.5174 32.4861 26.5229 32.3837 27.4754 32.1022C28.7719 31.7183 29.9891 31.2321 31.0739 30.4132C31.9206 29.7734 32.5027 29.0056 32.5557 27.9052C32.5821 27.4446 32.6086 26.9839 32.635 26.5233C32.7144 24.911 32.7144 23.3499 32.2911 21.8144ZM18.6379 16.2099C18.9554 15.5957 19.3523 15.0071 19.7227 14.4185C20.0667 13.8811 20.5959 13.9323 21.0722 13.9578C23.2683 14.0858 25.0147 15.0583 26.3376 16.7217C26.3376 16.7473 26.3376 16.7729 26.3641 16.8241C23.824 15.391 21.2574 15.2374 18.585 16.4146C18.532 16.3634 18.6114 16.2867 18.6379 16.2099ZM15.5156 29.3127C15.3569 29.3127 15.2511 29.2104 15.1717 29.108C14.5366 28.4682 14.2456 27.6493 14.0604 26.8048C13.7693 25.4996 13.8751 24.1688 14.4043 22.9149C14.4308 22.8381 14.4837 22.7357 14.5102 22.6589C14.5366 22.6334 14.5366 22.6078 14.5896 22.531C14.5102 25.4228 15.7273 27.6237 18.1087 29.3127C17.2355 29.4407 16.3624 29.3383 15.5156 29.3127ZM21.5484 28.5706C21.3368 28.6474 21.178 28.5962 21.0193 28.4938C19.5375 27.6237 18.585 26.3697 18.0029 24.8086C17.3943 23.1964 17.2355 21.5585 17.4737 19.8695C17.5266 19.4856 17.7118 19.3065 18.0029 19.1529C19.0083 18.6667 20.0667 18.4364 21.178 18.4364C23.5858 18.4619 25.6497 19.3321 27.5283 20.7652C27.6871 20.8931 27.6871 21.0467 27.6871 21.2002C27.6606 22.7869 27.0521 24.1433 26.073 25.3716C24.8824 26.856 23.3212 27.8796 21.5484 28.5706ZM31.1004 25.9603C30.7564 26.8304 30.1478 27.4957 29.407 28.0588C28.2957 28.9033 27.0521 29.4407 25.5174 29.5942C28.1369 28.1611 29.5922 26.0882 29.8568 23.1964C30.4124 23.9385 30.8358 24.7063 31.2062 25.4996C31.2591 25.6787 31.1533 25.8323 31.1004 25.9603Z" fill="#858484"/>
</svg>
