<svg width="138" height="50" viewBox="0 0 138 50" fill="none" xmlns="http://www.w3.org/2000/svg">
<path d="M17.1176 14.3289C15.8778 13.3987 14.1558 13 12.0206 13C11.5385 13 11.1252 13 10.7808 13.0664C10.3675 13.1329 10.0231 13.1329 9.60985 13.1993C8.92106 13.3322 8.23227 13.5316 7.54348 13.7973C6.16591 14.2625 5.13273 14.9934 4.30618 15.7907C3.54852 16.6545 3.06636 17.6512 2.85973 18.7807L2.79085 19.3787L2.72197 20.1761C2.72197 21.6379 3.273 22.701 4.30618 23.4319C5.40824 24.1628 6.92357 24.7608 8.85218 25.2259C10.0231 25.5581 10.9185 25.8904 11.5385 26.0897C11.9517 26.3555 12.1584 26.6877 12.1584 27.0199V27.3522C11.9517 28.2159 11.0563 28.6811 9.54097 28.6811C8.85218 28.6811 8.30115 28.4817 7.819 28.2159C7.26797 27.8837 6.99245 27.3522 6.99245 26.6877H1.06888C1 26.7542 1 26.9535 1 27.3522C1 28.9468 1.61991 30.2093 2.79085 31.206C4.16842 32.402 5.95927 33 8.30115 33C10.7119 33 12.8471 32.4684 14.7069 31.4718C16.5666 30.4751 17.7375 28.814 18.1508 26.5548L18.2197 25.4253C18.2197 24.2292 17.7375 23.2326 16.7732 22.4352C15.8089 21.7043 14.5002 21.1063 12.7783 20.7076L10.7808 20.1761C10.0231 19.9767 9.47209 19.711 9.19658 19.5116C8.92106 19.2458 8.7833 18.9801 8.7833 18.6478V18.4485C8.92106 17.7841 9.60985 17.4518 10.7808 17.4518C12.2961 17.4518 13.0538 17.9169 13.0538 18.9801H18.9085V18.7143C18.9774 16.7209 18.3575 15.2591 17.1176 14.3289Z" fill="#858484"/>
<path d="M58.3761 23.4318C57.274 22.7674 56.0342 22.4352 54.5878 22.4352C54.2434 22.4352 53.899 22.4352 53.6235 22.5016C52.2459 22.6345 51.0061 23.0332 49.9729 23.7641C48.5953 24.6279 47.7688 26.0232 47.4244 27.8172L47.3555 28.2823L47.2866 28.8803C47.2866 30.2092 47.8376 31.2724 48.8019 31.9368C49.8351 32.6013 51.1438 32.9999 52.6592 32.9999C53.0035 32.9999 53.3479 32.9999 53.6235 32.9335C53.8301 32.9335 53.9679 32.8671 54.1056 32.8671C54.5189 32.8006 54.8633 32.7342 55.1388 32.6677C55.4143 32.6013 55.6209 32.5348 55.8965 32.4019C56.4475 32.1362 56.9296 31.9368 57.3429 31.671C57.7562 31.4053 58.1695 31.0066 58.5139 30.6079C59.2715 29.7441 59.7537 28.7475 59.9603 27.485L60.0292 26.4883C60.0292 25.093 59.4782 24.0298 58.3761 23.4318ZM55.001 29.2126C54.6566 29.8106 54.2434 30.1428 53.6235 30.2092C53.4857 30.2757 53.2791 30.2757 53.1413 30.2757C52.177 30.2757 51.6949 29.7441 51.6949 28.6146C51.8326 27.6179 52.1081 26.7541 52.3836 26.0896C52.6592 25.5581 53.0724 25.2923 53.6235 25.093C53.8301 25.0265 54.0367 25.0265 54.2434 25.0265C55.1388 25.0265 55.6209 25.6245 55.6209 26.8205C55.6209 27.7508 55.3454 28.5481 55.001 29.2126Z" fill="#858484"/>
<path d="M30.8247 23.0332C30.1359 22.6345 28.965 22.4352 27.243 22.4352H26.8986C26.2787 22.4352 25.7277 22.4352 25.1766 22.5016C22.2837 22.7674 20.6995 23.897 20.3551 25.7574H24.5567C24.6945 25.4252 24.9011 25.1594 25.1766 25.0265C25.4522 24.8936 25.7965 24.7607 26.2787 24.7607C27.1052 24.7607 27.5185 25.0265 27.5185 25.4916C27.5185 25.8239 27.3119 26.0232 26.8297 26.2225C26.6231 26.289 26.0721 26.4219 25.1766 26.5548C25.0389 26.5548 24.9011 26.6212 24.6945 26.6212L23.0414 26.8205L21.9393 27.0199C21.1817 27.2192 20.5618 27.485 20.0107 27.8837C19.3908 28.3488 18.9775 29.0132 18.7709 29.877C18.7709 29.9435 18.7709 30.0099 18.702 30.1428V30.5415C18.702 31.2724 18.9775 31.8039 19.5286 32.1362C20.2862 32.6013 21.1128 32.8671 22.0082 32.8671H22.2148C23.248 32.8671 24.2123 32.6677 25.1078 32.2691C25.5899 32.0697 26.0721 31.8039 26.5542 31.4717V32.5348H31.0313L31.1002 32.3355C30.8247 32.0697 30.6869 31.8704 30.6181 31.6046L30.7558 30.9401L31.7201 26.0896C31.789 25.6245 31.8579 25.2259 31.8579 24.8272C31.8579 24.0963 31.5135 23.4983 30.8247 23.0332ZM26.2098 30.0099C26.0032 30.2092 25.7965 30.4086 25.4522 30.5415C25.3144 30.6079 25.2455 30.6079 25.1078 30.6744C24.9011 30.7408 24.6945 30.7408 24.4878 30.7408C23.7302 30.7408 23.3169 30.475 23.3169 30.0099V29.9435C23.3858 29.5448 23.5924 29.279 23.8679 29.1461L24.5567 28.8803C24.6945 28.8139 24.9011 28.7475 25.1766 28.7475C25.2455 28.7475 25.3833 28.7475 25.4522 28.7475C26.1409 28.6146 26.6231 28.4817 26.9675 28.3488C26.8297 29.0132 26.6231 29.5448 26.2098 30.0099Z" fill="#858484"/>
<path d="M44.6695 23.4983C43.7052 22.7674 42.3965 22.4352 40.6746 22.4352C38.5393 22.4352 36.8862 22.9667 35.5775 24.0298C34.3377 25.093 33.5801 26.3554 33.3045 27.8837L33.2357 28.3488L33.1668 28.8803C33.1668 30.0764 33.6489 31.0066 34.5444 31.8039C35.5087 32.6013 36.8174 32.9335 38.6082 32.9335C40.3302 32.9335 41.7766 32.6013 43.0164 31.8704C44.2563 31.2059 45.0828 30.1428 45.4961 28.8139H41.1567C40.7434 29.8106 40.1235 30.2757 39.2281 30.2757C38.1949 30.2757 37.6439 29.7441 37.6439 28.6146C37.7817 27.5514 38.0572 26.6877 38.3327 26.0232C38.6771 25.3588 39.3659 24.9601 40.1924 24.9601C40.6057 24.9601 40.9501 25.093 41.1567 25.3588C41.3634 25.5581 41.5011 25.8903 41.5011 26.1561V26.4219H45.9094V25.8903C45.8405 24.9601 45.4961 24.0963 44.6695 23.4983Z" fill="#858484"/>
<path d="M121.813 23.0996C121.193 22.6345 120.298 22.4352 119.196 22.4352C117.681 22.4352 116.303 23.0332 115.132 24.2956L115.476 22.7009H111.481L109.553 32.7342H113.961L114.925 27.6179C115.132 26.8205 115.339 26.289 115.683 25.9568C115.959 25.691 116.441 25.5581 116.992 25.5581C117.818 25.5581 118.232 25.9568 118.232 26.7541V27.0863V27.4186L117.198 32.7342H121.538L122.709 26.6877C122.778 26.289 122.846 25.8903 122.846 25.4916C122.709 24.3621 122.433 23.5647 121.813 23.0996Z" fill="#858484"/>
<path d="M138 22.3023H132.903L129.528 25.3588L131.25 16.3222H126.911L123.742 32.6677H128.081L128.77 29.5448L129.666 28.7475L131.319 32.6677H136.554L133.178 26.1561L138 22.3023Z" fill="#858484"/>
<path d="M80.0043 23.0996C79.4533 22.6345 78.5578 22.4352 77.4558 22.4352C75.8716 22.4352 74.494 23.0332 73.2542 24.2956C72.8409 23.0996 71.8077 22.4352 70.0858 22.4352H70.0169C69.397 22.4352 68.7082 22.5681 68.0194 22.9667C67.3306 23.299 66.7107 23.6976 66.2974 24.2292L66.5729 22.7009H62.578L60.6494 32.7342H64.9887L65.953 27.6179C66.1597 26.887 66.3663 26.3554 66.7107 26.0896C67.0551 25.7574 67.4684 25.6245 67.9505 25.6245C68.7082 25.6245 69.0526 25.9568 69.0526 26.6877L68.9837 27.5514L67.9505 32.7342H72.2899L73.2542 27.6179C73.3919 26.7541 73.6675 26.1561 74.0118 25.8903C74.3562 25.691 74.7006 25.5581 75.1139 25.5581C75.5272 25.5581 75.8716 25.6245 76.0782 25.8239C76.216 25.9568 76.3537 26.2225 76.3537 26.6212C76.3537 26.887 76.2848 27.2192 76.216 27.6179L75.2517 32.7342H79.591L80.762 26.7541C80.8308 26.2225 80.8997 25.7574 80.8997 25.3588C80.8997 24.2292 80.6242 23.4983 80.0043 23.0996Z" fill="#858484"/>
<path d="M107.555 23.0332C106.867 22.6345 105.696 22.4352 103.974 22.4352H103.629C103.009 22.4352 102.458 22.4352 101.907 22.5016C99.0143 22.7674 97.4301 23.897 97.0857 25.7574H101.287C101.425 25.4252 101.632 25.1594 101.907 25.0265C102.183 24.8936 102.527 24.7607 103.009 24.7607C103.836 24.7607 104.249 25.0265 104.249 25.4916C104.249 25.8239 103.974 26.0232 103.56 26.2225C103.354 26.289 102.803 26.4219 101.907 26.5548C101.769 26.5548 101.563 26.6212 101.425 26.6212L99.8409 26.8205L98.7388 27.0199C97.9812 27.2192 97.3613 27.485 96.8791 27.8837C96.2592 28.3488 95.8459 29.0132 95.6393 29.877C95.6393 29.9435 95.5704 30.0099 95.5704 30.1428V30.5415C95.5704 31.2724 95.8459 31.8039 96.3969 32.1362C97.1546 32.6013 97.9812 32.8671 98.8766 32.8671H99.0832C100.116 32.8671 101.081 32.6677 101.976 32.2691C102.458 32.0697 102.94 31.8039 103.354 31.4717V32.5348H107.831L107.9 32.3355C107.624 32.0697 107.486 31.8704 107.418 31.6046L107.555 30.9401L108.52 26.0896C108.588 25.6245 108.657 25.2259 108.657 24.8272C108.588 24.0963 108.244 23.4983 107.555 23.0332ZM103.009 30.0099C102.803 30.2092 102.596 30.4086 102.252 30.5415C102.183 30.6079 102.045 30.6079 101.907 30.6744C101.701 30.7408 101.494 30.7408 101.287 30.7408C100.53 30.7408 100.116 30.475 100.116 30.0099V29.9435C100.185 29.5448 100.392 29.279 100.667 29.1461L101.287 28.8803C101.425 28.8139 101.632 28.7475 101.907 28.7475C101.976 28.7475 102.114 28.7475 102.183 28.7475C102.872 28.6146 103.354 28.4817 103.698 28.3488C103.629 29.0132 103.354 29.5448 103.009 30.0099Z" fill="#858484"/>
<path d="M91.0932 22.4352C90.4044 22.4352 89.7845 22.5016 89.2335 22.701C89.0269 22.8339 88.8202 22.9003 88.5447 23.0332C88.2003 23.2325 87.8559 23.4319 87.5804 23.6977L88.958 16.2558H84.5497L81.588 32.6677H85.514L85.8584 31.2724C86.2717 32.3355 87.236 32.9335 88.6825 33H88.8891C90.68 33 92.1953 32.3355 93.2973 31.0066C94.3994 29.6777 95.0193 28.1495 95.0193 26.4219C95.0193 25.1594 94.6749 24.1628 93.9173 23.4983C93.0907 22.7674 92.1953 22.4352 91.0932 22.4352ZM89.8534 29.1462C89.509 29.6113 89.0957 29.9435 88.6136 30.0764C88.4758 30.0764 88.3381 30.1428 88.2003 30.1428C87.236 30.1428 86.7539 29.5448 86.7539 28.4153C86.9605 27.485 87.1671 26.8206 87.5115 26.2226C87.787 25.8239 88.1314 25.5581 88.6825 25.4917C88.8202 25.4917 89.0269 25.4252 89.1646 25.4252C90.1289 25.4252 90.6111 25.9568 90.6111 27.0864C90.5422 27.8837 90.3356 28.5481 89.8534 29.1462Z" fill="#858484"/>
</svg>
