<svg width="148" height="50" viewBox="0 0 148 50" fill="none" xmlns="http://www.w3.org/2000/svg">
<path fill-rule="evenodd" clip-rule="evenodd" d="M59.3864 32.0871V35.6608C58.9213 35.1943 58.4564 34.7804 58.0495 34.5488C57.5844 34.3141 57.1195 34.1967 56.5963 34.1967C55.6694 34.1967 54.9138 34.5488 54.3355 35.1943C53.7543 35.8399 53.4637 36.6614 53.4637 37.7147C53.4637 38.7123 53.7543 39.4752 54.3355 40.1177C54.9138 40.7633 55.6724 41.1154 56.5963 41.1154C57.1195 41.1154 57.5844 40.998 58.0495 40.7663C58.4564 40.5285 58.9213 40.1208 59.3864 39.6513V43.2311C58.8632 43.5214 58.3401 43.6975 57.817 43.8148C57.2938 43.9322 56.7707 43.9909 56.2476 43.9909C55.6112 43.9909 55.0269 43.9322 54.4487 43.7562C53.9256 43.6388 53.4025 43.3484 52.9375 43.055C52.0075 42.4682 51.3681 41.7053 50.8449 40.7694C50.3831 39.8304 50.1475 38.8329 50.1475 37.6622C50.1475 36.7232 50.3218 35.9017 50.6094 35.1419C50.9 34.3789 51.365 33.6747 51.9463 33.0879C52.5275 32.5041 53.1669 32.0316 53.8644 31.7412C54.6201 31.4478 55.3757 31.3304 56.2445 31.3304C56.7676 31.3304 57.2908 31.3891 57.8139 31.5064C58.3401 31.6176 58.8632 31.7906 59.3864 32.0871ZM37.2589 43.6944V31.6176H40.5139V36.3094H44.8702V31.6176H48.1222V43.6944H44.8702V38.7711H40.5139V43.6944H37.2589ZM35.402 32.0871V35.6608C34.9369 35.1943 34.5301 34.7804 34.065 34.5488C33.597 34.3141 33.135 34.1967 32.612 34.1967C31.6849 34.1967 30.9263 34.5488 30.345 35.1943C29.7668 35.8399 29.4732 36.6614 29.4732 37.7147C29.4732 38.7123 29.7638 39.4752 30.345 40.1177C30.9844 40.7633 31.74 41.1154 32.612 41.1154C33.132 41.1154 33.597 40.998 34.065 40.7663C34.527 40.5285 34.9339 40.1208 35.402 39.6513V43.2311C34.8789 43.5214 34.3557 43.6975 33.8326 43.8148C33.3125 43.9322 32.8444 43.9909 32.3213 43.9909C31.6238 43.9909 31.0426 43.9322 30.4613 43.7562C29.9412 43.6388 29.415 43.3484 28.95 43.055C28.0812 42.4682 27.3837 41.7053 26.9186 40.7694C26.4537 39.8304 26.2212 38.8329 26.2212 37.6622C26.2212 36.7232 26.3374 35.9017 26.628 35.1419C26.9157 34.3789 27.3806 33.6747 28.02 33.0879C28.5432 32.5041 29.1825 32.0316 29.9381 31.7412C30.6387 31.4416 31.3913 31.3242 32.3213 31.3242C32.8444 31.3242 33.3095 31.3829 33.8326 31.5003C34.3526 31.6176 34.8789 31.7906 35.402 32.0871ZM17.2209 43.6944V31.6176H24.5417V34.2554H20.4178V36.368H24.3061V38.9471H20.4178V40.998H24.5417V43.6944H17.2209ZM67.111 31.3242V34.138C66.1809 34.138 65.4834 34.4345 64.844 35.1356C64.2628 35.7781 63.9722 36.6614 63.9722 37.656C63.9722 38.7093 64.2628 39.5309 64.844 40.2351C65.4253 40.8806 66.1809 41.2327 67.111 41.2327V43.9878C66.2391 43.9878 65.4253 43.8705 64.6696 43.5184C63.859 43.228 63.1614 42.7585 62.5802 42.1686C61.9439 41.5848 61.4789 40.8775 61.1852 40.1177C60.8395 39.3548 60.7232 38.5332 60.7232 37.656C60.7232 36.7758 60.8395 36.0129 61.1852 35.2531C61.4758 34.4901 61.9408 33.7859 62.5802 33.1991C63.1614 32.6153 63.859 32.1458 64.6696 31.7906C65.4284 31.5003 66.2391 31.3242 67.111 31.3242ZM9.67068 43.6944V34.4345H7V31.6176H15.5934V34.4314H12.9227V43.6944H9.67068ZM89.2965 43.6944H86.274L85.5184 38.4746C85.5184 38.1224 85.4602 37.656 85.4021 37.2421C85.344 36.7726 85.344 36.3031 85.2859 35.775C85.2277 36.2445 85.0564 36.8901 84.8239 37.653C84.8239 37.829 84.7658 37.9464 84.7658 38.0051L83.1382 43.6913H80.9326L79.305 38.0051C79.305 37.9464 79.2469 37.829 79.1888 37.653C78.9563 36.8901 78.8401 36.2445 78.7819 35.775C78.7238 36.2445 78.6626 36.6553 78.6626 37.1247C78.6045 37.5942 78.5495 38.0051 78.4913 38.4746L77.7938 43.6944H74.7712L76.5732 31.6176H79.8282L81.627 37.8321C81.627 37.8907 81.6851 37.9494 81.6851 38.0637C81.8595 38.5919 81.9758 39.0614 82.0339 39.4722C82.0339 39.2375 82.092 39.0027 82.1501 38.768C82.2052 38.4746 82.2664 38.1811 82.3827 37.829L84.2396 31.6146H87.4334L89.2965 43.6944ZM67.111 43.9909V41.2358C68.041 41.2358 68.7354 40.8837 69.3748 40.2381C69.956 39.534 70.2466 38.7123 70.2466 37.6591C70.2466 36.6614 69.956 35.843 69.3748 35.1387C68.7354 34.4376 67.9797 34.1411 67.111 34.1411V31.3242C67.9828 31.3242 68.7935 31.5003 69.5491 31.7906C70.3629 32.1428 71.0574 32.6122 71.6386 33.1991C72.278 33.7859 72.6849 34.4345 73.0336 35.2531C73.3243 36.016 73.4955 36.7789 73.4955 37.656C73.4955 38.5363 73.3243 39.3548 73.0336 40.1177C72.7429 40.8806 72.278 41.5848 71.6386 42.1686C71.0574 42.7555 70.3598 43.2249 69.5491 43.5184C68.7966 43.8736 67.9828 43.9909 67.111 43.9909Z" fill="#959596"/>
<path fill-rule="evenodd" clip-rule="evenodd" d="M94.06 36.4266H94.7576C94.9901 36.4266 95.1638 36.4266 95.3963 36.4266V38.5949C95.3357 38.5949 95.2769 38.5949 95.2226 38.5949H94.06V41.2326H95.1638C95.2226 41.2326 95.3357 41.2326 95.3963 41.2326V43.6943C95.1032 43.6943 94.8128 43.6943 94.4083 43.6943H91.0399V31.6175H94.3504C94.7576 31.6175 95.0444 31.6175 95.3963 31.6175V34.0205C95.2226 34.0205 94.9901 34.0205 94.7576 34.0205H94.06V36.4266ZM107.187 31.6175V33.6097C107.187 33.551 107.187 33.551 107.187 33.551C107.071 33.8445 107.013 34.1349 106.955 34.4314C106.899 34.663 106.838 34.9564 106.725 35.1912L105.562 39.1787H107.19V41.523H104.868L104.229 43.6913H100.977L105.097 31.6145H107.187V31.6175ZM95.3963 36.4266C95.8008 36.3679 96.1518 36.3093 96.3264 36.1918C96.6141 36.0159 96.7888 35.6637 96.7888 35.2561C96.7888 34.7866 96.6721 34.4932 96.3816 34.2584C96.1518 34.141 95.8614 34.0854 95.3963 34.0267V31.6175C96.1518 31.6175 96.7309 31.6732 97.1371 31.7349C97.6601 31.8492 98.1251 31.9666 98.5322 32.2013C98.9394 32.4361 99.2877 32.7881 99.5202 33.199C99.7528 33.6097 99.8695 34.0792 99.8695 34.6074C99.8695 35.3116 99.6949 35.8984 99.3465 36.2506C99 36.6613 98.4164 37.0135 97.6637 37.1865C98.5322 37.2452 99.2325 37.5386 99.6949 38.1254C100.16 38.6535 100.39 39.3578 100.39 40.238C100.39 40.8836 100.276 41.4704 99.9826 41.9399C99.7528 42.465 99.3465 42.8202 98.8227 43.1137C98.4164 43.3483 97.9541 43.4626 97.3117 43.5831C96.9082 43.6387 96.2685 43.6974 95.3963 43.6974V41.2357C96.036 41.2357 96.5011 41.1184 96.7888 40.9423C97.1371 40.7693 97.3117 40.4172 97.3117 39.9446C97.3117 39.4782 97.1371 39.1262 96.8467 38.8883C96.5562 38.7123 96.0939 38.5949 95.3963 38.5949V36.4266ZM128.791 43.6943V31.6175H131.988V37.1277L135.818 31.6175H139.593L135.182 37.5386L140.003 43.6943H135.941L131.991 38.3015V43.6943H128.791ZM114.505 43.6943V31.6175H117.64L122.171 37.832C122.229 37.9494 122.404 38.2397 122.578 38.5918C122.811 39.0026 123.04 39.4103 123.276 39.9416C123.221 39.4751 123.163 39.0026 123.104 38.6505C123.104 38.2397 123.043 37.8876 123.043 37.5941V31.6175H126.178V43.6943H123.043L118.515 37.4799C118.457 37.3625 118.286 37.0691 118.109 36.717C117.876 36.3093 117.701 35.8398 117.469 35.3703C117.527 35.8398 117.586 36.3093 117.586 36.717C117.644 37.0691 117.644 37.4212 117.644 37.7147V43.6943H114.505ZM107.187 41.5261V39.1817H108.814L107.593 35.1943C107.536 35.0769 107.478 34.9008 107.416 34.6074C107.361 34.3726 107.245 34.0205 107.187 33.6097V31.6175H109.221L113.345 43.6943H110.09L109.454 41.5261H107.187Z" fill="#959596"/>
<path d="M73.9502 10.4133L69.3495 5.8125L59.4763 15.6857L69.3495 25.5634L73.9502 20.958L68.6779 15.6857L73.9502 10.4133Z" fill="#959596"/>
<path d="M88.4287 15.6857L78.5555 5.8125L73.9502 10.4133L79.2272 15.6857L73.9502 20.958L78.5555 25.5634L88.4287 15.6857Z" fill="#959596"/>
</svg>
