<svg width="115" height="50" viewBox="0 0 115 50" fill="none" xmlns="http://www.w3.org/2000/svg">
<g opacity="0.5">
<path d="M13.5145 24.9919L7.8492 38.849H4.9566L0 24.9919H3.4505L6.9273 35.082L10.6052 24.9919H13.5145ZM20.0299 32.6004H23.7317C23.6982 31.6785 23.6001 30.3282 21.8832 30.3667C20.8129 30.3908 20.1616 30.8962 20.0299 32.6004ZM26.3848 34.1842H20.0299C19.8527 37.3759 23.3702 37.7369 25.3959 36.2735L26.2819 37.8862C25.1972 38.5168 23.8826 39.1162 22.3477 39.1162C20.504 39.1162 19.2948 38.512 18.2987 37.4553C17.4486 36.5551 16.8141 35.3348 16.8141 33.6426C16.8141 32.1527 17.2547 30.9516 18.1358 30.0369C19.0481 29.0838 20.2885 28.6048 21.8617 28.6048C23.3917 28.6048 24.5435 29.0453 25.3265 29.9262C26.0472 30.7229 26.404 31.8229 26.404 33.2166C26.4016 33.4308 26.3992 33.9483 26.3848 34.1842ZM30.9535 26.3542L30.9463 28.8623H33.3552V30.3065H30.9463L30.9846 35.0435C30.9894 35.7584 30.999 36.6682 31.4683 37.0365C31.8562 37.3181 32.4165 37.3133 33.2163 36.8632L33.858 38.3459C33.1923 38.6853 32.577 38.8658 32.0669 38.9597C29.4953 39.4267 28.3052 38.435 28.0322 35.8547C28.0251 35.7873 27.8886 34.721 27.9532 32.6485C27.9891 31.498 28.0059 30.7133 27.9915 30.3065H26.6267C26.6267 30.3065 26.6147 29.6253 26.6243 29.0717L26.6267 28.8623H27.9915L28.0155 26.4529L30.9535 26.3542ZM39.3031 28.7997H42.1884L42.2004 30.1019C44.468 27.9501 47.0396 28.4243 48.4117 30.0586C48.7134 30.4197 48.9193 30.8794 49.0031 31.4523C49.0414 31.7146 49.063 32.2345 49.063 33.0144C49.063 33.2912 49.063 33.7028 49.063 34.2492C49.063 34.7956 49.063 35.2072 49.063 35.484C49.063 35.8523 49.063 36.4131 49.063 37.1641C49.063 37.9175 49.063 38.4783 49.063 38.8466H46.168L46.113 33.1348C46.101 31.8687 46.0723 30.6387 44.3674 30.6916C43.3402 30.7229 42.2363 31.3632 42.2195 32.4632L42.2028 38.849H39.3031V28.7997ZM12.9422 28.819H15.8898V38.8586H12.9422V28.819ZM34.5811 28.819H37.5311V38.8586H34.5811V28.819Z" fill="white"/>
<path d="M53.6412 36.9233C55.485 37.0412 57.6208 36.7235 57.6352 34.6366C57.6472 32.8916 55.995 32.3765 53.6197 32.5281L53.6412 36.9233ZM53.6221 30.6699C55.5233 30.7686 57.0055 29.9237 57.0055 28.3953C57.0055 27.2183 55.7915 26.7874 53.6532 26.9126L53.6221 30.6699ZM57.4532 31.2404C59.8381 31.6375 60.7696 33.0649 60.7696 34.9038C60.7696 37.0653 59.2012 38.0642 57.4532 38.5408C56.4428 38.8176 55.4874 38.897 54.4505 38.885L50.629 38.8489L50.7032 24.9749H56.0764C57.1946 24.9749 58.0949 25.1988 58.7702 25.6465C59.5723 26.1833 59.9722 26.9992 59.9722 28.104C59.9722 28.1594 59.9698 28.2148 59.9674 28.2701C59.91 29.5868 58.787 30.9371 57.4532 31.2404ZM64.5505 36.6874C65.4915 37.9752 67.9865 36.4443 67.5962 33.6329C65.7142 33.8447 63.4011 35.1156 64.5505 36.6874ZM63.2598 31.4522L62.1608 30.1019C63.1162 29.2016 64.924 28.6119 66.3822 28.6119C68.1901 28.6119 70.3188 29.6927 70.3571 31.6929C70.3906 33.4717 70.2613 35.3876 70.4553 37.1496C70.5295 37.8187 70.6564 38.3892 70.8264 38.8826H67.7232C67.6801 38.6539 67.6346 38.3218 67.546 37.6839C64.5648 40.4808 61.4544 38.6154 61.4544 36.1121C61.4544 32.5907 66.4349 32.2248 67.431 31.883C67.431 30.008 64.3852 30.0585 63.2598 31.4522ZM88.4953 32.8362L93.0207 38.8489H89.4842L86.3139 33.6738L86.2995 38.8489H83.3759V24.9485H86.3067L86.2995 32.0299L89.3764 28.8117L92.5447 28.8285L88.4953 32.8362ZM71.8536 28.7997H74.739L74.751 30.1019C77.0185 27.95 79.5902 28.4242 80.9622 30.0585C81.264 30.4196 81.4699 30.8793 81.5513 31.4522C81.5896 31.7145 81.6111 32.2345 81.6111 33.0143C81.6111 33.2911 81.6111 33.7027 81.6111 34.2491C81.6111 34.7955 81.6111 35.2071 81.6111 35.4839C81.6111 35.8522 81.6111 36.413 81.6111 37.164C81.6111 37.9174 81.6111 38.4782 81.6111 38.8441H78.7162L78.6635 33.1275C78.6516 31.8614 78.6228 30.6314 76.918 30.6843C75.8907 30.7156 74.7869 31.3559 74.7701 32.4559L74.7533 38.8417H71.8536V28.7997Z" fill="white"/>
<path d="M106.509 24.0218C108.983 24.3925 111.234 25.1989 113.096 26.3205C113.741 24.9365 114.1 23.3936 114.1 21.7641C114.1 15.8212 109.306 11 103.392 11C97.4797 11 92.6837 15.8212 92.6837 21.7641C92.6837 23.3912 93.0427 24.9365 93.6867 26.3205C95.5397 25.2037 97.7737 24.4021 100.231 24.0266V18.5002H106.509V24.0218Z" fill="white"/>
<path fill-rule="evenodd" clip-rule="evenodd" d="M112.419 27.5577C109.902 26.2098 106.777 25.4131 103.394 25.4131C100.008 25.4131 96.8827 26.2122 94.3667 27.5577C96.2697 30.5472 99.6007 32.5282 103.394 32.5282C107.184 32.5282 110.515 30.5472 112.419 27.5577Z" fill="white"/>
<path fill-rule="evenodd" clip-rule="evenodd" d="M95.8897 35.4695C96.8787 35.4695 97.6807 36.2758 97.6807 37.2699C97.6807 38.264 96.8787 39.0703 95.8897 39.0703C94.9007 39.0703 94.0987 38.264 94.0987 37.2699C94.0987 36.2758 94.9007 35.4695 95.8897 35.4695ZM95.8897 35.7102C96.7467 35.7102 97.4437 36.4106 97.4437 37.2723C97.4437 38.134 96.7467 38.8344 95.8897 38.8344C95.0317 38.8344 94.3357 38.134 94.3357 37.2723C94.3357 36.4082 95.0297 35.7102 95.8897 35.7102Z" fill="white"/>
<path d="M95.1427 38.2425V36.3H95.9997C96.1717 36.3 96.3037 36.3168 96.3927 36.3529C96.4807 36.3866 96.5527 36.4492 96.6077 36.5383C96.6607 36.6273 96.6867 36.7236 96.6867 36.8319C96.6867 36.9691 96.6437 37.0847 96.5527 37.181C96.4637 37.2749 96.3277 37.335 96.1407 37.3615C96.2077 37.3953 96.2607 37.4264 96.2937 37.4577C96.3687 37.5275 96.4397 37.6118 96.5077 37.7153L96.8427 38.2449H96.5217L96.2657 37.8405C96.1907 37.725 96.1287 37.6358 96.0807 37.5733C96.0327 37.5107 95.9897 37.4674 95.9517 37.4433C95.9137 37.4192 95.8747 37.4025 95.8347 37.3904C95.8057 37.3855 95.7577 37.3807 95.6907 37.3807H95.3937V38.2425H95.1427ZM95.3987 37.1569H95.9497C96.0667 37.1569 96.1577 37.1448 96.2227 37.1208C96.2897 37.0968 96.3377 37.0582 96.3727 37.0052C96.4067 36.9523 96.4237 36.8945 96.4237 36.8319C96.4237 36.7405 96.3897 36.6634 96.3227 36.6057C96.2557 36.5455 96.1527 36.5166 96.0087 36.5166H95.3987V37.1569Z" fill="white"/>
</g>
</svg>
