<svg width="102" height="50" viewBox="0 0 102 50" fill="none" xmlns="http://www.w3.org/2000/svg">
<g opacity="0.5">
<path fill-rule="evenodd" clip-rule="evenodd" d="M77.3046 8.27726C75.6973 8.59729 75.1033 9.32384 75.1644 10.3618C75.2431 11.8235 76.8679 14.6086 77.6453 15.8455C78.9993 18.0165 80.6066 19.9713 82.3886 21.7789C83.83 23.1888 84.7385 23.5002 86.2846 21.4156C87.6038 19.6945 88.818 17.9905 89.8575 15.8541C90.3118 14.92 90.7397 13.8994 91.1158 12.749C91.5171 11.4083 91.377 10.2234 90.0496 9.35843C91.3249 9.97254 91.8844 11.1056 91.9625 12.3598C92.0415 13.5707 91.6742 14.8854 91.395 15.8541C90.7048 18.2673 89.8138 20.6978 88.6869 22.8861C87.8396 24.5381 86.7563 26.5274 85.6732 27.9979C83.2797 31.2587 80.991 30.2035 78.3005 27.9979C76.597 26.5967 74.9547 24.8322 73.5483 22.8947C72.1245 20.9486 70.5608 18.0598 69.6349 15.8369C68.3682 12.8009 69.3554 11.244 70.919 10.258C72.6399 9.1768 75.2169 8.56269 77.3046 8.27726Z" fill="white"/>
<path fill-rule="evenodd" clip-rule="evenodd" d="M77.2435 15.2055C79.7331 14.8336 86.2061 14.4357 88.4773 15.6034C89.2373 15.9926 89.2548 16.5202 89.1849 17.117C89.412 16.7105 89.6304 16.2866 89.8488 15.8542C90.303 14.9201 90.731 13.8994 91.1068 12.7491C91.5081 11.4084 91.369 10.2234 90.041 9.35849H90.0322C89.543 9.10766 88.9753 8.91737 88.4686 8.77033C86.9749 8.33786 85.315 8.16488 83.6466 8.04379C82.9566 7.99189 82.2402 8.00054 81.5064 8.00054C80.1874 8.00054 78.7373 8.08703 77.2959 8.27731C75.6886 8.59734 75.0946 9.32389 75.1557 10.3618C75.2256 11.6073 76.4136 13.8129 77.2435 15.2055Z" fill="white"/>
<path fill-rule="evenodd" clip-rule="evenodd" d="M70.7443 41.9407C72.0459 41.785 73.1465 41.1277 73.5134 39.1816C73.7493 37.9361 73.7144 35.9294 73.3649 34.7617C73.199 34.2169 72.9544 33.7584 72.5962 33.4557C71.9847 32.9541 71.312 32.8589 70.718 32.8416C69.7135 32.807 69.1719 32.9799 68.4468 33.5595C68.3071 33.6719 68.1848 33.7239 68.1848 33.5249L68.1586 29.3731L65.835 29.4078L65.8437 41.3094C66.8308 41.9667 69.565 42.0792 70.7443 41.9407ZM8.43418 41.7073C8.92339 41.7073 8.82721 41.7505 9.12426 41.344C11.1422 38.6021 13.0552 32.7551 13.029 29.4942C12.0856 29.451 11.1422 29.6067 10.19 29.8316C9.2815 35.1856 8.47781 36.5954 7.01897 39.3286C5.56024 36.5954 4.75655 35.1856 3.84808 29.8316C2.88717 29.6067 1.94367 29.4596 1.00027 29.4942C0.974064 32.7551 2.88717 38.6021 4.90498 41.344C5.20203 41.7505 5.10595 41.7073 5.59517 41.7073H8.43418ZM75.2169 33.2741L75.444 35.3672C76.3612 35.2807 77.1125 35.0385 78.0821 34.9693C79.5321 34.9174 80.4581 34.8828 80.4145 35.9294C79.3313 35.9294 78.2306 35.9294 77.1038 35.938C75.7322 35.9467 74.5966 36.5954 74.7452 39.3459C74.9286 42.6586 78.8945 42.4078 80.7027 41.0844V41.8284H82.808C82.7556 38.4464 83.0002 34.9002 82.3887 33.9401C81.2182 32.1064 77.3658 32.781 75.2169 33.2741ZM25.5993 41.4305C25.5208 40.7471 25.4421 40.0638 25.3635 39.3891C24.4113 39.5622 22.7779 39.8044 21.8169 39.7698C20.7075 39.7352 20.2969 39.2076 20.2969 37.642C20.6463 38.0399 21.1443 38.3167 21.7645 38.3253C23.2146 38.3426 24.5686 38.3685 25.9925 38.3167C26.0536 35.7132 26.2807 33.4384 23.6514 32.8762C22.5856 32.6513 21.1618 32.6513 20.1484 32.9541C19.039 33.2827 18.4887 33.8017 18.1654 34.9002C17.5714 36.9414 17.7375 39.9773 19.0652 41.145C20.6114 42.4771 23.6775 41.9927 25.5993 41.4305ZM21.3714 34.8914H22.5332C23.1097 34.8914 23.5902 35.3586 23.5902 35.938V36.4052H20.3232V35.938C20.3144 35.3586 20.7862 34.8914 21.3714 34.8914ZM95.6576 41.811L95.7277 37.9794C95.7277 37.7458 95.9459 38.0571 95.9989 38.1523C96.7676 39.4238 97.4752 40.3839 98.6101 41.5083C98.9334 41.8284 98.9944 41.8024 99.5629 41.8024H102C100.217 40.3493 99.2307 39.1816 98.2869 37.4171C98.0947 37.0106 98.1037 37.0539 98.3749 36.6732C98.7242 36.2667 99.1696 35.7305 99.659 35.1682L101.738 32.7465C101.747 32.7291 101.755 32.7119 101.764 32.6945H99.5539C99.1516 32.6945 99.1606 32.634 98.8814 32.9367C98.0426 33.8362 97.0728 34.8828 96.2952 35.7391C96.1991 35.8429 96.086 35.9208 95.9899 35.99C95.6666 36.2148 95.7277 36.1543 95.7277 35.8343L95.7107 29.3299L93.3607 29.3473L93.3346 41.8024H95.6576V41.811ZM41.0612 41.5083L40.8515 39.4756C39.7945 39.5622 38.6676 39.8563 37.5408 39.7265C36.4139 39.6054 36.2741 39.0086 36.2654 38.1005C36.2566 37.5555 36.2392 36.9328 36.2741 36.3878C36.3177 35.644 36.5361 35.1682 37.5408 35.0558C38.6676 34.9347 39.7945 35.2202 40.8515 35.3067L41.0612 33.2741C37.0166 32.3312 34.4921 32.7984 33.933 35.9034C33.8194 36.5521 33.8719 38.6886 34.0291 39.3027C34.7454 42.0272 37.2175 42.4078 41.0612 41.5083ZM28.3685 32.833C27.8793 32.833 27.3814 32.833 26.8922 32.833C26.8922 33.5508 26.8834 34.2687 26.8834 34.9867C27.3902 34.9867 27.8619 34.9953 28.3772 34.9953C28.3772 35.7218 28.3772 36.4916 28.3772 37.2268C28.3772 37.9966 28.3685 38.7146 28.3685 39.3459C28.3772 40.2541 28.552 41.0412 29.0674 41.4477C29.2858 41.6207 29.6002 41.7073 29.9846 41.7505C30.9018 41.8542 32.0461 41.8024 32.8236 41.5516C32.7974 40.9375 32.7712 40.3233 32.745 39.7006C31.8365 39.787 30.7184 39.986 30.7271 39.519C30.7271 37.9534 30.7271 36.5609 30.7271 34.9867C31.4521 34.9867 32.1422 34.978 32.876 34.978C32.876 34.2601 32.876 33.5508 32.8673 32.833C32.151 32.833 31.4434 32.8242 30.7271 32.8242C30.7271 32.115 30.7271 31.3971 30.7271 30.6879C29.9409 30.6879 29.146 30.6879 28.3598 30.6879C28.3685 31.4145 28.3685 32.1237 28.3685 32.833ZM13.9375 41.811L16.2349 41.8542L16.3223 32.8676L13.9287 32.8762L13.9375 41.811ZM45.2629 32.7119H47.3245C48.9319 32.7119 50.2509 34.0179 50.2509 35.6094V39.0432C50.2509 40.6347 48.9319 41.9407 47.3245 41.9407H45.2629C43.6556 41.9407 42.3366 40.6347 42.3366 39.0432V35.6094C42.3366 34.0179 43.6469 32.7119 45.2629 32.7119ZM45.7084 34.8914C45.1319 34.8914 44.6514 35.3586 44.6514 35.938V38.7318C44.6514 39.3027 45.1231 39.7784 45.7084 39.7784H46.8702C47.4468 39.7784 47.9272 39.3113 47.9272 38.7318V35.938C47.9272 35.3672 47.4555 34.8914 46.8702 34.8914H45.7084ZM54.0944 41.811C54.112 39.519 54.1382 37.2355 54.1556 34.9434C54.7322 34.9434 55.3087 34.9434 55.8853 34.9434C56.3395 34.952 56.7937 35.2375 56.7937 35.7218V36.0419L56.8024 41.811H59.1261L59.1873 34.9347C59.8162 34.9347 60.4539 34.9347 61.0829 34.9347C61.6419 34.9347 62.0089 35.2461 62.0089 35.7737L62.0176 41.811H64.315L64.3936 35.324C64.4111 33.9401 63.6423 32.807 62.0612 32.8156C61.5633 32.8242 61.0566 32.8242 60.5587 32.833C59.7988 32.8416 59.3969 32.9713 58.9339 33.4557C58.5845 33.8103 58.7592 33.819 58.436 33.4817C57.973 32.9887 57.414 32.8242 56.6976 32.8242C56.3483 32.8242 55.99 32.8242 55.6407 32.8242C54.9942 32.8502 54.5837 33.0492 54.1032 33.5335C53.7188 33.9228 53.7626 34.0439 53.7626 33.4384C53.7626 33.2481 53.7626 33.0664 53.7626 32.8762C53.1074 32.8762 52.4347 32.8848 51.7883 32.8848C51.7883 35.8602 51.7971 38.8356 51.7971 41.811H54.0944ZM86.6429 41.811C86.6603 39.519 86.6865 37.2355 86.704 34.9434C87.2893 34.9434 87.8745 34.9434 88.4511 34.9434C88.9665 34.952 89.3771 35.2547 89.3771 35.7737C89.3771 37.789 89.3858 39.7957 89.3858 41.811C90.172 41.811 90.9582 41.811 91.7353 41.811C91.7533 39.813 91.7703 37.8063 91.7963 35.8083C91.8144 34.2255 91.1848 32.8156 89.281 32.8156C88.9228 32.8156 88.5647 32.8156 88.2065 32.8156C87.5776 32.8416 87.167 33.0319 86.6953 33.4817C86.2935 33.8708 86.3022 34.0784 86.3022 33.4643V32.8676H84.293C84.293 35.8429 84.3018 38.8356 84.3018 41.811C85.0879 41.811 85.8654 41.811 86.6429 41.811ZM77.8899 37.9361C78.746 37.9361 79.6021 37.9361 80.4494 37.9361C80.4494 38.3772 80.4494 38.8183 80.4494 39.2594C80.4494 39.813 78.8333 39.8303 77.8026 39.813C77.0513 39.7957 77.1387 39.813 77.1038 39.1557C77.095 38.9048 77.1038 38.6626 77.1038 38.4118C77.1125 37.9015 77.2173 37.9361 77.8899 37.9361ZM71.2248 38.801C71.2248 39.3719 70.7531 39.8476 70.1678 39.8476C69.7747 39.8476 69.3728 39.8476 68.9798 39.8476C68.1499 39.8476 68.1412 39.8563 68.1412 38.6886V36.0505C68.1412 34.8828 68.1499 34.8914 68.9798 34.8914C69.3728 34.8914 69.7747 34.8914 70.1678 34.8914C70.7443 34.8914 71.2248 35.3586 71.2248 35.938V38.801Z" fill="white"/>
</g>
</svg>
