<svg width="281" height="109" viewBox="0 0 281 109" fill="none" xmlns="http://www.w3.org/2000/svg">
<ellipse cx="140.427" cy="51.0696" rx="48.3627" ry="48.0696" fill="#161618"/>
<path fill-rule="evenodd" clip-rule="evenodd" d="M91.4546 15.9054C91.4546 12.3441 94.3416 9.45703 97.9029 9.45703H219.835C223.397 9.45703 226.284 12.3441 226.284 15.9054C226.284 19.4667 223.397 22.3537 219.835 22.3537H97.9029C94.3416 22.3537 91.4546 19.4667 91.4546 15.9054ZM159.455 41.6996C159.455 38.1383 162.342 35.2512 165.903 35.2512H253.835C257.397 35.2512 260.284 38.1383 260.284 41.6996C260.284 45.2609 257.397 48.1479 253.835 48.1479H165.903C162.342 48.1479 159.455 45.2609 159.455 41.6996ZM157.696 22.3544C154.135 22.3544 151.248 25.2415 151.248 28.8028C151.248 32.3641 154.135 35.2512 157.696 35.2512H219.835C223.396 35.2512 226.283 32.3641 226.283 28.8028C226.283 25.2415 223.396 22.3544 219.835 22.3544H157.696Z" fill="#161618"/>
<rect x="204.738" y="22.2461" width="76.2616" height="13.0538" rx="6.5269" fill="#0C0A0A"/>
<path fill-rule="evenodd" clip-rule="evenodd" d="M128.381 56.3536C128.381 52.7923 125.494 49.9053 121.932 49.9053H59.7935C56.2322 49.9053 53.3452 52.7923 53.3452 56.3536C53.3452 59.915 56.2322 62.802 59.7935 62.802H121.932C125.494 62.802 128.381 59.915 128.381 56.3536ZM141.864 82.1472C141.864 78.5859 138.977 75.6989 135.415 75.6989H25.7934C22.232 75.6989 19.345 78.5859 19.345 82.1472C19.345 85.7085 22.232 88.5956 25.7934 88.5956H135.415C138.977 88.5956 141.864 85.7085 141.864 82.1472ZM121.932 62.8021C125.494 62.8021 128.381 65.6891 128.381 69.2504C128.381 72.8117 125.494 75.6988 121.932 75.6988H59.7935C56.2322 75.6988 53.3452 72.8117 53.3452 69.2504C53.3452 65.6891 56.2322 62.8021 59.7935 62.8021H121.932Z" fill="#161618"/>
<rect width="75.0354" height="12.8967" rx="6.44835" transform="matrix(-1 0 0 1 75.0356 62.8018)" fill="#0C0A0A"/>
<path d="M186.576 37.0077C194.217 62.4973 179.747 89.3547 154.258 96.9953C128.768 104.636 101.911 90.1664 94.27 64.6768" stroke="#838A92" stroke-width="5" stroke-linecap="round" stroke-linejoin="round"/>
<path d="M91.7454 53.0754C90.679 26.4866 111.369 4.06767 137.958 3.00128" stroke="#838A92" stroke-width="5" stroke-linecap="round" stroke-linejoin="round"/>
<path d="M159.76 7.30973C170.808 12.0249 179.186 20.3797 184.092 30.3786" stroke="#838A92" stroke-width="5" stroke-linecap="round" stroke-linejoin="round"/>
<path d="M145.03 3.00946C148.002 3.25027 150.888 3.75585 153.668 4.50114" stroke="#838A92" stroke-width="5" stroke-linecap="round" stroke-linejoin="round"/>
<circle cx="56.5736" cy="10.9237" r="5.91389" stroke="#838A92" stroke-width="4"/>
<circle cx="208.401" cy="79.5101" r="7.08632" stroke="#838A92" stroke-width="4"/>
<g clip-path="url(#clip0)">
<path d="M137.061 32C132.376 32 128.565 35.8111 128.565 40.4954C128.565 45.1798 132.376 48.9909 137.061 48.9909C141.745 48.9909 145.556 45.1798 145.556 40.4954C145.556 35.8111 141.745 32 137.061 32Z" fill="url(#paint0_linear)"/>
<path fill-rule="evenodd" clip-rule="evenodd" d="M147.317 54.6437C145.045 52.5359 142.13 51.3818 139.047 51.3818H135.271C131.998 51.3818 128.915 52.6824 126.589 55.044C124.275 57.394 123 60.4961 123 63.7789C123 64.3002 123.423 64.7228 123.944 64.7228H142.822C142.591 63.9523 142.466 63.1355 142.466 62.2897C142.466 58.9106 144.45 55.9949 147.317 54.6437Z" fill="url(#paint1_linear)"/>
<path d="M150.759 54.9326C146.766 54.9326 143.518 58.181 143.518 62.1737C143.518 66.1665 146.766 69.4149 150.759 69.4149C154.751 69.4149 158 66.1665 158 62.1737C158 58.1809 154.751 54.9326 150.759 54.9326ZM150.759 68.1687C147.453 68.1687 144.764 65.4794 144.764 62.1737C144.764 58.8681 147.453 56.1788 150.759 56.1788C154.064 56.1788 156.754 58.8681 156.754 62.1737C156.754 65.4794 154.064 68.1687 150.759 68.1687Z" fill="#EC1111"/>
<path d="M150.758 57.0645C147.942 57.0645 145.651 59.3557 145.651 62.1721C145.651 64.9884 147.942 67.2797 150.758 67.2797C153.575 67.2797 155.866 64.9884 155.866 62.1721C155.866 59.3557 153.575 57.0645 150.758 57.0645ZM152.557 61.2048L152.515 61.3119H151.243V61.197C151.243 60.9838 151.202 60.8266 151.126 60.7295C151.054 60.638 150.957 60.5953 150.836 60.5953C150.715 60.5953 150.633 60.6287 150.58 60.6976C150.52 60.7751 150.492 60.8736 150.492 60.9992C150.492 61.1251 150.524 61.2225 150.587 61.297C150.656 61.3781 150.794 61.4645 150.997 61.5542C151.514 61.775 151.902 62.0005 152.149 62.2242C152.412 62.4615 152.543 62.8012 152.543 63.2339C152.543 63.6455 152.396 63.9827 152.134 64.236C151.897 64.4659 151.565 64.6105 151.178 64.6664V65.4408H150.469V64.6635C150.017 64.6068 149.72 64.4508 149.445 64.2C149.14 63.9231 148.986 63.516 148.996 62.9907L148.999 62.9647L149.053 62.8603H150.275V62.9737C150.275 63.2147 150.345 63.3864 150.441 63.4842C150.539 63.5832 150.68 63.6313 150.839 63.6313C150.965 63.6313 151.058 63.5982 151.118 63.5302C151.182 63.4582 151.214 63.3633 151.214 63.2406C151.214 63.0952 151.181 62.9838 151.116 62.9094C151.044 62.8268 150.906 62.7415 150.709 62.6562C150.184 62.4472 149.789 62.229 149.544 62.0091C149.285 61.7763 149.147 61.4343 149.147 60.9925C149.147 60.5917 149.263 60.256 149.535 59.995C149.782 59.7575 150.146 59.6101 150.468 59.5561V58.8603H151.243V59.5744C151.565 59.6469 151.946 59.8184 152.175 60.0842C152.423 60.3719 152.559 60.742 152.552 61.1834L152.557 61.2048Z" fill="#EC1111"/>
</g>
<defs>
<linearGradient id="paint0_linear" x1="137.061" y1="32" x2="137.061" y2="48.9909" gradientUnits="userSpaceOnUse">
<stop stop-color="#FEA51F"/>
<stop offset="1" stop-color="#FEC01F"/>
</linearGradient>
<linearGradient id="paint1_linear" x1="135.158" y1="51.3818" x2="135.158" y2="64.7228" gradientUnits="userSpaceOnUse">
<stop stop-color="#FEA51F"/>
<stop offset="1" stop-color="#FEC01F"/>
</linearGradient>
<clipPath id="clip0">
<rect width="38" height="38" fill="white" transform="translate(122 31.4414)"/>
</clipPath>
</defs>
</svg>
