<svg width="251" height="100" viewBox="0 0 251 100" fill="none" xmlns="http://www.w3.org/2000/svg">
<ellipse cx="125.434" cy="45.9385" rx="43.1994" ry="42.9376" fill="#202023"/>
<path fill-rule="evenodd" clip-rule="evenodd" d="M81.6902 14.5275C81.6902 11.3464 84.269 8.76758 87.4501 8.76758H196.365C199.546 8.76758 202.125 11.3464 202.125 14.5275C202.125 17.7057 199.551 20.2827 196.374 20.2874C199.551 20.2919 202.125 22.869 202.125 26.0473C202.125 29.2284 199.546 31.8072 196.365 31.8072H140.861C137.679 31.8072 135.101 29.2284 135.101 26.0473C135.101 22.8702 137.673 20.2939 140.849 20.2874H87.4501C84.269 20.2874 81.6902 17.7086 81.6902 14.5275ZM232.496 37.5672C232.496 40.7483 229.917 43.3271 226.736 43.3271H148.191C145.01 43.3271 142.431 40.7483 142.431 37.5672C142.431 34.3861 145.01 31.8073 148.191 31.8073H226.736C229.917 31.8073 232.496 34.3861 232.496 37.5672Z" fill="#29292E"/>
<rect x="182.88" y="20.1904" width="68.1198" height="11.6601" rx="5.83007" fill="#29292E"/>
<path fill-rule="evenodd" clip-rule="evenodd" d="M114.674 50.6584C114.674 47.4772 112.095 44.8984 108.914 44.8984H53.4091C50.228 44.8984 47.6492 47.4772 47.6492 50.6584C47.6492 53.8395 50.228 56.4183 53.4091 56.4183H108.914C112.095 56.4183 114.674 53.8395 114.674 50.6584ZM126.718 73.6982C126.718 70.5171 124.139 67.9383 120.958 67.9383H23.0395C19.8584 67.9383 17.2796 70.5171 17.2796 73.6982C17.2796 76.8793 19.8584 79.4581 23.0395 79.4581H120.958C124.139 79.4581 126.718 76.8793 126.718 73.6982ZM108.914 56.4183C112.095 56.4183 114.674 58.9971 114.674 62.1783C114.674 65.3594 112.095 67.9382 108.914 67.9382H53.4091C50.228 67.9382 47.6492 65.3594 47.6492 62.1783C47.6492 58.9971 50.228 56.4183 53.4091 56.4183H108.914Z" fill="#29292E"/>
<rect width="67.0245" height="11.5198" rx="5.75992" transform="matrix(-1 0 0 1 67.0244 56.418)" fill="#29292E"/>
<ellipse cx="124.5" cy="46" rx="43.5" ry="43" fill="#202023"/>
<path d="M166.657 33.3767C173.482 56.145 160.557 80.1351 137.789 86.96C115.02 93.7848 91.0305 80.8601 84.2056 58.0918" stroke="#838A92" stroke-width="5" stroke-linecap="round" stroke-linejoin="round"/>
<path d="M81.9502 47.7277C80.9977 23.9775 99.4788 3.95207 123.229 2.99952" stroke="#838A92" stroke-width="5" stroke-linecap="round" stroke-linejoin="round"/>
<path d="M142.703 6.84877C152.571 11.0605 160.055 18.5234 164.437 27.4548" stroke="#838A92" stroke-width="5" stroke-linecap="round" stroke-linejoin="round"/>
<path d="M129.546 3.00748C132.2 3.22259 134.778 3.67419 137.262 4.33991" stroke="#838A92" stroke-width="5" stroke-linecap="round" stroke-linejoin="round"/>
<circle cx="50.5329" cy="10.0768" r="5.06899" stroke="#838A92" stroke-width="4"/>
<circle cx="186.151" cy="71.3418" r="6.11625" stroke="#838A92" stroke-width="4"/>
<g clip-path="url(#clip0)">
<path d="M140.486 59.5879H110.5C109.671 59.5879 109 60.2795 109 61.1338C109 61.9867 109.671 62.6782 110.5 62.6782H140.486C141.314 62.6782 141.985 61.9867 141.985 61.1338C141.985 60.2795 141.313 59.5879 140.486 59.5879Z" fill="url(#paint0_linear)"/>
<path d="M112.374 55.5703C111.545 55.5703 110.874 56.2618 110.874 57.1154C110.874 57.969 111.545 58.6613 112.374 58.6613H138.612C139.44 58.6613 140.111 57.969 140.111 57.1154C140.111 56.2618 139.44 55.5703 138.612 55.5703H138.237V41.6668H138.612C139.027 41.6668 139.361 41.321 139.361 40.8949C139.361 40.4688 139.025 40.123 138.612 40.123H112.374C111.959 40.123 111.625 40.4688 111.625 40.8949C111.625 41.321 111.96 41.6668 112.374 41.6668H112.749V55.5696H112.374V55.5703ZM135.238 41.6668V55.5696H130.74V41.6668H135.238ZM127.741 41.6668V55.5696H123.243V41.6668H127.741ZM115.747 41.6668H120.244V55.5696H115.747V41.6668Z" fill="url(#paint1_linear)"/>
<path d="M110.5 38.7356H140.486C140.49 38.7356 140.496 38.7356 140.5 38.7356C141.33 38.7356 142 38.044 142 37.1904C142 36.5119 141.576 35.9368 140.987 35.7285L126.109 28.8309C125.718 28.6501 125.271 28.6501 124.879 28.8309L109.885 35.782C109.239 36.0815 108.885 36.8034 109.034 37.5152C109.182 38.227 109.793 38.7356 110.5 38.7356Z" fill="url(#paint2_linear)"/>
</g>
<defs>
<linearGradient id="paint0_linear" x1="125.493" y1="59.5879" x2="125.493" y2="62.6782" gradientUnits="userSpaceOnUse">
<stop stop-color="#FEC01F"/>
<stop offset="1" stop-color="#FEA51F"/>
</linearGradient>
<linearGradient id="paint1_linear" x1="125.493" y1="40.123" x2="125.493" y2="58.6613" gradientUnits="userSpaceOnUse">
<stop stop-color="#FEC01F"/>
<stop offset="1" stop-color="#FEA51F"/>
</linearGradient>
<linearGradient id="paint2_linear" x1="125.5" y1="28.6953" x2="125.5" y2="38.7356" gradientUnits="userSpaceOnUse">
<stop stop-color="#FEC01F"/>
<stop offset="1" stop-color="#FEA51F"/>
</linearGradient>
<clipPath id="clip0">
<rect width="33" height="34" fill="white" transform="translate(109 28.6855)"/>
</clipPath>
</defs>
</svg>
