<svg width="10" height="10" viewBox="0 0 10 10" fill="none" xmlns="http://www.w3.org/2000/svg">
<path d="M5 0C2.24311 0 0 2.24311 0 5C0 7.75689 2.24311 10 5 10C7.75689 10 10 7.75689 10 5C10 2.24311 7.75689 0 5 0ZM7.79449 3.68421L4.599 6.85464C4.41103 7.04261 4.11028 7.05514 3.90977 6.86717L2.21804 5.32581C2.01754 5.13784 2.00501 4.82456 2.18045 4.62406C2.36842 4.42356 2.6817 4.41103 2.88221 4.599L4.22306 5.82707L7.0802 2.96992C7.2807 2.76942 7.59398 2.76942 7.79449 2.96992C7.99499 3.17043 7.99499 3.48371 7.79449 3.68421Z" fill="#49E88C"/>
</svg>
