<svg width="12" height="12" viewBox="0 0 12 12" fill="none" xmlns="http://www.w3.org/2000/svg">
<path d="M6 0.75C3.1125 0.75 0.75 3.1125 0.75 6C0.75 8.8875 3.1125 11.25 6 11.25C8.8875 11.25 11.25 8.8875 11.25 6C11.25 3.1125 8.8875 0.75 6 0.75ZM6 1.8C6.5775 1.8 6.9975 2.2725 6.945 2.85L6.525 7.05H5.475L5.055 2.85C5.0025 2.2725 5.4225 1.8 6 1.8ZM6 10.2C5.4225 10.2 4.95 9.7275 4.95 9.15C4.95 8.5725 5.4225 8.1 6 8.1C6.5775 8.1 7.05 8.5725 7.05 9.15C7.05 9.7275 6.5775 10.2 6 10.2Z" fill="#FEBC1F"/>
</svg>
