<svg width="14" height="15" viewBox="0 0 14 15" fill="none" xmlns="http://www.w3.org/2000/svg">
<path d="M5.17755 8.33505C5.3038 8.08266 5.37505 7.79779 5.37505 7.49668C5.37505 7.19557 5.3038 6.9107 5.17755 6.65831V8.33505ZM5.17755 8.33505C4.98861 8.71262 4.67768 9.01537 4.29511 9.19425C3.91254 9.37314 3.48076 9.41768 3.0697 9.32066C2.65865 9.22364 2.29241 8.99074 2.03031 8.65969C1.76821 8.32864 1.62561 7.91884 1.62561 7.49668C1.62561 7.07451 1.76821 6.66471 2.03031 6.33367C2.29241 6.00262 2.65865 5.76972 3.0697 5.6727C3.48076 5.57568 3.91254 5.62022 4.29511 5.7991C4.67768 5.97799 4.98861 6.28074 5.17755 6.65831V8.33505ZM5.17755 8.33505L9.32255 10.4066L5.17755 8.33505ZM5.17755 6.65831L9.32255 4.58676L5.17755 6.65831ZM9.32255 4.58676C9.43269 4.80691 9.58514 5.00322 9.77119 5.16448C9.95724 5.32574 10.1732 5.44879 10.4069 5.52662C10.6405 5.60444 10.8872 5.6355 11.1328 5.61803C11.3784 5.60056 11.6182 5.53491 11.8385 5.42481C12.0587 5.31472 12.2551 5.16234 12.4165 4.97637C12.5778 4.79041 12.7009 4.5745 12.7788 4.34099C12.8566 4.10747 12.8877 3.8609 12.8702 3.61538C12.8528 3.36986 12.7871 3.13017 12.6769 2.91002C12.4545 2.46541 12.0644 2.12733 11.5926 1.97017C11.1208 1.813 10.6058 1.84962 10.161 2.07197C9.71617 2.29432 9.37794 2.68418 9.2207 3.1558C9.06346 3.62741 9.1001 4.14214 9.32255 4.58676V4.58676ZM9.32255 10.4066C9.1001 10.8513 9.06349 11.3661 9.22079 11.8378C9.37809 12.3095 9.7164 12.6994 10.1613 12.9217C10.6062 13.144 11.1212 13.1806 11.5931 13.0234C12.065 12.8662 12.4551 12.528 12.6775 12.0833C12.9 11.6386 12.9366 11.1238 12.7793 10.6522C12.622 10.1805 12.2837 9.79058 11.8388 9.56823C11.6185 9.45814 11.3787 9.39249 11.133 9.37504C10.8873 9.35758 10.6406 9.38867 10.407 9.46652C9.93507 9.62375 9.545 9.9619 9.32255 10.4066V10.4066Z" stroke="#F7F8FA" stroke-width="2" stroke-linecap="round" stroke-linejoin="round"/>
</svg>
