<svg width="546" height="427" viewBox="0 0 546 427" fill="none" xmlns="http://www.w3.org/2000/svg">
<g clip-path="url(#clip0)">
<path d="M531.107 335.869C527.573 346.516 519.315 354.961 513.292 364.489C504.962 377.663 501.14 393.327 501.861 408.81H129.783C122.463 401.989 110.563 397.513 104.36 391.702C92.5684 380.695 84.7792 365.789 81.0289 350.197C74.7182 324.031 75.1509 288.083 94.9484 267.619C106.236 255.962 125.059 257.875 135.12 244.485C143.162 233.802 142.693 219.184 147.345 207.022C150.374 199.045 155.351 191.538 162.491 186.919C168.585 182.985 175.869 181.36 183.082 180.855C194.513 180.061 206.125 181.902 216.69 186.197C227.833 190.708 239.012 192.765 251.093 192.91C264.94 193.09 278.066 190.816 291.373 187.388C304.391 184.031 318.202 182.804 330.174 176.235C347.123 166.96 359.276 154.292 379.217 151.549C400.566 148.589 424.33 155.988 438.862 172.265C448.671 183.237 452.818 197.529 449.717 212.002C447.806 220.917 443.334 230.77 450.258 238.71C454.837 243.979 462.266 245.676 469.226 246.181C487.941 247.625 504.313 251.378 517.836 265.526C531.179 279.494 532.297 293.028 533.126 311.362C533.523 319.591 533.703 328.001 531.107 335.869Z" fill="#323439"/>
<path d="M114.638 104.63H44.2471V115.746H114.638V104.63Z" fill="#838A92"/>
<path d="M114.638 104.63H44.2471V115.746H114.638V104.63Z" fill="#838A92"/>
<path d="M114.638 104.63H44.2471V115.746H114.638V104.63Z" fill="#838A92"/>
<path d="M114.638 104.63H44.2471V115.746H114.638V104.63Z" fill="#838A92"/>
<path d="M111.681 104.63H47.168V52.2969H61.4121C89.1791 52.2969 111.681 74.818 111.681 102.609V104.63Z" fill="#838A92"/>
<path d="M111.681 104.63H47.168V52.2969H61.4121C89.1791 52.2969 111.681 74.818 111.681 102.609V104.63Z" fill="#838A92"/>
<path d="M111.681 104.63H47.168V52.2969H61.4121C89.1791 52.2969 111.681 74.818 111.681 102.609V104.63Z" fill="#838A92"/>
<path d="M111.681 70.8119V104.63H47.168V52.2969H93.1818C103.387 52.2969 111.681 60.5979 111.681 70.8119Z" fill="#838A92"/>
<path d="M112.367 367.053H46.4834V387.372H112.367V367.053Z" fill="#838A92"/>
<path d="M125.42 387.372H33.3926V413.575H125.42V387.372Z" fill="#838A92"/>
<path d="M102.089 114.05H56.7607V368.748H63.0354L58.5277 372.322L60.2226 374.451L67.3987 368.748H102.126V114.05H102.089ZM60.1505 342.221H96.5361L67.3266 365.356H60.1865V342.221H60.1505ZM98.6997 126.141H60.1144V117.442H98.6997V126.141ZM98.6997 339.514H62.6026L98.6997 313.276V339.514ZM98.6997 309.017H62.6026L98.6997 282.778V309.017ZM98.6997 278.555H62.6026L98.6997 252.317V278.555ZM98.6997 248.058H62.6026L98.6997 221.819V248.058ZM98.6997 217.597H62.6026L98.6997 191.358V217.597ZM98.6997 187.099H62.6026L98.6997 160.861V187.099ZM98.6997 156.638H62.6026L98.6997 130.399V156.638ZM96.2476 128.847L60.1505 155.086V128.847H96.2476ZM96.2476 159.345L60.1505 185.583V159.345H96.2476ZM96.2476 189.806L60.1505 216.045V189.806H96.2476ZM96.2476 220.304L60.1505 246.506V220.267H96.2476V220.304ZM96.2476 250.765L60.1505 277.004V250.765H96.2476ZM96.2476 281.262L60.1505 307.501V281.262H96.2476ZM96.2476 311.724L60.1505 337.962V311.724H96.2476ZM98.6997 343.917V365.356H71.6539L98.6997 343.917Z" fill="#838A92"/>
<path d="M94.6972 54.7871L79.4073 30.4614L64.1535 54.7871L61.3047 52.9826L77.424 27.2853L75.9094 24.8672H82.9413L81.4267 27.2853L97.546 52.9826L94.6972 54.7871Z" fill="#838A92"/>
<path d="M293.356 56.4834H0V89.2546H323.54L293.356 56.4834ZM3.38974 68.2854L23.8003 85.862H3.38974V68.2854ZM3.38974 64.7123V59.876H26.5049V84.5988L3.38974 64.7123ZM29.2094 61.3558L54.5964 85.862H29.2094V61.3558ZM31.5534 59.876H56.9764V84.3822L31.5534 59.876ZM59.681 61.3558L85.068 85.862H59.681V61.3558ZM62.025 59.876H87.4119V84.3822L62.025 59.876ZM90.1165 61.3558L115.503 85.862H90.1165V61.3558ZM92.4965 59.876H117.883V84.3822L92.4965 59.876ZM120.588 61.3558L145.975 85.862H120.588V61.3558ZM122.932 59.876H148.319V84.3822L122.932 59.876ZM151.024 61.3558L176.411 85.862H151.024V61.3558ZM153.404 59.876H178.791V84.3822L153.404 59.876ZM181.495 61.3558L206.882 85.862H181.495V61.3558ZM183.839 59.876H209.226V84.3822L183.839 59.876ZM211.931 85.862V61.3558L237.318 85.862H211.931ZM214.311 59.876H239.698V84.3822L214.311 59.876ZM251.417 85.862H242.402V59.876H251.417H291.878L315.822 85.862H251.417Z" fill="#838A92"/>
<path d="M298.982 88.5326L270.818 61.3556V87.5581L268.511 88.4965L240.455 60.2729L242.366 58.36L268.114 84.2738V58.1796L270.386 57.2051L300.857 86.5837L298.982 88.5326Z" fill="#838A92"/>
<path d="M111.681 70.8119V92.4307C82.3994 91.9255 68.7684 64.171 64.2607 52.2969H93.1817C103.387 52.2969 111.681 60.5979 111.681 70.8119Z" fill="#838A92"/>
<path d="M293.284 87.3066H249.975V99.1447H293.284V87.3066Z" fill="#838A92"/>
<path d="M272.982 97.3398H270.277V236.004H272.982V97.3398Z" fill="#838A92"/>
<path d="M281.42 234.199H261.803V262.206H281.42V234.199Z" fill="#838A92"/>
<path d="M274.331 261.725L268.922 261.763L268.978 269.992L274.388 269.954L274.331 261.725Z" fill="#838A92"/>
<path d="M270.927 287.94C265.337 287.687 260.721 283.067 260.469 277.473C260.18 271.157 265.229 265.924 271.467 265.924V270.002C267.645 270.002 264.544 273.106 264.544 276.932C264.544 280.757 267.645 283.861 271.467 283.861C274.821 283.861 278.103 281.479 278.86 278.303C279.04 277.509 279.725 276.896 280.555 276.896C281.637 276.896 282.466 277.87 282.286 278.917C281.276 284.222 276.552 288.192 270.927 287.94Z" fill="#838A92"/>
<path d="M90.6943 27.9354C90.6943 34.1792 85.6458 39.232 79.4072 39.232C73.1687 39.232 68.1201 34.1792 68.1201 27.9354C68.1201 21.6915 73.1687 16.6387 79.4072 16.6387C85.6458 16.6387 90.6943 21.6915 90.6943 27.9354Z" fill="#838A92"/>
<path d="M85.3922 27.9355C85.3922 31.256 82.7237 33.9268 79.4061 33.9268C76.0884 33.9268 73.4199 31.256 73.4199 27.9355C73.4199 24.6151 76.0884 21.9443 79.4061 21.9443C82.7237 21.9443 85.3922 24.6151 85.3922 27.9355Z" fill="#838A92"/>
<path d="M71.2873 32.1929L27.5137 57.582L28.2008 58.7686L71.9744 33.3795L71.2873 32.1929Z" fill="#838A92"/>
<path d="M90.702 28.6918L90.4844 30.0459L269.354 58.8402L269.572 57.4861L90.702 28.6918Z" fill="#838A92"/>
<path d="M452.205 173.853V360.772C452.205 366.944 447.193 371.96 441.027 371.96H140.241C134.075 371.96 129.099 366.944 129.099 360.772V173.853C129.099 167.646 134.075 162.665 140.241 162.665H441.063C447.229 162.701 452.205 167.682 452.205 173.853Z" fill="#626A6E"/>
<path d="M452.241 351.353V360.809C452.241 366.98 447.229 371.997 441.063 371.997H140.241C134.075 371.997 129.099 366.98 129.099 360.809V351.353H452.241Z" fill="#626A6E"/>
<path d="M440.305 175.116H141.034V338.72H440.305V175.116Z" fill="#E5E6E9"/>
<path d="M328.806 371.996H252.501V406.68H328.806V371.996Z" fill="#626A6E"/>
<path d="M347.448 406.681H233.855C231.944 406.681 230.43 408.233 230.43 410.109C230.43 412.022 231.98 413.538 233.855 413.538H347.448C349.359 413.538 350.873 411.986 350.873 410.109C350.873 408.197 349.359 406.681 347.448 406.681Z" fill="#626A6E"/>
<path d="M452.206 220.376V253.147L451.485 254.374C451.341 254.627 451.124 254.879 450.908 255.06C450.692 255.24 450.475 255.421 450.187 255.565C449.502 255.926 448.708 256.034 447.915 255.962C447.374 255.89 446.833 255.673 446.328 255.385L440.27 251.703L439.044 250.945L437.277 249.863L421.915 240.479L417.768 237.952L407.166 231.492V231.456L391.804 222.072L382.68 216.478L377.091 213.085L361.729 203.701L346.98 194.715L331.618 185.331L316.869 176.308L315.03 175.189L301.832 166.996C301.796 166.96 301.723 166.924 301.687 166.888C300.245 165.913 299.596 164.181 300.065 162.665H356.717L356.608 161.943L357.798 162.665L364.722 166.888L372.006 171.363L378.173 175.117L386.755 180.35L402.117 189.734L416.83 198.721L432.192 208.105L439.08 212.327L440.306 213.085L446.941 217.164L452.206 220.376Z" fill="#FBD15B"/>
<path d="M316.941 176.272V176.236L316.797 175.117L315.787 166.888L315.282 162.701H328.913L329.418 166.888L330.428 175.117L331.69 185.258L316.941 176.272Z" fill="#1D262D"/>
<path d="M347.016 194.642L344.636 175.117L343.626 166.888L343.121 162.701H356.752L357.257 166.888L358.267 175.117L361.765 203.629L347.016 194.642Z" fill="#1D262D"/>
<path d="M391.838 222.072L386.718 180.35L372.005 171.363L377.126 213.049L391.838 222.072Z" fill="#1D262D"/>
<path d="M421.951 240.442L416.83 198.756L402.117 189.733L407.202 231.455L421.951 240.442Z" fill="#1D262D"/>
<path d="M451.484 254.374L446.904 217.164L432.191 208.141L437.312 249.826L446.363 255.348C448.166 256.503 450.474 256.034 451.484 254.374Z" fill="#1D262D"/>
<path d="M269.051 309.377H267.284V413.574H269.051V309.377Z" fill="#231F20"/>
<path d="M271.864 381.632H264.58V385.782H271.864V381.632Z" fill="#231F20"/>
<path d="M327.904 381.632H320.619V385.782H327.904V381.632Z" fill="#231F20"/>
<path d="M325.054 309.377H323.287V413.574H325.054V309.377Z" fill="#231F20"/>
<path d="M334.321 314.502V326.737C334.321 327.676 333.564 328.398 332.662 328.398H259.17C258.232 328.398 257.511 327.64 257.511 326.737V314.502C257.511 313.564 258.268 312.842 259.17 312.842H332.662C333.564 312.806 334.321 313.564 334.321 314.502Z" fill="#FBD15B"/>
<path d="M274.351 312.806L263.028 328.433H259.17C258.232 328.433 257.511 327.675 257.511 326.773V325.727L266.851 312.842H274.351V312.806Z" fill="#1D262D"/>
<path d="M289.641 312.806L278.318 328.433H270.817L282.141 312.806H289.641Z" fill="#1D262D"/>
<path d="M304.931 312.806L293.608 328.433H286.144L297.467 312.806H304.931Z" fill="#1D262D"/>
<path d="M320.256 312.806L308.933 328.433H301.433L312.756 312.806H320.256Z" fill="#1D262D"/>
<path d="M334.32 314.502L324.223 328.434H316.723L328.046 312.842H332.626C333.563 312.806 334.32 313.564 334.32 314.502Z" fill="#1D262D"/>
<path d="M334.321 369.182V381.417C334.321 382.355 333.564 383.077 332.662 383.077H259.17C258.232 383.077 257.511 382.319 257.511 381.417V369.182C257.511 368.243 258.268 367.521 259.17 367.521H332.662C333.564 367.521 334.321 368.243 334.321 369.182Z" fill="#FBD15B"/>
<path d="M274.351 367.521L263.028 383.113H259.17C258.232 383.113 257.511 382.355 257.511 381.453V380.406L266.851 367.521H274.351Z" fill="#1D262D"/>
<path d="M289.641 367.521L278.318 383.113H270.817L282.141 367.521H289.641Z" fill="#1D262D"/>
<path d="M304.931 367.521L293.608 383.113H286.144L297.467 367.521H304.931Z" fill="#1D262D"/>
<path d="M320.256 367.521L308.933 383.113H301.433L312.756 367.521H320.256Z" fill="#1D262D"/>
<path d="M334.32 369.182L324.223 383.113H316.723L328.046 367.521H332.626C333.563 367.521 334.32 368.243 334.32 369.182Z" fill="#1D262D"/>
<path d="M334.321 333.054V362.54C334.321 363.984 333.167 365.139 331.724 365.139H260.107C258.665 365.139 257.511 363.984 257.511 362.54V333.054C257.511 331.61 258.665 330.455 260.107 330.455H331.724C333.167 330.419 334.321 331.61 334.321 333.054Z" fill="#FBD15B"/>
<path d="M332.951 334.136V361.422C332.951 362.613 331.977 363.587 330.751 363.587H261.045C259.819 363.587 258.846 362.613 258.846 361.422V334.136C258.846 332.945 259.819 331.971 261.045 331.971H330.751C331.977 331.971 332.951 332.945 332.951 334.136Z" stroke="#414042" stroke-width="2.207" stroke-miterlimit="10"/>
<path d="M414.592 368.351H405.108V374.558H414.592V368.351Z" fill="#1D262D"/>
<path d="M411.311 296.348H408.102V413.573H411.311V296.348Z" fill="#1D262D"/>
<path d="M371.464 323.164L408.354 286.243C409.075 285.521 410.265 285.521 410.987 286.243L447.877 323.164C448.598 323.886 448.598 325.077 447.877 325.799L410.987 362.721C410.265 363.443 409.075 363.443 408.354 362.721L371.464 325.799C370.743 325.077 370.743 323.886 371.464 323.164Z" fill="#FBD15B"/>
<path d="M444.524 325.366C444.74 324.824 444.74 324.211 444.524 323.67C444.415 323.381 444.235 323.092 443.983 322.839L411.384 290.213C410.446 289.274 408.931 289.274 408.03 290.213L375.431 322.839C375.178 323.092 374.998 323.381 374.89 323.67C374.673 324.211 374.673 324.824 374.89 325.366C374.998 325.655 375.178 325.943 375.431 326.196L408.03 358.823C408.967 359.761 410.482 359.761 411.384 358.823L443.983 326.196C444.199 325.943 444.379 325.655 444.524 325.366ZM410.302 357.776C409.941 358.137 409.364 358.137 409.04 357.776L376.44 325.149C376.08 324.788 376.08 324.211 376.44 323.886L409.04 291.259C409.4 290.898 409.977 290.898 410.302 291.259L442.901 323.886C443.262 324.247 443.262 324.824 442.901 325.149L410.302 357.776Z" fill="#231F20"/>
<path d="M416.396 330.022L418.74 329.408L422.022 332.693C422.346 331.357 421.985 329.913 420.94 328.867C419.75 327.676 418.055 327.387 416.612 327.965L404.676 316.018C405.253 314.575 404.929 312.842 403.775 311.687C402.729 310.641 401.286 310.316 399.952 310.604L403.234 313.889L402.621 316.235L400.277 316.848L396.995 313.564C396.671 314.899 397.031 316.343 398.077 317.39C399.267 318.581 400.962 318.869 402.404 318.292L414.341 330.238C413.764 331.682 414.088 333.414 415.242 334.569C416.288 335.616 417.73 335.941 419.065 335.652L415.783 332.368L416.396 330.022Z" fill="#231F20"/>
<path d="M424.762 318.291C423.969 317.497 423.103 318.472 423.103 318.472C422.346 317.786 422.598 316.667 422.274 316.054C421.949 315.476 421.228 314.213 417.766 311.47C414.304 308.727 411.455 310.46 411.455 310.46C415.855 310.748 417.081 313.997 416.432 314.791C415.855 315.476 416.107 316.234 416.143 316.379L407.633 324.896L407.525 324.788C407.272 324.535 406.876 324.535 406.659 324.788L398.077 333.378C397.572 333.883 397.572 334.713 398.077 335.218L399.087 336.229C399.591 336.734 400.421 336.734 400.926 336.229L409.508 327.639C409.761 327.387 409.761 326.99 409.508 326.773L409.472 326.737L417.91 318.291L417.946 318.364C418.451 318.725 419.064 318.652 419.749 318.544C420.435 318.436 421.805 319.807 421.805 319.807C421.805 319.807 421.589 319.988 421.444 320.493C421.3 320.998 421.516 321.323 422.093 321.468C422.706 321.684 425.555 319.085 424.762 318.291Z" fill="#231F20"/>
<path d="M420.4 347.671L418.921 349.151H421.013L422.491 347.671H420.4ZM398.979 347.671H396.888L398.366 349.151H400.458L398.979 347.671ZM426.782 341.283L425.304 342.762H427.395L428.874 341.283H426.782ZM392.597 341.283H390.505L391.983 342.762H394.075L392.597 341.283ZM414.017 354.059L412.538 355.539H414.63L416.108 354.059H414.017ZM405.326 354.059H403.235L404.713 355.539H406.805L405.326 354.059ZM417.226 350.883L415.748 352.363H417.839L419.318 350.883H417.226ZM402.153 350.883H400.061L401.54 352.363H403.631L402.153 350.883ZM436.339 331.718L434.86 333.198H436.952L438.43 331.718H436.339ZM383.04 331.718H380.949L382.427 333.198H384.519L383.04 331.718ZM439.512 328.542L438.033 330.022H440.125L441.603 328.542H439.512ZM379.831 328.542H377.739L379.218 330.022H381.309L379.831 328.542ZM444.524 325.366H442.721L441.243 326.846H443.334L443.983 326.196C444.2 325.944 444.38 325.655 444.524 325.366ZM376.658 325.33H374.854C374.963 325.619 375.143 325.908 375.395 326.16L376.045 326.81H378.136L376.658 325.33ZM429.956 338.106L428.477 339.586H430.569L432.047 338.106H429.956ZM389.387 338.106H387.296L388.774 339.586H390.866L389.387 338.106ZM433.165 334.93L431.687 336.41H433.778L435.257 334.93H433.165ZM386.214 334.93H384.122L385.601 336.41H387.692L386.214 334.93ZM410.843 357.235L410.303 357.74C409.942 358.101 409.365 358.101 409.04 357.74L408.536 357.235H406.444L407.922 358.715H411.456L412.935 357.235H410.843ZM423.573 344.495L422.094 345.974H424.186L425.665 344.495H423.573ZM395.77 344.495H393.678L395.157 345.974H397.248L395.77 344.495ZM421.013 299.813H418.921L420.4 301.293H422.491L421.013 299.813ZM398.366 299.813L396.888 301.293H398.979L400.458 299.813H398.366ZM424.186 303.025H422.094L423.573 304.505H425.665L424.186 303.025ZM395.157 303.025L393.678 304.505H395.77L397.248 303.025H395.157ZM411.456 290.249H407.922L406.444 291.729H408.536L409.04 291.224C409.401 290.863 409.978 290.863 410.303 291.224L410.807 291.729H412.899L411.456 290.249ZM417.839 296.637H415.748L417.226 298.117H419.318L417.839 296.637ZM401.54 296.637L400.061 298.117H402.153L403.631 296.637H401.54ZM404.713 293.461L403.235 294.941H405.326L406.805 293.461H404.713ZM414.63 293.461H412.538L414.017 294.941H416.108L414.63 293.461ZM427.395 306.202H425.304L426.782 307.681H428.874L427.395 306.202ZM391.983 306.202L390.505 307.681H392.597L394.075 306.202H391.983ZM436.952 315.766H434.86L436.339 317.246H438.43L436.952 315.766ZM382.427 315.766L380.949 317.246H383.04L384.519 315.766H382.427ZM443.983 322.804L443.334 322.154H441.243L442.721 323.634H444.524C444.38 323.345 444.236 323.056 443.983 322.804ZM376.045 322.154L375.395 322.804C375.143 323.056 374.963 323.345 374.854 323.634H376.658L378.136 322.154H376.045ZM440.125 318.978H438.033L439.512 320.458H441.603L440.125 318.978ZM379.218 318.978L377.739 320.458H379.831L381.309 318.978H379.218ZM430.569 309.414H428.477L429.956 310.893H432.047L430.569 309.414ZM388.774 309.414L387.296 310.893H389.387L390.866 309.414H388.774ZM433.778 312.59H431.687L433.165 314.069H435.257L433.778 312.59ZM385.601 312.59L384.122 314.069H386.214L387.692 312.59H385.601Z" fill="#58595B"/>
<path d="M402.259 340.38L400.78 342.112H402.295L403.773 340.38H402.259Z" fill="#231F20"/>
<path d="M417.693 340.38L416.251 342.112H417.766L419.208 340.38H417.693Z" fill="#231F20"/>
<path d="M405.323 340.38L403.881 342.112H405.395L406.838 340.38H405.323Z" fill="#231F20"/>
<path d="M414.627 340.38L413.148 342.112H414.663L416.142 340.38H414.627Z" fill="#231F20"/>
<path d="M411.526 340.38L410.048 342.112H411.562L413.041 340.38H411.526Z" fill="#231F20"/>
<path d="M408.425 340.38L406.982 342.112H408.497L409.939 340.38H408.425Z" fill="#231F20"/>
<path d="M441.495 324.644C441.495 325.474 440.81 326.16 439.98 326.16C439.151 326.16 438.466 325.474 438.466 324.644C438.466 323.814 439.151 323.128 439.98 323.128C440.81 323.128 441.495 323.814 441.495 324.644Z" fill="url(#paint0_linear)"/>
<path d="M441.026 324.643C441.026 325.221 440.557 325.69 439.98 325.69C439.403 325.69 438.935 325.221 438.935 324.643C438.935 324.066 439.403 323.597 439.98 323.597C440.557 323.597 441.026 324.066 441.026 324.643Z" fill="url(#paint1_linear)"/>
<path d="M440.882 324.643C440.882 325.149 440.449 325.582 439.944 325.582C439.44 325.582 439.007 325.149 439.007 324.643C439.007 324.138 439.44 323.705 439.944 323.705C440.485 323.705 440.882 324.138 440.882 324.643Z" fill="#E6E7E8"/>
<path d="M382.03 324.644C382.03 325.474 381.345 326.16 380.516 326.16C379.686 326.16 379.001 325.474 379.001 324.644C379.001 323.814 379.686 323.128 380.516 323.128C381.345 323.128 382.03 323.814 382.03 324.644Z" fill="url(#paint2_linear)"/>
<path d="M381.561 324.643C381.561 325.221 381.092 325.69 380.515 325.69C379.938 325.69 379.47 325.221 379.47 324.643C379.47 324.066 379.938 323.597 380.515 323.597C381.092 323.597 381.561 324.066 381.561 324.643Z" fill="url(#paint3_linear)"/>
<path d="M381.452 324.643C381.452 325.149 381.02 325.582 380.515 325.582C380.01 325.582 379.577 325.149 379.577 324.643C379.577 324.138 380.01 323.705 380.515 323.705C381.02 323.705 381.452 324.138 381.452 324.643Z" fill="#E6E7E8"/>
<path d="M176.483 321.757C176.879 322.984 178.105 323.525 179.368 323.706C185.029 324.428 200.499 326.304 201.329 322.154C202.302 317.245 188.816 316.884 183.875 317.245C179.728 317.57 175.545 318.797 176.483 321.757Z" fill="#D3AF8C"/>
<path d="M178.574 315.188C179.512 315.008 184.02 315.549 184.741 316.199C187.878 318.942 190.186 325.15 189.934 330.816C189.609 337.782 189.789 339.298 189.789 344.242C189.789 349.187 191.701 359.076 191.701 360.339C191.701 361.602 171.398 361.061 170.965 360.556C170.533 360.014 171.362 323.959 172.624 320.386C173.85 316.849 174.572 315.946 178.574 315.188Z" fill="#E0BD96"/>
<path d="M179.187 355.719C176.302 356.549 174.751 359.689 175.797 362.504C176.626 364.742 178.069 367.629 180.557 370.95C186.795 379.251 191.7 390.475 195.991 390.295C200.282 390.114 201.544 383.004 197.145 373.945C193.178 365.752 189.428 354.961 186.291 354.528C184.668 354.275 181.711 354.961 179.187 355.719Z" fill="#E0BD96"/>
<path d="M179.547 355.791C176.915 354.348 173.597 355.502 172.371 358.245C171.398 360.447 170.388 363.479 169.847 367.593C168.441 377.879 164.077 389.356 167.251 392.208C170.424 395.095 176.338 390.908 179.547 381.344C182.468 372.718 187.373 362.432 185.425 359.87C184.452 358.642 181.855 357.054 179.547 355.791Z" fill="#E0BD96"/>
<path d="M178.358 319.447C177.132 319.808 176.302 320.927 176.122 322.19C175.293 327.856 173.345 343.376 177.456 344.314C182.289 345.397 182.938 331.899 182.685 326.954C182.469 322.804 181.315 318.581 178.358 319.447Z" fill="#D3AF8C"/>
<path d="M176.447 341.608C176.375 340.633 176.916 339.695 177.673 339.081C181.568 336.086 195.703 325.33 197.579 326.377C199.778 327.568 180.089 344.026 178.827 343.629C177.853 343.304 176.555 343.196 176.447 341.608Z" fill="#E8C8A1"/>
<path d="M199.67 323.743C199.67 323.743 217.664 311.868 217.159 309.234C216.654 306.599 196.532 318.87 196.496 320.278C196.496 321.721 195.955 323.562 199.67 323.743Z" fill="#D3AF8C"/>
<path d="M185.714 316.199C185.714 316.199 196.965 317.895 197.903 317.751C198.804 317.606 212.399 309.919 212.399 309.919L214.455 313.528C214.455 313.528 203.276 322.407 199.201 324.175C195.126 325.944 185.426 324.392 185.426 324.392L184.308 317.209L185.714 316.199Z" fill="#EA992F"/>
<path d="M214.563 310.424C213.625 308.872 216.51 307.573 217.52 307.176C219.142 306.527 221.523 306.996 221.811 307.609C222.099 308.259 218.313 309.522 218.241 309.703C218.169 309.883 220.08 309.45 220.26 310.1C220.441 310.713 218.025 311.652 216.907 311.615C215.789 311.615 215.14 311.399 214.563 310.424Z" fill="#D3AF8C"/>
<path d="M171.579 387.841C164.907 383.257 160.075 410.434 160.544 417.544C161.049 424.69 164.258 417.689 168.117 406.861C172.048 396.034 174.211 389.645 171.579 387.841Z" fill="#E8C8A1"/>
<path d="M162.851 419.132C162.851 419.132 163.356 420.504 164.727 422.525C166.097 424.546 166.71 424.402 166.566 424.943C166.421 425.484 158.849 422.489 158.849 422.489L160.399 418.23C160.399 418.158 162.887 419.024 162.851 419.132Z" fill="#0B2135"/>
<path d="M197.975 384.557C190.149 382.428 194.693 413.358 197.506 419.927C200.319 426.496 201.04 418.808 201.112 407.331C201.22 395.818 201.04 385.387 197.975 384.557Z" fill="#E8C8A1"/>
<path d="M200.464 420.576C200.464 420.576 201.473 421.623 203.529 422.922C205.62 424.221 206.089 423.861 206.197 424.402C206.305 424.943 198.156 425.232 198.156 425.232L197.831 420.684C197.831 420.684 200.427 420.468 200.464 420.576Z" fill="#0B2135"/>
<path d="M191.953 360.628C191.953 360.628 201.582 378.53 201.582 386.867C201.582 395.204 201.149 416.967 201.149 416.967L195.992 418.014C195.992 418.014 193.36 404.588 193.143 400.582C192.927 396.575 192.819 390.981 192.711 390.332C192.602 389.682 179.945 374.92 178.034 366.367C176.122 357.813 184.561 357.38 184.561 357.38L191.953 360.628Z" fill="#161618"/>
<path d="M170.569 360.7C170.569 360.7 168.874 368.929 167.107 377.59C165.34 386.252 165.557 390.259 165.268 390.981C164.98 391.702 161.049 404.082 160.256 413.718L165.377 415.342C165.377 415.342 172.841 396.106 174.031 393.363C175.221 390.62 185.282 370.914 186.328 360.122C187.446 349.367 170.569 360.7 170.569 360.7Z" fill="#0C0A0A"/>
<path d="M61.9163 321.757C62.313 322.984 63.539 323.525 64.8012 323.706C70.4628 324.428 85.9329 326.304 86.7623 322.154C87.772 317.245 74.2852 316.884 69.3088 317.245C65.1978 317.57 60.9787 318.797 61.9163 321.757Z" fill="#D3AF8C"/>
<path d="M64.0079 315.188C64.9455 315.008 69.4532 315.549 70.1744 316.199C73.3117 318.942 75.6196 325.15 75.3672 330.816C75.0426 337.782 75.2229 339.298 75.2229 344.242C75.2229 349.187 77.1341 359.076 77.1341 360.339C77.1341 361.602 56.8318 361.061 56.3991 360.556C55.9663 360.014 56.7957 323.959 58.0579 320.386C59.32 316.849 60.0052 315.946 64.0079 315.188Z" fill="#E0BD96"/>
<path d="M65.884 356.477C62.927 356.946 61.0158 359.87 61.7009 362.793C62.2418 365.139 63.3597 368.135 65.4152 371.744C70.608 380.731 74.142 392.497 78.3972 392.821C82.6524 393.146 84.78 386.253 81.4984 376.725C78.5414 368.099 76.1253 356.946 73.0601 356.152C71.5095 355.755 68.4804 356.08 65.884 356.477Z" fill="#E0BD96"/>
<path d="M63.5766 355.612C60.6918 354.781 57.6987 356.586 57.0857 359.546C56.5808 361.891 56.2923 365.104 56.6169 369.218C57.4463 379.576 55.6432 391.703 59.3575 393.833C63.0718 395.962 67.94 390.62 69.0579 380.587C70.0676 371.528 72.664 360.412 70.2119 358.355C68.9497 357.344 66.1009 356.333 63.5766 355.612Z" fill="#E0BD96"/>
<path d="M63.7925 319.447C62.5664 319.808 61.737 320.927 61.5567 322.19C60.7273 327.856 58.78 343.376 62.891 344.314C67.7231 345.397 68.3722 331.899 68.1198 326.954C67.9034 322.804 66.7495 318.581 63.7925 319.447Z" fill="#D3AF8C"/>
<path d="M61.9176 341.608C61.8455 340.633 62.3864 339.695 63.1437 339.081C67.0382 336.086 81.1742 325.33 83.0493 326.377C85.2491 327.568 65.5597 344.026 64.2976 343.629C63.2879 343.304 61.9897 343.196 61.9176 341.608Z" fill="#E8C8A1"/>
<path d="M85.1042 323.743C85.1042 323.743 103.099 311.868 102.594 309.234C102.089 306.599 81.9669 318.87 81.9308 320.278C81.9308 321.721 81.3899 323.562 85.1042 323.743Z" fill="#D3AF8C"/>
<path d="M71.1486 316.199C71.1486 316.199 82.3996 317.895 83.3372 317.751C84.2387 317.606 97.8337 309.919 97.8337 309.919L99.8892 313.528C99.8892 313.528 88.7103 322.407 84.6354 324.175C80.5605 325.944 70.8601 324.392 70.8601 324.392L69.7422 317.209L71.1486 316.199Z" fill="#EA992F"/>
<path d="M229.024 313.781V311.724H28.0918V313.781H55.7867V337.168H28.0918V339.226H229.06V337.168H201.365V313.781H229.024ZM115.251 313.781H141.9V337.168H115.251V313.781ZM113.16 337.132H86.5467V313.745H113.196V337.132H113.16ZM143.956 313.781H170.605V337.168H143.956V313.781ZM57.8061 313.781H84.4552V337.168H57.8061V313.781ZM199.31 337.132H172.66V313.745H199.31V337.132Z" fill="#1D262D"/>
<path d="M99.9982 310.424C99.0607 308.872 101.946 307.573 102.955 307.176C104.578 306.527 106.958 306.996 107.247 307.609C107.535 308.259 103.749 309.522 103.676 309.703C103.604 309.883 105.516 309.45 105.696 310.1C105.876 310.713 103.46 311.652 102.342 311.615C101.224 311.615 100.575 311.399 99.9982 310.424Z" fill="#D3AF8C"/>
<path d="M62.8558 391.63C58.0597 385.098 44.5728 409.171 42.6977 416.064C40.8225 422.958 46.1595 417.4 53.3717 408.449C60.5839 399.534 64.767 394.193 62.8558 391.63Z" fill="#E8C8A1"/>
<path d="M44.3194 418.302C44.3194 418.302 44.3194 419.745 44.9685 422.091C45.6176 424.437 46.2306 424.51 45.9061 424.979C45.6176 425.448 39.4512 420.106 39.4512 420.106L42.3 416.569C42.3361 416.605 44.3915 418.23 44.3194 418.302Z" fill="#0B2135"/>
<path d="M80.8491 386.938C72.8075 386.18 82.4358 415.884 86.3304 421.875C90.225 427.866 89.648 420.178 87.8089 408.846C85.9337 397.513 84.0225 387.263 80.8491 386.938Z" fill="#E8C8A1"/>
<path d="M77.2793 360.989C77.2793 360.989 83.3015 379.251 84.9963 389.393C86.6912 399.534 89.54 418.988 89.54 418.988L84.4915 420.143C84.4915 420.143 80.2723 408.088 79.0102 402.927C77.7481 397.766 77.4956 393.724 77.2793 393.218C77.0629 392.677 70.9325 388.599 63.0352 361.71L70.2834 356.91L77.2793 360.989Z" fill="#161618"/>
<path d="M89.2879 422.019C89.2879 422.019 90.4418 422.886 92.7137 423.824C94.9855 424.762 95.3822 424.293 95.5625 424.835C95.7428 425.34 87.7733 427 87.7733 427L86.7275 422.597C86.7275 422.597 89.2518 421.911 89.2879 422.019Z" fill="#0B2135"/>
<path d="M71.2564 361.422C70.9318 377.375 68.1912 388.671 65.6669 393.544C63.1426 398.416 46.5906 416.859 46.5906 416.859L43.0566 414.044C48.0331 402.206 55.8222 392.389 56.0386 391.126C56.255 389.862 55.9304 385.64 55.7141 378.024C55.4977 370.409 56.3632 360.917 56.3632 360.917L71.2564 361.422Z" fill="#0C0A0A"/>
<path d="M195.595 328.073C194.549 326.882 196.785 325.33 197.578 324.789C198.84 323.959 200.968 323.959 201.292 324.464C201.617 324.969 198.624 326.702 198.588 326.846C198.552 327.027 200.102 326.341 200.391 326.846C200.643 327.351 198.732 328.542 197.794 328.687C196.821 328.867 196.244 328.831 195.595 328.073Z" fill="#E8C8A1"/>
<path d="M183.731 309.847H178.719V317.209H183.731V309.847Z" fill="#E8C8A1"/>
<path d="M175.546 307.97C176.34 310.027 177.386 311.579 178.395 311.759C178.503 311.759 178.612 311.795 178.684 311.795C181.172 312.229 182.182 312.192 182.182 312.192C182.182 312.192 182.831 312.337 183.66 312.445C185.103 312.626 187.122 312.698 187.627 311.795C188.456 310.352 189.863 302.339 186.906 298.225C183.949 294.111 177.674 294.183 175.042 297.214C173.419 299.163 174.104 304.324 175.546 307.97Z" fill="#E8C8A1"/>
<path d="M175.546 307.97C176.772 307.212 177.709 305.913 177.349 304.83C176.844 303.242 177.601 302.339 178.323 302.123C179.044 301.906 180.666 302.087 180.811 303.314C180.955 304.541 182.037 303.278 182.037 303.278C182.037 303.278 182.361 302.448 182.073 300.788C181.784 299.127 184.309 299.669 185.715 299.452C186.22 299.38 186.617 298.875 186.941 298.261C183.984 294.147 177.709 294.219 175.077 297.251C173.418 299.163 174.103 304.325 175.546 307.97Z" fill="#414042"/>
<path d="M189.754 300.066C190.114 300.066 190.403 300.355 190.403 300.716C190.403 301.041 190.15 301.33 189.862 301.366C189.826 301.366 189.79 301.366 189.79 301.366H188.636H187.518L183.84 301.402H181.784L174.283 301.438H173.923H173.743H172.589C172.228 301.438 171.939 301.149 171.939 300.788C171.939 300.463 172.192 300.211 172.48 300.139C172.516 300.139 172.552 300.139 172.589 300.139H173.634L188.78 300.03L189.754 300.066Z" fill="#EA992F"/>
<path d="M181.099 292.487C185.282 292.451 188.672 295.843 188.708 300.03C188.708 300.066 188.708 300.066 188.708 300.066L173.562 300.174C173.562 300.138 173.562 300.138 173.562 300.138C173.563 295.951 176.916 292.523 181.099 292.487Z" fill="#EA992F"/>
<path d="M69.1648 309.847H64.1523V317.209H69.1648V309.847Z" fill="#E8C8A1"/>
<path d="M61.015 307.97C61.8084 310.027 62.8541 311.579 63.8638 311.759C63.972 311.759 64.0802 311.795 64.1523 311.795C66.6405 312.229 67.6502 312.192 67.6502 312.192C67.6502 312.192 68.2993 312.337 69.1287 312.445C70.5712 312.626 72.5906 312.698 73.0955 311.795C73.9249 310.352 75.3312 302.339 72.3742 298.225C69.4172 294.111 63.1426 294.183 60.5102 297.214C58.8514 299.163 59.5726 304.324 61.015 307.97Z" fill="#E8C8A1"/>
<path d="M61.0163 307.97C62.2424 307.212 63.18 305.913 62.8194 304.83C62.3145 303.242 63.0718 302.339 63.793 302.123C64.5142 301.906 66.137 302.087 66.2812 303.314C66.4255 304.541 67.5073 303.278 67.5073 303.278C67.5073 303.278 67.8319 302.448 67.5434 300.788C67.2549 299.127 69.7791 299.669 71.1855 299.452C71.6904 299.38 72.0871 298.875 72.4116 298.261C69.4546 294.147 63.18 294.219 60.5475 297.251C58.8527 299.163 59.5739 304.325 61.0163 307.97Z" fill="#414042"/>
<path d="M75.3317 300.066C75.6923 300.066 75.9808 300.355 75.9808 300.716C75.9808 301.041 75.7284 301.33 75.4399 301.366C75.4039 301.366 75.3678 301.366 75.3678 301.366H74.2138H73.0959L69.4177 301.402H67.3622L59.8615 301.438H59.5009H59.3206H58.1667C57.8061 301.438 57.5176 301.149 57.5176 300.788C57.5176 300.463 57.77 300.211 58.0585 300.139C58.0946 300.139 58.1306 300.139 58.1667 300.139H59.2124L74.3581 300.03L75.3317 300.066Z" fill="#EA992F"/>
<path d="M66.6774 292.487C70.8604 292.451 74.2502 295.843 74.2862 300.03C74.2862 300.066 74.2862 300.066 74.2862 300.066L59.1406 300.174C59.1406 300.138 59.1406 300.138 59.1406 300.138C59.1406 295.951 62.4943 292.523 66.6774 292.487Z" fill="#EA992F"/>
<path d="M182.072 315.044C183.514 315.188 184.885 315.693 185.967 316.632C187.625 318.003 189.645 320.566 189.969 325.041C190.546 332.801 190.258 344.747 190.799 350.594C191.376 356.441 192.205 359.978 191.917 360.663C191.628 361.385 171.578 362.36 170.533 360.736C169.487 359.111 170.893 321.071 172.768 318.039C174.535 315.224 177.24 314.61 182.072 315.044Z" fill="#F6A632"/>
<path d="M175.257 323.814C175.257 323.814 174.355 334.317 174.716 340.019C175.077 345.722 178.034 345.252 180.089 343.989C182.145 342.726 194.441 331.646 194.441 331.646L192.025 328.217C192.025 328.217 183.515 334.75 183.154 334.461C182.794 334.136 183.695 325.366 182.433 322.19C181.207 319.014 179.837 318.689 178.394 318.725C177.096 318.725 175.834 320.061 175.257 323.814Z" fill="#EA992F"/>
<path d="M67.5056 315.044C68.9481 315.188 70.3184 315.693 71.4002 316.632C73.059 318.003 75.0785 320.566 75.403 325.041C75.98 332.801 75.6915 344.747 76.2324 350.594C76.8094 356.441 77.6388 359.978 77.3503 360.663C77.0618 361.385 57.0119 362.36 55.9661 360.736C54.9204 359.111 56.3267 321.071 58.2019 318.039C59.9689 315.224 62.7095 314.61 67.5056 315.044Z" fill="#F6A632"/>
<path d="M60.6905 323.814C60.6905 323.814 59.789 334.317 60.1496 340.019C60.5102 345.722 63.4672 345.252 65.5227 343.989C67.5782 342.726 79.875 331.646 79.875 331.646L77.4589 328.217C77.4589 328.217 68.9485 334.75 68.5879 334.461C68.2273 334.136 69.1288 325.366 67.8667 322.19C66.6406 319.014 65.2703 318.689 63.8278 318.725C62.5296 318.725 61.2675 320.061 60.6905 323.814Z" fill="#EA992F"/>
<path d="M81.0283 328.073C79.9825 326.882 82.2183 325.33 83.0116 324.789C84.2738 323.959 86.4014 323.959 86.7259 324.464C87.0505 324.969 84.0574 326.702 84.0213 326.846C83.9853 327.027 85.5359 326.341 85.8244 326.846C86.0768 327.351 84.1656 328.542 83.228 328.687C82.2904 328.867 81.6774 328.831 81.0283 328.073Z" fill="#E8C8A1"/>
<path d="M488.122 375.462C487.978 374.559 487.833 373.621 487.725 372.683C487.653 372.214 487.617 371.744 487.581 371.275C487.545 370.878 487.509 370.517 487.473 370.12V370.048C487.473 369.976 487.473 369.94 487.473 369.868L485.561 375.426H462.446V378.457H484.516L483.867 380.298L485.453 384.882L487.04 380.298L487.689 378.457L488.338 376.545C488.23 376.184 488.194 375.823 488.122 375.462ZM488.122 375.462C487.978 374.559 487.833 373.621 487.725 372.683C487.653 372.214 487.617 371.744 487.581 371.275C487.545 370.878 487.509 370.517 487.473 370.12V370.048C487.473 369.976 487.473 369.94 487.473 369.868L485.561 375.426H462.446V378.457H484.516L483.867 380.298L485.453 384.882L487.04 380.298L487.689 378.457L488.338 376.545C488.23 376.184 488.194 375.823 488.122 375.462ZM488.122 375.462C487.978 374.559 487.833 373.621 487.725 372.683C487.653 372.214 487.617 371.744 487.581 371.275C487.545 370.878 487.509 370.517 487.473 370.12V370.048C487.473 369.976 487.473 369.94 487.473 369.868L485.561 375.426H462.446V378.457H484.516L483.867 380.298L485.453 384.882L487.04 380.298L487.689 378.457L488.338 376.545C488.23 376.184 488.194 375.823 488.122 375.462ZM469.442 339.37L468.757 341.355V341.427L462.374 359.798L454.693 382.067L448.563 399.751L446.471 405.851L443.803 413.538H446.94L449.609 405.851L451.772 399.607L452.854 396.503H478.205L477.448 398.669L472.363 413.538H475.5L480.657 398.56L485.381 384.882L486.968 380.298L487.617 378.457L488.266 376.545L488.663 375.462L490.394 370.481L493.855 360.412L494.901 357.416L499.661 343.665L501.14 339.37H469.442ZM479.287 393.508H453.936L454.729 391.198L459.129 378.493H484.48L483.83 380.334L479.287 393.508ZM490.394 361.35L487.437 369.868L485.525 375.426H460.138L462.41 368.893L465.367 360.375H490.718L490.394 361.35ZM491.764 357.416H466.413L468.937 350.089L471.173 343.629L471.606 342.366H496.957L491.764 357.416ZM488.122 375.462C487.978 374.559 487.833 373.621 487.725 372.683C487.653 372.214 487.617 371.744 487.581 371.275C487.545 370.878 487.509 370.517 487.473 370.12V370.048C487.473 369.976 487.473 369.94 487.473 369.868L485.561 375.426H462.446V378.457H484.516L483.867 380.298L485.453 384.882L487.04 380.298L487.689 378.457L488.338 376.545C488.23 376.184 488.194 375.823 488.122 375.462ZM488.122 375.462C487.978 374.559 487.833 373.621 487.725 372.683C487.653 372.214 487.617 371.744 487.581 371.275C487.545 370.878 487.509 370.517 487.473 370.12V370.048C487.473 369.976 487.473 369.94 487.473 369.868L485.561 375.426H462.446V378.457H484.516L483.867 380.298L485.453 384.882L487.04 380.298L487.689 378.457L488.338 376.545C488.23 376.184 488.194 375.823 488.122 375.462Z" fill="#929FA7"/>
<path d="M488.41 376.545L487.761 378.457H488.807C488.699 377.844 488.554 377.194 488.41 376.545ZM488.41 376.545L487.761 378.457H488.807C488.699 377.844 488.554 377.194 488.41 376.545ZM527.104 413.466L526.599 412.023L521.694 397.802L501.5 339.37H469.767L471.245 343.665L473.697 350.703L473.769 350.883V350.956L475.14 354.853L475.572 356.044L476.041 357.452L476.366 358.427L477.087 360.448L482.28 375.498L483.326 378.53L483.975 380.37L485.561 384.954L490.213 398.38L495.478 413.575H498.652L493.387 398.308L492.774 396.539H518.124L518.593 397.875L523.498 412.023L524.002 413.466L524.038 413.575H527.176L527.104 413.466ZM474.779 344.567L474.022 342.366H499.373L499.805 343.629L504.565 357.38H479.215L474.779 344.567ZM485.453 375.462L480.26 360.412H505.611L510.804 375.462H485.453ZM491.692 393.508L487.112 380.334L486.463 378.493H511.814L517.007 393.544H491.692V393.508ZM488.41 376.545L487.761 378.457H488.807C488.699 377.844 488.554 377.194 488.41 376.545ZM488.41 376.545L487.761 378.457H488.807C488.699 377.844 488.554 377.194 488.41 376.545Z" fill="#D9D9DC"/>
<path d="M500.203 249.285C500.419 250.476 499.662 251.523 498.652 252.245C494.181 255.493 479.216 266.248 476.583 263.144C473.482 259.463 487.474 250.873 491.873 248.888C495.515 247.228 499.626 246.362 500.203 249.285Z" fill="#D3AF8C"/>
<path d="M477.231 263.47C477.231 263.47 456.605 249.863 457.073 247.301C457.542 244.738 480.224 258.742 480.261 260.113C480.297 261.485 480.801 263.289 477.231 263.47Z" fill="#E8C8A1"/>
<path d="M492.883 247.048C492.883 247.048 478.567 256.612 477.81 256.757C477.052 256.901 461.51 247.986 461.51 247.986L459.238 251.343C459.238 251.343 474.24 263.903 477.665 264.3C481.091 264.697 493.424 256.901 493.424 256.901L492.883 247.048Z" fill="#ED9743"/>
<path d="M499.518 245.784C498.616 245.604 494.253 246.145 493.568 246.759C490.538 249.393 488.303 255.385 488.555 260.871C488.844 267.584 488.663 269.063 488.663 273.827C488.663 278.592 486.824 288.156 486.824 289.383C486.824 290.61 506.405 290.105 506.838 289.599C507.235 289.094 506.441 254.266 505.251 250.837C504.061 247.408 503.376 246.542 499.518 245.784Z" fill="#E0BD96"/>
<path d="M505.613 292.668C507.127 295.158 506.19 298.37 503.629 299.706C501.574 300.752 498.689 301.871 494.758 302.629C484.914 304.506 474.095 309.306 471.174 306.383C468.253 303.459 471.968 297.576 480.983 293.967C489.133 290.719 498.797 285.449 501.321 287.182C502.62 288.084 504.278 290.502 505.613 292.668Z" stroke="#414042" stroke-width="3.0577" stroke-miterlimit="10"/>
<path d="M499.409 287.182C502.222 286.532 504.999 288.445 505.468 291.296C505.828 293.57 505.973 296.674 505.432 300.644C504.097 310.569 505.215 322.371 501.537 324.212C497.859 326.052 493.423 320.675 492.882 310.966C492.378 302.196 490.466 291.368 492.918 289.492C494.108 288.553 496.921 287.759 499.409 287.182Z" fill="#E0BD96"/>
<path d="M499.41 251.704C500.131 252.678 500.131 254.05 499.554 255.132C496.957 260.005 487.942 276.174 484.228 274.514C479.828 272.565 488.699 258.706 491.765 255.024C494.289 251.884 497.643 249.322 499.41 251.704Z" fill="#D3AF8C"/>
<path d="M486.572 270.327C485.707 269.785 484.589 269.785 483.651 270.182C478.964 272.203 462.123 279.746 462.123 281.984C462.123 284.583 486.933 274.874 487.222 273.503C487.438 272.456 487.979 271.229 486.572 270.327Z" fill="#E8C8A1"/>
<path d="M494.536 247.761H499.368V240.651H494.536V247.761Z" fill="#E8C8A1"/>
<path d="M502.439 238.819C501.646 240.804 500.636 242.32 499.699 242.464C499.591 242.464 499.518 242.5 499.41 242.5C497.03 242.897 496.021 242.897 496.021 242.897C496.021 242.897 495.407 243.041 494.578 243.15C493.208 243.33 491.224 243.402 490.756 242.536C489.962 241.165 488.628 233.405 491.441 229.435C494.29 225.465 500.348 225.537 502.908 228.46C504.495 230.337 503.81 235.318 502.439 238.819Z" fill="#E8C8A1"/>
<path d="M464.72 281.01C464.179 279.458 461.618 280.722 460.753 281.155C459.346 281.913 458.301 283.826 458.589 284.367C458.878 284.908 461.943 283.032 462.123 283.104C462.303 283.176 460.897 284.223 461.222 284.728C461.546 285.233 463.602 284.078 464.215 283.284C464.828 282.562 465.044 281.985 464.72 281.01Z" fill="#E8C8A1"/>
<path d="M459.598 248.455C460.5 246.939 457.723 245.712 456.749 245.315C455.199 244.665 452.891 245.134 452.602 245.748C452.35 246.362 455.992 247.589 456.028 247.769C456.1 247.95 454.261 247.516 454.081 248.13C453.901 248.744 456.245 249.61 457.326 249.61C458.408 249.61 459.021 249.393 459.598 248.455Z" fill="#E8C8A1"/>
<path d="M499.374 322.046C506.622 319.159 505.396 345.759 503.449 352.363C501.465 358.968 499.951 351.714 498.58 340.67C497.21 329.662 496.525 323.201 499.374 322.046Z" fill="#E8C8A1"/>
<path d="M500.96 353.374C500.96 353.374 500.203 354.565 498.472 356.153C496.741 357.741 496.236 357.488 496.236 358.029C496.236 358.571 504.026 357.344 504.026 357.344L503.485 352.977C503.449 353.013 500.96 353.265 500.96 353.374Z" fill="#0D1544"/>
<path d="M472.147 299.741C479.143 296.276 480.586 326.413 479.143 333.126C477.701 339.875 475.573 332.729 473.373 321.865C471.138 311.002 469.371 301.077 472.147 299.741Z" fill="#E8C8A1"/>
<path d="M476.475 334.281C476.475 334.281 475.718 335.472 473.987 337.06C472.256 338.684 471.751 338.395 471.751 338.937C471.751 339.478 479.54 338.251 479.54 338.251L478.999 333.884C478.999 333.92 476.475 334.173 476.475 334.281Z" fill="#0D1544"/>
<path d="M487.113 289.455C487.113 289.455 478.35 293.497 474.563 296.24C470.741 298.983 469.37 300.427 469.226 304.072C469.082 307.717 475.032 332.404 475.032 332.404L480.513 331.574C480.513 331.574 480.225 324.717 480.225 322.046C480.225 319.375 478.602 308.259 479.215 307.717C479.828 307.176 500.996 305.732 504.566 301.401C508.136 297.07 506.874 289.527 506.874 289.527L487.113 289.455Z" fill="#161618"/>
<path d="M490.431 288.914C490.719 307.501 494.289 322.154 495.01 325.078C495.732 328.037 499.662 351.028 499.662 351.028L504.17 350.631C505.504 342.691 505.36 324.645 505.36 323.634C505.36 322.624 505.468 320.602 506.694 309.198C507.92 297.829 506.983 289.167 506.983 289.167L490.431 288.914Z" fill="#0C0A0A"/>
<path d="M502.439 238.819C501.249 238.097 500.347 236.834 500.672 235.787C501.141 234.235 500.456 233.369 499.734 233.189C499.049 233.008 497.463 233.152 497.318 234.343C497.174 235.535 496.164 234.307 496.164 234.307C496.164 234.307 495.84 233.477 496.128 231.889C496.381 230.301 494.001 230.807 492.594 230.626C492.089 230.554 491.729 230.085 491.404 229.471C494.253 225.501 500.311 225.573 502.872 228.497C504.494 230.337 503.809 235.318 502.439 238.819Z" fill="#414042"/>
<path d="M505.468 230.806H504.206C503.413 227.486 500.492 225.032 496.922 224.996C493.352 224.959 490.395 227.341 489.529 230.626H488.267C488.087 230.626 487.907 230.698 487.798 230.806C487.69 230.915 487.618 231.095 487.618 231.239C487.618 231.6 487.907 231.889 488.267 231.889H489.349H489.385L495.155 231.961H496.02L503.954 232.033H505.468C505.649 232.033 505.793 231.961 505.937 231.853C506.045 231.745 506.118 231.564 506.118 231.42C506.118 231.131 505.829 230.842 505.468 230.806Z" fill="#F79663"/>
<path d="M499.266 245.316C499.266 245.316 505.865 245.207 506.261 253.039C506.658 260.871 507.704 289.275 507.56 289.636C507.415 290.033 502.078 291.008 496.092 290.791C490.106 290.574 487.221 290.611 486.464 289.564C486.464 289.564 488.087 276.607 488.087 273.034C488.087 269.461 487.69 254.05 490.322 249.971C492.955 245.929 496.128 245.316 499.266 245.316Z" fill="#F6A632"/>
<path d="M497.895 258.813C497.895 258.813 490.9 271.842 487.546 274.296C484.192 276.751 465.765 282.309 465.765 282.309L464.467 278.05C464.467 278.05 481.307 270.723 482.209 269.965C483.11 269.208 486.067 261.592 489.529 256.648C491.837 253.363 495.984 248.924 498.689 250.765C501.393 252.569 497.895 258.813 497.895 258.813Z" fill="#ED9743"/>
<path d="M377.667 408.088H330.247L334.647 395.998L338.721 384.845L342.436 374.631L346.511 363.479L351.667 349.331C352.352 347.418 355.526 347.418 356.211 349.331L361.368 363.479L365.443 374.631L369.157 384.845L373.232 395.998L377.667 408.088Z" fill="#F6A632"/>
<path d="M384.23 413.538H323.684C322.061 413.538 320.727 412.239 320.727 410.579C320.727 408.918 322.061 407.583 323.684 407.583H384.194C385.853 407.583 387.151 408.918 387.151 410.579C387.151 412.239 385.853 413.538 384.23 413.538Z" fill="#F6A632"/>
<path d="M365.478 374.631H342.435L346.509 363.479H361.403L365.478 374.631Z" fill="#FFFEFF"/>
<path d="M373.268 395.998H334.646L338.721 384.846H369.193L373.268 395.998Z" fill="#FFFEFF"/>
<path d="M151.349 410.217L129.46 401.772L133.643 396.971L137.502 392.532L141.036 388.49L144.894 384.051L149.798 378.42C150.447 377.662 151.926 378.24 151.89 379.214L151.746 386.649L151.637 392.532L151.529 397.91L151.457 403.865L151.349 410.217Z" fill="#F6A632"/>
<path d="M153.367 413.898L125.42 403.143C124.662 402.854 124.302 402.024 124.59 401.266C124.879 400.508 125.744 400.111 126.502 400.4L154.449 411.155C155.206 411.444 155.567 412.31 155.278 413.068C154.99 413.826 154.124 414.187 153.367 413.898Z" fill="#F6A632"/>
<path d="M151.637 392.605L140.999 388.526L144.858 384.087L151.745 386.722L151.637 392.605Z" fill="#FFFEFF"/>
<path d="M151.456 403.865L133.605 397.008L137.464 392.568L151.528 397.982L151.456 403.865Z" fill="#FFFEFF"/>
<path d="M218.334 226.799H212.359V243H207.561V226.799H201.695V223.094H218.334V226.799ZM238.01 243H233.238V234.688H226.17V243H221.371V223.094H226.17V230.996H233.238V223.094H238.01V243ZM258.916 233.457C258.916 235.398 258.556 237.117 257.836 238.611C257.116 240.106 256.09 241.259 254.76 242.07C253.438 242.872 251.93 243.273 250.234 243.273C248.539 243.273 247.035 242.886 245.723 242.111C244.41 241.327 243.385 240.211 242.646 238.762C241.917 237.312 241.535 235.649 241.498 233.771V232.65C241.498 230.7 241.854 228.982 242.564 227.496C243.285 226.001 244.31 224.848 245.641 224.037C246.98 223.226 248.503 222.82 250.207 222.82C251.893 222.82 253.397 223.221 254.719 224.023C256.04 224.826 257.066 225.969 257.795 227.455C258.533 228.932 258.907 230.627 258.916 232.541V233.457ZM254.035 232.623C254.035 230.645 253.702 229.146 253.037 228.125C252.381 227.095 251.438 226.58 250.207 226.58C247.801 226.58 246.529 228.385 246.393 231.994L246.379 233.457C246.379 235.408 246.702 236.907 247.35 237.955C247.997 239.003 248.958 239.527 250.234 239.527C251.447 239.527 252.381 239.012 253.037 237.982C253.693 236.952 254.026 235.471 254.035 233.539V232.623ZM255.99 221.604V221.781H252.354L250.18 219.922L248.006 221.781H244.451V221.549L248.867 217.762H251.506L255.99 221.604ZM279.016 243H274.244L267.189 230.613V243H262.391V223.094H267.189L274.23 235.48V223.094H279.016V243ZM299.348 240.539C298.609 241.359 297.529 242.02 296.107 242.521C294.686 243.023 293.127 243.273 291.432 243.273C288.825 243.273 286.742 242.476 285.184 240.881C283.625 239.286 282.791 237.066 282.682 234.223L282.668 232.5C282.668 230.54 283.014 228.831 283.707 227.373C284.4 225.906 285.389 224.78 286.674 223.996C287.968 223.203 289.463 222.807 291.158 222.807C293.637 222.807 295.561 223.376 296.928 224.516C298.304 225.646 299.106 227.337 299.334 229.588H294.713C294.549 228.476 294.193 227.683 293.646 227.209C293.1 226.735 292.325 226.498 291.322 226.498C290.119 226.498 289.189 227.008 288.533 228.029C287.877 229.05 287.544 230.508 287.535 232.404V233.607C287.535 235.594 287.872 237.089 288.547 238.092C289.23 239.085 290.301 239.582 291.76 239.582C293.008 239.582 293.938 239.304 294.549 238.748V235.658H291.213V232.363H299.348V240.539ZM311.109 243V223.094H318.26C320.821 223.094 322.767 223.563 324.098 224.502C325.438 225.441 326.107 226.803 326.107 228.59C326.107 229.62 325.87 230.499 325.396 231.229C324.923 231.958 324.225 232.495 323.305 232.842C324.344 233.115 325.141 233.626 325.697 234.373C326.253 235.12 326.531 236.032 326.531 237.107C326.531 239.058 325.911 240.525 324.672 241.51C323.441 242.485 321.614 242.982 319.189 243H311.109ZM315.908 234.537V239.309H319.053C319.919 239.309 320.584 239.113 321.049 238.721C321.514 238.32 321.746 237.759 321.746 237.039C321.746 235.38 320.921 234.546 319.271 234.537H315.908ZM315.908 231.393H318.41C319.458 231.383 320.206 231.192 320.652 230.818C321.099 230.445 321.322 229.893 321.322 229.164C321.322 228.326 321.081 227.724 320.598 227.359C320.115 226.986 319.335 226.799 318.26 226.799H315.908V231.393ZM341.49 239.281H334.914L333.766 243H328.639L335.939 223.094H340.451L347.807 243H342.652L341.49 239.281ZM336.062 235.576H340.342L338.195 228.672L336.062 235.576ZM338.824 217.762H343.691L339.891 222.055H336.131L338.824 217.762ZM366.826 233.457C366.826 235.398 366.466 237.117 365.746 238.611C365.026 240.106 364.001 241.259 362.67 242.07C361.348 242.872 359.84 243.273 358.145 243.273C356.449 243.273 354.945 242.886 353.633 242.111C352.32 241.327 351.295 240.211 350.557 238.762C349.827 237.312 349.445 235.649 349.408 233.771V232.65C349.408 230.7 349.764 228.982 350.475 227.496C351.195 226.001 352.22 224.848 353.551 224.037C354.891 223.226 356.413 222.82 358.117 222.82C359.803 222.82 361.307 223.221 362.629 224.023C363.951 224.826 364.976 225.969 365.705 227.455C366.443 228.932 366.817 230.627 366.826 232.541V233.457ZM361.945 232.623C361.945 230.645 361.613 229.146 360.947 228.125C360.291 227.095 359.348 226.58 358.117 226.58C355.711 226.58 354.439 228.385 354.303 231.994L354.289 233.457C354.289 235.408 354.613 236.907 355.26 237.955C355.907 239.003 356.868 239.527 358.145 239.527C359.357 239.527 360.291 239.012 360.947 237.982C361.604 236.952 361.936 235.471 361.945 233.539V232.623ZM229.643 283V263.094H236.793C239.354 263.094 241.3 263.563 242.631 264.502C243.971 265.441 244.641 266.803 244.641 268.59C244.641 269.62 244.404 270.499 243.93 271.229C243.456 271.958 242.758 272.495 241.838 272.842C242.877 273.115 243.674 273.626 244.23 274.373C244.786 275.12 245.064 276.032 245.064 277.107C245.064 279.058 244.445 280.525 243.205 281.51C241.975 282.485 240.147 282.982 237.723 283H229.643ZM234.441 274.537V279.309H237.586C238.452 279.309 239.117 279.113 239.582 278.721C240.047 278.32 240.279 277.759 240.279 277.039C240.279 275.38 239.454 274.546 237.805 274.537H234.441ZM234.441 271.393H236.943C237.992 271.383 238.739 271.192 239.186 270.818C239.632 270.445 239.855 269.893 239.855 269.164C239.855 268.326 239.614 267.724 239.131 267.359C238.648 266.986 237.868 266.799 236.793 266.799H234.441V271.393ZM260.023 279.281H253.447L252.299 283H247.172L254.473 263.094H258.984L266.34 283H261.186L260.023 279.281ZM254.596 275.576H258.875L256.729 268.672L254.596 275.576ZM254.979 261.439L254.678 259.717C255.926 259.662 256.551 259.375 256.551 258.855C256.551 258.254 255.936 257.953 254.705 257.953L254.801 255.971C256.697 255.971 258.128 256.208 259.094 256.682C260.06 257.156 260.543 257.816 260.543 258.664C260.543 259.174 260.361 259.603 259.996 259.949C259.632 260.286 259.13 260.501 258.492 260.592V261.439H254.979ZM285.359 273.457C285.359 275.398 284.999 277.117 284.279 278.611C283.559 280.106 282.534 281.259 281.203 282.07C279.882 282.872 278.373 283.273 276.678 283.273C274.982 283.273 273.479 282.886 272.166 282.111C270.854 281.327 269.828 280.211 269.09 278.762C268.361 277.312 267.978 275.649 267.941 273.771V272.65C267.941 270.7 268.297 268.982 269.008 267.496C269.728 266.001 270.753 264.848 272.084 264.037C273.424 263.226 274.946 262.82 276.65 262.82C278.337 262.82 279.84 263.221 281.162 264.023C282.484 264.826 283.509 265.969 284.238 267.455C284.977 268.932 285.35 270.627 285.359 272.541V273.457ZM280.479 272.623C280.479 270.645 280.146 269.146 279.48 268.125C278.824 267.095 277.881 266.58 276.65 266.58C274.244 266.58 272.973 268.385 272.836 271.994L272.822 273.457C272.822 275.408 273.146 276.907 273.793 277.955C274.44 279.003 275.402 279.527 276.678 279.527C277.89 279.527 278.824 279.012 279.48 277.982C280.137 276.952 280.469 275.471 280.479 273.539V272.623ZM311.613 266.799H305.639V283H300.84V266.799H294.975V263.094H311.613V266.799ZM322.047 275.973H319.449V283H314.65V263.094H322.484C324.845 263.094 326.691 263.618 328.021 264.666C329.352 265.714 330.018 267.195 330.018 269.109C330.018 270.495 329.735 271.643 329.17 272.555C328.614 273.466 327.739 274.204 326.545 274.77L330.701 282.795V283H325.561L322.047 275.973ZM319.449 272.268H322.484C323.396 272.268 324.079 272.031 324.535 271.557C325 271.074 325.232 270.404 325.232 269.547C325.232 268.69 325 268.02 324.535 267.537C324.07 267.045 323.387 266.799 322.484 266.799H319.449V272.268ZM339.029 283H334.244V263.094H339.029V283ZM338.838 262.055H335.092L331.236 257.762H336.104L338.838 262.055Z" fill="#0C0A0A"/>
</g>
<defs>
<linearGradient id="paint0_linear" x1="438.435" y1="324.647" x2="441.479" y2="324.647" gradientUnits="userSpaceOnUse">
<stop stop-color="#BCBEC0"/>
<stop offset="1" stop-color="#6D6E71"/>
</linearGradient>
<linearGradient id="paint1_linear" x1="439.957" y1="323.604" x2="439.957" y2="325.757" gradientUnits="userSpaceOnUse">
<stop stop-color="#BCBEC0"/>
<stop offset="1" stop-color="#6D6E71"/>
</linearGradient>
<linearGradient id="paint2_linear" x1="378.997" y1="324.647" x2="382.041" y2="324.647" gradientUnits="userSpaceOnUse">
<stop stop-color="#BCBEC0"/>
<stop offset="1" stop-color="#6D6E71"/>
</linearGradient>
<linearGradient id="paint3_linear" x1="380.519" y1="323.604" x2="380.519" y2="325.757" gradientUnits="userSpaceOnUse">
<stop stop-color="#BCBEC0"/>
<stop offset="1" stop-color="#6D6E71"/>
</linearGradient>
<clipPath id="clip0">
<rect width="546" height="427" fill="white"/>
</clipPath>
</defs>
</svg>
