<svg width="74" height="82" viewBox="0 0 74 82" fill="none" xmlns="http://www.w3.org/2000/svg">
<path fill-rule="evenodd" clip-rule="evenodd" d="M4.28161 7.80221L38.5345 3.31361C40.8979 3.0039 43.068 4.67498 43.3772 7.03415L48.4783 45.9615C49.0403 45.8217 49.6161 45.7122 50.2041 45.6352C58.5837 44.5371 66.267 50.4399 67.3651 58.8196C68.4632 67.1993 62.5603 74.8825 54.1806 75.9806C47.9094 76.8024 42.0282 73.7031 39.0054 68.5789L12.6977 72.0264C10.3386 72.3355 8.16475 70.6693 7.85504 68.3058L0.561074 12.6449C0.251922 10.2857 1.92244 8.11136 4.28161 7.80221ZM28.5396 43.3623C29.441 43.5273 30.3625 43.5807 31.2745 43.4612C35.7745 42.8715 38.8627 39.0524 38.3005 34.7622C37.5262 28.8536 26.9348 23.8046 24.8162 22.8585C24.0659 22.5169 23.1893 22.6405 22.5524 23.1638C20.0345 25.2533 11.8741 32.5069 12.6108 38.1287C13.173 42.4188 17.1409 45.3133 21.6409 44.7236C22.5529 44.6041 23.4296 44.315 24.258 43.9234L24.878 48.6546L22.7372 48.9351C21.5555 49.0899 20.7221 50.1747 20.8769 51.3564C21.0318 52.5382 22.1165 53.3716 23.2983 53.2167L31.8615 52.0946C33.0432 51.9397 33.8766 50.8549 33.7217 49.6732C33.5669 48.4915 32.4821 47.6581 31.3004 47.8129L29.1596 48.0935L28.5396 43.3623Z" fill="url(#paint0_linear)"/>
<path d="M53.9309 8.20657L47.7793 7.39258L53.0624 47.7082L57.6453 13.0549C57.9585 10.6925 56.2932 8.51978 53.9309 8.20657Z" fill="url(#paint1_linear)"/>
<path d="M64.1916 19.4366L61.3179 18.2453L57.5524 46.7074L66.5251 25.0799C67.4381 22.8742 66.393 20.3501 64.1916 19.4366Z" fill="url(#paint2_linear)"/>
<path d="M59.7435 50.9803C54.3231 46.8167 46.5291 47.838 42.3645 53.2576C38.202 58.677 39.2236 66.4731 44.642 70.6369C47.3521 72.7182 50.6558 73.5029 53.8027 73.0906C56.9496 72.6782 59.9385 71.0688 62.0209 68.3595C66.1845 62.9401 65.1628 55.144 59.7435 50.9803ZM57.7356 63.765C58.1885 64.1129 58.2733 64.7601 57.9254 65.213C57.7518 65.4388 57.5029 65.5736 57.2407 65.6079C56.9785 65.6423 56.7032 65.5762 56.4773 65.4027L52.3829 62.256L49.2383 66.3503C49.0638 66.5763 48.8147 66.711 48.5536 66.7452C48.2915 66.7796 48.0161 66.7135 47.7903 66.54C47.3374 66.1921 47.2525 65.5439 47.6005 65.092L50.7451 60.9978L46.6508 57.8521C46.1979 57.5042 46.113 56.8559 46.461 56.4041C46.8079 55.9514 47.4561 55.8664 47.909 56.2143L52.0033 59.36L55.1489 55.2656C55.4968 54.8128 56.144 54.7279 56.5969 55.0759C57.0496 55.4228 57.1345 56.071 56.7866 56.5239L53.641 60.6183L57.7356 63.765Z" fill="#B50000"/>
<defs>
<linearGradient id="paint0_linear" x1="29.8637" y1="4.44985" x2="39.4896" y2="77.9057" gradientUnits="userSpaceOnUse">
<stop stop-color="#FEC01F"/>
<stop offset="1" stop-color="#FEA51F"/>
</linearGradient>
<linearGradient id="paint1_linear" x1="52.3378" y1="6.79523" x2="57.6208" y2="47.1109" gradientUnits="userSpaceOnUse">
<stop stop-color="#FEC01F"/>
<stop offset="1" stop-color="#FEA51F"/>
</linearGradient>
<linearGradient id="paint2_linear" x1="60.0399" y1="18.4128" x2="63.6431" y2="45.9093" gradientUnits="userSpaceOnUse">
<stop stop-color="#FEC01F"/>
<stop offset="1" stop-color="#FEA51F"/>
</linearGradient>
</defs>
</svg>
