<svg width="56" height="51" viewBox="0 0 56 51" fill="none" xmlns="http://www.w3.org/2000/svg">
<path d="M28.1917 50.6022C30.8487 50.6022 33.0026 48.4483 33.0026 45.7913C33.0026 43.1344 30.8487 40.9805 28.1917 40.9805C25.5348 40.9805 23.3809 43.1344 23.3809 45.7913C23.3809 48.4483 25.5348 50.6022 28.1917 50.6022Z" fill="url(#paint0_linear)"/>
<path d="M5.5375 1.03974C4.74883 0.251076 3.4757 0.251076 2.68704 1.03974C1.89837 1.82841 1.89837 3.10154 2.68704 3.8902L9.17663 10.3798C6.6867 11.8895 4.3883 13.6809 2.31524 15.7427C1.7519 16.2948 1.21111 16.8581 0.681573 17.444C-0.0845599 18.289 -0.0394932 19.5847 0.760439 20.3959L0.771706 20.4071C1.6505 21.2859 3.08137 21.2296 3.90384 20.3057C4.36577 19.7875 4.83897 19.2917 5.32343 18.8073C7.40776 16.7342 9.7625 14.9653 12.3313 13.5457L17.8745 19.0889C14.1565 20.6775 10.8666 23.1449 8.28656 26.277C7.57677 27.1333 7.64437 28.3952 8.4443 29.1726C9.33436 30.0514 10.799 29.9838 11.599 29.0148C14.1114 25.9954 17.39 23.7308 21.0968 22.4576C21.1306 22.4464 21.1756 22.4351 21.2094 22.4126L27.7779 28.981C23.0797 29.0937 18.6181 31.4146 15.8578 35.3692C15.2606 36.2255 15.362 37.386 16.0944 38.1183C17.0408 39.0647 18.5956 38.9182 19.373 37.8366C22.1558 33.9158 27.3385 32.2371 32.0141 34.0623C32.6 34.2876 33.1746 34.5806 33.7154 34.9073L44.1934 45.3853C44.9821 46.174 46.2552 46.174 47.0438 45.3853C47.8325 44.5966 47.8325 43.3235 47.0438 42.5348L5.5375 1.03974Z" fill="url(#paint1_linear)"/>
<path d="M55.4712 17.41C47.0325 7.72071 34.0758 3.28165 21.536 5.68145C19.8235 6.00818 19.1588 8.11504 20.3981 9.35438C20.9051 9.86137 21.6374 10.098 22.3472 9.96277C33.4561 7.81084 44.8355 11.7542 52.2264 20.2492C53.0489 21.1956 54.491 21.2407 55.3698 20.3619C56.1697 19.5507 56.2148 18.2663 55.4712 17.41Z" fill="url(#paint2_linear)"/>
<path d="M34.4474 17.6807C32.3518 17.1625 30.8759 19.7087 32.3856 21.2635L32.5772 21.4551C32.8588 21.7367 33.2081 21.9395 33.5912 22.0409C37.2754 22.9648 40.6441 24.8689 43.3481 27.5503C43.81 28.0122 44.2494 28.4967 44.6776 28.9924C45.4888 29.9614 46.9534 30.029 47.8435 29.1389L47.8548 29.1276C48.6322 28.3502 48.6998 27.1109 48.0012 26.2546C44.4973 21.9733 39.7315 18.9764 34.4474 17.6807Z" fill="url(#paint3_linear)"/>
<defs>
<linearGradient id="paint0_linear" x1="28.1917" y1="40.9805" x2="28.1917" y2="50.6022" gradientUnits="userSpaceOnUse">
<stop stop-color="#FEC01F"/>
<stop offset="1" stop-color="#FEA51F"/>
</linearGradient>
<linearGradient id="paint1_linear" x1="23.8841" y1="0.448242" x2="23.8841" y2="45.9768" gradientUnits="userSpaceOnUse">
<stop stop-color="#FEC01F"/>
<stop offset="1" stop-color="#FEA51F"/>
</linearGradient>
<linearGradient id="paint2_linear" x1="37.8802" y1="5.04102" x2="37.8802" y2="20.9913" gradientUnits="userSpaceOnUse">
<stop stop-color="#FEC01F"/>
<stop offset="1" stop-color="#FEA51F"/>
</linearGradient>
<linearGradient id="paint3_linear" x1="40.126" y1="17.6123" x2="40.126" y2="29.7651" gradientUnits="userSpaceOnUse">
<stop stop-color="#FEC01F"/>
<stop offset="1" stop-color="#FEA51F"/>
</linearGradient>
</defs>
</svg>
