<svg width="44" height="60" viewBox="0 0 44 60" fill="none" xmlns="http://www.w3.org/2000/svg">
<path d="M42.1275 0.771484H1.71497C0.76785 0.771484 0 1.53826 0 2.48406V52.4704C0 52.9245 0.180759 53.3602 0.502259 53.6814L5.55388 58.726C6.22363 59.3948 7.30944 59.3948 7.97931 58.726L11.8182 54.8924L15.6569 58.726C15.9785 59.0471 16.4147 59.2276 16.8695 59.2276C17.3243 59.2276 17.7606 59.0472 18.0822 58.726L21.921 54.8924L25.7599 58.726C26.0815 59.0471 26.5178 59.2276 26.9725 59.2276C27.4273 59.2276 27.8636 59.0472 28.1852 58.726L32.024 54.8924L35.8628 58.726C36.1978 59.0604 36.6365 59.2276 37.0755 59.2276C37.5143 59.2276 37.9534 59.0604 38.2881 58.726L43.3397 53.6814C43.6613 53.3602 43.8421 52.9247 43.8421 52.4704V2.48406C43.8424 1.53826 43.0745 0.771484 42.1275 0.771484ZM20.2059 13.6353V11.656C20.2059 10.7102 20.9739 9.94337 21.9209 9.94337C22.8681 9.94337 23.6359 10.7102 23.6359 11.656V13.6121H25.5949C26.5419 13.6121 27.3099 14.3788 27.3099 15.3246C27.3099 16.2704 26.5419 17.0372 25.5949 17.0372H20.6965C19.6164 17.0372 18.7377 17.9147 18.7377 18.9933C18.7377 20.072 19.6164 20.9497 20.6965 20.9497H23.1458C26.1172 20.9497 28.5347 23.3636 28.5347 26.3309C28.5347 29.133 26.3784 31.4408 23.6359 31.689V33.6684C23.6359 34.6142 22.8681 35.381 21.9209 35.381C20.9739 35.381 20.2059 34.6142 20.2059 33.6684V31.7121H18.2471C17.3001 31.7121 16.5321 30.9453 16.5321 29.9995C16.5321 29.0537 17.3001 28.2869 18.2471 28.2869H23.1458C24.2259 28.2869 25.1048 27.4094 25.1048 26.3308C25.1048 25.2522 24.226 24.3747 23.1458 24.3747H20.6965C17.725 24.3747 15.3077 21.9605 15.3077 18.9932C15.3078 16.1912 17.4638 13.8837 20.2059 13.6353ZM31.1058 44.5527H12.7365C11.7894 44.5527 11.0216 43.7859 11.0216 42.8401C11.0216 41.8943 11.7894 41.1275 12.7365 41.1275H31.1058C32.0528 41.1275 32.8208 41.8943 32.8208 42.8401C32.8208 43.7859 32.0528 44.5527 31.1058 44.5527Z" fill="url(#paint0_linear)"/>
<defs>
<linearGradient id="paint0_linear" x1="21.9211" y1="0.771484" x2="21.9211" y2="59.2276" gradientUnits="userSpaceOnUse">
<stop stop-color="#FEC01F"/>
<stop offset="1" stop-color="#FEA51F"/>
</linearGradient>
</defs>
</svg>
