<svg width="59" height="63" viewBox="0 0 59 63" fill="none" xmlns="http://www.w3.org/2000/svg">
<path d="M23.2935 0C15.5305 0 9.21484 6.31567 9.21484 14.0786C9.21484 21.8416 15.5305 28.1572 23.2935 28.1572C31.0564 28.1572 37.3721 21.8416 37.3721 14.0786C37.3721 6.31567 31.0564 0 23.2935 0Z" fill="url(#paint0_linear)"/>
<path fill-rule="evenodd" clip-rule="evenodd" d="M40.292 37.5254C36.5278 34.0356 31.6996 32.125 26.5929 32.125H20.3358C14.9121 32.125 9.80226 34.2803 5.94785 38.1939C2.11231 42.0884 0 47.2291 0 52.6694C0 53.5333 0.700385 54.2336 1.56429 54.2336H32.8493C32.4646 52.9547 32.2578 51.5987 32.2578 50.1943C32.2578 44.5961 35.5437 39.7653 40.292 37.5254Z" fill="url(#paint1_linear)"/>
<path d="M46.2458 38.1934C39.6218 38.1934 34.2578 43.5694 34.2578 50.1934C34.2578 56.8174 39.6218 62.1934 46.2458 62.1934C52.8818 62.1934 58.2578 56.8174 58.2578 50.1934C58.2578 43.5694 52.8818 38.1934 46.2458 38.1934ZM51.3578 55.1734L45.0578 51.3934V44.1934H46.8578V50.4934L52.2578 53.6974L51.3578 55.1734Z" fill="#EC1111"/>
<defs>
<linearGradient id="paint0_linear" x1="23.2935" y1="0" x2="23.2935" y2="28.1572" gradientUnits="userSpaceOnUse">
<stop stop-color="#FEA51F"/>
<stop offset="1" stop-color="#FEC01F"/>
</linearGradient>
<linearGradient id="paint1_linear" x1="20.146" y1="32.125" x2="20.146" y2="54.2336" gradientUnits="userSpaceOnUse">
<stop stop-color="#FEA51F"/>
<stop offset="1" stop-color="#FEC01F"/>
</linearGradient>
</defs>
</svg>
