<svg width="53" height="53" viewBox="0 0 53 53" fill="none" xmlns="http://www.w3.org/2000/svg">
<path d="M45.2381 7.76266C34.8859 -2.58755 18.1161 -2.58755 7.76398 7.76266C-2.20346 17.7282 -2.57068 33.6382 6.64483 44.0409L6.90713 44.2681C5.91039 46.4361 4.1792 49.0936 1.45127 50.4398C0.541959 50.8769 0.751799 52.2231 1.74854 52.3805C4.73878 52.8525 9.02303 52.328 13.01 49.3034L13.0625 49.3558C23.2223 55.3352 36.4947 53.954 45.2206 45.2297C55.5902 34.8795 55.5902 18.1129 45.2381 7.76266ZM27.6289 10.1404C30.0071 10.1579 31.9132 12.0986 31.8957 14.5113C31.8782 16.9065 29.9372 18.8472 27.6114 18.8297C25.1983 18.8122 23.2572 16.8366 23.2747 14.4413C23.2922 12.0461 25.2332 10.1229 27.6289 10.1404ZM33.7668 39.2504C33.6793 39.6175 33.4345 40.0022 33.1722 40.2819C31.5984 41.8729 29.7273 42.817 27.4715 42.852C26.4223 42.8695 25.3556 42.8345 24.3239 42.6771C22.5927 42.4324 20.4069 40.2994 20.7217 38.0091C20.9315 36.453 21.1763 34.897 21.4386 33.341C21.8933 30.6485 22.3829 27.9386 22.855 25.2461C22.89 25.0713 22.89 24.8965 22.89 24.7216C22.89 23.5852 22.5403 23.2006 21.4211 23.0432C20.949 22.9733 20.4419 22.9383 20.0047 22.781C19.4451 22.5886 19.2003 22.1516 19.2528 21.697C19.3052 21.2249 19.6025 20.9277 20.2145 20.8053C20.5293 20.7354 20.8615 20.7354 21.1938 20.7354C22.5228 20.7354 23.8343 20.7354 25.1633 20.7354C26.5622 20.7354 27.9612 20.7354 29.3776 20.7354C30.3918 20.7354 30.9864 21.2074 31.0213 22.2215C31.0388 23.0607 30.8989 23.8999 30.7416 24.7391C30.1995 27.8162 29.6224 30.8933 29.0628 33.9879C28.8705 35.0019 28.6606 36.0334 28.5557 37.0475C28.5033 37.537 28.5732 38.0615 28.6956 38.5336C28.853 39.1805 29.3426 39.5301 29.9896 39.4602C30.5317 39.3903 31.0738 39.1979 31.5984 39.0056C32.0181 38.8483 32.3853 38.551 32.8225 38.3937C33.3995 38.1664 33.9242 38.6035 33.7668 39.2504Z" fill="url(#paint0_linear)"/>
<defs>
<linearGradient id="paint0_linear" x1="26.5" y1="0" x2="26.5" y2="53" gradientUnits="userSpaceOnUse">
<stop stop-color="#70CBFF"/>
<stop offset="1" stop-color="#23A0E7"/>
</linearGradient>
</defs>
</svg>
