<svg width="56" height="56" viewBox="0 0 56 56" fill="none" xmlns="http://www.w3.org/2000/svg">
<path d="M27.7603 0C12.4533 0 0 12.4533 0 27.7603C0 43.0672 12.4533 55.5208 27.7603 55.5208C43.0672 55.5208 55.521 43.0675 55.521 27.7603C55.521 12.453 43.0675 0 27.7603 0ZM27.7603 50.7433C15.0876 50.7433 4.77741 40.4332 4.77741 27.7603C4.77741 15.0876 15.0876 4.77741 27.7603 4.77741C40.4332 4.77741 50.7433 15.0876 50.7433 27.7603C50.7433 40.4334 40.4332 50.7433 27.7603 50.7433Z" fill="url(#paint0_linear)"/>
<path d="M27.7608 8.17969C16.9638 8.17969 8.17969 16.9638 8.17969 27.7608C8.17969 38.5579 16.9638 47.3421 27.7608 47.3421C38.5579 47.3421 47.3421 38.5579 47.3421 27.7608C47.3421 16.9638 38.5582 8.17969 27.7608 8.17969ZM34.6553 24.0525L34.495 24.4631H29.6177V24.0226C29.6177 23.2054 29.4619 22.6025 29.1698 22.2302C28.8938 21.8795 28.5215 21.716 28.059 21.716C27.595 21.716 27.2809 21.8441 27.0769 22.108C26.8476 22.4051 26.7408 22.783 26.7408 23.2643C26.7408 23.7471 26.8602 24.1206 27.1026 24.406C27.3665 24.7171 27.8951 25.0483 28.6754 25.3921C30.6582 26.2384 32.1442 27.1031 33.0934 27.9606C34.1001 28.8703 34.6029 30.1727 34.6029 31.8316C34.6029 33.4095 34.0375 34.7021 33.0341 35.6733C32.1241 36.5548 30.8541 37.1088 29.3701 37.3233V40.2922H26.6495V37.3121C24.9182 37.095 23.7797 36.4969 22.7239 35.5353C21.556 34.4738 20.9664 32.9129 21.0022 30.8991L21.0141 30.7994L21.2231 30.3993H25.9075V30.8338C25.9075 31.7578 26.1739 32.4162 26.5451 32.7909C26.9206 33.1706 27.4585 33.3549 28.0709 33.3549C28.5542 33.3549 28.9108 33.228 29.1406 32.9675C29.384 32.6913 29.5062 32.3277 29.5062 31.857C29.5062 31.2998 29.3795 30.8727 29.1305 30.5875C28.8537 30.2707 28.3259 29.9439 27.5708 29.6167C25.5571 28.8154 24.0436 27.9789 23.105 27.136C22.1108 26.2434 21.5842 24.9323 21.5842 23.2388C21.5842 21.7022 22.0267 20.4153 23.0689 19.4146C24.0169 18.5042 25.4124 17.9391 26.649 17.732V15.0646H29.617V17.802C30.8536 18.08 32.3143 18.7377 33.1901 19.7564C34.1401 20.8593 34.662 22.2785 34.6353 23.9704L34.6553 24.0525Z" fill="url(#paint1_linear)"/>
<defs>
<linearGradient id="paint0_linear" x1="27.7605" y1="0" x2="27.7605" y2="55.5208" gradientUnits="userSpaceOnUse">
<stop stop-color="#FEC01F"/>
<stop offset="1" stop-color="#FEA51F"/>
</linearGradient>
<linearGradient id="paint1_linear" x1="27.7609" y1="8.17969" x2="27.7609" y2="47.3421" gradientUnits="userSpaceOnUse">
<stop stop-color="#FEC01F"/>
<stop offset="1" stop-color="#FEA51F"/>
</linearGradient>
</defs>
</svg>
