<svg width="50" height="50" viewBox="0 0 50 50" fill="none" xmlns="http://www.w3.org/2000/svg">
<path d="M49.7066 18.1643L47.0844 14.668L45.6264 24.8742C45.4929 25.8092 45.0514 26.692 44.3833 27.36L26.4295 45.3139C24.8635 46.8801 22.7789 47.7427 20.56 47.7427C19.8968 47.7427 19.2461 47.664 18.6172 47.5142C19.5723 49.0073 21.2438 50.0002 23.1441 50.0002H44.6285C47.5901 50.0002 49.9996 47.5907 49.9996 44.6291V19.0432C49.9996 18.7263 49.8968 18.4179 49.7066 18.1643Z" fill="url(#paint0_linear)"/>
<path d="M30.2285 24.3359C31.0375 24.3359 31.6934 23.6801 31.6934 22.8711C31.6934 22.0621 31.0375 21.4062 30.2285 21.4062C29.4195 21.4062 28.7637 22.0621 28.7637 22.8711C28.7637 23.6801 29.4195 24.3359 30.2285 24.3359Z" fill="url(#paint1_linear)"/>
<path d="M13.6543 24.3359C14.4633 24.3359 15.1191 23.6801 15.1191 22.8711C15.1191 22.0621 14.4633 21.4062 13.6543 21.4062C12.8453 21.4062 12.1895 22.0621 12.1895 22.8711C12.1895 23.6801 12.8453 24.3359 13.6543 24.3359Z" fill="url(#paint2_linear)"/>
<path d="M24.3583 43.2421L42.3122 25.2882C42.5363 25.0641 42.6817 24.7733 42.7265 24.4596L44.7982 9.95831C44.8633 9.50186 44.7099 9.04131 44.3839 8.71534L41.2764 5.60791L37.1333 9.75118L38.1691 10.787C38.7412 11.359 38.7412 12.2865 38.1691 12.8586C37.8831 13.1446 37.5082 13.2877 37.1334 13.2877C36.7586 13.2877 36.3836 13.1446 36.0976 12.8586L31.9544 8.71534C31.3823 8.14336 31.3823 7.21582 31.9544 6.64375C32.5263 6.07178 33.4539 6.07178 34.0259 6.64375L35.0618 7.67959L39.205 3.53633L36.0975 0.428911C35.7716 0.102837 35.311 -0.0500927 34.8546 0.0145557L20.3532 2.08624C20.0394 2.13106 19.7487 2.27647 19.5246 2.50059L1.57068 20.4545C-0.52356 22.5486 -0.52356 25.9563 1.57068 28.0504L16.7624 43.2421C17.8094 44.2893 19.1849 44.8127 20.5603 44.8127C21.9357 44.8127 23.3112 44.2893 24.3583 43.2421ZM30.2278 18.4769C32.6509 18.4769 34.6223 20.4482 34.6223 22.8714C34.6223 25.2945 32.6509 27.2659 30.2278 27.2659C27.8047 27.2659 25.8333 25.2945 25.8333 22.8714C25.8333 20.4482 27.8047 18.4769 30.2278 18.4769ZM13.655 27.2659C11.2318 27.2659 9.26042 25.2945 9.26042 22.8714C9.26042 20.4482 11.2318 18.4769 13.655 18.4769C16.0781 18.4769 18.0495 20.4482 18.0495 22.8714C18.0495 25.2945 16.0782 27.2659 13.655 27.2659ZM18.4889 34.6946C18.3354 34.6946 18.1792 34.6703 18.0256 34.6191C17.2581 34.3633 16.8433 33.5338 17.0991 32.7662L24.0044 12.0501C24.2602 11.2826 25.0898 10.8679 25.8573 11.1236C26.6248 11.3795 27.0395 12.209 26.7838 12.9766L19.8785 33.6927C19.6738 34.3064 19.1022 34.6946 18.4889 34.6946Z" fill="url(#paint3_linear)"/>
<path d="M44.384 2.50056C44.9561 1.92859 44.9561 1.00105 44.384 0.428979C43.812 -0.142993 42.8845 -0.142993 42.3124 0.428979L39.2051 3.5364L41.2767 5.60798L44.384 2.50056Z" fill="url(#paint4_linear)"/>
<defs>
<linearGradient id="paint0_linear" x1="34.3084" y1="14.668" x2="34.3084" y2="50.0002" gradientUnits="userSpaceOnUse">
<stop stop-color="#FEC01F"/>
<stop offset="1" stop-color="#FEA51F"/>
</linearGradient>
<linearGradient id="paint1_linear" x1="30.2285" y1="21.4062" x2="30.2285" y2="24.3359" gradientUnits="userSpaceOnUse">
<stop stop-color="#FEC01F"/>
<stop offset="1" stop-color="#FEA51F"/>
</linearGradient>
<linearGradient id="paint2_linear" x1="13.6543" y1="21.4062" x2="13.6543" y2="24.3359" gradientUnits="userSpaceOnUse">
<stop stop-color="#FEC01F"/>
<stop offset="1" stop-color="#FEA51F"/>
</linearGradient>
<linearGradient id="paint3_linear" x1="22.4065" y1="0" x2="22.4065" y2="44.8127" gradientUnits="userSpaceOnUse">
<stop stop-color="#FEC01F"/>
<stop offset="1" stop-color="#FEA51F"/>
</linearGradient>
<linearGradient id="paint4_linear" x1="42.0091" y1="0" x2="42.0091" y2="5.60798" gradientUnits="userSpaceOnUse">
<stop stop-color="#FEC01F"/>
<stop offset="1" stop-color="#FEA51F"/>
</linearGradient>
</defs>
</svg>
