<svg width="15" height="66" viewBox="0 0 15 66" fill="none" xmlns="http://www.w3.org/2000/svg">
<path d="M7.75495 51.3821C3.82798 51.3821 0.53626 54.6738 0.53626 58.6007C0.53626 62.5277 3.82798 65.8194 7.75495 65.8194C11.5375 65.8194 14.9736 62.5277 14.8004 58.774C14.9736 54.6449 11.7108 51.3821 7.75495 51.3821Z" fill="url(#paint0_linear)"/>
<path d="M5.96345 0.706725C2.52735 1.68847 0.390625 4.80694 0.390625 8.58953C0.563874 10.8706 0.708246 13.1806 0.881495 15.4617C1.37237 24.153 1.86323 32.6711 2.3541 41.3624C2.52735 44.3076 4.80846 46.4443 7.75369 46.4443C10.6989 46.4443 13.0089 44.1632 13.1533 41.1891C13.1533 39.3989 13.1533 37.753 13.3265 35.9339C13.6441 30.3611 13.9906 24.7883 14.3083 19.2154C14.4815 15.6061 14.7991 11.9967 14.9724 8.38741C14.9724 7.08804 14.7991 5.93305 14.3083 4.77806C12.8356 1.54409 9.39954 -0.101768 5.96345 0.706725Z" fill="url(#paint1_linear)"/>
<defs>
<linearGradient id="paint0_linear" x1="7.6815" y1="0.50293" x2="7.6815" y2="65.8194" gradientUnits="userSpaceOnUse">
<stop stop-color="#FEA51F"/>
<stop offset="1" stop-color="#FEC01F"/>
</linearGradient>
<linearGradient id="paint1_linear" x1="7.6815" y1="0.50293" x2="7.6815" y2="65.8194" gradientUnits="userSpaceOnUse">
<stop stop-color="#FEA51F"/>
<stop offset="1" stop-color="#FEC01F"/>
</linearGradient>
</defs>
</svg>
