<svg width="22" height="20" viewBox="0 0 22 20" fill="none" xmlns="http://www.w3.org/2000/svg">
<path d="M0 1.14012V7.62919C0 8.25785 0.475141 8.7693 1.05917 8.7693H4.30596V6.52104H2.8063V3.14864H18.8571V6.52636H17.4317V8.77463H20.9408C21.5249 8.77463 22 8.26318 22 7.63451V1.14012C22 0.511454 21.5249 0 20.9408 0H1.05917C0.475141 0 0 0.511454 0 1.14012Z" fill="#F7F8FA"/>
<path d="M14.665 9.20084C14.665 6.96323 12.9773 5.1465 10.8985 5.1465C8.81979 5.1465 7.13205 6.96323 7.13205 9.20084C7.13205 11.4385 8.81979 13.2552 10.8985 13.2552C12.9773 13.2552 14.665 11.4385 14.665 9.20084ZM9.41372 10.3623C9.21574 10.1865 9.08211 9.95737 9.01282 9.68566C8.98312 9.56845 8.92373 9.51518 8.81484 9.5205C8.70596 9.52583 8.59212 9.5205 8.48323 9.5205C8.38425 9.5205 8.3298 9.46723 8.3298 9.36067C8.32486 9.23281 8.32486 9.10495 8.3298 8.97175C8.3298 8.85987 8.3892 8.8066 8.49313 8.8066C8.57232 8.8066 8.65646 8.8066 8.73565 8.8066C8.91383 8.8066 8.92373 8.79594 8.94848 8.6148C8.98312 8.37506 9.03262 8.14597 9.1316 7.92754C9.21079 7.75705 9.25039 7.74107 9.41372 7.78902C9.53745 7.82631 9.66119 7.8636 9.78492 7.9009C9.92845 7.94885 9.9433 7.99147 9.87896 8.12999C9.76017 8.36973 9.69583 8.62546 9.66614 8.89184C9.64634 9.06232 9.66119 9.23281 9.72553 9.39264C9.84431 9.69099 10.166 9.73894 10.359 9.48321C10.4234 9.39797 10.4729 9.30207 10.5125 9.20084C10.6214 8.93979 10.7006 8.66808 10.8391 8.41768C11.0619 8.01811 11.3687 7.76238 11.8191 7.79435C12.3289 7.82631 12.6506 8.14064 12.8189 8.64677C12.8882 8.85455 12.8882 8.85455 13.0911 8.85987C13.1604 8.85987 13.2297 8.85987 13.294 8.85987C13.4475 8.8652 13.4722 8.89184 13.4772 9.057C13.4772 9.11027 13.4772 9.15822 13.4772 9.2115C13.4772 9.5578 13.4772 9.5578 13.1554 9.56312C12.9278 9.56312 12.9278 9.56312 12.8882 9.8082C12.8585 9.99466 12.809 10.1758 12.7397 10.3516C12.7001 10.4475 12.6407 10.4848 12.5467 10.4528C12.4081 10.4102 12.2646 10.3676 12.126 10.3196C11.9973 10.2717 11.9775 10.2291 12.0369 10.0959C12.1606 9.82418 12.2101 9.53649 12.1953 9.23814C12.1903 9.15822 12.1804 9.08364 12.1507 9.00905C12.0468 8.74799 11.7795 8.70537 11.6162 8.92913C11.5321 9.04101 11.4727 9.16888 11.4232 9.30207C11.3341 9.53116 11.2499 9.76557 11.1361 9.98401C10.7748 10.6659 9.9631 10.8524 9.41372 10.3623Z" fill="#F7F8FA"/>
<path d="M10.7055 16.2227C11.2823 16.2227 11.7498 15.7194 11.7498 15.0985C11.7498 14.4777 11.2823 13.9744 10.7055 13.9744C10.1287 13.9744 9.66119 14.4777 9.66119 15.0985C9.66119 15.7194 10.1287 16.2227 10.7055 16.2227Z" fill="#F7F8FA"/>
<path d="M15.5757 4.4326V16.2546C15.4718 16.2333 15.3629 16.2227 15.254 16.2227C14.2938 16.2227 13.5118 17.0591 13.5118 18.098C13.5118 18.2099 13.5217 18.3218 13.5415 18.4283H8.25556V18.423C8.27536 18.3164 8.28526 18.2046 8.28526 18.0927C8.28526 17.0591 7.50821 16.2173 6.54308 16.2173C6.43419 16.2173 6.3253 16.228 6.22137 16.2493V4.4326H4.7613V18.1513C4.7613 19.1742 5.5334 20 6.47873 20H15.3183C16.2686 20.0053 17.0407 19.1742 17.0407 18.1513V4.4326H15.5757Z" fill="#F7F8FA"/>
</svg>
