<svg width="22" height="18" viewBox="0 0 22 18" fill="none" xmlns="http://www.w3.org/2000/svg">
<path fill-rule="evenodd" clip-rule="evenodd" d="M20.6813 7.59164H0.708286C0.381497 7.59164 0.0972195 7.36072 0.0201155 7.03265C-0.0570654 6.70458 0.0929146 6.3646 0.383189 6.20962L10.3698 0.87868C10.5737 0.769932 10.8161 0.769932 11.0199 0.87868L20.9772 6.19397C21.2213 6.30947 21.3909 6.56422 21.3909 6.8598C21.3909 7.26397 21.0739 7.59164 20.6827 7.59164H20.6813ZM1.80658 16.2083V8.81979H5.56015V16.2083H8.8179V8.81979H12.5716V16.2083H15.8294V8.81979H19.583V16.2083H20.0433C20.4344 16.2083 20.7515 16.5359 20.7515 16.9401V17.4158H0.638029V16.9401C0.638029 16.5359 0.955132 16.2083 1.34626 16.2083H1.80658Z" fill="white"/>
</svg>
