<svg width="20" height="14" viewBox="0 0 20 14" fill="none" xmlns="http://www.w3.org/2000/svg">
<path d="M17.3333 0.666748H2.66667C1.19333 0.666748 0 1.86008 0 3.33341V11.3334C0 12.8054 1.19333 14.0001 2.66667 14.0001H17.3333C18.8067 14.0001 20 12.8054 20 11.3334V3.33341C20 1.86008 18.8067 0.666748 17.3333 0.666748ZM5.33333 11.3334H2.66667V10.0001H5.33333V11.3334ZM5.33333 6.00008H2.66667V3.33341H5.33333V6.00008ZM9.33333 11.3334H6.66667V10.0001H9.33333V11.3334ZM13.3333 11.3334H10.6667V10.0001H13.3333V11.3334ZM17.3333 11.3334H14.6667V10.0001H17.3333V11.3334Z" fill="white"/>
</svg>
