<svg width="24" height="24" viewBox="0 0 24 24" fill="none" xmlns="http://www.w3.org/2000/svg">
<path fill-rule="evenodd" clip-rule="evenodd" d="M3.73772 2.8085C5.31666 1.22647 7.44414 0.194412 9.80974 0.0224609C8.61211 0.424736 7.57048 1.83709 6.88016 3.84108C5.83397 3.60214 4.78093 3.25895 3.73193 2.81447L3.73772 2.8085ZM14.1466 3.84126C15.1928 3.60215 16.2455 3.25895 17.2947 2.81447C15.7152 1.22911 13.5854 0.194588 11.217 0.0224609C12.4147 0.424736 13.4563 1.83709 14.1466 3.84126ZM8.5413 3.31503C8.42689 3.56047 8.32002 3.81945 8.2207 4.09127C9.74401 4.31034 11.2835 4.31034 12.8061 4.09127C12.7068 3.81945 12.5999 3.56047 12.4855 3.31503C11.8936 2.04438 11.1378 1.25513 10.5133 1.25513C9.88878 1.25513 9.13318 2.04456 8.5413 3.31503ZM13.6694 10.2964C13.6697 10.2883 13.6697 10.2807 13.6703 10.2725H7.35645C7.39014 11.2541 7.49648 12.2054 7.67441 13.1086C7.72073 13.3445 7.77197 13.574 7.82707 13.7976C8.80132 13.6461 9.78276 13.5777 10.7637 13.5916C11.1406 12.7712 11.6558 12.0308 12.298 11.3877C12.7159 10.9692 13.1744 10.6042 13.6694 10.2964ZM7.82697 5.39673C8.71891 5.5358 9.6163 5.60595 10.5137 5.60595C11.4111 5.60595 12.3085 5.5358 13.1999 5.39673C13.2548 5.62072 13.3059 5.85052 13.3524 6.08629C13.5303 6.98948 13.6368 7.94083 13.6702 8.92226H7.35669C7.39003 7.94083 7.49654 6.98965 7.67448 6.08629C7.72098 5.85052 7.77204 5.62072 7.82697 5.39673ZM20.0714 8.92213H15.0178C14.9743 7.56533 14.8009 6.28536 14.5237 5.13937C15.7534 4.85279 16.9888 4.43311 18.215 3.88525C19.271 5.3122 19.941 7.04262 20.0714 8.92213ZM8.2207 15.1036C8.31985 15.3754 8.42689 15.6342 8.5413 15.88C9.01965 16.9065 9.60486 17.6189 10.1413 17.8543C10.0918 17.502 10.0671 17.1451 10.0671 16.7836C10.0671 16.1562 10.1422 15.5402 10.2904 14.9412C9.59907 14.9507 8.90787 15.0046 8.2207 15.1036ZM6.87998 15.3533C5.83344 15.5924 4.78058 15.9358 3.73193 16.3802L3.73547 16.3838L3.73772 16.3862C3.84617 16.4947 3.95707 16.6007 4.0706 16.7041C4.17519 16.7994 4.28223 16.8922 4.3912 16.9828C4.63616 17.1869 4.89113 17.3792 5.15592 17.5586C5.30701 17.6607 5.4616 17.7583 5.61866 17.852C6.86173 18.5936 8.28642 19.0617 9.81009 19.1724C8.61211 18.7703 7.57048 17.3576 6.87998 15.3533ZM2.81127 3.88525C4.03767 4.43311 5.27303 4.85279 6.50294 5.1392C6.22569 6.28536 6.05214 7.56533 6.0088 8.9223H0.955078L0.956384 8.902C0.957301 8.88757 0.958214 8.8732 0.95929 8.85883C0.97789 8.61497 1.00544 8.37375 1.04176 8.13534C1.05387 8.05587 1.06703 7.97675 1.08107 7.89798C1.1846 7.31637 1.3413 6.75322 1.5445 6.21293C1.63522 5.97135 1.7356 5.73435 1.84492 5.50226C1.88861 5.40978 1.93318 5.31765 1.97968 5.22658C2.19113 4.8127 2.43206 4.41605 2.69914 4.03962C2.73599 3.98776 2.77336 3.93642 2.81127 3.88525ZM6.00852 10.2722H0.955322C0.996208 10.8633 1.08991 11.44 1.23293 11.9968C1.31171 12.3035 1.40524 12.6045 1.51264 12.8984C1.6202 13.1926 1.74146 13.4799 1.87605 13.7598C1.92132 13.8538 1.9687 13.9468 2.01695 14.0391C2.06328 14.1281 2.11119 14.2164 2.16014 14.3038C2.18787 14.3528 2.21594 14.4019 2.24437 14.4504C2.35896 14.6461 2.48021 14.8372 2.60796 15.0236C2.67411 15.1201 2.74185 15.2156 2.81134 15.3096C4.03721 14.7616 5.27257 14.3419 6.50266 14.0553C6.22558 12.909 6.05203 11.629 6.00852 10.2722ZM11.4177 16.7836C11.4177 13.3148 14.2245 10.5024 17.6866 10.5024C21.1482 10.5024 23.9552 13.3148 23.9552 16.7836C23.9552 20.2522 21.1482 23.0644 17.6866 23.0644C14.2245 23.0644 11.4177 20.2522 11.4177 16.7836ZM18.3604 19.4847H18.6932C19.6221 19.4847 20.3781 18.7275 20.3781 17.7967C20.3781 16.8655 19.6221 16.1081 18.6932 16.1081H16.6801C16.4969 16.1081 16.3423 15.9534 16.3423 15.7702C16.3423 15.587 16.4969 15.4322 16.6801 15.4322H19.7042V14.0821H18.3636V13.4228H17.0161V14.0821H16.6801C15.7508 14.0821 14.9948 14.8396 14.9948 15.7702C14.9948 16.7013 15.7508 17.4582 16.6801 17.4582H18.6932C18.876 17.4582 19.0306 17.6135 19.0306 17.7967C19.0306 17.9799 18.876 18.1348 18.6928 18.1348H15.6686V19.4847H17.013V20.1405H18.3604V19.4847Z" fill="#F7F8FA"/>
</svg>
