<svg width="23" height="20" viewBox="0 0 23 20" fill="none" xmlns="http://www.w3.org/2000/svg">
<path d="M7.61011 19.9936C6.5986 19.9936 5.65497 19.9999 4.70456 19.9873C4.63667 19.9873 4.55521 19.8734 4.52127 19.7976C4.48732 19.728 4.51448 19.6332 4.51448 19.5446C4.51448 17.7109 4.51448 15.8772 4.51448 14.0435C4.51448 13.759 4.39228 13.5567 4.12752 13.4302C3.86277 13.3037 3.57085 13.3101 3.37398 13.5124C3.23142 13.6578 3.1228 13.8918 3.11601 14.0878C3.09565 15.9405 3.09565 17.7931 3.10922 19.6521C3.10922 19.9304 3.02776 20.0126 2.72906 20.0062C1.91442 19.9873 1.09978 19.9936 0.285139 19.9999C0.0882674 19.9999 1.47007e-05 19.9556 1.47007e-05 19.7533C0.00680337 17.8121 -0.02714 15.8772 0.013592 13.936C0.0475354 12.3995 1.15409 11.1918 2.763 10.8061C3.82882 10.5532 4.84712 10.6733 5.80432 11.1855C6.0012 11.2867 6.13018 11.2803 6.32026 11.1792C8.35686 10.0726 11.0655 10.882 11.8734 12.8485C12.0227 13.2152 12.1042 13.6262 12.111 14.0182C12.1381 15.8836 12.1178 17.7489 12.1314 19.6142C12.1314 19.9114 12.0635 20.0189 11.724 20.0126C10.9637 19.9873 10.2102 19.9936 9.44984 20.0126C9.13077 20.0189 9.02894 19.943 9.02894 19.6332C9.04252 17.85 9.03573 16.0733 9.03573 14.2901C9.03573 14.1637 9.03573 14.0372 9.01536 13.9107C8.95427 13.5756 8.65556 13.3543 8.29577 13.367C7.92239 13.3796 7.64405 13.6325 7.6169 13.9866C7.61011 14.0815 7.6169 14.1763 7.6169 14.2712C7.6169 16.0416 7.6169 17.8121 7.6169 19.5826C7.61011 19.6964 7.61011 19.8229 7.61011 19.9936Z" fill="white"/>
<path d="M7.61106 9.29458C6.55881 9.29458 5.55409 9.29458 4.50864 9.29458C4.50864 9.15547 4.50864 9.02901 4.50864 8.90887C4.50864 7.06252 4.50864 5.2225 4.50864 3.37615C4.50864 2.82604 3.95197 2.50988 3.45639 2.76913C3.19164 2.90824 3.10338 3.12322 3.10338 3.40144C3.11017 5.23514 3.11017 7.06885 3.11017 8.90255C3.11017 9.02901 3.11017 9.14915 3.11017 9.29458C2.07151 9.29458 1.06678 9.29458 0.0484842 9.29458C0.0349068 9.25032 0.0145408 9.19973 0.0145408 9.14915C0.0145408 7.18898 -0.0194025 5.22882 0.0213295 3.26866C0.0484842 1.72582 1.16861 0.499132 2.79789 0.119746C3.85014 -0.126856 4.86165 -0.0067165 5.80527 0.499132C5.99535 0.600302 6.12434 0.600302 6.32121 0.499132C8.13378 -0.449334 10.3944 -0.000393424 11.5213 1.51715C11.9015 2.023 12.1119 2.58576 12.1187 3.1991C12.1323 5.14662 12.1255 7.10046 12.1255 9.04798C12.1255 9.11753 12.1119 9.19341 12.1052 9.28193C11.0869 9.28193 10.0889 9.28193 9.04347 9.28193C9.04347 9.15547 9.04347 9.02901 9.04347 8.90887C9.04347 7.10678 9.05025 5.3047 9.02989 3.50261C9.02989 3.2813 8.93485 3.02205 8.7855 2.85133C8.59541 2.63634 8.28992 2.61105 8.0048 2.74384C7.71968 2.8703 7.60427 3.09793 7.61106 3.38879C7.61785 5.02016 7.61106 6.65784 7.61106 8.28921C7.61106 8.61801 7.61106 8.94049 7.61106 9.29458Z" fill="white"/>
<path d="M17.99 9.31398C15.227 9.31398 12.9935 7.22736 12.9935 4.65385C12.9935 2.07402 15.2406 3.8965e-05 18.0375 0.00636208C20.7869 0.0126852 22.9932 2.10564 22.9932 4.70443C22.9932 7.24632 20.753 9.31398 17.99 9.31398ZM17.9764 6.63298C19.1712 6.63931 20.1216 5.77304 20.1284 4.67282C20.1352 3.57892 19.1848 2.67471 18.0104 2.67471C16.8495 2.66839 15.8719 3.5726 15.8719 4.66017C15.8719 5.74142 16.8155 6.62666 17.9764 6.63298Z" fill="white"/>
<path d="M23 15.3464C23 17.9135 20.7598 19.9938 17.99 19.9938C15.2338 19.9938 12.9935 17.9009 13.0003 15.3211C13.0003 12.7412 15.2542 10.6736 18.0511 10.6736C20.7733 10.6799 23 12.7792 23 15.3464ZM20.1284 15.3274C20.1284 14.2461 19.178 13.3609 18.0171 13.3546C16.8359 13.3546 15.8787 14.2398 15.8719 15.3274C15.8651 16.4213 16.8291 17.3128 18.0036 17.3128C19.178 17.3192 20.1284 16.4276 20.1284 15.3274Z" fill="white"/>
</svg>
