<svg width="26" height="17" viewBox="0 0 26 17" fill="none" xmlns="http://www.w3.org/2000/svg">
<path d="M14.3219 7.27686L13.4367 8.86379L13.4326 8.87199L16.2052 8.86379L17.1274 8.86174L16.8692 7.27686H14.3219Z" fill="#F7F8FA"/>
<path d="M14.953 6.16765L16.7236 6.18815L16.3609 3.54736L14.953 6.16765Z" fill="#F7F8FA"/>
<path d="M11.9407 4.20357V4.18717C11.9407 3.63359 11.4919 3.18457 10.9386 3.18457H9.54918L9.14548 5.20412H10.9386C11.4919 5.20412 11.9407 4.75715 11.9407 4.20357Z" fill="#F7F8FA"/>
<path d="M9.02875 0.240234H8.75005H3.31338C3.09411 0.240234 2.91788 0.41861 2.91788 0.635942C2.91788 0.855324 3.09616 1.03165 3.31338 1.03165H8.58201L8.38528 1.97274C8.38118 1.98709 8.39348 2.00349 8.40987 2.00349H11.5268C12.5617 2.00349 13.4018 2.84207 13.4018 3.87952V4.18091C13.4018 5.38239 12.4285 6.35628 11.2276 6.35628H8.90169L8.39553 8.8638H11.9407L15.8855 2.00349H17.4389L18.5496 8.8638H20.0291L20.6746 6.1369L19.0455 2.03425L20.5599 2.01169L21.562 4.85546L23.6358 1.98914L25.4064 2.05885L22.144 6.20661L21.6091 8.8638H24.8715C25.7363 8.8638 26.4761 8.24871 26.638 7.39988L27.9925 0.240234H9.02875Z" fill="#F7F8FA"/>
<path d="M2.91788 7.08623C2.91788 7.30562 3.09616 7.48194 3.31338 7.48194H7.31557L7.45287 6.68848H3.31338C3.09411 6.68848 2.91788 6.86685 2.91788 7.08623Z" fill="#F7F8FA"/>
<path d="M5.28888 4.30401C5.28888 4.52339 5.46716 4.69972 5.68439 4.69972H7.80946L7.94471 3.90625H5.68439C5.46512 3.9083 5.28888 4.08463 5.28888 4.30401Z" fill="#F7F8FA"/>
<path d="M2.1637 0.240234H1.51819C1.29892 0.240234 1.12268 0.41861 1.12268 0.635942C1.12268 0.855324 1.30097 1.03165 1.51819 1.03165H2.1637C2.38297 1.03165 2.55921 0.853274 2.55921 0.635942C2.55921 0.41861 2.38297 0.240234 2.1637 0.240234Z" fill="#F7F8FA"/>
<path d="M3.70476 4.69962H4.35027C4.56954 4.69962 4.74578 4.52124 4.74578 4.30391C4.74578 4.08453 4.56749 3.9082 4.35027 3.9082H3.70476C3.48549 3.9082 3.30925 4.08658 3.30925 4.30391C3.3072 4.52329 3.48549 4.69962 3.70476 4.69962Z" fill="#F7F8FA"/>
<path d="M1.69858 6.68848H-0.819948C-1.03717 6.68848 -1.21545 6.86685 -1.21545 7.08623C-1.21545 7.30562 -1.03717 7.48194 -0.819948 7.48194H1.69653C1.9158 7.48194 2.09204 7.30357 2.09204 7.08623C2.09409 6.86685 1.9158 6.68848 1.69858 6.68848Z" fill="#F7F8FA"/>
<path d="M14.8811 16.9442H16.1845L17.4284 10.0757H16.123L14.8811 16.9442Z" fill="#F7F8FA"/>
<path d="M24.1069 10.0757H22.8015L21.9613 14.7196L20.0678 10.0757H18.7625L17.5206 16.9442H18.826L19.6662 12.2921L21.5597 16.938V16.9442H21.5638H22.863H22.8671L22.8651 16.938L24.1069 10.0757Z" fill="#F7F8FA"/>
<path d="M13.8627 10.0757L12.1188 14.6827L11.8012 10.0757H10.6618L8.86664 14.572L8.59819 10.0757H7.29282L7.70472 16.9442H9.01009L10.9405 12.3966L11.2622 16.9442H12.5655L15.1681 10.0757H13.8627Z" fill="#F7F8FA"/>
</svg>
