<svg width="32" height="32" viewBox="0 0 32 32" fill="none" xmlns="http://www.w3.org/2000/svg">
<path d="M16 9C11.4545 9 7.57274 11.9026 6 16C7.57274 20.0973 11.4545 23 16 23C20.55 23 24.4273 20.0973 26 16C24.4273 11.9026 20.55 9 16 9ZM16 20.6666C13.4909 20.6666 11.4545 18.576 11.4545 16C11.4545 13.424 13.4909 11.3333 16 11.3333C18.5091 11.3333 20.5455 13.424 20.5455 16C20.5455 18.576 18.5091 20.6666 16 20.6666Z" fill="#838A92"/>
<path d="M16 13.2C14.4954 13.2 13.2727 14.4553 13.2727 16C13.2727 17.5447 14.4954 18.8 16 18.8C17.5046 18.8 18.7273 17.5447 18.7273 16C18.7273 14.4553 17.5045 13.2 16 13.2Z" fill="#838A92"/>
</svg>
