<svg width="32" height="32" viewBox="0 0 32 32" fill="none" xmlns="http://www.w3.org/2000/svg">
<path d="M12.073 15.901L8.212 12.04C6.692 13.697 6.116 15.357 6.106 15.391L6 15.707L6.105 16.023C6.127 16.09 8.421 22.707 16.054 22.707C16.983 22.707 17.829 22.605 18.606 22.434L15.86 19.688C14.8713 19.6395 13.936 19.225 13.236 18.525C12.536 17.825 12.1215 16.8897 12.073 15.901V15.901ZM16.054 8.707C14.199 8.707 12.679 9.111 11.412 9.705L7.707 6L6.293 7.414L24.293 25.414L25.707 24L22.409 20.702C25.047 18.749 25.988 16.065 26.002 16.023L26.107 15.707L26.002 15.391C25.98 15.324 23.687 8.707 16.054 8.707ZM17.96 16.253C18.147 15.576 17.988 14.814 17.468 14.293C16.948 13.772 16.185 13.614 15.508 13.801L14 12.293C14.618 11.913 15.3285 11.7103 16.054 11.707C18.26 11.707 20.054 13.501 20.054 15.707C20.051 16.4323 19.8479 17.1427 19.467 17.76L17.96 16.253V16.253Z" fill="#838A92"/>
</svg>
