<svg width="32" height="24" viewBox="0 0 32 24" fill="none" xmlns="http://www.w3.org/2000/svg">
<path opacity="0.4" d="M14.7547 7.22333H5.97879C5.48514 7.22333 5.1012 6.83938 5.1012 6.34573C5.1012 5.85209 5.48514 5.46814 5.97879 5.46814H14.6999C15.1935 5.46814 15.5775 5.85209 15.5775 6.34573C15.6323 6.83938 15.2484 7.22333 14.7547 7.22333Z" fill="white"/>
<path opacity="0.4" d="M9.15975 18.358H3.40054C2.9069 18.358 2.52295 17.974 2.52295 17.4804C2.52295 16.9867 2.9069 16.6028 3.40054 16.6028H9.1049C9.59855 16.6028 9.9825 16.9867 9.9825 17.4804C10.0373 17.974 9.6534 18.358 9.15975 18.358Z" fill="white"/>
<path opacity="0.4" d="M9.10504 12.8181H0.877594C0.383947 12.8181 0 12.4341 0 11.9405C0 11.4468 0.383947 11.0629 0.877594 11.0629H9.10504C9.59868 11.0629 9.98263 11.4468 9.98263 11.9405C9.98263 12.4341 9.59868 12.8181 9.10504 12.8181Z" fill="white"/>
<path d="M31.5385 5.90703C31.5385 4.31639 30.2222 3 28.6315 3L20.3492 3.05485H19.5265L18.6489 4.81004H20.2944L28.5767 4.75519C29.2349 4.75519 29.7285 5.24883 29.7285 5.90703V11.8856V17.8642C29.7285 18.4676 29.2349 19.0161 28.5767 19.0161L20.2944 18.9612L11.7378 19.0161L10.8602 20.8261L20.2944 20.7713L28.5767 20.8261C30.1673 20.8261 31.4837 19.5097 31.4837 17.9191V11.9405L31.5385 5.90703Z" fill="#F7F8FA"/>
<path d="M27.9735 9.63656C26.2732 9.14291 25.1214 7.99107 24.6826 6.34558H17.9361L12.3962 17.5349H14.6451H24.6826C25.1214 15.8894 26.2732 14.7376 27.9735 14.2439V11.9402V9.63656ZM22.324 13.4212C22.2143 14.0794 21.8304 14.573 21.227 14.8473C21.1722 14.9021 21.0625 14.9021 21.0076 14.9021L20.8979 14.957V15.9443H19.7461V15.0118H19.6364C19.5815 15.0118 19.4718 14.957 19.3621 14.957C19.0879 14.9021 18.8136 14.7924 18.5394 14.6279C18.3748 14.5182 18.32 14.3536 18.3748 14.1891C18.4297 14.0794 18.4845 13.9697 18.4845 13.86L18.6491 13.3663L19.0879 13.5857C19.417 13.7503 19.7461 13.86 20.13 13.86H20.1849C20.2946 13.86 20.4591 13.8051 20.5688 13.8051C20.7882 13.6954 20.8979 13.5309 20.9528 13.3115C21.0076 13.0921 20.8979 12.8727 20.6785 12.7081C20.4591 12.5436 20.2397 12.4339 19.9655 12.3242C19.6912 12.2145 19.3073 12.0499 18.9782 11.7757C18.5942 11.4466 18.4297 11.0078 18.4297 10.5142C18.4297 10.0205 18.7039 9.52686 19.0879 9.19776C19.3073 9.03321 19.4718 8.92351 19.7461 8.86866L19.8558 8.81381V7.93622H20.9528V8.81381H21.0625C21.1722 8.81381 21.2819 8.86866 21.3916 8.86866C21.5561 8.92351 21.6658 8.97836 21.8304 9.03321L21.9401 9.08806C22.1046 9.14291 22.1595 9.36231 22.1046 9.52686C22.0498 9.63656 21.9949 9.80111 21.9401 9.96566L21.7755 10.4045L21.5013 10.2399C21.3367 10.1302 21.1173 10.0754 20.8979 10.0205C20.5688 9.96566 20.3494 9.96566 20.1849 10.0205C19.9106 10.1302 19.8558 10.2948 19.8558 10.4045C19.8009 10.6239 19.9106 10.7884 20.0203 10.8433C20.1849 10.953 20.4043 11.0626 20.6785 11.1723C21.0076 11.282 21.3367 11.4466 21.611 11.666C22.1595 12.1048 22.3789 12.7081 22.324 13.4212Z" fill="white"/>
</svg>
