<svg width="80" height="80" viewBox="0 0 80 80" fill="none" xmlns="http://www.w3.org/2000/svg">
<g opacity="0.8">
<path d="M78.75 35V27.5C78.75 26.81 78.1912 26.25 77.5 26.25C71.2963 26.25 66.25 31.2975 66.25 37.5V42.6237L59.6225 38.0675C54.6463 34.6462 49.1175 32.29 43.3075 31.0412C41.6287 26.265 42.3388 20.8737 45.3 16.73L46.0162 15.7262C46.335 15.2812 46.3262 14.68 45.9937 14.2437C45.6637 13.8075 45.0875 13.6412 44.5713 13.825L43.955 14.0487C35.535 17.1112 28.6363 23.095 24.4038 30.955C17.0513 32.4725 10.12 35.7725 4.29375 40.6275L2.65875 41.99C1.76375 42.7362 1.25 43.8337 1.25 45C1.25 46.1675 1.76375 47.265 2.66 48.01L4.295 49.3725C11.3838 55.2787 20.1075 58.8912 29.2362 59.7787L30.63 61.4037C34.665 66.11 39.9475 69.4987 45.9088 71.2012C46.02 71.2337 46.135 71.25 46.25 71.25C46.6163 71.25 46.9713 71.0887 47.2125 70.7975C47.53 70.4162 47.59 69.8837 47.3688 69.44L47.1975 69.1C45.3475 65.4 45.6787 61.0587 48.0212 57.6737C52.1075 56.3237 56.0138 54.4137 59.6238 51.9325L66.25 47.3762V52.5C66.25 58.7025 71.2963 63.75 77.5 63.75C78.1912 63.75 78.75 63.19 78.75 62.5V55C78.75 50.6462 76.2588 46.8687 72.63 45C76.2588 43.1312 78.75 39.3537 78.75 35V35ZM41.84 17.64C39.845 21.6075 39.3862 26.2175 40.5225 30.5137C38.2612 30.1737 35.965 30 33.6475 30C31.6187 30 29.6012 30.1362 27.6062 30.4025C31.03 24.85 35.9488 20.435 41.84 17.64V17.64ZM4.4525 46.25H12.465C26.355 46.25 40.0438 48.4762 53.21 52.815C47.1688 55.88 40.5087 57.5 33.6475 57.5C26.55 57.5 19.585 55.7387 13.375 52.4562C16.7325 52.2562 20.0525 51.3725 23.0588 49.8687L21.94 47.6325C18.8425 49.1812 15.3737 50 11.91 50H9.29125C8.12375 49.2075 6.9875 48.3612 5.89625 47.4525L4.4525 46.25ZM44.065 67.9487C39.6962 66.2562 35.815 63.5325 32.7113 59.9787C33.0225 59.9862 33.335 60 33.6475 60C37.3787 60 41.0512 59.5325 44.6125 58.6562C43.3512 61.5912 43.1525 64.87 44.065 67.9487ZM58.2062 49.8712C57.5425 50.3275 56.8575 50.7425 56.175 51.1587C42.09 46.2487 27.3887 43.75 12.4662 43.75H4.45375L5.89625 42.5475C13.6712 36.0675 23.5262 32.5 33.6475 32.5C42.4575 32.5 50.95 35.1375 58.2062 40.1287L65.2925 45L58.2062 49.8712ZM76.25 55V61.1612C72.015 60.5525 68.75 56.9012 68.75 52.5V46.3387C72.985 46.9475 76.25 50.5987 76.25 55ZM68.75 43.6612V37.5C68.75 33.0987 72.015 29.4475 76.25 28.8387V35C76.25 39.4012 72.985 43.0525 68.75 43.6612Z" fill="white"/>
<path d="M18.125 36.25C17.0912 36.25 16.25 37.0912 16.25 38.125C16.25 39.1588 17.0912 40 18.125 40C19.1588 40 20 39.1588 20 38.125C20 37.0912 19.1588 36.25 18.125 36.25Z" fill="white"/>
<path d="M27.5 36.25H30V41.25H27.5V36.25Z" fill="white"/>
<path d="M31.25 36.25H33.75V41.25H31.25V36.25Z" fill="white"/>
<path d="M35 36.25H37.5V41.25H35V36.25Z" fill="white"/>
<path d="M16.25 30C19.0075 30 21.25 27.7575 21.25 25C21.25 22.2425 19.0075 20 16.25 20C13.4925 20 11.25 22.2425 11.25 25C11.25 27.7575 13.4925 30 16.25 30ZM16.25 22.5C17.6288 22.5 18.75 23.6212 18.75 25C18.75 26.3788 17.6288 27.5 16.25 27.5C14.8712 27.5 13.75 26.3788 13.75 25C13.75 23.6212 14.8712 22.5 16.25 22.5Z" fill="white"/>
<path d="M5 22.5C7.0675 22.5 8.75 20.8175 8.75 18.75C8.75 16.6825 7.0675 15 5 15C2.9325 15 1.25 16.6825 1.25 18.75C1.25 20.8175 2.9325 22.5 5 22.5ZM5 17.5C5.69 17.5 6.25 18.0613 6.25 18.75C6.25 19.4387 5.69 20 5 20C4.31 20 3.75 19.4387 3.75 18.75C3.75 18.0613 4.31 17.5 5 17.5Z" fill="white"/>
<path d="M26.25 16.25C28.3175 16.25 30 14.5675 30 12.5C30 10.4325 28.3175 8.75 26.25 8.75C24.1825 8.75 22.5 10.4325 22.5 12.5C22.5 14.5675 24.1825 16.25 26.25 16.25ZM26.25 11.25C26.94 11.25 27.5 11.8113 27.5 12.5C27.5 13.1887 26.94 13.75 26.25 13.75C25.56 13.75 25 13.1887 25 12.5C25 11.8113 25.56 11.25 26.25 11.25Z" fill="white"/>
<path d="M60 26.25C62.0675 26.25 63.75 24.5675 63.75 22.5C63.75 20.4325 62.0675 18.75 60 18.75C57.9325 18.75 56.25 20.4325 56.25 22.5C56.25 24.5675 57.9325 26.25 60 26.25ZM60 21.25C60.69 21.25 61.25 21.8113 61.25 22.5C61.25 23.1887 60.69 23.75 60 23.75C59.31 23.75 58.75 23.1887 58.75 22.5C58.75 21.8113 59.31 21.25 60 21.25Z" fill="white"/>
</g>
</svg>
