<svg width="24" height="24" viewBox="0 0 24 24" fill="none" xmlns="http://www.w3.org/2000/svg">
<path d="M12 6.15625C8.09066 6.15625 4.91016 9.33675 4.91016 13.2461C4.91016 17.1554 8.09066 20.3359 12 20.3359C15.9093 20.3359 19.0898 17.1554 19.0898 13.2461C19.0898 9.33675 15.9093 6.15625 12 6.15625ZM12.6445 17.1133H11.3555V15.8242H12.6445V17.1133ZM12.9674 12.9868C12.7685 13.102 12.6445 13.3166 12.6445 13.5457V14.5352H11.3555V13.5457C11.3555 12.8577 11.7256 12.2163 12.3216 11.8714C12.5212 11.7562 12.6445 11.5423 12.6445 11.3125C12.6445 10.9569 12.3556 10.668 12 10.668C11.6444 10.668 11.3555 10.9569 11.3555 11.3125H10.0664C10.0664 10.2463 10.9338 9.37891 12 9.37891C13.0662 9.37891 13.9336 10.2463 13.9336 11.3125C13.9336 12.0005 13.5635 12.6425 12.9674 12.9868Z" fill="#F7F8FA"/>
<path opacity="0.4" d="M3.62109 13.2461C3.62109 12.1045 3.85227 11.0162 4.2676 10.0234H2.93359C1.86737 10.0234 1 10.8908 1 11.957V14.5352C1 15.6014 1.86737 16.4688 2.93359 16.4688H4.2676C3.85227 15.476 3.62109 14.3877 3.62109 13.2461Z" fill="white"/>
<path opacity="0.4" d="M21.0663 10.0234H19.7324C20.1478 11.0162 20.3788 12.1045 20.3788 13.2461C20.3788 14.3877 20.1478 15.476 19.7324 16.4688H21.0663C22.1326 16.4688 22.9999 15.6014 22.9999 14.5352V11.957C22.9999 10.8908 22.1326 10.0234 21.0663 10.0234Z" fill="white"/>
<path opacity="0.4" d="M20.1446 8.73438H21.0234C21.1798 8.73438 21.3296 8.75891 21.4801 8.78057C20.5995 4.35027 16.6851 1 11.9999 1C7.31474 1 3.40033 4.35027 2.51978 8.78057C2.67029 8.75891 2.82008 8.73438 2.97649 8.73438H3.85524C4.73163 5.04491 8.04637 2.28906 11.9999 2.28906C15.9535 2.28906 19.2682 5.04491 20.1446 8.73438Z" fill="white"/>
<path opacity="0.4" d="M21.0234 17.7577H20.3138C19.9976 19.9384 18.134 21.7109 15.8672 21.7109H11.3555V22.9999H15.8672C18.8655 22.9999 21.3106 20.6192 21.6088 17.6985C21.4184 17.7337 21.2239 17.7577 21.0234 17.7577Z" fill="white"/>
</svg>
