<svg width="24" height="24" viewBox="0 0 24 24" fill="none" xmlns="http://www.w3.org/2000/svg">
<path d="M12.1996 12.0992V23.0001H13.48V11.6301L12.1996 12.0992Z" fill="#F7F8FA"/>
<path d="M4.46519 14.9139V21.0664C4.46519 22.1326 5.33256 23 6.39879 23H10.9019V12.5682L4.46519 14.9139Z" fill="#F7F8FA"/>
<path d="M14.7777 11.3125V23H19.2894C20.3556 23 21.2144 22.1326 21.2144 21.0664V11.3125H14.7777Z" fill="#F7F8FA"/>
<path opacity="0.4" d="M20.1686 4.39764C19.8057 3.40179 18.7088 2.875 17.6906 3.24199L12.1841 5.2461L14.0585 10.0508L21.2714 7.42582L20.1686 4.39764Z" fill="white"/>
<path opacity="0.4" d="M8.5504 6.56848L3.15464 8.53228C2.15175 8.89773 1.6323 10.004 1.99904 11.0103L3.10114 14.0385L10.4249 11.3731L8.5504 6.56848Z" fill="white"/>
<path opacity="0.4" d="M10.9642 5.69006L9.7527 6.13097L11.6447 10.9292L12.8562 10.4883L10.9642 5.69006Z" fill="white"/>
<path opacity="0.4" d="M14.4785 1.50725C13.7332 0.962144 12.7784 0.848233 11.9274 1.20509C11.0758 1.5607 10.4854 2.31789 10.3482 3.23059L10.1314 4.56748L11.5104 4.06552L11.6234 3.42193C11.6926 2.95869 11.9916 2.57472 12.424 2.39472C12.8415 2.21919 13.3278 2.26341 13.7181 2.54829C13.9485 2.7169 14.1026 2.83588 14.1868 3.09142L15.3894 2.65365C15.2182 2.16106 14.9162 1.82745 14.4785 1.50725Z" fill="white"/>
<path opacity="0.4" d="M8.71051 3.77011C8.01884 3.15828 7.07847 2.95753 6.19851 3.23321C5.31731 3.5089 4.65959 4.20817 4.43929 5.1045C4.30986 5.63109 4.36413 6.16557 4.54959 6.65305L5.75194 6.21537C5.65208 5.96534 5.62226 5.69034 5.69058 5.41293C5.8026 4.95785 6.13621 4.60349 6.58308 4.46375C7.01509 4.32733 7.496 4.41687 7.85702 4.73566L8.42863 5.24119L9.80699 4.73944L8.71051 3.77011Z" fill="white"/>
</svg>
