<svg width="23" height="24" viewBox="0 0 23 24" fill="none" xmlns="http://www.w3.org/2000/svg">
<path opacity="0.4" fill-rule="evenodd" clip-rule="evenodd" d="M4.12163 7.78723C2.83704 9.72757 1.30941 13.1055 0.823557 18.5644C0.78741 18.9706 1.03308 19.1161 1.37312 18.8911C1.82404 18.5928 2.43429 18.3567 2.88836 18.8148C3.55582 19.4881 2.15027 22.0395 0.506927 23.4498C0.0581275 23.8349 0.170157 24.074 0.753919 23.9791C2.84004 23.6401 6.83335 22.8886 8.92338 21.8217C10.7082 20.9106 11.3413 22.1507 10.7398 23.1032C10.517 23.456 10.6657 23.6554 11.068 23.5448C13.1059 22.9845 17.1546 21.4449 18.9735 17.7596C17.5191 18.5842 15.8378 19.055 14.0466 19.055C8.52151 19.055 4.04257 14.576 4.04257 9.05097C4.04257 8.62291 4.06945 8.20113 4.12163 7.78723Z" fill="white"/>
<path d="M14.2032 17.5938C16.898 17.5938 19.3093 16.3816 20.923 14.4734C22.2185 12.9412 23.0001 10.9605 23.0001 8.7969C23 3.93851 19.0615 0 14.2032 0C11.1598 0 8.47759 1.54554 6.89814 3.89444C5.95614 5.29532 5.40625 6.98188 5.40625 8.79693C5.4063 13.6553 9.34478 17.5938 14.2032 17.5938ZM22.1324 9.57245C22.1361 9.57583 22.14 9.57889 22.1439 9.582C22.0662 10.3823 21.8692 11.1599 21.5552 11.9024C21.4535 12.143 21.3404 12.3774 21.2166 12.6053C21.2112 12.6057 21.2057 12.6061 21.2002 12.6069L18.902 12.949L18.0072 13.0822L16.5347 11.1633L16.4959 11.1128L17.4557 8.15883L19.7699 7.39844L22.1324 9.57245ZM14.6123 3.06803L17.4076 1.50261C17.4123 1.49996 17.4167 1.49702 17.4212 1.49405C18.326 1.89312 19.1411 2.4512 19.845 3.15505C19.947 3.25708 20.0456 3.36167 20.1415 3.46831C20.1404 3.47278 20.1391 3.4772 20.1382 3.48178L19.5216 6.61878L17.1286 7.40507L14.6122 5.57683L14.6123 3.06803ZM15.934 11.7244L17.3745 13.6016L16.1305 16.5274C16.1283 16.5325 16.1265 16.5377 16.1248 16.5429C15.5006 16.6973 14.858 16.7757 14.2031 16.7757C13.5483 16.7757 12.9057 16.6973 12.2815 16.5429C12.2798 16.5377 12.278 16.5325 12.2759 16.5274L11.0318 13.6016L12.4724 11.7244H15.934ZM8.56138 3.15508C9.26525 2.4512 10.0803 1.89315 10.9851 1.49407C10.9896 1.49702 10.9941 1.49999 10.9988 1.50264L13.7941 3.068V5.5768L11.4176 7.3034L11.2777 7.40504L8.88475 6.61875L8.60185 5.17947L8.2682 3.48178C8.2673 3.47722 8.26601 3.47278 8.26484 3.46831C8.36068 3.3617 8.45932 3.25711 8.56138 3.15508ZM7.18976 12.6052C7.06594 12.3774 6.95293 12.143 6.85115 11.9023C6.53713 11.1599 6.3402 10.3823 6.2625 9.58197C6.26637 9.57886 6.27027 9.57583 6.27395 9.57242L8.63646 7.39839L10.9507 8.15878L11.9104 11.1127L10.3991 13.0821L7.20612 12.6069C7.20067 12.6061 7.19522 12.6056 7.18976 12.6052Z" fill="white"/>
</svg>
