<svg width="29" height="24" viewBox="0 0 29 24" fill="none" xmlns="http://www.w3.org/2000/svg">
<path fill-rule="evenodd" clip-rule="evenodd" d="M22.9968 8.73764H19.1856C17.412 8.74076 15.9752 10.1417 15.972 11.8709C15.9696 13.6041 17.408 15.0112 19.1856 15.0136H23V15.2889C23 18.3122 21.1672 20.1 18.0656 20.1H9.9352C6.8328 20.1 5 18.3122 5 15.2889V8.7041C5 5.68078 6.8328 3.90002 9.9352 3.90002H18.0624C21.164 3.90002 22.9968 5.68078 22.9968 8.7041V8.73764ZM9.26561 8.73057H14.3416H14.3448H14.3512C14.7312 8.72901 15.0384 8.42715 15.0368 8.05586C15.0352 7.68536 14.7248 7.38584 14.3448 7.3874H9.26561C8.88801 7.38896 8.58161 7.6877 8.58001 8.05664C8.57841 8.42715 8.88561 8.72901 9.26561 8.73057Z" fill="white"/>
<path opacity="0.4" d="M25.3663 18.4729C25.3603 20.5186 23.7035 22.1757 21.6577 22.1818C21.0555 22.1704 20.4637 22.0225 19.9269 21.749L19 22.6759C19.809 23.144 20.7234 23.3995 21.6577 23.4179C24.3856 23.4101 26.5952 21.2007 26.6032 18.4729H28.4577L25.9849 16L23.5118 18.4729H25.3663Z" fill="white"/>
<path opacity="0.4" d="M17.6336 12.2671C17.8219 13.1232 18.5724 13.7255 19.4293 13.7098H22.3542C22.7108 13.7098 23 13.4145 23 13.0496V10.7711C22.9992 10.4069 22.7108 10.1109 22.3542 10.1101H19.3604C18.3857 10.1132 17.5984 10.9223 17.6 11.9194C17.6 12.0361 17.6115 12.1528 17.6336 12.2671Z" fill="white"/>
<circle cx="19.4" cy="11.91" r="0.9" fill="white"/>
<path opacity="0.4" d="M1.85449 4.94509H0L2.47286 7.41795L4.94594 4.94509H3.09145C3.0974 2.89935 4.75426 1.24227 6.8 1.23611C7.40223 1.24759 7.99404 1.39549 8.53081 1.66897L9.45774 0.74205C8.64875 0.273912 7.73436 0.0184875 6.8 0C4.07193 0.0074375 1.86214 2.21701 1.85449 4.94509Z" fill="white"/>
</svg>
