<svg width="21" height="21" viewBox="0 0 21 21" fill="none" xmlns="http://www.w3.org/2000/svg">
<path d="M12.7508 4.52006V0.749798C12.7509 0.335568 13.0868 -0.000131798 13.501 3.8818e-08C13.7134 4.39843e-05 13.9158 0.0902202 14.0581 0.248028L20.808 7.74808C21.0549 8.023 21.0648 8.4367 20.8313 8.72309L14.0813 16.9731C13.819 17.2937 13.3465 17.341 13.0259 17.0787C12.8522 16.9366 12.7512 16.7243 12.7508 16.4999V12.7626C6.82572 12.9554 3.12824 15.4881 1.46169 20.4877C1.35947 20.7935 1.07317 20.9998 0.750696 20.9999C0.710266 21 0.669836 20.9967 0.629934 20.9901C0.26712 20.9309 0.000679016 20.6175 0.000679016 20.2499C0.000722885 11.4178 5.31747 4.92954 12.7508 4.52006Z" fill="#B50000"/>
</svg>
