<svg width="133" height="64" viewBox="0 0 133 64" fill="none" xmlns="http://www.w3.org/2000/svg">
<path d="M102.348 5.00879C99.6174 5.00879 97.0089 5.56901 94.6454 6.57565C94.6454 6.57565 90.4788 8.20379 87.7827 12.493C87.7827 12.493 87.7915 12.493 87.8003 12.493C86.2772 14.7951 85.4018 17.4912 85.4018 20.3711C85.4018 23.7324 86.601 26.8399 88.6231 29.3696C91.678 33.1773 96.6237 35.6546 102.208 35.6546C108.108 35.6546 113.299 32.8885 116.301 28.7043C114.551 34.753 108.975 39.1822 102.357 39.1822C102.357 39.1822 96.0898 39.7074 85.1917 34.254C84.2901 33.7288 83.2485 33.1336 82.1455 32.5121C83.1872 30.1136 83.7737 27.4613 83.7737 24.6778C83.7649 13.806 74.9677 5.00879 64.1135 5.00879C53.2592 5.00879 44.462 13.806 44.462 24.6602C44.462 27.5926 45.1098 30.3762 46.2565 32.871C41.7134 37.0201 36.2338 38.4294 32.8024 38.9021C30.7804 39.1822 29.4674 39.1384 29.4674 39.1384V39.1559C21.7031 38.8758 15.4969 32.4946 15.4969 24.6602C15.4969 16.6509 22.0007 10.1471 30.0101 10.1471C35.2534 10.1471 39.8402 12.9219 42.3962 17.0885L44.8647 11.7839C41.2583 7.63482 35.9449 5.00879 30.0101 5.00879C19.1558 5.00879 10.3586 13.806 10.3586 24.6602C10.3586 35.5145 19.1558 44.3117 30.0101 44.3117C30.6141 44.3117 31.2181 44.2854 31.8133 44.2329C40.8819 43.5677 48.0509 38.1755 49.1013 37.344C52.7077 41.6069 58.0911 44.3117 64.1135 44.3117C70.2759 44.3117 75.773 41.4756 79.3707 37.0464C83.1959 39.5236 92.3258 44.6181 102.348 44.3117C113.203 44.3117 122 35.5145 122 24.6602C122 13.806 113.203 5.00879 102.348 5.00879ZM102.2 30.8227C95.8447 30.8227 90.6976 26.1396 90.6976 20.3623C90.6976 16.8609 92.5884 13.771 95.4858 11.8715C97.3765 10.6372 99.6962 9.90196 102.2 9.90196C104.152 9.90196 105.999 10.3484 107.609 11.1274C111.233 12.8869 113.702 16.362 113.702 20.3623C113.702 26.1396 108.555 30.8227 102.2 30.8227ZM64.1135 39.1734C56.0953 39.1734 49.6003 32.6784 49.6003 24.6602C49.6003 16.6421 56.0953 10.1471 64.1135 10.1471C72.1316 10.1471 78.6267 16.6509 78.6267 24.6602C78.6267 26.551 78.2678 28.363 77.6025 30.0174C75.0553 28.6868 72.7093 27.5839 71.4576 27.3038C71.4576 27.3038 60.8397 24.4327 53.7844 28.6343L56.5067 32.7047C56.5067 32.7047 64.805 28.9319 74.9852 34.2715C72.3329 37.2739 68.4464 39.1734 64.1135 39.1734Z" fill="#323439"/>
<path d="M46.3351 50.9555H46.1951C45.8187 50.5178 45.3547 50.1852 44.8033 49.9576C44.2606 49.73 43.6741 49.6162 43.0526 49.6162C41.8359 49.6162 40.8642 50.0014 40.1377 50.7629C39.4112 51.5245 39.0435 52.6012 39.0435 53.9842C39.0435 55.3847 39.3936 56.4789 40.1027 57.2667C40.8117 58.0458 41.8446 58.4397 43.2101 58.4397C43.5953 58.4397 43.9804 58.3959 44.3568 58.3172C44.7332 58.2384 45.0746 58.1158 45.381 57.9583V54.3956L45.9937 54.4219L46.6065 54.3956V58.3172C45.9937 58.536 45.3635 58.7023 44.7245 58.8161C44.0767 58.9299 43.4465 58.9912 42.825 58.9912C41.1268 58.9912 39.8313 58.5185 38.9297 57.5819C38.0981 56.7065 37.678 55.5248 37.678 54.0367C37.678 52.4436 38.1944 51.2094 39.2186 50.334C40.1902 49.5024 41.4857 49.0823 43.1051 49.0823C43.8316 49.0823 44.4969 49.1523 45.1184 49.2924C45.7311 49.4324 46.2476 49.625 46.6678 49.8876C46.6065 50.0364 46.5452 50.2027 46.4839 50.3953C46.4227 50.5966 46.3789 50.7804 46.3351 50.9555Z" fill="#838A92"/>
<path d="M52.6727 49.0911L56.8393 58.8249C56.743 58.8161 56.6205 58.8074 56.4892 58.7899C56.3579 58.7724 56.2353 58.7724 56.1128 58.7724C55.9727 58.7724 55.8327 58.7811 55.6926 58.7899C55.5525 58.8074 55.4387 58.8161 55.36 58.8249C54.9223 57.5206 54.4409 56.2514 53.9156 55.0434H50.388C50.0029 55.9975 49.7052 56.7591 49.4952 57.3193C49.2938 57.8795 49.1275 58.3872 48.9962 58.8249C48.8737 58.7986 48.7774 58.7811 48.7249 58.7811C48.6723 58.7724 48.5936 58.7724 48.4973 58.7724C48.4097 58.7724 48.3135 58.7811 48.2259 58.7899C48.1296 58.8074 48.0596 58.8161 48.0071 58.8249L52.3488 49.0911H52.6727ZM53.6968 54.4569L52.165 50.8943L50.6331 54.4569H53.6968Z" fill="#838A92"/>
<path d="M67.387 49.2836H67.6671C67.8597 51.1481 67.9823 52.286 68.0348 52.6887C68.1136 53.4327 68.2449 54.5094 68.4199 55.9275C68.5512 56.9341 68.6825 57.9058 68.8051 58.8249C68.6125 58.8074 68.4725 58.7898 68.3849 58.7811C68.2974 58.7723 68.2186 58.7636 68.1398 58.7636C67.9472 58.7636 67.8072 58.7723 67.7284 58.7811C67.6234 58.8074 67.5533 58.8249 67.5008 58.8249C67.4133 57.8882 67.3345 56.9516 67.247 56.0063C67.1682 55.0696 67.0807 54.2206 67.0019 53.4678C66.9143 52.715 66.8443 52.1022 66.7743 51.612C66.2578 52.5399 65.7676 53.4327 65.3037 54.2993C64.8748 55.0871 64.4721 55.8662 64.087 56.6278C63.7018 57.3893 63.3867 58.0633 63.1329 58.6498H62.9928L62.2225 57.0567C61.8899 56.3651 61.5923 55.7612 61.3297 55.2535C61.0671 54.7458 60.7519 54.133 60.3668 53.4152C60.0429 52.8113 59.7278 52.2073 59.4127 51.6033C59.0713 54.6932 58.8875 56.3214 58.8699 56.4877C58.7912 57.4068 58.7474 58.1771 58.7474 58.8074C58.6161 58.7811 58.5198 58.7636 58.4673 58.7636C58.4148 58.7548 58.336 58.7548 58.2485 58.7548C58.1609 58.7548 58.0734 58.7636 57.9771 58.7723C57.8808 58.7899 57.802 58.7986 57.7495 58.8074C57.9421 57.5644 58.1959 55.8399 58.5111 53.6253C58.8262 51.4107 59.0188 49.9576 59.0888 49.2661H59.4477C59.8153 50.0102 60.2092 50.7805 60.6294 51.5858C61.1021 52.4961 61.5397 53.319 61.9512 54.063C62.4501 54.9734 62.9315 55.8049 63.3955 56.549C63.9382 55.5686 64.3759 54.772 64.6997 54.168C65.1374 53.3627 65.5663 52.5662 65.9952 51.7871C66.4066 51.0256 66.8793 50.1852 67.387 49.2836Z" fill="#838A92"/>
<path d="M70.9236 58.8248V49.2836C71.0111 49.3011 71.1074 49.3186 71.1949 49.3273C71.2912 49.3361 71.3963 49.3448 71.5276 49.3448C71.6851 49.3448 71.8164 49.3361 71.9127 49.3186C72.009 49.3011 72.0878 49.2923 72.1403 49.2923V58.8336C72.0265 58.8161 71.9215 58.7986 71.8339 58.7898C71.7377 58.7811 71.6414 58.7723 71.5276 58.7723C71.4138 58.7723 71.3 58.7811 71.1862 58.7898C71.0724 58.8073 70.9849 58.8161 70.9236 58.8248Z" fill="#838A92"/>
<path d="M83.0558 49.2836V58.8249H82.6356C82.478 58.5798 82.2329 58.2909 81.9178 57.9583L75.9042 51.3057H75.7642V58.8161C75.6591 58.7986 75.5803 58.7811 75.5278 58.7723C75.4841 58.7636 75.4315 58.7548 75.379 58.7548C75.3177 58.7548 75.2477 58.7636 75.1689 58.7723C75.0902 58.7899 75.0376 58.7986 74.9851 58.8074V49.2661H75.5453L82.1367 56.4439H82.2767V49.2661C82.3905 49.2836 82.4693 49.3011 82.5131 49.3099C82.5568 49.3186 82.6093 49.3274 82.6619 49.3274C82.7319 49.3274 82.8019 49.3186 82.872 49.3099C82.942 49.3011 83.0033 49.2924 83.0558 49.2836Z" fill="#838A92"/>
<path d="M94.12 50.9555H93.98C93.6036 50.5178 93.1396 50.1852 92.5882 49.9576C92.0455 49.73 91.459 49.6162 90.8375 49.6162C89.6208 49.6162 88.6491 50.0014 87.9226 50.7629C87.1961 51.5245 86.8284 52.6012 86.8284 53.9842C86.8284 55.3847 87.1786 56.4789 87.8876 57.2667C88.5966 58.0458 89.6295 58.4397 90.9951 58.4397C91.3802 58.4397 91.7654 58.3959 92.1418 58.3172C92.5182 58.2384 92.8595 58.1158 93.1659 57.9583V54.3956L93.7786 54.4219L94.3914 54.3956V58.3172C93.7786 58.536 93.1484 58.7023 92.5094 58.8161C91.8616 58.9299 91.2314 58.9912 90.6099 58.9912C88.9117 58.9912 87.6162 58.5185 86.7146 57.5819C85.8831 56.7065 85.4629 55.5248 85.4629 54.0367C85.4629 52.4436 85.9793 51.2094 87.0035 50.334C87.9751 49.5024 89.2706 49.0823 90.89 49.0823C91.6165 49.0823 92.2818 49.1523 92.9033 49.2924C93.516 49.4324 94.0325 49.625 94.4527 49.8876C94.3914 50.0364 94.3301 50.2027 94.2688 50.3953C94.2163 50.5966 94.1638 50.7804 94.12 50.9555Z" fill="#838A92"/>
</svg>
