<svg width="180" height="64" viewBox="0 0 180 64" fill="none" xmlns="http://www.w3.org/2000/svg">
<path d="M55.9738 50.4494C55.9738 43.3532 55.9738 36.2792 55.9738 29.1831C61.1543 29.1831 66.3274 29.1831 71.5228 29.1831C71.5228 30.3314 71.5228 31.4724 71.5228 32.6502C67.695 32.6502 63.8746 32.6502 60.0394 32.6502C60.0394 34.3506 60.0394 36.0142 60.0394 37.722C62.5665 37.722 65.0936 37.722 67.6578 37.722C67.6578 38.9071 67.6578 40.0555 67.6578 41.2406C65.1456 41.2406 62.6111 41.2406 60.0543 41.2406C60.0543 43.1545 60.0543 45.0389 60.0543 46.9676C64.001 46.9676 67.9403 46.9676 71.8944 46.9676C71.8944 48.1527 71.8944 49.2863 71.8944 50.442C66.5801 50.4494 61.2881 50.4494 55.9738 50.4494Z" fill="#444444"/>
<path d="M85.3103 43.2944C85.3623 40.5634 86.0833 38.4728 87.934 36.8755C89.0861 35.8817 90.4388 35.3149 91.9551 35.1235C94.1328 34.8512 96.1768 35.2119 97.983 36.5148C99.6479 37.722 100.57 39.3856 100.904 41.3731C101.149 42.8085 101.082 44.2366 100.607 45.6205C99.7519 48.1159 98.0127 49.7354 95.4707 50.442C93.4936 50.9941 91.5166 50.891 89.6287 50.0372C87.4955 49.0729 86.1725 47.4166 85.615 45.1788C85.4367 44.4501 85.3698 43.6845 85.3103 43.2944ZM96.9572 43.0662C97.0093 42.3153 96.8755 41.4983 96.6079 40.6959C96.1174 39.2237 94.8984 38.3256 93.3227 38.2667C91.7321 38.2078 90.4537 38.9955 89.8665 40.4383C89.257 41.9399 89.2422 43.4784 89.7104 45.0169C90.1044 46.3272 90.9665 47.2031 92.3713 47.4387C93.8058 47.6816 95.0842 47.3798 96.0356 46.1947C96.7417 45.3113 96.9127 44.2513 96.9572 43.0662Z" fill="#444444"/>
<path d="M141.427 42.9263C141.456 40.6591 142.125 38.6348 143.835 37.0669C145.723 35.3297 148.012 34.7997 150.517 35.1236C152.739 35.4106 154.538 36.4338 155.809 38.2888C156.738 39.6359 157.124 41.1597 157.154 42.7718C157.191 44.774 156.641 46.6069 155.296 48.1454C153.646 50.0298 151.483 50.8027 149.008 50.7586C146.756 50.7144 144.794 49.9562 143.285 48.2337C142.185 46.9823 141.635 45.488 141.486 43.8465C141.464 43.5373 141.449 43.2355 141.427 42.9263ZM145.478 42.9631C145.537 43.4637 145.552 43.9643 145.663 44.4574C145.99 45.9297 146.749 47.0486 148.339 47.4166C149.751 47.7405 151.803 47.3577 152.591 45.4291C153.334 43.6036 153.312 41.7559 152.382 39.9893C151.728 38.7452 150.584 38.2373 149.209 38.2741C147.811 38.3036 146.741 38.9145 146.102 40.1806C145.648 41.0566 145.507 41.9915 145.478 42.9631Z" fill="#444444"/>
<path d="M172.755 50.4567C171.402 50.4567 170.087 50.4567 168.734 50.4567C168.734 50.3021 168.734 50.1549 168.734 50.0151C168.734 47.3135 168.741 44.6194 168.727 41.9178C168.727 41.4541 168.697 40.983 168.623 40.5266C168.362 38.8114 167.173 38.2594 165.62 38.436C164.52 38.5612 163.821 39.231 163.405 40.2174C163.078 40.9903 162.974 41.8001 162.974 42.6319C162.966 45.1126 162.966 47.5859 162.966 50.0666C162.966 50.1844 162.966 50.3095 162.966 50.4494C161.621 50.4494 160.306 50.4494 158.968 50.4494C158.968 45.4144 158.968 40.3867 158.968 35.3444C160.298 35.3444 161.614 35.3444 162.952 35.3444C162.952 36.1173 162.952 36.8755 162.952 37.7146C163.041 37.6042 163.085 37.5601 163.115 37.5085C164.052 35.7419 165.568 34.991 167.53 35.0131C168.548 35.0205 169.522 35.2339 170.391 35.7934C171.313 36.3823 171.885 37.2362 172.264 38.2373C172.651 39.2678 172.755 40.3426 172.762 41.4173C172.777 44.347 172.77 47.2767 172.77 50.2138C172.77 50.2801 172.762 50.3537 172.755 50.4567Z" fill="#444444"/>
<path d="M119.032 35.337C120.392 35.337 121.701 35.337 123.024 35.337C123.024 40.3793 123.024 45.3996 123.024 50.4493C121.701 50.4493 120.385 50.4493 119.04 50.4493C119.04 49.7795 119.04 49.117 119.04 48.3882C118.757 48.7563 118.534 49.0875 118.274 49.382C117.189 50.5745 115.784 50.8836 114.253 50.7217C111.585 50.442 109.92 48.8593 109.4 46.1357C109.303 45.6057 109.243 45.0684 109.243 44.531C109.229 41.5645 109.236 38.5979 109.236 35.6241C109.236 35.5431 109.243 35.4548 109.251 35.3443C110.581 35.3443 111.897 35.3443 113.264 35.3443C113.264 35.4989 113.264 35.6388 113.264 35.7786C113.264 38.5023 113.25 41.2259 113.279 43.9495C113.287 44.5752 113.383 45.2303 113.577 45.8192C113.889 46.7761 114.654 47.262 115.643 47.365C116.706 47.4754 117.635 47.2031 118.267 46.2682C118.765 45.5321 118.973 44.6929 118.988 43.8317C119.025 41.1743 119.025 38.5096 119.04 35.8449C119.032 35.6903 119.032 35.5357 119.032 35.337Z" fill="#444444"/>
<path d="M70.8093 35.3296C72.1992 35.3296 73.552 35.3296 74.9344 35.3296C76.1385 38.8262 77.35 42.3301 78.5764 45.8928C79.1933 43.9495 79.7954 42.0651 80.3974 40.1732C80.8731 38.6716 81.3562 37.1699 81.8245 35.6609C81.8988 35.418 81.9954 35.3076 82.2853 35.3149C83.4894 35.337 84.686 35.3223 85.9422 35.3223C85.8976 35.4695 85.8604 35.5946 85.8158 35.7124C84.0468 40.5192 82.2779 45.326 80.5163 50.1328C80.4197 50.3905 80.3082 50.4862 80.0258 50.4788C79.0075 50.4567 77.9967 50.4641 76.9784 50.4714C76.7703 50.4714 76.6514 50.4346 76.5622 50.2138C74.6743 45.3187 72.779 40.4309 70.8837 35.5358C70.8539 35.4916 70.8391 35.4327 70.8093 35.3296Z" fill="#444444"/>
<path d="M133.63 35.3075C133.63 36.4043 133.63 37.4423 133.63 38.5243C132.634 38.5243 131.645 38.5243 130.627 38.5243C130.62 38.6863 130.605 38.8188 130.605 38.9439C130.605 41.2406 130.605 43.5299 130.605 45.8266C130.605 45.9149 130.605 45.9959 130.612 46.0842C130.657 46.835 130.976 47.1442 131.727 47.1589C132.307 47.1663 132.887 47.1589 133.481 47.1589C133.481 48.2705 133.481 49.3452 133.481 50.4714C133.295 50.4714 133.11 50.4714 132.931 50.4714C131.868 50.4493 130.798 50.5082 129.743 50.3978C127.78 50.1843 126.829 49.1832 126.784 47.2252C126.717 44.5016 126.732 41.778 126.717 39.0543C126.717 38.8998 126.717 38.7378 126.717 38.5391C125.989 38.5391 125.29 38.5391 124.569 38.5391C124.569 37.4496 124.569 36.4043 124.569 35.3296C125.276 35.3296 125.967 35.3296 126.717 35.3296C126.717 34.9542 126.717 34.6009 126.717 34.2549C126.717 33.7396 126.71 33.2243 126.725 32.7091C126.725 32.5986 126.784 32.4293 126.874 32.3852C128.107 31.6859 129.349 31.0086 130.634 30.2946C130.634 31.9877 130.634 33.6366 130.634 35.3149C131.645 35.3075 132.619 35.3075 133.63 35.3075Z" fill="#444444"/>
<path d="M102.896 28.8887C104.226 28.8887 105.549 28.8887 106.902 28.8887C106.902 36.0731 106.902 43.2502 106.902 50.4494C105.572 50.4494 104.249 50.4494 102.896 50.4494C102.896 43.2723 102.896 36.0878 102.896 28.8887Z" fill="#444444"/>
<path d="M135.57 35.337C136.9 35.337 138.223 35.337 139.569 35.337C139.569 40.372 139.569 45.3996 139.569 50.4493C138.238 50.4493 136.915 50.4493 135.57 50.4493C135.57 45.4143 135.57 40.3867 135.57 35.337Z" fill="#444444"/>
<path d="M135.51 29.2199C136.9 29.2199 138.26 29.2199 139.643 29.2199C139.643 30.5007 139.643 31.7742 139.643 33.0698C138.275 33.0698 136.908 33.0698 135.51 33.0698C135.51 31.8037 135.51 30.5228 135.51 29.2199Z" fill="#444444"/>
<path d="M45.8839 53.5057C44.3507 53.5114 43.0797 54.8004 43.0797 56.3563C43.0797 57.9406 44.3735 59.2069 45.9751 59.1956C47.5539 59.1842 48.8022 57.9293 48.7965 56.3506C48.7908 54.7209 47.5311 53.4943 45.8839 53.5057ZM45.9295 58.6107C44.7041 58.605 43.6953 57.5942 43.6896 56.362C43.6839 55.09 44.6585 54.136 45.9295 54.1076C47.0638 54.0792 48.1923 55.0048 48.2037 56.3393C48.2265 57.5829 47.1835 58.6164 45.9295 58.6107Z" fill="#A3A3A3"/>
<path d="M46.6704 56.8276C46.5564 56.6516 46.5849 56.5721 46.7616 56.4642C47.0523 56.2939 47.1891 55.885 47.1093 55.5386C47.0295 55.1809 46.7502 54.9197 46.3968 54.8572C45.9979 54.7891 45.5989 54.8345 45.2056 54.8118C44.9833 54.7947 44.9206 54.897 44.9206 55.0843C44.9206 55.9191 44.9206 56.7481 44.9149 57.5829C44.9149 57.8498 45.1087 57.7532 45.2398 57.7646C45.3766 57.776 45.5362 57.81 45.5248 57.5715C45.5134 57.3444 45.5191 57.1173 45.5248 56.8901C45.5248 56.8106 45.4963 56.7027 45.6274 56.6914C45.8155 56.6743 46.0093 56.6403 46.1004 56.8844C46.1574 57.0321 46.2714 57.1627 46.317 57.316C46.4424 57.7305 46.7331 57.8327 47.1207 57.7589C47.1321 57.7589 47.1378 57.7532 47.1891 57.7419C47.001 57.4182 46.8528 57.1116 46.6704 56.8276ZM45.787 56.2257C45.4165 56.2257 45.4849 56.2598 45.4792 55.7487C45.4849 55.2831 45.4165 55.3172 45.8326 55.3172C46.3284 55.3172 46.5564 55.4591 46.5564 55.7544C46.5507 56.061 46.2885 56.2257 45.787 56.2257Z" fill="#A3A3A3"/>
<path d="M46.682 37.4241C46.682 37.4241 46.8017 30.5076 41.9 24.0852C41.6492 28.9801 40.2699 33.574 38.0186 37.5547C40.6746 37.7193 43.5529 37.6739 46.682 37.4241Z" fill="url(#paint0_linear)"/>
<path d="M37.0152 39.1958C32.5752 45.9816 25.4848 50.6721 17.2545 51.5352C15.271 55.0729 14 58.2415 14 58.2415C17.7561 59.9508 28.4087 63.4885 38.0696 56.5323C46.8585 49.4001 46.6818 39.2526 46.6818 39.2526C43.1537 38.9686 39.9448 38.9459 37.0152 39.1958Z" fill="url(#paint1_linear)"/>
<path d="M38.0701 20.1387C28.4092 13.1825 17.7566 16.7202 14.0005 18.4295C14.0005 18.4295 18.9193 30.6951 24.505 33.8864C28.2382 36.0158 32.6726 37.214 38.0188 37.5547C40.2702 33.5741 41.6495 28.9858 41.9003 24.0853C40.8687 22.7224 39.6033 21.388 38.0701 20.1387Z" fill="#B8B8B8"/>
<path d="M37.0152 39.1958C32.1135 39.616 28.0041 40.7915 24.5045 42.7903C21.7572 44.3576 19.1753 48.1168 17.2545 51.5352C25.4848 50.6721 32.5752 45.9816 37.0152 39.1958Z" fill="#B8B8B8"/>
<defs>
<linearGradient id="paint0_linear" x1="46.8148" y1="22.1596" x2="34.0278" y2="66.5872" gradientUnits="userSpaceOnUse">
<stop stop-color="white"/>
<stop offset="1" stop-color="#AAAAAA"/>
</linearGradient>
<linearGradient id="paint1_linear" x1="48.7954" y1="33.0135" x2="30.0828" y2="65.6353" gradientUnits="userSpaceOnUse">
<stop stop-color="white"/>
<stop offset="1" stop-color="#AAAAAA"/>
</linearGradient>
</defs>
</svg>
