<svg width="137" height="64" viewBox="0 0 137 64" fill="none" xmlns="http://www.w3.org/2000/svg">
<path d="M22.8657 57.6322V51.1947H26.8847V51.9672H27.6625V54.3491H26.8847V55.1216H24.4863V57.5035L22.8657 57.6322ZM26.1068 53.641V52.8041H24.4863V53.5766L26.1068 53.641Z" fill="#6A6B6F"/>
<path d="M29.3479 57.6322V56.8597H28.5701V52.0315H29.3479V51.259H32.589V52.0315H33.3669V56.8597H32.589V57.6322H29.3479ZM31.7463 56.0228V52.804H30.1258V56.0228H31.7463Z" fill="#6A6B6F"/>
<path d="M34.9873 57.6322V56.8597H34.2095V52.0315H34.9873V51.259H38.2284V52.0315H39.0063V53.6409H37.3857V52.8684L35.83 52.804V56.0228H37.4505V55.2503H39.0711V56.8597H38.2932V57.6322H34.9873Z" fill="#6A6B6F"/>
<path d="M39.8489 57.6322V51.1947H41.4694V53.5766H43.09V51.1947H44.7105V53.5766H43.9326V55.186H44.7105V57.5678H43.09V55.186H41.4694V57.5678L39.8489 57.6322Z" fill="#6A6B6F"/>
<path d="M45.4885 57.6322V51.1947H50.3502V52.8041H47.1091V53.5766H49.5075V55.186H47.1091V55.9585H50.3502V57.5678L45.4885 57.6322Z" fill="#6A6B6F"/>
<path d="M52.8132 57.6322V52.8041H51.1926V51.1947H56.0542V52.8041H54.4337V57.6322H52.8132Z" fill="#6A6B6F"/>
<path d="M59.2305 57.6322V56.8597H58.4526V52.0315H59.2305V51.259H62.4716V52.8684H60.0732V56.0872H61.6937V55.3147H60.9159V53.7053H63.3143V56.924H62.5364V57.6965L59.2305 57.6322Z" fill="#6A6B6F"/>
<path d="M64.0923 57.6322V52.0315H64.8701V51.259H68.1112V52.0315H68.8891V57.6322H67.2685V56.0228H65.648V57.6322H64.0923ZM67.3334 54.4134V52.804H65.7128V54.4134H67.3334Z" fill="#6A6B6F"/>
<path d="M69.7317 57.6322V51.1947H70.5095V51.9672H71.2874V52.7397H72.0653V53.5122H72.8431V52.7397H73.621V51.9672H74.3988V51.1947H75.1767V57.6322H73.5562V55.2503H72.7783V56.0228H72.0004V55.2503H71.2226V57.6322H69.7317Z" fill="#6A6B6F"/>
<path d="M76.2139 57.6322V51.1947H81.0755V52.8041H77.8344V53.5766H80.2328V55.186H77.8344V55.9585H81.0755V57.5678L76.2139 57.6322Z" fill="#6A6B6F"/>
<path d="M81.9182 57.6322V56.0229H85.1593V55.2504H82.7609V54.4779H81.983V52.096H82.7609V51.3235H86.7798V52.9329H83.5388V53.7054H85.9372V54.4779H86.715V56.8597H85.9372V57.6322H81.9182Z" fill="#6A6B6F"/>
<path d="M89.1782 57.6322V56.0229H92.4193V55.2504H90.0209V54.4779H89.243V52.096H90.0209V51.3235H94.0398V52.9329H90.7988V53.7054H93.1972V54.4779H93.975V56.8597H93.1972V57.6322H89.1782Z" fill="#6A6B6F"/>
<path d="M95.6604 57.6322V56.8597H94.8826V52.0315H95.6604V51.259H98.9015V52.0315H99.6794V56.8597H98.9015V57.6322H95.6604ZM98.0588 56.0228V52.804H96.4383V56.0228H98.0588Z" fill="#6A6B6F"/>
<path d="M100.457 57.6322V51.1947H105.319V52.8041H102.078V53.5766H104.476V55.186H102.078V57.5678L100.457 57.6322Z" fill="#6A6B6F"/>
<path d="M107.782 57.6322V52.8041H106.161V51.1947H111.023V52.8041H109.402V57.6322H107.782ZM109.402 52.8041V57.6322H107.782V52.8041" fill="#6A6B6F"/>
<path d="M58.8417 6.45404H55.3413V9.93029H58.8417V6.45404Z" fill="#202023"/>
<path d="M26.3661 10.5096H22.8657V13.9859H26.3661V10.5096Z" fill="#202023"/>
<path d="M30.4498 42.7616H26.9495V46.2379H30.4498V42.7616Z" fill="#6A6B6F"/>
<path d="M50.7389 34.6503H47.2385V38.1266H50.7389V34.6503Z" fill="#202023"/>
<path fill-rule="evenodd" clip-rule="evenodd" d="M34.5336 6.45404H31.0332V9.93029H34.5336V6.45404ZM30.4498 6.45404H26.9495V9.93029H30.4498V6.45404ZM35.0522 9.93029H38.5525V6.45404H35.0522V9.93029ZM42.6363 6.45404H39.1359V9.93029H42.6363V6.45404ZM46.6552 6.45404H43.1549V9.93029H46.6552V6.45404ZM54.8227 6.45404H51.3224V9.93029H54.8227V6.45404ZM26.9495 13.9859H30.4498V10.5097H26.9495V13.9859ZM22.8657 18.0416H26.3661V14.5653H22.8657V18.0416ZM26.9495 18.0416H30.4498V14.5653H26.9495V18.0416ZM22.8657 22.0328H26.3661V18.5566H22.8657V22.0328ZM26.9495 22.0328H30.4498V18.5566H26.9495V22.0328ZM22.8657 26.0884H26.3661V22.6122H22.8657V26.0884ZM26.9495 26.0884H30.4498V22.6122H26.9495V26.0884ZM22.8657 30.0797H26.3661V26.6034H22.8657V30.0797ZM26.9495 30.0797H30.4498V26.6034H26.9495V30.0797ZM22.8657 34.1353H26.3661V30.6591H22.8657V34.1353ZM26.9495 34.1353H30.4498V30.6591H26.9495V34.1353ZM22.8657 38.191H26.3661V34.7147H22.8657V38.191ZM26.9495 38.191H30.4498V34.7147H26.9495V38.191ZM30.9684 34.1353H34.5336V30.6591H31.0332V34.1353H30.9684ZM30.9684 38.191H34.5336V34.7147H31.0332V38.191H30.9684ZM35.0522 34.1353H38.5525V30.6591H35.0522V34.1353ZM35.0522 38.191H38.5525V34.7147H35.0522V38.191ZM39.1359 34.1353H42.6363V30.6591H39.1359V34.1353ZM39.1359 38.191H42.6363V34.7147H39.1359V38.191ZM43.1549 34.1353H46.6552V30.6591H43.1549V34.1353ZM43.1549 38.191H46.6552V34.7147H43.1549V38.191ZM51.2576 34.1353H54.7579V30.6591H51.2576V34.1353ZM22.8657 42.1822H26.3661V38.706H22.8657V42.1822ZM22.8657 46.2378H26.3661V42.7616H22.8657V46.2378ZM26.9495 42.1822H30.4498V38.706H26.9495V42.1822ZM30.9684 13.9859H34.5336V10.5097H31.0332V13.9859H30.9684ZM35.0522 13.9859H38.5525V10.5097H35.0522V13.9859ZM39.1359 13.9859H42.6363V10.5097H39.1359V13.9859ZM43.1549 13.9859H46.6552V10.5097H43.1549V13.9859ZM47.2386 9.93029H50.739V6.45404H47.2386V9.93029ZM47.2386 34.1353H50.739V30.6591H47.2386V34.1353ZM47.2386 13.9859H50.739V10.5097H47.2386V13.9859ZM51.2576 13.9859H54.7579V10.5097H51.2576V13.9859ZM55.3413 13.9859H58.8417V10.5097H55.3413V13.9859ZM51.2576 18.0416H54.7579V14.5653H51.2576V18.0416ZM55.3413 18.0416H58.8417V14.5653H55.3413V18.0416ZM59.4251 14.5009V18.0416H62.9254V14.5653H59.4251V14.5009ZM55.3413 22.0328H58.8417V18.5566H55.3413V22.0328ZM59.4251 22.0328H62.9254V18.5566H59.4251V22.0328ZM55.3413 26.0884H58.8417V22.6122H55.3413V26.0884ZM59.4251 26.0884H62.9254V22.6122H59.4251V26.0884ZM55.3413 30.0797H58.8417V26.6034H55.3413V30.0797ZM55.3413 34.1353H58.8417V30.6591H55.3413V34.1353ZM51.2576 30.0797H54.7579V26.6034H51.2576V30.0797ZM59.4251 30.0797H62.9254V26.6034H59.4251V30.0797Z" fill="#6A6B6F"/>
<path fill-rule="evenodd" clip-rule="evenodd" d="M70.9634 22.0328H74.4637V18.5566H70.9634V22.0328ZM70.9634 26.0884H74.4637V22.6122H70.9634V26.0884ZM70.9634 30.0797H74.4637V26.6034H70.9634V30.0797ZM70.9634 34.1353H74.4637V30.6591H70.9634V34.1353ZM70.9634 38.191H74.4637V34.7147H70.9634V38.191ZM74.9823 18.0416H78.4827V14.5653H74.9823V18.0416ZM74.9823 13.9859H78.4827V10.5097H74.9823V13.9859ZM79.0661 18.0416H82.5664V14.5653H79.0661V18.0416ZM79.0661 13.9859H82.5664V10.5097H79.0661V13.9859ZM86.6502 10.5097H83.1498V13.9859H86.6502V10.5097ZM83.085 9.93029H86.5854V6.45404H83.085V9.93029ZM87.1688 13.9859H90.6691V10.5097H87.1688V13.9859ZM87.1688 9.93029H90.6691V6.45404H87.1688V9.93029ZM91.2525 13.9859H94.7529V10.5097H91.2525V13.9859ZM94.7529 6.45404H91.2525V9.93029H94.7529V6.45404ZM98.8367 10.5097H95.3363V13.9859H98.8367V10.5097ZM95.2715 9.93029H98.7718V6.45404H95.2715V9.93029ZM74.9823 22.0328H78.4827V18.5566H74.9823V22.0328ZM74.9823 26.0884H78.4827V22.6122H74.9823V26.0884ZM74.9823 30.0797H78.4827V26.6034H74.9823V30.0797ZM91.2525 26.0884H94.7529V22.6122H91.2525V26.0884ZM91.2525 30.0797H94.7529V26.6034H91.2525V30.0797ZM98.8367 22.6122H95.3363V26.0884H98.8367V22.6122ZM98.8367 26.6034H95.3363V30.0797H98.8367V26.6034ZM99.3552 26.0884H102.856V22.6122H99.3552V26.0884ZM99.3552 30.0797H102.856V26.6034H99.3552V30.0797ZM99.3552 38.191H102.856V34.7147H99.3552V38.191ZM103.439 26.0884H106.939V22.6122H103.439V26.0884ZM103.439 30.0797H106.939V26.6034H103.439V30.0797ZM99.3552 13.9859H102.856V10.5097H99.3552V13.9859ZM99.3552 18.0416H102.856V14.5653H99.3552V18.0416ZM103.439 13.9859H106.939V10.5097H103.439V13.9859ZM103.439 18.0416H106.939V14.5653H103.439V18.0416ZM74.9823 34.1353H78.4827V30.6591H74.9823V34.1353ZM74.9823 38.191H78.4827V34.7147H74.9823V38.191ZM79.0661 38.191H82.5664V34.7147H79.0661V38.191ZM79.0661 42.1822H82.5664V38.706H79.0661V42.1822ZM79.0661 46.2378H82.5664V42.7616H79.0661V46.2378ZM86.6502 38.706H83.1498V42.1822H86.6502V38.706ZM83.085 46.2378H86.5854V42.7616H83.085V46.2378ZM87.1688 42.1822H90.6691V38.706H87.1688V42.1822ZM87.1688 46.2378H90.6691V42.7616H87.1688V46.2378ZM91.2525 42.1822H94.7529V38.706H91.2525V42.1822ZM91.2525 46.2378H94.7529V42.7616H91.2525V46.2378ZM98.8367 38.706H95.3363V42.1822H98.8367V38.706ZM95.2715 46.2378H98.7718V42.7616H95.2715V46.2378ZM99.3552 42.1822H102.856V38.706H99.3552V42.1822ZM103.439 42.1822H106.939V38.706H103.439V42.1822ZM103.439 34.1353H106.939V30.6591H103.439V34.1353ZM103.439 38.191H106.939V34.7147H103.439V38.191ZM107.458 26.6034V30.0797H110.958V26.6034H107.458ZM107.458 34.1353H110.958V30.6591H107.458V34.1353Z" fill="#6A6B6F"/>
<path d="M74.4637 14.5009H70.9634V17.9772H74.4637V14.5009Z" fill="#202023"/>
<path d="M82.5665 6.45404H79.0662V9.93029H82.5665V6.45404Z" fill="#202023"/>
<path d="M78.4828 38.7059H74.9824V42.1822H78.4828V38.7059Z" fill="#6A6B6F"/>
<path d="M102.856 42.7616H99.3552V46.2379H102.856V42.7616Z" fill="#202023"/>
<path d="M110.958 22.6122H107.458V26.0884H110.958V22.6122Z" fill="#202023"/>
<path d="M110.958 34.6503H107.458V38.1266H110.958V34.6503Z" fill="#202023"/>
<path d="M113.292 53.9629V51.6454H112.579V51.2592H114.394V51.6454H113.745V53.9629H113.292ZM114.783 53.9629V51.2592H115.236L116.144 52.9973L116.986 51.2592H117.44V53.9629H116.986V52.096L116.338 53.4479H115.885L115.171 52.0317V53.9629H114.783Z" fill="#6A6B6F"/>
<path d="M113.292 53.9629V51.6454H112.579V51.2592H114.394V51.6454H113.745V53.9629H113.292ZM114.783 53.9629V51.2592H115.236L116.144 52.9973L116.986 51.2592H117.44V53.9629H116.986V52.096L116.338 53.4479H115.885L115.171 52.0317V53.9629H114.783Z" fill="#6A6B6F"/>
</svg>
