<svg width="208" height="64" viewBox="0 0 208 64" fill="none" xmlns="http://www.w3.org/2000/svg">
<path d="M54.277 38.8512C54.277 39.2664 54.5323 39.474 55.0258 39.474V40.0969H49.7839V39.474C49.9394 39.4753 50.0903 39.4201 50.2094 39.3183C50.2728 39.2595 50.3225 39.1871 50.3549 39.1063C50.3873 39.0255 50.4015 38.9383 50.3966 38.8512V25.0796H44.7836C44.5728 25.0777 44.3659 25.1378 44.1879 25.2526C44.0007 25.3737 43.8986 25.5813 43.8986 25.91H43.2859V21.0657H43.8986C43.8986 21.3945 44.0007 21.6021 44.1879 21.7232C44.3659 21.838 44.5728 21.898 44.7836 21.8962H59.8968C60.1076 21.898 60.3144 21.838 60.4924 21.7232C60.6797 21.6021 60.7818 21.3945 60.7818 21.0657H61.3945V25.91H60.7818C60.7818 25.5813 60.6797 25.3737 60.4924 25.2526C60.3144 25.1378 60.1076 25.0777 59.8968 25.0796H54.2804L54.277 38.8512Z" fill="#444444"/>
<path d="M79.874 27.8132C79.8778 27.7186 79.8579 27.6245 79.8162 27.5398C79.7746 27.4551 79.7125 27.3825 79.6357 27.3288C79.3698 27.2038 79.0768 27.1502 78.7848 27.1731H69.4071V30.8236H75.078C75.3861 30.838 75.6938 30.7849 75.98 30.6679C76.1842 30.5641 76.3033 30.2873 76.3033 29.8375H76.8309V34.4222H76.2863C76.2863 33.9724 76.1842 33.6783 75.963 33.5572C75.6832 33.4165 75.3727 33.351 75.0609 33.3669H69.3935V37.4361H79.0605C79.3144 37.4461 79.5649 37.3734 79.7753 37.2285C79.8623 37.1664 79.9328 37.0833 79.9804 36.9867C80.0279 36.89 80.051 36.7828 80.0476 36.6748H80.5752V40.706H80.0476C80.0476 40.4118 79.9625 40.2388 79.7753 40.2042C79.539 40.1658 79.2998 40.1485 79.0605 40.1523H65.5812V39.616C65.7128 39.6148 65.8396 39.5657 65.9386 39.4776C65.9916 39.427 66.0329 39.3651 66.0594 39.2962C66.0859 39.2274 66.097 39.1534 66.0918 39.0797V25.6852C66.097 25.6115 66.0859 25.5375 66.0594 25.4686C66.0329 25.3998 65.9916 25.3378 65.9386 25.2873C65.8396 25.1991 65.7128 25.15 65.5812 25.1489V24.6125H78.7712C79.1796 24.6125 79.4689 24.5433 79.6221 24.4222C79.7024 24.3639 79.7665 24.2854 79.8083 24.1945C79.85 24.1036 79.868 24.0032 79.8604 23.9032H80.388V27.7786H79.8774L79.874 27.8132Z" fill="#444444"/>
<path d="M100.552 37.9862C100.501 37.99 100.449 37.9841 100.399 37.9689C100.349 37.9546 100.298 37.9488 100.246 37.9516C100.127 37.9516 99.8546 38.0727 99.4291 38.2976C99.0037 38.5225 98.442 38.7993 97.7783 39.0934C97.0462 39.4116 96.289 39.6663 95.5147 39.8547C94.6455 40.0703 93.7543 40.1807 92.8597 40.1834C91.6758 40.1871 90.4967 40.03 89.3537 39.7163C88.2834 39.431 87.2778 38.9374 86.3923 38.263C85.5409 37.608 84.8434 36.7688 84.35 35.8062C83.834 34.7357 83.5773 33.5552 83.6011 32.3633C83.5791 31.1772 83.8359 30.0028 84.35 28.9377C84.8362 27.9606 85.5345 27.1087 86.3923 26.4464C87.281 25.7654 88.2846 25.2553 89.3537 24.9412C90.4932 24.6064 91.6736 24.4375 92.8597 24.4395C93.7559 24.4342 94.6506 24.5153 95.5317 24.6817C96.3316 24.8374 97.0294 25.0104 97.6251 25.1834C98.1068 25.3172 98.5788 25.4849 99.0377 25.6851C99.2375 25.7909 99.4488 25.8722 99.6674 25.9273C99.7152 25.9258 99.762 25.9124 99.8035 25.8883C99.845 25.8642 99.8801 25.83 99.9057 25.7889C99.9611 25.7111 100.012 25.6303 100.059 25.5467L100.484 25.8927L98.2378 29.4568L97.9485 29.2491C97.9512 29.1909 97.9455 29.1326 97.9314 29.0761C97.9185 29.006 97.9015 28.9366 97.8804 28.8685C97.8463 28.6609 97.6421 28.436 97.3017 28.2111C96.8969 27.9555 96.4624 27.7521 96.0082 27.6055C95.48 27.4228 94.9397 27.2783 94.3914 27.173C93.8712 27.0592 93.3407 27.0013 92.8086 27C92.019 26.9997 91.2335 27.1162 90.477 27.346C89.7688 27.5577 89.1093 27.9106 88.5367 28.3841C87.9878 28.8358 87.5409 29.4022 87.2263 30.045C86.8899 30.7448 86.7208 31.5154 86.7327 32.2941C86.7208 33.0729 86.8899 33.8435 87.2263 34.5433C87.5409 35.186 87.9878 35.7525 88.5367 36.2042C89.1134 36.6713 89.7717 37.0235 90.477 37.2422C91.2317 37.4804 92.0184 37.5972 92.8086 37.5882C93.4615 37.5865 94.1123 37.5111 94.7488 37.3633C95.3802 37.2274 96.0004 37.0423 96.6039 36.8097C97.099 36.617 97.5679 36.3612 97.9995 36.0485C98.3739 35.7716 98.5612 35.4948 98.5612 35.2353C98.5651 35.1725 98.5566 35.1095 98.5361 35.05C98.5156 34.9906 98.4836 34.9359 98.442 34.8893L98.8505 34.6471L100.757 37.7613L100.552 37.9862Z" fill="#444444"/>
<path d="M118.252 25.6851C118.252 25.3391 118.048 25.1488 117.623 25.1488V24.6124H122.065V25.1522C121.933 25.1534 121.806 25.2025 121.707 25.2906C121.654 25.3412 121.613 25.4031 121.586 25.472C121.56 25.5408 121.549 25.6148 121.554 25.6886V39.045C121.549 39.1187 121.56 39.1927 121.586 39.2615C121.613 39.3304 121.654 39.3923 121.707 39.4429C121.806 39.531 121.933 39.5801 122.065 39.5813V40.1176H117.606V39.5813C118.031 39.5813 118.235 39.4083 118.235 39.045V33.5086H108.926V39.045C108.92 39.1187 108.931 39.1927 108.958 39.2615C108.984 39.3304 109.026 39.3923 109.079 39.4429C109.178 39.531 109.305 39.5801 109.436 39.5813V40.1176H105.062V39.5813C105.437 39.5813 105.607 39.4083 105.607 39.045V25.6851C105.607 25.3391 105.42 25.1488 105.062 25.1488V24.6124H109.436V25.1522C109.305 25.1534 109.178 25.2025 109.079 25.2906C109.026 25.3412 108.984 25.4031 108.958 25.472C108.931 25.5408 108.92 25.6148 108.926 25.6886V30.6886H118.235V25.6851H118.252Z" fill="#444444"/>
<path d="M127.327 40.0969V39.5605C128.041 39.5605 128.399 39.3875 128.399 39.0242V25.6851C128.399 25.3391 128.041 25.1488 127.327 25.1488V24.6124H137.504C139.359 24.6124 140.806 24.9584 141.878 25.6505C142.95 26.3425 143.478 27.5363 143.478 29.1972C143.478 30.8581 142.95 32.0519 141.878 32.7439C140.806 33.436 139.359 33.782 137.504 33.782H131.684V39.0242C131.684 39.3702 131.99 39.5605 132.603 39.5605V40.0969H127.327ZM137.862 31.1003C138.429 31.118 138.992 30.9869 139.495 30.7197C139.955 30.4602 140.176 29.9584 140.176 29.2145C140.176 28.4706 139.955 27.9688 139.495 27.7093C138.992 27.4421 138.429 27.311 137.862 27.3287H131.701V31.1003H137.862Z" fill="#444444"/>
<path d="M161.668 40.6505C161.668 40.3564 161.583 40.1834 161.396 40.1488C161.16 40.1104 160.92 40.093 160.681 40.0969H146.912V39.5605C147.491 39.5605 147.78 39.3875 147.78 39.0242V25.6851C147.78 25.3391 147.491 25.1488 146.912 25.1488V24.6124H151.882V25.1522C151.338 25.1522 151.065 25.3252 151.065 25.6886V37.4014H160.664C160.918 37.4114 161.169 37.3387 161.379 37.1937C161.466 37.1317 161.536 37.0486 161.584 36.952C161.632 36.8553 161.655 36.7481 161.651 36.6401H162.179V40.6712H161.668V40.6505Z" fill="#444444"/>
<path d="M164.647 39.5779C164.767 39.5602 164.882 39.5172 164.985 39.4517C165.087 39.3861 165.175 39.2995 165.243 39.1973C165.402 38.966 165.544 38.7231 165.668 38.4706L171.03 27.0346C171.166 26.7751 171.285 26.5502 171.387 26.3253C171.478 26.1549 171.531 25.9656 171.54 25.7717C171.546 25.6902 171.53 25.6085 171.494 25.5355C171.458 25.4624 171.404 25.4005 171.336 25.3564C171.205 25.2738 171.061 25.2153 170.91 25.1834V24.6471H175.795V25.1834C175.654 25.22 175.517 25.2722 175.387 25.3391C175.314 25.3825 175.256 25.4468 175.22 25.5238C175.183 25.6008 175.17 25.6871 175.182 25.7717C175.183 25.933 175.218 26.0922 175.284 26.2388C175.352 26.3945 175.455 26.6021 175.591 26.8616L181.616 38.8339C181.693 39.0283 181.831 39.1921 182.007 39.3011C182.177 39.4049 182.364 39.4914 182.569 39.5952V40.1315H177.48V39.5952C177.581 39.5861 177.679 39.5567 177.769 39.5087C177.821 39.49 177.866 39.4546 177.897 39.4078C177.928 39.361 177.943 39.3053 177.939 39.2492C177.914 38.981 177.833 38.7214 177.701 38.4879L176.595 36.308H169.549L168.511 38.4014C168.324 38.8166 168.221 39.1108 168.221 39.2838C168.221 39.4914 168.409 39.6125 168.766 39.6125V40.1488H164.664V39.5779H164.647ZM175.557 34.0935L173.123 28.6263L170.4 34.0935H175.557Z" fill="#444444"/>
<path d="M189.972 24.6332V25.1695C189.805 25.1658 189.638 25.1892 189.478 25.2387C189.404 25.2622 189.339 25.3112 189.296 25.3774C189.252 25.4435 189.233 25.5229 189.24 25.6021C189.24 25.7232 189.376 26 189.666 26.4325C189.955 26.865 190.278 27.3668 190.653 27.9377C191.027 28.5086 191.418 29.0623 191.827 29.6505C192.235 30.2387 192.559 30.7405 192.814 31.1557L196.201 26.4152C196.354 26.173 196.473 26 196.575 25.8616C196.662 25.7542 196.71 25.6199 196.712 25.481C196.712 25.3425 196.626 25.256 196.439 25.2214C196.271 25.1887 196.1 25.1713 195.929 25.1695V24.6332H201V25.1695C200.857 25.1676 200.714 25.1851 200.575 25.2214C200.422 25.2653 200.278 25.3355 200.149 25.4291C199.972 25.5575 199.816 25.7154 199.69 25.8962C199.52 26.1038 199.332 26.3806 199.094 26.7266L194.176 33.8201V39.0623C194.176 39.4083 194.397 39.5986 194.839 39.5986V40.1349H190.261V39.5986C190.419 39.6004 190.574 39.5521 190.704 39.4602C190.762 39.4134 190.809 39.3526 190.838 39.2831C190.868 39.2136 190.88 39.1377 190.874 39.0623V33.8028L185.292 25.8616C185.127 25.6428 184.91 25.4701 184.662 25.3599C184.442 25.2361 184.198 25.1651 183.947 25.1522V24.6159H189.972V24.6332Z" fill="#444444"/>
<path d="M65.5906 45.5156L64.9404 46.8184L64.8281 46.7526C64.8296 46.7313 64.8296 46.7099 64.8281 46.6886C64.8281 46.5969 64.7515 46.4983 64.5966 46.3927C64.1067 46.0518 63.524 45.8758 62.9305 45.8893C62.6775 45.8847 62.4254 45.9203 62.1833 45.9948C62.0381 46.0413 61.9073 46.1253 61.8038 46.2388C61.7141 46.3314 61.6619 46.4549 61.6574 46.5848C61.6574 46.7941 61.7817 46.9308 62.0284 47.0121C62.2994 47.0715 62.5741 47.1119 62.8505 47.1332L63.4768 47.1972C63.7823 47.2285 64.0847 47.2864 64.3805 47.3703C64.5987 47.4351 64.8051 47.5356 64.9915 47.6678C65.1753 47.8012 65.3229 47.9798 65.4204 48.1869C65.5256 48.4018 65.5798 48.6388 65.5787 48.8789C65.5816 49.259 65.4499 49.6274 65.2076 49.917C64.9306 50.2251 64.5669 50.4389 64.1661 50.5294C63.7983 50.6306 63.4187 50.6807 63.0377 50.6782C62.2964 50.6753 61.5658 50.4977 60.9035 50.1592C60.8193 50.1123 60.7295 50.0768 60.6363 50.0536C60.5724 50.0659 60.5134 50.0966 60.4661 50.1419L60.3503 50.0813L60.9409 48.7232L61.0566 48.7803V48.8322C61.0575 48.8992 61.0733 48.9651 61.1028 49.025C61.1322 49.0849 61.1747 49.1373 61.2268 49.1782C61.4637 49.3679 61.7366 49.5057 62.0284 49.5831C62.3584 49.6924 62.7026 49.7507 63.0496 49.7561C63.3611 49.7645 63.6705 49.7018 63.955 49.5727C64.086 49.5122 64.2001 49.4194 64.2869 49.3028C64.364 49.2041 64.4076 49.0827 64.4111 48.9568C64.4117 48.8679 64.3836 48.7813 64.331 48.7103C64.2784 48.6394 64.2043 48.5879 64.1201 48.564C63.8521 48.4845 63.5766 48.434 63.2981 48.4135L62.6837 48.3495C62.3901 48.3238 62.0981 48.2823 61.8089 48.2249C61.6317 48.1836 61.4602 48.1203 61.2983 48.0363C61.0584 47.9167 60.8597 47.7261 60.7282 47.4896C60.6009 47.2596 60.5363 46.9992 60.541 46.7353C60.5349 46.5189 60.5741 46.3037 60.656 46.1039C60.7378 45.9041 60.8605 45.7242 61.0158 45.5761C61.4311 45.1736 62.0551 44.9723 62.8879 44.9723C63.2154 44.9694 63.5421 45.0054 63.8614 45.0796C64.2463 45.1798 64.6226 45.3117 64.9864 45.4741C65.0765 45.5167 65.1714 45.5481 65.2689 45.5675C65.3426 45.5596 65.4116 45.5267 65.4646 45.4741L65.5906 45.5156Z" fill="#838A92"/>
<path d="M116.241 45.5156L115.591 46.8184L115.479 46.7526C115.48 46.7313 115.48 46.7099 115.479 46.6886C115.479 46.5969 115.402 46.4983 115.247 46.3927C114.757 46.0518 114.174 45.8758 113.581 45.8893C113.328 45.8847 113.076 45.9203 112.834 45.9948C112.689 46.0413 112.558 46.1253 112.454 46.2388C112.364 46.3314 112.312 46.4549 112.308 46.5848C112.308 46.7941 112.432 46.9308 112.679 47.0121C112.95 47.0715 113.224 47.1119 113.501 47.1332L114.127 47.1972C114.433 47.2285 114.735 47.2864 115.031 47.3703C115.249 47.4351 115.455 47.5356 115.642 47.6678C115.826 47.8012 115.973 47.9798 116.071 48.1869C116.176 48.4018 116.23 48.6388 116.229 48.8789C116.232 49.259 116.1 49.6274 115.858 49.917C115.581 50.2251 115.217 50.4389 114.816 50.5294C114.449 50.6306 114.069 50.6807 113.688 50.6782C112.947 50.6753 112.216 50.4977 111.554 50.1592C111.47 50.1123 111.38 50.0768 111.287 50.0536C111.223 50.0659 111.164 50.0966 111.116 50.1419L111.001 50.0813L111.591 48.7232L111.707 48.7803V48.8322C111.708 48.8992 111.724 48.9651 111.753 49.025C111.783 49.0849 111.825 49.1373 111.877 49.1782C112.114 49.3679 112.387 49.5057 112.679 49.5831C113.009 49.6924 113.353 49.7507 113.7 49.7561C114.011 49.7645 114.321 49.7018 114.605 49.5727C114.736 49.5122 114.85 49.4194 114.937 49.3028C115.014 49.2041 115.058 49.0827 115.062 48.9568C115.062 48.8679 115.034 48.7813 114.981 48.7103C114.929 48.6394 114.855 48.5879 114.77 48.564C114.502 48.4845 114.227 48.434 113.948 48.4135L113.334 48.3495C113.041 48.3238 112.748 48.2823 112.459 48.2249C112.282 48.1836 112.111 48.1203 111.949 48.0363C111.709 47.9167 111.51 47.7261 111.379 47.4896C111.251 47.2596 111.187 46.9992 111.191 46.7353C111.185 46.5189 111.224 46.3037 111.306 46.1039C111.388 45.9041 111.511 45.7242 111.666 45.5761C112.081 45.1736 112.705 44.9723 113.538 44.9723C113.866 44.9694 114.193 45.0054 114.512 45.0796C114.897 45.1798 115.273 45.3117 115.637 45.4741C115.727 45.5167 115.822 45.5481 115.919 45.5675C115.993 45.5596 116.062 45.5267 116.115 45.4741L116.241 45.5156Z" fill="#838A92"/>
<path d="M190.241 45.5156L189.591 46.8184L189.479 46.7526C189.48 46.7313 189.48 46.7099 189.479 46.6886C189.479 46.5969 189.402 46.4983 189.247 46.3927C188.757 46.0518 188.174 45.8758 187.581 45.8893C187.328 45.8847 187.076 45.9203 186.834 45.9948C186.689 46.0413 186.558 46.1253 186.454 46.2388C186.364 46.3314 186.312 46.4549 186.308 46.5848C186.308 46.7941 186.432 46.9308 186.679 47.0121C186.95 47.0715 187.224 47.1119 187.501 47.1332L188.127 47.1972C188.433 47.2285 188.735 47.2864 189.031 47.3703C189.249 47.4351 189.455 47.5356 189.642 47.6678C189.826 47.8012 189.973 47.9798 190.071 48.1869C190.176 48.4018 190.23 48.6388 190.229 48.8789C190.232 49.259 190.1 49.6274 189.858 49.917C189.581 50.2251 189.217 50.4389 188.816 50.5294C188.449 50.6306 188.069 50.6807 187.688 50.6782C186.947 50.6753 186.216 50.4977 185.554 50.1592C185.47 50.1123 185.38 50.0768 185.287 50.0536C185.223 50.0659 185.164 50.0966 185.116 50.1419L185.001 50.0813L185.591 48.7232L185.707 48.7803V48.8322C185.708 48.8992 185.724 48.9651 185.753 49.025C185.783 49.0849 185.825 49.1373 185.877 49.1782C186.114 49.3679 186.387 49.5057 186.679 49.5831C187.009 49.6924 187.353 49.7507 187.7 49.7561C188.011 49.7645 188.321 49.7018 188.605 49.5727C188.736 49.5122 188.85 49.4194 188.937 49.3028C189.014 49.2041 189.058 49.0827 189.062 48.9568C189.062 48.8679 189.034 48.7813 188.981 48.7103C188.929 48.6394 188.855 48.5879 188.77 48.564C188.502 48.4845 188.227 48.434 187.948 48.4135L187.334 48.3495C187.041 48.3238 186.748 48.2823 186.459 48.2249C186.282 48.1836 186.111 48.1203 185.949 48.0363C185.709 47.9167 185.51 47.7261 185.379 47.4896C185.251 47.2596 185.187 46.9992 185.191 46.7353C185.185 46.5189 185.224 46.3037 185.306 46.1039C185.388 45.9041 185.511 45.7242 185.666 45.5761C186.081 45.1736 186.705 44.9723 187.538 44.9723C187.866 44.9694 188.193 45.0054 188.512 45.0796C188.897 45.1798 189.273 45.3117 189.637 45.4741C189.727 45.5167 189.822 45.5481 189.919 45.5675C189.993 45.5596 190.062 45.5267 190.115 45.4741L190.241 45.5156Z" fill="#838A92"/>
<path d="M74.3871 49.6729H77.733C77.8002 49.6778 77.8668 49.6574 77.9202 49.6158C77.9725 49.5593 78.0084 49.4893 78.0241 49.4134H78.1602V50.8442H78.0326C78.0169 50.7683 77.981 50.6983 77.9288 50.6418C77.8753 50.6001 77.8087 50.5798 77.7415 50.5847H72.9421V50.4549C73.0168 50.439 73.0857 50.4025 73.1413 50.3494C73.1822 50.295 73.2022 50.2273 73.1974 50.1591V45.4757C73.2024 45.4074 73.1824 45.3396 73.1413 45.2854C73.0861 45.2317 73.017 45.195 72.9421 45.1798V45.0483H74.6441V45.1781C74.5682 45.1909 74.4981 45.2272 74.4432 45.2819C74.4026 45.337 74.3833 45.4053 74.3888 45.4739L74.3871 49.6729Z" fill="#838A92"/>
<path d="M88.2508 44.9531C89.2005 44.9531 89.9533 45.2138 90.5093 45.7351C90.9812 46.1902 91.2844 46.7968 91.3678 47.4526C91.4512 48.1084 91.3097 48.7733 90.9671 49.3355C90.4168 50.2328 89.5142 50.6815 88.2593 50.6815C87.3176 50.6815 86.5687 50.4208 86.0127 49.8995C85.7141 49.6223 85.4813 49.2798 85.332 48.8978C85.167 48.4765 85.1005 48.022 85.1377 47.5702C85.1749 47.1184 85.3148 46.6815 85.5464 46.294C86.0831 45.4174 86.9845 44.9704 88.2508 44.9531ZM88.2508 45.8891C87.776 45.8732 87.313 46.0415 86.9556 46.3597C86.7614 46.5473 86.6068 46.7732 86.5011 47.0234C86.3955 47.2737 86.341 47.5432 86.341 47.8156C86.341 48.0879 86.3955 48.3574 86.5011 48.6077C86.6068 48.858 86.7614 49.0838 86.9556 49.2715C87.3235 49.5758 87.7833 49.7419 88.2576 49.7419C88.7319 49.7419 89.1917 49.5758 89.5596 49.2715C89.7667 49.0805 89.928 48.8437 90.031 48.5794C90.1257 48.342 90.1743 48.0882 90.174 47.832C90.1874 47.5544 90.1391 47.2772 90.0328 47.0212C89.9264 46.7651 89.7647 46.5366 89.5596 46.3528C89.1945 46.0418 88.7303 45.8769 88.2542 45.8891H88.2508Z" fill="#838A92"/>
<path d="M101.647 45.9619V50.1591C101.642 50.2274 101.662 50.2951 101.703 50.3494C101.759 50.4025 101.828 50.439 101.902 50.455V50.5847H100.2V50.455C100.276 50.4394 100.345 50.4029 100.401 50.3494C100.442 50.2948 100.461 50.2272 100.456 50.1591V45.9619H98.7656C98.6998 45.9577 98.6347 45.9773 98.5818 46.0172C98.5292 46.0728 98.4932 46.1424 98.478 46.2179H98.3503V44.7854H98.478C98.4949 44.8627 98.5313 44.9342 98.5835 44.993C98.635 45.0346 98.7 45.055 98.7656 45.0501H103.332C103.399 45.0551 103.466 45.0348 103.519 44.993C103.573 44.9353 103.609 44.8633 103.623 44.7854H103.751V46.2179H103.623C103.608 46.1421 103.572 46.0724 103.519 46.0172C103.465 45.9768 103.399 45.9572 103.332 45.9619H101.647Z" fill="#838A92"/>
<path d="M137.246 48.5934H135.903C135.836 48.588 135.77 48.6084 135.717 48.6505C135.665 48.7067 135.63 48.7769 135.615 48.8529H135.488V47.564H135.615C135.629 47.6408 135.664 47.7119 135.717 47.7681C135.771 47.8089 135.837 47.8285 135.903 47.8235H138.487V47.9532C138.412 47.9696 138.342 48.006 138.286 48.0588C138.244 48.1126 138.223 48.1805 138.228 48.2491V49.384C138.223 49.4523 138.243 49.5201 138.284 49.5743C138.34 49.6284 138.41 49.665 138.487 49.6799V49.782C137.453 50.3817 136.45 50.6816 135.479 50.6816C134.6 50.6816 133.882 50.4694 133.326 50.0449C132.627 49.5109 132.277 48.7675 132.276 47.8148C132.261 47.4127 132.337 47.0125 132.499 46.6454C132.661 46.2783 132.905 45.9543 133.211 45.6989C133.799 45.2006 134.583 44.9521 135.563 44.9532C135.858 44.9511 136.153 44.9801 136.442 45.0397C136.763 45.1118 137.077 45.2102 137.382 45.3339C137.504 45.3911 137.635 45.4279 137.768 45.4429C137.842 45.4353 137.911 45.4024 137.964 45.3494L138.076 45.41L137.438 46.737L137.322 46.6764C137.324 46.61 137.312 46.5441 137.287 46.4826C137.247 46.4263 137.198 46.3777 137.142 46.3391C136.925 46.1896 136.684 46.0817 136.429 46.0207C136.139 45.9363 135.84 45.892 135.539 45.8892C135.024 45.8707 134.521 46.0436 134.123 46.3754C133.916 46.5538 133.751 46.7775 133.642 47.0299C133.532 47.2822 133.48 47.5565 133.49 47.8321C133.481 48.1001 133.532 48.3667 133.639 48.6117C133.746 48.8568 133.906 49.0741 134.107 49.2474C134.528 49.5918 135.059 49.7678 135.598 49.7422C135.898 49.7417 136.197 49.7063 136.488 49.6366C136.753 49.577 137.008 49.4798 137.246 49.3477V48.5934Z" fill="#838A92"/>
<path d="M149.937 49.1729H147.464L147.097 49.9515C147.054 50.0305 147.029 50.1178 147.022 50.2075C147.022 50.3269 147.11 50.4082 147.289 50.4549V50.5847H145.485V50.4549C145.576 50.442 145.66 50.4023 145.728 50.3407C145.81 50.2477 145.875 50.1412 145.921 50.0258L147.922 45.7715C147.977 45.6719 148.01 45.5616 148.019 45.448C148.019 45.3234 147.941 45.2335 147.788 45.1798V45.0483H149.718V45.1781C149.561 45.2231 149.483 45.3027 149.483 45.4169C149.487 45.5109 149.513 45.6026 149.558 45.685L151.632 49.9497C151.691 50.0849 151.769 50.2103 151.864 50.3217C151.938 50.392 152.031 50.4378 152.131 50.4532V50.5847H150.128V50.4549C150.298 50.4255 150.392 50.3407 150.392 50.204C150.382 50.1152 150.355 50.0293 150.312 49.9515L149.937 49.1729ZM149.597 48.4151L148.715 46.4445L147.822 48.4151H149.597Z" fill="#838A92"/>
<path d="M162.472 50.5085L160.474 46.7611V50.1591C160.47 50.227 160.489 50.2944 160.529 50.3494C160.585 50.4028 160.654 50.4394 160.729 50.4549V50.5847H159.13V50.4549C159.204 50.439 159.273 50.4025 159.329 50.3494C159.37 50.295 159.39 50.2273 159.385 50.1591V45.4722C159.389 45.405 159.369 45.3386 159.329 45.2854C159.274 45.2317 159.205 45.195 159.13 45.1798V45.0483H161.228V45.1781C161.175 45.1849 161.126 45.2115 161.091 45.2528C161.057 45.294 161.038 45.3469 161.039 45.4013C161.043 45.4673 161.062 45.5314 161.095 45.5881L162.579 48.3684L164.084 45.6366C164.136 45.5543 164.169 45.4616 164.183 45.3649C164.183 45.2496 164.116 45.1873 163.984 45.1781V45.0483H166.046V45.1781C165.971 45.1933 165.902 45.2299 165.847 45.2836C165.807 45.3368 165.787 45.4033 165.791 45.4705V50.1573C165.786 50.2256 165.806 50.2933 165.847 50.3476C165.903 50.4007 165.972 50.4373 166.046 50.4532V50.5847H164.344V50.4549C164.419 50.4409 164.487 50.4048 164.542 50.3511C164.584 50.2967 164.605 50.2282 164.6 50.1591V46.7611L162.472 50.5085Z" fill="#838A92"/>
<path d="M175.002 48.1626V49.6799H178.503C178.569 49.6844 178.635 49.664 178.687 49.6228C178.739 49.5663 178.775 49.4963 178.791 49.4204H178.918V50.8512H178.791C178.775 50.7753 178.739 50.7052 178.687 50.6487C178.635 50.6075 178.569 50.5872 178.503 50.5917H173.557V50.4619C173.632 50.446 173.701 50.4095 173.756 50.3564C173.797 50.302 173.817 50.2343 173.813 50.166V45.4757C173.818 45.4074 173.798 45.3397 173.756 45.2854C173.701 45.2317 173.632 45.1951 173.557 45.1799V45.0484H178.408C178.474 45.0532 178.54 45.0322 178.592 44.9896C178.644 44.9317 178.68 44.8605 178.696 44.7837H178.823V46.2162H178.696C178.68 46.1415 178.644 46.0726 178.592 46.0173C178.539 45.976 178.474 45.9557 178.408 45.9602H175.004V47.275H177.217C177.283 47.2795 177.348 47.2592 177.4 47.2179C177.453 47.1614 177.488 47.0914 177.504 47.0155H177.632V48.4134H177.504C177.488 48.3384 177.452 48.2691 177.4 48.2128C177.349 48.1701 177.283 48.1491 177.217 48.1539L175.002 48.1626Z" fill="#838A92"/>
<path d="M7 34.8252V49.3203C7 50.6046 8.38206 51.422 9.48442 50.7714L17.168 46.2511L9.9122 33.1572L7 34.8252Z" fill="#838A92"/>
<path d="M16.1808 25.1673L9.48442 21.2308C8.38206 20.5803 7 21.3809 7 22.682V30.4049L16.1808 25.1673Z" fill="#838A92"/>
<path d="M32.1727 34.5581L19.9974 27.4189L13.2516 31.2554L20.491 44.316L32.1727 37.4604C33.275 36.8099 33.275 35.1919 32.1727 34.5581Z" fill="#838A92"/>
</svg>
