<svg width="208" height="64" viewBox="0 0 208 64" fill="none" xmlns="http://www.w3.org/2000/svg">
<path d="M54.3822 48.3017V50.3113C54.377 50.381 54.3976 50.4501 54.4399 50.5048C54.4938 50.5592 54.5624 50.5957 54.6368 50.6093V50.7401H52.9392V50.6093C53.0139 50.594 53.0828 50.5571 53.1378 50.503C53.1788 50.4484 53.1988 50.3801 53.1938 50.3113V45.5931C53.1977 45.5247 53.1772 45.4571 53.1361 45.4031C53.0807 45.3496 53.012 45.3128 52.9375 45.2968V45.1661H57.7436C57.8095 45.1706 57.8747 45.1501 57.9269 45.1085C57.9799 45.0509 58.0159 44.979 58.0305 44.9011H58.1578V46.3426H58.0305C58.016 46.2662 57.9799 46.1959 57.9269 46.1404C57.8741 46.1001 57.8092 46.0804 57.7436 46.0846H54.3822V47.4162H56.5891C56.6564 47.4213 56.7231 47.4001 56.7759 47.357C56.8257 47.2969 56.8586 47.224 56.871 47.1461H56.9983V48.5561H56.871C56.855 48.4808 56.8192 48.4115 56.7674 48.3557C56.7141 48.3137 56.6477 48.2933 56.5807 48.2982L54.3822 48.3017Z" fill="#838A92"/>
<path d="M65.6416 50.3096V45.5879C65.6457 45.5205 65.6264 45.4538 65.5872 45.3996C65.5314 45.3458 65.462 45.309 65.387 45.2933V45.1626H67.0842V45.2933C67.0091 45.3063 66.9397 45.3428 66.8856 45.3979C66.8453 45.4522 66.8255 45.5197 66.8296 45.5879V50.3096C66.8244 50.3792 66.8451 50.4483 66.8873 50.5031C66.9412 50.5575 67.0098 50.5939 67.0842 50.6076V50.7384H65.387V50.6076C65.4623 50.5927 65.5318 50.5558 65.5872 50.5013C65.6269 50.446 65.6462 50.3781 65.6416 50.3096Z" fill="#838A92"/>
<path d="M79.6319 45.6332L78.9834 46.9439L78.8713 46.8777C78.8713 46.8515 78.8713 46.8289 78.8713 46.8132C78.8713 46.7208 78.7949 46.6214 78.6404 46.5151C78.1518 46.1717 77.5705 45.9943 76.9784 46.0079C76.7261 46.0033 76.4747 46.0392 76.2332 46.1142C76.0883 46.161 75.9579 46.2457 75.8546 46.36C75.764 46.4525 75.7117 46.5774 75.7086 46.7086C75.7086 46.9177 75.8325 47.0572 76.0787 47.1374C76.3488 47.1981 76.6228 47.2388 76.8986 47.2594L77.5234 47.3256C77.8284 47.3555 78.1301 47.4139 78.4248 47.4999C78.6427 47.5638 78.8487 47.6645 79.0343 47.7979C79.2176 47.9323 79.3648 48.1122 79.4621 48.3208C79.5669 48.5374 79.6209 48.7762 79.62 49.018C79.6229 49.4009 79.4915 49.7721 79.2499 50.0638C78.9736 50.3742 78.6108 50.5896 78.2109 50.6808C77.8442 50.7836 77.4655 50.8341 77.0854 50.8307C76.3459 50.828 75.6171 50.649 74.9565 50.3078C74.8726 50.2606 74.783 50.2248 74.69 50.2015C74.6263 50.2139 74.5674 50.2447 74.5202 50.2904L74.4048 50.2294L74.9939 48.8612L75.1093 48.9187V48.971C75.1112 49.037 75.1275 49.1018 75.1568 49.1606C75.1862 49.2194 75.228 49.2707 75.2791 49.3108C75.5146 49.5033 75.7871 49.6423 76.0787 49.7187C76.4078 49.8288 76.7512 49.8876 77.0973 49.893C77.408 49.9022 77.7168 49.839 78.0004 49.7082C78.1308 49.6469 78.2445 49.5535 78.3315 49.4363C78.4087 49.3371 78.4522 49.2147 78.4554 49.0877C78.456 48.9978 78.4277 48.9101 78.3749 48.8383C78.3222 48.7665 78.2478 48.7145 78.1634 48.6903C77.8968 48.6099 77.6224 48.5597 77.3451 48.5405L76.7323 48.4742C76.3214 48.4306 76.0294 48.3888 75.8597 48.3505C75.6832 48.3082 75.5122 48.2444 75.3504 48.1605C75.1113 48.0388 74.9132 47.8463 74.7817 47.608C74.6546 47.3763 74.5901 47.1139 74.5949 46.848C74.589 46.6301 74.6281 46.4133 74.7098 46.212C74.7914 46.0107 74.9137 45.8295 75.0686 45.6802C75.4828 45.2735 76.1053 45.0708 76.936 45.0719C77.2627 45.069 77.5886 45.1053 77.907 45.18C78.2956 45.2797 78.6754 45.412 79.0428 45.5757C79.1327 45.6187 79.2273 45.6503 79.3246 45.6698C79.3981 45.6618 79.4669 45.6286 79.5198 45.5757L79.6319 45.6332Z" fill="#838A92"/>
<path d="M91.5359 48.3034H88.4054V50.3131C88.4007 50.3816 88.4213 50.4494 88.4631 50.5031C88.517 50.5575 88.5856 50.5939 88.6601 50.6076V50.7384H86.9624V50.6076C87.0371 50.5923 87.106 50.5554 87.161 50.5013C87.2015 50.4477 87.2214 50.3807 87.2171 50.3131V45.5879C87.2214 45.5202 87.2015 45.4532 87.161 45.3996C87.1056 45.3461 87.0369 45.3094 86.9624 45.2933V45.1626H88.6601V45.2933C88.5844 45.3062 88.5145 45.3427 88.4597 45.3979C88.42 45.4525 88.4007 45.5199 88.4054 45.5879V47.3849H91.5359V45.5879C91.5401 45.5197 91.5202 45.4522 91.4799 45.3979C91.4255 45.3432 91.3562 45.3067 91.2812 45.2933V45.1626H92.9789V45.2933C92.9044 45.3094 92.8357 45.3461 92.7803 45.3996C92.7398 45.4532 92.7198 45.5202 92.7242 45.5879V50.3131C92.7198 50.3807 92.7398 50.4477 92.7803 50.5013C92.8353 50.5554 92.9042 50.5923 92.9789 50.6076V50.7384H91.2812V50.6076C91.3555 50.5935 91.424 50.5571 91.4782 50.5031C91.5199 50.4494 91.5405 50.3816 91.5359 50.3131V48.3034Z" fill="#838A92"/>
<path d="M100.73 50.3096V45.5878C100.733 45.5203 100.711 45.454 100.67 45.4014C100.615 45.3479 100.546 45.3111 100.472 45.295V45.1643H102.169V45.295C102.094 45.3084 102.025 45.3449 101.97 45.3996C101.93 45.454 101.91 45.5214 101.914 45.5896V50.3113C101.91 50.3809 101.93 50.4497 101.972 50.5048C102.026 50.5585 102.095 50.5948 102.169 50.6093V50.7401H100.472V50.6093C100.546 50.594 100.615 50.5571 100.67 50.503C100.713 50.4484 100.734 50.3794 100.73 50.3096Z" fill="#838A92"/>
<path d="M111.005 46.9196V50.3097C110.999 50.3782 111.019 50.4465 111.059 50.5014C111.115 50.5559 111.184 50.5928 111.26 50.6077V50.7384H109.667V50.6077C109.742 50.5924 109.811 50.5555 109.866 50.5014C109.907 50.4467 109.927 50.3785 109.922 50.3097V45.588C109.926 45.5203 109.906 45.4533 109.866 45.3997C109.81 45.3462 109.742 45.3094 109.667 45.2934V45.1627H111.512V45.2934C111.399 45.323 111.343 45.3858 111.343 45.4816C111.352 45.5657 111.392 45.6431 111.455 45.6978L114.451 48.8961V45.5845C114.455 45.5168 114.436 45.4498 114.395 45.3962C114.34 45.3427 114.271 45.3059 114.196 45.2899V45.1592H115.792V45.2899C115.717 45.3051 115.649 45.342 115.594 45.3962C115.553 45.4498 115.533 45.5168 115.538 45.5845V50.3062C115.533 50.375 115.553 50.4432 115.594 50.4979C115.648 50.5527 115.717 50.5898 115.792 50.6042V50.7349H114.081V50.6042C114.193 50.5798 114.251 50.5223 114.251 50.4299C114.251 50.3759 114.186 50.2818 114.056 50.1441L111.005 46.9196Z" fill="#838A92"/>
<path d="M128.115 48.7322H126.774C126.707 48.7267 126.641 48.7473 126.589 48.7897C126.538 48.8473 126.503 48.9176 126.487 48.9936H126.359V47.6951H126.487C126.502 47.7724 126.537 47.844 126.589 47.9025C126.642 47.943 126.708 47.9622 126.774 47.9566H129.359V48.0873C129.284 48.1035 129.214 48.1402 129.157 48.1936C129.116 48.2482 129.095 48.3163 129.099 48.3853V49.5287C129.095 49.5981 129.114 49.6668 129.155 49.7222C129.212 49.7763 129.283 49.8131 129.359 49.8285V49.9331C128.327 50.5385 127.326 50.8406 126.358 50.8394C125.481 50.8394 124.765 50.6262 124.21 50.1998C123.512 49.6595 123.163 48.91 123.163 47.9513C123.147 47.5455 123.223 47.1415 123.385 46.771C123.547 46.4005 123.791 46.0737 124.096 45.8162C124.685 45.3154 125.468 45.065 126.444 45.065C126.738 45.0637 127.032 45.0929 127.32 45.1521C127.64 45.2248 127.953 45.3239 128.257 45.4484C128.38 45.5062 128.51 45.5433 128.644 45.5582C128.718 45.5495 128.786 45.5164 128.84 45.4641L128.95 45.5269L128.313 46.862L128.198 46.801C128.201 46.7345 128.189 46.6682 128.162 46.6075C128.124 46.5497 128.076 46.5 128.02 46.4611C127.803 46.3106 127.561 46.2019 127.307 46.1404C127.018 46.0563 126.72 46.0117 126.42 46.0079C125.907 45.989 125.404 46.1632 125.006 46.4977C124.8 46.6774 124.636 46.9029 124.526 47.157C124.417 47.4112 124.365 47.6876 124.375 47.9653C124.366 48.2353 124.417 48.5038 124.524 48.7507C124.63 48.9976 124.79 49.2165 124.991 49.391C125.411 49.7385 125.941 49.9158 126.48 49.8895C126.778 49.889 127.076 49.8533 127.366 49.7832C127.631 49.7231 127.885 49.6251 128.123 49.4921L128.115 48.7322Z" fill="#838A92"/>
<path d="M150.181 48.7324H148.84C148.774 48.7269 148.707 48.7475 148.655 48.7899C148.604 48.8475 148.569 48.9178 148.553 48.9938H148.426V47.6953H148.553C148.568 47.7726 148.604 47.8442 148.655 47.9027C148.708 47.9432 148.774 47.9624 148.84 47.9567H151.417V48.0875C151.342 48.104 151.273 48.1407 151.217 48.1938C151.175 48.248 151.154 48.3164 151.159 48.3855V49.5289C151.154 49.5982 151.174 49.667 151.215 49.7224C151.272 49.7761 151.342 49.8129 151.417 49.8287V49.9333C150.387 50.5387 149.387 50.8408 148.417 50.8396C147.54 50.8396 146.824 50.6264 146.27 50.1999C145.572 49.6596 145.222 48.9102 145.222 47.9515C145.207 47.5464 145.283 47.1432 145.445 46.7733C145.606 46.4035 145.849 46.0772 146.154 45.8199C146.744 45.3191 147.527 45.0686 148.502 45.0686C148.796 45.0674 149.09 45.0966 149.378 45.1558C149.698 45.2284 150.011 45.3275 150.315 45.4521C150.438 45.5099 150.568 45.5469 150.702 45.5619C150.775 45.5538 150.844 45.5206 150.896 45.4678L151.008 45.5305L150.371 46.8656L150.256 46.8046C150.259 46.7382 150.247 46.6718 150.22 46.6112C150.182 46.5534 150.134 46.5036 150.078 46.4648C149.861 46.3146 149.619 46.2059 149.365 46.1441C149.076 46.0598 148.777 46.0152 148.477 46.0116C147.964 45.993 147.461 46.1671 147.064 46.5014C146.858 46.6811 146.694 46.9065 146.585 47.1607C146.475 47.4149 146.423 47.6912 146.433 47.9689C146.424 48.2389 146.475 48.5074 146.582 48.7544C146.688 49.0013 146.848 49.2202 147.049 49.3947C147.469 49.7421 147.999 49.9195 148.538 49.8932C148.836 49.8926 149.134 49.857 149.424 49.7869C149.689 49.7268 149.943 49.6288 150.181 49.4958V48.7324Z" fill="#838A92"/>
<path d="M162.839 49.3178H160.372L160.005 50.1022C159.963 50.1811 159.937 50.2685 159.93 50.3584C159.93 50.4787 160.019 50.5623 160.197 50.6076V50.7384H158.397V50.6076C158.487 50.5944 158.571 50.5551 158.64 50.4943C158.721 50.3996 158.786 50.2918 158.832 50.1754L160.829 45.8894C160.883 45.7891 160.916 45.678 160.925 45.5635C160.925 45.438 160.847 45.3474 160.694 45.2933V45.1626H162.62V45.2933C162.463 45.341 162.385 45.4211 162.385 45.5338C162.39 45.6286 162.415 45.7211 162.46 45.804L164.529 50.1074C164.588 50.2429 164.666 50.3686 164.76 50.4804C164.834 50.5512 164.927 50.5974 165.027 50.6129V50.7436H163.029V50.6129C163.198 50.5832 163.292 50.4996 163.292 50.3601C163.282 50.2712 163.255 50.1852 163.212 50.1074L162.839 49.3178ZM162.499 48.5527L161.615 46.5674L160.723 48.5527H162.499Z" fill="#838A92"/>
<path d="M175.351 50.6617L173.349 46.8864V50.3096C173.344 50.3784 173.364 50.4466 173.405 50.5013C173.46 50.5562 173.529 50.5932 173.604 50.6076V50.7384H172.008V50.6076C172.083 50.5923 172.152 50.5554 172.207 50.5013C172.248 50.4466 172.268 50.3784 172.263 50.3096V45.5879C172.267 45.5202 172.247 45.4532 172.207 45.3996C172.151 45.3461 172.083 45.3094 172.008 45.2933V45.1626H174.101V45.2933C174.049 45.3002 174 45.3271 173.966 45.3687C173.931 45.4103 173.913 45.4636 173.915 45.5182C173.917 45.5845 173.936 45.6492 173.969 45.7064L175.449 48.5091L176.95 45.7552C177.002 45.6724 177.035 45.579 177.049 45.4816C177.049 45.3654 176.982 45.3026 176.85 45.2933V45.1626H178.904V45.2933C178.829 45.309 178.76 45.3458 178.704 45.3996C178.665 45.4538 178.645 45.5205 178.649 45.5879V50.3096C178.645 50.3781 178.664 50.446 178.704 50.5013C178.759 50.5558 178.829 50.5927 178.904 50.6076V50.7384H177.206V50.6076C177.281 50.5939 177.349 50.5575 177.403 50.5031C177.446 50.4483 177.466 50.3792 177.461 50.3096V46.8864L175.351 50.6617Z" fill="#838A92"/>
<path d="M187.842 48.2913V49.8199H191.334C191.4 49.8244 191.465 49.8039 191.517 49.7623C191.57 49.7058 191.606 49.6351 191.621 49.5584H191.748V50.9998H191.621C191.606 50.9231 191.57 50.8524 191.517 50.7959C191.465 50.7544 191.4 50.7339 191.334 50.7384H186.4V50.6077C186.475 50.5928 186.544 50.5559 186.599 50.5014C186.64 50.4467 186.66 50.3784 186.655 50.3096V45.5914C186.66 45.5226 186.64 45.4544 186.599 45.3997C186.544 45.3458 186.475 45.309 186.4 45.2934V45.1626H191.239C191.305 45.1675 191.37 45.1463 191.422 45.1034C191.474 45.0455 191.509 44.9745 191.525 44.8977H191.653V46.3391H191.525C191.51 46.2638 191.474 46.1945 191.422 46.1387C191.37 46.0971 191.304 46.0767 191.239 46.0812H187.843V47.4058H190.05C190.116 47.4103 190.181 47.3899 190.234 47.3483C190.286 47.2914 190.321 47.2208 190.337 47.1444H190.464V48.5527H190.337C190.32 48.4772 190.285 48.4075 190.234 48.3505C190.182 48.3083 190.116 48.2873 190.05 48.2913H187.842Z" fill="#838A92"/>
<path d="M54.6514 38.9177C54.6514 39.336 54.906 39.5452 55.3983 39.5452V40.1727H50.1696V39.5452C50.3247 39.5464 50.4752 39.4908 50.594 39.3883C50.6573 39.3291 50.7069 39.2561 50.7392 39.1747C50.7715 39.0933 50.7857 39.0055 50.7807 38.9177V25.0437H45.1785C44.9682 25.0418 44.7619 25.1023 44.5843 25.218C44.3976 25.34 44.2957 25.5492 44.2957 25.8803H43.6846V21H44.2957C44.2957 21.3312 44.3976 21.5403 44.5843 21.6623C44.7619 21.778 44.9682 21.8385 45.1785 21.8366H60.2536C60.4639 21.8385 60.6702 21.778 60.8478 21.6623C61.0345 21.5403 61.1364 21.3312 61.1364 21H61.7476V25.8803H61.1364C61.1364 25.5492 61.0345 25.34 60.8478 25.218C60.6702 25.1023 60.4639 25.0418 60.2536 25.0437H54.6514V38.9177Z" fill="#444444"/>
<path d="M80.1845 27.7978C80.1882 27.7024 80.1684 27.6077 80.1268 27.5223C80.0853 27.437 80.0233 27.3638 79.9468 27.3097C79.6816 27.1838 79.3893 27.1298 79.098 27.1529H69.7439V30.8305H75.3971C75.7045 30.845 76.0113 30.7915 76.2968 30.6737C76.5006 30.5691 76.6194 30.2902 76.6194 29.837H77.1457V34.4559H76.6024C76.6024 34.0027 76.5006 33.7064 76.2799 33.5844C76.0008 33.4427 75.6911 33.3767 75.3801 33.3927H69.7269V37.4887H79.3696C79.6229 37.4988 79.8727 37.4255 80.0826 37.2795C80.1694 37.217 80.2397 37.1333 80.2872 37.0359C80.3346 36.9386 80.3576 36.8306 80.3542 36.7218H80.8805V40.7829H80.3542C80.3542 40.4866 80.2693 40.3123 80.0826 40.2774C79.8469 40.2387 79.6083 40.2212 79.3696 40.2251H65.9242V39.6848C66.0555 39.6836 66.182 39.6342 66.2807 39.5454C66.3336 39.4944 66.3748 39.432 66.4012 39.3627C66.4277 39.2933 66.4387 39.2188 66.4335 39.1445V25.6539C66.4387 25.5796 66.4277 25.5051 66.4012 25.4357C66.3748 25.3664 66.3336 25.3039 66.2807 25.253C66.182 25.1642 66.0555 25.1148 65.9242 25.1136V24.5733H79.081C79.4884 24.5733 79.777 24.5035 79.9298 24.3815C80.0099 24.3227 80.0739 24.2437 80.1155 24.1521C80.1571 24.0605 80.175 23.9594 80.1675 23.8586H80.6938V27.7629H80.1845V27.7978Z" fill="#444444"/>
<path d="M100.811 38.0464C100.76 38.0503 100.708 38.0443 100.658 38.029C100.609 38.0146 100.557 38.0087 100.506 38.0115C100.387 38.0115 100.115 38.1335 99.6908 38.3601C99.2664 38.5867 98.7062 38.8656 98.0441 39.1619C97.3139 39.4824 96.5585 39.739 95.7862 39.9288C94.9192 40.146 94.0303 40.2572 93.1379 40.26C91.9569 40.2636 90.7808 40.1054 89.6407 39.7894C88.5731 39.5019 87.57 39.0047 86.6868 38.3253C85.8376 37.6654 85.1417 36.82 84.6496 35.8502C84.1349 34.7717 83.8788 33.5825 83.9026 32.3817C83.8807 31.1867 84.1368 30.0036 84.6496 28.9306C85.1345 27.9463 85.8312 27.088 86.6868 26.4208C87.5717 25.7353 88.571 25.2214 89.6356 24.9044C90.7722 24.5671 91.9496 24.397 93.1328 24.3989C94.0267 24.3936 94.9191 24.4753 95.7981 24.6429C96.596 24.7998 97.292 24.9741 97.8862 25.1484C98.3667 25.2832 98.8375 25.4521 99.2952 25.6539C99.4945 25.7604 99.7053 25.8423 99.9234 25.8979C99.9711 25.8963 100.018 25.8828 100.059 25.8585C100.101 25.8342 100.136 25.7999 100.161 25.7584C100.216 25.68 100.267 25.5986 100.314 25.5144L100.738 25.863L98.4973 29.4535L98.2087 29.2444C98.2115 29.1857 98.2058 29.127 98.1918 29.0701C98.1789 28.9994 98.1619 28.9295 98.1408 28.8609C98.1069 28.6518 97.9032 28.4252 97.5636 28.1986C97.1599 27.9411 96.7265 27.7362 96.2734 27.5886C95.7465 27.4045 95.2076 27.2588 94.6606 27.1528C94.1418 27.0382 93.6126 26.9798 93.0818 26.9785C92.2942 26.9782 91.5107 27.0956 90.7561 27.3271C90.0497 27.5403 89.3918 27.8958 88.8207 28.3729C88.2732 28.8279 87.8273 29.3986 87.5135 30.0462C87.178 30.7511 87.0094 31.5275 87.0212 32.312C87.0094 33.0966 87.178 33.8729 87.5135 34.5779C87.8273 35.2254 88.2732 35.7961 88.8207 36.2511C89.396 36.7217 90.0526 37.0765 90.7561 37.2969C91.5089 37.5369 92.2936 37.6545 93.0818 37.6455C93.7331 37.6438 94.3822 37.5678 95.0172 37.4189C95.647 37.282 96.2656 37.0955 96.8676 36.8612C97.3614 36.6671 97.8291 36.4094 98.2597 36.0943C98.6331 35.8154 98.8199 35.5365 98.8199 35.2751C98.8238 35.2117 98.8153 35.1483 98.7949 35.0884C98.7745 35.0285 98.7426 34.9735 98.7011 34.9265L99.1085 34.6825L101.01 37.8198L100.811 38.0464Z" fill="#444444"/>
<path d="M118.465 25.6536C118.465 25.305 118.261 25.1133 117.836 25.1133V24.573H122.267V25.1133C122.136 25.1145 122.01 25.164 121.911 25.2528C121.858 25.3037 121.817 25.3661 121.79 25.4355C121.764 25.5048 121.753 25.5794 121.758 25.6536V39.1094C121.753 39.1837 121.764 39.2582 121.79 39.3275C121.817 39.3969 121.858 39.4593 121.911 39.5103C122.01 39.599 122.136 39.6485 122.267 39.6497V40.19H117.814V39.6497C118.239 39.6497 118.443 39.4754 118.443 39.1094V33.5319H109.156V39.1094C109.151 39.1837 109.162 39.2582 109.189 39.3275C109.215 39.3969 109.256 39.4593 109.309 39.5103C109.408 39.599 109.534 39.6485 109.666 39.6497V40.19H105.303V39.6497C105.676 39.6497 105.846 39.4754 105.846 39.1094V25.6536C105.846 25.305 105.659 25.1133 105.303 25.1133V24.573H109.666V25.1133C109.534 25.1145 109.408 25.164 109.309 25.2528C109.256 25.3037 109.215 25.3661 109.189 25.4355C109.162 25.5048 109.151 25.5794 109.156 25.6536V30.6908H118.443V25.6536H118.465Z" fill="#444444"/>
<path d="M127.513 40.1726V39.6323C128.226 39.6323 128.583 39.458 128.583 39.0919V25.6536C128.583 25.305 128.226 25.1133 127.513 25.1133V24.573H137.665C139.516 24.573 140.959 24.9216 142.028 25.6188C143.098 26.316 143.619 27.5186 143.619 29.1919C143.619 30.8651 143.092 32.0678 142.023 32.765C140.953 33.4621 139.51 33.8107 137.66 33.8107H131.854V39.0919C131.854 39.4405 132.16 39.6323 132.771 39.6323V40.1726H127.513ZM138.017 31.1091C138.583 31.1269 139.144 30.9949 139.646 30.7257C140.105 30.4642 140.325 29.9588 140.325 29.2093C140.325 28.4598 140.105 27.9544 139.646 27.6929C139.144 27.4237 138.583 27.2917 138.017 27.3095H131.871V31.1091H138.017Z" fill="#444444"/>
<path d="M161.772 40.7303C161.772 40.434 161.687 40.2597 161.5 40.2249C161.264 40.1862 161.026 40.1687 160.787 40.1726H147.053V39.6323C147.63 39.6323 147.919 39.458 147.919 39.0919V25.6536C147.919 25.305 147.63 25.1133 147.053 25.1133V24.573H152.01V25.1133C151.467 25.1133 151.195 25.2876 151.195 25.6536V37.4535H160.765C161.018 37.4637 161.268 37.3904 161.478 37.2444C161.565 37.1819 161.635 37.0982 161.682 37.0008C161.73 36.9034 161.753 36.7955 161.75 36.6866H162.276V40.7478H161.766L161.772 40.7303Z" fill="#444444"/>
<path d="M164.745 39.6497C164.864 39.6319 164.979 39.5886 165.081 39.5226C165.184 39.4566 165.271 39.3692 165.339 39.2663C165.498 39.0333 165.64 38.7886 165.763 38.5342L171.111 27.0132C171.247 26.7518 171.366 26.5252 171.467 26.2986C171.559 26.1269 171.611 25.9362 171.62 25.7408C171.626 25.6587 171.61 25.5765 171.575 25.5029C171.539 25.4292 171.484 25.3669 171.417 25.3225C171.286 25.2393 171.142 25.1803 170.992 25.1482V24.6079H175.864V25.1482C175.723 25.1851 175.587 25.2377 175.457 25.3051C175.385 25.3488 175.327 25.4136 175.291 25.4912C175.254 25.5687 175.241 25.6557 175.253 25.7408C175.254 25.9033 175.289 26.0637 175.355 26.2114C175.423 26.3683 175.525 26.5775 175.661 26.8389L181.67 38.9003C181.748 39.0961 181.885 39.2611 182.061 39.3709C182.231 39.4754 182.417 39.5626 182.621 39.6672V40.2075H177.545V39.6672C177.646 39.658 177.744 39.6284 177.834 39.58C177.886 39.5612 177.93 39.5256 177.961 39.4784C177.992 39.4312 178.007 39.3752 178.003 39.3186C177.979 39.0484 177.898 38.7869 177.766 38.5517L176.662 36.3555H169.634L168.598 38.4645C168.412 38.8828 168.31 39.1791 168.31 39.3534C168.31 39.5626 168.497 39.6846 168.853 39.6846V40.2249H164.762V39.6497H164.745ZM175.627 34.1245L173.199 28.6167L170.483 34.1245H175.627Z" fill="#444444"/>
<path d="M190.004 24.5904V25.1307C189.838 25.127 189.671 25.1505 189.512 25.2005C189.437 25.2241 189.373 25.2735 189.33 25.3401C189.286 25.4068 189.267 25.4867 189.274 25.5665C189.274 25.6885 189.41 25.9674 189.699 26.4031C189.987 26.8389 190.31 27.3443 190.683 27.9195C191.057 28.4947 191.447 29.0524 191.855 29.645C192.262 30.2377 192.585 30.7431 192.839 31.1614L196.218 26.3857C196.37 26.1417 196.489 25.9674 196.591 25.8279C196.678 25.7198 196.726 25.5845 196.727 25.4445C196.727 25.305 196.642 25.2179 196.455 25.183C196.287 25.1501 196.117 25.1326 195.946 25.1307V24.5904H201V25.1307C200.857 25.1288 200.714 25.1464 200.575 25.183C200.423 25.2272 200.28 25.2979 200.151 25.3922C199.974 25.5216 199.819 25.6807 199.693 25.8628C199.523 26.072 199.336 26.3508 199.099 26.6994L194.192 33.8456V39.1268C194.192 39.4754 194.413 39.6671 194.854 39.6671V40.2074H190.288V39.6671C190.445 39.669 190.6 39.6202 190.729 39.5277C190.788 39.4806 190.834 39.4192 190.863 39.3493C190.893 39.2793 190.905 39.2028 190.899 39.1268V33.8282L185.331 25.8279C185.166 25.6075 184.95 25.4336 184.703 25.3225C184.483 25.1978 184.24 25.1263 183.99 25.1133V24.573H189.999L190.004 24.5904Z" fill="#444444"/>
<path d="M7 34.8252V49.3203C7 50.6046 8.38206 51.422 9.48441 50.7714L17.168 46.2511L9.91219 33.1572L7 34.8252Z" fill="#838A92"/>
<path d="M16.1808 25.1673L9.48441 21.2308C8.38206 20.5803 7 21.3809 7 22.682V30.4049L16.1808 25.1673Z" fill="#838A92"/>
<path d="M32.1727 34.5581L19.9974 27.4189L13.2516 31.2554L20.491 44.316L32.1727 37.4604C33.275 36.8099 33.275 35.1919 32.1727 34.5581Z" fill="#838A92"/>
</svg>
