<svg width="24" height="24" viewBox="0 0 24 24" fill="none" xmlns="http://www.w3.org/2000/svg">
<path fill-rule="evenodd" clip-rule="evenodd" d="M8.25 0C8.25 0 17.157 0.0232647 17.25 0.0232647L22.5 6.01801V18C22.5 19.5443 21.087 21 19.5 21H18.75C18.75 22.5443 17.337 24 15.75 24H4.50002C2.91301 24 1.5 22.5443 1.5 21V6C1.5 4.45574 2.79675 3.02026 4.38301 3.02026L5.25001 3.00002C5.25001 1.45576 6.66298 0 8.25 0ZM4.50002 22.5H15.75C16.6598 22.5 17.2567 21.9023 17.2567 20.9918C16.3815 20.9918 8.25 21 8.25 21C6.66298 21 5.25001 19.5443 5.25001 18V4.50001C3.91802 4.50001 3.00003 4.88401 3.00003 6V21C3.00003 21.7643 3.71252 22.5 4.50002 22.5ZM17.25 4.50001C17.25 5.27927 17.9513 6 18.75 6H21L17.25 1.52175V1.52326V4.50001Z" fill="#27AE60"/>
<path d="M18 9L12.5 14.5L10 12" stroke="#F7F8FA" stroke-width="1.5" stroke-linecap="round" stroke-linejoin="round"/>
</svg>
