<svg width="22" height="24" viewBox="0 0 22 24" fill="none" xmlns="http://www.w3.org/2000/svg">
<path d="M16.2501 0.0232647C16.1571 0.0232647 7.25012 0 7.25012 0C5.66311 0 4.25014 1.45576 4.25014 3.00002L3.38313 3.02026C1.79687 3.02026 0.500122 4.45574 0.500122 6V21C0.500122 22.5443 1.91313 24 3.50014 24H14.7501C16.3371 24 17.7501 22.5443 17.7501 21H18.5001C20.0871 21 21.5001 19.5443 21.5001 18V6.01801L16.2501 0.0232647ZM14.7501 22.5H3.50014C2.71264 22.5 2.00015 21.7643 2.00015 21V6C2.00015 4.88401 2.91814 4.50001 4.25014 4.50001V18C4.25014 19.5443 5.66311 21 7.25012 21C7.25012 21 15.3816 20.9918 16.2569 20.9918C16.2569 21.9023 15.6599 22.5 14.7501 22.5ZM16.2501 15.7582H9.50014C9.08615 15.7582 8.75014 15.423 8.75014 15.009C8.75014 14.595 9.08615 14.2598 9.50014 14.2598H16.2501C16.6641 14.2598 17.0001 14.595 17.0001 15.009C17.0001 15.423 16.6641 15.7582 16.2501 15.7582ZM16.2501 12.012H9.50014C9.08615 12.012 8.75014 11.6767 8.75014 11.2628C8.75014 10.8488 9.08615 10.5135 9.50014 10.5135H16.2501C16.6641 10.5135 17.0001 10.8488 17.0001 11.2628C17.0001 11.676 16.6641 12.012 16.2501 12.012ZM17.7501 6C16.9514 6 16.2501 5.27927 16.2501 4.50001C16.2501 4.50001 16.2501 2.98049 16.2501 1.52326V1.52175L20.0002 6H17.7501Z" fill="#2F80ED"/>
</svg>
