<svg width="20" height="20" viewBox="0 0 20 20" fill="none" xmlns="http://www.w3.org/2000/svg">
<path fill-rule="evenodd" clip-rule="evenodd" d="M20 10C20 12.6522 18.9464 15.1957 17.0711 17.0711C15.1957 18.9464 12.6522 20 10 20C7.34784 20 4.8043 18.9464 2.92893 17.0711C1.05357 15.1957 0 12.6522 0 10C0 7.34784 1.05357 4.8043 2.92893 2.92893C4.8043 1.05357 7.34784 0 10 0C12.6522 0 15.1957 1.05357 17.0711 2.92893C18.9464 4.8043 20 7.34784 20 10ZM10.4425 13.3075C10.5599 13.4249 10.6258 13.584 10.6258 13.75C10.6258 13.916 10.5599 14.0751 10.4425 14.1925C10.3251 14.3099 10.166 14.3758 10 14.3758C9.83403 14.3758 9.67486 14.3099 9.5575 14.1925L5.8075 10.4425C5.7493 10.3844 5.70312 10.3155 5.67161 10.2395C5.6401 10.1636 5.62388 10.0822 5.62388 10C5.62388 9.91779 5.6401 9.83639 5.67161 9.76046C5.70312 9.68453 5.7493 9.61556 5.8075 9.5575L9.5575 5.8075C9.61561 5.74939 9.6846 5.70329 9.76052 5.67185C9.83644 5.6404 9.91782 5.62421 10 5.62421C10.0822 5.62421 10.1636 5.6404 10.2395 5.67185C10.3154 5.70329 10.3844 5.74939 10.4425 5.8075C10.5006 5.86561 10.5467 5.9346 10.5782 6.01052C10.6096 6.08644 10.6258 6.16782 10.6258 6.25C10.6258 6.33218 10.6096 6.41356 10.5782 6.48948C10.5467 6.5654 10.5006 6.63439 10.4425 6.6925L7.75875 9.375H13.75C13.9158 9.375 14.0747 9.44085 14.1919 9.55806C14.3092 9.67527 14.375 9.83424 14.375 10C14.375 10.1658 14.3092 10.3247 14.1919 10.4419C14.0747 10.5592 13.9158 10.625 13.75 10.625H7.75875L10.4425 13.3075Z" fill="#838A92"/>
</svg>
