<svg width="42" height="36" viewBox="0 0 42 36" fill="none" xmlns="http://www.w3.org/2000/svg">
<g filter="url(#filter0_d)">
<path d="M4.68253 6.82827C3.39392 3.54816 5.81214 0 9.33629 0H32.6637C36.1879 0 38.6061 3.54815 37.3175 6.82826L30.246 24.8283C29.4943 26.7417 27.6481 28 25.5923 28H16.4077C14.3519 28 12.5057 26.7417 11.754 24.8283L4.68253 6.82827Z" fill="#FEBC1F"/>
<path d="M24 12L29 8L24 4V6.999H11V8.999H24V12ZM31 15H18V12L13 16L18 20V17H31V15Z" fill="black"/>
</g>
<defs>
<filter id="filter0_d" x="0.331474" y="0" width="41.3371" height="36" filterUnits="userSpaceOnUse" color-interpolation-filters="sRGB">
<feFlood flood-opacity="0" result="BackgroundImageFix"/>
<feColorMatrix in="SourceAlpha" type="matrix" values="0 0 0 0 0 0 0 0 0 0 0 0 0 0 0 0 0 0 127 0"/>
<feOffset dy="4"/>
<feGaussianBlur stdDeviation="2"/>
<feColorMatrix type="matrix" values="0 0 0 0 0 0 0 0 0 0 0 0 0 0 0 0 0 0 0.35 0"/>
<feBlend mode="multiply" in2="BackgroundImageFix" result="effect1_dropShadow"/>
<feBlend mode="normal" in="SourceGraphic" in2="effect1_dropShadow" result="shape"/>
</filter>
</defs>
</svg>
