<svg width="33" height="33" viewBox="0 0 33 33" fill="none" xmlns="http://www.w3.org/2000/svg">
<path d="M18.6772 11.0961L19.1831 13.9872L16.5342 12.6222L13.8852 13.9872L14.3911 11.0961L12.248 9.04846L15.2097 8.62662L16.5342 5.99609L17.8587 8.62662L20.8203 9.04846L18.6772 11.0961Z" fill="#F7F8FA"/>
<path d="M5.99975 2.51367C5.99562 2.09879 5.99414 1.69003 5.99414 1.28906V0H27.1348V1.28906C27.1348 1.69003 27.1333 2.09879 27.1292 2.51367H33V3.80273C33 7.10177 32.1328 9.88911 30.349 12.3242C28.8345 14.3915 26.9297 15.8426 25.2491 17.1227C24.2033 17.9194 23.2711 18.6306 22.6118 19.3495C21.3177 21.0628 19.7208 22.5504 17.8535 23.7824V25.9102H18.498C21.6966 25.9102 24.2988 28.5124 24.2988 31.7109V33H8.83008V31.7109C8.83008 28.5124 11.4323 25.9102 14.6309 25.9102H15.2754V23.7824C13.4115 22.5526 11.8168 21.0681 10.5239 19.3586C9.85804 18.6342 8.90697 17.9171 7.83943 17.1132C6.14084 15.8342 4.21562 14.3845 2.68402 12.3196C0.877918 9.88466 0 7.0988 0 3.80273V2.51367H5.99975ZM30.3664 5.0918H27.0576C26.9328 7.61269 26.6137 10.286 25.8125 12.931C25.7489 13.141 25.6818 13.3484 25.613 13.5545C27.9093 11.6244 30.0034 9.19759 30.3664 5.0918ZM14.6309 28.4883C13.3119 28.4883 12.1755 29.2846 11.6773 30.4219H21.4516C20.9534 29.2846 19.817 28.4883 18.498 28.4883H14.6309ZM12.444 17.64C12.691 17.91 12.9176 18.1883 13.1166 18.4792L13.1113 18.4828C14.0552 19.5953 15.1926 20.6247 16.5645 21.5442C17.9363 20.6247 19.0737 19.5954 20.0176 18.4827L20.0123 18.4791C20.2141 18.1842 20.4435 17.9021 20.6934 17.6285C23.9164 13.2497 24.481 7.75919 24.5488 2.57812H8.58013C8.648 7.76377 9.21358 13.2592 12.444 17.64ZM7.53599 13.6142C7.45993 13.3886 7.3862 13.1612 7.31646 12.931C6.51518 10.286 6.19607 7.61269 6.07142 5.0918H2.63459C3.00777 9.23948 5.17752 11.6728 7.53599 13.6142Z" fill="#F7F8FA"/>
</svg>
