<svg width="12" height="15" viewBox="0 0 12 15" fill="none" xmlns="http://www.w3.org/2000/svg">
<path d="M10.8462 1.875H8.30769V1.40625C8.30769 0.62959 7.68779 0 6.92308 0H5.07692C4.31221 0 3.69231 0.62959 3.69231 1.40625V1.875H1.15385C0.516606 1.875 0 2.39968 0 3.04688V3.98438C0 4.24327 0.206625 4.45312 0.461538 4.45312H11.5385C11.7934 4.45312 12 4.24327 12 3.98438V3.04688C12 2.39968 11.4834 1.875 10.8462 1.875ZM4.61538 1.40625C4.61538 1.14785 4.8225 0.9375 5.07692 0.9375H6.92308C7.1775 0.9375 7.38462 1.14785 7.38462 1.40625V1.875H4.61538V1.40625Z" fill="#F7F8FA"/>
<path d="M0.87567 5.39062C0.793314 5.39062 0.727689 5.46053 0.731612 5.54408L1.11238 13.6605C1.14757 14.4117 1.75507 15 2.49527 15H9.5043C10.2445 15 10.852 14.4117 10.8872 13.6605L11.268 5.54408C11.2719 5.46053 11.2063 5.39062 11.1239 5.39062H0.87567ZM7.84594 6.5625C7.84594 6.30352 8.05248 6.09375 8.30748 6.09375C8.56248 6.09375 8.76902 6.30352 8.76902 6.5625V12.6562C8.76902 12.9152 8.56248 13.125 8.30748 13.125C8.05248 13.125 7.84594 12.9152 7.84594 12.6562V6.5625ZM5.53825 6.5625C5.53825 6.30352 5.74479 6.09375 5.99979 6.09375C6.25479 6.09375 6.46132 6.30352 6.46132 6.5625V12.6562C6.46132 12.9152 6.25479 13.125 5.99979 13.125C5.74479 13.125 5.53825 12.9152 5.53825 12.6562V6.5625ZM3.23055 6.5625C3.23055 6.30352 3.43709 6.09375 3.69209 6.09375C3.94709 6.09375 4.15363 6.30352 4.15363 6.5625V12.6562C4.15363 12.9152 3.94709 13.125 3.69209 13.125C3.43709 13.125 3.23055 12.9152 3.23055 12.6562V6.5625Z" fill="#F7F8FA"/>
</svg>
