<svg width="24" height="22" viewBox="0 0 24 22" fill="none" xmlns="http://www.w3.org/2000/svg">
<path d="M20.6096 0.578903C19.6009 0.205612 18.2766 0 16.8809 0C15.4851 0 14.1608 0.205612 13.1521 0.578903C11.5165 1.18433 11.1731 2.0479 11.1731 2.66574V10.6787C11.0709 10.6339 10.9633 10.5901 10.8486 10.5477C9.83992 10.1744 8.51558 9.96875 7.11983 9.96875C5.72828 9.96875 4.40104 10.1838 3.38254 10.574C1.75398 11.1979 1.41211 12.064 1.41211 12.6806C1.41211 12.7083 1.41308 12.7369 1.41453 12.7656C1.41356 12.7824 1.41211 12.799 1.41211 12.8161V19.3343C1.41211 19.9521 1.75543 20.8157 3.3911 21.4211C4.39974 21.7944 5.72408 22 7.11983 22C8.51558 22 9.83992 21.7944 10.8486 21.4211C11.3413 21.2386 11.7162 21.0327 12.0003 20.8172C12.2845 21.0327 12.6594 21.2386 13.1521 21.4211C14.1608 21.7944 15.4851 22 16.8809 22C18.2766 22 19.6009 21.7944 20.6096 21.4211C22.2453 20.8157 22.5886 19.9521 22.5886 19.3343V2.66574C22.5886 2.0479 22.2453 1.18433 20.6096 0.578903ZM13.9721 2.10799C14.7752 1.85706 15.8081 1.71875 16.8809 1.71875C17.9536 1.71875 18.9865 1.85706 19.7897 2.10799C20.4566 2.31645 20.777 2.54456 20.8947 2.66574C20.777 2.78709 20.4566 3.0152 19.7897 3.22366C18.9865 3.47459 17.9536 3.6129 16.8809 3.6129C15.8081 3.6129 14.7752 3.47459 13.9721 3.22366C13.3051 3.0152 12.9848 2.78709 12.867 2.66574C12.9848 2.54456 13.3051 2.31645 13.9721 2.10799ZM4.20748 12.0972C5.01595 11.833 6.05012 11.6875 7.11983 11.6875C8.19261 11.6875 9.22549 11.8258 10.0286 12.0767C10.7004 12.2867 11.0208 12.5167 11.1363 12.6373C11.0227 12.7609 10.7048 12.9982 10.0322 13.2181C9.22371 13.4823 8.18954 13.6276 7.11983 13.6276C6.04705 13.6276 5.01417 13.4895 4.21104 13.2384C3.53926 13.0284 3.21888 12.7985 3.10336 12.678C3.21694 12.5543 3.53489 12.3169 4.20748 12.0972ZM10.0286 19.892C9.22549 20.1429 8.19261 20.2812 7.11983 20.2812C6.04705 20.2812 5.01417 20.1429 4.21104 19.892C3.44539 19.6527 3.13632 19.3875 3.06652 19.2878V17.9656C3.17138 18.0103 3.28205 18.0539 3.39999 18.0961C4.39813 18.4526 5.71923 18.6488 7.11983 18.6488C7.69112 18.6488 8.25158 18.6164 8.7862 18.5524C9.24003 18.4982 9.56558 18.0719 9.51323 17.6004C9.46105 17.1289 9.05084 16.7907 8.59685 16.8449C8.12508 16.9015 7.62795 16.93 7.11983 16.93C6.04382 16.93 5.01207 16.7991 4.21475 16.5611C3.45266 16.3338 3.13987 16.0777 3.06652 15.9792V14.6364C3.16879 14.6812 3.27639 14.725 3.3911 14.7675C4.39974 15.1408 5.72408 15.3464 7.11983 15.3464C8.51138 15.3464 9.83862 15.1315 10.8571 14.7413C10.9686 14.6985 11.0735 14.6547 11.1731 14.6099V19.2878C11.1033 19.3875 10.7943 19.6527 10.0286 19.892ZM19.7897 19.892C18.9865 20.1429 17.9536 20.2812 16.8809 20.2812C15.8081 20.2812 14.7752 20.1429 13.9721 19.892C13.2064 19.6527 12.8975 19.3875 12.8276 19.2878V17.9734C12.9298 18.0183 13.0374 18.0621 13.1521 18.1046C14.1608 18.4779 15.4851 18.6835 16.8809 18.6835C17.4521 18.6835 18.0144 18.6493 18.5521 18.5815C19.0056 18.5244 19.3287 18.0962 19.2738 17.6251C19.2188 17.1539 18.8061 16.8179 18.353 16.8753C17.8813 16.9347 17.3859 16.9648 16.8809 16.9648C15.8081 16.9648 14.775 16.8265 13.9721 16.5755C13.2061 16.336 12.8972 16.0708 12.8276 15.9713V14.6231C12.9298 14.668 13.0374 14.7118 13.1521 14.7542C14.1608 15.1275 15.485 15.3333 16.8809 15.3333C17.4521 15.3333 18.0144 15.2989 18.5519 15.2312C19.0054 15.1742 19.3287 14.746 19.2736 14.2749C19.2187 13.8035 18.8061 13.4678 18.353 13.5251C17.8813 13.5843 17.3859 13.6145 16.8807 13.6145C15.8081 13.6145 14.775 13.4762 13.9721 13.2251C13.2061 12.9858 12.8972 12.7206 12.8274 12.6209V11.237C12.9298 11.2818 13.0374 11.3256 13.1521 11.3681C14.1608 11.7414 15.485 11.947 16.8807 11.947C17.4521 11.947 18.0144 11.9128 18.5519 11.8451C19.0054 11.788 19.3285 11.3599 19.2736 10.8885C19.2187 10.4174 18.8061 10.0812 18.353 10.1389C17.8811 10.1982 17.3859 10.2282 16.8807 10.2282C15.8079 10.2282 14.775 10.0901 13.9719 9.839C13.2059 9.59966 12.8972 9.33446 12.8274 9.23476V7.92673C12.9297 7.97154 13.0374 8.01535 13.1521 8.05782C14.1608 8.43111 15.4851 8.63672 16.8809 8.63672C17.4521 8.63672 18.0144 8.60248 18.5521 8.53484C19.0056 8.47777 19.3287 8.04942 19.2738 7.57828C19.2188 7.10713 18.8061 6.77127 18.353 6.82851C17.8813 6.88792 17.3859 6.91797 16.8809 6.91797C15.8081 6.91797 14.7752 6.77966 13.9721 6.52873C13.2061 6.28922 12.8972 6.02402 12.8276 5.92448V4.62166C12.9298 4.66647 13.0374 4.71028 13.1521 4.75275C14.1608 5.12604 15.4851 5.33165 16.8809 5.33165C18.2766 5.33165 19.6009 5.12604 20.6096 4.75275C20.7241 4.71028 20.8319 4.66647 20.9342 4.62166V19.2878C20.8644 19.3875 20.5553 19.6527 19.7897 19.892ZM3.02193 3.53217C2.69735 3.19815 2.69509 2.65399 3.01676 2.31696L4.62076 0.635467C5.01159 0.225754 5.53182 0 6.08566 0C6.6395 0 7.15974 0.225586 7.55056 0.6353L9.15489 2.31696C9.47656 2.65399 9.4743 3.19815 9.14972 3.53217C8.8253 3.86635 8.30151 3.864 7.97999 3.52679L6.91303 2.4086V7.39062C6.91303 7.8653 6.54272 8.25 6.08582 8.25C5.62892 8.25 5.25862 7.8653 5.25862 7.39062V2.40843L4.19165 3.52679C4.03009 3.69632 3.81715 3.78125 3.60421 3.78125C3.39369 3.78125 3.18317 3.69833 3.02193 3.53217Z" fill="#F7F8FA"/>
</svg>
