<svg width="16" height="12" viewBox="0 0 16 12" fill="none" xmlns="http://www.w3.org/2000/svg">
<path d="M15.8639 5.63564L11.0647 0.181091C10.9623 0.0654544 10.8194 0 10.6679 0H7.46842C7.25832 0 7.06742 0.126545 6.98103 0.322909C6.89571 0.520364 6.9309 0.750545 7.07168 0.909818L11.5499 6L7.07168 11.0891C6.9309 11.2495 6.89464 11.4796 6.98103 11.676C7.06742 11.8735 7.25832 12 7.46842 12H10.6679C10.8194 12 10.9623 11.9335 11.0647 11.82L15.8639 6.36545C16.0463 6.15818 16.0463 5.84182 15.8639 5.63564Z" fill="#B50000"/>
<path d="M8.92935 5.63564L4.1301 0.181091C4.02771 0.0654544 3.8848 0 3.73336 0H0.533851C0.32375 0 0.132846 0.126545 0.0464593 0.322909C-0.0388609 0.520364 -0.00366634 0.750545 0.137112 0.909818L4.61535 6L0.137112 11.0891C-0.00366634 11.2495 -0.0399274 11.4796 0.0464593 11.676C0.132846 11.8735 0.32375 12 0.533851 12H3.73336C3.8848 12 4.02771 11.9335 4.1301 11.82L8.92935 6.36545C9.11173 6.15818 9.11173 5.84182 8.92935 5.63564Z" fill="#B50000"/>
</svg>
