<svg width="409" height="160" viewBox="0 0 409 160" fill="none" xmlns="http://www.w3.org/2000/svg">
<ellipse cx="204.393" cy="72.9787" rx="70.3926" ry="69.966" fill="#161618"/>
<path fill-rule="evenodd" clip-rule="evenodd" d="M133.113 21.7841C133.113 16.6006 137.315 12.3984 142.499 12.3984H319.974C325.157 12.3984 329.359 16.6006 329.359 21.7841C329.359 26.9677 325.157 31.1698 319.974 31.1698H142.499C137.315 31.1698 133.113 26.9677 133.113 21.7841ZM232.09 59.3271C232.09 54.1435 236.292 49.9414 241.476 49.9414H369.462C374.646 49.9414 378.848 54.1435 378.848 59.3271C378.848 64.5107 374.646 68.7128 369.462 68.7128H241.476C236.292 68.7128 232.09 64.5107 232.09 59.3271ZM229.53 31.1698C224.347 31.1698 220.145 35.3719 220.145 40.5555C220.145 45.7391 224.347 49.9412 229.53 49.9412H319.974C325.158 49.9412 329.36 45.7391 329.36 40.5555C329.36 35.3719 325.158 31.1698 319.974 31.1698H229.53Z" fill="#161618"/>
<rect x="298" y="31.0127" width="111" height="19" rx="9.5" fill="#0C0A0A"/>
<path fill-rule="evenodd" clip-rule="evenodd" d="M186.859 80.6577C186.859 75.4741 182.657 71.272 177.474 71.272H87.0297C81.8461 71.272 77.644 75.4741 77.644 80.6577C77.644 85.8412 81.8462 90.0433 87.0297 90.0433H177.474C182.657 90.0433 186.859 85.8412 186.859 80.6577ZM206.485 118.2C206.485 113.017 202.283 108.815 197.099 108.815H37.5428C32.3592 108.815 28.1571 113.017 28.1571 118.2C28.1571 123.384 32.3592 127.586 37.5428 127.586H197.099C202.283 127.586 206.485 123.384 206.485 118.2ZM177.474 90.0434C182.657 90.0434 186.859 94.2455 186.859 99.429C186.859 104.613 182.657 108.815 177.474 108.815H87.0297C81.8462 108.815 77.644 104.613 77.644 99.429C77.644 94.2455 81.8461 90.0434 87.0297 90.0434H177.474Z" fill="#161618"/>
<rect width="109.215" height="18.7714" rx="9.38568" transform="matrix(-1 0 0 1 109.215 90.043)" fill="#0C0A0A"/>
<path d="M271.565 52.4989C282.686 89.5995 261.625 128.691 224.525 139.812C187.424 150.933 148.333 129.872 137.212 92.7717" stroke="#838A92" stroke-width="5" stroke-linecap="round" stroke-linejoin="round"/>
<path d="M133.538 75.8837C131.985 37.1833 162.1 4.55212 200.8 2.99997" stroke="#838A92" stroke-width="5" stroke-linecap="round" stroke-linejoin="round"/>
<path d="M232.533 9.27123C248.613 16.1342 260.808 28.2948 267.949 42.8484" stroke="#838A92" stroke-width="5" stroke-linecap="round" stroke-linejoin="round"/>
<path d="M211.093 3.0128C215.418 3.3633 219.62 4.09918 223.667 5.18396" stroke="#838A92" stroke-width="5" stroke-linecap="round" stroke-linejoin="round"/>
<circle cx="82.343" cy="14.5315" r="9.51879" stroke="#838A92" stroke-width="4"/>
<circle cx="303.331" cy="114.361" r="11.2253" stroke="#838A92" stroke-width="4"/>
<path fill-rule="evenodd" clip-rule="evenodd" d="M244.742 66.6438C248.528 63.7209 250.967 59.1371 250.967 53.9836C250.967 45.1561 243.811 38 234.984 38C229.053 38 223.877 41.2301 221.118 46.027C220.651 46.211 220.185 46.4167 219.722 46.6415C217.587 47.6771 215.753 49.0055 214.42 50.7466H195.583C194.251 49.0055 192.416 47.6771 190.281 46.6415C183.242 43.225 175.681 44.2263 168.624 58.5598C161.562 72.8948 157.681 95.1341 164.721 98.5509C169.613 100.923 178.487 93.5751 185.816 84.065H224.182C231.511 93.5751 240.384 100.923 245.276 98.5509C251.092 95.7303 249.458 80.0828 244.742 66.6438ZM192.777 68.5652C193.374 68.5652 193.858 68.0959 193.858 67.5168H193.858V63.9593C193.858 63.3805 193.374 62.9112 192.778 62.9112H187.61V57.6524C187.61 57.0735 187.129 56.6039 186.532 56.6039H184.704H182.875C182.282 56.6039 181.797 57.0736 181.797 57.6524V62.9112H176.63C176.034 62.9112 175.549 63.3803 175.549 63.9593V67.5166C175.549 68.0957 176.034 68.565 176.63 68.565H181.797V73.8226C181.797 74.4015 182.282 74.871 182.875 74.871H184.703H186.532C187.128 74.871 187.61 74.4015 187.61 73.8226V68.5652H192.777ZM213.884 65.3106C213.884 67.1186 215.357 68.585 217.18 68.585C219.003 68.585 220.476 67.1184 220.476 65.3106C220.476 63.5056 219.003 62.0392 217.18 62.0392C215.357 62.0392 213.884 63.5056 213.884 65.3106ZM220.682 72.0598C220.682 73.8677 222.155 75.3327 223.978 75.3327C225.801 75.3327 227.274 73.8677 227.274 72.0598C227.274 70.2519 225.801 68.7869 223.978 68.7869C222.155 68.7869 220.682 70.2519 220.682 72.0598Z" fill="url(#paint0_linear)"/>
<path d="M244.371 55.0127C244.393 54.7656 244.405 54.5303 244.405 54.297C244.405 54.0636 244.393 53.8283 244.371 53.5812L245.999 52.3713C246.97 51.6497 247.258 50.3045 246.664 49.2397L245.213 46.6434C244.605 45.559 243.26 45.1236 242.148 45.6433L240.338 46.4885C239.981 46.2394 239.612 46.0178 239.23 45.8257L239.026 43.7255C238.902 42.4842 237.883 41.5508 236.655 41.5508H233.755C232.527 41.5508 231.508 42.4842 231.386 43.7255L231.182 45.8217C230.8 46.0159 230.429 46.2355 230.074 46.4845L228.266 45.6413C227.15 45.1217 225.805 45.559 225.197 46.6414L223.75 49.2377C223.154 50.3005 223.44 51.6477 224.413 52.3694L226.04 53.5793C226.019 53.8263 226.007 54.0617 226.007 54.295C226.007 54.5284 226.019 54.7637 226.04 55.0108L224.413 56.2207C223.44 56.9423 223.154 58.2895 223.748 59.3503L225.199 61.9486C225.805 63.035 227.152 63.4664 228.264 62.9487L230.074 62.1035C230.431 62.3526 230.8 62.5741 231.182 62.7663L231.386 64.8665C231.51 66.1097 232.529 67.0432 233.757 67.0432H236.657C237.885 67.0432 238.904 66.1097 239.026 64.8685L239.23 62.7722C239.612 62.5781 239.983 62.3584 240.338 62.1094L242.146 62.9526C243.26 63.4723 244.607 63.035 245.215 61.9525L246.662 59.3562C247.258 58.2934 246.972 56.9462 245.999 56.2246L244.371 55.0127ZM235.206 59.1993C232.502 59.1993 230.304 56.9992 230.304 54.297C230.304 51.5948 232.502 49.3946 235.206 49.3946C237.91 49.3946 240.108 51.5948 240.108 54.297C240.108 56.9992 237.91 59.1993 235.206 59.1993Z" fill="#B50000"/>
<defs>
<linearGradient id="paint0_linear" x1="205.984" y1="38" x2="205.984" y2="99" gradientUnits="userSpaceOnUse">
<stop stop-color="#FEC01F"/>
<stop offset="1" stop-color="#FEA51F"/>
</linearGradient>
</defs>
</svg>
