<svg width="42" height="42" viewBox="0 0 42 42" fill="none" xmlns="http://www.w3.org/2000/svg">
<path d="M6.08275 28.6883L13.3123 35.9173C13.5476 36.1526 13.9288 36.1526 14.1642 35.9173L18.1404 31.9413C18.3757 31.706 18.3757 31.3248 18.1404 31.0895L17.9639 30.913H26.6483C27.411 30.913 28.1389 30.6271 28.7002 30.1061L36.009 23.2566C36.7086 22.6069 36.9404 21.5748 36.5855 20.6886C36.329 20.0471 35.8052 19.5562 35.1486 19.3419C34.4918 19.127 33.7794 19.2141 33.1934 19.5802C33.1897 19.5826 31.5708 20.6448 31.5708 20.6448C31.5597 17.3793 29.586 13.897 26.869 12.3293C27.0241 12.1512 27.146 11.9404 27.2237 11.7043C27.5345 10.7586 27.0177 9.73495 26.0705 9.42221C26.0409 9.41232 26.0112 9.40362 25.9816 9.39444L27.5324 6.60873C27.6216 6.44848 27.6331 6.25622 27.5632 6.08679C27.4936 5.91713 27.3505 5.78841 27.1742 5.73735C26.0623 5.41402 24.9065 5.25 23.739 5.25C22.5718 5.25 21.4158 5.41402 20.3039 5.73711C20.1276 5.78841 19.9845 5.91689 19.9146 6.08656C19.8449 6.25622 19.8562 6.44848 19.9457 6.60873L21.4965 9.39444C21.4664 9.40385 21.4363 9.4128 21.4062 9.42268C20.4603 9.73495 19.9438 10.7584 20.2547 11.7048C20.3323 11.9404 20.4552 12.1505 20.6107 12.3289C17.8533 13.9199 15.9071 17.4379 15.9071 20.6719C15.9071 20.7601 15.9092 20.8472 15.912 20.9335C14.833 21.2279 13.8298 21.7642 12.9861 22.5029L11.1552 24.1047L10.9109 23.8604C10.6756 23.6251 10.2943 23.6251 10.059 23.8604L6.08275 27.8364C5.84742 28.0717 5.84742 28.4529 6.08275 28.6883ZM21.3793 6.70686C22.1512 6.53931 22.942 6.45483 23.739 6.45483C24.5361 6.45483 25.3269 6.53931 26.099 6.70686L24.7564 9.11818C24.0796 9.02381 23.398 9.02381 22.7219 9.11818L21.3793 6.70686ZM21.7822 10.5673C23.0184 10.1628 24.3662 10.1322 25.6942 10.5668C26.0103 10.671 26.1828 11.0127 26.079 11.3281C26.0009 11.5655 25.7891 11.7267 25.5436 11.741C24.3556 11.3634 23.1218 11.3626 21.9343 11.7399C21.9343 11.7399 21.9343 11.7399 21.934 11.7399C21.6864 11.7243 21.4763 11.5624 21.3991 11.3283C21.2953 11.0125 21.4678 10.6708 21.7822 10.5673ZM22.1155 12.9499C23.1601 12.5736 24.2424 12.5647 25.2897 12.9245C28.0888 13.8869 30.3661 17.3623 30.3661 20.6719C30.3661 20.9524 30.3484 21.2197 30.3136 21.4696L27.4178 23.3693C26.9695 22.814 26.2901 22.4791 25.5464 22.4791H24.3415V21.7732C25.0428 21.5244 25.5464 20.8547 25.5464 20.0695C25.5464 19.0729 24.7357 18.2622 23.739 18.2622C23.407 18.2622 23.1366 17.9921 23.1366 17.6598C23.1366 17.3275 23.407 17.0574 23.739 17.0574C23.9525 17.0574 24.1777 17.1663 24.3907 17.3722C24.6298 17.6035 25.0113 17.5972 25.2426 17.3583C25.4739 17.1193 25.4676 16.7378 25.2285 16.5065C24.9228 16.2105 24.6168 16.0431 24.3415 15.9518V15.2501C24.3415 14.9174 24.0718 14.6477 23.739 14.6477C23.4063 14.6477 23.1366 14.9174 23.1366 15.2501V15.9561C22.4355 16.2048 21.9317 16.8745 21.9317 17.6598C21.9317 18.6564 22.7424 19.467 23.739 19.467C24.0713 19.467 24.3415 19.7372 24.3415 20.0695C24.3415 20.4017 24.0713 20.6719 23.739 20.6719C23.4816 20.6719 23.2039 20.51 22.9568 20.2161C22.7426 19.9614 22.3626 19.9285 22.1079 20.1426C21.8533 20.3568 21.8204 20.7368 22.0345 20.9914C22.3564 21.3745 22.7353 21.6414 23.1366 21.776V22.4791H22.9361C22.64 22.4791 22.5071 22.2862 22.2986 22.1513C21.0256 21.1973 19.4489 20.6719 17.8585 20.6719C17.6097 20.6719 17.3605 20.6848 17.1125 20.71C17.1125 20.6973 17.112 20.6848 17.112 20.6719C17.112 17.4087 19.3566 13.9448 22.1155 12.9499ZM13.7796 23.4093C14.9116 22.4182 16.3662 21.8767 17.8585 21.8767C19.19 21.8767 20.51 22.3165 21.5751 23.115C21.7288 23.2048 22.1566 23.684 22.9358 23.684H25.5464C26.2322 23.684 26.7513 24.2414 26.7513 24.8888C26.7513 25.5531 26.2108 26.0936 25.5464 26.0936H21.3292C20.9964 26.0936 20.7267 26.3633 20.7267 26.696C20.7267 27.0288 20.9964 27.2985 21.3292 27.2985H25.5464C26.8751 27.2985 27.9563 26.2174 27.9563 24.8888C27.9563 24.7507 27.944 24.6144 27.921 24.4803L33.8371 20.5989C34.1185 20.425 34.46 20.3843 34.7744 20.4869C35.0907 20.5905 35.3432 20.827 35.4668 21.1362C35.6407 21.5701 35.5315 22.056 35.1869 22.3758L27.8784 29.225C27.5428 29.5366 27.106 29.7081 26.6483 29.7081H16.759L12.0092 24.9584L13.7796 23.4093ZM10.4849 25.1382L16.8625 31.5154L13.7382 34.6395L7.36062 28.2623L10.4849 25.1382Z" fill="#838A92"/>
</svg>
