<svg width="42" height="42" viewBox="0 0 42 42" fill="none" xmlns="http://www.w3.org/2000/svg">
<path d="M33.9748 7.37267C33.8786 7.27414 33.7482 7.21875 33.6122 7.21875L20.9999 7.21943C20.7168 7.21943 20.4872 7.45476 20.4872 7.74494V9.24775L15.6273 10.5825C15.3538 10.6576 15.1915 10.9458 15.2648 11.2261L17.7835 20.8609L15.6046 23.0943C15.3273 22.6793 14.8616 22.4063 14.3349 22.4063H9.41307C8.56495 22.4063 7.875 23.1135 7.875 23.9828V32.5484C7.875 33.4177 8.56495 34.1249 9.41307 34.1249H14.335C15.0555 34.1249 15.6616 33.6144 15.8277 32.9278L16.4373 33.4727C16.9079 33.8934 17.5109 34.125 18.1353 34.125H33.6123C33.8954 34.125 34.125 33.8897 34.125 33.5995V7.74426C34.1249 7.6049 34.071 7.47121 33.9748 7.37267ZM14.8476 32.5485C14.8476 32.8382 14.6176 33.074 14.3349 33.074H9.41302C9.13031 33.074 8.90031 32.8382 8.90031 32.5485V23.9828C8.90031 23.6931 9.13031 23.4573 9.41302 23.4573H11.3613V29.511C11.3613 29.8011 11.5909 30.0365 11.874 30.0365C12.1571 30.0365 12.3867 29.8011 12.3867 29.511V23.4573H14.3349C14.6176 23.4573 14.8476 23.6931 14.8476 23.9828V32.5485H14.8476ZM16.3879 11.4617L20.4872 10.3358V12.2831L20.1436 12.3775C20.0122 12.4136 19.9003 12.5016 19.8323 12.6223C19.7643 12.743 19.7458 12.8864 19.7811 13.0211C19.9781 13.7747 19.5402 14.5521 18.8049 14.7541C18.6734 14.7902 18.5613 14.8784 18.4933 14.9994C18.4254 15.1203 18.4071 15.264 18.4426 15.3987L20.4411 22.9838H19.4121L18.8818 20.8574C18.865 20.7897 18.8354 20.7273 18.7959 20.6731L16.3879 11.4617ZM20.4872 14.6931V19.1274L19.5521 15.5783C19.9427 15.3716 20.2624 15.0623 20.4872 14.6931ZM27.853 33.0739H18.1352C17.7586 33.0739 17.395 32.9342 17.1111 32.6806L15.873 31.5738V24.3056L18.1114 22.0113L18.5173 23.6394C18.5754 23.872 18.7798 24.0347 19.014 24.0347L29.0941 24.0353C29.4899 24.0353 29.8119 24.3654 29.8119 24.7711C29.8119 25.1767 29.4899 25.5068 29.0941 25.5068H23.9291C23.646 25.5068 23.4164 25.7421 23.4164 26.0323C23.4164 26.3225 23.646 26.5578 23.9291 26.5578H30.6989C31.0947 26.5578 31.4167 26.8878 31.4167 27.2935C31.4167 27.6992 31.0947 28.0292 30.6989 28.0292H23.9291C23.646 28.0292 23.4164 28.2645 23.4164 28.5547C23.4164 28.8449 23.646 29.0802 23.9291 29.0802H29.6018C29.9976 29.0802 30.3196 29.4103 30.3196 29.816C30.3196 30.2217 29.9976 30.5517 29.6018 30.5517H23.9291C23.646 30.5517 23.4164 30.787 23.4164 31.0772C23.4164 31.3674 23.646 31.6027 23.9291 31.6027H27.853C28.2488 31.6027 28.5708 31.9327 28.5708 32.3384C28.5707 32.7439 28.2487 33.0739 27.853 33.0739ZM33.0996 33.0739H33.0995H29.4409C29.5403 32.8494 29.5961 32.6004 29.5961 32.3382C29.5961 32.076 29.5403 31.827 29.4409 31.6025H29.6018C30.563 31.6025 31.345 30.801 31.345 29.8158C31.345 29.5285 31.2781 29.2569 31.16 29.0161C31.8981 28.8083 32.442 28.1149 32.442 27.2934C32.442 26.8949 32.3139 26.5264 32.0979 26.229V19.5686C32.0979 19.2785 31.8683 19.0431 31.5852 19.0431C31.3021 19.0431 31.0725 19.2785 31.0725 19.5686V25.5485C30.952 25.5215 30.8271 25.5068 30.6988 25.5068H30.682C30.7814 25.2822 30.8372 25.0333 30.8372 24.7711C30.8372 23.7858 30.0552 22.9844 29.094 22.9844H28.2699C29.145 22.5997 29.7596 21.7081 29.7596 20.6718C29.7596 19.2851 28.659 18.1569 27.306 18.1569C25.953 18.1569 24.8523 19.2851 24.8523 20.6718C24.8523 21.7081 25.467 22.5997 26.3421 22.9844H23.5395V12.9922C24.4554 12.7876 25.1781 12.0469 25.3776 11.1081H29.2343C29.4338 12.0469 30.1565 12.7876 31.0724 12.9922V14.626C31.0724 14.9162 31.302 15.1515 31.5851 15.1515C31.8683 15.1515 32.0979 14.9162 32.0979 14.626V12.523C32.0979 12.2328 31.8683 11.9975 31.5851 11.9975C30.8239 11.9975 30.2047 11.3627 30.2047 10.5826C30.2047 10.2924 29.9751 10.057 29.692 10.057H24.9199C24.6368 10.057 24.4072 10.2924 24.4072 10.5826C24.4072 11.3628 23.788 11.9975 23.0268 11.9975C22.7437 11.9975 22.5141 12.2328 22.5141 12.523V22.9843H21.5127V8.27035L33.0996 8.26977V33.0739ZM27.3061 22.1358C26.5185 22.1358 25.8778 21.4791 25.8778 20.6719C25.8778 19.8647 26.5186 19.2079 27.3061 19.2079C28.0936 19.2079 28.7343 19.8647 28.7343 20.6718C28.7343 21.479 28.0937 22.1358 27.3061 22.1358Z" fill="#838A92"/>
</svg>
