<svg width="42" height="42" viewBox="0 0 42 42" fill="none" xmlns="http://www.w3.org/2000/svg">
<path d="M36.3945 20.0522H32.8085C32.474 20.0522 32.203 20.3257 32.203 20.6631V21.1792H28.4322C28.3527 21.1792 28.274 21.1949 28.2007 21.2257L23.3705 23.2425C22.8116 23.4761 22.3774 23.9156 22.1482 24.4804C21.9188 25.0449 21.9223 25.6653 22.1581 26.2275L22.1745 26.2664C22.3145 26.6 22.5207 26.8837 22.7712 27.108C22.0361 27.3091 21.2653 27.3254 20.516 27.1524L15.7741 26.0569C15.1939 25.923 14.5984 26.0278 14.0974 26.3521C13.5967 26.6761 13.254 27.1786 13.1329 27.7663C12.8929 28.9307 13.6001 30.0725 14.7427 30.3655L20.4006 31.8163C20.8798 31.9389 21.3656 32 21.8497 32C22.5756 32 23.2979 31.8628 23.9874 31.5898L31.1831 28.7427H32.203V29.0641C32.203 29.4015 32.4743 29.675 32.8085 29.675H36.3945C36.729 29.675 37 29.4015 37 29.0641V20.6631C37 20.3257 36.729 20.0522 36.3945 20.0522ZM31.0684 27.521C30.9927 27.521 30.9178 27.5353 30.8475 27.563L23.5451 30.4526C22.6328 30.8134 21.6487 30.8754 20.6988 30.632L15.0409 29.1813C14.5281 29.0498 14.2107 28.5375 14.3184 28.0149C14.3728 27.751 14.5265 27.5256 14.7514 27.3802C14.9122 27.276 15.0951 27.2223 15.2814 27.2223C15.3552 27.2223 15.4297 27.2306 15.5038 27.2478L20.2457 28.343C21.3866 28.6065 22.5671 28.522 23.6598 28.0982L25.0358 27.5644C25.0642 27.5547 25.0924 27.5442 25.1205 27.5332C26.3369 27.06 27.8894 26.4578 28.2231 26.3282L28.2882 26.3029C28.6001 26.1819 28.756 25.8283 28.6361 25.5136C28.5162 25.1986 28.1659 25.0416 27.8535 25.1626C27.8535 25.1626 27.8286 25.1724 27.7827 25.19L24.6269 26.4143C24.0919 26.5892 23.5134 26.3234 23.2896 25.7901L23.2731 25.751C23.1641 25.4914 23.1626 25.2046 23.2686 24.9435C23.3745 24.6825 23.5751 24.4792 23.8336 24.3713L28.5526 22.4009H32.203V27.521H31.0684ZM35.789 28.4533H33.4139V21.2739H35.789V28.4533Z" fill="#838A92"/>
<path d="M11.8963 19.7969H10.7972V14.0894H10.9649C11.4127 14.0894 11.8597 13.9805 12.2577 13.7746C12.2764 13.7648 12.2949 13.7543 12.3124 13.7426L16.2336 11.1616C16.7754 10.8934 17.4339 10.9545 17.9187 11.32L18.2018 11.5329C18.1846 11.5574 18.168 11.5825 18.1512 11.6071C18.0765 11.7168 18.0046 11.8287 17.9369 11.943C17.5183 12.6486 17.2494 13.4425 17.1505 14.2521C16.7378 14.2969 16.3556 14.4807 16.0581 14.7806C15.7135 15.1283 15.5235 15.5912 15.5235 16.0837C15.5235 17.0994 16.3428 17.926 17.3497 17.926H21.8321C22.0795 17.926 22.3125 18.0233 22.4873 18.1992C22.6628 18.3767 22.7595 18.612 22.7597 18.8616C22.7595 19.2343 22.5431 19.5703 22.2061 19.7184C22.167 19.7359 22.1318 19.7487 22.0987 19.7581C22.0956 19.759 22.0928 19.76 22.0897 19.7609C22.0081 19.7848 21.9215 19.7969 21.8321 19.7969H16.739C16.4048 19.7969 16.1335 20.0704 16.1335 20.4078C16.1335 20.7452 16.4048 21.0186 16.739 21.0186H21.8321C21.9885 21.0186 22.1427 21.0015 22.2926 20.9683C22.5469 21.0012 22.8044 21.0191 23.0606 21.0191C26.3451 21.0191 29.0175 18.3233 29.0175 15.0094C29.0175 11.6958 26.3451 9 23.0606 9C21.5471 9 20.0985 9.5815 19.0022 10.6113L18.6432 10.341C17.783 9.69269 16.6096 9.59319 15.6546 10.0878C15.6359 10.0974 15.6179 10.1081 15.6002 10.1196L11.6795 12.7004C11.4581 12.8099 11.2116 12.8674 10.9649 12.8674H10.797V12.6465C10.797 12.3091 10.526 12.0356 10.1915 12.0356H6.60548C6.27105 12.0356 6 12.3091 6 12.6465V21.0475C6 21.3849 6.27105 21.6584 6.60548 21.6584H10.1915C10.526 21.6584 10.797 21.3849 10.797 21.0475V21.0186H11.8963C12.2305 21.0186 12.5018 20.7452 12.5018 20.4078C12.5018 20.0704 12.2305 19.7969 11.8963 19.7969ZM16.7345 16.0837C16.7345 15.9176 16.7984 15.7615 16.9145 15.6446C16.975 15.5835 17.0462 15.537 17.1238 15.5062C17.1567 15.9147 17.2305 16.3146 17.344 16.7041C17.0074 16.701 16.7345 16.4239 16.7345 16.0837ZM27.8063 15.0097C27.8063 17.4008 26.0596 19.3884 23.7855 19.7416C23.9071 19.4662 23.9707 19.1632 23.9707 18.8616C23.9707 18.4915 23.8782 18.1357 23.7051 17.8198C23.9679 17.7781 24.2105 17.6556 24.4023 17.4621C24.6422 17.2204 24.7741 16.899 24.7741 16.5571V15.6537C24.7741 14.9479 24.2048 14.3735 23.5052 14.3735H22.6169C22.585 14.3735 22.5589 14.3473 22.5589 14.3151V13.4623C22.5589 13.4301 22.585 13.4041 22.6169 13.4041H23.5052C23.5372 13.4041 23.5632 13.4301 23.5632 13.4623C23.5632 13.7997 23.8342 14.0731 24.1687 14.0731C24.5029 14.0731 24.7741 13.7997 24.7741 13.4623C24.7741 12.8118 24.29 12.2742 23.6665 12.1938V11.9822C23.6665 11.6448 23.3955 11.3713 23.0611 11.3713C22.7266 11.3713 22.4556 11.6448 22.4556 11.9822V12.1938C21.8319 12.2742 21.348 12.8118 21.348 13.4623V14.3151C21.348 15.0209 21.9173 15.5952 22.6169 15.5952H23.5052C23.5372 15.5952 23.5632 15.6215 23.5632 15.6537V16.5571C23.5632 16.5731 23.5575 16.5869 23.5462 16.5984C23.5348 16.6096 23.5213 16.6153 23.5052 16.6153H22.6169C22.585 16.6153 22.5589 16.589 22.5589 16.5571V16.4743C22.5589 16.1369 22.2879 15.8634 21.9535 15.8634C21.619 15.8634 21.348 16.1369 21.348 16.4743V16.5571C21.348 16.6067 21.3515 16.6556 21.357 16.7041H18.6205C18.4175 16.1653 18.3149 15.5967 18.3149 15.0097C18.3149 14.1146 18.5673 13.2187 19.0427 12.462C19.1794 12.2446 19.3317 12.0373 19.5008 11.8443C20.4017 10.813 21.6983 10.2217 23.0606 10.2217C25.6774 10.2217 27.8063 12.3694 27.8063 15.0097ZM9.58605 20.4369H7.21096V13.2573H9.58605V20.4369Z" fill="#838A92"/>
</svg>
