<svg width="21" height="20" viewBox="0 0 21 20" fill="none" xmlns="http://www.w3.org/2000/svg">
<path fill-rule="evenodd" clip-rule="evenodd" d="M10.8 15.625C10.6343 15.625 10.4753 15.5592 10.3581 15.4419C10.2409 15.3247 10.175 15.1658 10.175 15L10.175 3.75C10.175 3.58424 10.2409 3.42527 10.3581 3.30806C10.4753 3.19085 10.6343 3.125 10.8 3.125C10.9658 3.125 11.1248 3.19085 11.242 3.30806C11.3592 3.42527 11.425 3.58424 11.425 3.75L11.425 15C11.425 15.1658 11.3592 15.3247 11.242 15.4419C11.1248 15.5592 10.9658 15.625 10.8 15.625Z" fill="#FEBC1F"/>
<path fill-rule="evenodd" clip-rule="evenodd" d="M11.2425 16.6924C11.1844 16.7506 11.1155 16.7967 11.0395 16.8282C10.9636 16.8598 10.8822 16.876 10.8 16.876C10.7178 16.876 10.6364 16.8598 10.5605 16.8282C10.4845 16.7967 10.4155 16.7506 10.3575 16.6924L6.60749 12.9424C6.49013 12.825 6.4242 12.6658 6.4242 12.4999C6.4242 12.3339 6.49013 12.1747 6.60749 12.0574C6.72485 11.94 6.88402 11.8741 7.04999 11.8741C7.21596 11.8741 7.37513 11.94 7.49249 12.0574L10.8 15.3661L14.1075 12.0574C14.2249 11.94 14.384 11.8741 14.55 11.8741C14.716 11.8741 14.8751 11.94 14.9925 12.0574C15.1099 12.1747 15.1758 12.3339 15.1758 12.4999C15.1758 12.6658 15.1099 12.825 14.9925 12.9424L11.2425 16.6924Z" fill="#FEBC1F"/>
</svg>
