<svg width="409" height="160" viewBox="0 0 409 160" fill="none" xmlns="http://www.w3.org/2000/svg">
<ellipse cx="204.393" cy="72.9777" rx="70.3926" ry="69.966" fill="#161618"/>
<path fill-rule="evenodd" clip-rule="evenodd" d="M133.113 21.7841C133.113 16.6006 137.315 12.3984 142.499 12.3984H319.974C325.157 12.3984 329.359 16.6006 329.359 21.7841C329.359 26.9677 325.157 31.1698 319.974 31.1698H142.499C137.315 31.1698 133.113 26.9677 133.113 21.7841ZM232.09 59.3271C232.09 54.1435 236.292 49.9414 241.476 49.9414H369.462C374.646 49.9414 378.848 54.1435 378.848 59.3271C378.848 64.5107 374.646 68.7128 369.462 68.7128H241.476C236.292 68.7128 232.09 64.5107 232.09 59.3271ZM229.53 31.1698C224.347 31.1698 220.145 35.3719 220.145 40.5555C220.145 45.7391 224.347 49.9412 229.53 49.9412H319.974C325.158 49.9412 329.36 45.7391 329.36 40.5555C329.36 35.3719 325.158 31.1698 319.974 31.1698H229.53Z" fill="#161618"/>
<rect x="298" y="31.0117" width="111" height="19" rx="9.5" fill="#0C0A0A"/>
<path fill-rule="evenodd" clip-rule="evenodd" d="M186.859 80.6572C186.859 75.4736 182.656 71.2715 177.473 71.2715H87.029C81.8454 71.2715 77.6433 75.4736 77.6433 80.6572C77.6433 85.8407 81.8454 90.0429 87.029 90.0429H177.473C182.656 90.0429 186.859 85.8407 186.859 80.6572ZM206.484 118.2C206.484 113.016 202.282 108.814 197.099 108.814H37.542C32.3585 108.814 28.1564 113.016 28.1564 118.2C28.1564 123.384 32.3585 127.586 37.5421 127.586H197.099C202.282 127.586 206.484 123.384 206.484 118.2ZM177.473 90.0429C182.656 90.0429 186.859 94.245 186.859 99.4286C186.859 104.612 182.656 108.814 177.473 108.814H87.029C81.8454 108.814 77.6433 104.612 77.6433 99.4286C77.6433 94.245 81.8454 90.0429 87.029 90.0429H177.473Z" fill="#161618"/>
<rect width="109.215" height="18.7714" rx="9.38568" transform="matrix(-1 0 0 1 109.215 90.043)" fill="#0C0A0A"/>
<path d="M271.564 52.4987C282.685 89.5993 261.624 128.691 224.524 139.812C187.423 150.933 148.332 129.872 137.211 92.7715" stroke="#838A92" stroke-width="5" stroke-linecap="round" stroke-linejoin="round"/>
<path d="M133.536 75.8846C131.984 37.1842 162.099 4.5531 200.799 3.00095" stroke="#838A92" stroke-width="5" stroke-linecap="round" stroke-linejoin="round"/>
<path d="M232.532 9.27196C248.612 16.135 260.807 28.2955 267.948 42.8491" stroke="#838A92" stroke-width="5" stroke-linecap="round" stroke-linejoin="round"/>
<path d="M211.093 3.01353C215.418 3.36404 219.619 4.09991 223.666 5.18469" stroke="#838A92" stroke-width="5" stroke-linecap="round" stroke-linejoin="round"/>
<circle cx="82.343" cy="14.5325" r="9.51879" stroke="#838A92" stroke-width="4"/>
<circle cx="303.331" cy="114.362" r="11.2253" stroke="#838A92" stroke-width="4"/>
<path fill-rule="evenodd" clip-rule="evenodd" d="M238.828 60.4858H239.188C241.78 60.4858 243.869 62.5742 243.869 65.1669V76.6896C243.869 79.2822 241.78 81.3707 239.188 81.3707H238.828V85.3316C238.828 89.8687 235.083 93.6135 230.546 93.6135H193.461C190.621 98.0552 185.646 101 179.984 101C171.156 101 164 93.8439 164 85.0164C164 77.5021 169.185 71.199 176.173 69.4899V44.642C176.245 39.8169 180.206 36 184.959 36H223.344C227.881 36 231.626 39.7449 231.626 44.2819V48.675C235.731 49.2511 238.828 52.7079 238.828 56.8849V60.4858ZM184.959 41.0412C182.943 41.0412 181.214 42.6976 181.214 44.7861C181.214 46.8746 182.943 48.603 184.959 48.603H226.513V44.2819C226.513 42.4815 225.072 41.0412 223.272 41.0412H184.959ZM226.945 76.3295H238.828V65.5269H226.945C223.992 65.5269 221.544 67.9755 221.544 70.9282C221.544 73.8809 223.992 76.3295 226.945 76.3295Z" fill="url(#paint0_linear)"/>
<path d="M227.401 74.3614C229.461 74.3614 231.131 72.6916 231.131 70.6319C231.131 68.5721 229.461 66.9023 227.401 66.9023C225.342 66.9023 223.672 68.5721 223.672 70.6319C223.672 72.6916 225.342 74.3614 227.401 74.3614Z" fill="url(#paint1_linear)"/>
<path d="M189.371 86.0459C189.393 85.7988 189.405 85.5635 189.405 85.3302C189.405 85.0968 189.393 84.8615 189.371 84.6144L190.999 83.4045C191.97 82.6829 192.258 81.3377 191.664 80.2729L190.213 77.6766C189.605 76.5922 188.26 76.1568 187.148 76.6765L185.338 77.5217C184.981 77.2726 184.612 77.051 184.23 76.8589L184.026 74.7587C183.902 73.5174 182.883 72.584 181.655 72.584H178.755C177.527 72.584 176.508 73.5174 176.386 74.7587L176.182 76.8549C175.8 77.0491 175.429 77.2687 175.074 77.5177L173.266 76.6745C172.15 76.1549 170.805 76.5922 170.197 77.6746L168.75 80.2709C168.154 81.3338 168.44 82.6809 169.413 83.4026L171.04 84.6125C171.019 84.8595 171.007 85.0949 171.007 85.3282C171.007 85.5616 171.019 85.7969 171.04 86.044L169.413 87.2539C168.44 87.9755 168.154 89.3227 168.748 90.3835L170.199 92.9818C170.805 94.0682 172.152 94.4996 173.264 93.9819L175.074 93.1367C175.431 93.3858 175.8 93.6073 176.182 93.7995L176.386 95.8997C176.51 97.1429 177.529 98.0764 178.757 98.0764H181.657C182.885 98.0764 183.904 97.1429 184.026 95.9017L184.23 93.8054C184.612 93.6113 184.983 93.3916 185.338 93.1426L187.146 93.9858C188.26 94.5055 189.607 94.0682 190.215 92.9857L191.662 90.3894C192.258 89.3266 191.972 87.9794 190.999 87.2578L189.371 86.0459ZM180.206 90.2325C177.502 90.2325 175.304 88.0324 175.304 85.3302C175.304 82.628 177.502 80.4278 180.206 80.4278C182.91 80.4278 185.108 82.628 185.108 85.3302C185.108 88.0324 182.91 90.2325 180.206 90.2325Z" fill="#B50000"/>
<defs>
<linearGradient id="paint0_linear" x1="203.934" y1="36" x2="203.934" y2="101" gradientUnits="userSpaceOnUse">
<stop stop-color="#FEC01F"/>
<stop offset="1" stop-color="#FEA51F"/>
</linearGradient>
<linearGradient id="paint1_linear" x1="227.401" y1="66.9023" x2="227.401" y2="74.3614" gradientUnits="userSpaceOnUse">
<stop stop-color="#FEC01F"/>
<stop offset="1" stop-color="#FEA51F"/>
</linearGradient>
</defs>
</svg>
