<svg width="40" height="40" viewBox="0 0 40 40" fill="none" xmlns="http://www.w3.org/2000/svg">
<path d="M21.6997 38.3796C21.5425 38.8496 21.0324 40 19.801 40C18.402 40 17.914 38.4848 17.8905 38.4225L17.8503 38.2771C17.8503 38.2771 19.0561 38.3775 19.7193 38.3775C20.3824 38.3775 21.519 38.3124 21.7031 38.2771V38.3796H21.6997Z" fill="#202020"/>
<path d="M25.3718 37.632L25.6597 37.6708C25.3171 38.5644 24.7017 39.5667 23.4918 39.5667C22.3212 39.5667 21.7405 38.8884 21.4927 38.4322L21.2913 38.3076C21.2913 38.3076 23.3152 38.2384 25.3711 37.632H25.3718Z" fill="#202020"/>
<path d="M14.2725 37.632L13.9832 37.6708C14.3258 38.5644 14.9418 39.5667 16.1518 39.5667C16.5646 39.5734 16.972 39.4723 17.3338 39.2733C17.6956 39.0743 17.9991 38.7844 18.2146 38.4322L18.353 38.3076C18.353 38.3076 16.329 38.2384 14.2732 37.632H14.2725Z" fill="#202020"/>
<path d="M20.7825 38.473C20.5929 38.7499 20.4662 38.7347 20.2378 38.7347C20.1229 38.7347 19.9512 38.8295 19.9567 39.0019C19.9602 39.1362 20.0703 39.249 20.2565 39.249C20.6718 39.249 20.9847 38.671 21.0739 38.4274C21.0739 38.4274 21.3176 38.4163 21.3896 38.4094C21.3896 38.4094 20.9514 39.7142 19.8162 39.7142C18.681 39.7142 18.2145 38.4239 18.2145 38.4239C18.2145 38.4239 19.1718 38.4827 19.7207 38.4827C20.2696 38.4827 20.6206 38.4827 20.7825 38.473Z" fill="#DBDBDB"/>
<path d="M25.2203 37.8992C24.4776 38.0992 23.9508 38.2605 22.7042 38.4121C22.7042 38.4121 22.7429 38.5408 23.0143 38.527C23.0682 38.5234 23.1211 38.5105 23.1707 38.4889C23.1966 38.4879 23.2224 38.4927 23.2463 38.5028C23.2702 38.5129 23.2915 38.5281 23.3088 38.5474C23.3261 38.5667 23.339 38.5896 23.3465 38.6144C23.3539 38.6392 23.3558 38.6654 23.3521 38.691C23.341 38.7859 23.26 38.9049 22.9845 38.9049C22.709 38.9049 22.3858 38.6793 22.2231 38.4702C22.112 38.494 21.9993 38.5097 21.886 38.5173C22.0758 38.7522 22.3162 38.9412 22.5892 39.0703C22.8622 39.1993 23.1608 39.2651 23.4628 39.2628C24.6146 39.2628 25.0396 38.2342 25.2203 37.9012V37.8992Z" fill="#DBDBDB"/>
<path d="M24.4476 38.6253C24.4478 38.4523 24.3955 38.2833 24.2974 38.1407C23.79 38.2576 23.2766 38.3463 22.7594 38.4066C22.7539 38.4264 22.7495 38.4465 22.7462 38.4668C22.8248 38.5198 22.9203 38.5415 23.0141 38.5277C23.068 38.5241 23.121 38.5112 23.1705 38.4896C23.1964 38.4886 23.2222 38.4934 23.2461 38.5035C23.27 38.5136 23.2913 38.5288 23.3086 38.5481C23.326 38.5674 23.3388 38.5903 23.3463 38.6151C23.3538 38.6399 23.3557 38.6661 23.3519 38.6917C23.3408 38.7866 23.2598 38.9056 22.9843 38.9056C22.9094 38.9046 22.8352 38.8908 22.7649 38.8648C22.8006 38.9885 22.8638 39.1025 22.9497 39.1984C23.1174 39.2405 23.2897 39.2616 23.4626 39.2614C23.7819 39.2663 24.0954 39.1754 24.3625 39.0005C24.4194 38.8838 24.4487 38.7557 24.4483 38.626L24.4476 38.6253Z" fill="#CFCFCF"/>
<path d="M24.4359 38.6253C24.4369 38.4522 24.3845 38.2829 24.2857 38.1407C23.7861 38.2545 23.2808 38.3417 22.7719 38.4017C22.7657 38.4245 22.7608 38.4481 22.756 38.4709C22.8338 38.5166 22.9247 38.5351 23.0142 38.5235C23.0681 38.5199 23.121 38.507 23.1706 38.4855C23.1965 38.4845 23.2223 38.4892 23.2462 38.4993C23.2701 38.5094 23.2914 38.5247 23.3087 38.544C23.326 38.5633 23.3389 38.5861 23.3464 38.611C23.3538 38.6358 23.3557 38.6619 23.352 38.6876C23.3409 38.7824 23.2599 38.9015 22.9844 38.9015C22.9137 38.9007 22.8436 38.8885 22.7767 38.8655C22.8142 38.9899 22.8798 39.1041 22.9685 39.1991C23.1296 39.2383 23.2948 39.2578 23.4606 39.2573C23.7728 39.2638 24.0801 39.1789 24.3446 39.0129C24.4063 38.8931 24.4384 38.7601 24.438 38.6253H24.4359Z" fill="#D1D1D1"/>
<path d="M24.425 38.6253C24.4253 38.4536 24.3723 38.286 24.2734 38.1456C23.7821 38.258 23.2851 38.3438 22.7845 38.4024C22.7774 38.4284 22.7716 38.4547 22.7672 38.4813C22.8431 38.521 22.9292 38.5369 23.0143 38.527C23.0683 38.5234 23.1212 38.5105 23.1708 38.4889C23.1967 38.4879 23.2225 38.4927 23.2463 38.5028C23.2702 38.5129 23.2916 38.5281 23.3089 38.5474C23.3262 38.5667 23.339 38.5896 23.3465 38.6144C23.354 38.6392 23.3559 38.6654 23.3521 38.6911C23.341 38.7859 23.2601 38.9049 22.9846 38.9049C22.9192 38.9043 22.8543 38.8935 22.7921 38.8731C22.8312 38.9988 22.8995 39.1134 22.9915 39.2074C23.1461 39.2431 23.3042 39.261 23.4629 39.2607C23.7659 39.2649 24.0639 39.1833 24.3226 39.0254C24.3899 38.9028 24.4251 38.7652 24.425 38.6253Z" fill="#D2D2D2"/>
<path d="M14.424 37.8992C15.166 38.0992 15.6934 38.2605 16.9394 38.4121C16.9394 38.4121 16.9006 38.5408 16.63 38.527C16.576 38.5234 16.5231 38.5105 16.4735 38.4889C16.4477 38.4879 16.4219 38.4926 16.398 38.5028C16.3742 38.5129 16.3529 38.5281 16.3356 38.5474C16.3184 38.5667 16.3056 38.5896 16.2982 38.6145C16.2908 38.6393 16.289 38.6654 16.2929 38.691C16.3026 38.7859 16.3836 38.9049 16.6597 38.9049C16.9359 38.9049 17.2585 38.6793 17.4212 38.4702C17.5325 38.494 17.6454 38.5097 17.759 38.5173C17.569 38.7524 17.3284 38.9415 17.0551 39.0706C16.7819 39.1996 16.483 39.2654 16.1807 39.2628C15.0296 39.2628 14.6046 38.2342 14.424 37.9012V37.8992Z" fill="#DBDBDB"/>
<path d="M19.7069 31.7795C23.6739 31.7795 28.0687 29.3436 31.151 25.8335C31.4847 25.4542 32.0509 24.735 33.3917 24.735C34.7324 24.735 36.5169 25.9567 36.3065 28.1828C36.1535 29.806 33.834 33.4629 29.8691 35.7181C25.9042 37.9733 22.2466 38.4578 19.7069 38.4578C17.1672 38.4578 13.5138 37.9733 9.54684 35.7181C5.57985 33.4629 3.25961 29.806 3.1094 28.1828C2.90174 25.9567 4.68276 24.735 6.02424 24.735C7.36572 24.735 7.93194 25.4542 8.26489 25.8335C11.3472 29.3436 15.7406 31.7795 19.7097 31.7795H19.7069Z" fill="#DBDBDB"/>
<path d="M19.1947 4.4419L3.92554 14.7321L5.66987 17.3528L6.39599 27.2671L15.5372 36.6194L29.1395 32.3049L34.6217 26.1838L32.2696 25.3241L34.5975 12.9539L22.7249 3.7677L19.1947 4.4419Z" fill="#DBDBDB"/>
<path d="M19.9449 10.8433C19.8909 10.8197 19.6999 10.9741 19.6127 11.1125C19.5254 11.251 19.4998 11.4289 19.6237 11.4939C19.7476 11.559 19.9006 11.4746 19.9401 11.2579C19.9622 11.1305 20.0031 10.8689 19.9449 10.8426V10.8433ZM18.4747 11.2586C18.5065 11.4766 18.6671 11.5604 18.791 11.4946C18.9149 11.4289 18.8893 11.251 18.8021 11.1132C18.7149 10.9755 18.5342 10.8204 18.4809 10.844C18.4276 10.8675 18.456 11.1347 18.4747 11.2593V11.2586ZM19.2458 13.3954C19.4063 13.1254 19.5292 12.8348 19.6113 12.5315H18.8762C18.9622 12.8346 19.0877 13.125 19.2493 13.3954H19.2458ZM19.3725 10.2113L19.9698 9.17301L20.4343 10.2113H21.2054C20.7402 10.6481 20.5513 11.3077 20.5513 11.7438V12.2242C20.5375 12.407 20.5034 12.5876 20.4495 12.7627C20.4495 12.7627 21.1175 13.2729 21.2206 13.3587C21.2642 13.3954 21.3099 13.4162 21.2788 13.5048C21.2255 13.655 20.7742 13.8557 20.725 13.8973C20.6233 13.9845 20.5963 14.0419 20.6253 14.1298C20.6544 14.2177 20.7396 14.2323 20.914 14.1734C21.0884 14.1146 21.4525 13.9263 21.7585 13.7955C22.0644 13.6647 22.4707 13.6931 22.4707 13.6931V13.1109H21.3217V11.2489L21.1175 10.9243L21.6276 10.0244L22.1364 10.9312L21.9329 11.251V12.2256H22.522V11.2503L22.3185 10.9305L22.8272 10.0306L23.336 10.9305L23.1332 11.2503V12.2256H23.7215V11.2503L23.518 10.9305L24.0268 10.0306L24.5363 10.9305L24.3286 11.2503L24.3348 13.1116H23.1844V13.9665C23.4467 14.2136 23.6945 14.7708 23.6945 15.1051C23.6986 15.1968 23.6809 15.2881 23.6429 15.3716C23.6049 15.4551 23.5476 15.5284 23.4758 15.5855C23.5485 15.8472 23.534 15.9565 23.5049 16.1967C23.4758 16.4369 23.1699 16.8197 23.1699 16.8197V21.2588C23.1699 21.5606 22.4714 21.5315 22.4714 21.2726V16.9249C22.079 16.4882 21.0019 16.1538 21.0019 16.1538C20.6094 16.5463 20.3623 17.2302 20.3623 17.2302C20.5367 17.3465 20.7984 17.2302 20.9001 17.1139C20.9538 17.0586 21.0238 17.022 21.0998 17.0096C21.1759 16.9971 21.2539 17.0094 21.3224 17.0447C21.4387 17.1139 21.4684 17.1464 21.4241 17.3216C21.3618 17.539 21.3229 17.7625 21.3078 17.9881C21.3078 18.1916 21.5404 18.148 21.7156 18.1633C22.0617 18.1916 22.1226 18.5848 22.0935 18.8029C22.0644 19.0209 21.962 19.4868 21.962 19.7782C21.958 20.0263 21.9728 20.2743 22.0063 20.5202C22.0347 20.6801 22.0935 20.8545 22.0755 21.058C22.0554 21.3349 21.8865 21.3785 21.7121 21.2041C21.5377 21.0297 19.1074 18.4395 19.1074 18.4395C18.9475 18.9628 19.6168 19.8647 19.8349 20.1416C20.0529 20.4184 20.0384 20.622 19.8494 20.8109C19.6604 20.9999 19.2956 21.1016 19.2264 21.2761C19.1572 21.4505 19.4015 21.9745 19.9103 22.6293C20.4191 23.2841 19.3282 23.7209 18.674 23.8517C18.0199 23.9826 18.0192 23.5313 18.0628 23.2841C18.1008 23.0827 18.1106 22.877 18.0919 22.6729C18.0774 22.4549 17.8739 22.1496 17.597 21.7855C17.3201 21.4214 17.3201 21.0871 17.4371 20.2433C17.506 19.7852 17.5352 19.322 17.5243 18.8589C17.5243 18.8589 17.2336 18.8735 16.8113 18.8589C16.3891 18.8444 16.0402 18.5994 16.0112 17.5804C15.9821 16.5615 15.9579 14.1326 15.89 13.8799C15.8222 13.6273 15.5508 13.5795 15.4346 13.5512C15.3183 13.5228 15.3093 13.347 15.4256 13.2888C15.7287 13.1372 16.0935 12.7655 15.9579 12.5322C15.8222 12.299 15.2885 12.3481 14.9299 12.5225C14.5714 12.697 14.1928 13.0763 14.0958 13.1822C13.9989 13.2881 13.9214 13.2888 13.9311 13.1725C13.9408 13.0562 13.8619 12.5032 13.8148 12.3094C13.7426 12.0808 13.6482 11.8599 13.5331 11.6497C13.4749 11.5528 13.5331 11.5112 13.63 11.5528C13.7269 11.5943 13.9408 11.6788 14.1443 11.7369C14.2409 11.7649 14.3444 11.7569 14.4355 11.7144C14.5267 11.6719 14.5993 11.5977 14.6399 11.5057C14.7368 11.3119 14.9209 10.8945 15.0178 10.7104C15.1148 10.5263 15.2705 10.565 15.3965 10.5941C15.5225 10.6232 15.6388 10.7007 15.755 10.7491C15.8713 10.7976 15.9682 10.7879 16.007 10.7298C16.0701 10.6637 16.1226 10.5883 16.1627 10.5062C16.232 10.3608 16.3178 10.4287 16.3275 10.4875C16.6736 12.5731 17.5783 12.6693 17.5783 12.6693C17.4398 13.0154 17.1228 13.5692 17.0453 13.7076C16.9752 13.8539 16.9323 14.0118 16.9186 14.1734C16.8992 14.3188 16.9678 15.6963 17.0647 16.2009C17.1616 16.7055 17.4717 16.5117 17.5686 16.3559C17.6655 16.2002 17.9666 15.5606 17.9666 15.5606C18.0117 15.4581 18.0385 15.3484 18.0455 15.2367C18.0455 15.0913 17.7929 14.7715 17.7347 14.6739C17.6766 14.5763 17.4634 14.3839 17.4634 13.8986C17.4634 13.4134 17.9002 13.0735 18.0552 12.9476C18.1138 12.8992 18.1578 12.8356 18.1822 12.7637C18.2067 12.6918 18.2106 12.6146 18.1937 12.5405C18.1244 12.1654 17.7278 11.377 17.534 11.0759C17.3402 10.7748 16.9615 10.203 16.9615 10.203H17.7472L18.2518 9.1557L18.8056 10.2078L19.3773 10.2127L19.3725 10.2113ZM22.4714 15.4976V14.9009C22.4714 14.9009 22.3115 14.6538 21.9177 14.6538C21.5238 14.6538 21.2947 14.7701 21.2947 14.8719C21.2947 15.0318 21.6408 15.4948 22.4714 15.4948V15.4976Z" fill="#626262"/>
<path d="M33.8611 29.046L26.6927 35.8496L13.635 35.3588L5.39928 29.046L4.75208 17.8151H35.5874L33.8611 29.046Z" fill="url(#paint0_linear)" stroke="#4D4D4D" stroke-width="1.56" stroke-miterlimit="10"/>
<path d="M19.7069 31.6362C21.6292 31.6362 23.6525 31.0568 25.5816 30.0559C27.589 29.0127 29.4856 27.5148 31.0444 25.74C31.2161 25.5441 31.4466 25.2617 31.8155 25.0229C32.1845 24.7841 32.6898 24.5917 33.3917 24.5917C33.4644 24.5917 33.5426 24.5958 33.6243 24.6034C34.4136 24.6927 35.1417 25.0721 35.6669 25.6681C36.1922 26.2641 36.4771 27.0341 36.4664 27.8284C36.4664 27.944 36.4602 28.0665 36.4484 28.1959C36.3605 29.1283 35.5859 30.7031 34.2182 32.3034C33.0047 33.7195 31.5568 34.9162 29.9376 35.8413C28.1704 36.8531 26.2664 37.6045 24.2844 38.0722C21.2734 38.7764 18.1405 38.7764 15.1294 38.0722C13.1475 37.6046 11.2434 36.8532 9.47626 35.8413C7.85713 34.9164 6.40917 33.7199 5.19571 32.3041C3.82793 30.7031 3.05336 29.1283 2.96545 28.1959C2.95299 28.0665 2.94745 27.944 2.94745 27.8284C2.93643 27.0341 3.22118 26.264 3.74634 25.668C4.2715 25.072 4.99954 24.6925 5.78892 24.6034C5.87129 24.5958 5.94882 24.5917 6.0215 24.5917C6.72408 24.5917 7.22662 24.7827 7.59763 25.0229C7.88902 25.2224 8.14914 25.4641 8.36944 25.74C9.9104 27.5013 11.7618 28.9644 13.8316 30.0566C15.7579 31.0575 17.784 31.6369 19.7062 31.6369L19.7069 31.6362ZM19.7069 31.922C17.7376 31.922 15.6666 31.3302 13.7 30.3085C11.6636 29.2509 9.73791 27.7294 8.15555 25.9276C7.99357 25.7435 7.77484 25.477 7.44258 25.2617C7.11033 25.0465 6.6604 24.8776 6.0215 24.8776C5.95216 24.8771 5.88284 24.8804 5.81384 24.8872C5.09528 24.9696 4.43305 25.3164 3.95597 25.86C3.47888 26.4036 3.22106 27.1052 3.23264 27.8284C3.23264 27.9426 3.23817 28.0561 3.24856 28.1696C3.33162 29.0522 4.07919 30.5626 5.41237 32.1152C6.60347 33.5076 8.02549 34.6845 9.61608 35.5942C11.3597 36.5923 13.2384 37.3334 15.1938 37.7947C18.1621 38.4887 21.2504 38.4887 24.2187 37.7947C26.1741 37.3334 28.0528 36.5923 29.7964 35.5942C31.3868 34.6854 32.8091 33.5097 34.0008 32.1186C35.3305 30.5626 36.0816 29.0522 36.1646 28.1731C36.175 28.0596 36.1805 27.9461 36.1805 27.8319C36.1918 27.1084 35.9335 26.4067 35.4561 25.8631C34.9786 25.3195 34.3161 24.9729 33.5973 24.8907C33.5283 24.8839 33.4589 24.8806 33.3896 24.881C32.7514 24.881 32.2994 25.0506 31.9692 25.2652C31.639 25.4798 31.4155 25.7497 31.2563 25.9311C29.6739 27.7308 27.7482 29.2536 25.7111 30.312C23.7466 31.3302 21.6755 31.9255 19.7069 31.9255V31.922Z" fill="#202020"/>
<path d="M19.6736 38.1096C16.1898 38.1096 12.8264 37.2029 9.67829 35.4101C7.924 34.4092 6.38013 33.078 5.13194 31.4902C4.14348 30.2262 3.48243 28.9401 3.40629 28.1337C3.30453 27.0552 3.72193 26.3464 4.09018 25.9422C4.58302 25.4009 5.32852 25.0513 5.98818 25.0513C7.11993 25.0513 7.60931 25.6127 7.93257 25.9844L7.97825 26.0363C11.26 29.7742 15.7412 32.0951 19.6764 32.0951C23.6115 32.0951 28.0873 29.7797 31.369 26.0419L31.4154 25.9893C31.7379 25.6182 32.2273 25.0569 33.3591 25.0569C34.0194 25.0569 34.7642 25.4064 35.2564 25.9477C35.6253 26.352 36.0427 27.0608 35.941 28.1392C35.8088 29.5465 33.5999 33.1812 29.669 35.4156C26.5208 37.2029 23.1575 38.1096 19.6736 38.1096Z" fill="#626262"/>
<path d="M33.3592 25.27C33.9614 25.27 34.6439 25.5926 35.0973 26.0903C35.4365 26.4634 35.8206 27.1168 35.7265 28.1171C35.5977 29.4841 33.427 33.0317 29.5659 35.2259C26.451 36.9959 23.1237 37.8937 19.6772 37.8937C16.2308 37.8937 12.9034 36.9938 9.78847 35.2259C5.92393 33.0289 3.75389 29.4841 3.62791 28.1171C3.53377 27.1168 3.91794 26.4634 4.25712 26.0903C4.71051 25.5926 5.39301 25.27 5.99522 25.27C7.02867 25.27 7.4613 25.767 7.77694 26.1298L7.82332 26.1824C11.1459 29.9645 15.6881 32.3145 19.6807 32.3145C23.6733 32.3145 28.2168 29.9611 31.538 26.1824L31.5844 26.1298C31.9 25.767 32.3326 25.27 33.3661 25.27H33.3592ZM33.3661 24.8388C32.1354 24.8388 31.5872 25.4694 31.2591 25.8466L31.2141 25.8972C27.9718 29.5894 23.5528 31.8833 19.6807 31.8833C15.8085 31.8833 11.3826 29.5894 8.14034 25.8979L8.09466 25.8453C7.76794 25.4694 7.21834 24.8388 5.9883 24.8388C5.25942 24.8388 4.471 25.2071 3.93109 25.8003C3.53308 26.237 3.08246 27.0005 3.19113 28.1579C3.27143 29.0031 3.95255 30.3321 4.96246 31.6265C6.22793 33.2365 7.79319 34.5862 9.57181 35.6011C12.7559 37.4091 16.1518 38.3256 19.6737 38.3256C23.1956 38.3256 26.5957 37.4091 29.7757 35.6011C31.5545 34.5862 33.12 33.2365 34.3857 31.6265C35.3984 30.3321 36.0767 29.0024 36.1563 28.1579C36.265 26.9998 35.8137 26.2364 35.4164 25.8003C34.8765 25.2071 34.0881 24.8388 33.3592 24.8388H33.3661Z" fill="#DBDBDB"/>
<path d="M32.4496 21.7205C32.4494 21.0388 32.6515 20.3724 33.0301 19.8055C33.4087 19.2387 33.9469 18.7968 34.5767 18.5359C35.2064 18.2749 35.8994 18.2066 36.568 18.3395C37.2366 18.4724 37.8507 18.8005 38.3328 19.2825C38.8149 19.7645 39.1432 20.3786 39.2762 21.0471C39.4093 21.7157 39.341 22.4087 39.0802 23.0385C38.8194 23.6683 38.3776 24.2066 37.8109 24.5853C37.2441 24.9641 36.5777 25.1662 35.896 25.1662C34.9821 25.1662 34.1056 24.8032 33.4593 24.157C32.813 23.5108 32.4498 22.6344 32.4496 21.7205Z" fill="#DBDBDB"/>
<path d="M32.3049 21.7205C32.3051 20.8905 32.5931 20.0862 33.1197 19.4447C33.6464 18.8033 34.3792 18.3642 35.1933 18.2024C36.0073 18.0406 36.8523 18.1661 37.5843 18.5575C38.3162 18.9488 38.8898 19.5819 39.2073 20.3487C39.5249 21.1156 39.5667 21.9688 39.3257 22.763C39.0847 23.5573 38.5757 24.2434 37.8856 24.7044C37.1954 25.1655 36.3668 25.373 35.5408 25.2916C34.7148 25.2103 33.9426 24.845 33.3557 24.2581C33.0221 23.9251 32.7576 23.5295 32.5773 23.0941C32.397 22.6586 32.3044 22.1918 32.3049 21.7205ZM32.5901 21.7205C32.5898 22.4848 32.8545 23.2256 33.3391 23.8167C33.8237 24.4078 34.4983 24.8125 35.2479 24.962C35.9975 25.1114 36.7757 24.9964 37.45 24.6364C38.1242 24.2764 38.6528 23.6938 38.9457 22.9878C39.2386 22.2818 39.2776 21.4961 39.0561 20.7645C38.8346 20.033 38.3663 19.4009 37.731 18.9759C37.0957 18.5509 36.3327 18.3593 35.572 18.4338C34.8113 18.5082 34.1 18.8442 33.5592 19.3843C33.2516 19.6906 33.0076 20.0547 32.8413 20.4556C32.675 20.8565 32.5896 21.2864 32.5901 21.7205Z" fill="#202020"/>
<path d="M0.142578 21.726C0.142578 21.0443 0.344709 20.378 0.72341 19.8112C1.10211 19.2445 1.64037 18.8027 2.27013 18.5419C2.89989 18.281 3.59285 18.2128 4.2614 18.3458C4.92994 18.4787 5.54404 18.807 6.02604 19.289C6.50803 19.771 6.83628 20.3851 6.96926 21.0536C7.10224 21.7222 7.03399 22.4151 6.77314 23.0449C6.51228 23.6746 6.07054 24.2129 5.50378 24.5916C4.93701 24.9703 4.27067 25.1724 3.58903 25.1724C2.67497 25.1724 1.79836 24.8093 1.15202 24.163C0.505685 23.5167 0.142578 22.64 0.142578 21.726Z" fill="#DBDBDB"/>
<path d="M3.61251e-06 21.726C0.000118415 20.8958 0.288081 20.0914 0.814825 19.4497C1.34157 18.808 2.07451 18.3688 2.88875 18.207C3.703 18.0451 4.54818 18.1706 5.28028 18.562C6.01239 18.9535 6.58612 19.5866 6.90372 20.3537C7.22133 21.1207 7.26315 21.9741 7.02208 22.7685C6.781 23.5629 6.27193 24.2492 5.58162 24.7103C4.8913 25.1715 4.06244 25.379 3.23627 25.2975C2.4101 25.2161 1.63773 24.8507 1.05076 24.2636C0.717075 23.9307 0.452467 23.5351 0.272143 23.0996C0.0918185 22.6642 -0.000666212 22.1973 3.61251e-06 21.726ZM0.285189 21.726C0.284862 22.4903 0.549562 23.2311 1.03419 23.8222C1.51882 24.4133 2.19339 24.818 2.94297 24.9675C3.69256 25.1169 4.47078 25.0019 5.14504 24.6419C5.81931 24.2819 6.3479 23.6993 6.64077 22.9933C6.93363 22.2873 6.97264 21.5016 6.75116 20.77C6.52967 20.0385 6.06139 19.4064 5.4261 18.9814C4.79081 18.5564 4.02781 18.3648 3.26711 18.4393C2.50641 18.5137 1.79506 18.8497 1.25427 19.3898C0.946609 19.696 0.70259 20.0601 0.53627 20.4611C0.36995 20.862 0.284618 21.2919 0.285189 21.726Z" fill="#202020"/>
<path d="M36.8394 12.4512L36.8588 11.5285C37.1405 11.741 37.6763 11.7486 37.9905 11.4136C38.0659 11.3276 38.1235 11.2274 38.1598 11.1189C38.1962 11.0104 38.2106 10.8958 38.2023 10.7816C38.1839 10.4953 38.0607 10.2257 37.8562 10.0244C36.6961 8.89333 35.6703 7.76228 35.6703 7.76228C35.5793 7.62097 35.4525 7.50633 35.3027 7.43002C35.1574 7.36565 34.6555 7.13584 34.2727 7.71798C33.9266 8.24612 33.9772 8.993 34.0395 9.26365L35.1317 10.7443C35.5035 11.215 36.5494 12.2186 36.8394 12.4519V12.4512Z" fill="#202020"/>
<path d="M13.635 2.85326C15.0035 2.39503 16.2522 2.0164 17.9363 1.86688L13.635 2.85326Z" fill="#202020"/>
<path d="M13.635 2.85811C15.0034 2.39849 16.2522 2.02055 17.9363 1.87103L18.1924 1.72636C17.251 0.986404 16.3172 0.480408 15.3876 0.480408C14.8034 0.480408 13.617 0.876345 13.3505 2.96886L13.635 2.85534V2.85811Z" fill="#202020"/>
<path d="M25.7809 2.85811C24.4125 2.39849 23.1637 2.02055 21.4803 1.87103L21.2235 1.72636C22.1649 0.986404 23.0987 0.480408 24.029 0.480408C24.6125 0.480408 25.7996 0.876345 26.0654 2.96886L25.7809 2.85534V2.85811Z" fill="#202020"/>
<path d="M18.5849 1.66058C18.8618 1.64605 19.5055 1.6322 19.7617 1.6322C20.0178 1.6322 20.7307 1.66612 20.883 1.6772L18.5842 1.66058H18.5849Z" fill="#202020"/>
<path d="M18.1611 1.79971C18.8492 0.480385 19.4798 0 19.8286 0C20.2647 0 20.7756 0.692198 21.1763 1.5879L21.2608 1.78933L20.9147 1.76026C20.678 1.71734 20.0211 1.71042 19.7643 1.71042C19.5075 1.71042 18.9509 1.71042 18.6159 1.7388L18.1632 1.79971H18.1611Z" fill="#202020"/>
<path d="M27.155 11.9605L27.0657 11.8802C26.8089 11.6476 26.3783 11.2572 26.0405 11.0495L26.1893 10.8066C26.5541 11.0302 26.9951 11.4296 27.2574 11.6663L27.346 11.7452L27.1557 11.9584L27.155 11.9605Z" fill="#202020"/>
<path d="M13.345 11.0475C13.1913 11.1555 12.974 11.3244 12.7753 11.4898C12.5428 11.6816 12.333 11.8643 12.2763 11.9259L12.0686 11.7328C12.1316 11.6636 12.3538 11.4704 12.5968 11.2704C12.8079 11.096 13.0335 10.9181 13.183 10.8135L13.3471 11.0475H13.345Z" fill="#202020"/>
<path d="M17.7222 1.76512C16.0713 1.91187 15.0559 2.26281 13.7151 2.71274C13.8148 2.13545 13.949 1.7935 14.1816 1.45363C14.1629 1.75197 14.4066 2.06969 14.8918 2.06969C15.3771 2.06969 15.6463 1.79281 15.6463 1.62184C15.6463 1.45087 15.5439 1.21206 15.2829 1.21206C15.022 1.21206 14.9666 1.39826 14.9846 1.47302C15.0026 1.54777 14.9472 1.56646 14.8731 1.58515C14.7991 1.60384 14.5963 1.49171 14.6655 1.23075C14.7472 0.943485 15.0946 0.787741 15.5044 0.787741C15.5044 0.787741 16.4804 0.748286 17.7195 1.76512H17.7222Z" fill="#DBDBDB"/>
<path d="M25.7131 2.72381C24.3716 2.27388 23.3105 1.92294 21.6603 1.77619C22.4217 1.24735 23.1298 0.797424 23.9092 0.797424C24.319 0.797424 24.6658 0.953861 24.7482 1.24043C24.8222 1.50139 24.6173 1.61352 24.5405 1.59484C24.4637 1.57615 24.4104 1.55746 24.4291 1.4827C24.4478 1.40794 24.3917 1.22174 24.1307 1.22174C23.8698 1.22174 23.7673 1.46401 23.7673 1.63221C23.7673 1.80042 24.0373 2.07937 24.5218 2.07937C25.0064 2.07937 25.2507 1.76166 25.232 1.46332C25.4646 1.80319 25.6113 2.14721 25.711 2.72381H25.7131Z" fill="#DBDBDB"/>
<path d="M18.7378 1.45844C18.6935 1.52766 18.654 1.58235 18.6069 1.66126C18.8797 1.64672 19.5068 1.63288 19.7601 1.63288C20.0135 1.63288 20.7071 1.6661 20.8593 1.67718C20.6136 1.10819 20.1498 0.321855 19.8252 0.321855C19.7615 0.321855 19.6175 0.288629 19.3538 0.595273C19.3538 0.595273 19.3123 0.733712 19.4812 0.70464C19.6958 0.672107 19.7767 0.89361 19.7615 1.00298C19.7234 1.25978 19.4258 1.5069 19.1275 1.5069C18.8291 1.5069 18.7378 1.45844 18.7378 1.45844Z" fill="#DBDBDB"/>
<path d="M4.36507 10.7443L5.45459 9.26365C5.51689 8.993 5.5688 8.24612 5.22132 7.71798C4.83854 7.13584 4.33669 7.36565 4.19064 7.43002C4.04116 7.50671 3.91442 7.62127 3.82308 7.76228C3.82308 7.76228 2.77856 8.91686 1.62259 10.0521C1.462 10.2099 1.28064 10.5082 1.2661 10.7803C1.25383 11.0156 1.33521 11.2463 1.49245 11.4219C1.80671 11.7569 2.35701 11.7396 2.63873 11.5271L2.65742 12.4498C2.94745 12.218 3.99405 11.2143 4.36507 10.7443Z" fill="#202020"/>
<path d="M19.7068 8.58747C25.9096 8.58747 29.4419 14.4123 30.2095 15.4354C31.5794 17.2621 33.2552 18.7427 35.1933 18.2512C38.0473 17.5279 37.8929 13.2999 37.8929 13.2999C37.2104 12.805 36.0358 12.1814 33.8969 9.1523C31.8071 6.18346 27.069 1.7804 19.7068 1.7804C12.3446 1.7804 7.60512 6.18346 5.51192 9.1523C3.3758 12.182 2.20114 12.8057 1.51655 13.3006C1.51655 13.3006 1.36427 17.5286 4.21612 18.2519C6.15774 18.7434 7.83147 17.2628 9.19995 15.4361C9.97036 14.413 13.5033 8.58747 19.7068 8.58747Z" fill="#DBDBDB"/>
<path d="M19.7069 8.44479C25.4743 8.44479 28.9505 13.3982 30.0809 15.0103C30.1833 15.1556 30.2671 15.2747 30.3231 15.3502C30.9994 16.25 31.7477 17.0661 32.5645 17.5929C33.3653 18.1093 34.232 18.3481 35.1602 18.1127C37.6936 17.4711 37.7594 13.9159 37.7546 13.3732L37.5774 13.25C36.8595 12.7544 35.7084 11.9584 33.7841 9.23528C32.1578 6.96538 30.0214 5.10895 27.5467 3.81537C25.1202 2.57247 22.4329 1.92429 19.7065 1.92429C16.9802 1.92429 14.2929 2.57247 11.8664 3.81537C9.39189 5.10893 7.25567 6.96538 5.62967 9.23528C3.70744 11.9605 2.55424 12.7565 1.83574 13.25L1.65784 13.3746C1.65369 13.9173 1.71875 17.4724 4.25289 18.1141C5.18043 18.3494 6.04776 18.1106 6.84794 17.5943C7.66473 17.0675 8.41369 16.2521 9.08997 15.3515C9.14603 15.2761 9.22841 15.157 9.33154 15.0117C10.4626 13.3995 13.9388 8.44618 19.7062 8.44618L19.7069 8.44479ZM19.7069 8.72998C14.0869 8.72998 10.6751 13.592 9.56551 15.1743C9.46721 15.3128 9.38761 15.4277 9.3177 15.5204C8.6255 16.4459 7.85093 17.2848 7.00299 17.8324C6.13844 18.3903 5.19843 18.6464 4.18436 18.3896C1.21691 17.6379 1.37335 13.3054 1.37404 13.2957V13.2265L1.43149 13.185C1.50971 13.1289 1.58724 13.0749 1.67169 13.0168C2.37288 12.5322 3.50047 11.7549 5.39363 9.07123C7.04641 6.76395 9.218 4.87712 11.7335 3.56272C14.2001 2.29846 16.932 1.6391 19.7038 1.6391C22.4755 1.6391 25.2075 2.29846 27.6741 3.56272C30.1896 4.87712 32.3611 6.76395 34.0139 9.07123C35.9071 11.7549 37.034 12.5322 37.7359 13.0168C37.8203 13.0749 37.8985 13.1289 37.9761 13.185L38.0342 13.2265V13.2957C38.0342 13.3082 38.1913 17.6379 35.2246 18.3896C34.2112 18.6464 33.2705 18.3896 32.4066 17.8324C31.5587 17.2848 30.7862 16.448 30.0919 15.5204C30.0227 15.4277 29.9417 15.3128 29.8441 15.1743C28.7366 13.592 25.322 8.72998 19.7027 8.72998H19.7069Z" fill="#202020"/>
<path d="M19.7068 8.03776C25.6861 8.03776 29.2453 13.1102 30.4151 14.777C30.5093 14.912 30.5917 15.0283 30.6491 15.1058C32.2308 17.2149 33.674 18.0698 35.0591 17.7188C37.0665 17.2108 37.3094 14.453 37.3371 13.6203V13.5892L37.3115 13.5712C36.6062 13.0866 35.4267 12.2712 33.4504 9.46853C32.2688 7.79341 27.7883 2.3299 19.7055 2.3299C11.6227 2.3299 7.14208 7.79341 5.96119 9.46853C3.99881 12.2519 2.7667 13.1019 2.10496 13.5587L2.07935 13.5767V13.6079C2.10842 14.444 2.35622 17.2128 4.35252 17.7188C5.73692 18.0698 7.18084 17.2149 8.76251 15.1058C8.82066 15.0283 8.90095 14.912 8.99717 14.777C10.167 13.1102 13.7256 8.03776 19.7055 8.03776H19.7068Z" fill="#626262"/>
<path d="M34.2999 9.39309C34.2535 9.19374 34.1877 8.34164 34.511 7.89171C34.81 7.4764 35.0827 7.61483 35.2281 7.68405C35.3076 7.7231 35.3765 7.78062 35.4291 7.8518C35.4817 7.92298 35.5165 8.00574 35.5306 8.09314C35.5479 8.26452 35.5032 8.43642 35.4046 8.57768C35.197 8.84349 34.7339 9.02 34.7339 9.02C34.7339 9.02 35.3305 10.1898 36.5959 11.3513L36.5917 12.1404C34.8612 10.4695 34.2999 9.39655 34.2999 9.39655V9.39309Z" fill="#DBDBDB"/>
<path d="M35.1678 9.15225C35.3395 9.44712 35.7742 10.1691 36.8623 11.1894C37.0437 11.3583 37.4936 11.4995 37.7477 11.2143C37.8548 11.0903 37.9087 10.9292 37.8979 10.7658C37.8785 10.5536 37.7848 10.355 37.6335 10.2051C37.4161 10.0189 36.4803 9.07403 35.8102 8.3313C35.7823 8.45747 35.7374 8.57926 35.6766 8.69332C35.555 8.89227 35.3782 9.05168 35.1678 9.15225Z" fill="#DBDBDB"/>
<path d="M2.90511 12.0893L2.90027 11.3438C4.16561 10.1823 4.76366 9.01385 4.76366 9.01385C4.76366 9.01385 4.29782 8.83734 4.09292 8.57154C3.99403 8.43043 3.9493 8.25841 3.96694 8.087C3.98213 8.00043 4.01757 7.91868 4.07038 7.84842C4.12319 7.77816 4.19188 7.7214 4.27082 7.68276C4.41687 7.61769 4.68614 7.4751 4.98794 7.89042C5.31119 8.34035 5.22674 9.1869 5.18037 9.38626C5.18037 9.38626 4.59061 10.4135 2.90719 12.0858L2.90511 12.0893Z" fill="#DBDBDB"/>
<path d="M4.30757 9.15225C4.1366 9.44712 3.70189 10.1691 2.61307 11.1894C2.4324 11.3583 1.98178 11.4995 1.72775 11.2143C1.62066 11.0903 1.56669 10.9292 1.57754 10.7658C1.59696 10.5536 1.69059 10.355 1.84196 10.2051C2.05931 10.0189 2.99516 9.07403 3.6659 8.3313C3.69335 8.45751 3.73807 8.57933 3.7988 8.69332C3.92045 8.89227 4.09717 9.05168 4.30757 9.15225Z" fill="#DBDBDB"/>
<path d="M0.791138 21.7544C0.791138 21.1999 0.955554 20.6579 1.2636 20.1969C1.57164 19.7359 2.00947 19.3766 2.52172 19.1644C3.03398 18.9522 3.59765 18.8967 4.14145 19.0049C4.68526 19.113 5.18478 19.38 5.57684 19.7721C5.9689 20.1641 6.2359 20.6637 6.34407 21.2075C6.45224 21.7513 6.39672 22.315 6.18454 22.8272C5.97236 23.3395 5.61304 23.7773 5.15202 24.0853C4.69101 24.3934 4.149 24.5578 3.59454 24.5578C2.85103 24.5578 2.13797 24.2624 1.61223 23.7367C1.0865 23.211 0.791138 22.4979 0.791138 21.7544Z" fill="#626262"/>
<path d="M5.10157 19.7242C5.15002 19.763 5.27116 19.8626 5.27116 19.8626C5.52277 20.074 5.72401 20.3389 5.86022 20.6379C6.02081 21.0214 5.52658 21.5966 5.38191 21.7316C4.72778 22.3414 4.32146 22.3317 4.08819 22.3649C3.85492 22.3982 3.70748 22.2535 3.71233 22.0791C3.72756 21.5641 4.09165 20.6864 4.19687 20.5251C4.24521 20.455 4.3077 20.3958 4.3803 20.3513C4.62118 20.2821 4.85515 20.1804 4.97628 20.0426C5.05136 19.9526 5.09595 19.8411 5.10364 19.7242H5.10157ZM2.75571 19.3546C3.02157 19.2646 3.30014 19.2178 3.58081 19.2161C4.01897 19.2161 4.43567 19.2978 4.79077 19.5228C4.83022 19.546 4.86219 19.5801 4.88291 19.6209C4.90364 19.6618 4.91226 19.7077 4.90775 19.7533C4.90775 20.0828 4.38722 20.1949 4.04112 20.1949C3.69502 20.1949 3.27071 20.0565 2.97029 19.9637C2.66988 19.8709 2.60204 19.6937 2.60204 19.6176C2.60204 19.5415 2.66019 19.3864 2.75571 19.3546ZM1.64819 23.3935C1.29587 23.0474 1.04321 22.4175 1.04321 21.7565C1.04299 21.5068 1.07961 21.2583 1.15189 21.0193C1.15189 21.0193 1.21142 20.9127 1.26956 21.0034C1.3104 21.0678 1.36647 21.1342 1.41631 21.2228C1.46615 21.3114 1.74095 21.5191 1.71603 21.6831C1.61912 22.3061 1.70634 23.1305 1.73541 23.2655C1.76448 23.4005 1.72157 23.4662 1.64819 23.3935ZM1.71741 21.2678C1.59213 21.1986 1.44054 20.8809 1.39485 20.7833C1.35906 20.6712 1.36421 20.55 1.40939 20.4413C1.61705 20.0765 1.90985 19.7443 2.29125 19.5678C2.33485 19.5477 2.402 19.5456 2.402 19.6536C2.402 19.7138 2.43176 19.8086 2.43315 19.8675C2.43453 19.9263 2.46014 20.0495 2.38331 20.1444C2.30647 20.2392 1.96453 20.8366 1.88147 21.1764C1.86208 21.2533 1.84201 21.3322 1.71741 21.263V21.2678ZM3.63757 24.2941C3.61957 24.2941 3.60158 24.2941 3.58358 24.2941C3.13509 24.2805 2.69603 24.1619 2.30163 23.948C1.98876 23.7729 1.87177 22.9713 1.87177 22.5636C1.87177 21.2415 2.41653 20.4462 2.50306 20.2925C2.58958 20.1388 2.77994 20.1188 2.92807 20.1541C3.0762 20.1894 3.1288 20.2233 3.29493 20.2724C3.38492 20.3001 3.56489 20.3375 3.69987 20.3666C3.83485 20.3956 3.97675 20.4247 3.89299 20.676C3.80924 20.9272 3.51505 21.5336 3.48321 22.2521C3.45414 22.9007 3.54135 23.5472 3.69087 23.9431C3.78639 24.2006 3.78501 24.2982 3.64034 24.2934L3.63757 24.2941ZM4.30346 24.1909C4.1581 24.238 4.09096 24.1349 4.02659 24.0574C3.76563 23.7597 3.69848 22.9588 3.69848 22.8522C3.69848 22.7456 3.73725 22.63 3.81131 22.6287C4.44467 22.6127 4.89529 22.4279 5.30784 22.0881C5.571 21.8701 5.78398 21.5978 5.9322 21.2899C5.97028 21.2152 6.05126 21.2283 6.07064 21.337C6.09962 21.4751 6.11583 21.6155 6.1191 21.7565C6.1191 22.9083 5.34314 23.8532 4.3007 24.1909H4.30346Z" fill="#DBDBDB"/>
<path d="M38.7306 21.7544C38.7306 21.1999 38.5662 20.6579 38.2581 20.1969C37.9501 19.7359 37.5122 19.3766 37 19.1644C36.4877 18.9522 35.9241 18.8967 35.3803 19.0049C34.8365 19.113 34.3369 19.38 33.9449 19.7721C33.5528 20.1641 33.2858 20.6637 33.1776 21.2075C33.0695 21.7513 33.125 22.315 33.3372 22.8272C33.5494 23.3395 33.9087 23.7773 34.3697 24.0853C34.8307 24.3934 35.3727 24.5578 35.9272 24.5578C36.6707 24.5578 37.3837 24.2624 37.9095 23.7367C38.4352 23.211 38.7306 22.4979 38.7306 21.7544Z" fill="#626262"/>
<path d="M34.547 20.0426C34.6681 20.181 34.9021 20.2842 35.1429 20.3513C35.2155 20.3958 35.278 20.455 35.3264 20.5251C35.4288 20.6864 35.7936 21.5634 35.8109 22.0791C35.8151 22.2535 35.6683 22.3982 35.4344 22.3649C35.2004 22.3317 34.7941 22.3414 34.1413 21.7316C33.996 21.5931 33.5017 21.0214 33.6623 20.6379C33.7983 20.3387 33.9996 20.0738 34.2514 19.8626L34.4203 19.7242C34.4285 19.8411 34.4733 19.9525 34.5483 20.0426H34.547ZM36.9184 19.6176C36.9184 19.6951 36.8492 19.8709 36.5509 19.9637C36.2525 20.0565 35.8254 20.1949 35.48 20.1949C35.1346 20.1949 34.6134 20.0828 34.6134 19.7533C34.6091 19.7077 34.6178 19.6619 34.6385 19.6211C34.6592 19.5803 34.6911 19.5462 34.7304 19.5228C35.0848 19.2978 35.5029 19.2161 35.9403 19.2161C36.221 19.2178 36.4996 19.2646 36.7654 19.3546C36.861 19.3864 36.9184 19.5408 36.9184 19.6176ZM37.7871 23.2655C37.8162 23.1305 37.9034 22.3033 37.8065 21.6831C37.7816 21.5191 38.055 21.3107 38.1062 21.2228C38.1575 21.1349 38.2121 21.0678 38.253 21.0034C38.3111 20.9127 38.3707 21.0193 38.3707 21.0193C38.4427 21.2584 38.4791 21.5068 38.4786 21.7565C38.4786 22.4175 38.2274 23.0447 37.8737 23.3935C37.801 23.4662 37.7581 23.4012 37.7871 23.2655ZM37.6425 21.1813C37.5594 20.8435 37.2181 20.2447 37.1406 20.1492C37.0631 20.0537 37.0894 19.9277 37.0908 19.8723C37.0922 19.817 37.1219 19.7187 37.1219 19.6584C37.1219 19.5505 37.1911 19.5525 37.2327 19.5726C37.6141 19.7491 37.9083 20.0814 38.1145 20.4462C38.1597 20.5548 38.1649 20.676 38.1291 20.7881C38.0806 20.8829 37.9318 21.2034 37.8065 21.2726C37.6812 21.3419 37.6618 21.263 37.6425 21.1861V21.1813ZM35.8351 23.9438C35.9819 23.5479 36.0691 22.9014 36.0428 22.2528C36.0103 21.5343 35.7195 20.9272 35.633 20.6767C35.5465 20.4261 35.6912 20.3998 35.8261 20.3672C35.9611 20.3347 36.1404 20.298 36.2311 20.2731C36.3972 20.2233 36.4533 20.1935 36.5979 20.1547C36.7426 20.116 36.9357 20.1361 37.0229 20.2932C37.1102 20.4503 37.6542 21.2422 37.6542 22.5643C37.6542 22.9741 37.5372 23.7756 37.2237 23.9487C36.8295 24.1625 36.3907 24.2811 35.9424 24.2948C35.9237 24.2948 35.9064 24.2948 35.8884 24.2948C35.7438 24.2996 35.7417 24.202 35.8379 23.9445L35.8351 23.9438ZM33.4014 21.7565C33.4044 21.6154 33.4209 21.475 33.4505 21.337C33.4699 21.2283 33.5509 21.2152 33.589 21.2899C33.7386 21.5983 33.9532 21.8706 34.2182 22.0881C34.6335 22.4279 35.0813 22.6127 35.7147 22.6287C35.7888 22.6287 35.8275 22.7463 35.8275 22.8522C35.8275 22.9581 35.7583 23.7597 35.4994 24.0574C35.4302 24.1349 35.3651 24.238 35.2225 24.1909C34.1801 23.8532 33.4041 22.9083 33.4041 21.7565H33.4014Z" fill="#DBDBDB"/>
<path d="M14.9875 28.4701C15.029 26.4336 15.0708 24.397 15.1128 22.3601C14.6601 24.283 14.1913 26.2015 13.7063 28.1157C13.2335 27.9676 12.9988 27.8859 12.5357 27.7073C12.171 25.7567 11.7937 23.8081 11.3915 21.8651C11.3685 23.6399 11.3454 25.4145 11.3223 27.1888C10.7314 26.9154 10.1566 26.6083 9.60083 26.2689L9.63406 18.8534C10.3941 18.8792 11.1541 18.9023 11.9142 18.9226C12.3579 20.8954 12.7725 22.8744 13.1746 24.8554L13.1933 24.8603C13.7083 22.9064 14.2039 20.9478 14.6802 18.9842C15.4457 18.9967 16.2115 19.0068 16.9776 19.0147C16.9397 22.2842 16.9019 25.5534 16.8641 28.8224C16.2323 28.7413 15.6057 28.6237 14.9875 28.4701Z" fill="#BCBCBC"/>
<path d="M24.0096 24.8319C24.02 25.4888 23.9888 26.0287 23.912 26.4468C23.8191 26.9658 23.6243 27.4613 23.3389 27.9046C22.8959 28.6182 22.1704 29.1319 21.317 29.1762C20.9036 29.2036 20.4905 29.1191 20.1211 28.9315C19.7518 28.7439 19.4399 28.4601 19.2182 28.1102C18.9224 27.6706 18.7175 27.1764 18.6153 26.6566C18.5685 26.4015 18.5387 26.1437 18.526 25.8848C18.5136 25.6591 18.5108 25.3656 18.5136 25.0077C18.5297 23.0128 18.5454 21.0177 18.5606 19.0223C19.2743 19.0265 19.6308 19.0278 20.3444 19.0272V25.0597C20.3444 25.3227 20.3534 25.5497 20.3728 25.738C20.391 25.9462 20.4342 26.1514 20.5015 26.3492C20.6483 26.7562 20.9106 26.9577 21.2858 26.9417C21.6741 26.9258 21.9337 26.7078 22.0638 26.3022C22.1235 26.104 22.16 25.8996 22.1725 25.693C22.1857 25.52 22.1884 25.2874 22.1857 25.0008L22.1358 19.0223C22.8488 19.0175 23.206 19.014 23.9182 19.005L24.0096 24.8319Z" fill="#BCBCBC"/>
<path d="M28.9242 20.9709C28.8392 20.8759 28.7325 20.8028 28.6132 20.758C28.4939 20.7132 28.3655 20.6979 28.239 20.7134C28.1055 20.7276 27.9768 20.7708 27.8618 20.8399C27.7468 20.909 27.6483 21.0023 27.5731 21.1135C27.3858 21.3724 27.2916 21.6871 27.3059 22.0064C27.3135 22.3525 27.4111 22.6294 27.5987 22.8301C27.6827 22.925 27.7912 22.995 27.9123 23.0325C28.0334 23.07 28.1624 23.0735 28.2853 23.0426C28.5546 22.9841 28.7909 22.8239 28.945 22.5955C29.1259 22.3499 29.2194 22.051 29.2108 21.7461C29.2053 21.4229 29.1097 21.1681 28.9242 20.9709ZM30.7745 22.6321C30.6537 23.0276 30.5026 23.4131 30.3225 23.7853C29.7611 24.9905 29.2274 26.208 28.7062 27.4298C28.0414 27.7203 27.3592 27.9693 26.6635 28.1753C27.1481 27.1169 27.6361 26.0585 28.1372 25.0078L28.1192 24.9898C28.0679 25.0269 28.0115 25.0562 27.9517 25.077C27.9282 25.086 27.8991 25.0971 27.8652 25.1067L27.7835 25.1282C27.4757 25.2119 27.1486 25.1875 26.8566 25.059C25.8183 24.6714 25.5477 23.3659 25.5249 22.403C25.5027 21.4879 25.718 20.5445 26.2572 19.7941C26.4734 19.4871 26.7583 19.2349 27.0893 19.0576C27.4203 18.8803 27.7882 18.7829 28.1635 18.7731C28.5778 18.7619 28.9895 18.842 29.3693 19.0078C29.7492 19.1736 30.0878 19.421 30.3612 19.7325C30.7489 20.1866 30.9413 20.7542 30.9448 21.4949C30.944 21.8809 30.8866 22.2648 30.7745 22.6342V22.6321Z" fill="#BCBCBC"/>
<path d="M14.9916 28.4473C15.0345 26.4002 15.0772 24.3531 15.1196 22.3061C14.6651 24.2392 14.1937 26.1685 13.7055 28.0942C13.2341 27.9468 13.0001 27.8651 12.5377 27.6872C12.1709 25.7269 11.7915 23.7687 11.3873 21.8153C11.3652 23.5984 11.3421 25.382 11.3181 27.166C10.7302 26.898 10.1596 26.5935 9.60974 26.2544C9.62082 23.7869 9.63212 21.3192 9.64366 18.8513C10.4023 18.8772 11.1607 18.9002 11.9189 18.9205C12.3612 20.8891 12.7759 22.8661 13.1773 24.8409L13.1953 24.8451C13.7089 22.8958 14.2034 20.9415 14.6787 18.9821C15.4429 18.9937 16.2071 19.0036 16.9713 19.0119C16.9339 22.274 16.896 25.5359 16.8577 28.7975C16.2294 28.7171 15.6063 28.6002 14.9916 28.4473Z" fill="#BCBCBC"/>
<path d="M24.004 24.8167C24.0137 25.4729 23.9832 26.0093 23.9057 26.4288C23.8137 26.9464 23.6196 27.4406 23.3346 27.8824C22.8923 28.594 22.1683 29.1069 21.3169 29.1505C20.9044 29.1778 20.4923 29.0934 20.1237 28.9064C19.7551 28.7193 19.4437 28.4363 19.2223 28.0873C18.9271 27.6493 18.7223 27.1568 18.6201 26.6385C18.5736 26.3842 18.5436 26.1271 18.5301 25.8688C18.5183 25.6418 18.5156 25.3504 18.5183 24.9939C18.5336 23.0022 18.549 21.011 18.5647 19.0202C19.277 19.0244 19.6328 19.0258 20.345 19.0258V25.0444C20.3432 25.2704 20.3526 25.4963 20.3734 25.7214C20.3916 25.9293 20.4348 26.1343 20.5022 26.3319C20.6482 26.7382 20.9099 26.939 21.2843 26.923C21.672 26.9071 21.9309 26.6898 22.0603 26.2848C22.1203 26.0872 22.1567 25.8832 22.169 25.6771C22.1821 25.5026 22.1849 25.2721 22.1821 24.9849L22.1323 19.0188C22.8446 19.014 23.2003 19.0105 23.9112 19.0015L24.004 24.8167Z" fill="#BCBCBC"/>
<path d="M28.9235 20.9639C28.8388 20.8689 28.7324 20.7958 28.6132 20.7511C28.4941 20.7064 28.3658 20.6913 28.2396 20.7071C28.1064 20.7211 27.978 20.764 27.8632 20.8329C27.7484 20.9018 27.6501 20.9949 27.5751 21.1058C27.3882 21.3641 27.2943 21.6781 27.3086 21.9967C27.3162 22.3428 27.4138 22.6196 27.6007 22.8183C27.6845 22.9131 27.7927 22.9831 27.9135 23.0206C28.0343 23.0582 28.1632 23.062 28.286 23.0315C28.5547 22.973 28.7905 22.813 28.9442 22.585C29.1245 22.34 29.2178 22.0418 29.2093 21.7378C29.2038 21.4152 29.109 21.1612 28.9235 20.9639ZM30.7702 22.6252C30.6497 23.0197 30.4988 23.4043 30.3189 23.7756C29.7589 24.978 29.226 26.1907 28.7061 27.411C28.0427 27.7004 27.3618 27.9482 26.6676 28.1531C27.1521 27.0975 27.6367 26.0419 28.1385 24.9939L28.1198 24.9759C28.069 25.013 28.0127 25.0422 27.953 25.0624C27.925 25.074 27.8964 25.084 27.8672 25.0922L27.7855 25.1136C27.4782 25.1974 27.1514 25.1729 26.86 25.0444C25.828 24.6568 25.5545 23.3547 25.5317 22.394C25.5095 21.481 25.7241 20.5403 26.2627 19.7913C26.4784 19.4852 26.7626 19.2338 27.0928 19.0571C27.4229 18.8805 27.7898 18.7834 28.1641 18.7738C28.5776 18.7627 28.9885 18.8428 29.3675 19.0085C29.7465 19.1742 30.0844 19.4214 30.357 19.7325C30.7446 20.1852 30.9371 20.7521 30.9398 21.4914C30.9389 21.8755 30.8818 22.2575 30.7702 22.6252Z" fill="#BCBCBC"/>
<path d="M15 28.4251C15.0439 26.367 15.0873 24.3091 15.1302 22.2514C14.6742 24.1965 14.2008 26.1369 13.7098 28.0728C13.2391 27.926 13.0058 27.845 12.5448 27.6671C12.1752 25.6972 11.7938 23.7292 11.3868 21.7662C11.3646 23.559 11.3415 25.3517 11.3175 27.1445C10.734 26.8799 10.1674 26.5794 9.62097 26.2447C9.63251 23.7809 9.64404 21.3172 9.65558 18.8534C10.4128 18.8783 11.1696 18.9014 11.926 18.9226C12.3676 20.8871 12.7809 22.8571 13.1816 24.8298L13.1996 24.8347C13.7077 22.8868 14.1996 20.9358 14.6754 18.9815C15.4373 18.993 16.1998 19.0031 16.9631 19.0119C16.9248 22.2657 16.887 25.519 16.8496 28.7719C16.2269 28.6922 15.6093 28.5764 15 28.4251Z" fill="#BABABA"/>
<path d="M23.9986 24.8021C24.009 25.4569 23.9785 25.992 23.901 26.4101C23.8096 26.9277 23.6159 27.4219 23.3313 27.8637C22.8897 28.5732 22.167 29.0847 21.3184 29.1284C20.9068 29.1555 20.4956 29.0713 20.1279 28.8846C19.7601 28.6979 19.4495 28.4155 19.2286 28.0672C18.9338 27.6302 18.7295 27.1385 18.6278 26.6212C18.5812 26.3676 18.5514 26.1111 18.5385 25.8536C18.5267 25.6272 18.524 25.3358 18.5267 24.98C18.542 22.9957 18.5574 21.0089 18.5731 19.0195C19.2833 19.0237 19.6391 19.0243 20.3493 19.0243V25.0305C20.3474 25.2561 20.3569 25.4816 20.3777 25.7061C20.3958 25.9136 20.4391 26.1182 20.5064 26.3153C20.6518 26.7202 20.9128 26.9202 21.2865 26.905C21.6735 26.8891 21.9317 26.6717 22.0611 26.2682C22.1204 26.0709 22.1569 25.8674 22.1698 25.6618C22.1822 25.4881 22.185 25.2576 22.1829 24.9696L22.1331 19.0167C22.8433 19.0126 23.1984 19.0091 23.9079 19.0001C23.9388 20.9337 23.969 22.8677 23.9986 24.8021Z" fill="#BABABA"/>
<path d="M28.9228 20.957C28.8384 20.8621 28.7321 20.7891 28.6132 20.7444C28.4943 20.6996 28.3664 20.6845 28.2403 20.7002C28.1075 20.7143 27.9795 20.7571 27.8649 20.8257C27.7504 20.8944 27.6522 20.9871 27.5772 21.0975C27.3906 21.3554 27.2971 21.669 27.3121 21.987C27.319 22.3331 27.4159 22.61 27.6028 22.8072C27.6866 22.9016 27.7946 22.9713 27.9151 23.0088C28.0357 23.0463 28.1641 23.05 28.2867 23.0197C28.5548 22.9614 28.79 22.802 28.9436 22.5747C29.1237 22.3301 29.2168 22.0324 29.208 21.7288C29.2025 21.4076 29.1083 21.1536 28.9228 20.957ZM30.7654 22.6183C30.6453 23.0119 30.4949 23.3956 30.3155 23.7659C29.7569 24.9648 29.2246 26.1748 28.7061 27.3917C28.044 27.68 27.3646 27.9269 26.6718 28.1309C27.1563 27.0781 27.6409 26.0253 28.1392 24.9793L28.1212 24.962C28.0702 24.999 28.014 25.0281 27.9544 25.0486C27.9302 25.0576 27.9018 25.0686 27.8686 25.0776L27.7869 25.0991C27.4805 25.1825 27.1547 25.1581 26.8642 25.0299C25.8342 24.6436 25.5615 23.3444 25.538 22.3857C25.5165 21.4748 25.7304 20.5361 26.2675 19.7893C26.4827 19.4836 26.7664 19.2325 27.096 19.0562C27.4256 18.8799 27.7919 18.7832 28.1655 18.7738C28.5781 18.7626 28.9881 18.8425 29.3663 19.0079C29.7445 19.1732 30.0816 19.4199 30.3536 19.7304C30.7398 20.1824 30.9323 20.7486 30.9357 21.4865C30.934 21.8693 30.8767 22.2499 30.7654 22.6162V22.6183Z" fill="#BABABA"/>
<path d="M15.0001 28.4029C15.0462 26.3342 15.0903 24.2654 15.1323 22.1967V22.1932C14.6736 24.1489 14.1976 26.1002 13.7043 28.0471C13.235 27.9004 13.0017 27.8201 12.5421 27.6436C12.1704 25.6632 11.7876 23.6856 11.3778 21.7121C11.3561 23.5118 11.333 25.3136 11.3086 27.1175C10.7292 26.8545 10.1665 26.556 9.62378 26.2239L9.65908 18.8444C10.414 18.8693 11.1692 18.8924 11.9246 18.9136C12.3656 20.8739 12.7774 22.8397 13.1775 24.8083L13.1955 24.8125C13.7073 22.8711 14.1997 20.9251 14.6727 18.9745C15.4336 18.9865 16.195 18.9964 16.9569 19.0043C16.9186 22.2511 16.8808 25.4982 16.8434 28.7456C16.2229 28.6665 15.6075 28.5521 15.0001 28.4029Z" fill="#BABABA"/>
<path d="M23.9923 24.7869C24.002 25.4403 23.9715 25.9747 23.8947 26.3921C23.803 26.9082 23.6096 27.4009 23.3257 27.8416C22.8855 28.5497 22.1642 29.0591 21.3183 29.1027C20.9076 29.1305 20.4971 29.0467 20.1301 28.8602C19.7631 28.6738 19.4533 28.3917 19.2334 28.0437C18.9391 27.608 18.7353 27.1177 18.634 26.6018C18.5872 26.3482 18.5571 26.0918 18.544 25.8342C18.5322 25.6078 18.5295 25.3178 18.5322 24.9627L18.5779 19.014C19.2874 19.0181 19.6418 19.0195 20.3506 19.0188V25.0126C20.3488 25.2374 20.3582 25.4622 20.379 25.6861C20.3969 25.8931 20.4399 26.0972 20.5071 26.2938C20.6531 26.6987 20.9134 26.8981 21.2865 26.8829C21.672 26.867 21.9295 26.6503 22.0583 26.2474C22.1179 26.0507 22.1544 25.8477 22.167 25.6425C22.1794 25.4687 22.1822 25.2389 22.1801 24.9503L22.1296 19.0133C22.8384 19.0084 23.1928 19.005 23.9009 18.996C23.9328 20.9244 23.9632 22.8547 23.9923 24.7869Z" fill="#BABABA"/>
<path d="M28.9222 20.9501C28.8378 20.8555 28.7317 20.7827 28.6131 20.738C28.4945 20.6933 28.3669 20.6779 28.241 20.6933C28.1085 20.7073 27.9807 20.7501 27.8664 20.8186C27.7521 20.8871 27.6542 20.9797 27.5793 21.0899C27.3932 21.3472 27.2999 21.6601 27.3149 21.9773C27.3218 22.3234 27.4187 22.6003 27.6056 22.7955C27.6892 22.8895 27.7968 22.959 27.917 22.9964C28.0371 23.0339 28.1652 23.0379 28.2874 23.008C28.5548 22.9499 28.7896 22.791 28.9429 22.5643C29.1225 22.3203 29.2153 22.0233 29.2066 21.7205C29.2018 21.3993 29.107 21.1459 28.9222 20.9501ZM30.7613 22.6065C30.6417 22.9995 30.4915 23.3825 30.3121 23.7521C29.7542 24.9482 29.2233 26.1547 28.7055 27.3688C28.0448 27.6558 27.367 27.9017 26.676 28.1053C27.1605 27.0545 27.645 26.0045 28.1407 24.9613L28.122 24.9433C28.0714 24.9805 28.0153 25.0097 27.9558 25.0299C27.9316 25.0389 27.9032 25.0499 27.87 25.0589L27.789 25.0804C27.4831 25.1635 27.1578 25.1391 26.8677 25.0112C25.8405 24.6249 25.5678 23.3291 25.5449 22.3732C25.5235 21.4637 25.7367 20.5271 26.2724 19.7823C26.4877 19.4783 26.771 19.2287 27.0998 19.0536C27.4286 18.8785 27.7938 18.7827 28.1663 18.7738C28.5781 18.7627 28.9874 18.8425 29.3649 19.0076C29.7423 19.1727 30.0788 19.419 30.3502 19.729C30.7357 20.1803 30.9274 20.7459 30.9309 21.4824C30.9289 21.8633 30.8718 22.2419 30.7613 22.6065Z" fill="#BABABA"/>
<path d="M15.0061 28.3808C15.0522 26.3014 15.097 24.222 15.1404 22.1427L15.1369 22.1378C14.6755 24.1041 14.1971 26.0654 13.702 28.0215C13.2334 27.8755 13.0008 27.7952 12.5419 27.6194C12.1688 25.6293 11.7805 23.6413 11.3707 21.6588C11.349 23.4696 11.3271 25.2804 11.3049 27.0912C10.7301 26.8301 10.1716 26.5345 9.63257 26.2059C9.64503 23.75 9.65703 21.2941 9.66856 18.8381C10.4226 18.864 11.1762 18.8871 11.9293 18.9074C12.3688 20.8628 12.78 22.8245 13.1794 24.791L13.1974 24.7959C13.7082 22.8577 14.1995 20.9156 14.6711 18.9697C15.4306 18.9812 16.19 18.9911 16.9491 18.9994C16.9117 22.2394 16.8739 25.4791 16.8356 28.7186C16.2199 28.6404 15.6091 28.5276 15.0061 28.3808Z" fill="#B8B8B8"/>
<path d="M23.986 24.7724C23.9964 25.4244 23.9659 25.9574 23.8891 26.3741C23.7972 26.8885 23.6043 27.3795 23.3215 27.8187C22.8819 28.5248 22.162 29.0336 21.3141 29.0765C20.9043 29.1037 20.4948 29.02 20.1287 28.8341C19.7625 28.6482 19.4532 28.367 19.2334 28.0202C18.9403 27.585 18.737 27.0958 18.6353 26.5811C18.5893 26.3283 18.5597 26.0728 18.5467 25.8162C18.5349 25.5913 18.5322 25.3012 18.5349 24.9468L18.5806 19.0105C19.288 19.0147 19.6417 19.0161 20.3492 19.0161V24.9967C20.3473 25.221 20.3568 25.4454 20.3776 25.6688C20.3955 25.8753 20.4385 26.079 20.5056 26.2751C20.651 26.6787 20.9105 26.878 21.2829 26.8628C21.6678 26.8469 21.9246 26.6309 22.0534 26.2288C22.1127 26.0325 22.1489 25.8299 22.1613 25.6252C22.1745 25.4521 22.1773 25.223 22.1745 24.9378C22.1579 22.9623 22.1415 20.9863 22.1254 19.0098C22.8321 19.0057 23.1858 19.0022 23.8925 18.9932C23.9262 20.9198 23.9574 22.8462 23.986 24.7724Z" fill="#B8B8B8"/>
<path d="M28.9216 20.9431C28.8376 20.8485 28.7318 20.7758 28.6133 20.7311C28.4949 20.6865 28.3674 20.6714 28.2418 20.687C28.1097 20.7008 27.9822 20.7433 27.8682 20.8116C27.7543 20.8798 27.6566 20.9722 27.5822 21.0823C27.3976 21.3394 27.3057 21.6515 27.3212 21.9676C27.3281 22.3137 27.4251 22.5864 27.6113 22.7837C27.6946 22.8773 27.8018 22.9464 27.9214 22.9839C28.041 23.0213 28.1685 23.0255 28.2903 22.9962C28.5572 22.9385 28.7915 22.78 28.9444 22.5539C29.1239 22.3106 29.2167 22.0143 29.2082 21.7122C29.2005 21.3917 29.1064 21.1383 28.9216 20.9431ZM30.7573 22.5975C30.6374 22.9894 30.4875 23.3715 30.3088 23.7403C29.755 24.933 29.2227 26.1367 28.7056 27.348C28.0464 27.6336 27.3702 27.8784 26.6809 28.0811C27.1613 27.0331 27.6445 25.9858 28.1415 24.9454L28.1235 24.9274C28.0727 24.9642 28.0167 24.9932 27.9574 25.0133C27.9331 25.0223 27.9047 25.0333 27.8722 25.0423L27.7905 25.0638C27.4854 25.1462 27.1613 25.1218 26.872 24.9946C25.8468 24.609 25.5748 23.316 25.552 22.3642C25.5298 21.4567 25.743 20.5223 26.2781 19.7795C26.4923 19.4752 26.7748 19.2251 27.1029 19.0494C27.431 18.8737 27.7957 18.7772 28.1678 18.7676C28.5787 18.7568 28.987 18.8367 29.3636 19.0016C29.7402 19.1664 30.0759 19.4122 30.3468 19.7214C30.731 20.172 30.9227 20.7369 30.9262 21.4713C30.9247 21.8529 30.8678 22.2322 30.7573 22.5975Z" fill="#B8B8B8"/>
<path d="M15.0109 28.3586C15.0571 26.2682 15.1032 24.178 15.1494 22.088L15.1452 22.0818C14.6838 24.0591 14.2029 26.0324 13.7027 28.0014C13.2355 27.8561 13.0036 27.7758 12.5453 27.6014C12.1702 25.6009 11.7839 23.6032 11.3686 21.6111L11.3644 21.6152C11.3428 23.4348 11.3213 25.2546 11.3001 27.0746C10.7293 26.8159 10.1746 26.5232 9.63879 26.1983C9.65125 23.7465 9.66348 21.2945 9.67548 18.8423C10.4272 18.8672 11.1792 18.8903 11.9314 18.9115C12.3702 20.8628 12.7807 22.8197 13.1773 24.78L13.1953 24.7841C13.7029 22.8506 14.1932 20.9124 14.6662 18.9696C15.4244 18.9812 16.1821 18.9909 16.9394 18.9987C16.9011 22.2313 16.8633 25.4638 16.8259 28.6964C16.2151 28.6178 15.6091 28.5051 15.0109 28.3586Z" fill="#B8B8B8"/>
<path d="M23.9805 24.7571C23.9902 25.4078 23.9604 25.9401 23.8836 26.3554C23.7921 26.8689 23.5994 27.359 23.3167 27.7972C22.8785 28.5019 22.16 29.0086 21.3176 29.0515C20.9088 29.0783 20.5003 28.9946 20.135 28.8092C19.7696 28.6239 19.4609 28.3437 19.241 27.998C18.9486 27.5639 18.7457 27.0758 18.6443 26.5624C18.5985 26.3107 18.5689 26.0564 18.5557 25.8009C18.544 25.576 18.5412 25.2866 18.544 24.9329L18.5896 19.0098C19.295 19.014 19.648 19.0146 20.3541 19.0146V24.9821C20.3522 25.2062 20.3617 25.4303 20.3824 25.6535C20.4004 25.8596 20.4434 26.0628 20.5105 26.2585C20.6552 26.6607 20.914 26.86 21.2858 26.8448C21.6699 26.8289 21.926 26.6136 22.0548 26.2121C22.1138 26.0162 22.15 25.8141 22.1628 25.6099C22.1752 25.4369 22.178 25.2084 22.1752 24.9239C22.1595 22.9526 22.1432 20.9809 22.1261 19.0091C22.8321 19.0043 23.1844 19.0008 23.8898 18.9925C23.9207 20.9136 23.9509 22.8351 23.9805 24.7571Z" fill="#B8B8B8"/>
<path d="M28.9207 20.9362C28.8369 20.8418 28.7315 20.7692 28.6134 20.7246C28.4954 20.68 28.3683 20.6647 28.243 20.6801C28.1111 20.694 27.9838 20.7365 27.87 20.8047C27.7562 20.8728 27.6586 20.9649 27.584 21.0747C27.399 21.3309 27.3063 21.6422 27.321 21.9579C27.3279 22.304 27.4248 22.576 27.6104 22.7726C27.6934 22.8666 27.8006 22.936 27.9203 22.9735C28.04 23.0109 28.1676 23.015 28.2894 22.9851C28.5559 22.9278 28.7898 22.7695 28.9421 22.5435C29.1211 22.3009 29.2137 22.0053 29.2052 21.7039C29.1989 21.3841 29.1048 21.1314 28.9207 20.9362ZM30.7522 22.5885C30.633 22.9793 30.4835 23.3602 30.3051 23.7279C29.7513 24.9184 29.2211 26.1187 28.7054 27.3273C28.0474 27.6117 27.3726 27.8555 26.6849 28.0576C27.1646 27.0123 27.6463 25.9678 28.1427 24.9295L28.124 24.9122C28.0735 24.9489 28.0177 24.9776 27.9585 24.9974C27.9308 25.0088 27.9024 25.0185 27.8734 25.0264L27.7924 25.0479C27.4878 25.1306 27.164 25.1061 26.8752 24.9787C25.8529 24.5938 25.5808 23.3049 25.5601 22.3525C25.5386 21.4478 25.7511 20.5154 26.2848 19.7733C26.4987 19.4698 26.7806 19.2206 27.108 19.0454C27.4353 18.8703 27.7992 18.7742 28.1703 18.7648C28.5804 18.7538 28.9879 18.8333 29.3637 18.9979C29.7395 19.1624 30.0744 19.4078 30.3445 19.7166C30.7287 20.1665 30.9197 20.7306 30.9232 21.4637C30.9215 21.845 30.8639 22.2239 30.7522 22.5885Z" fill="#B8B8B8"/>
<path d="M15.0151 28.3358L15.1536 22.0333L15.148 22.0264C14.6829 24.0144 14.2 25.9987 13.6993 27.9793C13.2327 27.8353 13.0015 27.7557 12.544 27.5813C12.1667 25.5739 11.777 23.5666 11.3603 21.5592L11.3548 21.5647C11.334 23.3935 11.313 25.2223 11.2918 27.0511C10.7254 26.7952 10.175 26.5054 9.64368 26.1831C9.65567 23.7373 9.6679 21.2895 9.68036 18.8395C10.4307 18.8645 11.181 18.8875 11.9314 18.9088C12.3689 20.8559 12.7786 22.8086 13.1773 24.7647L13.1953 24.7689C13.703 22.8395 14.1921 20.9057 14.6628 18.9676C15.4196 18.9796 16.1757 18.9895 16.9311 18.9974C16.8928 22.2221 16.855 25.447 16.8176 28.6722C16.211 28.5937 15.6092 28.4814 15.0151 28.3358Z" fill="#B7B7B7"/>
<path d="M23.975 24.7426C23.9847 25.3919 23.9542 25.9194 23.8781 26.3347C23.7862 26.8468 23.594 27.3356 23.3125 27.7731C22.8744 28.4757 22.1586 28.981 21.3176 29.0239C20.9098 29.0508 20.5023 28.9674 20.1378 28.7823C19.7734 28.5973 19.4655 28.3176 19.2466 27.9724C18.9545 27.5396 18.7521 27.0526 18.6513 26.5403C18.6053 26.2887 18.5757 26.0343 18.5627 25.7789C18.5509 25.5546 18.5481 25.2659 18.5509 24.9129C18.5661 22.942 18.5811 20.9716 18.5959 19.0016C19.3006 19.0057 19.6529 19.0071 20.3569 19.0064V24.9593C20.355 25.1828 20.3645 25.4062 20.3852 25.6287C20.4033 25.8342 20.446 26.0369 20.5126 26.2323C20.6573 26.6344 20.9155 26.8331 21.2865 26.8179C21.6693 26.8019 21.9254 26.5867 22.0534 26.1866C22.1128 25.9912 22.149 25.7896 22.1614 25.5857C22.1739 25.4134 22.1766 25.185 22.1746 24.9012C22.158 22.9339 22.1416 20.9665 22.1254 18.9988C22.8294 18.9939 23.1817 18.9912 23.885 18.9822C23.9145 20.9042 23.9445 22.8243 23.975 24.7426Z" fill="#B7B7B7"/>
<path d="M28.9206 20.9286C28.8367 20.8347 28.7313 20.7624 28.6135 20.7179C28.4956 20.6735 28.3687 20.6581 28.2437 20.6732C28.112 20.6871 27.985 20.7295 27.8714 20.7975C27.7578 20.8656 27.6605 20.9575 27.5861 21.0671C27.4015 21.3224 27.3088 21.6328 27.3231 21.9475C27.33 22.2902 27.4262 22.5643 27.6117 22.7609C27.6947 22.8545 27.8016 22.9237 27.9211 22.961C28.0405 22.9984 28.1678 23.0024 28.2894 22.9727C28.5551 22.9154 28.7885 22.7577 28.9407 22.5324C29.1195 22.2905 29.2118 21.9956 29.2031 21.6949C29.1975 21.3758 29.1041 21.1273 28.9206 20.9286ZM30.748 22.5809C30.6292 22.9711 30.48 23.3514 30.3016 23.7182C29.7478 24.9053 29.2197 26.1028 28.7054 27.3079C28.0485 27.5907 27.3751 27.8336 26.689 28.0354C27.1673 26.9923 27.6484 25.9505 28.1426 24.915L28.1246 24.897C28.0742 24.9339 28.0184 24.9629 27.9592 24.9828C27.9314 24.994 27.903 25.0035 27.874 25.0112L27.7931 25.0327C27.4893 25.1146 27.1666 25.0902 26.8787 24.9634C25.8584 24.5793 25.587 23.2932 25.5635 22.3428C25.542 21.4429 25.7538 20.5098 26.2861 19.7699C26.4996 19.4671 26.7809 19.2184 27.1076 19.0437C27.4342 18.8689 27.7972 18.773 28.1675 18.7634C28.5769 18.7526 28.9835 18.8321 29.3586 18.9964C29.7337 19.1607 30.068 19.4056 30.3376 19.7138C30.721 20.1637 30.9114 20.7258 30.9149 21.4582C30.9143 21.8385 30.8581 22.2168 30.748 22.5809Z" fill="#B7B7B7"/>
<path d="M15.0201 28.3136L15.1585 21.9786L15.1523 21.9703C14.6853 23.9699 14.2007 25.9648 13.6986 27.9551C13.2335 27.8111 13.0023 27.7322 12.5461 27.5591C12.1668 25.5386 11.7757 23.5215 11.3556 21.5093L11.35 21.5156L11.2877 27.0289C10.7257 26.7754 10.1792 26.4886 9.65137 26.1699L9.68875 18.8381C10.4377 18.8631 11.1864 18.8861 11.9349 18.9074C12.3717 20.8504 12.7801 22.7989 13.1767 24.7502L13.1947 24.7543C13.7023 22.8291 14.1906 20.8997 14.6594 18.9662C15.4139 18.9777 16.1682 18.9874 16.9222 18.9953C16.8848 22.2135 16.847 25.4313 16.8087 28.6487C16.2068 28.5698 15.6097 28.458 15.0201 28.3136Z" fill="#B6B6B6"/>
<path d="M23.9687 24.7267C23.9784 25.3746 23.9487 25.9034 23.8718 26.3188C23.7805 26.8299 23.5883 27.3177 23.3063 27.7537C22.8695 28.4549 22.1552 28.9595 21.3162 28.9996C20.9094 29.0268 20.5027 28.9437 20.1391 28.7591C19.7755 28.5746 19.4683 28.2954 19.25 27.951C18.9596 27.5203 18.7579 27.036 18.6568 26.5264C18.611 26.2748 18.5816 26.0204 18.5689 25.765C18.5571 25.5407 18.5544 25.2528 18.5571 24.9004C18.5719 22.9346 18.5869 20.9685 18.6021 19.0022C19.3047 19.0022 19.6564 19.0071 20.3589 19.0071V24.9489C20.3589 25.2085 20.3686 25.4334 20.3873 25.6169C20.4054 25.822 20.4482 26.0242 20.5147 26.2191C20.6587 26.6199 20.9168 26.8185 21.2865 26.8033C21.6686 26.7874 21.924 26.5728 22.052 26.1734C22.1112 25.9785 22.1472 25.7773 22.1593 25.574C22.1725 25.4016 22.1746 25.1739 22.1725 24.8908C22.1559 22.9277 22.1395 20.9644 22.1233 19.0008C22.8259 18.9967 23.1776 18.9932 23.8794 18.9849L23.9687 24.7267Z" fill="#B6B6B6"/>
<path d="M28.92 20.9196C28.8364 20.8257 28.7312 20.7535 28.6136 20.7092C28.4959 20.6648 28.3692 20.6496 28.2444 20.6649C28.113 20.6785 27.9862 20.7207 27.8729 20.7885C27.7595 20.8563 27.6624 20.9481 27.5882 21.0574C27.4039 21.312 27.3114 21.6217 27.3259 21.9358C27.3328 22.2777 27.429 22.5511 27.6138 22.747C27.6966 22.8405 27.8034 22.9096 27.9225 22.9469C28.0417 22.9843 28.1688 22.9884 28.2901 22.9588C28.5553 22.9021 28.7883 22.7448 28.9401 22.52C29.1183 22.2786 29.2104 21.9844 29.2017 21.6845C29.1969 21.3682 29.1028 21.1162 28.92 20.9196ZM30.744 22.5678C30.6248 22.9576 30.4755 23.3376 30.2975 23.7043C29.7437 24.8887 29.2177 26.0827 28.7054 27.2844C28.0502 27.5665 27.3785 27.8086 26.6939 28.0091C27.1715 26.9708 27.6512 25.9291 28.1475 24.8942L28.1288 24.8762C28.0786 24.913 28.0231 24.9417 27.9641 24.9614C27.9365 24.9725 27.9083 24.982 27.8796 24.9898L27.7987 25.0112C27.4954 25.0932 27.1731 25.0688 26.8856 24.942C25.8681 24.5585 25.5975 23.2752 25.5746 22.3269C25.5525 21.427 25.7975 20.4919 26.2959 19.7602C26.6669 19.2148 27.5086 18.751 28.1731 18.7565C28.9726 18.7627 29.7998 19.0735 30.3383 19.7055C30.7204 20.1541 30.9108 20.7154 30.9142 21.4464C30.9128 21.8272 30.8554 22.2057 30.744 22.5698V22.5678Z" fill="#B6B6B6"/>
<path d="M15.0248 28.2915C15.071 26.1687 15.1185 24.046 15.1674 21.9232L15.1612 21.9136C14.6909 23.9246 14.2032 25.9306 13.6979 27.9315C13.2334 27.7882 13.0057 27.7093 12.5474 27.537C12.1667 25.5067 11.7729 23.48 11.3506 21.4581L11.3437 21.465C11.3234 23.3109 11.3031 25.1567 11.2828 27.0026C10.725 26.7512 10.1825 26.4671 9.6582 26.1519C9.67066 23.7126 9.68335 21.2728 9.69627 18.8326C10.4434 18.857 11.1905 18.8801 11.9376 18.9018C12.373 20.84 12.7814 22.785 13.1766 24.7322L13.1953 24.7363C13.7006 22.8157 14.1875 20.8903 14.6559 18.9599C15.409 18.9719 16.1619 18.9816 16.9145 18.989L16.7996 28.6216C16.2024 28.5441 15.6099 28.4339 15.0248 28.2915Z" fill="#B5B5B5"/>
<path d="M23.9631 24.7129C23.9728 25.3594 23.9424 25.8896 23.8662 26.3008C23.7767 26.8105 23.5863 27.2971 23.3062 27.7322C22.8701 28.4321 22.1572 28.9346 21.3203 28.9782C20.9145 29.0049 20.5089 28.9218 20.1463 28.7378C19.7836 28.5538 19.4771 28.2756 19.2589 27.9323C18.968 27.5013 18.7663 27.0165 18.6657 26.5064C18.6199 26.2547 18.5905 26.0004 18.5778 25.7449C18.5661 25.5221 18.5633 25.2341 18.5661 24.8832C18.5804 22.921 18.5951 20.9598 18.6104 18.9995C19.3116 19.0036 19.6625 19.0043 20.3637 19.0043C20.3637 20.9803 20.3637 22.9565 20.3637 24.933C20.3637 25.1928 20.3729 25.415 20.3914 25.5996C20.4093 25.8045 20.4518 26.0064 20.5181 26.2011C20.662 26.6012 20.9195 26.7985 21.2885 26.7839C21.6699 26.768 21.9246 26.5541 22.0499 26.1554C22.1084 25.9608 22.1441 25.7602 22.1565 25.5574C22.1696 25.3857 22.1724 25.158 22.1696 24.8762C22.1535 22.9164 22.1371 20.9572 22.1205 18.9988C22.8217 18.9939 23.1726 18.9912 23.8731 18.9822L23.9631 24.7129Z" fill="#B5B5B5"/>
<path d="M28.9192 20.9148C28.8359 20.8209 28.731 20.7487 28.6135 20.7043C28.4961 20.6599 28.3696 20.6448 28.245 20.6601C28.114 20.6738 27.9876 20.7159 27.8745 20.7834C27.7614 20.851 27.6644 20.9423 27.5902 21.0512C27.4064 21.3055 27.3142 21.6147 27.3286 21.9282C27.3355 22.2687 27.4317 22.5415 27.6158 22.7373C27.6985 22.8306 27.805 22.8996 27.9239 22.937C28.0428 22.9743 28.1696 22.9785 28.2907 22.9492C28.5553 22.8925 28.7876 22.7357 28.9393 22.5117C29.1165 22.2716 29.2085 21.9793 29.201 21.6811C29.1954 21.3599 29.102 21.1093 28.9192 20.9148ZM30.7397 22.5608C30.6218 22.949 30.4739 23.3274 30.2974 23.6926C29.7436 24.8735 29.2203 26.0647 28.7053 27.2636C28.0514 27.5443 27.381 27.7852 26.698 27.9849C27.1742 26.9466 27.6532 25.9083 28.1461 24.8804L28.1281 24.8631C28.0778 24.8996 28.0223 24.928 27.9633 24.9475C27.9398 24.9565 27.9114 24.9676 27.8789 24.9766L27.7986 24.9974C27.4959 25.079 27.1745 25.0546 26.8876 24.9282C25.8722 24.5454 25.6015 23.2669 25.5787 22.3193C25.5572 21.4194 25.8016 20.4891 26.2986 19.7581C26.6696 19.2134 27.5085 18.751 28.1717 18.7565C28.9698 18.7634 29.7956 19.0735 30.3327 19.7041C30.7141 20.152 30.9038 20.7127 30.9072 21.4422C30.9061 21.8213 30.8497 22.1981 30.7397 22.5608Z" fill="#B5B5B5"/>
<path d="M15.0297 28.2693C15.0758 26.136 15.1241 24.0029 15.1744 21.87L15.1674 21.8589C14.6954 23.8801 14.2051 25.8969 13.6965 27.9094C13.2334 27.7668 13.0043 27.6879 12.5489 27.5162C12.1661 25.4763 11.7701 23.4399 11.3458 21.4083L11.3382 21.4159L11.278 26.9832C10.7245 26.7342 10.186 26.4531 9.66516 26.1415C9.67808 23.7054 9.691 21.2696 9.70393 18.834C10.4492 18.8584 11.1947 18.8815 11.9404 18.9032C12.3751 20.8379 12.7821 22.7795 13.1774 24.7177L13.1954 24.7218C13.7002 22.8054 14.1864 20.8843 14.6538 18.9586C15.4046 18.9697 16.1557 18.9793 16.9069 18.9877C16.8691 22.1907 16.8313 25.3937 16.7934 28.5967C16.2001 28.5192 15.6113 28.4099 15.0297 28.2693Z" fill="#B5B5B5"/>
<path d="M23.9569 24.6976C23.9666 25.3427 23.9369 25.8709 23.8607 26.2827C23.7704 26.7913 23.5795 27.2768 23.2993 27.7107C22.8639 28.4085 22.1524 28.9096 21.3176 28.9519C20.9128 28.9788 20.5083 28.8964 20.1463 28.7132C19.7844 28.53 19.4784 28.2529 19.2604 27.9108C18.9697 27.4801 18.7684 26.9955 18.6685 26.4856C18.6228 26.2355 18.5934 25.9828 18.5806 25.729C18.5689 25.5061 18.5661 25.2195 18.5689 24.8686C18.5832 22.9106 18.5979 20.9526 18.6132 18.9946C19.313 18.9988 19.6625 19.0001 20.363 18.9994V24.9157C20.363 25.1738 20.372 25.396 20.3907 25.5809C20.4087 25.7853 20.4512 25.9868 20.5174 26.181C20.6614 26.5797 20.9175 26.777 21.2857 26.7617C21.6664 26.7465 21.9205 26.5333 22.0472 26.1388C22.1062 25.9448 22.1422 25.7445 22.1544 25.5421C22.1669 25.3704 22.1697 25.1441 22.1669 24.8624C22.1512 22.9071 22.1351 20.9521 22.1184 18.9974C22.8183 18.9932 23.1678 18.9898 23.8669 18.9814C23.8983 20.8855 23.9283 22.7908 23.9569 24.6976Z" fill="#B5B5B5"/>
<path d="M28.9187 20.9078C28.8353 20.8143 28.7306 20.7423 28.6135 20.698C28.4964 20.6536 28.3702 20.6382 28.2458 20.6531C28.1151 20.6666 27.989 20.7085 27.8762 20.776C27.7634 20.8434 27.6668 20.9347 27.5931 21.0435C27.4094 21.2972 27.3172 21.6056 27.3315 21.9185C27.3384 22.2583 27.4346 22.5304 27.6187 22.7263C27.7015 22.8186 27.8078 22.8867 27.9263 22.9233C28.0449 22.9599 28.1711 22.9636 28.2915 22.9339C28.5556 22.8778 28.7876 22.7215 28.9387 22.4978C29.116 22.2578 29.2079 21.9654 29.1997 21.6672C29.1942 21.3522 29.1007 21.1017 28.9187 20.9078ZM30.735 22.5511C30.6168 22.9387 30.4684 23.3164 30.2913 23.6808C29.7375 24.8575 29.2163 26.0467 28.7048 27.2428C28.052 27.5222 27.3831 27.7621 26.7016 27.9613C27.1771 26.923 27.6547 25.8917 28.1469 24.8644L28.1282 24.8471C28.0784 24.8842 28.0233 24.9136 27.9648 24.9344C27.9406 24.9434 27.9129 24.9537 27.8797 24.9627L27.7994 24.9835C27.4974 25.0651 27.1766 25.0407 26.8905 24.9143C25.8778 24.5322 25.6079 23.253 25.585 22.3109C25.5636 21.4145 25.8072 20.4849 26.3029 19.7567C26.6732 19.2133 27.5107 18.7517 28.1718 18.7572C28.9685 18.7641 29.7915 19.0742 30.3273 19.7034C30.708 20.1506 30.8977 20.7106 30.9018 21.4388C30.9002 21.8157 30.844 22.1903 30.735 22.5511Z" fill="#B5B5B5"/>
<path d="M15.0338 28.2465C15.0836 26.1025 15.1327 23.9588 15.1812 21.8153L15.1736 21.8028C14.6987 23.8333 14.2061 25.8612 13.6957 27.8866C13.2334 27.7481 13.0035 27.6664 12.5502 27.4955C12.1653 25.4452 11.7673 23.399 11.3402 21.3571L11.3319 21.3661C11.3125 23.2308 11.2929 25.0959 11.2731 26.9611C10.7239 26.715 10.1894 26.4377 9.672 26.1305L9.71145 18.8354C10.4558 18.8589 11.1997 18.882 11.9431 18.9046C12.3764 20.8351 12.7827 22.7705 13.1773 24.7094L13.1953 24.7135C13.6983 22.8012 14.1828 20.8841 14.6489 18.9621C15.3988 18.9736 16.1482 18.9833 16.8972 18.9911C16.8598 22.1868 16.8219 25.3824 16.7836 28.5781C16.1948 28.4991 15.6107 28.3884 15.0338 28.2465Z" fill="#B3B3B3"/>
<path d="M23.9515 24.6831C23.9696 25.2119 23.9374 25.7413 23.8553 26.2641C23.7649 26.7716 23.5743 27.2561 23.2946 27.6893C22.8606 28.3856 22.1504 28.8854 21.3177 28.9269C20.9139 28.954 20.5103 28.8719 20.1492 28.6892C19.788 28.5065 19.4827 28.23 19.2653 27.8886C18.9761 27.4594 18.7753 26.9767 18.6749 26.4689C18.6294 26.2196 18.6003 25.9676 18.5877 25.7145C18.5759 25.4916 18.5731 25.2057 18.5752 24.8554C18.5904 22.9021 18.6054 20.9484 18.6202 18.9946C19.3179 18.9981 19.6675 18.9994 20.3659 18.9994V24.9025C20.3659 25.16 20.3752 25.3813 20.3936 25.5663C20.4115 25.7701 20.4541 25.9709 20.5203 26.1644C20.6636 26.5631 20.9197 26.7597 21.2866 26.7444C21.6666 26.7292 21.9199 26.5167 22.048 26.1215C22.1065 25.9278 22.1422 25.7281 22.1546 25.5262C22.167 25.3552 22.1698 25.1289 22.1677 24.8478C22.1511 22.8972 22.1347 20.9464 22.1186 18.9953C22.817 18.9911 23.1659 18.9884 23.8636 18.9794C23.8936 20.8792 23.9229 22.7805 23.9515 24.6831Z" fill="#B3B3B3"/>
<path d="M28.918 20.9009C28.8351 20.8074 28.7308 20.7354 28.6139 20.6911C28.4971 20.6469 28.3712 20.6317 28.2472 20.6469C28.1168 20.6603 27.9908 20.702 27.8782 20.7692C27.7655 20.8364 27.669 20.9274 27.5952 21.0359C27.4122 21.289 27.3202 21.5967 27.3342 21.9087C27.3411 22.2479 27.4367 22.5192 27.6208 22.7144C27.7026 22.8072 27.8081 22.876 27.926 22.9134C28.0439 22.9508 28.1698 22.9555 28.2901 22.927C28.5537 22.8713 28.7852 22.7154 28.936 22.4923C29.1134 22.2524 29.2051 21.9598 29.1962 21.6616C29.19 21.3446 29.1 21.094 28.918 20.9009ZM30.7308 22.5421C30.6128 22.9287 30.4647 23.3055 30.2878 23.669C29.7382 24.8457 29.2149 26.0287 28.7048 27.2213C28.0534 27.4998 27.3858 27.7388 26.7057 27.9371C27.1806 26.9043 27.6568 25.8729 28.1476 24.8485C28.1406 24.8416 28.1365 24.8381 28.1296 24.8305C28.0797 24.8667 28.0246 24.8952 27.9662 24.9149C27.942 24.9239 27.9143 24.9343 27.8818 24.9433L27.8015 24.9641C27.5001 25.045 27.1802 25.0206 26.8947 24.8949C25.8834 24.5128 25.6141 23.2391 25.592 22.2971C25.5698 21.4027 25.8135 20.4752 26.3084 19.7484C26.6773 19.2071 27.5135 18.7468 28.1732 18.7523C28.9685 18.7592 29.7901 19.0679 30.3245 19.6965C30.7045 20.1429 30.8935 20.7015 30.8977 21.427C30.8965 21.8048 30.8403 22.1805 30.7308 22.5421Z" fill="#B3B3B3"/>
<path d="M15.0387 28.2243C15.0885 26.0698 15.1384 23.9152 15.1882 21.7606L15.1792 21.7474C14.703 23.7908 14.208 25.8296 13.6944 27.8637C13.2334 27.7218 13.0022 27.6443 12.5516 27.474C12.1654 25.4147 11.7653 23.3582 11.3354 21.3065L11.3257 21.3162C11.3073 23.1902 11.2879 25.0642 11.2676 26.9382C10.7231 26.6927 10.193 26.4165 9.67969 26.1111L9.71914 18.8278C10.4612 18.8527 11.2034 18.8744 11.9459 18.8928C12.3786 20.8192 12.7842 22.7504 13.1774 24.6844L13.1954 24.6886C13.6979 22.78 14.1824 20.8672 14.649 18.9503C15.3965 18.9614 16.1444 18.9708 16.8924 18.9787L16.7782 28.5441C16.1931 28.4681 15.6125 28.3613 15.0387 28.2243Z" fill="#B3B3B3"/>
<path d="M23.9452 24.6679C23.9548 25.3103 23.9251 25.8363 23.8496 26.2461C23.7594 26.7524 23.5692 27.2357 23.2903 27.6679C22.857 28.3601 22.1482 28.8605 21.3176 28.9021C20.9145 28.9285 20.5118 28.846 20.1516 28.6634C19.7914 28.4807 19.4869 28.2045 19.2701 27.8638C18.9811 27.4358 18.7808 26.9542 18.681 26.4475C18.6356 26.1991 18.6065 25.948 18.5938 25.6958C18.582 25.4736 18.5792 25.1877 18.5813 24.8389C18.5965 22.8892 18.6113 20.9395 18.6256 18.9898C19.3227 18.9939 19.6708 18.9946 20.3679 18.9946V24.8852C20.3679 25.1423 20.3771 25.3629 20.3956 25.547C20.4135 25.7504 20.4558 25.951 20.5215 26.1444C20.6648 26.5417 20.9203 26.7383 21.2871 26.723C21.6658 26.7078 21.9184 26.4953 22.0485 26.1C22.1068 25.9069 22.1423 25.7076 22.1544 25.5061C22.1676 25.3352 22.1697 25.1095 22.1676 24.8292C22.1514 22.8827 22.1353 20.9363 22.1191 18.9898C22.8155 18.9856 23.1637 18.9822 23.86 18.9739C23.8877 20.871 23.9161 22.769 23.9452 24.6679Z" fill="#B3B3B3"/>
<path d="M28.9173 20.894C28.8346 20.8007 28.7305 20.7288 28.6139 20.6845C28.4974 20.6403 28.3718 20.625 28.248 20.64C28.1178 20.6535 27.9921 20.6952 27.8798 20.7623C27.7674 20.8294 27.671 20.9201 27.5973 21.0283C27.4147 21.2806 27.323 21.5873 27.337 21.8984C27.344 22.2376 27.4395 22.5082 27.6229 22.7027C27.7049 22.7955 27.8106 22.8641 27.9286 22.9013C28.0467 22.9385 28.1726 22.9429 28.293 22.9138C28.5557 22.8582 28.7867 22.7029 28.9374 22.4805C29.1147 22.2406 29.2062 21.9481 29.197 21.6499C29.19 21.3349 29.0987 21.0871 28.9173 20.894ZM30.7267 22.5324C30.6088 22.9181 30.4609 23.2939 30.2844 23.6566C29.7362 24.8292 29.2136 26.01 28.7041 27.2006C28.0542 27.477 27.3883 27.7142 26.7099 27.9108C27.1834 26.8815 27.6589 25.8522 28.149 24.8305L28.1303 24.8125C28.0807 24.8486 28.0258 24.8769 27.9676 24.8963C27.94 24.9073 27.9118 24.9168 27.8832 24.9247L27.8029 24.9461C27.5022 25.0267 27.1831 25.0023 26.8982 24.8769C25.8897 24.4962 25.6211 23.226 25.5982 22.2853C25.5768 21.3931 25.819 20.4676 26.3133 19.7429C26.6815 19.2023 27.5156 18.7434 28.1746 18.7489C28.9679 18.7558 29.7874 19.0645 30.3204 19.6917C30.699 20.1374 30.888 20.6953 30.8922 21.4222C30.8909 21.7983 30.8352 22.1723 30.7267 22.5324Z" fill="#B3B3B3"/>
<path d="M15.0436 28.2021L15.1952 21.7059L15.1855 21.6913C14.7065 23.7458 14.2092 25.7958 13.6938 27.8415C13.2335 27.7031 13.005 27.6228 12.553 27.4539C12.1647 25.3842 11.7625 23.318 11.3299 21.2566L11.3202 21.267C11.3013 23.1498 11.2822 25.0328 11.2628 26.916C10.7224 26.6737 10.1962 26.401 9.68665 26.0993C9.69957 23.6761 9.71295 21.2534 9.72679 18.8312C10.4674 18.8561 11.2081 18.8792 11.9487 18.9004C12.3807 20.8219 12.7849 22.749 13.1774 24.6789L13.1954 24.683C13.6965 22.779 14.1792 20.8702 14.6435 18.9565C15.3897 18.968 16.1358 18.9777 16.882 18.9855C16.8442 22.1664 16.8064 25.3473 16.7685 28.5282C16.1882 28.45 15.6124 28.3412 15.0436 28.2021Z" fill="#B1B1B1"/>
<path d="M23.9396 24.6533C23.9493 25.2943 23.9195 25.8189 23.8434 26.228C23.7537 26.7332 23.5641 27.2155 23.2855 27.6463C22.8535 28.3385 22.1468 28.8355 21.3175 28.8771C20.9152 28.9033 20.5132 28.8207 20.1538 28.638C19.7944 28.4553 19.4908 28.1792 19.2749 27.8388C18.9866 27.4118 18.7868 26.9314 18.6872 26.426C18.6412 26.1784 18.6118 25.9279 18.5993 25.6763C18.5875 25.4548 18.5847 25.1697 18.5868 24.8215C18.6016 22.8764 18.6163 20.9311 18.6311 18.9856C19.3233 18.989 19.6736 18.9897 20.3692 18.9897V24.8672C20.3674 25.0879 20.3768 25.3085 20.3976 25.5282C20.4151 25.7312 20.4572 25.9313 20.5229 26.1242C20.6655 26.5208 20.9202 26.7167 21.2843 26.7015C21.6622 26.6863 21.9142 26.4745 22.0409 26.0785C22.0993 25.8858 22.1351 25.687 22.1475 25.486C22.1599 25.3157 22.1627 25.0901 22.1599 24.8104C22.1438 22.8681 22.1276 20.9258 22.1115 18.9835C22.8071 18.9793 23.1546 18.9759 23.8489 18.9683C23.8807 20.8635 23.911 22.7585 23.9396 24.6533Z" fill="#B1B1B1"/>
<path d="M28.9166 20.8864C28.834 20.7934 28.7301 20.7218 28.6137 20.6777C28.4974 20.6336 28.3722 20.6183 28.2487 20.633C28.1188 20.6467 27.9934 20.6884 27.8813 20.7553C27.7692 20.8223 27.673 20.9128 27.5994 21.0207C27.4171 21.2723 27.3255 21.5783 27.3398 21.8887C27.3467 22.2265 27.4422 22.4971 27.625 22.6916C27.7071 22.7837 27.8127 22.8516 27.9305 22.8882C28.0483 22.9248 28.1738 22.9286 28.2936 22.8993C28.5557 22.8437 28.7861 22.6889 28.9367 22.4674C29.1132 22.2286 29.2046 21.9377 29.1963 21.6409C29.19 21.3287 29.098 21.0795 28.9166 20.8864ZM30.7219 22.5234C30.6048 22.9082 30.4576 23.2831 30.2816 23.6448C29.7341 24.8139 29.2129 25.9927 28.7041 27.1798C28.0554 27.4556 27.3909 27.6926 26.7141 27.8893C27.1868 26.8621 27.661 25.8356 28.1497 24.816L28.1317 24.7987C28.0819 24.8345 28.0271 24.8628 27.969 24.8824C27.9448 24.8908 27.9171 24.9018 27.8846 24.9101L27.8056 24.9344C27.5065 25.0139 27.1892 24.9895 26.9058 24.8651C25.8993 24.4851 25.6315 23.2177 25.6086 22.2791C25.5872 21.3889 25.8287 20.4662 26.3216 19.7429C26.6891 19.2037 27.5218 18.7454 28.1787 18.7516C28.9706 18.7586 29.7888 19.0666 30.3246 19.6923C30.7025 20.1374 30.8908 20.6946 30.8949 21.4187C30.8916 21.7934 30.8333 22.1656 30.7219 22.5234Z" fill="#B1B1B1"/>
<path d="M15.0484 28.18L15.2021 21.6512L15.1917 21.6353C14.7104 23.7008 14.2107 25.7617 13.6924 27.818C13.2328 27.6796 13.0051 27.6 12.5545 27.4318C12.1641 25.3552 11.7598 23.2786 11.3251 21.2055L11.314 21.2172C11.296 23.1092 11.2774 25.0012 11.258 26.8932C10.7218 26.6532 10.1995 26.3833 9.6936 26.0848C9.70745 23.6658 9.72106 21.2461 9.73444 18.8257C10.4728 18.8506 11.2111 18.8723 11.9495 18.8908C12.38 20.8081 12.7801 22.7304 13.1754 24.6561L13.1934 24.6602C13.6936 22.7604 14.1754 20.8559 14.6387 18.9468C15.383 18.9579 16.1276 18.9674 16.8724 18.9752L16.7582 28.4964C16.1832 28.4203 15.6126 28.3147 15.0484 28.18Z" fill="#B1B1B1"/>
<path d="M23.9334 24.638C23.9431 25.2783 23.9134 25.8016 23.8379 26.2093C23.7491 26.713 23.5609 27.194 23.2842 27.6242C22.8529 28.3164 22.1476 28.8106 21.3204 28.8521C20.9192 28.8784 20.5183 28.7964 20.1596 28.6145C19.801 28.4327 19.4978 28.1578 19.2819 27.8187C18.9947 27.3923 18.7954 26.913 18.6956 26.4087C18.6504 26.1609 18.6214 25.9105 18.6091 25.659C18.5973 25.4382 18.5938 25.1537 18.5966 24.8055L18.6402 18.9821C19.3324 18.9855 19.6785 18.9869 20.3749 18.9862V24.8512C20.373 25.0714 20.3825 25.2916 20.4032 25.5109C20.4207 25.7132 20.4628 25.9126 20.5285 26.1048C20.6704 26.5007 20.9252 26.6959 21.2899 26.6814C21.6672 26.6662 21.9185 26.455 22.0451 26.0584C22.1033 25.8662 22.1389 25.6678 22.151 25.4673C22.1635 25.297 22.1663 25.072 22.1642 24.7931C22.1476 22.8549 22.1314 20.9168 22.1157 18.9786C22.8079 18.9745 23.154 18.9717 23.8462 18.9634L23.9334 24.638Z" fill="#B1B1B1"/>
<path d="M28.9131 20.8794C28.8307 20.7866 28.727 20.715 28.6109 20.671C28.4948 20.627 28.3698 20.6118 28.2465 20.6268C28.1171 20.6401 27.9921 20.6814 27.8803 20.748C27.7685 20.8146 27.6726 20.9048 27.5993 21.0123C27.4171 21.2635 27.3256 21.569 27.3398 21.879C27.3467 22.2161 27.4422 22.486 27.6243 22.6798C27.7063 22.7716 27.8117 22.8393 27.9292 22.8759C28.0467 22.9124 28.1719 22.9165 28.2915 22.8875C28.5532 22.8323 28.7833 22.6777 28.9332 22.4563C29.1095 22.2183 29.2007 21.9279 29.1921 21.6319C29.19 21.3211 29.0966 21.0719 28.9131 20.8794ZM30.7128 22.5144C30.5955 22.8981 30.4486 23.2721 30.2733 23.633C29.7265 24.7994 29.2066 25.9754 28.6992 27.1584C28.0519 27.4332 27.3888 27.6692 26.7133 27.8651C27.1847 26.8406 27.6582 25.8169 28.1462 24.8L28.1282 24.7827C28.0784 24.8183 28.0236 24.8463 27.9655 24.8658C27.9381 24.8766 27.9102 24.8858 27.8818 24.8935L27.8015 24.9149C27.5023 24.9946 27.185 24.9702 26.9016 24.8457C25.8979 24.4657 25.63 23.2018 25.6079 22.2652C25.5864 21.3778 25.8273 20.4565 26.3195 19.7352C26.6863 19.1967 27.5163 18.7405 28.1718 18.7461C28.9623 18.753 29.7784 19.061 30.3093 19.6854C30.6872 20.1298 30.8755 20.6863 30.879 21.409C30.8791 21.7824 30.8248 22.1539 30.7177 22.5116L30.7128 22.5144Z" fill="#B1B1B1"/>
<path d="M15.0526 28.1572C15.1052 25.9708 15.1574 23.7839 15.2091 21.5966L15.198 21.58C14.7148 23.6566 14.2128 25.7281 13.6918 27.7945C13.2328 27.6561 13.0058 27.5785 12.5566 27.4103C12.1634 25.3213 11.7571 23.2357 11.3203 21.155L11.3085 21.1674C11.2901 23.0682 11.2716 24.969 11.2532 26.8697C10.7214 26.6318 10.2031 26.3649 9.70056 26.0702L9.74209 18.8229C10.4804 18.8474 11.2188 18.8689 11.9571 18.8873C12.387 20.8005 12.7878 22.7186 13.1802 24.6402L13.1982 24.6443C13.6971 22.7486 14.1777 20.8481 14.6401 18.9427C15.3835 18.9547 16.1265 18.9641 16.869 18.9711L16.7547 28.4708C16.1824 28.3955 15.6143 28.2908 15.0526 28.1572Z" fill="#B0B0B0"/>
<path d="M23.9295 24.6229C23.9391 25.2618 23.9094 25.7844 23.8339 26.1914C23.7451 26.694 23.5569 27.1739 23.2802 27.6028C22.8503 28.295 22.1464 28.7865 21.3213 28.8273C20.9209 28.8539 20.5208 28.7721 20.1629 28.5907C19.805 28.4092 19.5027 28.1346 19.2876 27.7959C18.9993 27.3707 18.7992 26.8919 18.6992 26.388C18.654 26.1407 18.6251 25.8908 18.6127 25.6397C18.6002 25.4189 18.5975 25.1351 18.6002 24.7883L18.6438 18.9739C19.336 18.978 19.6821 18.9787 20.3743 18.9787V24.8306C20.3725 25.0501 20.3819 25.2696 20.4027 25.4881C20.4199 25.6902 20.4618 25.8894 20.5273 26.0814C20.6692 26.4766 20.9232 26.6711 21.2887 26.6566C21.6646 26.6413 21.9165 26.4309 22.0425 26.0377C22.1 25.8456 22.1353 25.6475 22.1477 25.4473C22.1602 25.2777 22.163 25.0534 22.1609 24.7745C22.1452 22.8405 22.129 20.9067 22.1124 18.9732C22.8046 18.969 23.1507 18.9656 23.8429 18.9579L23.9295 24.6229Z" fill="#B0B0B0"/>
<path d="M28.9131 20.8725C28.831 20.7796 28.7275 20.7081 28.6116 20.6641C28.4958 20.6201 28.3709 20.6049 28.2479 20.6198C28.1187 20.6331 27.994 20.6745 27.8825 20.7409C27.7709 20.8074 27.6752 20.8974 27.6021 21.0047C27.4204 21.2553 27.3291 21.5601 27.3432 21.8693C27.3501 22.2057 27.4449 22.4749 27.627 22.6681C27.7087 22.7598 27.8139 22.8276 27.9312 22.8641C28.0484 22.9007 28.1735 22.9047 28.2929 22.8757C28.554 22.8209 28.7835 22.6668 28.9332 22.4459C29.1091 22.2085 29.2001 21.9189 29.1913 21.6235C29.19 21.3127 29.0958 21.0649 28.9131 20.8725ZM30.7128 22.5047C30.5956 22.8869 30.4492 23.2595 30.2746 23.6191C29.7292 24.782 29.21 25.9553 28.704 27.1355C28.0582 27.4096 27.3966 27.6454 26.723 27.8415C27.193 26.8199 27.665 25.7989 28.1517 24.7848L28.1337 24.7668C28.0843 24.8027 28.0296 24.8307 27.9717 24.8499C27.9482 24.8589 27.9205 24.8692 27.8879 24.8782L27.8083 24.899C27.5093 24.9794 27.1917 24.9549 26.9085 24.8298C25.9076 24.4512 25.6404 23.19 25.6175 22.2555C25.5961 21.3702 25.837 20.4509 26.3277 19.7318C26.6939 19.1946 27.5225 18.7391 28.1766 18.7447C28.965 18.7523 29.7797 19.0596 30.3092 19.6833C30.6858 20.1263 30.8741 20.6814 30.8775 21.4034C30.8764 21.7766 30.8209 22.1476 30.7128 22.5047Z" fill="#B0B0B0"/>
<path d="M15.0574 28.135C15.1114 25.9376 15.1642 23.7401 15.2159 21.5426L15.2034 21.5246C14.7184 23.6132 14.2141 25.6957 13.6903 27.7723C13.2328 27.6339 13.0064 27.5571 12.5579 27.3902C12.1633 25.2908 11.7549 23.1955 11.3119 21.1051L11.2995 21.1182L11.2455 26.8476C10.7178 26.6125 10.2037 26.3484 9.70532 26.0564L9.74685 18.8215C10.4824 18.8455 11.2182 18.8668 11.9543 18.8852C12.3827 20.7943 12.7849 22.7082 13.1746 24.6249L13.1926 24.6291C13.6901 22.7371 14.1698 20.8409 14.6317 18.9406C15.3733 18.9531 16.1144 18.9623 16.855 18.9683C16.8172 22.1275 16.7794 25.2867 16.7415 28.4458C16.1752 28.3709 15.6131 28.2672 15.0574 28.135Z" fill="#AFAFAF"/>
<path d="M23.9216 24.6083C23.9313 25.2458 23.9015 25.7663 23.8268 26.1727C23.7377 26.6744 23.5494 27.1532 23.273 27.5813C22.8438 28.2693 22.1413 28.7615 21.3182 28.8023C20.9191 28.8279 20.5205 28.7458 20.1639 28.5647C19.8074 28.3835 19.5061 28.1098 19.2915 27.7723C19.0051 27.3484 18.8067 26.8713 18.708 26.3692C18.662 26.1239 18.6322 25.8758 18.6187 25.6265C18.6062 25.4064 18.6034 25.1233 18.6062 24.7772C18.6205 22.8446 18.6348 20.9117 18.6491 18.9786C19.3413 18.9821 19.6874 18.9828 20.3762 18.9828V24.8215C20.3746 25.0408 20.3841 25.26 20.4045 25.4784C20.4219 25.68 20.4637 25.8787 20.5291 26.0702C20.6676 26.4641 20.9237 26.6586 21.2871 26.644C21.6623 26.6288 21.9135 26.4184 22.0388 26.0266C22.097 25.8351 22.1325 25.6374 22.1447 25.4375C22.1572 25.268 22.1593 25.0444 22.1572 24.7661L22.1094 18.9773C22.8016 18.9731 23.1477 18.9703 23.8351 18.962C23.8651 20.843 23.8939 22.7251 23.9216 24.6083Z" fill="#AFAFAF"/>
<path d="M28.9129 20.8656C28.8309 20.773 28.7276 20.7017 28.6121 20.6577C28.4965 20.6137 28.3719 20.5983 28.2491 20.6129C28.1202 20.6262 27.9957 20.6675 27.8844 20.7338C27.7731 20.8002 27.6776 20.89 27.6047 20.9971C27.4238 21.2473 27.3329 21.5512 27.3465 21.8596C27.3534 22.1946 27.4482 22.4632 27.6296 22.657C27.7112 22.7485 27.8161 22.8162 27.9331 22.8528C28.0501 22.8894 28.1749 22.8935 28.2941 22.8647C28.5546 22.8102 28.7837 22.6565 28.933 22.4362C29.1076 22.1998 29.198 21.9118 29.1898 21.618C29.1979 21.3409 29.0987 21.0713 28.9129 20.8656ZM30.7071 22.4957C30.5906 22.8778 30.4443 23.2502 30.2696 23.6095C29.7256 24.7696 29.2071 25.9394 28.7018 27.1168C28.0572 27.3885 27.3974 27.6224 26.7256 27.8173C27.1942 26.7977 27.6656 25.7795 28.1515 24.7675L28.1335 24.7502C28.084 24.7858 28.0294 24.8138 27.9715 24.8333C27.948 24.8416 27.9203 24.852 27.8878 24.861L27.8089 24.8817C27.5098 24.9618 27.1923 24.9374 26.909 24.8125C25.9102 24.4339 25.643 23.1761 25.6208 22.2444C25.5994 21.3605 25.8396 20.4447 26.3289 19.7262C26.6979 19.1891 27.5285 18.7343 28.1778 18.7405C28.9648 18.7475 29.7775 19.0548 30.3063 19.6771C30.6822 20.1194 30.8698 20.6738 30.8732 21.3944C30.8726 21.7676 30.8171 22.1387 30.7085 22.4957H30.7071Z" fill="#AFAFAF"/>
<path d="M15.0623 28.1129C15.1163 25.9039 15.1698 23.6953 15.2229 21.4872L15.2098 21.4678C14.7224 23.5665 14.2148 25.6602 13.6869 27.7488C13.2301 27.6104 13.0037 27.5342 12.5566 27.3681C12.1599 25.2597 11.7495 23.154 11.3071 21.0539L11.2933 21.0684C11.2762 22.9872 11.2587 24.906 11.2407 26.8247C10.7184 26.5915 10.2091 26.3302 9.71509 26.0418C9.72893 23.6344 9.74301 21.2269 9.75731 18.8195C10.491 18.8439 11.2252 18.8649 11.9599 18.8824C12.3877 20.7874 12.7905 22.6971 13.1782 24.6097L13.1955 24.6138C13.6925 22.726 14.171 20.834 14.6311 18.9378C15.3694 18.9494 16.1091 18.9586 16.8503 18.9655L16.736 28.4209C16.1733 28.3464 15.6147 28.2436 15.0623 28.1129Z" fill="#AEAEAE"/>
<path d="M23.9161 24.5931C23.9257 25.2292 23.896 25.7491 23.8212 26.1547C23.7315 26.6551 23.5432 27.1327 23.2675 27.5599C22.839 28.2458 22.1378 28.7366 21.3169 28.7774C20.9183 28.8038 20.52 28.7225 20.1636 28.542C19.8073 28.3615 19.506 28.0885 19.2915 27.7516C19.0058 27.3284 18.8076 26.8523 18.7087 26.3513C18.6641 26.1051 18.6352 25.8563 18.6221 25.6065C18.6104 25.3871 18.6076 25.1039 18.6104 24.7585C18.6247 22.8301 18.639 20.9014 18.6533 18.9725C19.342 18.9759 19.6867 18.9773 20.3762 18.9766C20.3762 20.9189 20.3762 22.861 20.3762 24.8028C20.3741 25.0214 20.3833 25.24 20.4038 25.4577C20.421 25.659 20.4626 25.8575 20.5278 26.0488C20.6697 26.4413 20.9223 26.6358 21.2843 26.6212C21.6588 26.606 21.9073 26.3963 22.0347 26.0052C22.0923 25.8138 22.1276 25.6163 22.1399 25.4168C22.1523 25.2486 22.1551 25.025 22.1523 24.7475L22.1046 18.9718C22.7968 18.9676 23.138 18.9642 23.8268 18.9565C23.8586 20.8352 23.8884 22.714 23.9161 24.5931Z" fill="#AEAEAE"/>
<path d="M28.913 20.8587C28.8313 20.7661 28.7283 20.6948 28.6129 20.6509C28.4975 20.607 28.3731 20.5918 28.2506 20.6067C28.1218 20.6197 27.9975 20.6607 27.8863 20.7268C27.7751 20.7929 27.6797 20.8826 27.6068 20.9895C27.4265 21.2391 27.3358 21.5423 27.3493 21.8499C27.3562 22.1842 27.4511 22.4521 27.6324 22.6452C27.7137 22.7366 27.8182 22.8042 27.9349 22.8407C28.0516 22.8773 28.176 22.8815 28.2949 22.8529C28.5547 22.7986 28.7833 22.6455 28.9324 22.4258C29.1063 22.1906 29.197 21.9042 29.1899 21.6118C29.1857 21.2968 29.0937 21.0497 28.913 20.8587ZM30.703 22.486C30.5867 22.8672 30.4406 23.2386 30.2662 23.597C29.7229 24.7543 29.2065 25.9214 28.7019 27.0954C28.0587 27.3661 27.4002 27.5991 26.7298 27.7931C27.1977 26.7762 27.6677 25.7608 28.1523 24.7516L28.1343 24.7343C28.0849 24.7696 28.0306 24.7974 27.973 24.8166C27.9459 24.8274 27.9181 24.8367 27.8899 24.8443L27.8103 24.8651C27.5128 24.9446 27.1971 24.9202 26.9153 24.7959C25.9192 24.4179 25.6527 23.1637 25.6299 22.2347C25.6091 21.3529 25.8486 20.4385 26.3373 19.7221C26.7014 19.1877 27.5265 18.735 28.1779 18.7405C28.9628 18.7481 29.7741 19.0541 30.3015 19.6757C30.676 20.1173 30.8636 20.6711 30.8671 21.3896C30.8666 21.761 30.8118 22.1304 30.7044 22.486H30.703Z" fill="#AEAEAE"/>
<path d="M15.069 28.09C15.123 25.8709 15.1772 23.6517 15.2317 21.4325L15.2178 21.4124C14.7287 23.5213 14.2195 25.6258 13.6902 27.7259C13.2347 27.5875 13.009 27.5121 12.5626 27.3473C12.1646 25.2285 11.752 23.1131 11.3062 21.004L11.2924 21.0185C11.2721 22.9461 11.2539 24.8743 11.2377 26.8032C10.719 26.572 10.2129 26.3132 9.7218 26.028C9.73611 23.6247 9.75018 21.2214 9.76403 18.8181C10.4968 18.8416 11.2296 18.8624 11.9624 18.8804C12.3888 20.7811 12.7896 22.6874 13.1779 24.5944L13.1952 24.5986C13.6909 22.7154 14.1685 20.8275 14.6281 18.935C15.3664 18.9475 16.1048 18.9567 16.8431 18.9627L16.7303 28.3953C16.0589 28.3005 15.7259 28.2396 15.069 28.09Z" fill="#AEAEAE"/>
<path d="M23.9108 24.5786C23.9198 25.2126 23.8907 25.7318 23.8152 26.1367C23.726 26.6362 23.5377 27.1128 23.2615 27.5384C22.8344 28.2223 22.1346 28.7151 21.3157 28.7525C20.9182 28.7792 20.5208 28.6983 20.1655 28.5181C19.8101 28.3379 19.5099 28.0652 19.2966 27.7288C19.0113 27.3069 18.8136 26.8322 18.7151 26.3326C18.6703 26.0869 18.6414 25.8386 18.6286 25.5892C18.6168 25.3698 18.6141 25.088 18.6168 24.7433C18.6316 22.8181 18.6459 20.8935 18.6598 18.9697C19.3471 18.9732 19.6911 18.9739 20.3785 18.9739C20.3785 20.912 20.3785 22.8502 20.3785 24.7883C20.3768 25.0064 20.386 25.2245 20.4062 25.4417C20.4233 25.6424 20.4649 25.8402 20.5301 26.0308C20.6685 26.4233 20.9232 26.6171 21.2846 26.6026C21.6584 26.5873 21.9075 26.3783 22.0328 25.9879C22.0907 25.797 22.1261 25.6 22.138 25.4009C22.1505 25.2327 22.1533 25.0098 22.1512 24.7329L22.1034 18.9697C22.7908 18.9655 23.1341 18.9628 23.8215 18.9545C23.8524 20.8289 23.8822 22.7036 23.9108 24.5786Z" fill="#AEAEAE"/>
<path d="M28.913 20.8504C28.8314 20.758 28.7286 20.6868 28.6135 20.643C28.4983 20.5991 28.3743 20.5838 28.2519 20.5984C28.1235 20.6114 27.9996 20.6523 27.8887 20.7183C27.7778 20.7843 27.6828 20.8738 27.6102 20.9805C27.43 21.2293 27.3392 21.5318 27.3527 21.8388C27.3597 22.1725 27.4545 22.4396 27.6352 22.6321C27.7162 22.7233 27.8205 22.7908 27.937 22.8273C28.0534 22.8639 28.1775 22.8682 28.2962 22.8397C28.5554 22.7856 28.7834 22.633 28.9323 22.414C29.1069 22.1782 29.1974 21.8906 29.1891 21.5972C29.1843 21.2892 29.0929 21.0428 28.913 20.8504ZM30.6995 22.4756C30.5833 22.8557 30.4375 23.226 30.2634 23.5832C29.7221 24.7398 29.2064 25.9034 28.7053 27.0746C28.0632 27.3431 27.4061 27.5742 26.7374 27.7668C27.2039 26.752 27.6732 25.7394 28.1571 24.7329C28.1507 24.7273 28.1447 24.7212 28.1391 24.7149C28.09 24.7507 28.0355 24.7785 27.9778 24.7973C27.9506 24.8081 27.9229 24.8173 27.8947 24.825L27.8158 24.8457C27.5189 24.9245 27.2041 24.9001 26.9229 24.7765C25.9289 24.3993 25.6631 23.1478 25.6402 22.2195C25.6188 21.3397 25.8583 20.4274 26.3456 19.7131C26.709 19.1801 27.5327 18.7281 28.182 18.7343C28.9656 18.7412 29.774 19.0472 30.3008 19.6674C30.6753 20.1083 30.8622 20.6614 30.8656 21.3785C30.8643 21.7508 30.8086 22.1209 30.7002 22.477L30.6995 22.4756Z" fill="#AEAEAE"/>
<path d="M15.0692 28.0679C15.1246 25.8377 15.1797 23.6076 15.2346 21.3778L15.2201 21.3564C14.7295 23.4768 14.2178 25.5924 13.6848 27.7031C13.23 27.5647 13.0051 27.4906 12.5593 27.3259C12.162 25.1974 11.7466 23.0723 11.2995 20.9535L11.2842 20.9694C11.2676 22.9076 11.2506 24.8441 11.233 26.779C10.7184 26.5502 10.2163 26.2942 9.72888 26.0121C9.74365 23.6125 9.75795 21.2129 9.7718 18.8132C10.5032 18.8368 11.2344 18.8573 11.9654 18.8748C12.3911 20.7715 12.7905 22.6722 13.1781 24.5765L13.1954 24.5806C13.6906 22.7011 14.167 20.8174 14.6248 18.9295C15.3631 18.9411 16.0994 18.9501 16.8336 18.9565C16.7953 22.0945 16.7575 25.2324 16.7201 28.3704C16.0563 28.2763 15.7254 28.216 15.0692 28.0679Z" fill="#ACACAC"/>
<path d="M23.9044 24.5633C23.9141 25.1967 23.8843 25.7145 23.8096 26.118C23.7213 26.6162 23.5342 27.0916 23.2593 27.5163C22.8329 28.1995 22.1351 28.6875 21.3177 28.7276C20.9211 28.7535 20.525 28.6724 20.1705 28.4928C19.816 28.3132 19.5163 28.0417 19.3027 27.7066C19.0186 27.2854 18.8217 26.8117 18.7233 26.3132C18.6784 26.068 18.6495 25.8201 18.6368 25.5712C18.625 25.3525 18.6222 25.0714 18.625 24.7274C18.6389 22.8072 18.6529 20.8869 18.6672 18.9662C19.3532 18.9697 19.6965 18.9704 20.3825 18.9704C20.3825 20.9039 20.3825 22.8375 20.3825 24.771C20.3808 24.9887 20.39 25.2063 20.4102 25.4231C20.4274 25.6233 20.469 25.8206 20.5341 26.0107C20.6725 26.4018 20.9259 26.5956 21.2865 26.5811C21.6596 26.5659 21.9095 26.3575 22.0334 25.9678C22.091 25.7773 22.1263 25.5808 22.1386 25.3822C22.1504 25.2147 22.1531 24.9918 22.1511 24.7156L22.1033 18.9649C22.7893 18.9614 23.1326 18.9579 23.8179 18.9503C23.846 20.8216 23.8749 22.6926 23.9044 24.5633Z" fill="#ACACAC"/>
<path d="M28.9131 20.8441C28.8316 20.7521 28.729 20.6812 28.6142 20.6374C28.4993 20.5937 28.3755 20.5784 28.2534 20.5928C28.1253 20.6057 28.0016 20.6466 27.891 20.7125C27.7803 20.7784 27.6855 20.8677 27.6132 20.9742C27.433 21.222 27.3427 21.5238 27.3571 21.8298C27.3633 22.1634 27.4574 22.4299 27.6381 22.6224C27.719 22.7134 27.8231 22.7808 27.9392 22.8173C28.0554 22.8539 28.1793 22.8583 28.2977 22.83C28.5565 22.7765 28.7842 22.6243 28.9325 22.4057C29.1069 22.1706 29.1971 21.8836 29.1886 21.591C29.1831 21.2816 29.0917 21.0352 28.9131 20.8441ZM30.6955 22.4673C30.5799 22.8473 30.4346 23.2177 30.2608 23.5748C29.7202 24.726 29.2052 25.8868 28.7034 27.0552C28.0626 27.3234 27.4069 27.5545 26.7396 27.7474C27.2055 26.7361 27.6734 25.7255 28.1558 24.7211L28.1379 24.7038C28.0888 24.7392 28.0346 24.767 27.9773 24.7862C27.9537 24.7945 27.9267 24.8049 27.8942 24.8132L27.8153 24.8339C27.5191 24.9127 27.2049 24.8883 26.9244 24.7647C25.9367 24.384 25.6674 23.1346 25.6452 22.2098C25.6238 21.3321 25.8626 20.4226 26.3485 19.7096C26.7119 19.178 27.5329 18.7267 28.1815 18.7329C28.963 18.7405 29.7735 19.0458 30.2954 19.6646C30.6685 20.1048 30.8554 20.6565 30.8596 21.373C30.8582 21.7438 30.803 22.1124 30.6955 22.4673Z" fill="#ACACAC"/>
<path d="M15.0761 28.0492C15.1324 25.8083 15.1882 23.5675 15.2436 21.3266L15.2277 21.3037C14.7344 23.4334 14.2201 25.5589 13.6848 27.6803C13.2314 27.5418 13.0064 27.4685 12.562 27.3044C12.1619 25.1662 11.7466 23.0315 11.2946 20.903C11.2877 20.9099 11.2849 20.9133 11.278 20.9196C11.2623 22.8656 11.2457 24.8111 11.2282 26.7562C10.7188 26.53 10.2218 26.277 9.73926 25.9982C9.7531 23.6023 9.76741 21.2068 9.78217 18.8118C10.5117 18.8354 11.2413 18.8559 11.9709 18.8734C12.3959 20.7652 12.7939 22.6625 13.1809 24.5626L13.1982 24.5661C13.6915 22.6907 14.167 20.8111 14.6248 18.9274C15.3594 18.939 16.0941 18.9482 16.8287 18.9551L16.7145 28.3441C16.0528 28.2513 15.7254 28.1918 15.0761 28.0492Z" fill="#ACACAC"/>
<path d="M23.8989 24.5481C23.9079 25.1801 23.8788 25.6971 23.804 26.1C23.7159 26.5972 23.529 27.0717 23.2544 27.4955C22.8294 28.1766 22.1331 28.6632 21.3163 28.7033C20.9212 28.7284 20.5265 28.6471 20.1735 28.4679C19.8205 28.2887 19.5219 28.0182 19.3089 27.6844C19.0251 27.2644 18.8284 26.7918 18.7302 26.2945C18.6852 26.0509 18.6561 25.8047 18.643 25.5573C18.6312 25.3393 18.6285 25.0582 18.6312 24.7149C18.6451 22.7989 18.6592 20.8838 18.6735 18.9697C19.358 18.9697 19.7 18.9745 20.3846 18.9738C20.3846 20.9032 20.3846 22.8323 20.3846 24.7613C20.3829 24.9785 20.3921 25.1957 20.4123 25.4119C20.4295 25.6119 20.4709 25.809 20.5355 25.9989C20.6739 26.3893 20.9273 26.5818 21.2872 26.5679C21.6589 26.5527 21.9102 26.3443 22.032 25.956C22.0893 25.766 22.1244 25.5699 22.1365 25.3718C22.149 25.2043 22.1511 24.9821 22.149 24.7066C22.1328 22.7943 22.1171 20.8817 22.1019 18.969C22.7858 18.9648 23.1284 18.962 23.8123 18.9537C23.8442 20.8181 23.873 22.6828 23.8989 24.5481Z" fill="#ACACAC"/>
<path d="M28.9131 20.8372C28.8316 20.7455 28.7293 20.6748 28.6146 20.6312C28.5 20.5876 28.3766 20.5723 28.2548 20.5866C28.127 20.5995 28.0036 20.6402 27.8932 20.7058C27.7829 20.7715 27.6882 20.8605 27.6159 20.9666C27.4362 21.2136 27.3459 21.5143 27.3598 21.8194C27.366 22.1517 27.4601 22.4182 27.6401 22.6099C27.7208 22.7008 27.8246 22.7681 27.9406 22.8047C28.0565 22.8413 28.1802 22.8457 28.2984 22.8176C28.5565 22.7643 28.7837 22.6126 28.9318 22.3946C29.1064 22.1609 29.1974 21.8751 29.1899 21.5834C29.1823 21.2733 29.091 21.0275 28.9131 20.8372ZM30.692 22.4583C30.5759 22.8367 30.4308 23.2056 30.258 23.5617C29.7181 24.7093 29.2045 25.8674 28.7033 27.0324C28.0643 27.2998 27.4102 27.5298 26.7444 27.7211C27.2089 26.7126 27.6761 25.704 28.1579 24.7031L28.1399 24.6858C28.0909 24.7212 28.0367 24.7488 27.9793 24.7675C27.9558 24.7758 27.9288 24.7862 27.8969 24.7945L27.818 24.8153C27.5225 24.8937 27.2091 24.8693 26.9292 24.746C25.9401 24.3702 25.675 23.1249 25.6521 22.2008C25.6314 21.3252 25.8695 20.4177 26.354 19.7089C26.7167 19.178 27.5363 18.7288 28.1828 18.735C28.9629 18.7419 29.7686 19.0472 30.2926 19.6646C30.665 20.1042 30.8512 20.6551 30.8554 21.3702C30.854 21.739 30.7987 22.1055 30.6913 22.4583H30.692Z" fill="#ACACAC"/>
<path d="M15.0809 28.0229C15.1377 25.7719 15.1942 23.5204 15.2505 21.2684L15.2339 21.2442C14.7383 23.3873 14.2219 25.525 13.6847 27.6574C13.232 27.519 13.0078 27.4498 12.5641 27.2836C12.1598 25.1378 11.7417 22.992 11.2884 20.8524L11.2717 20.8704C11.2556 22.8243 11.2392 24.7788 11.2226 26.734C10.7167 26.5096 10.2227 26.2592 9.74268 25.9837L9.78628 18.8098C10.5145 18.8333 11.2424 18.8538 11.9702 18.8714C12.3938 20.7583 12.7918 22.6515 13.1774 24.5474L13.1947 24.5515C13.6875 22.6808 14.1619 20.8054 14.6178 18.9254C15.3506 18.9373 16.0837 18.9463 16.8169 18.9523L16.7034 28.3192C16.05 28.2271 15.7246 28.1676 15.0809 28.0229Z" fill="#AAAAAA"/>
<path d="M23.8925 24.5336C23.9104 25.0513 23.8789 25.5696 23.7984 26.0814C23.71 26.5772 23.5236 27.0504 23.2501 27.4734C22.8258 28.1524 22.1309 28.6383 21.3175 28.6778C20.9226 28.704 20.5278 28.6235 20.1746 28.4448C19.8214 28.266 19.5229 27.9955 19.3102 27.6616C19.0275 27.2432 18.8312 26.7726 18.7329 26.2773C18.6883 26.0334 18.6596 25.7869 18.647 25.5394C18.6353 25.3213 18.6325 25.041 18.6353 24.699L18.6768 18.9628C19.36 18.9663 19.7013 18.967 20.3845 18.967C20.3845 20.8913 20.3845 22.816 20.3845 24.7413C20.3828 24.958 20.392 25.1747 20.4121 25.3905C20.43 25.589 20.4721 25.7845 20.5374 25.9727C20.6759 26.3617 20.9278 26.5541 21.2871 26.5403C21.6581 26.5251 21.9059 26.3174 22.0298 25.9298C22.0875 25.7403 22.1226 25.5447 22.1343 25.3469C22.1468 25.1801 22.1496 24.9586 22.1468 24.6831C22.1316 22.7745 22.1159 20.8661 22.0997 18.958C22.7829 18.9538 23.1242 18.951 23.8067 18.9434L23.8925 24.5336Z" fill="#AAAAAA"/>
<path d="M28.9132 20.8303C28.8319 20.7388 28.7297 20.6683 28.6154 20.6247C28.501 20.581 28.3778 20.5656 28.2563 20.5797C28.1288 20.5926 28.0058 20.6332 27.8957 20.6986C27.7855 20.764 27.691 20.8526 27.6187 20.9584C27.4398 21.2053 27.3499 21.5058 27.364 21.8105C27.3709 22.142 27.4644 22.4078 27.6409 22.5989C27.7213 22.6897 27.8249 22.757 27.9406 22.7936C28.0563 22.8302 28.1798 22.8346 28.2978 22.8065C28.5553 22.7535 28.7819 22.6023 28.9298 22.385C29.1047 22.1518 29.1964 21.8666 29.19 21.5751C29.1967 21.3005 29.0976 21.0339 28.9132 20.8303ZM30.6886 22.4487C30.5725 22.8265 30.4271 23.1947 30.2539 23.5499C29.7154 24.6948 29.2025 25.8494 28.7027 27.0109C28.0648 27.2768 27.4121 27.5058 26.748 27.6969C27.2117 26.6904 27.6776 25.6847 28.158 24.6865L28.14 24.6692C28.0911 24.7041 28.0371 24.7314 27.9801 24.7502C27.9532 24.7611 27.9257 24.7704 27.8977 24.7779L27.8195 24.798C27.5244 24.8761 27.2115 24.8517 26.9321 24.7288C25.9457 24.3529 25.6806 23.1111 25.6584 22.1891C25.637 21.3162 25.8744 20.4101 26.3589 19.7013C26.7203 19.1718 27.5357 18.7233 28.1829 18.7322C28.9616 18.7399 29.7659 19.0444 30.2879 19.6605C30.6603 20.0993 30.8458 20.6496 30.8499 21.3626C30.8487 21.7306 30.7939 22.0964 30.6873 22.4487H30.6886Z" fill="#AAAAAA"/>
<path d="M15.0857 28.0008C15.1429 25.7396 15.2001 23.4773 15.2574 21.2138L15.2401 21.1889C14.7417 23.3425 14.2232 25.4909 13.6847 27.6339C13.2334 27.4955 13.0098 27.4262 12.5668 27.2615C12.1612 25.1039 11.7403 22.9498 11.2848 20.8019L11.2668 20.8199C11.2516 22.7839 11.2357 24.7474 11.2191 26.7105C10.7172 26.4898 10.2269 26.2436 9.75024 25.9726C9.76501 23.585 9.77978 21.1979 9.79454 18.8112C10.5204 18.8342 11.2468 18.8545 11.9736 18.8721C12.3965 20.7548 12.7931 22.6432 13.178 24.5349L13.1953 24.5384C13.6868 22.6713 14.1602 20.8001 14.6157 18.9247C15.3467 18.9362 16.0779 18.9452 16.8093 18.9517C16.771 22.067 16.7331 25.1819 16.6958 28.2963C16.0472 28.2022 15.7246 28.1441 15.0857 28.0008Z" fill="#AAAAAA"/>
<path d="M23.8871 24.519C23.9036 25.0357 23.8714 25.5527 23.7909 26.0633C23.7026 26.5579 23.5167 27.0299 23.244 27.4519C22.8197 28.1295 22.1268 28.6134 21.3156 28.6528C20.9219 28.6789 20.5284 28.5986 20.1765 28.4203C19.8245 28.242 19.527 27.9723 19.3151 27.6395C19.0327 27.2211 18.8368 26.7503 18.7392 26.2551C18.6947 26.0114 18.666 25.7652 18.6534 25.5179C18.6416 25.3019 18.6388 25.0216 18.6416 24.6796L18.6831 18.9558C19.3643 18.9593 19.7055 18.96 20.3866 18.96C20.3866 20.8811 20.3866 22.8017 20.3866 24.7218C20.3849 24.9379 20.3942 25.1539 20.4143 25.3691C20.4313 25.5681 20.4726 25.7643 20.5375 25.9533C20.676 26.3423 20.9266 26.534 21.2851 26.5195C21.6554 26.5049 21.9026 26.298 22.0265 25.911C22.0836 25.7219 22.1185 25.5268 22.1303 25.3296C22.1428 25.1642 22.1455 24.942 22.1434 24.6672C22.1278 22.7632 22.1121 20.8589 22.0964 18.9545C22.7775 18.951 23.1181 18.9482 23.7992 18.9406L23.8871 24.519Z" fill="#AAAAAA"/>
<path d="M28.9131 20.8233C28.8322 20.7319 28.7304 20.6613 28.6164 20.6177C28.5024 20.5741 28.3795 20.5587 28.2583 20.5728C28.131 20.5855 28.0082 20.6259 27.8983 20.6912C27.7884 20.7565 27.6941 20.8451 27.6221 20.9507C27.4431 21.1969 27.3533 21.4967 27.3674 21.8007C27.3743 22.1316 27.4671 22.3967 27.6443 22.5878C27.7246 22.6784 27.8279 22.7455 27.9434 22.7821C28.0588 22.8186 28.182 22.8233 28.2998 22.7954C28.5568 22.7427 28.7831 22.5917 28.9304 22.3746C29.1039 22.1412 29.1936 21.8561 29.1851 21.5654C29.1796 21.2574 29.0889 21.013 28.9131 20.8233ZM30.6823 22.4424C30.5671 22.819 30.4227 23.1861 30.2504 23.5402C29.7133 24.6823 29.2017 25.8342 28.7026 26.9936C28.0661 27.2583 27.4148 27.4862 26.752 27.6761C27.2144 26.6724 27.6796 25.6687 28.1593 24.6733L28.1413 24.656C28.0924 24.6912 28.0385 24.7187 27.9814 24.7377C27.9544 24.7482 27.9269 24.7572 27.899 24.7647L27.8208 24.7848C27.5266 24.8628 27.2146 24.8384 26.9362 24.7156C25.9512 24.3411 25.6902 23.1028 25.6653 22.1821C25.6438 21.3113 25.8806 20.4073 26.3637 19.7006C26.7243 19.1725 27.5404 18.7246 28.1842 18.7315C28.9615 18.7391 29.7631 19.0437 30.2843 19.6584C30.6553 20.0965 30.8381 20.6454 30.845 21.3577C30.8438 21.7253 30.789 22.0907 30.6823 22.4424Z" fill="#AAAAAA"/>
<path d="M15.0857 28.0008C15.1429 25.7396 15.2001 23.4773 15.2574 21.2138L15.2401 21.1889C14.7417 23.3425 14.2232 25.4909 13.6847 27.6339C13.2334 27.4955 13.0098 27.4262 12.5668 27.2615C12.1612 25.1039 11.7403 22.9498 11.2848 20.8019L11.2668 20.8199C11.2516 22.7839 11.2357 24.7474 11.2191 26.7105C10.7172 26.4898 10.2269 26.2436 9.75024 25.9726C9.76501 23.585 9.77978 21.1979 9.79454 18.8112C10.5204 18.8342 11.2468 18.8545 11.9736 18.8721C12.3965 20.7548 12.7931 22.6432 13.178 24.5349L13.1953 24.5384C13.6868 22.6713 14.1602 20.8001 14.6157 18.9247C15.3467 18.9362 16.0779 18.9452 16.8093 18.9517C16.771 22.067 16.7331 25.1819 16.6958 28.2963C16.0472 28.2022 15.7246 28.1441 15.0857 28.0008Z" fill="white"/>
<path d="M23.8871 24.519C23.9036 25.0357 23.8714 25.5527 23.7909 26.0633C23.7026 26.5579 23.5167 27.0299 23.244 27.4519C22.8197 28.1295 22.1268 28.6134 21.3156 28.6528C20.9219 28.6789 20.5284 28.5986 20.1765 28.4203C19.8245 28.242 19.527 27.9723 19.3151 27.6395C19.0327 27.2211 18.8368 26.7503 18.7392 26.2551C18.6947 26.0114 18.666 25.7652 18.6534 25.5179C18.6416 25.3019 18.6388 25.0216 18.6416 24.6796L18.6831 18.9558C19.3643 18.9593 19.7055 18.96 20.3866 18.96C20.3866 20.8811 20.3866 22.8017 20.3866 24.7218C20.3849 24.9379 20.3942 25.1539 20.4143 25.3691C20.4313 25.5681 20.4726 25.7643 20.5375 25.9533C20.676 26.3423 20.9266 26.534 21.2851 26.5195C21.6554 26.5049 21.9026 26.298 22.0265 25.911C22.0836 25.7219 22.1185 25.5268 22.1303 25.3296C22.1428 25.1642 22.1455 24.942 22.1434 24.6672C22.1278 22.7632 22.1121 20.8589 22.0964 18.9545C22.7775 18.951 23.1181 18.9482 23.7992 18.9406L23.8871 24.519Z" fill="white"/>
<path d="M30.6823 22.4424C30.5671 22.819 30.4227 23.1861 30.2504 23.5402C29.7133 24.6823 29.2017 25.8342 28.7026 26.9936C28.0661 27.2583 27.4148 27.4862 26.752 27.6761C27.2144 26.6724 27.6796 25.6687 28.1593 24.6733L28.1413 24.656C28.0924 24.6912 28.0385 24.7187 27.9814 24.7377C27.9544 24.7482 27.9269 24.7572 27.899 24.7647L27.8208 24.7848C27.5266 24.8628 27.2146 24.8384 26.9362 24.7156C25.9512 24.3411 25.6902 23.1028 25.6653 22.1821C25.6438 21.3113 25.8806 20.4073 26.3637 19.7006C26.7243 19.1725 27.5404 18.7246 28.1842 18.7315C28.9615 18.7391 29.7631 19.0437 30.2843 19.6584C30.6553 20.0965 30.8381 20.6454 30.845 21.3577C30.8438 21.7253 30.789 22.0907 30.6823 22.4424ZM28.9131 20.8233C28.8322 20.7319 28.7304 20.6613 28.6164 20.6177C28.5024 20.5741 28.3795 20.5587 28.2583 20.5728C28.131 20.5855 28.0082 20.6259 27.8983 20.6912C27.7884 20.7565 27.6941 20.8451 27.6221 20.9507C27.4431 21.1969 27.3533 21.4967 27.3674 21.8007C27.3743 22.1316 27.4671 22.3967 27.6443 22.5878C27.7246 22.6784 27.8279 22.7455 27.9434 22.7821C28.0588 22.8186 28.182 22.8233 28.2998 22.7954C28.5568 22.7427 28.7831 22.5917 28.9304 22.3746C29.1039 22.1412 29.1936 21.8561 29.1851 21.5654C29.1796 21.2574 29.0889 21.013 28.9131 20.8233Z" fill="white"/>
<defs>
<linearGradient id="paint0_linear" x1="4.75208" y1="26.8323" x2="35.5874" y2="26.8323" gradientUnits="userSpaceOnUse">
<stop stop-color="#626262"/>
<stop offset="0.49" stop-color="#4D4D4D"/>
<stop offset="1" stop-color="#626262"/>
</linearGradient>
</defs>
</svg>
