<svg width="52" height="52" viewBox="0 0 52 52" fill="none" xmlns="http://www.w3.org/2000/svg">
<path opacity="0.5" fill-rule="evenodd" clip-rule="evenodd" d="M52 26C52 32.8956 49.2607 39.5088 44.3848 44.3848C39.5088 49.2607 32.8956 52 26 52C19.1044 52 12.4912 49.2607 7.61522 44.3848C2.73928 39.5088 0 32.8956 0 26C0 19.1044 2.73928 12.4912 7.61522 7.61522C12.4912 2.73928 19.1044 0 26 0C32.8956 0 39.5088 2.73928 44.3848 7.61522C49.2607 12.4912 52 19.1044 52 26ZM27.1505 34.5995C27.4556 34.9046 27.6271 35.3185 27.6271 35.75C27.6271 36.1815 27.4556 36.5954 27.1505 36.9005C26.8454 37.2056 26.4315 37.3771 26 37.3771C25.5685 37.3771 25.1546 37.2056 24.8495 36.9005L15.0995 27.1505C14.9482 26.9996 14.8281 26.8202 14.7462 26.6228C14.6643 26.4254 14.6221 26.2137 14.6221 26C14.6221 25.7863 14.6643 25.5746 14.7462 25.3772C14.8281 25.1798 14.9482 25.0004 15.0995 24.8495L24.8495 15.0995C25.0006 14.9484 25.18 14.8286 25.3774 14.7468C25.5748 14.665 25.7863 14.6229 26 14.6229C26.2137 14.6229 26.4252 14.665 26.6226 14.7468C26.82 14.8286 26.9994 14.9484 27.1505 15.0995C27.3016 15.2506 27.4214 15.4299 27.5032 15.6274C27.585 15.8248 27.6271 16.0363 27.6271 16.25C27.6271 16.4637 27.585 16.6752 27.5032 16.8726C27.4214 17.07 27.3016 17.2494 27.1505 17.4005L20.1727 24.375H35.75C36.181 24.375 36.5943 24.5462 36.899 24.851C37.2038 25.1557 37.375 25.569 37.375 26C37.375 26.431 37.2038 26.8443 36.899 27.149C36.5943 27.4538 36.181 27.625 35.75 27.625H20.1727L27.1505 34.5995Z" fill="#F7F8FA"/>
</svg>
