<svg width="32" height="28" viewBox="0 0 32 28" fill="none" xmlns="http://www.w3.org/2000/svg">
<path d="M28 0H4C1.79469 0 0 1.85077 0 4.125V9.62498C0 11.8992 1.79469 13.75 4 13.75H6.66669V26.125C6.66669 26.8853 7.264 27.5 8 27.5H24C24.7373 27.5 25.3333 26.8853 25.3333 26.125V13.75H28C30.2053 13.75 32 11.8992 32 9.62498V4.125C32 1.85071 30.2053 0 28 0ZM22.6667 24.75H9.33331V8.25H22.6666L22.6667 24.75ZM29.3333 9.62498C29.3333 10.3826 28.736 11 28 11H25.3333V8.24994H26.6666C27.4039 8.24994 27.9999 7.63396 27.9999 6.87496C27.9999 6.11596 27.404 5.49998 26.6667 5.49998H5.33331C4.59731 5.49998 4 6.11596 4 6.87496C4 7.63396 4.59731 8.24994 5.33331 8.24994H6.66663V11H4C3.26531 11 2.66669 10.3826 2.66669 9.62498V4.125C2.66669 3.36735 3.26538 2.75002 4 2.75002H28C28.736 2.75002 29.3333 3.36742 29.3333 4.125V9.62498Z" fill="#838A92"/>
<path fill-rule="evenodd" clip-rule="evenodd" d="M18.2732 16.1625C19.0598 16.7372 19.4542 17.5509 19.4469 18.5798C19.4453 20.0155 18.3824 21.0423 16.7305 21.288V21.521H16.7252V22.6715H15.0498V21.2583C14.0879 21.0695 13.1805 20.5879 12.5559 19.9067L13.773 18.7194C14.0958 19.0713 14.5801 19.3478 15.1005 19.4968V16.7181C14.6288 16.5559 14.1678 16.3633 13.7677 16.0798C13.0084 15.5439 12.6223 14.784 12.6223 13.8258C12.6223 12.4577 13.5605 11.4539 15.0498 11.116V9.6665H16.7252V10.8166H16.7305V11.0216C17.5379 11.107 18.3551 11.3797 18.9526 11.7791L18.0443 13.2296C17.7076 13.0057 17.2199 12.8353 16.7305 12.7607V15.4315C17.2746 15.6122 17.8114 15.8263 18.2732 16.1625ZM15.1005 14.8697V12.8928C14.6413 13.0587 14.2985 13.3547 14.2985 13.8258C14.2985 14.3263 14.4996 14.599 15.1005 14.8697ZM16.7305 19.5333C17.3009 19.4017 17.772 19.1069 17.772 18.5758L17.7721 18.569C17.777 17.9012 17.4642 17.573 16.7305 17.2684V19.5333Z" fill="#838A92"/>
</svg>
