<svg width="34" height="30" viewBox="0 0 34 30" fill="none" xmlns="http://www.w3.org/2000/svg">
<path d="M32.9375 15.0008H31.875V9.64399C31.875 9.0526 31.399 8.57262 30.8125 8.57262H29.75V4.82143C29.75 4.23003 29.274 3.75 28.6875 3.75H25.0941L23.2624 0.593068C22.9989 0.0616689 22.3614 -0.150462 21.8365 0.113094L19.3885 1.34945L19.0124 0.593068C18.7489 0.0638116 18.1114 -0.150462 17.5865 0.115237L9.31175 3.75H3.1875C1.43012 3.75 0 5.19224 0 6.96429V26.7859C0 28.5579 1.43012 30 3.1875 30H30.8125C31.399 30 31.875 29.52 31.875 28.9286V23.5718H32.9375C33.524 23.5718 34 23.0918 34 22.5004V16.0722C34 15.4808 33.524 15.0008 32.9375 15.0008ZM27.625 6.42988V8.57262H27.2191L26.1566 6.42988H27.625ZM21.8365 2.51082L24.8434 8.57262H22.9691L20.3384 3.26506L21.8365 2.51082ZM17.5865 2.51082L20.5934 8.57262H5.56325L17.5865 2.51082ZM3.1875 6.42988H5.06175L2.21 7.86766C2.1675 7.74981 2.125 7.62982 2.125 7.50125C2.125 6.90986 2.601 6.42988 3.1875 6.42988ZM29.2188 27.3214H3.71875C3.13225 27.3214 2.65625 26.8414 2.65625 26.25V11.25C3.1875 11.2489 2.8305 11.25 3.1875 11.25H29.2188V15.0008H25.5C23.1561 15.0008 21.25 16.9229 21.25 19.2863C21.25 21.6497 23.1561 23.5718 25.5 23.5718H29.2188V27.3214ZM31.875 21.429H25.5C24.3291 21.429 23.375 20.467 23.375 19.2863C23.375 18.1057 24.3291 17.1436 25.5 17.1436H31.875V21.429Z" fill="#838A92"/>
</svg>
