<svg width="30" height="30" viewBox="0 0 30 30" fill="none" xmlns="http://www.w3.org/2000/svg">
<path d="M7.70506 27.6562H3.55621C3.05594 27.6562 2.75413 27.3771 2.61877 27.2106C2.3851 26.9231 2.29457 26.5491 2.37057 26.1841C3.5875 20.3387 8.7461 16.0699 14.7013 15.9313C14.8005 15.935 14.9 15.9375 15 15.9375C15.1009 15.9375 15.2012 15.935 15.3013 15.9312C16.7575 15.9645 18.1799 16.2383 19.5338 16.7467C20.1397 16.9743 20.8154 16.6675 21.0429 16.0615C21.2704 15.4557 20.9637 14.78 20.3577 14.5525C20.1637 14.4796 19.9684 14.4114 19.7721 14.3467C21.7116 12.8919 22.9687 10.5744 22.9687 7.96875C22.9687 3.5748 19.394 0 15 0C10.606 0 7.03123 3.5748 7.03123 7.96875C7.03123 10.5767 8.29053 12.896 10.233 14.3507C8.45342 14.9365 6.7835 15.8475 5.32205 17.0496C2.64245 19.2537 0.77934 22.3281 0.0760393 25.7064C-0.14439 26.765 0.119633 27.8522 0.800434 28.6893C1.47778 29.5223 2.48225 30 3.55621 30H7.70506C8.35229 30 8.87694 29.4754 8.87694 28.8281C8.87694 28.1809 8.35229 27.6562 7.70506 27.6562ZM9.37498 7.96875C9.37498 4.86709 11.8983 2.34375 15 2.34375C18.1016 2.34375 20.625 4.86709 20.625 7.96875C20.625 10.9785 18.2488 13.4436 15.2739 13.587C15.1826 13.5854 15.0914 13.584 15 13.584C14.9083 13.584 14.8168 13.5853 14.7252 13.587C11.7507 13.4432 9.37498 10.9782 9.37498 7.96875Z" fill="#838A92"/>
<path d="M29.1026 20.1918C28.601 19.0697 27.4711 18.3427 26.2212 18.3398H22.5666C22.564 18.3398 22.5615 18.3398 22.5588 18.3398C21.2405 18.3398 20.0903 19.1168 19.6274 20.3207C19.5659 20.4809 19.4906 20.6827 19.412 20.918H11.7394C11.4225 20.918 11.1193 21.0462 10.8985 21.2735L8.8855 23.347C8.44212 23.8037 8.44435 24.5308 8.89048 24.9847L10.9413 27.0714C11.1616 27.2955 11.4627 27.4218 11.777 27.4218H15.5856C16.2329 27.4218 16.7575 26.8972 16.7575 26.2499C16.7575 25.6027 16.2329 25.0781 15.5856 25.0781H12.2684L11.3644 24.1583L12.235 23.2617H20.2911C20.8309 23.2617 21.3009 22.8929 21.4293 22.3685C21.5241 21.9814 21.6431 21.6092 21.8151 21.1617C21.9285 20.8666 22.2134 20.6836 22.5616 20.6836H26.2185C26.5499 20.6844 26.8351 20.8625 26.9629 21.1484C27.2775 21.8522 27.6531 22.9418 27.656 24.1358C27.6588 25.3387 27.2835 26.4533 26.9681 27.1765C26.841 27.4682 26.5533 27.6562 26.2322 27.6562H22.5315C22.2073 27.6555 21.9036 27.4469 21.7759 27.1372C21.6388 26.8049 21.5201 26.4255 21.4128 25.9772C21.2621 25.3478 20.6296 24.9597 20.0004 25.1103C19.3709 25.2609 18.9828 25.8933 19.1334 26.5228C19.2694 27.0911 19.4251 27.5844 19.6093 28.0308C20.1014 29.224 21.2463 29.9969 22.5288 29.9999H26.2276C26.2301 29.9999 26.2324 29.9999 26.2349 29.9999C27.486 29.9999 28.6166 29.2599 29.1166 28.1132C29.5216 27.1844 30.0035 25.7395 29.9997 24.1303C29.996 22.5254 29.5098 21.1027 29.1026 20.1918Z" fill="#838A92"/>
<path d="M25.2537 25.3125C25.9009 25.3125 26.4255 24.7878 26.4255 24.1406C26.4255 23.4934 25.9009 22.9688 25.2537 22.9688C24.6064 22.9688 24.0818 23.4934 24.0818 24.1406C24.0818 24.7878 24.6064 25.3125 25.2537 25.3125Z" fill="#838A92"/>
</svg>
