<svg width="32" height="30" viewBox="0 0 32 30" fill="none" xmlns="http://www.w3.org/2000/svg">
<path d="M9.49609 12.3047C9.49609 11.6574 8.9715 11.1328 8.32422 11.1328C7.67694 11.1328 7.15234 11.6574 7.15234 12.3047C7.15234 12.952 7.67694 13.4766 8.32422 13.4766C8.9715 13.4766 9.49609 12.952 9.49609 12.3047ZM18.5195 13.4766C19.1668 13.4766 19.6914 12.952 19.6914 12.3047C19.6914 11.6574 19.1668 11.1328 18.5195 11.1328C17.8723 11.1328 17.3477 11.6574 17.3477 12.3047C17.3477 12.952 17.8723 13.4766 18.5195 13.4766ZM23.6172 13.4766C24.2645 13.4766 24.7891 12.952 24.7891 12.3047C24.7891 11.6574 24.2645 11.1328 23.6172 11.1328C22.9699 11.1328 22.4453 11.6574 22.4453 12.3047C22.4453 12.952 22.9699 13.4766 23.6172 13.4766ZM9.49609 17.4023C9.49609 16.7551 8.9715 16.2305 8.32422 16.2305C7.67694 16.2305 7.15234 16.7551 7.15234 17.4023C7.15234 18.0496 7.67694 18.5742 8.32422 18.5742C8.9715 18.5742 9.49609 18.0496 9.49609 17.4023ZM8.32422 21.3281C7.67694 21.3281 7.15234 21.8527 7.15234 22.5C7.15234 23.1473 7.67694 23.6719 8.32422 23.6719C8.9715 23.6719 9.49609 23.1473 9.49609 22.5C9.49609 21.8527 8.9715 21.3281 8.32422 21.3281ZM13.4219 13.4766C14.0692 13.4766 14.5938 12.952 14.5938 12.3047C14.5938 11.6574 14.0692 11.1328 13.4219 11.1328C12.7746 11.1328 12.25 11.6574 12.25 12.3047C12.25 12.952 12.7746 13.4766 13.4219 13.4766ZM12.25 17.4023C12.25 18.0496 12.7746 18.5742 13.4219 18.5742C14.0692 18.5742 14.5938 18.0496 14.5938 17.4023C14.5938 16.7551 14.0692 16.2305 13.4219 16.2305C12.7746 16.2305 12.25 16.7551 12.25 17.4023ZM14.5938 22.5C14.5938 21.8527 14.0692 21.3281 13.4219 21.3281C12.7746 21.3281 12.25 21.8527 12.25 22.5C12.25 23.1473 12.7746 23.6719 13.4219 23.6719C14.0692 23.6719 14.5938 23.1473 14.5938 22.5ZM17.3477 17.4023C17.3477 18.0496 17.8723 18.5742 18.5195 18.5742C19.1668 18.5742 19.6914 18.0496 19.6914 17.4023C19.6914 16.7551 19.1668 16.2305 18.5195 16.2305C17.8723 16.2305 17.3477 16.7551 17.3477 17.4023ZM28.0703 18.1641H24.2031C23.5558 18.1641 23.0312 18.6887 23.0312 19.3359C23.0312 19.9832 23.5558 20.5078 24.2031 20.5078H27.1289L22.9912 24.6352C22.8626 24.7636 22.657 24.768 22.5231 24.6455L21.9251 24.0985C21.4044 23.622 20.7287 23.3732 20.024 23.3965C19.3186 23.4203 18.6617 23.7144 18.1725 24.2267L14.5649 28.0206C14.1188 28.4896 14.1376 29.2314 14.6066 29.6773C14.8334 29.8931 15.1238 30 15.4138 30C15.7237 30 16.033 29.8778 16.2632 29.6356L19.8692 25.8435C19.9954 25.7112 20.208 25.7041 20.343 25.8277L20.9409 26.3747C22.0013 27.3447 23.6289 27.3097 24.6465 26.2946L28.6562 22.2947V25.1367C28.6562 25.784 29.1808 26.3086 29.8281 26.3086C30.4754 26.3086 31 25.784 31 25.1367V21.0938C31 19.4783 29.6858 18.1641 28.0703 18.1641Z" fill="#838A92"/>
<path d="M7 0H9V2H15V0H17V2H23V0H25V2H32V13.75C32 14.4404 31.4404 15 30.75 15C30.0596 15 29.5 14.4404 29.5 13.75V5H25V7H23V5H17V7H15V5H9V7H7V5H2.5V27.5H9.75C10.4404 27.5 11 28.0596 11 28.75C11 29.4404 10.4404 30 9.75 30H0V2H7V0Z" fill="#838A92"/>
</svg>
