<svg width="27" height="26" viewBox="0 0 27 26" fill="none" xmlns="http://www.w3.org/2000/svg">
<path d="M0 0H16V4.75C16 5.44036 15.4404 6 14.75 6C14.0596 6 13.5 5.44036 13.5 4.75V2.5H2.5V23.5H13.5V21.25C13.5 20.5596 14.0596 20 14.75 20C15.4404 20 16 20.5596 16 21.25V26H0V0Z" fill="#838A92"/>
<path d="M22.0651 8.34802C21.6101 8.80832 21.6144 9.55035 22.0745 10.0054L23.9579 11.8673H10.9805C10.3332 11.8673 9.80859 12.3919 9.80859 13.0392C9.80859 13.6862 10.3332 14.2111 10.9805 14.2111H23.9579L22.0745 16.073C21.6144 16.528 21.6101 17.2698 22.0651 17.7301C22.2942 17.962 22.5963 18.0782 22.8984 18.0782C23.1962 18.0782 23.494 17.9654 23.7224 17.7397L25.9577 15.5297C26.6299 14.8652 27 13.9806 27 13.0392C27 12.0976 26.6299 11.213 25.9577 10.5485L23.7224 8.33865C23.2621 7.88339 22.5201 7.88776 22.0651 8.34802Z" fill="#838A92"/>
</svg>
