<svg width="16" height="16" viewBox="0 0 16 16" fill="none" xmlns="http://www.w3.org/2000/svg">
<path d="M8.46875 10.2777C9.00625 10.1465 9.40625 9.79961 9.40625 9.39961C9.40625 8.99961 9.00625 8.65273 8.46875 8.52148V10.2777Z" fill="#838A92"/>
<path d="M8 2.84375C5.15625 2.84375 2.84375 5.15625 2.84375 8C2.84375 10.8438 5.15625 13.1562 8 13.1562C10.8438 13.1562 13.1562 10.8438 13.1562 8C13.1562 5.15625 10.8438 2.84375 8 2.84375ZM10.3438 9.40312C10.3438 10.3094 9.5375 11.0656 8.46875 11.2406V11.75C8.46875 12.0094 8.25938 12.2188 8 12.2188C7.74062 12.2188 7.53125 12.0094 7.53125 11.75V11.2375C6.4625 11.0625 5.65625 10.3062 5.65625 9.4C5.65625 9.14062 5.86562 8.93125 6.125 8.93125C6.38438 8.93125 6.59375 9.14062 6.59375 9.4C6.59375 9.8 6.99375 10.1469 7.53125 10.2781V8.425C6.4625 8.25 5.65625 7.49375 5.65625 6.5875C5.65625 5.68125 6.4625 4.925 7.53125 4.75V4.24375C7.53125 3.98438 7.74062 3.775 8 3.775C8.25938 3.775 8.46875 3.98438 8.46875 4.24375V4.75C9.5375 4.925 10.3438 5.68125 10.3438 6.5875C10.3438 6.84688 10.1344 7.05625 9.875 7.05625C9.61562 7.05625 9.40625 6.84688 9.40625 6.5875C9.40625 6.1875 9.00625 5.84062 8.46875 5.70937V7.5625C9.5375 7.7375 10.3438 8.49687 10.3438 9.40312Z" fill="#838A92"/>
<path d="M7.53125 5.71289C6.99375 5.84414 6.59375 6.19102 6.59375 6.59102C6.59375 6.99102 6.99375 7.33789 7.53125 7.46914V5.71289Z" fill="#838A92"/>
<path d="M8 0C3.60625 0 0 3.60625 0 8C0 12.3938 3.60625 16 8 16C12.3938 16 16 12.3938 16 8C16 3.60625 12.3938 0 8 0ZM8 14.0938C4.64062 14.0938 1.90625 11.3594 1.90625 8C1.90625 4.64062 4.64062 1.90625 8 1.90625C11.3594 1.90625 14.0938 4.64062 14.0938 8C14.0938 11.3594 11.3594 14.0938 8 14.0938Z" fill="#838A92"/>
</svg>
