<svg width="23" height="20" viewBox="0 0 23 20" fill="none" xmlns="http://www.w3.org/2000/svg">
<path d="M0 0H18.3313C20.5404 0 22.3313 1.79086 22.3313 4V20H20C8.95431 20 0 11.0457 0 0Z" fill="url(#paint0_linear)"/>
<path d="M13.7528 13.4409C13.3733 13.623 13.0712 13.7611 12.8446 13.8566C12.6186 13.9522 12.3558 14 12.0568 14C11.5974 14 11.2397 13.8635 10.985 13.5911C10.7303 13.3188 10.6036 12.9737 10.6036 12.5542C10.6036 12.3911 10.613 12.2242 10.6317 12.0543C10.6511 11.8844 10.6816 11.6932 10.7235 11.4785L11.1985 9.43949C11.2403 9.24378 11.2765 9.05793 11.3052 8.88497C11.334 8.7105 11.3477 8.55044 11.3477 8.4048C11.3477 8.14537 11.3034 7.96331 11.2154 7.86091C11.1261 7.7585 10.9582 7.70843 10.7079 7.70843C10.5855 7.70843 10.4594 7.73043 10.3302 7.7767C10.2022 7.82449 10.0911 7.86773 10 7.91021L10.1255 7.28212C10.4363 7.12813 10.7341 6.99614 11.0181 6.8869C11.3021 6.77615 11.5705 6.72154 11.8233 6.72154C12.2797 6.72154 12.6317 6.85656 12.8795 7.12358C13.1261 7.39135 13.2503 7.73953 13.2503 8.16737C13.2503 8.25612 13.2416 8.41238 13.2247 8.6354C13.2079 8.85918 13.176 9.06324 13.1298 9.2506L12.6573 11.2836C12.6186 11.4467 12.5843 11.6333 12.5531 11.8419C12.5225 12.0505 12.5075 12.2098 12.5075 12.3167C12.5075 12.5868 12.5568 12.7711 12.6567 12.869C12.7553 12.9668 12.9282 13.0161 13.1729 13.0161C13.2884 13.0161 13.4176 12.9911 13.5637 12.9426C13.7085 12.894 13.8134 12.8508 13.8795 12.8136L13.7528 13.4409ZM13.6692 5.18923C13.4488 5.43804 13.1835 5.56244 12.8733 5.56244C12.5637 5.56244 12.2965 5.43804 12.0743 5.18923C11.8533 4.94042 11.7416 4.63775 11.7416 4.28426C11.7416 3.93152 11.8539 3.62809 12.0743 3.37701C12.2965 3.12516 12.5637 3 12.8733 3C13.1835 3 13.4494 3.12516 13.6692 3.37701C13.8895 3.62809 14 3.93152 14 4.28426C14 4.63851 13.8895 4.94042 13.6692 5.18923Z" fill="#F0F0F0"/>
<defs>
<linearGradient id="paint0_linear" x1="11.1656" y1="0" x2="11.1656" y2="20" gradientUnits="userSpaceOnUse">
<stop stop-color="#E6912E"/>
<stop offset="1" stop-color="#EC9007"/>
</linearGradient>
</defs>
</svg>
