<svg width="16" height="16" viewBox="0 0 16 16" fill="none" xmlns="http://www.w3.org/2000/svg">
<path fill-rule="evenodd" clip-rule="evenodd" d="M8 16C12.4183 16 16 12.4183 16 8C16 3.58172 12.4183 0 8 0C3.58172 0 0 3.58172 0 8C0 12.4183 3.58172 16 8 16ZM8.84457 12.8566C9.07116 12.7611 9.37328 12.623 9.75281 12.4409L9.87953 11.8136C9.81336 11.8508 9.70849 11.894 9.56367 11.9426C9.4176 11.9911 9.28839 12.0161 9.17291 12.0161C8.92821 12.0161 8.75531 11.9668 8.65668 11.869C8.5568 11.7711 8.50749 11.5868 8.50749 11.3167C8.50749 11.2098 8.52247 11.0505 8.55306 10.8419C8.58427 10.6333 8.6186 10.4467 8.6573 10.2836L9.12984 8.2506C9.17603 8.06324 9.20787 7.85918 9.22472 7.6354C9.24157 7.41238 9.25031 7.25612 9.25031 7.16737C9.25031 6.73953 9.12609 6.39135 8.87953 6.12358C8.63171 5.85656 8.27965 5.72154 7.82335 5.72154C7.57054 5.72154 7.30212 5.77615 7.0181 5.8869C6.73408 5.99614 6.43633 6.12813 6.12547 6.28212L6 6.91021C6.09114 6.86773 6.20225 6.82449 6.33021 6.7767C6.45943 6.73043 6.58552 6.70843 6.70786 6.70843C6.95818 6.70843 7.12609 6.7585 7.21536 6.86091C7.30337 6.96331 7.34769 7.14537 7.34769 7.4048C7.34769 7.55044 7.33396 7.7105 7.30524 7.88497C7.27653 8.05793 7.24032 8.24378 7.1985 8.43949L6.72347 10.4785C6.68165 10.6932 6.65106 10.8844 6.63171 11.0543C6.61298 11.2242 6.60362 11.3911 6.60362 11.5542C6.60362 11.9737 6.73034 12.3188 6.98502 12.5911C7.2397 12.8635 7.59738 13 8.0568 13C8.3558 13 8.6186 12.9522 8.84457 12.8566ZM8.87328 4.56244C9.18352 4.56244 9.44881 4.43804 9.66916 4.18923C9.88951 3.94042 10 3.63851 10 3.28426C10 2.93152 9.88951 2.62809 9.66916 2.37701C9.44944 2.12516 9.18352 2 8.87328 2C8.56367 2 8.2965 2.12516 8.07428 2.37701C7.85393 2.62809 7.74157 2.93152 7.74157 3.28426C7.74157 3.63775 7.85331 3.94042 8.07428 4.18923C8.2965 4.43804 8.56367 4.56244 8.87328 4.56244Z" fill="#838A92"/>
</svg>
