<svg width="25" height="30" viewBox="0 0 25 30" fill="none" xmlns="http://www.w3.org/2000/svg">
<path d="M21.25 5H20V3.75C19.9989 2.75578 19.6034 1.8026 18.9004 1.09958C18.1974 0.396563 17.2442 0.00111661 16.25 0H3.75C2.75578 0.00111661 1.8026 0.396563 1.09958 1.09958C0.396563 1.8026 0.00111661 2.75578 0 3.75V21.25C0.00111661 22.2442 0.396563 23.1974 1.09958 23.9004C1.8026 24.6034 2.75578 24.9989 3.75 25H5V26.25C5.00112 27.2442 5.39656 28.1974 6.09958 28.9004C6.8026 29.6034 7.75578 29.9989 8.75 30H21.25C22.2442 29.9989 23.1974 29.6034 23.9004 28.9004C24.6034 28.1974 24.9989 27.2442 25 26.25V8.75C24.9989 7.75578 24.6034 6.8026 23.9004 6.09958C23.1974 5.39656 22.2442 5.00112 21.25 5ZM2.5 21.25V3.75C2.50037 3.41859 2.63219 3.10087 2.86653 2.86653C3.10087 2.63219 3.41859 2.50037 3.75 2.5H16.25C16.5814 2.50037 16.8991 2.63219 17.1335 2.86653C17.3678 3.10087 17.4996 3.41859 17.5 3.75V21.25C17.4996 21.5814 17.3678 21.8991 17.1335 22.1335C16.8991 22.3678 16.5814 22.4996 16.25 22.5H3.75C3.41859 22.4996 3.10087 22.3678 2.86653 22.1335C2.63219 21.8991 2.50037 21.5814 2.5 21.25ZM22.5 26.25C22.4996 26.5814 22.3678 26.8991 22.1335 27.1335C21.8991 27.3678 21.5814 27.4996 21.25 27.5H8.75C8.41859 27.4996 8.10087 27.3678 7.86653 27.1335C7.63219 26.8991 7.50037 26.5814 7.5 26.25V25H16.25C17.2442 24.9989 18.1974 24.6034 18.9004 23.9004C19.6034 23.1974 19.9989 22.2442 20 21.25V7.5H21.25C21.5814 7.50037 21.8991 7.63219 22.1335 7.86653C22.3678 8.10087 22.4996 8.41859 22.5 8.75V26.25Z" fill="#F7F8FA"/>
<path d="M13.3219 8.03642C12.4469 7.3008 11.5427 6.54033 11.118 5.69095C11.0141 5.48335 10.8546 5.30877 10.6571 5.18675C10.4596 5.06473 10.2321 5.0001 10 5.0001C9.76789 5.0001 9.54035 5.06473 9.3429 5.18675C9.14544 5.30877 8.98586 5.48335 8.88203 5.69095C8.45735 6.54033 7.55281 7.30033 6.67891 8.03642C5.30562 9.19048 3.75 10.4985 3.75 12.5C3.75 14.126 4.41484 15.4324 5.62219 16.1785C6.50734 16.7253 7.60656 16.9024 8.75 16.7139V20H11.25V16.7141C11.5372 16.7623 11.8278 16.787 12.1191 16.788C12.9141 16.7993 13.6964 16.5882 14.3778 16.1786C15.5852 15.4324 16.25 14.126 16.25 12.5C16.25 10.4985 14.6944 9.19048 13.3219 8.03642ZM13.0634 14.052C12.4661 14.421 11.5067 14.356 10.5591 13.8822C10.3855 13.7954 10.1941 13.7502 10 13.7502C9.80593 13.7502 9.61452 13.7954 9.44094 13.8822C8.49328 14.356 7.53469 14.4211 6.93656 14.052C6.36922 13.7011 6.25 13.0144 6.25 12.5C6.25 11.6627 7.19406 10.8689 8.28703 9.94986C8.89023 9.46279 9.46234 8.93843 10 8.37986C10.5377 8.93843 11.1098 9.46279 11.713 9.94986C12.8059 10.8689 13.75 11.6627 13.75 12.5C13.75 13.0144 13.6308 13.7013 13.0634 14.052Z" fill="#F7F8FA"/>
</svg>
