<svg width="52" height="52" viewBox="0 0 52 52" fill="none" xmlns="http://www.w3.org/2000/svg">
<path opacity="0.5" fill-rule="evenodd" clip-rule="evenodd" d="M0 26C0 32.8956 2.73928 39.5088 7.61522 44.3848C12.4912 49.2607 19.1044 52 26 52C32.8956 52 39.5088 49.2607 44.3848 44.3848C49.2607 39.5088 52 32.8956 52 26C52 19.1044 49.2607 12.4912 44.3848 7.61522C39.5088 2.73928 32.8956 0 26 0C19.1044 0 12.4912 2.73928 7.61522 7.61522C2.73928 12.4912 0 19.1044 0 26ZM24.8495 34.5995C24.5444 34.9046 24.3729 35.3185 24.3729 35.75C24.3729 36.1815 24.5444 36.5954 24.8495 36.9005C25.1546 37.2056 25.5685 37.3771 26 37.3771C26.4315 37.3771 26.8454 37.2056 27.1505 36.9005L36.9005 27.1505C37.0518 26.9996 37.1719 26.8202 37.2538 26.6228C37.3357 26.4254 37.3779 26.2137 37.3779 26C37.3779 25.7863 37.3357 25.5746 37.2538 25.3772C37.1719 25.1798 37.0518 25.0004 36.9005 24.8495L27.1505 15.0995C26.9994 14.9484 26.82 14.8286 26.6226 14.7468C26.4252 14.665 26.2137 14.6229 26 14.6229C25.7863 14.6229 25.5748 14.665 25.3774 14.7468C25.18 14.8286 25.0006 14.9484 24.8495 15.0995C24.6984 15.2506 24.5786 15.4299 24.4968 15.6274C24.415 15.8248 24.3729 16.0363 24.3729 16.25C24.3729 16.4637 24.415 16.6752 24.4968 16.8726C24.5786 17.07 24.6984 17.2494 24.8495 17.4005L31.8273 24.375H16.25C15.819 24.375 15.4057 24.5462 15.101 24.851C14.7962 25.1557 14.625 25.569 14.625 26C14.625 26.431 14.7962 26.8443 15.101 27.149C15.4057 27.4538 15.819 27.625 16.25 27.625H31.8273L24.8495 34.5995Z" fill="#F7F8FA"/>
</svg>
