<svg width="68" height="68" viewBox="0 0 68 68" fill="none" xmlns="http://www.w3.org/2000/svg">
<circle cx="34" cy="34" r="34" fill="#333"/>
<g clip-path="url(#clip0)">
<path d="M32.4883 20.4614L21.8811 31.0685C21.0445 31.9051 21.0445 33.262 21.8811 34.0986C22.7177 34.9352 24.0745 34.9352 24.9111 34.0986L34.0022 25.0074L43.0933 34.0986C43.9299 34.9352 45.2867 34.9352 46.1233 34.0986C46.9599 33.262 46.9599 31.9051 46.1233 31.0685L35.5162 20.4614C34.6817 19.6248 33.3249 19.6248 32.4883 20.4614ZM31.846 33.2153L22.9704 41.6364C22.0797 42.4826 22.0797 43.8532 22.9704 44.6993C23.8611 45.5455 25.3061 45.5455 26.1979 44.6993L33.4597 37.8091L40.7215 44.6993C41.6123 45.5455 43.0582 45.5455 43.949 44.6993C44.8397 43.8532 44.8397 42.4826 43.949 41.6364L35.0734 33.2153C34.1827 32.3691 32.7378 32.3691 31.846 33.2153Z" fill="#F7F8FA"/>
</g>
<defs>
<clipPath id="clip0">
<rect width="25.5" height="25.5" fill="white" transform="translate(21.25 45.334) rotate(-90)"/>
</clipPath>
</defs>
</svg>
