<svg width="22" height="22" viewBox="0 0 22 22" fill="none" xmlns="http://www.w3.org/2000/svg">
<path d="M21.6086 18.954L17.3604 14.7059C17.1687 14.5141 16.9088 14.4076 16.6361 14.4076H15.9415C17.1176 12.9035 17.8164 11.0116 17.8164 8.95359C17.8164 4.05776 13.8494 0.0908203 8.95359 0.0908203C4.05776 0.0908203 0.0908203 4.05776 0.0908203 8.95359C0.0908203 13.8494 4.05776 17.8164 8.95359 17.8164C11.0116 17.8164 12.9035 17.1176 14.4076 15.9415V16.6361C14.4076 16.9088 14.5141 17.1687 14.7059 17.3604L18.954 21.6086C19.3546 22.0091 20.0022 22.0091 20.3985 21.6086L21.6043 20.4028C22.0049 20.0022 22.0049 19.3546 21.6086 18.954ZM8.95359 14.4076C5.9411 14.4076 3.49958 11.9703 3.49958 8.95359C3.49958 5.9411 5.93684 3.49958 8.95359 3.49958C11.9661 3.49958 14.4076 5.93684 14.4076 8.95359C14.4076 11.9661 11.9703 14.4076 8.95359 14.4076Z" fill="#838A92"/>
</svg>
