<svg width="26" height="24" viewBox="0 0 26 24" fill="none" xmlns="http://www.w3.org/2000/svg">
<path d="M0 0H23C24.6569 0 26 1.34315 26 3V24H20C8.95431 24 0 15.0457 0 4V0Z" fill="url(#paint0_linear)"/>
<path d="M14.7967 15.3021C14.4554 15.7654 13.9238 16.0501 13.3491 16.0784C12.7743 16.107 12.2177 15.8754 11.8326 15.4477L8.3816 11.618C7.83312 11.0097 7.88184 10.072 8.49013 9.52356C9.09899 8.97509 10.0361 9.0241 10.5845 9.63267L13.0261 12.3424C13.0623 12.3826 13.1148 12.4042 13.1688 12.4016C13.223 12.399 13.2726 12.3718 13.305 12.3287L18.3236 5.52204C18.8093 4.8627 19.7376 4.72237 20.3973 5.20841C21.0563 5.69446 21.1963 6.62278 20.7103 7.28182L14.7967 15.3021Z" fill="#220407"/>
<defs>
<linearGradient id="paint0_linear" x1="13" y1="0" x2="13" y2="24" gradientUnits="userSpaceOnUse">
<stop stop-color="#FEC01F"/>
<stop offset="1" stop-color="#FEA51F"/>
</linearGradient>
</defs>
</svg>
