<svg width="30" height="27" viewBox="0 0 30 27" fill="none" xmlns="http://www.w3.org/2000/svg">
<path d="M29.8792 20.3867L26.8218 14.06V1.17165C26.8218 0.524597 26.2972 0 25.6501 0H9.11092C8.46387 0 7.9395 0.524597 7.9395 1.17165V4.76395H4.34972C3.70267 4.76395 3.17808 5.28855 3.17808 5.93582V18.8242L0.120674 25.1507C-0.361579 26.1486 0.691734 27.1964 1.68577 26.7153L8.0084 23.6563H20.8889C21.536 23.6563 22.0606 23.1317 22.0606 22.4844V18.9256L28.3141 21.9514C29.3097 22.4329 30.3617 21.3851 29.8792 20.3867ZM19.7173 21.3128H7.73969C7.56299 21.3128 7.38858 21.3529 7.22951 21.4298L3.69489 23.14L5.40441 19.6024C5.48131 19.4433 5.52114 19.2691 5.52114 19.0924V7.10747H19.7173V21.3128ZM22.7704 16.6658C22.6113 16.5889 22.4366 16.5489 22.2599 16.5489H22.0604V5.93582C22.0604 5.28877 21.5358 4.76418 20.8887 4.76418H10.2826V2.34352H24.4785V14.3285C24.4785 14.5052 24.5186 14.6793 24.5955 14.8384L26.305 18.376L22.7704 16.6658ZM9.24962 12.0092C9.24962 10.066 10.8971 8.51303 12.8552 8.6483C14.5215 8.7632 15.8648 10.1063 15.9797 11.7728C16.1131 13.7073 14.9707 13.9435 14.2083 16.0073C13.6709 17.4628 11.473 16.6489 12.0099 15.1952C12.8687 12.8698 13.6986 12.7629 13.6414 11.9341C13.6071 11.437 13.191 11.0209 12.6938 10.9866C12.0926 10.9449 11.5934 11.4169 11.5934 12.0092C11.5934 12.6565 11.0685 13.1811 10.4215 13.1811C9.77422 13.1811 9.24962 12.6563 9.24962 12.0092ZM13.7906 18.601C13.7906 19.2483 13.2658 19.7729 12.6188 19.7729C11.9715 19.7729 11.4469 19.2483 11.4469 18.601C11.4469 17.9537 11.9715 17.4291 12.6188 17.4291C13.2658 17.4291 13.7906 17.9537 13.7906 18.601Z" fill="#F7F8FA"/>
</svg>
