<svg width="32" height="32" viewBox="0 0 32 32" fill="none" xmlns="http://www.w3.org/2000/svg">
<path fill-rule="evenodd" clip-rule="evenodd" d="M0 16C0 20.2435 1.68571 24.3131 4.68629 27.3137C7.68687 30.3143 11.7565 32 16 32C20.2435 32 24.3131 30.3143 27.3137 27.3137C30.3143 24.3131 32 20.2435 32 16C32 11.7565 30.3143 7.68687 27.3137 4.68629C24.3131 1.68571 20.2435 0 16 0C11.7565 0 7.68687 1.68571 4.68629 4.68629C1.68571 7.68687 0 11.7565 0 16ZM15.292 21.292C15.1042 21.4798 14.9987 21.7344 14.9987 22C14.9987 22.2656 15.1042 22.5202 15.292 22.708C15.4798 22.8958 15.7344 23.0013 16 23.0013C16.2656 23.0013 16.5202 22.8958 16.708 22.708L22.708 16.708C22.8011 16.6151 22.875 16.5048 22.9254 16.3833C22.9758 16.2618 23.0018 16.1315 23.0018 16C23.0018 15.8685 22.9758 15.7382 22.9254 15.6167C22.875 15.4952 22.8011 15.3849 22.708 15.292L16.708 9.292C16.615 9.19902 16.5046 9.12527 16.3832 9.07495C16.2617 9.02464 16.1315 8.99874 16 8.99874C15.8685 8.99874 15.7383 9.02464 15.6168 9.07495C15.4954 9.12527 15.385 9.19902 15.292 9.292C15.199 9.38498 15.1253 9.49535 15.075 9.61683C15.0246 9.73831 14.9987 9.86851 14.9987 10C14.9987 10.1315 15.0246 10.2617 15.075 10.3832C15.1253 10.5046 15.199 10.615 15.292 10.708L19.586 15H10C9.73478 15 9.48043 15.1054 9.29289 15.2929C9.10536 15.4804 9 15.7348 9 16C9 16.2652 9.10536 16.5196 9.29289 16.7071C9.48043 16.8946 9.73478 17 10 17H19.586L15.292 21.292Z" fill="#F7F8FA"/>
</svg>
