<svg width="26" height="26" viewBox="0 0 26 26" fill="none" xmlns="http://www.w3.org/2000/svg">
<path d="M16.6464 17.3536C16.8417 17.5488 17.1583 17.5488 17.3536 17.3536C17.5488 17.1583 17.5488 16.8417 17.3536 16.6464L16.6464 17.3536ZM9.35355 8.64645C9.15829 8.45118 8.84171 8.45118 8.64645 8.64645C8.45118 8.84171 8.45118 9.15829 8.64645 9.35355L9.35355 8.64645ZM8.64645 16.6464C8.45118 16.8417 8.45118 17.1583 8.64645 17.3536C8.84171 17.5488 9.15829 17.5488 9.35355 17.3536L8.64645 16.6464ZM17.3536 9.35355C17.5488 9.15829 17.5488 8.84171 17.3536 8.64645C17.1583 8.45118 16.8417 8.45118 16.6464 8.64645L17.3536 9.35355ZM25.5 13C25.5 6.09886 19.9011 0.5 13 0.5V1.5C19.3489 1.5 24.5 6.65114 24.5 13H25.5ZM13 0.5C6.09886 0.5 0.5 6.09886 0.5 13H1.5C1.5 6.65114 6.65114 1.5 13 1.5V0.5ZM0.5 13C0.5 19.9011 6.09886 25.5 13 25.5V24.5C6.65114 24.5 1.5 19.3489 1.5 13H0.5ZM13 25.5C19.9011 25.5 25.5 19.9011 25.5 13H24.5C24.5 19.3489 19.3489 24.5 13 24.5V25.5ZM17.3536 16.6464L9.35355 8.64645L8.64645 9.35355L16.6464 17.3536L17.3536 16.6464ZM9.35355 17.3536L17.3536 9.35355L16.6464 8.64645L8.64645 16.6464L9.35355 17.3536Z" fill="#838A92"/>
</svg>
