<svg width="32" height="32" viewBox="0 0 32 32" fill="none" xmlns="http://www.w3.org/2000/svg">
<path d="M20.6464 21.3536C20.8417 21.5488 21.1583 21.5488 21.3536 21.3536C21.5488 21.1583 21.5488 20.8417 21.3536 20.6464L20.6464 21.3536ZM11.3536 10.6464C11.1583 10.4512 10.8417 10.4512 10.6464 10.6464C10.4512 10.8417 10.4512 11.1583 10.6464 11.3536L11.3536 10.6464ZM10.6464 20.6464C10.4512 20.8417 10.4512 21.1583 10.6464 21.3536C10.8417 21.5488 11.1583 21.5488 11.3536 21.3536L10.6464 20.6464ZM21.3536 11.3536C21.5488 11.1583 21.5488 10.8417 21.3536 10.6464C21.1583 10.4512 20.8417 10.4512 20.6464 10.6464L21.3536 11.3536ZM31.5 16C31.5 7.44261 24.5574 0.5 16 0.5V1.5C24.0051 1.5 30.5 7.99489 30.5 16H31.5ZM16 0.5C7.44261 0.5 0.5 7.44261 0.5 16H1.5C1.5 7.99489 7.99489 1.5 16 1.5V0.5ZM0.5 16C0.5 24.5574 7.44261 31.5 16 31.5V30.5C7.99489 30.5 1.5 24.0051 1.5 16H0.5ZM16 31.5C24.5574 31.5 31.5 24.5574 31.5 16H30.5C30.5 24.0051 24.0051 30.5 16 30.5V31.5ZM21.3536 20.6464L11.3536 10.6464L10.6464 11.3536L20.6464 21.3536L21.3536 20.6464ZM11.3536 21.3536L21.3536 11.3536L20.6464 10.6464L10.6464 20.6464L11.3536 21.3536Z" fill="#838A92"/>
</svg>
