<svg width="44" height="45" viewBox="0 0 44 45" fill="none" xmlns="http://www.w3.org/2000/svg">
<path d="M10.9744 23.0001C10.9744 29.0894 15.9107 34.0257 22 34.0257C28.0892 34.0257 33.0255 29.0894 33.0255 23.0001C33.0255 16.9109 28.0892 11.9746 22 11.9746C15.9138 11.9818 10.9817 16.9138 10.9744 23.0001ZM31.021 23.0001C31.021 27.9822 26.9821 32.0211 22.0001 32.0211C17.018 32.0211 12.9791 27.9822 12.9791 23.0001C12.9791 18.0181 17.018 13.9792 22.0001 13.9792C26.9799 13.9847 31.0154 18.0203 31.021 23.0001Z" fill="#FEBC1F"/>
<path d="M20.9977 15.9839V17.9885H19.9953C18.8882 17.9885 17.9907 18.886 17.9907 19.9931V21.9977C17.9907 23.1049 18.8882 24.0024 19.9953 24.0024H24.0046V26.007H19.9953V25.0046H17.9907V26.007C17.9907 27.1141 18.8882 28.0116 19.9953 28.0116H20.9977V30.0162H23.0023V28.0116H24.0046C25.1118 28.0116 26.0093 27.1141 26.0093 26.007V24.0024C26.0093 22.8952 25.1118 21.9977 24.0046 21.9977H19.9953V19.9931H24.0046V20.9955H26.0093V19.9931C26.0093 18.886 25.1118 17.9885 24.0046 17.9885H23.0023V15.9839H20.9977Z" fill="#FEBC1F"/>
<path d="M29.0163 21.9976H27.0116V24.0022H29.0163V21.9976Z" fill="#FEBC1F"/>
<path d="M16.9884 21.9976H14.9837V24.0022H16.9884V21.9976Z" fill="#FEBC1F"/>
<path d="M5.96283 12.9767C5.96611 10.2102 8.208 7.96845 10.9744 7.96516H33.0256C35.7921 7.96845 38.0339 10.2103 38.0372 12.9767V13.5641L35.4963 11.0222L34.079 12.4395L38.3308 16.6924C38.7222 17.0837 39.3567 17.0837 39.7481 16.6924L44 12.4395L42.5827 11.0222L40.0418 13.5641V12.9767C40.0374 9.10358 36.8986 5.96487 33.0255 5.96045H10.9744C7.10125 5.96487 3.96253 9.10358 3.95811 12.9767V14.9814H5.96273V12.9767H5.96283Z" fill="#FEBC1F"/>
<path d="M38.0372 33.0235C38.0339 35.7901 35.792 38.0319 33.0256 38.0351H10.9744C8.20791 38.0319 5.96612 35.79 5.96283 33.0235V32.4361L8.50372 34.9781L9.92104 33.5608L5.66918 29.3079C5.2716 28.9319 4.64953 28.9319 4.25186 29.3079L0 33.5609L1.41732 34.9782L3.95821 32.4362V33.0236C3.96263 36.8968 7.10134 40.0355 10.9745 40.04H33.0257C36.8988 40.0355 40.0376 36.8968 40.042 33.0236V31.019H38.0374V33.0235H38.0372Z" fill="#FEBC1F"/>
</svg>
