<svg width="24" height="22" viewBox="0 0 24 22" fill="none" xmlns="http://www.w3.org/2000/svg">
<path d="M20.4708 0.733398H3.52958C1.97289 0.733398 0.706055 2.09063 0.706055 3.7584V7.79172C0.706055 9.45948 1.97289 10.8167 3.52958 10.8167H5.41195V19.8917C5.41195 20.4493 5.83358 20.9 6.35311 20.9H17.6472C18.1677 20.9 18.5884 20.4493 18.5884 19.8917V10.8167H20.4708C22.0275 10.8167 23.2943 9.45948 23.2943 7.79172V3.7584C23.2943 2.09058 22.0275 0.733398 20.4708 0.733398ZM16.7061 18.8834H7.29427V6.7834H16.706L16.7061 18.8834ZM21.4119 7.79172C21.4119 8.34732 20.9903 8.80003 20.4708 8.80003H18.5884V6.78335H19.5296C20.05 6.78335 20.4707 6.33163 20.4707 5.77503C20.4707 5.21843 20.0501 4.76672 19.5296 4.76672H4.47075C3.95122 4.76672 3.52958 5.21843 3.52958 5.77503C3.52958 6.33163 3.95122 6.78335 4.47075 6.78335H5.41191V8.80003H3.52958C3.01098 8.80003 2.58842 8.34728 2.58842 7.79172V3.7584C2.58842 3.20279 3.01103 2.75008 3.52958 2.75008H20.4708C20.9903 2.75008 21.4119 3.20284 21.4119 3.7584V7.79172Z" fill="#F7F8FA"/>
<path fill-rule="evenodd" clip-rule="evenodd" d="M13.6048 12.5859C14.1601 13.0073 14.4385 13.604 14.4333 14.3585C14.4321 15.4114 13.6818 16.1644 12.5158 16.3446V16.5155H12.5121V17.3592H11.3294V16.3228C10.6505 16.1844 10.0099 15.8312 9.56902 15.3316L10.4282 14.4609C10.656 14.719 10.9979 14.9218 11.3653 15.0311V12.9934C11.0323 12.8744 10.7069 12.7332 10.4245 12.5253C9.88848 12.1322 9.61595 11.575 9.61595 10.8723C9.61595 9.86902 10.2782 9.13291 11.3295 8.88515V7.82217H12.5121V8.66555H12.5158V8.8159C13.0858 8.8785 13.6626 9.07849 14.0843 9.37139L13.4432 10.4351C13.2056 10.2709 12.8613 10.146 12.5158 10.0913V12.0499C12.8999 12.1824 13.2788 12.3393 13.6048 12.5859ZM11.3653 11.6378V10.1881C11.0411 10.3098 10.7991 10.5268 10.7991 10.8723C10.7991 11.2393 10.9411 11.4393 11.3653 11.6378ZM12.5158 15.0579C12.9185 14.9613 13.251 14.7451 13.251 14.3557L13.251 14.3507C13.2545 13.861 13.0337 13.6203 12.5158 13.3969V15.0579Z" fill="#F7F8FA"/>
</svg>
