<svg width="32" height="32" viewBox="0 0 32 32" fill="none" xmlns="http://www.w3.org/2000/svg">
<g clip-path="url(#clip0)">
<path d="M30.1523 18.5466L30.1514 13.4534L30.1511 11.7557L30.1506 9.1003C30.1505 8.37486 29.7934 7.70098 29.2043 7.29117C29.1536 7.25586 29.1017 7.2218 29.0475 7.19049L27.5656 6.33524L26.1782 5.53461L25.0613 4.89005L19.1239 1.46343L17.8742 0.742249L17.0998 0.295312C16.4175 -0.0985623 15.5767 -0.0984373 14.8944 0.295687L14.1252 0.739936L12.8757 1.46168L6.93904 4.89062L5.06736 5.97161L3.68042 6.77274L2.94936 7.19499C2.8968 7.22536 2.84636 7.25842 2.79692 7.29255C2.20536 7.7023 1.84686 8.37786 1.84692 9.10511L1.84736 11.7557L1.84767 13.4535L1.84855 18.5467L1.84886 20.2444L1.8493 22.8997C1.84949 23.6251 2.20649 24.299 2.79555 24.7088C2.8463 24.7441 2.89817 24.7782 2.95236 24.8095L4.41342 25.6527L5.80079 26.4534L6.93854 27.11L12.876 30.5366L14.1257 31.2578L14.9 31.7048C15.5824 32.0986 16.4232 32.0984 17.1055 31.7044L17.8746 31.2601L19.1243 30.5384L25.0611 27.1094L26.7689 26.1231L28.1559 25.322L29.0508 24.8051C29.1034 24.7747 29.1538 24.7418 29.2033 24.7075C29.7948 24.2977 30.1533 23.6221 30.1533 22.8949L30.1528 20.2443L30.1523 18.5466Z" fill="#F5F5F5"/>
<path d="M19.124 30.5384L25.0608 27.1094L19.124 21.8252V30.5384Z" fill="#41479B"/>
<path d="M25.0615 4.89L19.124 1.46338V10.1748L25.0615 4.89Z" fill="#41479B"/>
<path d="M6.93835 27.1099L12.8757 30.5366V21.8252L6.93835 27.1099Z" fill="#41479B"/>
<path d="M29.203 24.7073C29.7946 24.2976 30.1531 23.622 30.153 22.8948L30.1525 20.2441H24.1887L29.203 24.7073Z" fill="#41479B"/>
<path d="M1.84875 20.2444L1.84919 22.8998C1.84938 23.6252 2.20638 24.2991 2.79544 24.7089L7.81118 20.2444H1.84875V20.2444Z" fill="#41479B"/>
<path d="M2.79692 7.29248C2.20536 7.70223 1.84686 8.37779 1.84692 9.10504L1.84736 11.7557H7.81116L2.79692 7.29248Z" fill="#41479B"/>
<path d="M30.1511 11.7558L30.1506 9.10038C30.1505 8.37495 29.7934 7.70107 29.2043 7.29126L24.1886 11.7558H30.1511Z" fill="#41479B"/>
<path d="M12.8758 1.46167L6.93896 4.8906L12.8758 10.1748V1.46167Z" fill="#41479B"/>
<path d="M17.8744 0.742186L17.1 0.295312C16.4176 -0.0985623 15.5769 -0.0984373 14.8946 0.295687L14.1254 0.739936V13.4534H1.84766L1.84853 18.5466H14.1255V31.2578L14.8998 31.7047C15.5822 32.0986 16.4229 32.0983 17.1053 31.7043L17.8744 31.2601V18.5466H30.1522L30.1514 13.4534H17.8744V0.742186Z" fill="#FF4B55"/>
<path d="M10.5462 20.2444L4.41333 25.6527L5.8007 26.4534L12.8415 20.2444H10.5462Z" fill="#FF4B55"/>
<path d="M20.1024 20.2444L26.7687 26.1231L28.1557 25.322L22.3977 20.2444H20.1024Z" fill="#FF4B55"/>
<path d="M11.6261 11.7557L5.0673 5.97168L3.6803 6.7728L9.33079 11.7557H11.6261Z" fill="#FF4B55"/>
<path d="M19.124 11.7557H21.4193L27.5657 6.33542L26.1783 5.53467L19.124 11.7557Z" fill="#FF4B55"/>
</g>
<defs>
<clipPath id="clip0">
<rect width="32" height="32" fill="white"/>
</clipPath>
</defs>
</svg>
