<svg width="32" height="32" viewBox="0 0 32 32" fill="none" xmlns="http://www.w3.org/2000/svg">
<g clip-path="url(#clip0)">
<path d="M30.1507 22.8996L30.153 9.10508C30.1531 8.31715 29.7328 7.58903 29.0505 7.19496L17.1054 0.295664C16.423 -0.0984607 15.5824 -0.0985232 14.8999 0.295289L2.95238 7.19059C2.27001 7.58446 1.84951 8.31246 1.84932 9.1004L1.84707 22.8949C1.84688 23.6829 2.26719 24.411 2.9495 24.8051L14.8947 31.7044C15.577 32.0985 16.4177 32.0985 17.1002 31.7047L29.0476 24.8094C29.7301 24.4156 30.1506 23.6876 30.1507 22.8996Z" fill="#7F40BD"/>
<path d="M20.2448 14.8749C20.2608 12.9011 18.6578 11.0916 16.6713 10.8414C16.6318 10.8365 16.5888 10.829 16.5432 10.8211C16.4449 10.804 16.3432 10.7864 16.2406 10.7864C15.8335 10.7864 15.7247 11.0863 15.696 11.2652C15.6681 11.4391 15.6947 11.5852 15.7748 11.6995C15.9097 11.8917 16.1469 11.9259 16.3374 11.9532C16.3933 11.9613 16.446 11.9688 16.4901 11.9792C18.2748 12.3975 18.8758 13.055 19.1695 14.9107C19.1767 14.956 19.1799 15.0119 19.1833 15.0712C19.1961 15.293 19.2228 15.7545 19.696 15.7545H19.696C19.7354 15.7545 19.7777 15.751 19.8218 15.7439C20.2624 15.6737 20.2486 15.2518 20.2419 15.0491C20.2401 14.992 20.2383 14.938 20.2429 14.9021C20.2441 14.8931 20.2447 14.884 20.2448 14.8749Z" fill="#F7F8FA"/>
<path d="M16.1251 10.1169C16.1779 10.1209 16.228 10.1247 16.2697 10.1314C19.2004 10.6041 20.5481 12.0602 20.9216 15.1577C20.928 15.2104 20.929 15.2746 20.93 15.3426C20.9337 15.5846 20.9414 16.088 21.457 16.0984L21.473 16.0986C21.6347 16.0986 21.7633 16.0475 21.8553 15.9465C22.0158 15.7705 22.0046 15.5089 21.9955 15.2988C21.9933 15.2472 21.9912 15.1986 21.9917 15.1561C22.029 11.9882 19.4142 9.11555 16.3961 9.00875C16.3836 9.00831 16.3717 9.00902 16.3596 9.0108C16.3537 9.0117 16.3427 9.01285 16.3238 9.01285C16.2937 9.01285 16.2567 9.01012 16.2175 9.00733C16.17 9.00391 16.1162 9 16.0616 9C15.581 9 15.4896 9.35826 15.4779 9.57181C15.451 10.0654 15.9063 10.1001 16.1251 10.1169Z" fill="#F7F8FA"/>
<path d="M20.7802 19.161C20.7179 19.1111 20.6535 19.0594 20.5932 19.0084C20.2732 18.7384 19.9328 18.4895 19.6035 18.2488C19.5352 18.1989 19.4669 18.1489 19.3988 18.0988C18.9771 17.7882 18.5979 17.6372 18.2397 17.6372C17.7573 17.6372 17.3366 17.9168 16.9895 18.468C16.8357 18.7124 16.6491 18.8312 16.4191 18.8312C16.2831 18.8312 16.1286 18.7905 15.9599 18.7102C14.5986 18.0629 13.6266 17.0704 13.0708 15.7602C12.8021 15.127 12.8892 14.7131 13.3621 14.3762C13.6306 14.1851 14.1305 13.8293 14.0951 13.1479C14.055 12.3741 12.427 10.0459 11.741 9.78146C11.4506 9.66946 11.1455 9.66842 10.8324 9.77886C10.0439 10.0569 9.47799 10.5451 9.19582 11.1906C8.92314 11.8144 8.93545 12.5469 9.23144 13.3088C10.0871 15.5116 11.29 17.4323 12.8071 19.0171C14.292 20.5686 16.117 21.8395 18.2315 22.7943C18.4221 22.8803 18.622 22.9272 18.768 22.9614C18.8177 22.9732 18.8607 22.9832 18.892 22.9922C18.9092 22.9971 18.9269 22.9998 18.9447 22.9999L18.9615 23C18.9615 23 18.9615 23 18.9615 23C19.956 23 21.1502 22.047 21.517 20.9604C21.8383 20.0091 21.2516 19.5388 20.7802 19.161Z" fill="#F7F8FA"/>
<path d="M16.565 12.6332C16.3947 12.6377 16.0403 12.6469 15.916 13.0254C15.8578 13.2023 15.8648 13.3559 15.9367 13.4819C16.0423 13.6667 16.2445 13.7234 16.4285 13.7545C17.0956 13.8667 17.4382 14.2536 17.5068 14.9719C17.5386 15.3068 17.7536 15.5406 18.0298 15.5406H18.0298C18.0502 15.5406 18.0711 15.5394 18.0918 15.5367C18.4239 15.4953 18.5849 15.2394 18.5704 14.7763C18.5757 14.2929 18.3345 13.7442 17.9242 13.3071C17.5125 12.8687 17.0163 12.6218 16.565 12.6332Z" fill="#F7F8FA"/>
</g>
<defs>
<clipPath id="clip0">
<rect width="32" height="32" fill="white" transform="matrix(-1 0 0 1 32 0)"/>
</clipPath>
</defs>
</svg>
