<svg width="32" height="32" viewBox="0 0 32 32" fill="none" xmlns="http://www.w3.org/2000/svg">
<g clip-path="url(#clip0)">
<path d="M30.1507 22.8996L30.153 9.10508C30.1531 8.31715 29.7328 7.58903 29.0505 7.19496L17.1054 0.295664C16.423 -0.0984607 15.5824 -0.0985232 14.8999 0.295289L2.95238 7.19059C2.27001 7.58446 1.84951 8.31246 1.84932 9.1004L1.84707 22.8949C1.84688 23.6829 2.26719 24.411 2.9495 24.8051L14.8947 31.7044C15.577 32.0985 16.4177 32.0985 17.1002 31.7047L29.0476 24.8094C29.7301 24.4156 30.1506 23.6876 30.1507 22.8996Z" fill="#FF4B55"/>
<path d="M15.4179 9.54506L13.9769 13.8712L9.42258 13.9065C8.83299 13.9111 8.58845 14.6645 9.06281 15.0153L12.7266 17.7243L11.3528 22.0725C11.175 22.6354 11.815 23.101 12.2948 22.7577L16.0001 20.1058L19.7052 22.7577C20.185 23.1011 20.825 22.6353 20.6472 22.0725L19.2734 17.7243L22.9372 15.0153C23.4116 14.6646 23.167 13.911 22.5775 13.9065L18.0232 13.8712L16.5822 9.54506C16.3956 8.98498 15.6045 8.98498 15.4179 9.54506Z" fill="#FFE15A"/>
</g>
<defs>
<clipPath id="clip0">
<rect width="32" height="32" fill="white" transform="matrix(-1 0 0 1 32 0)"/>
</clipPath>
</defs>
</svg>
