<svg width="32" height="32" viewBox="0 0 32 32" fill="none" xmlns="http://www.w3.org/2000/svg">
<g clip-path="url(#clip0)">
<path d="M30.1507 22.8996L30.153 9.10508C30.1531 8.31715 29.7328 7.58903 29.0505 7.19496L17.1054 0.295664C16.423 -0.0984607 15.5824 -0.0985232 14.8999 0.295289L2.95238 7.19059C2.27001 7.58446 1.84951 8.31246 1.84932 9.1004L1.84707 22.8949C1.84688 23.6829 2.26719 24.411 2.9495 24.8051L14.8947 31.7044C15.577 32.0985 16.4177 32.0985 17.1002 31.7047L29.0476 24.8094C29.7301 24.4156 30.1506 23.6876 30.1507 22.8996Z" fill="#41A0D7"/>
<path d="M22 22.4111V19.6688C21.6314 19.3056 21.1179 19.08 20.5495 19.08H16.4208L22 11.7431V9.39176C21.7127 9.14416 21.3372 9 20.9387 9H12.4996C11.3782 9 10.469 9.87757 10.469 10.96C10.469 12.0425 11.3782 12.9201 12.4996 12.9201H16.0482L10.3041 20.5577C9.95197 21.0258 9.90173 21.6449 10.1739 22.1602C10.446 22.6755 10.9946 23 11.5939 23H20.5496C21.118 22.9999 21.6314 22.7743 22 22.4111Z" fill="white"/>
</g>
<defs>
<clipPath id="clip0">
<rect width="32" height="32" fill="white" transform="matrix(-1 0 0 1 32 0)"/>
</clipPath>
</defs>
</svg>
