<svg width="118" height="25" viewBox="0 0 118 25" fill="none" xmlns="http://www.w3.org/2000/svg">
<g clip-path="url(#clip0)">
<path d="M100.665 8.55004C100.512 7.96042 100.268 7.45924 99.8704 7.01703C99.3509 6.4274 98.6481 6.04415 97.7926 5.83778C96.9981 5.63141 95.8064 5.54297 94.1869 5.54297C92.4146 5.54297 91.2841 5.74934 90.4591 6.04415C90.0924 6.16207 89.6951 6.45688 89.4201 6.69273V6.13259H87.1284V17.6892H89.4201V10.3189C89.4201 8.40264 91.4369 7.63613 93.4841 7.63613H94.4925C96.5092 7.63613 98.5565 8.40264 98.5565 10.3189V17.6597H100.818V11.3508C100.848 9.93566 100.787 9.05122 100.665 8.55004Z" fill="#ADADAD"/>
<path d="M62.0112 5.48349H64.303C64.3335 4.30424 64.3641 3.18396 64.5168 2.6533C64.6085 2.15212 64.853 1.70991 65.2196 1.38561C65.6169 0.913915 66.1669 0.589623 66.9002 0.353774C67.5419 0.176887 68.7336 0.0294811 70.2614 0H72.4004L70.3225 1.94575C70.2614 1.94575 69.5281 1.94575 69.4364 1.94575C66.3808 1.94575 66.5947 3.83255 66.5947 5.48349H71.942L69.7725 7.60613H66.5947V17.6297H64.2724V7.60613H62.0112V5.48349Z" fill="#ADADAD"/>
<path d="M59.7197 1.68164V3.95169H62.0114V1.68164H59.7197Z" fill="#ADADAD"/>
<path d="M64.8533 21.9639C65.0366 21.6691 65.4644 21.5217 66.1367 21.4922C66.4728 21.4922 66.7478 21.5217 66.9617 21.6101C67.1756 21.6986 67.3284 21.8165 67.3895 21.9639C67.6034 21.6691 68.0617 21.5217 68.7645 21.4922C69.0395 21.4922 69.284 21.5217 69.4673 21.5511C69.6506 21.6101 69.8034 21.6691 69.8951 21.7575C69.9868 21.846 70.0479 21.9344 70.109 22.0523C70.1395 22.1703 70.1701 22.2882 70.1701 22.4356V24.2634H69.559V22.4945C69.559 22.3177 69.5284 22.1703 69.4979 22.0818C69.4367 21.9934 69.3756 21.9049 69.2534 21.8754C69.1312 21.846 68.9478 21.8165 68.734 21.8165C68.4895 21.8165 68.2756 21.846 68.1228 21.8754C67.9395 21.9049 67.8173 21.9639 67.695 22.0818C67.5728 22.1997 67.5423 22.3471 67.5423 22.5535V24.2929H66.9006V22.4651C66.9006 22.2882 66.87 22.1703 66.8395 22.0818C66.8089 21.9934 66.7172 21.9344 66.595 21.9049C66.4728 21.8754 66.2895 21.846 66.0144 21.846C65.6478 21.846 65.3728 21.9049 65.1589 22.0228C64.945 22.1408 64.8533 22.3471 64.8533 22.6714V24.3224H64.2422V21.5217H64.8533V21.9639Z" fill="#ADADAD"/>
<path d="M73.5924 21.5217C73.8368 21.5511 74.0202 21.6101 74.1424 21.728C74.2952 21.846 74.4174 21.9934 74.448 22.1997C74.4785 22.4061 74.5091 22.642 74.5091 22.9368C74.5091 23.2316 74.4785 23.4674 74.448 23.6443C74.4174 23.8212 74.2952 23.9981 74.1119 24.116C73.9591 24.2045 73.7757 24.2634 73.5313 24.2634C73.2868 24.2929 73.0118 24.2929 72.6757 24.2929C72.3396 24.2929 72.034 24.2634 71.8201 24.2339C71.5757 24.2044 71.4229 24.116 71.2701 23.9686C71.0868 23.7917 70.9951 23.4674 70.9951 22.9957C70.9951 22.7009 71.0257 22.4356 71.0257 22.2587C71.0562 22.0818 71.1173 21.9049 71.2701 21.787C71.3924 21.6691 71.5757 21.5806 71.7896 21.5511C72.0035 21.5217 72.2785 21.4922 72.6146 21.4922C73.0424 21.4922 73.3479 21.5217 73.5924 21.5217ZM72.584 21.8165C72.2174 21.8165 71.9729 21.8754 71.8507 21.9639C71.759 22.0228 71.6979 22.1113 71.6979 22.2292C71.6674 22.3471 71.6674 22.524 71.6368 22.7304C71.6368 22.7599 71.6368 22.7894 71.6368 22.8483C71.6368 22.9073 71.6368 22.9662 71.6368 22.9957C71.6368 23.2021 71.6674 23.3495 71.6674 23.4674C71.6979 23.5853 71.7285 23.6738 71.7896 23.7328C71.8813 23.8212 72.0035 23.8802 72.1563 23.9096C72.309 23.9391 72.5229 23.9391 72.7674 23.9391C72.9813 23.9391 73.1646 23.9391 73.3174 23.9096C73.4702 23.8802 73.5924 23.8507 73.6535 23.7917C73.7757 23.6738 73.8674 23.4379 73.8674 23.0547V22.8483C73.8674 22.6125 73.8674 22.4356 73.8368 22.2882C73.8063 22.1408 73.7452 22.0228 73.6841 21.9639C73.5924 21.9049 73.4702 21.846 73.3174 21.8165C73.1646 21.787 72.9507 21.787 72.7368 21.787H72.584V21.8165Z" fill="#ADADAD"/>
<path d="M73.1033 24.5566V24.9989H72.4922V24.5566H73.1033Z" fill="#ADADAD"/>
<path d="M75.9754 20.6074V21.0791H75.3643V20.6074H75.9754ZM75.9754 21.5213V24.2926H75.3643V21.5213H75.9754Z" fill="#ADADAD"/>
<path d="M79.0923 20.3418V24.2923H78.5117V20.3418H79.0923Z" fill="#ADADAD"/>
<path d="M82.7282 23.9389C82.6365 24.0863 82.4532 24.2043 82.2393 24.2632C82.0254 24.3222 81.7504 24.3517 81.4449 24.3517C80.9865 24.3517 80.6198 24.2632 80.4059 24.1158C80.1921 23.9684 80.0698 23.7326 80.0698 23.4083V21.5215H80.6809V23.3493C80.6809 23.4967 80.681 23.6146 80.7115 23.7031C80.7421 23.762 80.7726 23.821 80.8337 23.88C80.956 23.9684 81.2004 24.0274 81.5671 23.9979C81.7199 23.9979 81.8421 23.9979 81.9643 23.9684C82.056 23.9684 82.1782 23.9389 82.2699 23.9095C82.3615 23.88 82.4532 23.8505 82.5449 23.7915C82.6671 23.7031 82.7588 23.4967 82.7588 23.2314V21.5215H83.3699V24.2927H82.7588L82.7282 23.9389Z" fill="#ADADAD"/>
<path d="M82.0562 20.4297L82.4228 20.5181L81.7506 21.432L81.4756 21.3436L82.0562 20.4297Z" fill="#ADADAD"/>
<path d="M86.9756 22.3749C86.9756 22.2864 86.9451 22.198 86.9451 22.139C86.9145 22.0506 86.884 21.9916 86.7923 21.9621C86.6701 21.9032 86.3951 21.8442 85.9978 21.8442H85.8451C85.6312 21.8442 85.4784 21.8442 85.3562 21.8737C85.2339 21.9032 85.1423 21.9326 85.0506 22.0211C84.9589 22.08 84.9284 22.1685 84.8978 22.2569C84.8673 22.3749 84.8367 22.4928 84.8367 22.6697C84.8367 22.7286 84.8367 22.7876 84.8367 22.876C84.8367 23.0234 84.8367 23.1119 84.8367 23.2003C84.8367 23.3772 84.8673 23.4951 84.8978 23.6131C84.9284 23.7015 84.9895 23.7899 85.0812 23.8489C85.2339 23.9374 85.5395 23.9963 85.9978 23.9963C86.2728 23.9963 86.4562 23.9963 86.5784 23.9668C86.7006 23.9374 86.7923 23.9079 86.884 23.8784C87.0062 23.8194 87.0368 23.6425 87.0368 23.4067V23.2888H87.6173V23.4067C87.6173 23.731 87.5257 23.9374 87.2812 24.0848C87.0368 24.2322 86.5784 24.3206 85.9062 24.3206C85.6617 24.3206 85.4784 24.3206 85.3256 24.2911C85.1728 24.2911 85.0506 24.2616 84.9284 24.2027C84.8062 24.1732 84.6839 24.1142 84.5923 24.0553C84.4395 23.9374 84.3172 23.8194 84.2867 23.672C84.2561 23.5246 84.2256 23.2888 84.2256 22.935C84.2256 22.6991 84.2256 22.5223 84.2561 22.3749C84.2561 22.2274 84.2867 22.1095 84.3478 22.0211C84.3784 21.9326 84.47 21.8442 84.5617 21.7852C84.6839 21.6968 84.8062 21.6083 84.9589 21.5789C85.1117 21.5494 85.2951 21.5199 85.4478 21.4904C85.6006 21.4904 85.784 21.4609 86.0284 21.4609C86.3034 21.4609 86.5173 21.4904 86.7312 21.5199C86.9451 21.5494 87.0979 21.5789 87.1895 21.6378C87.3423 21.7263 87.4645 21.8147 87.4951 21.9621C87.5562 22.08 87.5562 22.2274 87.5562 22.4043H86.9451V22.3749H86.9756Z" fill="#ADADAD"/>
<path d="M91.4065 23.0534H89.4814V22.6406H91.4065V23.0534Z" fill="#ADADAD"/>
<path d="M94.0344 21.9639C94.2177 21.6691 94.6455 21.5217 95.3178 21.4922C95.6539 21.4922 95.9289 21.5217 96.1428 21.6101C96.3567 21.6986 96.5094 21.8165 96.5706 21.9639C96.7845 21.6691 97.2428 21.5217 97.9456 21.4922C98.2206 21.4922 98.465 21.5217 98.6484 21.5511C98.8317 21.6101 98.9845 21.6691 99.0762 21.7575C99.1678 21.846 99.229 21.9344 99.2901 22.0523C99.3206 22.1703 99.3512 22.2882 99.3512 22.4356V24.2634H98.7401V22.4945C98.7401 22.3177 98.7095 22.1703 98.6789 22.0818C98.6178 21.9934 98.5567 21.9049 98.4345 21.8754C98.3123 21.846 98.1289 21.8165 97.915 21.8165C97.6706 21.8165 97.4567 21.846 97.3039 21.8754C97.1206 21.9049 96.9983 21.9639 96.8761 22.0818C96.7539 22.1997 96.7233 22.3471 96.7233 22.5535V24.2929H96.1428V22.4651C96.1428 22.2882 96.1122 22.1703 96.0817 22.0818C96.0511 21.9934 95.9594 21.9344 95.8372 21.9049C95.715 21.8754 95.5316 21.846 95.2566 21.846C94.89 21.846 94.615 21.9049 94.4011 22.0228C94.1872 22.1408 94.0955 22.3471 94.0955 22.6714V24.3224H93.4844V21.5217H94.0955L94.0344 21.9639Z" fill="#ADADAD"/>
<path d="M102.743 21.5217C102.987 21.5511 103.171 21.6101 103.293 21.728C103.446 21.846 103.568 21.9934 103.598 22.1997C103.629 22.4061 103.659 22.642 103.659 22.9368C103.659 23.2316 103.629 23.4674 103.598 23.6443C103.568 23.8212 103.446 23.9981 103.262 24.116C103.109 24.2045 102.926 24.2634 102.682 24.2634C102.437 24.2929 102.162 24.2929 101.826 24.2929C101.49 24.2929 101.184 24.2634 100.971 24.2339C100.726 24.2044 100.573 24.116 100.421 23.9686C100.237 23.7917 100.146 23.4674 100.146 22.9957C100.146 22.7009 100.176 22.4356 100.176 22.2587C100.207 22.0818 100.268 21.9049 100.421 21.787C100.543 21.6691 100.726 21.5806 100.94 21.5511C101.154 21.5217 101.429 21.4922 101.765 21.4922C102.193 21.4922 102.529 21.5217 102.743 21.5217ZM101.734 21.8165C101.368 21.8165 101.123 21.8754 101.001 21.9639C100.909 22.0228 100.848 22.1113 100.848 22.2292C100.818 22.3471 100.818 22.524 100.787 22.7304C100.787 22.7599 100.787 22.7894 100.787 22.8483C100.787 22.9073 100.787 22.9662 100.787 22.9957C100.787 23.2021 100.818 23.3495 100.818 23.4674C100.848 23.5853 100.879 23.6738 100.94 23.7328C101.032 23.8212 101.154 23.8802 101.307 23.9096C101.459 23.9391 101.673 23.9391 101.918 23.9391C102.132 23.9391 102.315 23.9391 102.468 23.9096C102.621 23.8802 102.743 23.8507 102.804 23.7917C102.926 23.6738 103.018 23.4379 103.018 23.0547V22.8483C103.018 22.6125 103.018 22.4356 102.987 22.2882C102.957 22.1408 102.896 22.0228 102.834 21.9639C102.743 21.9049 102.621 21.846 102.468 21.8165C102.315 21.787 102.101 21.787 101.887 21.787H101.734V21.8165Z" fill="#ADADAD"/>
<path d="M102.254 24.5566V24.9989H101.643V24.5566H102.254Z" fill="#ADADAD"/>
<path d="M105.157 20.6074V21.0791H104.545V20.6074H105.157ZM105.157 21.5213V24.2926H104.545V21.5213H105.157Z" fill="#ADADAD"/>
<path d="M108.274 21.8754C108.335 21.787 108.426 21.6986 108.549 21.6396C108.671 21.5806 108.793 21.5511 108.946 21.5217C109.099 21.4922 109.251 21.4922 109.435 21.4922C109.832 21.4922 110.138 21.5217 110.351 21.5806C110.565 21.6396 110.749 21.7575 110.84 21.8754C110.932 21.9934 110.993 22.1703 110.993 22.4061V24.2929H110.413V22.4061C110.413 22.2292 110.382 22.1113 110.321 22.0523C110.26 21.9639 110.168 21.9049 110.015 21.8754C109.893 21.846 109.679 21.8165 109.465 21.8165C109.221 21.8165 109.038 21.8165 108.915 21.846C108.763 21.8754 108.64 21.9049 108.549 21.9934C108.365 22.1113 108.304 22.3177 108.304 22.642V24.2929H107.724V21.5217H108.304L108.274 21.8754Z" fill="#ADADAD"/>
<path d="M113.56 21.4922C113.926 21.4922 114.263 21.5217 114.476 21.5217C114.721 21.5511 114.904 21.6101 115.026 21.728C115.179 21.846 115.301 21.9934 115.332 22.1997C115.638 22.1997 115.576 21.787 115.576 21.6986H116.035C115.974 22.3177 115.668 22.4945 115.363 22.4945C115.363 22.642 115.363 22.7599 115.363 22.9368C115.363 23.2316 115.332 23.4674 115.301 23.6443C115.271 23.8212 115.149 23.9981 114.965 24.116C114.813 24.2045 114.629 24.2634 114.385 24.2634C114.14 24.2929 113.865 24.2929 113.529 24.2929C113.193 24.2929 112.888 24.2634 112.674 24.2339C112.429 24.2044 112.276 24.116 112.124 23.9686C111.94 23.7917 111.849 23.4674 111.849 22.9957C111.849 22.7009 111.849 22.4356 111.879 22.2587C111.91 22.0818 111.971 21.9049 112.124 21.787C112.246 21.6691 112.429 21.5806 112.643 21.5511C112.918 21.5217 113.193 21.4922 113.56 21.4922ZM113.438 21.8165C113.071 21.8165 112.826 21.8754 112.704 21.9639C112.613 22.0228 112.551 22.1113 112.551 22.2292C112.521 22.3471 112.521 22.524 112.49 22.7304C112.49 22.7599 112.49 22.7894 112.49 22.8483C112.49 22.9073 112.49 22.9662 112.49 22.9957C112.49 23.2021 112.521 23.3495 112.521 23.4674C112.551 23.5853 112.582 23.6738 112.643 23.7328C112.735 23.8212 112.857 23.8802 113.01 23.9096C113.163 23.9391 113.376 23.9391 113.621 23.9391C113.835 23.9391 114.018 23.9391 114.171 23.9096C114.324 23.8802 114.446 23.8507 114.507 23.7917C114.629 23.6738 114.721 23.4379 114.721 23.0547V22.8483C114.721 22.6125 114.721 22.4356 114.69 22.2882C114.66 22.1408 114.599 22.0228 114.538 21.9639C114.446 21.9049 114.324 21.846 114.171 21.8165C114.018 21.787 113.804 21.787 113.59 21.787H113.438V21.8165Z" fill="#ADADAD"/>
<path d="M116.86 20.6074V21.0791H116.249V20.6074H116.86ZM116.86 21.5213V24.2926H116.249V21.5213H116.86Z" fill="#ADADAD"/>
<path d="M42.058 11.615C42.058 13.0007 41.9052 14.1209 41.5691 14.9759C41.233 15.8603 40.1024 17.8356 34.5717 17.8356C29.0411 17.8356 27.9105 15.8603 27.5744 14.9759C27.2382 14.1209 27.0854 13.0007 27.0854 11.615C27.0854 10.2294 27.2382 9.10915 27.5744 8.2542C27.9105 7.36977 29.0411 5.39453 34.5717 5.39453C40.1024 5.39453 41.233 7.36977 41.5691 8.2542C41.9052 9.10915 42.058 10.2294 42.058 11.615ZM39.1857 8.96175C38.9718 8.46057 38.6052 8.13628 38.0246 7.95939C37.444 7.7825 36.4051 7.66458 34.5717 7.6351C32.7689 7.66458 31.73 7.75302 31.1189 7.95939C30.5383 8.13628 30.1716 8.46057 29.9577 8.96175C29.7744 9.345 29.5911 10.2884 29.5911 11.615C29.5911 12.9417 29.7744 13.8851 29.9577 14.2684C30.1716 14.7695 30.5383 15.0938 31.1189 15.2707C31.6994 15.4476 32.7384 15.5655 34.5717 15.595C36.3746 15.5655 37.4135 15.4771 38.0246 15.2707C38.6052 15.0938 38.9718 14.7695 39.1857 14.2684C39.3691 13.8851 39.5524 12.9417 39.5524 11.615C39.5524 10.2884 39.3385 9.345 39.1857 8.96175Z" fill="#ADADAD"/>
<path d="M85.4784 11.615C85.4784 13.0007 85.3257 14.1209 84.9895 14.9759C84.6534 15.8603 83.5228 17.8356 77.9922 17.8356C72.4615 17.8356 71.3309 15.8603 70.9948 14.9759C70.6586 14.1209 70.5059 13.0007 70.5059 11.615C70.5059 10.2294 70.6586 9.10915 70.9948 8.2542C71.3309 7.36977 72.4615 5.39453 77.9922 5.39453C83.5228 5.39453 84.6534 7.36977 84.9895 8.2542C85.3257 9.10915 85.4784 10.2294 85.4784 11.615ZM82.5756 8.96175C82.3617 8.46057 81.995 8.13628 81.4145 7.95939C80.8339 7.7825 79.795 7.66458 77.9616 7.6351C76.1588 7.66458 75.1199 7.75302 74.5087 7.95939C73.9282 8.13628 73.5615 8.46057 73.3476 8.96175C73.1643 9.345 72.9809 10.2884 72.9809 11.615C72.9809 12.9417 73.1643 13.8851 73.3476 14.2684C73.5615 14.7695 73.9282 15.0938 74.5087 15.2707C75.0893 15.4476 76.1282 15.5655 77.9616 15.595C79.7644 15.5655 80.8033 15.4771 81.4145 15.2707C81.995 15.0938 82.3617 14.7695 82.5756 14.2684C82.7589 13.8851 82.9423 12.9417 82.9423 11.615C82.9423 10.2884 82.7589 9.345 82.5756 8.96175Z" fill="#ADADAD"/>
<path d="M25.2521 8.52075C25.0993 7.93112 24.8548 7.42995 24.4576 6.98773C23.9076 6.39811 23.2354 6.01485 22.3492 5.80848C21.5548 5.60212 20.3936 5.51367 18.7436 5.51367C16.9713 5.51367 15.7491 5.66108 14.9241 5.95589C14.2518 6.19174 13.7018 6.63395 13.274 7.22358C12.7851 6.60447 12.2045 6.16226 11.4406 5.92641C10.5851 5.66108 9.02669 5.51367 7.04054 5.51367C5.54328 5.51367 4.53492 5.60211 3.9238 5.83796C3.46545 6.01485 3.00711 6.28018 2.57932 6.69292C2.57932 6.33914 2.57932 6.10329 2.57932 6.10329H0.287598V17.6599H2.57932V10.3191C2.57932 8.40282 4.59603 7.63631 6.6433 7.63631H7.65166C9.69893 7.63631 11.7156 8.40282 11.7156 10.3191V17.6599H14.0074V10.3191C14.0074 8.40282 15.9935 7.63631 18.0408 7.63631H19.0492C21.0964 7.63631 23.1437 8.40282 23.1437 10.3191V17.6599H25.4354V11.3509C25.4354 9.90636 25.3743 9.05141 25.2521 8.52075Z" fill="#ADADAD"/>
<path d="M116.096 12.4407H117.257C117.288 12.1754 117.288 11.8806 117.288 11.5858C117.288 10.2001 117.135 9.07986 116.799 8.2249C116.462 7.34047 115.332 5.36523 109.801 5.36523C104.271 5.36523 103.14 7.34047 102.804 8.2249C102.468 9.07986 102.315 10.2001 102.315 11.5858C102.315 12.9714 102.468 14.0916 102.804 14.9466C103.14 15.831 104.271 17.8063 109.801 17.8063C115.332 17.8063 116.462 15.831 116.799 14.9466C116.829 14.8582 116.86 14.7992 116.89 14.7108H114.14C113.926 14.9761 113.651 15.153 113.254 15.2709C112.674 15.4478 111.635 15.5657 109.801 15.5952C107.998 15.5657 106.929 15.4773 106.348 15.2709C105.768 15.094 105.401 14.7697 105.187 14.2685C105.065 13.9737 104.912 13.3546 104.851 12.4702L116.096 12.4407ZM106.348 7.93009C106.929 7.75321 107.968 7.63528 109.801 7.6058C111.604 7.63528 112.643 7.72372 113.254 7.93009C113.835 8.10698 114.201 8.43127 114.415 8.93245C114.537 9.1683 114.66 9.66948 114.721 10.3475H104.912C104.973 9.66948 105.096 9.1683 105.218 8.93245C105.432 8.46075 105.798 8.13646 106.348 7.93009Z" fill="#ADADAD"/>
<path d="M59.7197 5.48438V17.6601H62.0114V5.48438H59.7197Z" fill="#ADADAD"/>
<path d="M57.6111 8.25472C57.275 7.37028 56.1444 5.39505 50.6137 5.39505C48.5053 5.39505 47.0386 5.68986 45.9997 6.10259V0H43.708V17.6887H45.9997V17.1285C47.0386 17.5413 48.5053 17.8361 50.6137 17.8361C56.1444 17.8361 57.275 15.8608 57.6111 14.9764C57.9472 14.1215 58.1 13.0012 58.1 11.6156C58.1306 10.23 57.9472 9.10967 57.6111 8.25472ZM55.2277 14.2689C55.0138 14.77 54.6472 15.0943 54.0666 15.2712C53.486 15.4481 52.4471 15.566 50.6137 15.5955C48.8109 15.566 48.0776 15.4776 47.497 15.2712C46.9164 15.0943 46.5497 14.77 46.3358 14.2689C46.2136 13.9741 46.0608 13.3255 45.9997 12.4116V10.8491C46.0608 9.93514 46.2136 9.28656 46.3358 8.99174C46.5497 8.49056 46.9164 8.16627 47.497 7.98939C48.0776 7.8125 48.8109 7.69457 50.6137 7.66509C52.4165 7.69457 53.4555 7.78302 54.0666 7.98939C54.6472 8.16627 55.0138 8.49056 55.2277 8.99174C55.4111 9.375 55.5944 10.3184 55.5944 11.645C55.5944 12.9422 55.3805 13.8856 55.2277 14.2689Z" fill="#ADADAD"/>
</g>
<defs>
<clipPath id="clip0">
<rect width="117" height="25" fill="white" transform="translate(0.287598)"/>
</clipPath>
</defs>
</svg>
