<svg width="117" height="25" viewBox="0 0 117 25" fill="none" xmlns="http://www.w3.org/2000/svg">
<g clip-path="url(#clip0)">
<path d="M100.377 8.55004C100.224 7.96042 99.98 7.45924 99.5828 7.01703C99.0633 6.4274 98.3605 6.04415 97.505 5.83778C96.7105 5.63141 95.5188 5.54297 93.8993 5.54297C92.1271 5.54297 90.9965 5.74934 90.1715 6.04415C89.8048 6.16207 89.4075 6.45688 89.1325 6.69273V6.13259H86.8408V17.6892H89.1325V10.3189C89.1325 8.40264 91.1493 7.63613 93.1965 7.63613H94.2049C96.2216 7.63613 98.2689 8.40264 98.2689 10.3189V17.6597H100.53V11.3508C100.561 9.93566 100.499 9.05122 100.377 8.55004Z" fill="#E30613"/>
<path d="M61.7236 5.48349H64.0154C64.0459 4.30424 64.0765 3.18396 64.2292 2.6533C64.3209 2.15212 64.5654 1.70991 64.932 1.38561C65.3293 0.913915 65.8793 0.589623 66.6126 0.353774C67.2543 0.176887 68.446 0.0294811 69.9738 0H72.1128L70.0349 1.94575C69.9738 1.94575 69.2405 1.94575 69.1488 1.94575C66.0932 1.94575 66.3071 3.83255 66.3071 5.48349H71.6544L69.4849 7.60613H66.3071V17.6297H63.9848V7.60613H61.7236V5.48349Z" fill="#E30613"/>
<path d="M59.4321 1.68164V3.95169H61.7238V1.68164H59.4321Z" fill="#E30613"/>
<path d="M64.5657 21.9639C64.7491 21.6691 65.1768 21.5217 65.8491 21.4922C66.1852 21.4922 66.4602 21.5217 66.6741 21.6101C66.888 21.6986 67.0408 21.8165 67.1019 21.9639C67.3158 21.6691 67.7741 21.5217 68.4769 21.4922C68.7519 21.4922 68.9964 21.5217 69.1797 21.5511C69.363 21.6101 69.5158 21.6691 69.6075 21.7575C69.6992 21.846 69.7603 21.9344 69.8214 22.0523C69.8519 22.1703 69.8825 22.2882 69.8825 22.4356V24.2634H69.2714V22.4945C69.2714 22.3177 69.2408 22.1703 69.2103 22.0818C69.1491 21.9934 69.088 21.9049 68.9658 21.8754C68.8436 21.846 68.6602 21.8165 68.4464 21.8165C68.2019 21.8165 67.988 21.846 67.8352 21.8754C67.6519 21.9049 67.5297 21.9639 67.4074 22.0818C67.2852 22.1997 67.2547 22.3471 67.2547 22.5535V24.2929H66.613V22.4651C66.613 22.2882 66.5824 22.1703 66.5519 22.0818C66.5213 21.9934 66.4296 21.9344 66.3074 21.9049C66.1852 21.8754 66.0019 21.846 65.7269 21.846C65.3602 21.846 65.0852 21.9049 64.8713 22.0228C64.6574 22.1408 64.5657 22.3471 64.5657 22.6714V24.3224H63.9546V21.5217H64.5657V21.9639Z" fill="#0064B0"/>
<path d="M73.3048 21.5217C73.5493 21.5511 73.7326 21.6101 73.8548 21.728C74.0076 21.846 74.1298 21.9934 74.1604 22.1997C74.1909 22.4061 74.2215 22.642 74.2215 22.9368C74.2215 23.2316 74.1909 23.4674 74.1604 23.6443C74.1298 23.8212 74.0076 23.9981 73.8243 24.116C73.6715 24.2045 73.4881 24.2634 73.2437 24.2634C72.9992 24.2929 72.7242 24.2929 72.3881 24.2929C72.052 24.2929 71.7464 24.2634 71.5325 24.2339C71.2881 24.2044 71.1353 24.116 70.9825 23.9686C70.7992 23.7917 70.7075 23.4674 70.7075 22.9957C70.7075 22.7009 70.7381 22.4356 70.7381 22.2587C70.7686 22.0818 70.8297 21.9049 70.9825 21.787C71.1048 21.6691 71.2881 21.5806 71.502 21.5511C71.7159 21.5217 71.9909 21.4922 72.327 21.4922C72.7548 21.4922 73.0604 21.5217 73.3048 21.5217ZM72.2964 21.8165C71.9298 21.8165 71.6853 21.8754 71.5631 21.9639C71.4714 22.0228 71.4103 22.1113 71.4103 22.2292C71.3798 22.3471 71.3798 22.524 71.3492 22.7304C71.3492 22.7599 71.3492 22.7894 71.3492 22.8483C71.3492 22.9073 71.3492 22.9662 71.3492 22.9957C71.3492 23.2021 71.3798 23.3495 71.3798 23.4674C71.4103 23.5853 71.4409 23.6738 71.502 23.7328C71.5937 23.8212 71.7159 23.8802 71.8687 23.9096C72.0214 23.9391 72.2353 23.9391 72.4798 23.9391C72.6937 23.9391 72.877 23.9391 73.0298 23.9096C73.1826 23.8802 73.3048 23.8507 73.3659 23.7917C73.4881 23.6738 73.5798 23.4379 73.5798 23.0547V22.8483C73.5798 22.6125 73.5798 22.4356 73.5493 22.2882C73.5187 22.1408 73.4576 22.0228 73.3965 21.9639C73.3048 21.9049 73.1826 21.846 73.0298 21.8165C72.877 21.787 72.6631 21.787 72.4492 21.787H72.2964V21.8165Z" fill="#0064B0"/>
<path d="M72.8157 24.5566V24.9989H72.2046V24.5566H72.8157Z" fill="#0064B0"/>
<path d="M75.6878 20.6074V21.0791H75.0767V20.6074H75.6878ZM75.6878 21.5213V24.2926H75.0767V21.5213H75.6878Z" fill="#0064B0"/>
<path d="M78.8047 20.3418V24.2923H78.2241V20.3418H78.8047Z" fill="#0064B0"/>
<path d="M82.4406 23.9389C82.3489 24.0863 82.1656 24.2043 81.9517 24.2632C81.7378 24.3222 81.4628 24.3517 81.1573 24.3517C80.6989 24.3517 80.3322 24.2632 80.1183 24.1158C79.9045 23.9684 79.7822 23.7326 79.7822 23.4083V21.5215H80.3934V23.3493C80.3934 23.4967 80.3934 23.6146 80.4239 23.7031C80.4545 23.762 80.485 23.821 80.5461 23.88C80.6684 23.9684 80.9128 24.0274 81.2795 23.9979C81.4323 23.9979 81.5545 23.9979 81.6767 23.9684C81.7684 23.9684 81.8906 23.9389 81.9823 23.9095C82.0739 23.88 82.1656 23.8505 82.2573 23.7915C82.3795 23.7031 82.4712 23.4967 82.4712 23.2314V21.5215H83.0823V24.2927H82.4712L82.4406 23.9389Z" fill="#0064B0"/>
<path d="M81.7686 20.4297L82.1352 20.5181L81.463 21.432L81.188 21.3436L81.7686 20.4297Z" fill="#0064B0"/>
<path d="M86.688 22.3749C86.688 22.2864 86.6575 22.198 86.6575 22.139C86.6269 22.0506 86.5964 21.9916 86.5047 21.9621C86.3825 21.9032 86.1075 21.8442 85.7102 21.8442H85.5575C85.3436 21.8442 85.1908 21.8442 85.0686 21.8737C84.9463 21.9032 84.8547 21.9326 84.763 22.0211C84.6713 22.08 84.6408 22.1685 84.6102 22.2569C84.5797 22.3749 84.5491 22.4928 84.5491 22.6697C84.5491 22.7286 84.5491 22.7876 84.5491 22.876C84.5491 23.0234 84.5491 23.1119 84.5491 23.2003C84.5491 23.3772 84.5797 23.4951 84.6102 23.6131C84.6408 23.7015 84.7019 23.7899 84.7936 23.8489C84.9463 23.9374 85.2519 23.9963 85.7102 23.9963C85.9853 23.9963 86.1686 23.9963 86.2908 23.9668C86.413 23.9374 86.5047 23.9079 86.5964 23.8784C86.7186 23.8194 86.7492 23.6425 86.7492 23.4067V23.2888H87.3297V23.4067C87.3297 23.731 87.2381 23.9374 86.9936 24.0848C86.7492 24.2322 86.2908 24.3206 85.6186 24.3206C85.3741 24.3206 85.1908 24.3206 85.038 24.2911C84.8852 24.2911 84.763 24.2616 84.6408 24.2027C84.5186 24.1732 84.3963 24.1142 84.3047 24.0553C84.1519 23.9374 84.0297 23.8194 83.9991 23.672C83.9685 23.5246 83.938 23.2888 83.938 22.935C83.938 22.6991 83.938 22.5223 83.9685 22.3749C83.9685 22.2274 83.9991 22.1095 84.0602 22.0211C84.0908 21.9326 84.1824 21.8442 84.2741 21.7852C84.3963 21.6968 84.5186 21.6083 84.6713 21.5789C84.8241 21.5494 85.0075 21.5199 85.1602 21.4904C85.313 21.4904 85.4964 21.4609 85.7408 21.4609C86.0158 21.4609 86.2297 21.4904 86.4436 21.5199C86.6575 21.5494 86.8103 21.5789 86.9019 21.6378C87.0547 21.7263 87.1769 21.8147 87.2075 21.9621C87.2686 22.08 87.2686 22.2274 87.2686 22.4043H86.6575V22.3749H86.688Z" fill="#0064B0"/>
<path d="M91.1189 23.0534H89.1938V22.6406H91.1189V23.0534Z" fill="#0064B0"/>
<path d="M93.7468 21.9639C93.9301 21.6691 94.3579 21.5217 95.0302 21.4922C95.3663 21.4922 95.6413 21.5217 95.8552 21.6101C96.0691 21.6986 96.2218 21.8165 96.283 21.9639C96.4969 21.6691 96.9552 21.5217 97.658 21.4922C97.933 21.4922 98.1774 21.5217 98.3608 21.5511C98.5441 21.6101 98.6969 21.6691 98.7886 21.7575C98.8802 21.846 98.9414 21.9344 99.0025 22.0523C99.033 22.1703 99.0636 22.2882 99.0636 22.4356V24.2634H98.4525V22.4945C98.4525 22.3177 98.4219 22.1703 98.3913 22.0818C98.3302 21.9934 98.2691 21.9049 98.1469 21.8754C98.0247 21.846 97.8413 21.8165 97.6274 21.8165C97.383 21.8165 97.1691 21.846 97.0163 21.8754C96.833 21.9049 96.7107 21.9639 96.5885 22.0818C96.4663 22.1997 96.4357 22.3471 96.4357 22.5535V24.2929H95.8552V22.4651C95.8552 22.2882 95.8246 22.1703 95.7941 22.0818C95.7635 21.9934 95.6718 21.9344 95.5496 21.9049C95.4274 21.8754 95.244 21.846 94.969 21.846C94.6024 21.846 94.3274 21.9049 94.1135 22.0228C93.8996 22.1408 93.8079 22.3471 93.8079 22.6714V24.3224H93.1968V21.5217H93.8079L93.7468 21.9639Z" fill="#0064B0"/>
<path d="M102.455 21.5217C102.7 21.5511 102.883 21.6101 103.005 21.728C103.158 21.846 103.28 21.9934 103.311 22.1997C103.341 22.4061 103.372 22.642 103.372 22.9368C103.372 23.2316 103.341 23.4674 103.311 23.6443C103.28 23.8212 103.158 23.9981 102.975 24.116C102.822 24.2045 102.639 24.2634 102.394 24.2634C102.15 24.2929 101.875 24.2929 101.539 24.2929C101.202 24.2929 100.897 24.2634 100.683 24.2339C100.438 24.2044 100.286 24.116 100.133 23.9686C99.9496 23.7917 99.8579 23.4674 99.8579 22.9957C99.8579 22.7009 99.8885 22.4356 99.8885 22.2587C99.919 22.0818 99.9801 21.9049 100.133 21.787C100.255 21.6691 100.438 21.5806 100.652 21.5511C100.866 21.5217 101.141 21.4922 101.477 21.4922C101.905 21.4922 102.241 21.5217 102.455 21.5217ZM101.447 21.8165C101.08 21.8165 100.836 21.8754 100.713 21.9639C100.622 22.0228 100.561 22.1113 100.561 22.2292C100.53 22.3471 100.53 22.524 100.5 22.7304C100.5 22.7599 100.5 22.7894 100.5 22.8483C100.5 22.9073 100.5 22.9662 100.5 22.9957C100.5 23.2021 100.53 23.3495 100.53 23.4674C100.561 23.5853 100.591 23.6738 100.652 23.7328C100.744 23.8212 100.866 23.8802 101.019 23.9096C101.172 23.9391 101.386 23.9391 101.63 23.9391C101.844 23.9391 102.027 23.9391 102.18 23.9096C102.333 23.8802 102.455 23.8507 102.516 23.7917C102.639 23.6738 102.73 23.4379 102.73 23.0547V22.8483C102.73 22.6125 102.73 22.4356 102.7 22.2882C102.669 22.1408 102.608 22.0228 102.547 21.9639C102.455 21.9049 102.333 21.846 102.18 21.8165C102.027 21.787 101.814 21.787 101.6 21.787H101.447V21.8165Z" fill="#0064B0"/>
<path d="M101.966 24.5566V24.9989H101.355V24.5566H101.966Z" fill="#0064B0"/>
<path d="M104.869 20.6074V21.0791H104.258V20.6074H104.869ZM104.869 21.5213V24.2926H104.258V21.5213H104.869Z" fill="#0064B0"/>
<path d="M107.986 21.8754C108.047 21.787 108.139 21.6986 108.261 21.6396C108.383 21.5806 108.506 21.5511 108.658 21.5217C108.811 21.4922 108.964 21.4922 109.147 21.4922C109.544 21.4922 109.85 21.5217 110.064 21.5806C110.278 21.6396 110.461 21.7575 110.553 21.8754C110.644 21.9934 110.706 22.1703 110.706 22.4061V24.2929H110.125V22.4061C110.125 22.2292 110.094 22.1113 110.033 22.0523C109.972 21.9639 109.881 21.9049 109.728 21.8754C109.606 21.846 109.392 21.8165 109.178 21.8165C108.933 21.8165 108.75 21.8165 108.628 21.846C108.475 21.8754 108.353 21.9049 108.261 21.9934C108.078 22.1113 108.017 22.3177 108.017 22.642V24.2929H107.436V21.5217H108.017L107.986 21.8754Z" fill="#0064B0"/>
<path d="M113.272 21.4922C113.639 21.4922 113.975 21.5217 114.189 21.5217C114.433 21.5511 114.617 21.6101 114.739 21.728C114.892 21.846 115.014 21.9934 115.044 22.1997C115.35 22.1997 115.289 21.787 115.289 21.6986H115.747C115.686 22.3177 115.381 22.4945 115.075 22.4945C115.075 22.642 115.075 22.7599 115.075 22.9368C115.075 23.2316 115.044 23.4674 115.014 23.6443C114.983 23.8212 114.861 23.9981 114.678 24.116C114.525 24.2045 114.342 24.2634 114.097 24.2634C113.853 24.2929 113.578 24.2929 113.242 24.2929C112.906 24.2929 112.6 24.2634 112.386 24.2339C112.142 24.2044 111.989 24.116 111.836 23.9686C111.653 23.7917 111.561 23.4674 111.561 22.9957C111.561 22.7009 111.561 22.4356 111.592 22.2587C111.622 22.0818 111.683 21.9049 111.836 21.787C111.958 21.6691 112.142 21.5806 112.356 21.5511C112.631 21.5217 112.906 21.4922 113.272 21.4922ZM113.15 21.8165C112.783 21.8165 112.539 21.8754 112.417 21.9639C112.325 22.0228 112.264 22.1113 112.264 22.2292C112.233 22.3471 112.233 22.524 112.203 22.7304C112.203 22.7599 112.203 22.7894 112.203 22.8483C112.203 22.9073 112.203 22.9662 112.203 22.9957C112.203 23.2021 112.233 23.3495 112.233 23.4674C112.264 23.5853 112.294 23.6738 112.356 23.7328C112.447 23.8212 112.569 23.8802 112.722 23.9096C112.875 23.9391 113.089 23.9391 113.333 23.9391C113.547 23.9391 113.731 23.9391 113.883 23.9096C114.036 23.8802 114.158 23.8507 114.219 23.7917C114.342 23.6738 114.433 23.4379 114.433 23.0547V22.8483C114.433 22.6125 114.433 22.4356 114.403 22.2882C114.372 22.1408 114.311 22.0228 114.25 21.9639C114.158 21.9049 114.036 21.846 113.883 21.8165C113.731 21.787 113.517 21.787 113.303 21.787H113.15V21.8165Z" fill="#0064B0"/>
<path d="M116.572 20.6074V21.0791H115.961V20.6074H116.572ZM116.572 21.5213V24.2926H115.961V21.5213H116.572Z" fill="#0064B0"/>
<path d="M41.7704 11.615C41.7704 13.0007 41.6177 14.1209 41.2815 14.9759C40.9454 15.8603 39.8148 17.8356 34.2841 17.8356C28.7535 17.8356 27.6229 15.8603 27.2868 14.9759C26.9506 14.1209 26.7979 13.0007 26.7979 11.615C26.7979 10.2294 26.9506 9.10915 27.2868 8.2542C27.6229 7.36977 28.7535 5.39453 34.2841 5.39453C39.8148 5.39453 40.9454 7.36977 41.2815 8.2542C41.6177 9.10915 41.7704 10.2294 41.7704 11.615ZM38.8981 8.96175C38.6842 8.46057 38.3176 8.13628 37.737 7.95939C37.1564 7.7825 36.1175 7.66458 34.2841 7.6351C32.4813 7.66458 31.4424 7.75302 30.8313 7.95939C30.2507 8.13628 29.884 8.46057 29.6701 8.96175C29.4868 9.345 29.3035 10.2884 29.3035 11.615C29.3035 12.9417 29.4868 13.8851 29.6701 14.2684C29.884 14.7695 30.2507 15.0938 30.8313 15.2707C31.4119 15.4476 32.4508 15.5655 34.2841 15.595C36.087 15.5655 37.1259 15.4771 37.737 15.2707C38.3176 15.0938 38.6842 14.7695 38.8981 14.2684C39.0815 13.8851 39.2648 12.9417 39.2648 11.615C39.2648 10.2884 39.0509 9.345 38.8981 8.96175Z" fill="#0064B0"/>
<path d="M85.1908 11.615C85.1908 13.0007 85.0381 14.1209 84.7019 14.9759C84.3658 15.8603 83.2352 17.8356 77.7046 17.8356C72.1739 17.8356 71.0433 15.8603 70.7072 14.9759C70.371 14.1209 70.2183 13.0007 70.2183 11.615C70.2183 10.2294 70.371 9.10915 70.7072 8.2542C71.0433 7.36977 72.1739 5.39453 77.7046 5.39453C83.2352 5.39453 84.3658 7.36977 84.7019 8.2542C85.0381 9.10915 85.1908 10.2294 85.1908 11.615ZM82.288 8.96175C82.0741 8.46057 81.7074 8.13628 81.1269 7.95939C80.5463 7.7825 79.5074 7.66458 77.674 7.6351C75.8712 7.66458 74.8323 7.75302 74.2211 7.95939C73.6406 8.13628 73.2739 8.46057 73.06 8.96175C72.8767 9.345 72.6933 10.2884 72.6933 11.615C72.6933 12.9417 72.8767 13.8851 73.06 14.2684C73.2739 14.7695 73.6406 15.0938 74.2211 15.2707C74.8017 15.4476 75.8406 15.5655 77.674 15.595C79.4768 15.5655 80.5157 15.4771 81.1269 15.2707C81.7074 15.0938 82.0741 14.7695 82.288 14.2684C82.4713 13.8851 82.6547 12.9417 82.6547 11.615C82.6547 10.2884 82.4713 9.345 82.288 8.96175Z" fill="#E30613"/>
<path d="M24.9645 8.52075C24.8117 7.93112 24.5673 7.42995 24.17 6.98773C23.62 6.39811 22.9478 6.01485 22.0616 5.80848C21.2672 5.60212 20.106 5.51367 18.456 5.51367C16.6837 5.51367 15.4615 5.66108 14.6365 5.95589C13.9642 6.19174 13.4142 6.63395 12.9864 7.22358C12.4975 6.60447 11.917 6.16226 11.153 5.92641C10.2975 5.66108 8.7391 5.51367 6.75294 5.51367C5.25568 5.51367 4.24732 5.60211 3.6362 5.83796C3.17785 6.01485 2.71951 6.28018 2.29172 6.69292C2.29172 6.33914 2.29172 6.10329 2.29172 6.10329H0V17.6599H2.29172V10.3191C2.29172 8.40282 4.30844 7.63631 6.35571 7.63631H7.36406C9.41133 7.63631 11.4281 8.40282 11.4281 10.3191V17.6599H13.7198V10.3191C13.7198 8.40282 15.7059 7.63631 17.7532 7.63631H18.7616C20.8088 7.63631 22.8561 8.40282 22.8561 10.3191V17.6599H25.1478V11.3509C25.1478 9.90636 25.0867 9.05141 24.9645 8.52075Z" fill="#0064B0"/>
<path d="M115.808 12.4407H116.969C117 12.1754 117 11.8806 117 11.5858C117 10.2001 116.847 9.07986 116.511 8.2249C116.175 7.34047 115.044 5.36523 109.514 5.36523C103.983 5.36523 102.852 7.34047 102.516 8.2249C102.18 9.07986 102.027 10.2001 102.027 11.5858C102.027 12.9714 102.18 14.0916 102.516 14.9466C102.852 15.831 103.983 17.8063 109.514 17.8063C115.044 17.8063 116.175 15.831 116.511 14.9466C116.542 14.8582 116.572 14.7992 116.603 14.7108H113.853C113.639 14.9761 113.364 15.153 112.966 15.2709C112.386 15.4478 111.347 15.5657 109.514 15.5952C107.711 15.5657 106.641 15.4773 106.061 15.2709C105.48 15.094 105.114 14.7697 104.9 14.2685C104.777 13.9737 104.625 13.3546 104.564 12.4702L115.808 12.4407ZM106.061 7.93009C106.641 7.75321 107.68 7.63528 109.514 7.6058C111.316 7.63528 112.355 7.72372 112.966 7.93009C113.547 8.10698 113.914 8.43127 114.128 8.93245C114.25 9.1683 114.372 9.66948 114.433 10.3475H104.625C104.686 9.66948 104.808 9.1683 104.93 8.93245C105.144 8.46075 105.511 8.13646 106.061 7.93009Z" fill="#E30613"/>
<path d="M59.4321 5.48438V17.6601H61.7238V5.48438H59.4321Z" fill="#0064B0"/>
<path d="M57.3235 8.25472C56.9874 7.37028 55.8568 5.39505 50.3261 5.39505C48.2177 5.39505 46.751 5.68986 45.7121 6.10259V0H43.4204V17.6887H45.7121V17.1285C46.751 17.5413 48.2177 17.8361 50.3261 17.8361C55.8568 17.8361 56.9874 15.8608 57.3235 14.9764C57.6596 14.1215 57.8124 13.0012 57.8124 11.6156C57.843 10.23 57.6596 9.10967 57.3235 8.25472ZM54.9401 14.2689C54.7262 14.77 54.3596 15.0943 53.779 15.2712C53.1984 15.4481 52.1595 15.566 50.3261 15.5955C48.5233 15.566 47.79 15.4776 47.2094 15.2712C46.6288 15.0943 46.2621 14.77 46.0482 14.2689C45.926 13.9741 45.7732 13.3255 45.7121 12.4116V10.8491C45.7732 9.93514 45.926 9.28656 46.0482 8.99174C46.2621 8.49056 46.6288 8.16627 47.2094 7.98939C47.79 7.8125 48.5233 7.69457 50.3261 7.66509C52.1289 7.69457 53.1679 7.78302 53.779 7.98939C54.3596 8.16627 54.7262 8.49056 54.9401 8.99174C55.1235 9.375 55.3068 10.3184 55.3068 11.645C55.3068 12.9422 55.0929 13.8856 54.9401 14.2689Z" fill="#0064B0"/>
</g>
<defs>
<clipPath id="clip0">
<rect width="117" height="25" fill="white"/>
</clipPath>
</defs>
</svg>
