<svg width="78" height="16" viewBox="0 0 78 16" fill="none" xmlns="http://www.w3.org/2000/svg">
<path d="M16.6173 0.554688C16.6173 0.554688 15.8476 0.609904 15.8467 1.32287L15.8435 3.71457C15.8435 3.71457 16.4457 2.90224 17.2931 2.90224H18.3018C18.3018 2.90224 19.1268 2.85264 19.1268 2.16093V1.30649C19.1268 1.30649 19.1267 0.554686 18.2838 0.554688H16.6173ZM38.2404 1.10529C37.3236 1.10529 37.3237 1.93875 37.3237 1.93875V3.83322H35.2948V5.10618C35.2948 5.10618 35.2947 5.92454 36.2114 5.92454H37.3237V12.2745C37.3839 14.356 39.5628 15.5638 41.4263 15.5638H43.9061C44.5824 15.5638 44.6877 14.6233 44.6877 14.6233V13.411C43.4554 13.6535 42.4483 13.3959 42.4483 13.3959C40.5397 12.8352 40.5998 11.3804 40.5998 11.3804V5.92454H47.0621V12.2745C47.1223 14.356 49.3015 15.5638 51.165 15.5638H53.6445C54.3208 15.5638 54.4261 14.6233 54.4261 14.6233V13.411C53.1938 13.6535 52.187 13.3959 52.187 13.3959C50.2783 12.8352 50.3385 11.3804 50.3385 11.3804V5.92454H53.4808C54.3987 5.92454 54.3809 5.17402 54.3809 5.17402V3.83322H50.3385V2.02987C50.3385 1.15734 49.5569 1.10529 49.5569 1.10529H47.9788C47.062 1.10529 47.0621 1.93875 47.0621 1.93875V3.83322H40.5998V2.02987C40.5998 1.15734 39.8185 1.10529 39.8185 1.10529H38.2404ZM71.5526 1.10529C70.6358 1.10529 70.636 1.93875 70.636 1.93875V12.2745C70.6961 14.356 72.875 15.5638 74.7386 15.5638H77.2183C77.8946 15.5638 77.9999 14.6233 77.9999 14.6233V13.411C76.7676 13.6535 75.7605 13.3959 75.7605 13.3959C73.8519 12.8352 73.912 11.3804 73.912 11.3804V2.02987C73.912 1.15734 73.1307 1.10529 73.1307 1.10529H71.5526ZM27.2112 3.75028C26.6709 3.7516 24.4011 3.81973 22.6603 4.82845C21.5174 5.49074 20.7873 6.59833 20.755 8.91561C20.755 8.91561 20.7622 12.3503 21.2431 13.1686C21.2431 13.1686 21.8074 14.3363 23.0687 15.0411C23.6139 15.3457 24.7099 15.5638 25.5262 15.5638H33.5364C33.5364 15.5638 34.318 15.4873 34.318 14.5174V13.4566H26.3527C26.3527 13.4566 24.2188 13.3959 24.1737 10.956C24.1713 10.8281 24.171 10.7253 24.1694 10.6073H33.1907C33.1907 10.6073 34.7688 10.4862 34.7688 8.42516C34.7688 8.42516 35.0243 6.30332 33.3862 4.98485C31.748 3.66638 29.1192 3.79075 27.3302 3.75131C27.3302 3.75131 27.2884 3.75013 27.2112 3.75026L27.2112 3.75028ZM61.4466 3.75028C60.9064 3.75146 58.6365 3.81973 56.8957 4.82845C55.7528 5.49074 55.0228 6.59833 54.9904 8.91561C54.9904 8.91561 54.9976 12.3503 55.4785 13.1686C55.4785 13.1686 56.0428 14.3363 57.3042 15.0411C57.8493 15.3457 58.9453 15.5638 59.7616 15.5638H67.7719C67.7719 15.5638 68.5534 15.4873 68.5534 14.5174V13.4566H60.5881C60.5881 13.4566 58.4542 13.3959 58.4091 10.956C58.4068 10.8281 58.4061 10.7253 58.4046 10.6073H67.4261C67.4261 10.6073 69.0043 10.4862 69.0043 8.42516C69.0043 8.42516 69.2597 6.30332 67.6216 4.98485C65.9835 3.66638 63.3546 3.79075 61.5657 3.75131C61.5657 3.75131 61.5238 3.75013 61.4466 3.75026L61.4466 3.75028ZM0.0429688 3.87443L5.63384 14.7557C5.63384 14.7557 5.93206 15.6767 7.59071 15.6767H8.18699C8.18699 15.6767 9.41701 15.7329 10.0134 14.6617C10.6097 13.5905 15.6045 3.87443 15.6045 3.87443H13.0511C13.0511 3.87443 12.0821 4.02484 11.4671 5.30277C10.8521 6.5807 8.01945 12.6508 8.01945 12.6508C8.01945 12.6508 7.79575 12.9891 7.62803 12.6508C7.4603 12.3125 3.93792 4.90806 3.93792 4.90806C3.93792 4.90806 3.3043 3.87443 2.59611 3.87443H0.0429688ZM16.6481 3.87443C16.6481 3.87443 15.8467 3.87456 15.8467 4.79543V14.7746C15.8467 14.7746 15.9025 15.5638 16.7039 15.5638H18.493C18.493 15.5638 19.1268 15.5264 19.1268 14.5491V4.68255C19.1268 4.68255 18.9961 3.87443 18.3625 3.87443H16.6481ZM27.7498 5.83034C28.6863 5.83072 30.0742 5.96826 30.8163 6.69758C30.8163 6.69758 31.3724 7.1521 31.3724 7.84922C31.3724 8.56149 30.9216 8.5616 30.7863 8.56159H25.7516C25.7516 8.56159 24.9339 8.4902 24.1679 9.22483C24.1836 8.22082 24.2339 7.90988 24.2339 7.90988C24.2339 7.90988 24.2187 6.15176 26.7885 5.87897C26.7885 5.87897 27.1879 5.83007 27.7498 5.83034ZM61.9853 5.83034C62.9218 5.83072 64.3097 5.96826 65.0517 6.69758C65.0517 6.69758 65.6079 7.1521 65.6079 7.84922C65.6079 8.56149 65.157 8.5616 65.0217 8.56159H59.987C59.987 8.56159 59.1693 8.4902 58.4033 9.22483C58.419 8.22082 58.4693 7.90988 58.4693 7.90988C58.4693 7.90988 58.4541 6.15176 61.024 5.87897C61.024 5.87897 61.4234 5.83008 61.9853 5.83034Z" fill="#ADADAD"/>
</svg>
