<svg width="118" height="36" viewBox="0 0 118 36" fill="none" xmlns="http://www.w3.org/2000/svg">
<path fill-rule="evenodd" clip-rule="evenodd" d="M16.0625 33.855L17.1984 28.4158H17.8739L17.1677 31.7903L19.1173 29.9258H19.9923L18.319 31.3896L19.3322 33.855H18.5954L17.8125 31.8365L16.9989 32.5453L16.7226 33.855H16.0625ZM19.8388 33.855H20.5142L20.8672 32.1601C20.9747 31.667 21.0822 31.3126 21.205 31.0815C21.3278 30.8657 21.4966 30.6963 21.7115 30.5576C21.9264 30.4189 22.1567 30.3573 22.4023 30.3573C22.74 30.3573 22.9242 30.4959 22.9242 30.7887C22.9242 30.8812 22.8935 31.0969 22.8168 31.4359L22.3256 33.8242H22.9856L23.4615 31.4975C23.5383 31.1123 23.5843 30.8657 23.5843 30.7271C23.5843 30.4189 23.4922 30.1878 23.2926 30.0337C23.1084 29.8796 22.8628 29.8026 22.5558 29.8026C22.1106 29.8026 21.6655 30.0337 21.205 30.4805L21.6348 28.4004H20.9593L19.8388 33.855ZM24.1676 32.3604C24.1676 31.5899 24.3979 30.9582 24.8431 30.4497C25.2115 30.0337 25.7027 29.8334 26.3014 29.8334C26.7926 29.8334 27.1764 29.9875 27.4527 30.2956C27.729 30.6038 27.8671 30.989 27.8671 31.4821C27.8671 31.9289 27.7904 32.3296 27.6215 32.6994C27.4373 33.1154 27.1764 33.4236 26.8233 33.6393C26.4856 33.855 26.1325 33.9474 25.7487 33.9474C25.0887 33.9474 24.6128 33.7009 24.3518 33.1924C24.229 32.9459 24.1676 32.6685 24.1676 32.3604ZM24.8277 32.2833C24.8277 32.6069 24.9045 32.8689 25.058 33.0692C25.2268 33.3003 25.4571 33.4082 25.7794 33.4082C26.0865 33.4082 26.3628 33.2849 26.593 33.0538C26.8233 32.8226 26.9921 32.5299 27.0996 32.1601C27.1764 31.9135 27.2224 31.6824 27.2224 31.4513C27.2224 31.1431 27.1457 30.8657 26.9921 30.6654C26.8233 30.4343 26.593 30.3265 26.286 30.3265C25.8716 30.3265 25.5338 30.5268 25.2422 30.912C24.9659 31.3126 24.8277 31.7594 24.8277 32.2833ZM25.3803 29.4328L26.3628 28.4158H27.0996L27.5601 29.4328H26.9614L26.6544 28.7702L26.0404 29.4328H25.3803ZM28.2509 33.855L29.0645 29.9258H29.6632L29.525 30.6192C30.0316 30.0953 30.5074 29.8488 30.968 29.8488C31.275 29.8488 31.5206 29.9258 31.7048 30.0953C31.9043 30.2648 31.9965 30.4959 31.9965 30.8041C31.9965 30.9582 31.9658 31.1893 31.9043 31.4975L31.3978 33.8858H30.7224L31.2443 31.3896C31.2903 31.1431 31.321 30.9582 31.321 30.8503C31.321 30.5576 31.1522 30.4035 30.7991 30.4035C30.0316 30.4035 29.525 30.9582 29.2947 32.0522L28.911 33.8858L28.2509 33.855ZM32.4263 34.2094L33.1017 34.271C33.1017 34.533 33.1785 34.7179 33.3627 34.7949C33.4855 34.8565 33.639 34.872 33.8232 34.872C34.2223 34.872 34.514 34.7641 34.6982 34.5638C34.821 34.4251 34.9284 34.1169 35.0205 33.6393L35.0819 33.3157C34.7289 33.6701 34.3604 33.8396 33.9767 33.8396C33.5162 33.8396 33.1785 33.6701 32.9175 33.3311C32.6872 33.0229 32.5798 32.6377 32.5798 32.1601C32.5798 31.7594 32.6719 31.3742 32.8714 31.0044C33.071 30.6192 33.332 30.311 33.6543 30.0953C33.946 29.9104 34.2376 29.818 34.56 29.818C35.0819 29.818 35.4657 30.0645 35.7574 30.5576L35.8955 29.9104H36.5095L35.7267 33.7163C35.6499 34.0861 35.5578 34.3789 35.435 34.5946C35.2815 34.8874 35.0666 35.0877 34.7903 35.2418C34.5447 35.365 34.253 35.4421 33.9306 35.4421C33.2706 35.4421 32.8407 35.288 32.6105 34.9644C32.503 34.8103 32.4416 34.6254 32.4416 34.4251C32.3956 34.3481 32.4109 34.2864 32.4263 34.2094ZM33.2552 32.1138C33.2552 32.3912 33.2859 32.5915 33.332 32.7148C33.4855 33.1 33.7311 33.3003 34.0995 33.3003C34.3605 33.3003 34.6061 33.2078 34.821 33.0075C35.0052 32.838 35.1587 32.6223 35.2815 32.345C35.4196 32.0214 35.481 31.7132 35.481 31.4205C35.481 31.1277 35.4043 30.8812 35.2354 30.6808C35.0666 30.4651 34.8363 30.3573 34.5447 30.3573C34.2069 30.3573 33.8999 30.5268 33.639 30.8812C33.5315 31.0352 33.4394 31.2201 33.3627 31.4667C33.3013 31.7132 33.2552 31.9289 33.2552 32.1138ZM38.7661 33.855L39.5797 29.9258H40.1783L40.0402 30.6192C40.5468 30.0953 41.0226 29.8488 41.4831 29.8488C41.7902 29.8488 42.0358 29.9258 42.22 30.0953C42.4195 30.2648 42.5116 30.4959 42.5116 30.8041C42.5116 30.9582 42.4809 31.1893 42.4195 31.4975L41.913 33.8858H41.2375L41.7595 31.3896C41.8055 31.1431 41.8362 30.9582 41.8362 30.8503C41.8362 30.5576 41.6673 30.4035 41.3143 30.4035C40.5468 30.4035 40.0402 30.9582 39.8099 32.0522L39.4262 33.8858L38.7661 33.855ZM42.9261 34.2094L43.6015 34.271C43.6015 34.533 43.6783 34.7179 43.8625 34.7949C43.9853 34.8565 44.1388 34.872 44.323 34.872C44.7221 34.872 45.0138 34.7641 45.198 34.5638C45.3208 34.4251 45.4283 34.1169 45.5204 33.6393L45.5818 33.3157C45.2287 33.6701 44.8603 33.8396 44.4765 33.8396C44.016 33.8396 43.6783 33.6701 43.4173 33.3311C43.1871 33.0229 43.0796 32.6377 43.0796 32.1601C43.0796 31.7594 43.1717 31.3742 43.3713 31.0044C43.5708 30.6192 43.8318 30.311 44.1542 30.0953C44.4458 29.9104 44.7375 29.818 45.0598 29.818C45.5664 29.818 45.9655 30.0645 46.2572 30.5576L46.38 29.9104H46.994L46.2111 33.7163C46.1344 34.0861 46.0423 34.3789 45.9195 34.5946C45.766 34.8874 45.5511 35.0877 45.2747 35.2418C45.0291 35.365 44.7375 35.4421 44.3998 35.4421C43.7397 35.4421 43.3099 35.288 43.0796 34.9644C42.9722 34.8103 42.9107 34.6254 42.9107 34.4251C42.9107 34.3481 42.9261 34.2864 42.9261 34.2094ZM43.7704 32.1138C43.7704 32.3912 43.8011 32.5915 43.8471 32.7148C44.0006 33.1 44.2463 33.3003 44.6147 33.3003C44.8756 33.3003 45.1212 33.2078 45.3362 33.0075C45.5204 32.838 45.6739 32.6223 45.7967 32.345C45.9348 32.0214 45.9962 31.7132 45.9962 31.4205C45.9962 31.1277 45.9195 30.8812 45.7506 30.6808C45.5818 30.4651 45.3515 30.3573 45.0598 30.3573C44.7221 30.3573 44.4151 30.5268 44.1542 30.8812C44.0467 31.0352 43.9546 31.2201 43.8778 31.4667C43.8164 31.7132 43.7704 31.9289 43.7704 32.1138ZM49.8492 33.1462C49.3734 33.6855 48.8975 33.9474 48.4063 33.9474C48.13 33.9474 47.8844 33.8704 47.7001 33.7163C47.5006 33.5468 47.3931 33.3311 47.3931 33.0538C47.3931 32.8843 47.4392 32.6069 47.5159 32.2063L47.9918 29.9258H48.6519L48.13 32.4374C48.0839 32.6531 48.0686 32.8072 48.0686 32.9305C48.0686 33.2387 48.2528 33.3927 48.6058 33.3927C48.9896 33.3927 49.3273 33.2232 49.619 32.8843C49.7418 32.7302 49.8492 32.5453 49.926 32.3296C49.9874 32.1755 50.0488 31.9443 50.1102 31.6208L50.4633 29.9258H51.1387L51.0619 30.2802C51.1847 30.1878 51.2615 30.0337 51.3075 29.8026H51.0312L51.1387 29.2787H51.6606L51.5685 29.7409C51.4764 30.1724 51.2922 30.4343 51.0159 30.5268L50.3251 33.8704H49.7111L49.8492 33.1462ZM49.3734 29.4328H49.8953L49.4655 28.4158H48.6519L49.3734 29.4328ZM51.3843 33.855H52.0444L52.4281 32.0214C52.6584 30.9274 53.1496 30.3727 53.9325 30.3727C54.2856 30.3727 54.4544 30.5268 54.4544 30.8195C54.4544 30.9274 54.4237 31.1123 54.3777 31.3588L53.8558 33.855H54.5312L55.0377 31.4667C55.0991 31.1585 55.1299 30.9274 55.1299 30.7733C55.1299 30.4651 55.0378 30.234 54.8382 30.0645C54.654 29.895 54.4084 29.818 54.1014 29.818C53.6408 29.818 53.165 30.0799 52.6584 30.5884L52.7966 29.895H52.1979L51.3843 33.855ZM55.5597 34.2094L56.2351 34.271C56.2351 34.533 56.3118 34.7179 56.4961 34.7949C56.6189 34.8565 56.7724 34.872 56.9566 34.872C57.3557 34.872 57.6474 34.7641 57.8316 34.5638C57.9544 34.4251 58.0618 34.1169 58.1539 33.6393L58.2153 33.3157C57.8623 33.6701 57.4938 33.8396 57.1101 33.8396C56.6496 33.8396 56.3119 33.6701 56.0509 33.3311C55.8206 33.0229 55.7132 32.6377 55.7132 32.1601C55.7132 31.7594 55.8053 31.3742 56.0048 31.0044C56.2044 30.6192 56.4654 30.311 56.7877 30.0953C57.0794 29.9104 57.371 29.818 57.6781 29.818C58.1846 29.818 58.5837 30.0645 58.8754 30.5576L58.9982 29.9104H59.6122L58.814 33.7163C58.7373 34.0861 58.6451 34.3789 58.5377 34.5946C58.3842 34.8874 58.1693 35.0877 57.893 35.2418C57.6474 35.365 57.3557 35.4421 57.018 35.4421C56.3579 35.4421 55.9281 35.288 55.6978 34.9644C55.5904 34.8103 55.529 34.6254 55.529 34.4251C55.529 34.3481 55.5443 34.2864 55.5597 34.2094ZM56.3886 32.1138C56.3886 32.3912 56.4193 32.5915 56.4654 32.7148C56.6189 33.1 56.8798 33.3003 57.2329 33.3003C57.4939 33.3003 57.7395 33.2078 57.9544 33.0075C58.1386 32.838 58.2921 32.6223 58.4149 32.345C58.553 32.0214 58.6144 31.7132 58.6144 31.4205C58.6144 31.1277 58.5377 30.8812 58.3688 30.6808C58.2 30.4651 57.9697 30.3573 57.6781 30.3573C57.3403 30.3573 57.0333 30.5268 56.7877 30.8812C56.6803 31.0352 56.5882 31.2201 56.5114 31.4667C56.4347 31.7132 56.3886 31.9289 56.3886 32.1138ZM62.8819 33.855L62.2372 29.9258H62.8973L63.235 32.0984C63.281 32.345 63.3117 32.7302 63.3731 33.2541C63.4959 32.9767 63.6648 32.6531 63.8644 32.2987L65.1692 29.9258H65.8753L63.6341 33.855H62.8819ZM68.3621 33.1462C67.8862 33.6855 67.4104 33.9474 66.9191 33.9474C66.6428 33.9474 66.3972 33.8704 66.213 33.7163C66.0135 33.5468 65.906 33.3311 65.906 33.0538C65.906 32.8843 65.952 32.6069 66.0288 32.2063L66.5047 29.9258H67.1647L66.6428 32.4374C66.5968 32.6531 66.5814 32.8072 66.5814 32.9305C66.5814 33.2387 66.7656 33.3927 67.1187 33.3927C67.5025 33.3927 67.8402 33.2232 68.1318 32.8843C68.2546 32.7302 68.3621 32.5453 68.4389 32.3296C68.5003 32.1755 68.5617 31.9443 68.6231 31.6208L68.9761 29.9258H69.6515L69.5748 30.2802C69.6976 30.1878 69.7744 30.0337 69.8204 29.8026H69.5441L69.6515 29.2787H70.1735L70.0814 29.7409C69.9893 30.1724 69.805 30.4343 69.5287 30.5268L68.838 33.8704H68.2239L68.3621 33.1462ZM70.6647 32.2833C70.6647 32.6069 70.7414 32.8689 70.895 33.0692C71.0638 33.3003 71.3094 33.4082 71.6164 33.4082C71.9234 33.4082 72.1844 33.2849 72.43 33.0538C72.6603 32.8226 72.8291 32.5299 72.9366 32.1601C73.0133 31.9135 73.0594 31.6824 73.0594 31.4513C73.0594 31.1277 72.9826 30.8657 72.8291 30.6654C72.6603 30.4343 72.43 30.3265 72.123 30.3265C71.7085 30.3265 71.3708 30.5268 71.0792 30.912C70.8028 31.3126 70.6647 31.7594 70.6647 32.2833ZM73.1361 29.7872H73.4278C73.3971 29.9721 73.3203 30.1261 73.2282 30.2186C72.9519 29.9566 72.5835 29.8334 72.1383 29.8334C71.5397 29.8334 71.0485 30.0491 70.68 30.4497C70.2349 30.9582 70.0046 31.5899 70.0046 32.3604C70.0046 32.6685 70.066 32.9459 70.2042 33.1924C70.4805 33.6855 70.941 33.9474 71.6164 33.9474C72.0002 33.9474 72.3533 33.8396 72.691 33.6393C73.0287 33.4236 73.2896 33.1154 73.4892 32.6994C73.6581 32.3296 73.7348 31.9289 73.7348 31.4821C73.7348 31.0352 73.612 30.6654 73.3817 30.3727C73.5353 30.234 73.6274 30.0183 73.6888 29.7255L73.7809 29.2633H73.2589L73.1361 29.7872ZM74.0879 33.855L74.9015 29.9258H75.5001L75.362 30.6192C75.8685 30.0953 76.3444 29.8488 76.8049 29.8488C77.112 29.8488 77.3576 29.9258 77.5418 30.0953C77.7413 30.2648 77.8334 30.4959 77.8334 30.8041C77.8334 30.9582 77.8027 31.1893 77.7413 31.4975L77.2348 33.8858H76.5593L77.0813 31.3896C77.1273 31.1431 77.158 30.9582 77.158 30.8503C77.158 30.5576 76.9891 30.4035 76.6361 30.4035C75.8686 30.4035 75.362 30.9582 75.1317 32.0522L74.748 33.8858L74.0879 33.855ZM80.136 33.855L81.84 31.8519L80.8575 29.9104H81.5943L81.932 30.6038C82.0549 30.8503 82.1623 31.0969 82.2698 31.3588L83.4057 29.9104H84.2193L82.5768 31.8981L83.5746 33.8396H82.8377L82.454 33.0383C82.3619 32.8689 82.2698 32.6531 82.1623 32.4066L80.9957 33.8396L80.136 33.855ZM86.8289 33.3619C86.3837 33.7471 85.9386 33.9474 85.4781 33.9474C85.125 33.9474 84.8333 33.8396 84.6184 33.6393C84.3881 33.4236 84.2653 33.1462 84.2653 32.8072C84.2653 32.3758 84.4496 32.0368 84.818 31.8057C84.9868 31.7132 85.1864 31.6362 85.4166 31.5899C85.5394 31.5591 85.8465 31.5437 86.307 31.5283C86.6907 31.5129 86.9824 31.4667 87.1666 31.3896C87.2127 31.2047 87.2434 31.0507 87.2434 30.9274C87.2434 30.5576 86.9671 30.3727 86.3991 30.3727C85.8465 30.3727 85.4934 30.6038 85.3245 31.0969L84.6491 31.0352C84.9408 30.234 85.5241 29.8334 86.4298 29.8334C86.921 29.8334 87.3048 29.9566 87.5811 30.1878C87.796 30.3573 87.9034 30.5884 87.9034 30.8657C87.9034 31.0815 87.8727 31.3126 87.8113 31.5899L87.5964 32.5761C87.5197 32.8843 87.489 33.1308 87.489 33.3311C87.489 33.4544 87.5197 33.6393 87.5657 33.8704H86.8903C86.8596 33.7163 86.8443 33.5622 86.8289 33.3619ZM87.0745 31.8519C86.921 31.9135 86.6293 31.9598 86.2302 32.006C85.9232 32.0368 85.7083 32.0676 85.5855 32.083C85.3245 32.1447 85.1403 32.2371 85.0329 32.3912C84.9561 32.5145 84.9101 32.6377 84.9101 32.7764C84.9101 32.9921 84.9868 33.1462 85.1403 33.2695C85.2785 33.3773 85.4473 33.4236 85.6623 33.4236C85.8925 33.4236 86.1074 33.3619 86.307 33.2387C86.5065 33.1154 86.66 32.9459 86.7829 32.7456C86.921 32.5453 87.0131 32.2371 87.0745 31.8519Z" fill="#0093DD"/>
<path fill-rule="evenodd" clip-rule="evenodd" d="M11.0894 14.2985L7.20572 24.6992H4.59611L0.712402 14.2985H3.30666L5.88556 21.371L8.46447 14.2985H11.0894ZM14.9271 13.035H12.3328V10.4002H14.9271V13.035ZM14.9271 24.6992H12.3328V14.2831H14.9271V24.6992ZM35.6351 24.7146H33.179C33.1022 24.3911 33.0255 24.1137 32.9334 23.7131C32.3193 24.3757 31.3523 24.7146 30.0014 24.7146C29.0804 24.7146 28.3128 24.4989 27.7142 24.0829C27.008 23.5898 26.6703 22.8656 26.6703 21.9257C26.6703 20.5698 27.2076 19.6298 28.2668 19.1214C28.758 18.8902 29.7558 18.6745 31.2602 18.4896C32.3193 18.3509 32.8566 18.0736 32.8566 17.6267C32.8566 17.2415 32.6878 16.9334 32.3807 16.7022C32.0584 16.4711 31.69 16.3478 31.2602 16.3478C30.815 16.3478 30.4466 16.4711 30.1242 16.7022C29.7711 16.9642 29.5716 17.334 29.5255 17.7962H27.008C27.0694 16.995 27.2536 16.3324 27.576 15.8394C27.8984 15.3463 28.4203 14.9611 29.1264 14.6837C29.7865 14.4372 30.5387 14.3139 31.383 14.3139C34.2228 14.3447 35.6351 15.6853 35.6351 18.3664V24.7146ZM32.8259 19.6607C32.565 19.8764 32.1044 20.0459 31.4444 20.1691C30.6922 20.3078 30.2163 20.4465 29.986 20.5698C29.5255 20.8009 29.2953 21.2169 29.2953 21.8024C29.2953 22.5575 29.6944 22.9273 30.4773 22.9273C30.8457 22.9273 31.2141 22.8502 31.5979 22.6807C31.9816 22.5112 32.2733 22.3109 32.4729 22.0798C32.7338 21.7562 32.872 21.2786 32.872 20.6468C32.872 20.5235 32.8566 20.3695 32.8566 20.1537C32.8259 19.9226 32.8259 19.7531 32.8259 19.6607ZM47.3476 19.6144C47.3476 21.0012 47.0099 22.1722 46.3191 23.0813C45.5209 24.1291 44.4003 24.6684 42.9266 24.6838H42.9113C41.5911 24.6838 40.5626 24.1753 39.5955 23.143V27.3187H36.9859V14.3447H39.5648C39.5648 14.3447 39.5495 15.8548 39.5648 15.8702C39.5648 15.8702 40.9157 14.3602 42.7117 14.3602C43.6021 14.3602 44.4463 14.6067 45.2139 15.0998C45.9814 15.5928 46.534 16.2092 46.8564 16.9642C47.1788 17.7192 47.3476 18.5975 47.3476 19.6144ZM44.4463 19.6144C44.4463 17.6113 43.6328 16.6098 42.0056 16.6098C40.4245 16.6098 39.6262 17.6576 39.6262 19.7531C39.6262 20.6314 39.8719 21.3248 40.3784 21.8487C40.8389 22.3263 41.3762 22.5575 42.0363 22.5575C42.6964 22.5575 43.2336 22.3109 43.6788 21.8333C44.1854 21.3094 44.4463 20.5544 44.4463 19.6144ZM57.7093 24.7146H55.0536V18.3201C55.0536 17.6267 54.9462 17.1491 54.7159 16.8563C54.4549 16.5173 53.9944 16.3633 53.3344 16.3633C52.6896 16.3633 52.1831 16.579 51.83 17.0104C51.4769 17.4418 51.2927 17.9811 51.2927 18.6283V24.7146H48.6371V10.3848H51.2927V15.7315C51.4923 15.3001 51.876 14.9457 52.4133 14.6991C52.9659 14.4372 53.5646 14.2985 54.24 14.2985C55.1918 14.2985 55.99 14.5451 56.6194 15.0381C57.3409 15.5928 57.7093 16.4095 57.7093 17.4418V24.7146ZM79.7528 24.7146H77.0971V18.3201C77.0971 17.6267 76.9897 17.1491 76.7594 16.8563C76.4985 16.5173 76.0379 16.3633 75.3779 16.3633C74.7331 16.3633 74.2266 16.579 73.8735 17.0104C73.5204 17.4418 73.3362 17.9811 73.3362 18.6283V24.7146H70.6806V14.2985H73.3362V15.7469C73.5358 15.3155 73.9195 14.9611 74.4568 14.7145C75.0094 14.4526 75.6081 14.3139 76.2835 14.3139C77.2353 14.3139 78.0182 14.5605 78.6629 15.0535C79.3844 15.6082 79.7528 16.4249 79.7528 17.4573V24.7146ZM25.2888 24.7146H22.6331V18.3201C22.6331 17.6267 22.5256 17.1491 22.2954 16.8563C22.0344 16.5173 21.5739 16.3633 20.9138 16.3633C20.2691 16.3633 19.7625 16.579 19.4095 17.0104C19.0564 17.4418 18.8722 17.9811 18.8722 18.6283V24.7146H16.2165V14.2985H18.8722V15.7469C19.0718 15.3155 19.4555 14.9611 19.9928 14.7145C20.5454 14.4526 21.1441 14.3139 21.8195 14.3139C22.7713 14.3139 23.5541 14.5605 24.1989 15.0535C24.9203 15.6082 25.2888 16.4249 25.2888 17.4573V24.7146ZM90.1759 20.1846H83.529C83.5904 21.0012 83.8361 21.6175 84.2966 22.0644C84.6803 22.4342 85.1562 22.6191 85.7088 22.6191C86.1233 22.6191 86.4917 22.5266 86.8141 22.3263C87.1364 22.126 87.3513 21.8641 87.4435 21.5251H90.0531C89.7614 22.5266 89.2395 23.2971 88.5026 23.8518C87.7505 24.4065 86.8755 24.6838 85.847 24.6838C82.6234 24.6838 81.0115 22.8964 81.0115 19.2909C81.0115 17.7808 81.426 16.5636 82.2396 15.6545C83.0532 14.7454 84.2045 14.2985 85.6781 14.2985C88.6715 14.2985 90.1759 16.2554 90.1759 20.1846ZM87.5663 18.5358C87.5049 17.8733 87.2899 17.3494 86.9062 16.9642C86.5224 16.579 86.0926 16.3941 85.586 16.3941C85.1102 16.3941 84.6803 16.579 84.3426 16.9334C83.9589 17.3186 83.7132 17.8579 83.6211 18.5513L87.5663 18.5358Z" fill="#0093DD"/>
<path fill-rule="evenodd" clip-rule="evenodd" d="M69.36 19.5071C69.36 21.0942 68.8995 22.3577 67.9784 23.313C67.0574 24.2684 65.7987 24.746 64.2175 24.746C62.6057 24.746 61.347 24.2684 60.4106 23.2976C59.4742 22.3269 59.0137 21.0634 59.0137 19.5071C59.0137 17.9355 59.4742 16.672 60.3952 15.7012C61.3163 14.7305 62.5904 14.2528 64.2022 14.2528C65.814 14.2528 67.0881 14.7459 68.0091 15.7321C68.9148 16.6874 69.36 17.9355 69.36 19.5071ZM66.6429 19.4917C66.6429 17.4578 65.8294 16.4408 64.2175 16.4408C62.5904 16.4408 61.7614 17.4578 61.7614 19.4917C61.7614 21.5256 62.575 22.5426 64.2175 22.5426C65.8294 22.5426 66.6429 21.5256 66.6429 19.4917ZM116.272 8.59793C115.811 9.18345 115.228 9.6303 114.552 9.90765C113.877 10.185 113.155 10.1542 112.434 10.185C107.721 10.3853 106.401 13.1897 105.726 16.9493C105.603 17.5965 105.311 18.2282 104.912 18.7521C104.467 19.3222 103.868 19.7383 103.177 19.9386C102.41 20.1697 101.581 20.0773 100.798 20.2005C100.061 20.3238 99.2937 20.5549 98.7872 21.1404C98.2499 21.7722 98.1885 22.9124 98.342 23.6982C98.5108 24.5611 98.3266 25.4856 97.7587 26.2098C97.4209 26.6567 96.9758 26.9648 96.4846 27.1343C96.1929 27.2422 95.8705 27.3038 95.5328 27.3038C93.9517 27.3038 92.6776 25.9787 92.6776 24.33C92.6776 24.068 92.7083 23.8061 92.7851 23.5596C92.8772 23.1435 93.0614 22.7429 93.3377 22.3885C93.5372 22.142 93.7675 21.9109 94.0285 21.7414C94.9955 21.125 96.2543 21.387 97.1907 20.6936C97.7587 20.2776 98.081 19.5225 98.2652 18.7829C98.3727 18.4594 98.4341 18.0741 98.4341 17.6427C98.4341 16.8415 98.2499 15.9632 97.9736 15.2236C96.853 12.2497 93.3223 10.7243 90.4057 10.3237C89.5768 10.2158 88.7171 10.2312 87.8882 10.185C87.5505 10.185 87.2128 10.1542 86.8904 10.0771C86.1382 9.95388 85.4167 9.69193 84.772 9.12182C82.7764 7.39607 82.3927 4.39142 83.8203 2.20341C83.8203 2.20341 83.8203 2.188 83.8356 2.188C83.8817 2.12637 83.9124 2.06474 83.9584 2.01851C83.9891 1.98769 84.0045 1.94147 84.0352 1.91065C84.0505 1.87983 84.0659 1.86443 84.0966 1.83361C84.0966 1.83361 84.0966 1.8182 84.1119 1.8182C85.0176 0.739607 86.3992 0 87.9189 0C88.2413 0 88.5329 0.0462254 88.8246 0.107859C89.6075 0.261944 90.375 0.631748 91.0351 1.20186C92.1403 2.15719 92.4627 3.40527 92.8925 4.76122C93.7214 7.31903 95.3947 10.3391 97.5745 11.9108C98.7257 12.7582 100.138 13.2051 101.566 13.2051C104.498 13.2051 106.954 11.5101 108.044 8.81365C108.305 8.19731 108.489 7.55016 108.596 6.88759C108.719 6.1788 108.673 5.4546 108.826 4.7304C108.965 4.06784 109.241 3.43609 109.655 2.89679C110.5 1.8182 111.728 1.2635 112.956 1.2635C112.971 1.2635 112.971 1.2635 112.986 1.2635C115.243 1.2635 117.1 3.06629 117.208 5.33133C117.331 6.47156 117.024 7.65801 116.272 8.59793Z" fill="#0093DD"/>
</svg>
