<svg width="118" height="36" viewBox="0 0 118 36" fill="none" xmlns="http://www.w3.org/2000/svg">
<path fill-rule="evenodd" clip-rule="evenodd" d="M15.3501 33.855L16.486 28.4158H17.1615L16.4553 31.7903L18.4049 29.9258H19.2799L17.6066 31.3896L18.6198 33.855H17.883L17.1001 31.8365L16.2865 32.5453L16.0102 33.855H15.3501ZM19.1264 33.855H19.8018L20.1548 32.1601C20.2623 31.667 20.3698 31.3126 20.4926 31.0815C20.6154 30.8657 20.7842 30.6963 20.9991 30.5576C21.214 30.4189 21.4443 30.3573 21.6899 30.3573C22.0276 30.3573 22.2118 30.4959 22.2118 30.7887C22.2118 30.8812 22.1811 31.0969 22.1044 31.4359L21.6132 33.8242H22.2732L22.7491 31.4975C22.8259 31.1123 22.8719 30.8657 22.8719 30.7271C22.8719 30.4189 22.7798 30.1878 22.5802 30.0337C22.396 29.8796 22.1504 29.8026 21.8434 29.8026C21.3982 29.8026 20.9531 30.0337 20.4926 30.4805L20.9224 28.4004H20.2469L19.1264 33.855ZM23.4552 32.3604C23.4552 31.5899 23.6855 30.9582 24.1307 30.4497C24.4991 30.0337 24.9903 29.8334 25.589 29.8334C26.0802 29.8334 26.464 29.9875 26.7403 30.2956C27.0166 30.6038 27.1547 30.989 27.1547 31.4821C27.1547 31.9289 27.078 32.3296 26.9091 32.6994C26.7249 33.1154 26.464 33.4236 26.1109 33.6393C25.7732 33.855 25.4201 33.9474 25.0363 33.9474C24.3763 33.9474 23.9004 33.7009 23.6394 33.1924C23.5166 32.9459 23.4552 32.6685 23.4552 32.3604ZM24.1153 32.2833C24.1153 32.6069 24.1921 32.8689 24.3456 33.0692C24.5144 33.3003 24.7447 33.4082 25.067 33.4082C25.3741 33.4082 25.6504 33.2849 25.8806 33.0538C26.1109 32.8226 26.2797 32.5299 26.3872 32.1601C26.464 31.9135 26.51 31.6824 26.51 31.4513C26.51 31.1431 26.4333 30.8657 26.2797 30.6654C26.1109 30.4343 25.8806 30.3265 25.5736 30.3265C25.1592 30.3265 24.8214 30.5268 24.5298 30.912C24.2535 31.3126 24.1153 31.7594 24.1153 32.2833ZM24.6679 29.4328L25.6504 28.4158H26.3872L26.8477 29.4328H26.249L25.942 28.7702L25.328 29.4328H24.6679ZM27.5385 33.855L28.3521 29.9258H28.9508L28.8126 30.6192C29.3192 30.0953 29.795 29.8488 30.2556 29.8488C30.5626 29.8488 30.8082 29.9258 30.9924 30.0953C31.1919 30.2648 31.2841 30.4959 31.2841 30.8041C31.2841 30.9582 31.2533 31.1893 31.1919 31.4975L30.6854 33.8858H30.0099L30.5319 31.3896C30.5779 31.1431 30.6086 30.9582 30.6086 30.8503C30.6086 30.5576 30.4398 30.4035 30.0867 30.4035C29.3192 30.4035 28.8126 30.9582 28.5823 32.0522L28.1986 33.8858L27.5385 33.855ZM31.7139 34.2094L32.3893 34.271C32.3893 34.533 32.466 34.7179 32.6503 34.7949C32.7731 34.8565 32.9266 34.872 33.1108 34.872C33.5099 34.872 33.8016 34.7641 33.9858 34.5638C34.1086 34.4251 34.216 34.1169 34.3081 33.6393L34.3695 33.3157C34.0165 33.6701 33.648 33.8396 33.2643 33.8396C32.8038 33.8396 32.466 33.6701 32.2051 33.3311C31.9748 33.0229 31.8674 32.6377 31.8674 32.1601C31.8674 31.7594 31.9595 31.3742 32.159 31.0044C32.3586 30.6192 32.6196 30.311 32.9419 30.0953C33.2336 29.9104 33.5252 29.818 33.8476 29.818C34.3695 29.818 34.7533 30.0645 35.045 30.5576L35.1831 29.9104H35.7971L35.0143 33.7163C34.9375 34.0861 34.8454 34.3789 34.7226 34.5946C34.5691 34.8874 34.3542 35.0877 34.0779 35.2418C33.8323 35.365 33.5406 35.4421 33.2182 35.4421C32.5582 35.4421 32.1283 35.288 31.8981 34.9644C31.7906 34.8103 31.7292 34.6254 31.7292 34.4251C31.6832 34.3481 31.6985 34.2864 31.7139 34.2094ZM32.5428 32.1138C32.5428 32.3912 32.5735 32.5915 32.6196 32.7148C32.7731 33.1 33.0187 33.3003 33.3871 33.3003C33.648 33.3003 33.8937 33.2078 34.1086 33.0075C34.2928 32.838 34.4463 32.6223 34.5691 32.345C34.7072 32.0214 34.7686 31.7132 34.7686 31.4205C34.7686 31.1277 34.6919 30.8812 34.523 30.6808C34.3542 30.4651 34.1239 30.3573 33.8323 30.3573C33.4945 30.3573 33.1875 30.5268 32.9266 30.8812C32.8191 31.0352 32.727 31.2201 32.6503 31.4667C32.5889 31.7132 32.5428 31.9289 32.5428 32.1138ZM38.0537 33.855L38.8673 29.9258H39.4659L39.3278 30.6192C39.8344 30.0953 40.3102 29.8488 40.7707 29.8488C41.0778 29.8488 41.3234 29.9258 41.5076 30.0953C41.7071 30.2648 41.7992 30.4959 41.7992 30.8041C41.7992 30.9582 41.7685 31.1893 41.7071 31.4975L41.2006 33.8858H40.5251L41.0471 31.3896C41.0931 31.1431 41.1238 30.9582 41.1238 30.8503C41.1238 30.5576 40.9549 30.4035 40.6019 30.4035C39.8344 30.4035 39.3278 30.9582 39.0975 32.0522L38.7138 33.8858L38.0537 33.855ZM42.2137 34.2094L42.8891 34.271C42.8891 34.533 42.9659 34.7179 43.1501 34.7949C43.2729 34.8565 43.4264 34.872 43.6106 34.872C44.0097 34.872 44.3014 34.7641 44.4856 34.5638C44.6084 34.4251 44.7159 34.1169 44.808 33.6393L44.8694 33.3157C44.5163 33.6701 44.1479 33.8396 43.7641 33.8396C43.3036 33.8396 42.9659 33.6701 42.7049 33.3311C42.4747 33.0229 42.3672 32.6377 42.3672 32.1601C42.3672 31.7594 42.4593 31.3742 42.6589 31.0044C42.8584 30.6192 43.1194 30.311 43.4417 30.0953C43.7334 29.9104 44.0251 29.818 44.3474 29.818C44.854 29.818 45.2531 30.0645 45.5448 30.5576L45.6676 29.9104H46.2816L45.4987 33.7163C45.422 34.0861 45.3299 34.3789 45.2071 34.5946C45.0536 34.8874 44.8387 35.0877 44.5623 35.2418C44.3167 35.365 44.0251 35.4421 43.6874 35.4421C43.0273 35.4421 42.5975 35.288 42.3672 34.9644C42.2598 34.8103 42.1983 34.6254 42.1983 34.4251C42.1983 34.3481 42.2137 34.2864 42.2137 34.2094ZM43.058 32.1138C43.058 32.3912 43.0887 32.5915 43.1347 32.7148C43.2882 33.1 43.5339 33.3003 43.9023 33.3003C44.1632 33.3003 44.4088 33.2078 44.6238 33.0075C44.808 32.838 44.9615 32.6223 45.0843 32.345C45.2224 32.0214 45.2838 31.7132 45.2838 31.4205C45.2838 31.1277 45.2071 30.8812 45.0382 30.6808C44.8694 30.4651 44.6391 30.3573 44.3474 30.3573C44.0097 30.3573 43.7027 30.5268 43.4417 30.8812C43.3343 31.0352 43.2422 31.2201 43.1654 31.4667C43.104 31.7132 43.058 31.9289 43.058 32.1138ZM49.1368 33.1462C48.661 33.6855 48.1851 33.9474 47.6939 33.9474C47.4176 33.9474 47.172 33.8704 46.9877 33.7163C46.7882 33.5468 46.6807 33.3311 46.6807 33.0538C46.6807 32.8843 46.7268 32.6069 46.8035 32.2063L47.2794 29.9258H47.9395L47.4176 32.4374C47.3715 32.6531 47.3562 32.8072 47.3562 32.9305C47.3562 33.2387 47.5404 33.3927 47.8934 33.3927C48.2772 33.3927 48.6149 33.2232 48.9066 32.8843C49.0294 32.7302 49.1368 32.5453 49.2136 32.3296C49.275 32.1755 49.3364 31.9443 49.3978 31.6208L49.7509 29.9258H50.4263L50.3495 30.2802C50.4723 30.1878 50.5491 30.0337 50.5951 29.8026H50.3188L50.4263 29.2787H50.9482L50.8561 29.7409C50.764 30.1724 50.5798 30.4343 50.3035 30.5268L49.6127 33.8704H48.9987L49.1368 33.1462ZM48.661 29.4328H49.1829L48.7531 28.4158H47.9395L48.661 29.4328ZM50.6719 33.855H51.332L51.7157 32.0214C51.946 30.9274 52.4372 30.3727 53.2201 30.3727C53.5732 30.3727 53.742 30.5268 53.742 30.8195C53.742 30.9274 53.7113 31.1123 53.6653 31.3588L53.1433 33.855H53.8188L54.3253 31.4667C54.3867 31.1585 54.4174 30.9274 54.4174 30.7733C54.4174 30.4651 54.3253 30.234 54.1258 30.0645C53.9416 29.895 53.696 29.818 53.389 29.818C52.9284 29.818 52.4526 30.0799 51.946 30.5884L52.0842 29.895H51.4855L50.6719 33.855ZM54.8473 34.2094L55.5227 34.271C55.5227 34.533 55.5994 34.7179 55.7837 34.7949C55.9065 34.8565 56.06 34.872 56.2442 34.872C56.6433 34.872 56.935 34.7641 57.1192 34.5638C57.242 34.4251 57.3494 34.1169 57.4415 33.6393L57.5029 33.3157C57.1499 33.6701 56.7814 33.8396 56.3977 33.8396C55.9372 33.8396 55.5994 33.6701 55.3385 33.3311C55.1082 33.0229 55.0008 32.6377 55.0008 32.1601C55.0008 31.7594 55.0929 31.3742 55.2924 31.0044C55.492 30.6192 55.753 30.311 56.0753 30.0953C56.367 29.9104 56.6586 29.818 56.9657 29.818C57.4722 29.818 57.8713 30.0645 58.163 30.5576L58.2858 29.9104H58.8998L58.1016 33.7163C58.0248 34.0861 57.9327 34.3789 57.8253 34.5946C57.6718 34.8874 57.4569 35.0877 57.1806 35.2418C56.935 35.365 56.6433 35.4421 56.3056 35.4421C55.6455 35.4421 55.2157 35.288 54.9854 34.9644C54.878 34.8103 54.8166 34.6254 54.8166 34.4251C54.8166 34.3481 54.8319 34.2864 54.8473 34.2094ZM55.6762 32.1138C55.6762 32.3912 55.7069 32.5915 55.753 32.7148C55.9065 33.1 56.1674 33.3003 56.5205 33.3003C56.7814 33.3003 57.0271 33.2078 57.242 33.0075C57.4262 32.838 57.5797 32.6223 57.7025 32.345C57.8406 32.0214 57.902 31.7132 57.902 31.4205C57.902 31.1277 57.8253 30.8812 57.6564 30.6808C57.4876 30.4651 57.2573 30.3573 56.9657 30.3573C56.6279 30.3573 56.3209 30.5268 56.0753 30.8812C55.9679 31.0352 55.8758 31.2201 55.799 31.4667C55.7223 31.7132 55.6762 31.9289 55.6762 32.1138ZM62.1695 33.855L61.5248 29.9258H62.1849L62.5226 32.0984C62.5686 32.345 62.5993 32.7302 62.6607 33.2541C62.7835 32.9767 62.9524 32.6531 63.152 32.2987L64.4568 29.9258H65.1629L62.9217 33.855H62.1695ZM67.6497 33.1462C67.1738 33.6855 66.698 33.9474 66.2067 33.9474C65.9304 33.9474 65.6848 33.8704 65.5006 33.7163C65.301 33.5468 65.1936 33.3311 65.1936 33.0538C65.1936 32.8843 65.2396 32.6069 65.3164 32.2063L65.7923 29.9258H66.4523L65.9304 32.4374C65.8844 32.6531 65.869 32.8072 65.869 32.9305C65.869 33.2387 66.0532 33.3927 66.4063 33.3927C66.7901 33.3927 67.1278 33.2232 67.4194 32.8843C67.5422 32.7302 67.6497 32.5453 67.7264 32.3296C67.7878 32.1755 67.8493 31.9443 67.9107 31.6208L68.2637 29.9258H68.9391L68.8624 30.2802C68.9852 30.1878 69.062 30.0337 69.108 29.8026H68.8317L68.9391 29.2787H69.4611L69.369 29.7409C69.2769 30.1724 69.0926 30.4343 68.8163 30.5268L68.1256 33.8704H67.5115L67.6497 33.1462ZM69.9523 32.2833C69.9523 32.6069 70.029 32.8689 70.1825 33.0692C70.3514 33.3003 70.597 33.4082 70.904 33.4082C71.211 33.4082 71.472 33.2849 71.7176 33.0538C71.9479 32.8226 72.1167 32.5299 72.2242 32.1601C72.3009 31.9135 72.347 31.6824 72.347 31.4513C72.347 31.1277 72.2702 30.8657 72.1167 30.6654C71.9479 30.4343 71.7176 30.3265 71.4106 30.3265C70.9961 30.3265 70.6584 30.5268 70.3668 30.912C70.0904 31.3126 69.9523 31.7594 69.9523 32.2833ZM72.4237 29.7872H72.7154C72.6847 29.9721 72.6079 30.1261 72.5158 30.2186C72.2395 29.9566 71.8711 29.8334 71.4259 29.8334C70.8273 29.8334 70.3361 30.0491 69.9676 30.4497C69.5225 30.9582 69.2922 31.5899 69.2922 32.3604C69.2922 32.6685 69.3536 32.9459 69.4918 33.1924C69.7681 33.6855 70.2286 33.9474 70.904 33.9474C71.2878 33.9474 71.6409 33.8396 71.9786 33.6393C72.3163 33.4236 72.5772 33.1154 72.7768 32.6994C72.9457 32.3296 73.0224 31.9289 73.0224 31.4821C73.0224 31.0352 72.8996 30.6654 72.6693 30.3727C72.8229 30.234 72.915 30.0183 72.9764 29.7255L73.0685 29.2633H72.5465L72.4237 29.7872ZM73.3755 33.855L74.1891 29.9258H74.7877L74.6496 30.6192C75.1561 30.0953 75.632 29.8488 76.0925 29.8488C76.3996 29.8488 76.6452 29.9258 76.8294 30.0953C77.0289 30.2648 77.121 30.4959 77.121 30.8041C77.121 30.9582 77.0903 31.1893 77.0289 31.4975L76.5224 33.8858H75.8469L76.3689 31.3896C76.4149 31.1431 76.4456 30.9582 76.4456 30.8503C76.4456 30.5576 76.2767 30.4035 75.9237 30.4035C75.1562 30.4035 74.6496 30.9582 74.4193 32.0522L74.0356 33.8858L73.3755 33.855ZM79.4236 33.855L81.1275 31.8519L80.1451 29.9104H80.8819L81.2196 30.6038C81.3425 30.8503 81.4499 31.0969 81.5574 31.3588L82.6933 29.9104H83.5069L81.8644 31.8981L82.8622 33.8396H82.1253L81.7416 33.0383C81.6495 32.8689 81.5574 32.6531 81.4499 32.4066L80.2833 33.8396L79.4236 33.855ZM86.1165 33.3619C85.6713 33.7471 85.2262 33.9474 84.7656 33.9474C84.4126 33.9474 84.1209 33.8396 83.906 33.6393C83.6757 33.4236 83.5529 33.1462 83.5529 32.8072C83.5529 32.3758 83.7372 32.0368 84.1056 31.8057C84.2744 31.7132 84.474 31.6362 84.7042 31.5899C84.827 31.5591 85.1341 31.5437 85.5946 31.5283C85.9783 31.5129 86.27 31.4667 86.4542 31.3896C86.5003 31.2047 86.531 31.0507 86.531 30.9274C86.531 30.5576 86.2547 30.3727 85.6867 30.3727C85.1341 30.3727 84.781 30.6038 84.6121 31.0969L83.9367 31.0352C84.2284 30.234 84.8117 29.8334 85.7174 29.8334C86.2086 29.8334 86.5924 29.9566 86.8687 30.1878C87.0836 30.3573 87.191 30.5884 87.191 30.8657C87.191 31.0815 87.1603 31.3126 87.0989 31.5899L86.884 32.5761C86.8073 32.8843 86.7766 33.1308 86.7766 33.3311C86.7766 33.4544 86.8073 33.6393 86.8533 33.8704H86.1779C86.1472 33.7163 86.1319 33.5622 86.1165 33.3619ZM86.3621 31.8519C86.2086 31.9135 85.9169 31.9598 85.5178 32.006C85.2108 32.0368 84.9959 32.0676 84.8731 32.083C84.6121 32.1447 84.4279 32.2371 84.3205 32.3912C84.2437 32.5145 84.1977 32.6377 84.1977 32.7764C84.1977 32.9921 84.2744 33.1462 84.4279 33.2695C84.5661 33.3773 84.7349 33.4236 84.9499 33.4236C85.1801 33.4236 85.395 33.3619 85.5946 33.2387C85.7941 33.1154 85.9476 32.9459 86.0704 32.7456C86.2086 32.5453 86.3007 32.2371 86.3621 31.8519Z" fill="#ADADAD"/>
<path fill-rule="evenodd" clip-rule="evenodd" d="M10.377 14.2985L6.49332 24.6992H3.88371L0 14.2985H2.59426L5.17316 21.371L7.75207 14.2985H10.377ZM14.2147 13.035H11.6204V10.4002H14.2147V13.035ZM14.2147 24.6992H11.6204V14.2831H14.2147V24.6992ZM34.9227 24.7146H32.4666C32.3898 24.3911 32.3131 24.1137 32.221 23.7131C31.6069 24.3757 30.6399 24.7146 29.289 24.7146C28.368 24.7146 27.6004 24.4989 27.0018 24.0829C26.2956 23.5898 25.9579 22.8656 25.9579 21.9257C25.9579 20.5698 26.4952 19.6298 27.5544 19.1214C28.0456 18.8902 29.0434 18.6745 30.5477 18.4896C31.6069 18.3509 32.1442 18.0736 32.1442 17.6267C32.1442 17.2415 31.9754 16.9334 31.6683 16.7022C31.346 16.4711 30.9776 16.3478 30.5477 16.3478C30.1026 16.3478 29.7342 16.4711 29.4118 16.7022C29.0587 16.9642 28.8592 17.334 28.8131 17.7962H26.2956C26.357 16.995 26.5412 16.3324 26.8636 15.8394C27.186 15.3463 27.7079 14.9611 28.414 14.6837C29.0741 14.4372 29.8263 14.3139 30.6706 14.3139C33.5104 14.3447 34.9227 15.6853 34.9227 18.3664V24.7146ZM32.1135 19.6607C31.8526 19.8764 31.392 20.0459 30.732 20.1691C29.9798 20.3078 29.5039 20.4465 29.2736 20.5698C28.8131 20.8009 28.5829 21.2169 28.5829 21.8024C28.5829 22.5575 28.982 22.9273 29.7649 22.9273C30.1333 22.9273 30.5017 22.8502 30.8855 22.6807C31.2692 22.5112 31.5609 22.3109 31.7604 22.0798C32.0214 21.7562 32.1596 21.2786 32.1596 20.6468C32.1596 20.5235 32.1442 20.3695 32.1442 20.1537C32.1135 19.9226 32.1135 19.7531 32.1135 19.6607ZM46.6352 19.6144C46.6352 21.0012 46.2975 22.1722 45.6067 23.0813C44.8085 24.1291 43.6879 24.6684 42.2142 24.6838H42.1989C40.8787 24.6838 39.8502 24.1753 38.8831 23.143V27.3187H36.2735V14.3447H38.8524C38.8524 14.3447 38.8371 15.8548 38.8524 15.8702C38.8524 15.8702 40.2033 14.3602 41.9993 14.3602C42.8897 14.3602 43.7339 14.6067 44.5015 15.0998C45.269 15.5928 45.8216 16.2092 46.144 16.9642C46.4664 17.7192 46.6352 18.5975 46.6352 19.6144ZM43.7339 19.6144C43.7339 17.6113 42.9204 16.6098 41.2932 16.6098C39.7121 16.6098 38.9138 17.6576 38.9138 19.7531C38.9138 20.6314 39.1595 21.3248 39.666 21.8487C40.1265 22.3263 40.6638 22.5575 41.3239 22.5575C41.984 22.5575 42.5212 22.3109 42.9664 21.8333C43.473 21.3094 43.7339 20.5544 43.7339 19.6144ZM56.9969 24.7146H54.3412V18.3201C54.3412 17.6267 54.2338 17.1491 54.0035 16.8563C53.7425 16.5173 53.282 16.3633 52.622 16.3633C51.9772 16.3633 51.4707 16.579 51.1176 17.0104C50.7645 17.4418 50.5803 17.9811 50.5803 18.6283V24.7146H47.9247V10.3848H50.5803V15.7315C50.7799 15.3001 51.1636 14.9457 51.7009 14.6991C52.2535 14.4372 52.8522 14.2985 53.5276 14.2985C54.4794 14.2985 55.2776 14.5451 55.907 15.0381C56.6285 15.5928 56.9969 16.4095 56.9969 17.4418V24.7146ZM79.0404 24.7146H76.3847V18.3201C76.3847 17.6267 76.2773 17.1491 76.047 16.8563C75.786 16.5173 75.3255 16.3633 74.6655 16.3633C74.0207 16.3633 73.5142 16.579 73.1611 17.0104C72.808 17.4418 72.6238 17.9811 72.6238 18.6283V24.7146H69.9682V14.2985H72.6238V15.7469C72.8234 15.3155 73.2071 14.9611 73.7444 14.7145C74.297 14.4526 74.8957 14.3139 75.5711 14.3139C76.5229 14.3139 77.3058 14.5605 77.9505 15.0535C78.672 15.6082 79.0404 16.4249 79.0404 17.4573V24.7146ZM24.5764 24.7146H21.9207V18.3201C21.9207 17.6267 21.8132 17.1491 21.583 16.8563C21.322 16.5173 20.8615 16.3633 20.2014 16.3633C19.5567 16.3633 19.0501 16.579 18.6971 17.0104C18.344 17.4418 18.1598 17.9811 18.1598 18.6283V24.7146H15.5041V14.2985H18.1598V15.7469C18.3594 15.3155 18.7431 14.9611 19.2804 14.7145C19.833 14.4526 20.4317 14.3139 21.1071 14.3139C22.0589 14.3139 22.8417 14.5605 23.4865 15.0535C24.2079 15.6082 24.5764 16.4249 24.5764 17.4573V24.7146ZM89.4635 20.1846H82.8166C82.878 21.0012 83.1236 21.6175 83.5842 22.0644C83.9679 22.4342 84.4438 22.6191 84.9964 22.6191C85.4109 22.6191 85.7793 22.5266 86.1017 22.3263C86.424 22.126 86.6389 21.8641 86.731 21.5251H89.3407C89.049 22.5266 88.5271 23.2971 87.7902 23.8518C87.0381 24.4065 86.1631 24.6838 85.1346 24.6838C81.9109 24.6838 80.2991 22.8964 80.2991 19.2909C80.2991 17.7808 80.7136 16.5636 81.5272 15.6545C82.3408 14.7454 83.4921 14.2985 84.9657 14.2985C87.9591 14.2985 89.4635 16.2554 89.4635 20.1846ZM86.8539 18.5358C86.7924 17.8733 86.5775 17.3494 86.1938 16.9642C85.81 16.579 85.3802 16.3941 84.8736 16.3941C84.3978 16.3941 83.9679 16.579 83.6302 16.9334C83.2465 17.3186 83.0008 17.8579 82.9087 18.5513L86.8539 18.5358Z" fill="#ADADAD"/>
<path fill-rule="evenodd" clip-rule="evenodd" d="M68.6476 19.5071C68.6476 21.0942 68.1871 22.3577 67.266 23.313C66.345 24.2684 65.0863 24.746 63.5051 24.746C61.8933 24.746 60.6346 24.2684 59.6982 23.2976C58.7618 22.3269 58.3013 21.0634 58.3013 19.5071C58.3013 17.9355 58.7618 16.672 59.6828 15.7012C60.6039 14.7305 61.878 14.2528 63.4898 14.2528C65.1016 14.2528 66.3757 14.7459 67.2967 15.7321C68.2024 16.6874 68.6476 17.9355 68.6476 19.5071ZM65.9305 19.4917C65.9305 17.4578 65.117 16.4408 63.5051 16.4408C61.878 16.4408 61.049 17.4578 61.049 19.4917C61.049 21.5256 61.8626 22.5426 63.5051 22.5426C65.117 22.5426 65.9305 21.5256 65.9305 19.4917ZM115.559 8.59793C115.099 9.18345 114.515 9.6303 113.84 9.90765C113.164 10.185 112.443 10.1542 111.721 10.185C107.009 10.3853 105.689 13.1897 105.013 16.9493C104.89 17.5965 104.599 18.2282 104.2 18.7521C103.754 19.3222 103.156 19.7383 102.465 19.9386C101.697 20.1697 100.869 20.0773 100.086 20.2005C99.3489 20.3238 98.5813 20.5549 98.0748 21.1404C97.5375 21.7722 97.4761 22.9124 97.6296 23.6982C97.7984 24.5611 97.6142 25.4856 97.0463 26.2098C96.7085 26.6567 96.2634 26.9648 95.7722 27.1343C95.4805 27.2422 95.1581 27.3038 94.8204 27.3038C93.2393 27.3038 91.9652 25.9787 91.9652 24.33C91.9652 24.068 91.9959 23.8061 92.0727 23.5596C92.1648 23.1435 92.349 22.7429 92.6253 22.3885C92.8248 22.142 93.0551 21.9109 93.3161 21.7414C94.2831 21.125 95.5419 21.387 96.4783 20.6936C97.0463 20.2776 97.3686 19.5225 97.5528 18.7829C97.6603 18.4594 97.7217 18.0741 97.7217 17.6427C97.7217 16.8415 97.5375 15.9632 97.2612 15.2236C96.1406 12.2497 92.6099 10.7243 89.6933 10.3237C88.8644 10.2158 88.0047 10.2312 87.1758 10.185C86.8381 10.185 86.5004 10.1542 86.178 10.0771C85.4258 9.95388 84.7043 9.69193 84.0596 9.12182C82.064 7.39607 81.6803 4.39142 83.1079 2.20341C83.1079 2.20341 83.1079 2.188 83.1232 2.188C83.1693 2.12637 83.2 2.06474 83.246 2.01851C83.2767 1.98769 83.2921 1.94147 83.3228 1.91065C83.3381 1.87983 83.3535 1.86443 83.3842 1.83361C83.3842 1.83361 83.3842 1.8182 83.3995 1.8182C84.3052 0.739607 85.6868 0 87.2065 0C87.5289 0 87.8205 0.0462254 88.1122 0.107859C88.8951 0.261944 89.6626 0.631748 90.3227 1.20186C91.4279 2.15719 91.7503 3.40527 92.1801 4.76122C93.009 7.31903 94.6823 10.3391 96.862 11.9108C98.0133 12.7582 99.4256 13.2051 100.853 13.2051C103.785 13.2051 106.241 11.5101 107.331 8.81365C107.592 8.19731 107.776 7.55016 107.884 6.88759C108.007 6.1788 107.961 5.4546 108.114 4.7304C108.252 4.06784 108.529 3.43609 108.943 2.89679C109.787 1.8182 111.015 1.2635 112.243 1.2635C112.259 1.2635 112.259 1.2635 112.274 1.2635C114.531 1.2635 116.388 3.06629 116.496 5.33133C116.618 6.47156 116.311 7.65801 115.559 8.59793Z" fill="#ADADAD"/>
</svg>
