<svg width="147" height="170" viewBox="0 0 147 170" fill="none" xmlns="http://www.w3.org/2000/svg">
<g opacity="0.2">
<mask id="mask0" mask-type="alpha" maskUnits="userSpaceOnUse" x="0" y="0" width="147" height="170">
<rect width="147" height="170" fill="#323439"/>
</mask>
<g mask="url(#mask0)">
<path d="M155.362 199.174L130.37 197.335C107.954 174.191 86.6589 150.313 74.4903 133.328L80.9408 134.913C57.3403 103.616 22.6743 54.9965 6.19914 20.9976L19.3475 24.2065L14.1506 22.9443C2.96692 1.33901 -8.53366 -21.7351 -17.9727 -44.3224L41.0865 -39.9779C50.6562 -15.3279 63.5329 11.2833 77.2039 38.351L57.0002 33.408C69.8491 63.0549 102.877 109.878 131.246 147.266L105.622 141.002C114.769 155.251 133.769 176.824 155.362 199.174Z" fill="#F4F5F7"/>
</g>
</g>
</svg>
