<svg width="18" height="18" viewBox="0 0 18 18" fill="none" xmlns="http://www.w3.org/2000/svg">
<path d="M16.1072 6.51743C15.3677 6.51743 14.7697 7.11813 14.7697 7.86109C14.7697 8.60405 15.3677 9.20475 16.1072 9.20475C16.1387 9.20475 16.1623 9.20475 16.1938 9.20475V9.29169V11.6549V13.7416C16.1938 14.2632 15.7768 14.6821 15.2575 14.6821H2.1731C1.65382 14.6821 1.23682 14.2632 1.23682 13.7416V5.28443C1.23682 4.76278 1.65382 4.34387 2.1731 4.34387H15.2575C15.7768 4.34387 16.1938 4.76278 16.1938 5.28443V6.4542V6.51743H16.1072ZM4.94262 11.647C4.98983 11.7893 5.05277 11.9632 5.12358 12.1766C4.80887 12.0185 3.80177 12.469 3.43984 12.5876C3.43984 12.5876 3.24314 12.4058 3.11726 12.3505C3.05431 12.3189 2.90482 12.3426 2.82614 12.4058C2.80254 12.39 2.77893 12.3584 2.73173 12.4216C2.70026 12.469 2.71599 12.4769 2.74746 12.4928C2.73173 12.5165 2.70812 12.556 2.69239 12.5876C2.66878 12.5797 2.64518 12.556 2.61371 12.6192C2.57437 12.6903 2.61371 12.6983 2.64518 12.7141C2.5429 12.9196 2.37767 13.046 2.27539 13.2594C2.24391 13.2436 2.22031 13.2278 2.18884 13.3148C2.16523 13.378 2.18884 13.3859 2.22031 13.4017C2.20457 13.4649 2.18884 13.5203 2.18097 13.5677C2.1731 13.5677 2.11803 13.5519 2.11016 13.6151C2.10229 13.702 2.11016 13.7099 2.16523 13.7179C2.16523 13.7574 2.16523 13.7969 2.16523 13.8364C2.19671 13.9629 2.30686 13.9866 2.3698 13.9392C2.71599 13.6704 2.9835 13.4965 3.1802 13.3622C3.69162 13.3148 5.09998 13.2199 5.51698 13.1804C5.72155 13.1962 6.32738 12.6666 6.33525 12.4848C6.34312 12.145 6.33525 11.9158 6.31951 11.647C6.30378 11.4257 6.28017 11.1807 6.26444 10.8329L6.35885 10.8013L6.36672 10.0663L6.56342 10.0742C6.56342 10.0742 6.56342 10.0742 6.58702 9.98723C7.0827 10.0426 8.02686 10.1927 8.64842 10.1453C8.76644 10.1374 8.8766 10.1848 8.95527 10.2718C9.11263 10.4061 10.2771 10.5326 11.2527 10.5326C11.3707 10.8646 11.6382 10.9199 11.6382 10.9199C11.6618 10.9357 11.6776 10.9199 11.7327 10.8962C11.7641 10.9278 11.7799 10.9436 11.8349 10.9199C11.8822 10.8962 11.8822 10.8725 11.8664 10.8329L11.9136 10.8013C11.9451 10.8329 11.9687 10.8488 12.0159 10.8171C12.0552 10.7855 12.0631 10.7776 12.0316 10.7302C12.1339 10.667 12.7004 10.2402 12.7004 10.2402C12.724 10.2639 12.7319 10.2718 12.7476 10.2718C12.7634 10.2718 12.8184 10.2243 12.8263 10.2085C12.8342 10.1927 12.8184 10.169 12.8027 10.1532L12.8971 10.0742C12.9129 10.0979 12.9286 10.1058 12.9443 10.1058C12.9601 10.0979 12.9915 10.0742 13.0073 10.0505C13.0151 10.0347 12.9994 10.0109 12.9837 9.99513L13.0466 9.91609C13.023 9.80544 12.9129 9.81334 12.8106 9.82125C12.5667 9.83706 11.8664 9.94771 11.5989 9.9319C11.0954 9.76592 9.19918 9.05457 9.08903 9.00715C8.97101 8.95973 8.86086 8.95182 8.73497 8.95182C8.22356 8.67519 7.2558 8.46178 7.16925 8.43807C7.14565 8.43017 7.15351 8.39065 7.14565 8.35903C7.14565 8.35903 6.72865 8.28 6.38246 8.2879C6.4454 8.04288 6.53981 7.29201 6.53981 7.0628C6.59489 7.09442 6.63423 7.11813 6.69717 7.11813C6.81519 7.13393 6.94108 7.04699 7.09844 6.98376C7.17712 6.95215 7.19285 6.99957 7.23219 6.96795C7.33448 6.90472 7.38168 6.72293 7.53118 6.60438C7.62559 6.52534 7.72787 6.54905 7.76721 6.46211C7.83803 6.31193 7.79869 6.20918 7.77508 6.05901C7.73574 5.82189 7.68067 5.66382 7.4997 5.51364C7.35021 5.39509 7.23219 5.35557 7.04336 5.35557C6.82306 5.35557 6.45327 5.45832 6.2487 5.97207C6.02053 5.8377 5.93398 5.77447 5.69794 5.68753C5.25734 5.52945 3.88045 5.8377 3.72309 5.90884C3.73882 5.97997 3.73096 6.0432 3.73096 6.0432C3.73096 6.0432 3.56573 6.05111 3.49492 6.14595C3.17233 6.62018 2.79467 7.28411 2.79467 7.28411C2.66092 7.30782 2.57437 7.41057 2.51142 7.54494C2.44848 7.68721 2.38554 7.70301 2.24391 7.78996C2.1495 7.82157 2.18097 7.92432 2.23605 7.92432C2.33833 7.91642 2.42488 7.86109 2.52716 7.78205C2.47208 7.94803 2.27539 8.06659 2.26752 8.13773C2.29112 8.23257 2.49569 8.35903 2.77893 8.14563C2.86548 8.07449 2.9599 8.01917 3.02284 7.93223C3.05431 7.89271 3.07792 7.71092 3.11726 7.57655C3.1802 7.54494 3.64441 7.11813 3.98273 6.77826C3.98273 6.77826 4.66724 6.63599 4.9977 6.58857C4.9977 6.58857 4.74592 6.70713 4.48628 6.80197C4.06141 8.38275 4.09288 9.07829 4.32105 9.15732C4.14796 9.47348 4.54922 10.7539 4.75379 11.2914L4.85607 11.3072C4.8246 11.2993 4.87181 11.4257 4.94262 11.647Z" fill="#838A92"/>
<path d="M17.0041 7.869C17.0041 8.34323 16.6343 8.72262 16.1779 8.72262C15.7216 8.72262 15.3518 8.34323 15.3518 7.869C15.3518 7.39477 15.7216 7.01538 16.1779 7.01538C16.6343 7.01538 17.0041 7.39477 17.0041 7.869Z" fill="#838A92"/>
</svg>
