<svg width="18" height="18" viewBox="0 0 18 18" fill="none" xmlns="http://www.w3.org/2000/svg">
<path d="M13.7221 7.20732C13.6883 7.27469 13.6709 7.3246 13.6372 7.44312C13.4848 7.25722 13.3325 7.12248 13.1976 6.97026C13.3675 6.75192 13.3837 6.58224 13.2151 6.41381C12.9779 6.17675 12.8768 6.51487 12.7082 6.54856C12.5559 6.46496 12.421 6.39759 12.2862 6.31275C12.2699 6.34643 12.2362 6.38012 12.2187 6.41381C12.5908 6.80183 12.9617 7.17238 13.3337 7.57787C13.0466 7.5604 12.7931 7.50925 12.5396 7.52672C12.2862 7.52672 12.0327 7.59409 11.7792 7.64525C11.5932 7.44312 11.4071 7.22354 11.2049 7.02142C10.8678 6.6833 10.8678 6.6833 11.07 6.26159C11.07 6.26159 11.0538 6.24537 11.0363 6.19422C10.884 6.27781 10.7329 6.34519 10.5806 6.43003C9.63413 5.92348 9.19587 5.94095 8.72265 6.4974C9.05978 6.76814 9.46557 6.8692 9.8876 6.83552C10.1923 6.80183 10.4457 6.88667 10.648 7.12248C10.8328 7.3246 11.0363 7.5105 11.2049 7.6964C10.5968 7.6964 10.005 7.71387 9.41438 7.6964C8.92493 7.68018 8.53661 7.46059 8.31686 7.02142C8.18201 6.76814 8.13206 6.48118 7.69256 6.54856C7.94477 6.17675 8.26566 6.00832 8.63775 5.82242C8.5029 5.72136 8.41924 5.6702 8.33434 5.60283C8.84127 5.18112 9.39939 4.96153 9.98998 4.86047C10.1423 4.82679 10.3284 4.86048 10.4632 4.92785C10.8178 5.11375 11.1562 5.33334 11.5445 5.56914C11.6119 5.36702 11.6619 5.18112 11.7468 4.92785C12.2874 5.2984 12.7943 5.65274 13.2838 5.99085C13.1827 5.6702 13.0978 5.31587 12.9966 4.97775C12.9791 4.89416 12.878 4.82679 12.8106 4.77563C12.3885 4.4213 11.8816 4.21918 11.3585 4.06697C11.3073 4.0495 11.2573 4.0495 11.2061 4.0495C11.2398 4.2354 11.2735 4.38761 11.3073 4.55605C11.291 4.57227 11.2573 4.57227 11.2398 4.58973C11.1212 4.48867 11.0201 4.38761 10.9189 4.28655C10.6318 3.96591 10.2946 3.79622 9.85513 3.84738C9.39815 3.89853 8.92617 3.89853 8.48667 3.99959C7.97973 4.11687 7.50651 4.30277 7.01706 4.45499C7.03454 4.48867 7.03454 4.50614 7.03454 4.53983C7.33795 4.67582 7.59142 4.82679 7.74375 5.19859C7.60765 5.13122 7.50651 5.09753 7.40538 5.06384C6.88096 4.91163 6.49265 5.13122 6.39151 5.67145C6.37403 5.80745 6.37403 5.95841 6.39151 6.11063C6.42522 6.31275 6.47517 6.49865 6.52636 6.68455C5.96948 6.29653 5.93577 5.75629 6.07062 5.115C5.24405 5.74007 4.63598 6.46496 4.19647 7.35953C4.41497 7.39322 4.60102 7.42691 4.82077 7.47806C4.12904 8.42254 3.68954 9.41817 3.55469 10.5997C3.92677 10.4986 4.24766 10.3976 4.60227 10.2965C4.4337 11.6465 4.4337 12.9291 5.00806 14.178C5.7335 13.6041 6.27414 12.9116 6.78108 12.1692C6.81479 12.2366 6.8485 12.2528 6.8485 12.2703C6.86598 12.3202 6.88221 12.3876 6.89969 12.4387C7.15316 13.4182 7.06825 14.3788 6.86598 15.3583C6.83227 15.5778 6.88346 15.6951 7.08573 15.78C8.04841 16.2179 9.04479 16.2853 10.0587 15.9821C10.6168 15.8137 11.1399 15.5429 11.7143 15.3071C11.7642 15.5105 11.8317 15.7463 11.9166 16.0332C12.5584 15.6115 13.0653 15.0888 13.4349 14.4475C13.8232 13.8224 14.0255 13.1312 14.1441 12.3377C14.3301 12.5223 14.4825 12.6746 14.651 12.8605C15.344 10.7856 14.9894 8.92908 13.7732 7.20732H13.7221ZM10.6155 10.1942C10.447 9.83987 10.2435 9.48554 10.0412 9.09752C10.5319 8.72696 11.0038 8.38885 11.5782 8.21917C11.6968 8.18548 11.8317 8.23664 11.9503 8.27032C12.0339 8.28654 12.1014 8.35391 12.1863 8.40507C12.3049 8.48866 12.5234 8.53981 12.5409 8.64088C12.5921 8.87668 12.5584 9.12996 12.5584 9.38323C12.5584 9.41692 12.5246 9.45061 12.5072 9.46807C12.0352 9.83987 11.5782 10.2104 10.9876 10.3626C10.8178 10.4138 10.7004 10.3801 10.6155 10.1942ZM13.3188 11.0039C13.285 11.4768 13.0316 11.8823 12.6433 12.1855C12.6258 12.2029 12.5921 12.2029 12.5584 12.2029L12.4572 11.3932C12.17 11.528 11.9166 11.6465 11.6631 11.7812C11.5283 11.8486 11.4434 11.8149 11.3759 11.6627C11.2923 11.4606 11.1737 11.2747 11.1062 11.1225C11.5283 10.853 11.9166 10.566 12.3224 10.3963C12.5084 10.294 12.8455 10.2441 12.9979 10.3452C13.1839 10.4637 13.3362 10.7844 13.3188 11.0039ZM13.6896 10.2291C13.2838 9.77375 12.8955 9.35204 13.0478 8.69328C13.0478 8.64212 13.0978 8.57475 13.1489 8.54106C13.3013 8.44 13.4361 8.33894 13.6222 8.22042C13.8756 8.8954 13.9605 9.55291 13.6896 10.2291Z" fill="#838A92"/>
<path d="M6.63157 3.83839C8.18483 3.01244 9.80552 2.82654 11.4949 3.24825C11.6135 2.7417 11.7321 2.23514 11.8333 1.74606L11.7821 1.69491C11.5286 1.9644 11.2926 2.21768 11.0054 2.53833C10.9542 2.048 10.9205 1.61007 10.8868 1.10352C10.4473 1.5926 10.059 2.01431 9.62073 2.4722C9.33355 1.99934 9.0626 1.57763 8.75919 1.10476C8.5744 1.64375 8.40459 2.11662 8.23603 2.62317C7.73034 2.26883 7.25712 1.94818 6.71648 1.57638C6.80138 2.06671 6.86881 2.50464 6.93623 2.9775C6.58163 2.75791 6.27697 2.55579 5.92236 2.33621C6.17583 2.89391 6.41182 3.34931 6.63157 3.83839Z" fill="#838A92"/>
</svg>
