<svg width="18" height="18" viewBox="0 0 18 18" fill="none" xmlns="http://www.w3.org/2000/svg">
<path d="M7.14126 8.00753C7.42793 7.58197 7.86648 7.26028 8.36123 7.12207C8.27324 7.18272 8.19961 7.26011 8.12649 7.33699C8.38104 7.30401 8.6455 7.33374 8.88143 7.43744C8.91184 7.66209 8.92824 7.8888 8.96395 8.1126C8.99316 7.88777 9.01537 7.66209 9.04322 7.4371C9.27351 7.33733 9.53199 7.30213 9.78039 7.33733L9.79713 7.35065C9.79764 7.34672 9.79867 7.33904 9.79918 7.33528C9.72247 7.26182 9.65123 7.18186 9.56257 7.12224C10.0566 7.26079 10.4952 7.58146 10.7815 8.00685C10.6975 7.94227 10.6014 7.897 10.5065 7.85155C10.6158 8.08167 10.6711 8.34067 10.6447 8.59539C10.4374 8.69174 10.2268 8.78126 10.022 8.88274C10.2458 8.84259 10.4678 8.79322 10.6908 8.74948C10.8652 8.94117 10.9742 9.18529 11.0238 9.43814C11.0728 9.34862 11.1213 9.25824 11.1519 9.16052C11.1691 9.66194 11.0051 10.1668 10.6968 10.5623C10.7248 10.4673 10.7396 10.3694 10.7528 10.2717C10.5671 10.4469 10.3373 10.5781 10.0869 10.6335C9.92902 10.4649 9.77731 10.2903 9.6157 10.1253C9.72452 10.3279 9.84138 10.526 9.95345 10.7268C9.82361 10.9506 9.62595 11.1308 9.39924 11.2536C9.49645 11.2712 9.59434 11.2871 9.69343 11.29C9.22413 11.4573 8.69761 11.4568 8.22831 11.2895C8.32808 11.2875 8.42666 11.2712 8.52472 11.2536C8.29802 11.1308 8.10035 10.9506 7.97052 10.7266C8.08225 10.526 8.19978 10.3284 8.30758 10.1258C8.14563 10.2908 7.99495 10.4668 7.83504 10.6338C7.58596 10.5766 7.35601 10.4475 7.1715 10.2715C7.18432 10.3701 7.19884 10.4686 7.22754 10.5641C6.919 10.1678 6.75414 9.66279 6.77123 9.16052C6.80317 9.25875 6.85186 9.34981 6.90106 9.44019C6.94753 9.18581 7.05943 8.94151 7.23335 8.74897C7.45646 8.79254 7.67855 8.84191 7.90235 8.88223C7.69769 8.78023 7.48653 8.69123 7.2793 8.59453C7.25316 8.34032 7.308 8.0815 7.41751 7.85172C7.32184 7.89683 7.22566 7.94295 7.14126 8.00753ZM8.9619 8.21442C8.6414 8.44761 8.3204 8.68029 7.99956 8.91298C8.12171 9.29053 8.24488 9.66757 8.36755 10.045C8.76458 10.0441 9.16161 10.0463 9.55864 10.0438C9.67908 9.66604 9.80482 9.29002 9.92492 8.91212C9.60323 8.68046 9.28324 8.44641 8.9619 8.21442Z" fill="white"/>
<path d="M8.35879 2H8.40594C8.43225 2.02289 8.45702 2.04954 8.45958 2.08644C8.63298 3.01957 8.80775 3.95252 8.98064 4.88581C8.99585 4.9328 8.96885 4.98866 8.9176 4.99498C8.5655 5.05819 8.22246 5.17539 7.90897 5.34845C7.38654 5.63426 6.94304 6.06477 6.64835 6.58276C6.62973 6.61556 6.60495 6.65332 6.56207 6.65195C6.50501 6.64067 6.45837 6.60326 6.40849 6.5761C5.61972 6.11773 4.83079 5.65989 4.04168 5.20204C4.00837 5.18376 3.97489 5.15096 3.98462 5.1091C4.0041 5.04982 4.04322 4.99976 4.07329 4.94595C4.68694 3.92689 5.59854 3.09252 6.66355 2.56411C7.19828 2.29692 7.77144 2.10968 8.35879 2V2Z" fill="#838A92"/>
<path d="M9.94678 2.70524C10.8165 2.68252 11.6904 2.84345 12.496 3.17163C13.1162 3.42447 13.6962 3.77589 14.2067 4.20948C14.2352 4.23442 14.2666 4.25697 14.2907 4.2867C14.3127 4.32274 14.2998 4.3687 14.2709 4.39672C13.6494 5.11339 13.0279 5.83006 12.4067 6.5469C12.3874 6.56757 12.3655 6.59166 12.3348 6.5908C12.2956 6.59336 12.2687 6.56073 12.2408 6.53887C11.5364 5.92538 10.558 5.64196 9.63483 5.78495C9.59981 5.78837 9.55932 5.80187 9.52891 5.77744C9.50363 5.76274 9.49645 5.73234 9.49269 5.70551C9.35961 4.8069 9.22687 3.90812 9.09378 3.0095C9.08695 2.95774 9.0755 2.90631 9.07328 2.85404C9.07192 2.81492 9.10574 2.78246 9.14333 2.77819C9.40915 2.73599 9.67771 2.71275 9.94678 2.70524Z" fill="#838A92"/>
<path d="M2.92966 5.18362C2.96178 5.16431 2.99885 5.17507 3.02909 5.19233C3.86979 5.64386 4.71169 6.09351 5.55222 6.54555C5.60569 6.56998 5.60518 6.63934 5.57306 6.68136C5.12102 7.50361 5.05456 8.5254 5.39709 9.39907C5.40854 9.4358 5.43417 9.47595 5.41315 9.51405C5.39316 9.55317 5.34499 9.56068 5.30843 9.57743C4.43493 9.91244 3.56228 10.2495 2.68895 10.5849C2.65222 10.6016 2.60285 10.5989 2.57979 10.5618C2.55091 10.5061 2.53315 10.4453 2.51025 10.3869C2.04523 9.1189 2.00867 7.70059 2.40126 6.40887C2.52273 6.00467 2.68605 5.61328 2.88508 5.24119C2.8972 5.22035 2.90831 5.19677 2.92966 5.18362Z" fill="#838A92"/>
<path d="M14.0851 5.34079C14.1177 5.3208 14.1581 5.33584 14.1832 5.36095C14.9198 6.04687 15.4838 6.9149 15.8185 7.86374C16.0412 8.49038 16.1596 9.15238 16.1794 9.81678V10.1559C16.1752 10.2152 16.1762 10.2753 16.1646 10.3339C16.1497 10.3771 16.1003 10.3875 16.06 10.3834C15.1084 10.3363 14.1565 10.2922 13.205 10.2442C13.1464 10.2461 13.1151 10.1849 13.1259 10.133C13.1809 9.19953 12.8045 8.25155 12.1244 7.61005C12.0974 7.58271 12.0634 7.5576 12.0523 7.51916C12.0458 7.48311 12.0711 7.45407 12.0935 7.42947C12.7232 6.76678 13.3526 6.10359 13.9819 5.44056C14.0154 5.40656 14.0453 5.36778 14.0851 5.34079Z" fill="#838A92"/>
<path d="M8.65686 6.86632C9.33868 6.77492 10.0545 6.99838 10.5614 7.46374C11.0078 7.86453 11.2926 8.43975 11.3373 9.03837C11.3879 9.64058 11.1957 10.2583 10.8125 10.7256C10.4279 11.2024 9.85376 11.5207 9.24489 11.5904C8.57776 11.6734 7.88056 11.4561 7.38052 11.0064C6.92831 10.6087 6.6372 10.0335 6.58782 9.43301C6.54016 8.90238 6.67871 8.3574 6.9746 7.91425C7.34943 7.34381 7.97897 6.94935 8.65686 6.86632ZM7.14151 8.00787C7.22591 7.94329 7.32209 7.89716 7.41776 7.85206C7.30825 8.08184 7.25341 8.34066 7.27955 8.59487C7.48678 8.69156 7.69794 8.78057 7.9026 8.88256C7.6788 8.84224 7.45671 8.79287 7.2336 8.74931C7.05968 8.94184 6.94778 9.18614 6.90131 9.44052C6.85211 9.35015 6.80342 9.25909 6.77148 9.16086C6.75439 9.66313 6.91925 10.1681 7.22779 10.5645C7.19909 10.469 7.18457 10.3704 7.17175 10.2718C7.35626 10.4478 7.58621 10.5769 7.83529 10.6342C7.9952 10.4671 8.14588 10.2911 8.30783 10.1261C8.20003 10.3287 8.0825 10.5264 7.97077 10.7269C8.1006 10.9509 8.29827 11.1311 8.52497 11.254C8.42691 11.2716 8.32833 11.2878 8.22856 11.2899C8.69786 11.4571 9.22438 11.4576 9.69368 11.2904C9.59459 11.2875 9.4967 11.2716 9.39949 11.254C9.6262 11.1311 9.82386 10.9509 9.9537 10.7271C9.84163 10.5264 9.72477 10.3282 9.61595 10.1256C9.77756 10.2906 9.92927 10.4652 10.0871 10.6338C10.3376 10.5785 10.5674 10.4473 10.7531 10.272C10.7399 10.3697 10.725 10.4676 10.697 10.5626C11.0054 10.1671 11.1694 9.66227 11.1521 9.16086C11.1216 9.25858 11.073 9.34895 11.024 9.43847C10.9745 9.18563 10.8655 8.9415 10.691 8.74982C10.4681 8.79356 10.246 8.84293 10.0222 8.88308C10.227 8.7816 10.4377 8.69208 10.6449 8.59572C10.6714 8.341 10.616 8.08201 10.5067 7.85189C10.6017 7.89733 10.6977 7.94261 10.7818 8.00718C10.4954 7.58179 10.0569 7.26113 9.56282 7.12258C9.65148 7.1822 9.72272 7.26215 9.79943 7.33561C9.79892 7.33937 9.79789 7.34706 9.79738 7.35099L9.78064 7.33766C9.53224 7.30247 9.27376 7.33766 9.04347 7.43743C9.01562 7.66243 8.99341 7.88811 8.9642 8.11293C8.92849 7.88913 8.91209 7.66243 8.88168 7.43778C8.64575 7.33408 8.38129 7.30435 8.12674 7.33732C8.19986 7.26045 8.27349 7.18305 8.36148 7.12241C7.86673 7.26062 7.42818 7.58231 7.14151 8.00787Z" fill="#838A92"/>
<path d="M8.96185 8.21484C9.2832 8.44684 9.60318 8.68089 9.92487 8.91255C9.80477 9.29045 9.67903 9.66646 9.55859 10.0442C9.16156 10.0468 8.76453 10.0445 8.3675 10.0454C8.24484 9.668 8.12166 9.29096 7.99951 8.91341C8.32035 8.68072 8.64135 8.44804 8.96185 8.21484Z" fill="#838A92"/>
<path d="M4.68815 10.2228C4.74248 10.191 4.80245 10.2304 4.8168 10.2863C5.1853 11.1603 5.95783 11.8507 6.86704 12.1206C6.92188 12.1288 6.96476 12.1823 6.94152 12.2373C6.65827 13.1485 6.37348 14.0595 6.08921 14.9702C6.07947 15.0268 6.01745 15.0551 5.96654 15.0312C5.24748 14.812 4.56874 14.4618 3.97285 14.0034C3.1096 13.3428 2.4218 12.4546 2 11.4528V11.4135C2.01725 11.3848 2.04305 11.3628 2.07466 11.3512C2.94628 10.9762 3.81653 10.5976 4.68815 10.2228Z" fill="#838A92"/>
<path d="M12.2727 10.5827C12.2939 10.5788 12.3154 10.5781 12.3373 10.5805C13.2827 10.6553 14.2283 10.7279 15.1737 10.8021C15.2262 10.8 15.2689 10.8482 15.2581 10.9005C15.173 12.1367 14.7058 13.3412 13.944 14.3176C13.5796 14.7867 13.1484 15.2037 12.6675 15.5522C12.6298 15.5857 12.5689 15.5733 12.5435 15.5314C12.0004 14.7922 11.4576 14.0526 10.9149 13.3131C10.8845 13.2671 10.8399 13.2273 10.8265 13.1726C10.8187 13.1226 10.866 13.0947 10.9 13.0694C11.6508 12.5233 12.1432 11.6404 12.2139 10.7148C12.2168 10.6666 12.2155 10.5995 12.2727 10.5827Z" fill="#838A92"/>
<path d="M9.9174 12.6356C9.96011 12.6148 10.005 12.6457 10.0252 12.6831C10.5557 13.4741 11.0882 14.2637 11.6183 15.0549C11.6635 15.1111 11.6143 15.1774 11.5592 15.2009C10.3541 16.0128 8.86281 16.3837 7.41786 16.2378C7.0497 16.2012 6.68461 16.1332 6.32859 16.0329C6.28007 16.0237 6.25273 15.9687 6.27067 15.9238C6.52385 15.0031 6.77892 14.083 7.03278 13.1627C7.04184 13.1046 7.1071 13.0774 7.15801 13.102C7.86443 13.3041 8.63816 13.2532 9.314 12.966C9.52686 12.8787 9.72521 12.7609 9.9174 12.6356Z" fill="#838A92"/>
</svg>
